G04 #@! TF.GenerationSoftware,KiCad,Pcbnew,(5.1.8)-1*
G04 #@! TF.CreationDate,2021-11-13T10:16:22+08:00*
G04 #@! TF.ProjectId,haptic-cloth-panelized-small,68617074-6963-42d6-936c-6f74682d7061,rev?*
G04 #@! TF.SameCoordinates,Original*
G04 #@! TF.FileFunction,Other,Comment*
%FSLAX46Y46*%
G04 Gerber Fmt 4.6, Leading zero omitted, Abs format (unit mm)*
G04 Created by KiCad (PCBNEW (5.1.8)-1) date 2021-11-13 10:16:22*
%MOMM*%
%LPD*%
G01*
G04 APERTURE LIST*
%ADD10C,0.400000*%
G04 APERTURE END LIST*
D10*
X138904761Y-43548523D02*
X140904761Y-42881857D01*
X138904761Y-42215190D01*
X140142857Y-41548523D02*
X140142857Y-40024714D01*
X140714285Y-37929476D02*
X140809523Y-38024714D01*
X140904761Y-38310428D01*
X140904761Y-38500904D01*
X140809523Y-38786619D01*
X140619047Y-38977095D01*
X140428571Y-39072333D01*
X140047619Y-39167571D01*
X139761904Y-39167571D01*
X139380952Y-39072333D01*
X139190476Y-38977095D01*
X139000000Y-38786619D01*
X138904761Y-38500904D01*
X138904761Y-38310428D01*
X139000000Y-38024714D01*
X139095238Y-37929476D01*
X138904761Y-37072333D02*
X140523809Y-37072333D01*
X140714285Y-36977095D01*
X140809523Y-36881857D01*
X140904761Y-36691380D01*
X140904761Y-36310428D01*
X140809523Y-36119952D01*
X140714285Y-36024714D01*
X140523809Y-35929476D01*
X138904761Y-35929476D01*
X138904761Y-35262809D02*
X138904761Y-34119952D01*
X140904761Y-34691380D02*
X138904761Y-34691380D01*
X140000000Y-46999000D02*
X140000000Y-131001037D01*
X117904761Y-43548523D02*
X119904761Y-42881857D01*
X117904761Y-42215190D01*
X119142857Y-41548523D02*
X119142857Y-40024714D01*
X119714285Y-37929476D02*
X119809523Y-38024714D01*
X119904761Y-38310428D01*
X119904761Y-38500904D01*
X119809523Y-38786619D01*
X119619047Y-38977095D01*
X119428571Y-39072333D01*
X119047619Y-39167571D01*
X118761904Y-39167571D01*
X118380952Y-39072333D01*
X118190476Y-38977095D01*
X118000000Y-38786619D01*
X117904761Y-38500904D01*
X117904761Y-38310428D01*
X118000000Y-38024714D01*
X118095238Y-37929476D01*
X117904761Y-37072333D02*
X119523809Y-37072333D01*
X119714285Y-36977095D01*
X119809523Y-36881857D01*
X119904761Y-36691380D01*
X119904761Y-36310428D01*
X119809523Y-36119952D01*
X119714285Y-36024714D01*
X119523809Y-35929476D01*
X117904761Y-35929476D01*
X117904761Y-35262809D02*
X117904761Y-34119952D01*
X119904761Y-34691380D02*
X117904761Y-34691380D01*
X119000000Y-46999000D02*
X119000000Y-131001037D01*
X115904761Y-43548523D02*
X117904761Y-42881857D01*
X115904761Y-42215190D01*
X117142857Y-41548523D02*
X117142857Y-40024714D01*
X117714285Y-37929476D02*
X117809523Y-38024714D01*
X117904761Y-38310428D01*
X117904761Y-38500904D01*
X117809523Y-38786619D01*
X117619047Y-38977095D01*
X117428571Y-39072333D01*
X117047619Y-39167571D01*
X116761904Y-39167571D01*
X116380952Y-39072333D01*
X116190476Y-38977095D01*
X116000000Y-38786619D01*
X115904761Y-38500904D01*
X115904761Y-38310428D01*
X116000000Y-38024714D01*
X116095238Y-37929476D01*
X115904761Y-37072333D02*
X117523809Y-37072333D01*
X117714285Y-36977095D01*
X117809523Y-36881857D01*
X117904761Y-36691380D01*
X117904761Y-36310428D01*
X117809523Y-36119952D01*
X117714285Y-36024714D01*
X117523809Y-35929476D01*
X115904761Y-35929476D01*
X115904761Y-35262809D02*
X115904761Y-34119952D01*
X117904761Y-34691380D02*
X115904761Y-34691380D01*
X117000000Y-46999000D02*
X117000000Y-131001037D01*
X69904761Y-43548523D02*
X71904761Y-42881857D01*
X69904761Y-42215190D01*
X71142857Y-41548523D02*
X71142857Y-40024714D01*
X71714285Y-37929476D02*
X71809523Y-38024714D01*
X71904761Y-38310428D01*
X71904761Y-38500904D01*
X71809523Y-38786619D01*
X71619047Y-38977095D01*
X71428571Y-39072333D01*
X71047619Y-39167571D01*
X70761904Y-39167571D01*
X70380952Y-39072333D01*
X70190476Y-38977095D01*
X70000000Y-38786619D01*
X69904761Y-38500904D01*
X69904761Y-38310428D01*
X70000000Y-38024714D01*
X70095238Y-37929476D01*
X69904761Y-37072333D02*
X71523809Y-37072333D01*
X71714285Y-36977095D01*
X71809523Y-36881857D01*
X71904761Y-36691380D01*
X71904761Y-36310428D01*
X71809523Y-36119952D01*
X71714285Y-36024714D01*
X71523809Y-35929476D01*
X69904761Y-35929476D01*
X69904761Y-35262809D02*
X69904761Y-34119952D01*
X71904761Y-34691380D02*
X69904761Y-34691380D01*
X71000000Y-46999000D02*
X71000000Y-131001037D01*
X92904761Y-43548523D02*
X94904761Y-42881857D01*
X92904761Y-42215190D01*
X94142857Y-41548523D02*
X94142857Y-40024714D01*
X94714285Y-37929476D02*
X94809523Y-38024714D01*
X94904761Y-38310428D01*
X94904761Y-38500904D01*
X94809523Y-38786619D01*
X94619047Y-38977095D01*
X94428571Y-39072333D01*
X94047619Y-39167571D01*
X93761904Y-39167571D01*
X93380952Y-39072333D01*
X93190476Y-38977095D01*
X93000000Y-38786619D01*
X92904761Y-38500904D01*
X92904761Y-38310428D01*
X93000000Y-38024714D01*
X93095238Y-37929476D01*
X92904761Y-37072333D02*
X94523809Y-37072333D01*
X94714285Y-36977095D01*
X94809523Y-36881857D01*
X94904761Y-36691380D01*
X94904761Y-36310428D01*
X94809523Y-36119952D01*
X94714285Y-36024714D01*
X94523809Y-35929476D01*
X92904761Y-35929476D01*
X92904761Y-35262809D02*
X92904761Y-34119952D01*
X94904761Y-34691380D02*
X92904761Y-34691380D01*
X94000000Y-46999000D02*
X94000000Y-131001037D01*
X71904761Y-43548523D02*
X73904761Y-42881857D01*
X71904761Y-42215190D01*
X73142857Y-41548523D02*
X73142857Y-40024714D01*
X73714285Y-37929476D02*
X73809523Y-38024714D01*
X73904761Y-38310428D01*
X73904761Y-38500904D01*
X73809523Y-38786619D01*
X73619047Y-38977095D01*
X73428571Y-39072333D01*
X73047619Y-39167571D01*
X72761904Y-39167571D01*
X72380952Y-39072333D01*
X72190476Y-38977095D01*
X72000000Y-38786619D01*
X71904761Y-38500904D01*
X71904761Y-38310428D01*
X72000000Y-38024714D01*
X72095238Y-37929476D01*
X71904761Y-37072333D02*
X73523809Y-37072333D01*
X73714285Y-36977095D01*
X73809523Y-36881857D01*
X73904761Y-36691380D01*
X73904761Y-36310428D01*
X73809523Y-36119952D01*
X73714285Y-36024714D01*
X73523809Y-35929476D01*
X71904761Y-35929476D01*
X71904761Y-35262809D02*
X71904761Y-34119952D01*
X73904761Y-34691380D02*
X71904761Y-34691380D01*
X73000000Y-46999000D02*
X73000000Y-131001037D01*
X94904761Y-43548523D02*
X96904761Y-42881857D01*
X94904761Y-42215190D01*
X96142857Y-41548523D02*
X96142857Y-40024714D01*
X96714285Y-37929476D02*
X96809523Y-38024714D01*
X96904761Y-38310428D01*
X96904761Y-38500904D01*
X96809523Y-38786619D01*
X96619047Y-38977095D01*
X96428571Y-39072333D01*
X96047619Y-39167571D01*
X95761904Y-39167571D01*
X95380952Y-39072333D01*
X95190476Y-38977095D01*
X95000000Y-38786619D01*
X94904761Y-38500904D01*
X94904761Y-38310428D01*
X95000000Y-38024714D01*
X95095238Y-37929476D01*
X94904761Y-37072333D02*
X96523809Y-37072333D01*
X96714285Y-36977095D01*
X96809523Y-36881857D01*
X96904761Y-36691380D01*
X96904761Y-36310428D01*
X96809523Y-36119952D01*
X96714285Y-36024714D01*
X96523809Y-35929476D01*
X94904761Y-35929476D01*
X94904761Y-35262809D02*
X94904761Y-34119952D01*
X96904761Y-34691380D02*
X94904761Y-34691380D01*
X96000000Y-46999000D02*
X96000000Y-131001037D01*
X48904761Y-43548523D02*
X50904761Y-42881857D01*
X48904761Y-42215190D01*
X50142857Y-41548523D02*
X50142857Y-40024714D01*
X50714285Y-37929476D02*
X50809523Y-38024714D01*
X50904761Y-38310428D01*
X50904761Y-38500904D01*
X50809523Y-38786619D01*
X50619047Y-38977095D01*
X50428571Y-39072333D01*
X50047619Y-39167571D01*
X49761904Y-39167571D01*
X49380952Y-39072333D01*
X49190476Y-38977095D01*
X49000000Y-38786619D01*
X48904761Y-38500904D01*
X48904761Y-38310428D01*
X49000000Y-38024714D01*
X49095238Y-37929476D01*
X48904761Y-37072333D02*
X50523809Y-37072333D01*
X50714285Y-36977095D01*
X50809523Y-36881857D01*
X50904761Y-36691380D01*
X50904761Y-36310428D01*
X50809523Y-36119952D01*
X50714285Y-36024714D01*
X50523809Y-35929476D01*
X48904761Y-35929476D01*
X48904761Y-35262809D02*
X48904761Y-34119952D01*
X50904761Y-34691380D02*
X48904761Y-34691380D01*
X50000000Y-46999000D02*
X50000000Y-131001037D01*
X151451512Y-112904761D02*
X152118178Y-114904761D01*
X152784845Y-112904761D01*
X153451512Y-114142857D02*
X154975321Y-114142857D01*
X157070559Y-114714285D02*
X156975321Y-114809523D01*
X156689607Y-114904761D01*
X156499131Y-114904761D01*
X156213416Y-114809523D01*
X156022940Y-114619047D01*
X155927702Y-114428571D01*
X155832464Y-114047619D01*
X155832464Y-113761904D01*
X155927702Y-113380952D01*
X156022940Y-113190476D01*
X156213416Y-113000000D01*
X156499131Y-112904761D01*
X156689607Y-112904761D01*
X156975321Y-113000000D01*
X157070559Y-113095238D01*
X157927702Y-112904761D02*
X157927702Y-114523809D01*
X158022940Y-114714285D01*
X158118178Y-114809523D01*
X158308655Y-114904761D01*
X158689607Y-114904761D01*
X158880083Y-114809523D01*
X158975321Y-114714285D01*
X159070559Y-114523809D01*
X159070559Y-112904761D01*
X159737226Y-112904761D02*
X160880083Y-112904761D01*
X160308655Y-114904761D02*
X160308655Y-112904761D01*
X42000000Y-114000000D02*
X148001036Y-114000000D01*
X151451512Y-110904761D02*
X152118178Y-112904761D01*
X152784845Y-110904761D01*
X153451512Y-112142857D02*
X154975321Y-112142857D01*
X157070559Y-112714285D02*
X156975321Y-112809523D01*
X156689607Y-112904761D01*
X156499131Y-112904761D01*
X156213416Y-112809523D01*
X156022940Y-112619047D01*
X155927702Y-112428571D01*
X155832464Y-112047619D01*
X155832464Y-111761904D01*
X155927702Y-111380952D01*
X156022940Y-111190476D01*
X156213416Y-111000000D01*
X156499131Y-110904761D01*
X156689607Y-110904761D01*
X156975321Y-111000000D01*
X157070559Y-111095238D01*
X157927702Y-110904761D02*
X157927702Y-112523809D01*
X158022940Y-112714285D01*
X158118178Y-112809523D01*
X158308655Y-112904761D01*
X158689607Y-112904761D01*
X158880083Y-112809523D01*
X158975321Y-112714285D01*
X159070559Y-112523809D01*
X159070559Y-110904761D01*
X159737226Y-110904761D02*
X160880083Y-110904761D01*
X160308655Y-112904761D02*
X160308655Y-110904761D01*
X42000000Y-112000000D02*
X148001036Y-112000000D01*
X151451512Y-96904761D02*
X152118178Y-98904761D01*
X152784845Y-96904761D01*
X153451512Y-98142857D02*
X154975321Y-98142857D01*
X157070559Y-98714285D02*
X156975321Y-98809523D01*
X156689607Y-98904761D01*
X156499131Y-98904761D01*
X156213416Y-98809523D01*
X156022940Y-98619047D01*
X155927702Y-98428571D01*
X155832464Y-98047619D01*
X155832464Y-97761904D01*
X155927702Y-97380952D01*
X156022940Y-97190476D01*
X156213416Y-97000000D01*
X156499131Y-96904761D01*
X156689607Y-96904761D01*
X156975321Y-97000000D01*
X157070559Y-97095238D01*
X157927702Y-96904761D02*
X157927702Y-98523809D01*
X158022940Y-98714285D01*
X158118178Y-98809523D01*
X158308655Y-98904761D01*
X158689607Y-98904761D01*
X158880083Y-98809523D01*
X158975321Y-98714285D01*
X159070559Y-98523809D01*
X159070559Y-96904761D01*
X159737226Y-96904761D02*
X160880083Y-96904761D01*
X160308655Y-98904761D02*
X160308655Y-96904761D01*
X42000000Y-98000000D02*
X148001036Y-98000000D01*
X151451512Y-80904761D02*
X152118178Y-82904761D01*
X152784845Y-80904761D01*
X153451512Y-82142857D02*
X154975321Y-82142857D01*
X157070559Y-82714285D02*
X156975321Y-82809523D01*
X156689607Y-82904761D01*
X156499131Y-82904761D01*
X156213416Y-82809523D01*
X156022940Y-82619047D01*
X155927702Y-82428571D01*
X155832464Y-82047619D01*
X155832464Y-81761904D01*
X155927702Y-81380952D01*
X156022940Y-81190476D01*
X156213416Y-81000000D01*
X156499131Y-80904761D01*
X156689607Y-80904761D01*
X156975321Y-81000000D01*
X157070559Y-81095238D01*
X157927702Y-80904761D02*
X157927702Y-82523809D01*
X158022940Y-82714285D01*
X158118178Y-82809523D01*
X158308655Y-82904761D01*
X158689607Y-82904761D01*
X158880083Y-82809523D01*
X158975321Y-82714285D01*
X159070559Y-82523809D01*
X159070559Y-80904761D01*
X159737226Y-80904761D02*
X160880083Y-80904761D01*
X160308655Y-82904761D02*
X160308655Y-80904761D01*
X42000000Y-82000000D02*
X148001036Y-82000000D01*
X151451512Y-64904761D02*
X152118178Y-66904761D01*
X152784845Y-64904761D01*
X153451512Y-66142857D02*
X154975321Y-66142857D01*
X157070559Y-66714285D02*
X156975321Y-66809523D01*
X156689607Y-66904761D01*
X156499131Y-66904761D01*
X156213416Y-66809523D01*
X156022940Y-66619047D01*
X155927702Y-66428571D01*
X155832464Y-66047619D01*
X155832464Y-65761904D01*
X155927702Y-65380952D01*
X156022940Y-65190476D01*
X156213416Y-65000000D01*
X156499131Y-64904761D01*
X156689607Y-64904761D01*
X156975321Y-65000000D01*
X157070559Y-65095238D01*
X157927702Y-64904761D02*
X157927702Y-66523809D01*
X158022940Y-66714285D01*
X158118178Y-66809523D01*
X158308655Y-66904761D01*
X158689607Y-66904761D01*
X158880083Y-66809523D01*
X158975321Y-66714285D01*
X159070559Y-66523809D01*
X159070559Y-64904761D01*
X159737226Y-64904761D02*
X160880083Y-64904761D01*
X160308655Y-66904761D02*
X160308655Y-64904761D01*
X42000000Y-66000000D02*
X148001036Y-66000000D01*
X151451512Y-94904761D02*
X152118178Y-96904761D01*
X152784845Y-94904761D01*
X153451512Y-96142857D02*
X154975321Y-96142857D01*
X157070559Y-96714285D02*
X156975321Y-96809523D01*
X156689607Y-96904761D01*
X156499131Y-96904761D01*
X156213416Y-96809523D01*
X156022940Y-96619047D01*
X155927702Y-96428571D01*
X155832464Y-96047619D01*
X155832464Y-95761904D01*
X155927702Y-95380952D01*
X156022940Y-95190476D01*
X156213416Y-95000000D01*
X156499131Y-94904761D01*
X156689607Y-94904761D01*
X156975321Y-95000000D01*
X157070559Y-95095238D01*
X157927702Y-94904761D02*
X157927702Y-96523809D01*
X158022940Y-96714285D01*
X158118178Y-96809523D01*
X158308655Y-96904761D01*
X158689607Y-96904761D01*
X158880083Y-96809523D01*
X158975321Y-96714285D01*
X159070559Y-96523809D01*
X159070559Y-94904761D01*
X159737226Y-94904761D02*
X160880083Y-94904761D01*
X160308655Y-96904761D02*
X160308655Y-94904761D01*
X42000000Y-96000000D02*
X148001036Y-96000000D01*
X151451512Y-78904761D02*
X152118178Y-80904761D01*
X152784845Y-78904761D01*
X153451512Y-80142857D02*
X154975321Y-80142857D01*
X157070559Y-80714285D02*
X156975321Y-80809523D01*
X156689607Y-80904761D01*
X156499131Y-80904761D01*
X156213416Y-80809523D01*
X156022940Y-80619047D01*
X155927702Y-80428571D01*
X155832464Y-80047619D01*
X155832464Y-79761904D01*
X155927702Y-79380952D01*
X156022940Y-79190476D01*
X156213416Y-79000000D01*
X156499131Y-78904761D01*
X156689607Y-78904761D01*
X156975321Y-79000000D01*
X157070559Y-79095238D01*
X157927702Y-78904761D02*
X157927702Y-80523809D01*
X158022940Y-80714285D01*
X158118178Y-80809523D01*
X158308655Y-80904761D01*
X158689607Y-80904761D01*
X158880083Y-80809523D01*
X158975321Y-80714285D01*
X159070559Y-80523809D01*
X159070559Y-78904761D01*
X159737226Y-78904761D02*
X160880083Y-78904761D01*
X160308655Y-80904761D02*
X160308655Y-78904761D01*
X42000000Y-80000000D02*
X148001036Y-80000000D01*
X151451512Y-62904761D02*
X152118178Y-64904761D01*
X152784845Y-62904761D01*
X153451512Y-64142857D02*
X154975321Y-64142857D01*
X157070559Y-64714285D02*
X156975321Y-64809523D01*
X156689607Y-64904761D01*
X156499131Y-64904761D01*
X156213416Y-64809523D01*
X156022940Y-64619047D01*
X155927702Y-64428571D01*
X155832464Y-64047619D01*
X155832464Y-63761904D01*
X155927702Y-63380952D01*
X156022940Y-63190476D01*
X156213416Y-63000000D01*
X156499131Y-62904761D01*
X156689607Y-62904761D01*
X156975321Y-63000000D01*
X157070559Y-63095238D01*
X157927702Y-62904761D02*
X157927702Y-64523809D01*
X158022940Y-64714285D01*
X158118178Y-64809523D01*
X158308655Y-64904761D01*
X158689607Y-64904761D01*
X158880083Y-64809523D01*
X158975321Y-64714285D01*
X159070559Y-64523809D01*
X159070559Y-62904761D01*
X159737226Y-62904761D02*
X160880083Y-62904761D01*
X160308655Y-64904761D02*
X160308655Y-62904761D01*
X42000000Y-64000000D02*
X148001036Y-64000000D01*
M02*
