G04 #@! TF.GenerationSoftware,KiCad,Pcbnew,(5.1.8)-1*
G04 #@! TF.CreationDate,2021-11-13T10:16:22+08:00*
G04 #@! TF.ProjectId,haptic-cloth-panelized-small,68617074-6963-42d6-936c-6f74682d7061,rev?*
G04 #@! TF.SameCoordinates,Original*
G04 #@! TF.FileFunction,Legend,Bot*
G04 #@! TF.FilePolarity,Positive*
%FSLAX46Y46*%
G04 Gerber Fmt 4.6, Leading zero omitted, Abs format (unit mm)*
G04 Created by KiCad (PCBNEW (5.1.8)-1) date 2021-11-13 10:16:22*
%MOMM*%
%LPD*%
G01*
G04 APERTURE LIST*
%ADD10C,0.150000*%
%ADD11C,0.120000*%
%ADD12C,1.500000*%
%ADD13C,2.500000*%
%ADD14R,1.000000X1.000000*%
%ADD15C,1.000000*%
%ADD16O,1.350000X1.350000*%
%ADD17R,1.350000X1.350000*%
G04 APERTURE END LIST*
D10*
X129302337Y-115862941D02*
X129035670Y-116662941D01*
X128769004Y-115862941D01*
X128045194Y-116586751D02*
X128083289Y-116624846D01*
X128197575Y-116662941D01*
X128273766Y-116662941D01*
X128388051Y-116624846D01*
X128464242Y-116548656D01*
X128502337Y-116472465D01*
X128540432Y-116320084D01*
X128540432Y-116205798D01*
X128502337Y-116053417D01*
X128464242Y-115977227D01*
X128388051Y-115901037D01*
X128273766Y-115862941D01*
X128197575Y-115862941D01*
X128083289Y-115901037D01*
X128045194Y-115939132D01*
X127245194Y-116586751D02*
X127283289Y-116624846D01*
X127397575Y-116662941D01*
X127473766Y-116662941D01*
X127588051Y-116624846D01*
X127664242Y-116548656D01*
X127702337Y-116472465D01*
X127740432Y-116320084D01*
X127740432Y-116205798D01*
X127702337Y-116053417D01*
X127664242Y-115977227D01*
X127588051Y-115901037D01*
X127473766Y-115862941D01*
X127397575Y-115862941D01*
X127283289Y-115901037D01*
X127245194Y-115939132D01*
X129188051Y-118948941D02*
X129188051Y-118148941D01*
X128883289Y-118148941D01*
X128807099Y-118187037D01*
X128769004Y-118225132D01*
X128730908Y-118301322D01*
X128730908Y-118415608D01*
X128769004Y-118491798D01*
X128807099Y-118529894D01*
X128883289Y-118567989D01*
X129188051Y-118567989D01*
X128426147Y-118720370D02*
X128045194Y-118720370D01*
X128502337Y-118948941D02*
X128235670Y-118148941D01*
X127969004Y-118948941D01*
X127778528Y-118148941D02*
X127283289Y-118148941D01*
X127549956Y-118453703D01*
X127435670Y-118453703D01*
X127359480Y-118491798D01*
X127321385Y-118529894D01*
X127283289Y-118606084D01*
X127283289Y-118796560D01*
X127321385Y-118872751D01*
X127359480Y-118910846D01*
X127435670Y-118948941D01*
X127664242Y-118948941D01*
X127740432Y-118910846D01*
X127778528Y-118872751D01*
X129188051Y-120472941D02*
X129188051Y-119672941D01*
X128883289Y-119672941D01*
X128807099Y-119711037D01*
X128769004Y-119749132D01*
X128730908Y-119825322D01*
X128730908Y-119939608D01*
X128769004Y-120015798D01*
X128807099Y-120053894D01*
X128883289Y-120091989D01*
X129188051Y-120091989D01*
X128426147Y-120244370D02*
X128045194Y-120244370D01*
X128502337Y-120472941D02*
X128235670Y-119672941D01*
X127969004Y-120472941D01*
X127359480Y-119939608D02*
X127359480Y-120472941D01*
X127549956Y-119634846D02*
X127740432Y-120206275D01*
X127245194Y-120206275D01*
X129188051Y-122504941D02*
X129188051Y-121704941D01*
X128883289Y-121704941D01*
X128807099Y-121743037D01*
X128769004Y-121781132D01*
X128730908Y-121857322D01*
X128730908Y-121971608D01*
X128769004Y-122047798D01*
X128807099Y-122085894D01*
X128883289Y-122123989D01*
X129188051Y-122123989D01*
X128426147Y-122276370D02*
X128045194Y-122276370D01*
X128502337Y-122504941D02*
X128235670Y-121704941D01*
X127969004Y-122504941D01*
X127321385Y-121704941D02*
X127702337Y-121704941D01*
X127740432Y-122085894D01*
X127702337Y-122047798D01*
X127626147Y-122009703D01*
X127435670Y-122009703D01*
X127359480Y-122047798D01*
X127321385Y-122085894D01*
X127283289Y-122162084D01*
X127283289Y-122352560D01*
X127321385Y-122428751D01*
X127359480Y-122466846D01*
X127435670Y-122504941D01*
X127626147Y-122504941D01*
X127702337Y-122466846D01*
X127740432Y-122428751D01*
X129188051Y-124536941D02*
X129188051Y-123736941D01*
X128883289Y-123736941D01*
X128807099Y-123775037D01*
X128769004Y-123813132D01*
X128730908Y-123889322D01*
X128730908Y-124003608D01*
X128769004Y-124079798D01*
X128807099Y-124117894D01*
X128883289Y-124155989D01*
X129188051Y-124155989D01*
X128426147Y-124308370D02*
X128045194Y-124308370D01*
X128502337Y-124536941D02*
X128235670Y-123736941D01*
X127969004Y-124536941D01*
X127359480Y-123736941D02*
X127511861Y-123736941D01*
X127588051Y-123775037D01*
X127626147Y-123813132D01*
X127702337Y-123927417D01*
X127740432Y-124079798D01*
X127740432Y-124384560D01*
X127702337Y-124460751D01*
X127664242Y-124498846D01*
X127588051Y-124536941D01*
X127435670Y-124536941D01*
X127359480Y-124498846D01*
X127321385Y-124460751D01*
X127283289Y-124384560D01*
X127283289Y-124194084D01*
X127321385Y-124117894D01*
X127359480Y-124079798D01*
X127435670Y-124041703D01*
X127588051Y-124041703D01*
X127664242Y-124079798D01*
X127702337Y-124117894D01*
X127740432Y-124194084D01*
X134450099Y-125807037D02*
X134526289Y-125768941D01*
X134640575Y-125768941D01*
X134754861Y-125807037D01*
X134831051Y-125883227D01*
X134869147Y-125959417D01*
X134907242Y-126111798D01*
X134907242Y-126226084D01*
X134869147Y-126378465D01*
X134831051Y-126454656D01*
X134754861Y-126530846D01*
X134640575Y-126568941D01*
X134564385Y-126568941D01*
X134450099Y-126530846D01*
X134412004Y-126492751D01*
X134412004Y-126226084D01*
X134564385Y-126226084D01*
X134069147Y-126568941D02*
X134069147Y-125768941D01*
X133612004Y-126568941D01*
X133612004Y-125768941D01*
X133231051Y-126568941D02*
X133231051Y-125768941D01*
X133040575Y-125768941D01*
X132926289Y-125807037D01*
X132850099Y-125883227D01*
X132812004Y-125959417D01*
X132773908Y-126111798D01*
X132773908Y-126226084D01*
X132812004Y-126378465D01*
X132850099Y-126454656D01*
X132926289Y-126530846D01*
X133040575Y-126568941D01*
X133231051Y-126568941D01*
X134107123Y-123793656D02*
X134907123Y-123793656D01*
X134526170Y-123793656D02*
X134526170Y-123336513D01*
X134107123Y-123336513D02*
X134907123Y-123336513D01*
X134183313Y-122498417D02*
X134145218Y-122536513D01*
X134107123Y-122650798D01*
X134107123Y-122726989D01*
X134145218Y-122841275D01*
X134221408Y-122917465D01*
X134297599Y-122955560D01*
X134449980Y-122993656D01*
X134564266Y-122993656D01*
X134716647Y-122955560D01*
X134792837Y-122917465D01*
X134869028Y-122841275D01*
X134907123Y-122726989D01*
X134907123Y-122650798D01*
X134869028Y-122536513D01*
X134830932Y-122498417D01*
X134145218Y-122193656D02*
X134107123Y-122079370D01*
X134107123Y-121888894D01*
X134145218Y-121812703D01*
X134183313Y-121774608D01*
X134259504Y-121736513D01*
X134335694Y-121736513D01*
X134411885Y-121774608D01*
X134449980Y-121812703D01*
X134488075Y-121888894D01*
X134526170Y-122041275D01*
X134564266Y-122117465D01*
X134602361Y-122155560D01*
X134678551Y-122193656D01*
X134754742Y-122193656D01*
X134830932Y-122155560D01*
X134869028Y-122117465D01*
X134907123Y-122041275D01*
X134907123Y-121850798D01*
X134869028Y-121736513D01*
X134107123Y-120326989D02*
X134488075Y-120593656D01*
X134107123Y-120784132D02*
X134907123Y-120784132D01*
X134907123Y-120479370D01*
X134869028Y-120403179D01*
X134830932Y-120365084D01*
X134754742Y-120326989D01*
X134640456Y-120326989D01*
X134564266Y-120365084D01*
X134526170Y-120403179D01*
X134488075Y-120479370D01*
X134488075Y-120784132D01*
X134145218Y-119679370D02*
X134107123Y-119755560D01*
X134107123Y-119907941D01*
X134145218Y-119984132D01*
X134221408Y-120022227D01*
X134526170Y-120022227D01*
X134602361Y-119984132D01*
X134640456Y-119907941D01*
X134640456Y-119755560D01*
X134602361Y-119679370D01*
X134526170Y-119641275D01*
X134449980Y-119641275D01*
X134373789Y-120022227D01*
X134640456Y-119374608D02*
X134107123Y-119184132D01*
X134640456Y-118993656D01*
X134107123Y-117660322D02*
X134107123Y-118117465D01*
X134107123Y-117888894D02*
X134907123Y-117888894D01*
X134792837Y-117965084D01*
X134716647Y-118041275D01*
X134678551Y-118117465D01*
X132757123Y-123469846D02*
X133557123Y-123469846D01*
X132757123Y-123012703D01*
X133557123Y-123012703D01*
X132757123Y-122517465D02*
X132795218Y-122593656D01*
X132833313Y-122631751D01*
X132909504Y-122669846D01*
X133138075Y-122669846D01*
X133214266Y-122631751D01*
X133252361Y-122593656D01*
X133290456Y-122517465D01*
X133290456Y-122403179D01*
X133252361Y-122326989D01*
X133214266Y-122288894D01*
X133138075Y-122250798D01*
X132909504Y-122250798D01*
X132833313Y-122288894D01*
X132795218Y-122326989D01*
X132757123Y-122403179D01*
X132757123Y-122517465D01*
X133290456Y-121984132D02*
X132757123Y-121793656D01*
X133290456Y-121603179D01*
X133480932Y-120726989D02*
X133519028Y-120688894D01*
X133557123Y-120612703D01*
X133557123Y-120422227D01*
X133519028Y-120346037D01*
X133480932Y-120307941D01*
X133404742Y-120269846D01*
X133328551Y-120269846D01*
X133214266Y-120307941D01*
X132757123Y-120765084D01*
X132757123Y-120269846D01*
X133557123Y-119774608D02*
X133557123Y-119698417D01*
X133519028Y-119622227D01*
X133480932Y-119584132D01*
X133404742Y-119546037D01*
X133252361Y-119507941D01*
X133061885Y-119507941D01*
X132909504Y-119546037D01*
X132833313Y-119584132D01*
X132795218Y-119622227D01*
X132757123Y-119698417D01*
X132757123Y-119774608D01*
X132795218Y-119850798D01*
X132833313Y-119888894D01*
X132909504Y-119926989D01*
X133061885Y-119965084D01*
X133252361Y-119965084D01*
X133404742Y-119926989D01*
X133480932Y-119888894D01*
X133519028Y-119850798D01*
X133557123Y-119774608D01*
X133480932Y-119203179D02*
X133519028Y-119165084D01*
X133557123Y-119088894D01*
X133557123Y-118898417D01*
X133519028Y-118822227D01*
X133480932Y-118784132D01*
X133404742Y-118746037D01*
X133328551Y-118746037D01*
X133214266Y-118784132D01*
X132757123Y-119241275D01*
X132757123Y-118746037D01*
X132757123Y-117984132D02*
X132757123Y-118441275D01*
X132757123Y-118212703D02*
X133557123Y-118212703D01*
X133442837Y-118288894D01*
X133366647Y-118365084D01*
X133328551Y-118441275D01*
X106302328Y-115862941D02*
X106035661Y-116662941D01*
X105768995Y-115862941D01*
X105045185Y-116586751D02*
X105083280Y-116624846D01*
X105197566Y-116662941D01*
X105273757Y-116662941D01*
X105388042Y-116624846D01*
X105464233Y-116548656D01*
X105502328Y-116472465D01*
X105540423Y-116320084D01*
X105540423Y-116205798D01*
X105502328Y-116053417D01*
X105464233Y-115977227D01*
X105388042Y-115901037D01*
X105273757Y-115862941D01*
X105197566Y-115862941D01*
X105083280Y-115901037D01*
X105045185Y-115939132D01*
X104245185Y-116586751D02*
X104283280Y-116624846D01*
X104397566Y-116662941D01*
X104473757Y-116662941D01*
X104588042Y-116624846D01*
X104664233Y-116548656D01*
X104702328Y-116472465D01*
X104740423Y-116320084D01*
X104740423Y-116205798D01*
X104702328Y-116053417D01*
X104664233Y-115977227D01*
X104588042Y-115901037D01*
X104473757Y-115862941D01*
X104397566Y-115862941D01*
X104283280Y-115901037D01*
X104245185Y-115939132D01*
X106188042Y-118948941D02*
X106188042Y-118148941D01*
X105883280Y-118148941D01*
X105807090Y-118187037D01*
X105768995Y-118225132D01*
X105730899Y-118301322D01*
X105730899Y-118415608D01*
X105768995Y-118491798D01*
X105807090Y-118529894D01*
X105883280Y-118567989D01*
X106188042Y-118567989D01*
X105426138Y-118720370D02*
X105045185Y-118720370D01*
X105502328Y-118948941D02*
X105235661Y-118148941D01*
X104968995Y-118948941D01*
X104778519Y-118148941D02*
X104283280Y-118148941D01*
X104549947Y-118453703D01*
X104435661Y-118453703D01*
X104359471Y-118491798D01*
X104321376Y-118529894D01*
X104283280Y-118606084D01*
X104283280Y-118796560D01*
X104321376Y-118872751D01*
X104359471Y-118910846D01*
X104435661Y-118948941D01*
X104664233Y-118948941D01*
X104740423Y-118910846D01*
X104778519Y-118872751D01*
X106188042Y-120472941D02*
X106188042Y-119672941D01*
X105883280Y-119672941D01*
X105807090Y-119711037D01*
X105768995Y-119749132D01*
X105730899Y-119825322D01*
X105730899Y-119939608D01*
X105768995Y-120015798D01*
X105807090Y-120053894D01*
X105883280Y-120091989D01*
X106188042Y-120091989D01*
X105426138Y-120244370D02*
X105045185Y-120244370D01*
X105502328Y-120472941D02*
X105235661Y-119672941D01*
X104968995Y-120472941D01*
X104359471Y-119939608D02*
X104359471Y-120472941D01*
X104549947Y-119634846D02*
X104740423Y-120206275D01*
X104245185Y-120206275D01*
X106188042Y-122504941D02*
X106188042Y-121704941D01*
X105883280Y-121704941D01*
X105807090Y-121743037D01*
X105768995Y-121781132D01*
X105730899Y-121857322D01*
X105730899Y-121971608D01*
X105768995Y-122047798D01*
X105807090Y-122085894D01*
X105883280Y-122123989D01*
X106188042Y-122123989D01*
X105426138Y-122276370D02*
X105045185Y-122276370D01*
X105502328Y-122504941D02*
X105235661Y-121704941D01*
X104968995Y-122504941D01*
X104321376Y-121704941D02*
X104702328Y-121704941D01*
X104740423Y-122085894D01*
X104702328Y-122047798D01*
X104626138Y-122009703D01*
X104435661Y-122009703D01*
X104359471Y-122047798D01*
X104321376Y-122085894D01*
X104283280Y-122162084D01*
X104283280Y-122352560D01*
X104321376Y-122428751D01*
X104359471Y-122466846D01*
X104435661Y-122504941D01*
X104626138Y-122504941D01*
X104702328Y-122466846D01*
X104740423Y-122428751D01*
X106188042Y-124536941D02*
X106188042Y-123736941D01*
X105883280Y-123736941D01*
X105807090Y-123775037D01*
X105768995Y-123813132D01*
X105730899Y-123889322D01*
X105730899Y-124003608D01*
X105768995Y-124079798D01*
X105807090Y-124117894D01*
X105883280Y-124155989D01*
X106188042Y-124155989D01*
X105426138Y-124308370D02*
X105045185Y-124308370D01*
X105502328Y-124536941D02*
X105235661Y-123736941D01*
X104968995Y-124536941D01*
X104359471Y-123736941D02*
X104511852Y-123736941D01*
X104588042Y-123775037D01*
X104626138Y-123813132D01*
X104702328Y-123927417D01*
X104740423Y-124079798D01*
X104740423Y-124384560D01*
X104702328Y-124460751D01*
X104664233Y-124498846D01*
X104588042Y-124536941D01*
X104435661Y-124536941D01*
X104359471Y-124498846D01*
X104321376Y-124460751D01*
X104283280Y-124384560D01*
X104283280Y-124194084D01*
X104321376Y-124117894D01*
X104359471Y-124079798D01*
X104435661Y-124041703D01*
X104588042Y-124041703D01*
X104664233Y-124079798D01*
X104702328Y-124117894D01*
X104740423Y-124194084D01*
X111450090Y-125807037D02*
X111526280Y-125768941D01*
X111640566Y-125768941D01*
X111754852Y-125807037D01*
X111831042Y-125883227D01*
X111869138Y-125959417D01*
X111907233Y-126111798D01*
X111907233Y-126226084D01*
X111869138Y-126378465D01*
X111831042Y-126454656D01*
X111754852Y-126530846D01*
X111640566Y-126568941D01*
X111564376Y-126568941D01*
X111450090Y-126530846D01*
X111411995Y-126492751D01*
X111411995Y-126226084D01*
X111564376Y-126226084D01*
X111069138Y-126568941D02*
X111069138Y-125768941D01*
X110611995Y-126568941D01*
X110611995Y-125768941D01*
X110231042Y-126568941D02*
X110231042Y-125768941D01*
X110040566Y-125768941D01*
X109926280Y-125807037D01*
X109850090Y-125883227D01*
X109811995Y-125959417D01*
X109773899Y-126111798D01*
X109773899Y-126226084D01*
X109811995Y-126378465D01*
X109850090Y-126454656D01*
X109926280Y-126530846D01*
X110040566Y-126568941D01*
X110231042Y-126568941D01*
X111107114Y-123793656D02*
X111907114Y-123793656D01*
X111526161Y-123793656D02*
X111526161Y-123336513D01*
X111107114Y-123336513D02*
X111907114Y-123336513D01*
X111183304Y-122498417D02*
X111145209Y-122536513D01*
X111107114Y-122650798D01*
X111107114Y-122726989D01*
X111145209Y-122841275D01*
X111221399Y-122917465D01*
X111297590Y-122955560D01*
X111449971Y-122993656D01*
X111564257Y-122993656D01*
X111716638Y-122955560D01*
X111792828Y-122917465D01*
X111869019Y-122841275D01*
X111907114Y-122726989D01*
X111907114Y-122650798D01*
X111869019Y-122536513D01*
X111830923Y-122498417D01*
X111145209Y-122193656D02*
X111107114Y-122079370D01*
X111107114Y-121888894D01*
X111145209Y-121812703D01*
X111183304Y-121774608D01*
X111259495Y-121736513D01*
X111335685Y-121736513D01*
X111411876Y-121774608D01*
X111449971Y-121812703D01*
X111488066Y-121888894D01*
X111526161Y-122041275D01*
X111564257Y-122117465D01*
X111602352Y-122155560D01*
X111678542Y-122193656D01*
X111754733Y-122193656D01*
X111830923Y-122155560D01*
X111869019Y-122117465D01*
X111907114Y-122041275D01*
X111907114Y-121850798D01*
X111869019Y-121736513D01*
X111107114Y-120326989D02*
X111488066Y-120593656D01*
X111107114Y-120784132D02*
X111907114Y-120784132D01*
X111907114Y-120479370D01*
X111869019Y-120403179D01*
X111830923Y-120365084D01*
X111754733Y-120326989D01*
X111640447Y-120326989D01*
X111564257Y-120365084D01*
X111526161Y-120403179D01*
X111488066Y-120479370D01*
X111488066Y-120784132D01*
X111145209Y-119679370D02*
X111107114Y-119755560D01*
X111107114Y-119907941D01*
X111145209Y-119984132D01*
X111221399Y-120022227D01*
X111526161Y-120022227D01*
X111602352Y-119984132D01*
X111640447Y-119907941D01*
X111640447Y-119755560D01*
X111602352Y-119679370D01*
X111526161Y-119641275D01*
X111449971Y-119641275D01*
X111373780Y-120022227D01*
X111640447Y-119374608D02*
X111107114Y-119184132D01*
X111640447Y-118993656D01*
X111107114Y-117660322D02*
X111107114Y-118117465D01*
X111107114Y-117888894D02*
X111907114Y-117888894D01*
X111792828Y-117965084D01*
X111716638Y-118041275D01*
X111678542Y-118117465D01*
X109757114Y-123469846D02*
X110557114Y-123469846D01*
X109757114Y-123012703D01*
X110557114Y-123012703D01*
X109757114Y-122517465D02*
X109795209Y-122593656D01*
X109833304Y-122631751D01*
X109909495Y-122669846D01*
X110138066Y-122669846D01*
X110214257Y-122631751D01*
X110252352Y-122593656D01*
X110290447Y-122517465D01*
X110290447Y-122403179D01*
X110252352Y-122326989D01*
X110214257Y-122288894D01*
X110138066Y-122250798D01*
X109909495Y-122250798D01*
X109833304Y-122288894D01*
X109795209Y-122326989D01*
X109757114Y-122403179D01*
X109757114Y-122517465D01*
X110290447Y-121984132D02*
X109757114Y-121793656D01*
X110290447Y-121603179D01*
X110480923Y-120726989D02*
X110519019Y-120688894D01*
X110557114Y-120612703D01*
X110557114Y-120422227D01*
X110519019Y-120346037D01*
X110480923Y-120307941D01*
X110404733Y-120269846D01*
X110328542Y-120269846D01*
X110214257Y-120307941D01*
X109757114Y-120765084D01*
X109757114Y-120269846D01*
X110557114Y-119774608D02*
X110557114Y-119698417D01*
X110519019Y-119622227D01*
X110480923Y-119584132D01*
X110404733Y-119546037D01*
X110252352Y-119507941D01*
X110061876Y-119507941D01*
X109909495Y-119546037D01*
X109833304Y-119584132D01*
X109795209Y-119622227D01*
X109757114Y-119698417D01*
X109757114Y-119774608D01*
X109795209Y-119850798D01*
X109833304Y-119888894D01*
X109909495Y-119926989D01*
X110061876Y-119965084D01*
X110252352Y-119965084D01*
X110404733Y-119926989D01*
X110480923Y-119888894D01*
X110519019Y-119850798D01*
X110557114Y-119774608D01*
X110480923Y-119203179D02*
X110519019Y-119165084D01*
X110557114Y-119088894D01*
X110557114Y-118898417D01*
X110519019Y-118822227D01*
X110480923Y-118784132D01*
X110404733Y-118746037D01*
X110328542Y-118746037D01*
X110214257Y-118784132D01*
X109757114Y-119241275D01*
X109757114Y-118746037D01*
X109757114Y-117984132D02*
X109757114Y-118441275D01*
X109757114Y-118212703D02*
X110557114Y-118212703D01*
X110442828Y-118288894D01*
X110366638Y-118365084D01*
X110328542Y-118441275D01*
X83302319Y-115862941D02*
X83035652Y-116662941D01*
X82768986Y-115862941D01*
X82045176Y-116586751D02*
X82083271Y-116624846D01*
X82197557Y-116662941D01*
X82273748Y-116662941D01*
X82388033Y-116624846D01*
X82464224Y-116548656D01*
X82502319Y-116472465D01*
X82540414Y-116320084D01*
X82540414Y-116205798D01*
X82502319Y-116053417D01*
X82464224Y-115977227D01*
X82388033Y-115901037D01*
X82273748Y-115862941D01*
X82197557Y-115862941D01*
X82083271Y-115901037D01*
X82045176Y-115939132D01*
X81245176Y-116586751D02*
X81283271Y-116624846D01*
X81397557Y-116662941D01*
X81473748Y-116662941D01*
X81588033Y-116624846D01*
X81664224Y-116548656D01*
X81702319Y-116472465D01*
X81740414Y-116320084D01*
X81740414Y-116205798D01*
X81702319Y-116053417D01*
X81664224Y-115977227D01*
X81588033Y-115901037D01*
X81473748Y-115862941D01*
X81397557Y-115862941D01*
X81283271Y-115901037D01*
X81245176Y-115939132D01*
X83188033Y-118948941D02*
X83188033Y-118148941D01*
X82883271Y-118148941D01*
X82807081Y-118187037D01*
X82768986Y-118225132D01*
X82730890Y-118301322D01*
X82730890Y-118415608D01*
X82768986Y-118491798D01*
X82807081Y-118529894D01*
X82883271Y-118567989D01*
X83188033Y-118567989D01*
X82426129Y-118720370D02*
X82045176Y-118720370D01*
X82502319Y-118948941D02*
X82235652Y-118148941D01*
X81968986Y-118948941D01*
X81778510Y-118148941D02*
X81283271Y-118148941D01*
X81549938Y-118453703D01*
X81435652Y-118453703D01*
X81359462Y-118491798D01*
X81321367Y-118529894D01*
X81283271Y-118606084D01*
X81283271Y-118796560D01*
X81321367Y-118872751D01*
X81359462Y-118910846D01*
X81435652Y-118948941D01*
X81664224Y-118948941D01*
X81740414Y-118910846D01*
X81778510Y-118872751D01*
X83188033Y-120472941D02*
X83188033Y-119672941D01*
X82883271Y-119672941D01*
X82807081Y-119711037D01*
X82768986Y-119749132D01*
X82730890Y-119825322D01*
X82730890Y-119939608D01*
X82768986Y-120015798D01*
X82807081Y-120053894D01*
X82883271Y-120091989D01*
X83188033Y-120091989D01*
X82426129Y-120244370D02*
X82045176Y-120244370D01*
X82502319Y-120472941D02*
X82235652Y-119672941D01*
X81968986Y-120472941D01*
X81359462Y-119939608D02*
X81359462Y-120472941D01*
X81549938Y-119634846D02*
X81740414Y-120206275D01*
X81245176Y-120206275D01*
X83188033Y-122504941D02*
X83188033Y-121704941D01*
X82883271Y-121704941D01*
X82807081Y-121743037D01*
X82768986Y-121781132D01*
X82730890Y-121857322D01*
X82730890Y-121971608D01*
X82768986Y-122047798D01*
X82807081Y-122085894D01*
X82883271Y-122123989D01*
X83188033Y-122123989D01*
X82426129Y-122276370D02*
X82045176Y-122276370D01*
X82502319Y-122504941D02*
X82235652Y-121704941D01*
X81968986Y-122504941D01*
X81321367Y-121704941D02*
X81702319Y-121704941D01*
X81740414Y-122085894D01*
X81702319Y-122047798D01*
X81626129Y-122009703D01*
X81435652Y-122009703D01*
X81359462Y-122047798D01*
X81321367Y-122085894D01*
X81283271Y-122162084D01*
X81283271Y-122352560D01*
X81321367Y-122428751D01*
X81359462Y-122466846D01*
X81435652Y-122504941D01*
X81626129Y-122504941D01*
X81702319Y-122466846D01*
X81740414Y-122428751D01*
X83188033Y-124536941D02*
X83188033Y-123736941D01*
X82883271Y-123736941D01*
X82807081Y-123775037D01*
X82768986Y-123813132D01*
X82730890Y-123889322D01*
X82730890Y-124003608D01*
X82768986Y-124079798D01*
X82807081Y-124117894D01*
X82883271Y-124155989D01*
X83188033Y-124155989D01*
X82426129Y-124308370D02*
X82045176Y-124308370D01*
X82502319Y-124536941D02*
X82235652Y-123736941D01*
X81968986Y-124536941D01*
X81359462Y-123736941D02*
X81511843Y-123736941D01*
X81588033Y-123775037D01*
X81626129Y-123813132D01*
X81702319Y-123927417D01*
X81740414Y-124079798D01*
X81740414Y-124384560D01*
X81702319Y-124460751D01*
X81664224Y-124498846D01*
X81588033Y-124536941D01*
X81435652Y-124536941D01*
X81359462Y-124498846D01*
X81321367Y-124460751D01*
X81283271Y-124384560D01*
X81283271Y-124194084D01*
X81321367Y-124117894D01*
X81359462Y-124079798D01*
X81435652Y-124041703D01*
X81588033Y-124041703D01*
X81664224Y-124079798D01*
X81702319Y-124117894D01*
X81740414Y-124194084D01*
X88450081Y-125807037D02*
X88526271Y-125768941D01*
X88640557Y-125768941D01*
X88754843Y-125807037D01*
X88831033Y-125883227D01*
X88869129Y-125959417D01*
X88907224Y-126111798D01*
X88907224Y-126226084D01*
X88869129Y-126378465D01*
X88831033Y-126454656D01*
X88754843Y-126530846D01*
X88640557Y-126568941D01*
X88564367Y-126568941D01*
X88450081Y-126530846D01*
X88411986Y-126492751D01*
X88411986Y-126226084D01*
X88564367Y-126226084D01*
X88069129Y-126568941D02*
X88069129Y-125768941D01*
X87611986Y-126568941D01*
X87611986Y-125768941D01*
X87231033Y-126568941D02*
X87231033Y-125768941D01*
X87040557Y-125768941D01*
X86926271Y-125807037D01*
X86850081Y-125883227D01*
X86811986Y-125959417D01*
X86773890Y-126111798D01*
X86773890Y-126226084D01*
X86811986Y-126378465D01*
X86850081Y-126454656D01*
X86926271Y-126530846D01*
X87040557Y-126568941D01*
X87231033Y-126568941D01*
X88107105Y-123793656D02*
X88907105Y-123793656D01*
X88526152Y-123793656D02*
X88526152Y-123336513D01*
X88107105Y-123336513D02*
X88907105Y-123336513D01*
X88183295Y-122498417D02*
X88145200Y-122536513D01*
X88107105Y-122650798D01*
X88107105Y-122726989D01*
X88145200Y-122841275D01*
X88221390Y-122917465D01*
X88297581Y-122955560D01*
X88449962Y-122993656D01*
X88564248Y-122993656D01*
X88716629Y-122955560D01*
X88792819Y-122917465D01*
X88869010Y-122841275D01*
X88907105Y-122726989D01*
X88907105Y-122650798D01*
X88869010Y-122536513D01*
X88830914Y-122498417D01*
X88145200Y-122193656D02*
X88107105Y-122079370D01*
X88107105Y-121888894D01*
X88145200Y-121812703D01*
X88183295Y-121774608D01*
X88259486Y-121736513D01*
X88335676Y-121736513D01*
X88411867Y-121774608D01*
X88449962Y-121812703D01*
X88488057Y-121888894D01*
X88526152Y-122041275D01*
X88564248Y-122117465D01*
X88602343Y-122155560D01*
X88678533Y-122193656D01*
X88754724Y-122193656D01*
X88830914Y-122155560D01*
X88869010Y-122117465D01*
X88907105Y-122041275D01*
X88907105Y-121850798D01*
X88869010Y-121736513D01*
X88107105Y-120326989D02*
X88488057Y-120593656D01*
X88107105Y-120784132D02*
X88907105Y-120784132D01*
X88907105Y-120479370D01*
X88869010Y-120403179D01*
X88830914Y-120365084D01*
X88754724Y-120326989D01*
X88640438Y-120326989D01*
X88564248Y-120365084D01*
X88526152Y-120403179D01*
X88488057Y-120479370D01*
X88488057Y-120784132D01*
X88145200Y-119679370D02*
X88107105Y-119755560D01*
X88107105Y-119907941D01*
X88145200Y-119984132D01*
X88221390Y-120022227D01*
X88526152Y-120022227D01*
X88602343Y-119984132D01*
X88640438Y-119907941D01*
X88640438Y-119755560D01*
X88602343Y-119679370D01*
X88526152Y-119641275D01*
X88449962Y-119641275D01*
X88373771Y-120022227D01*
X88640438Y-119374608D02*
X88107105Y-119184132D01*
X88640438Y-118993656D01*
X88107105Y-117660322D02*
X88107105Y-118117465D01*
X88107105Y-117888894D02*
X88907105Y-117888894D01*
X88792819Y-117965084D01*
X88716629Y-118041275D01*
X88678533Y-118117465D01*
X86757105Y-123469846D02*
X87557105Y-123469846D01*
X86757105Y-123012703D01*
X87557105Y-123012703D01*
X86757105Y-122517465D02*
X86795200Y-122593656D01*
X86833295Y-122631751D01*
X86909486Y-122669846D01*
X87138057Y-122669846D01*
X87214248Y-122631751D01*
X87252343Y-122593656D01*
X87290438Y-122517465D01*
X87290438Y-122403179D01*
X87252343Y-122326989D01*
X87214248Y-122288894D01*
X87138057Y-122250798D01*
X86909486Y-122250798D01*
X86833295Y-122288894D01*
X86795200Y-122326989D01*
X86757105Y-122403179D01*
X86757105Y-122517465D01*
X87290438Y-121984132D02*
X86757105Y-121793656D01*
X87290438Y-121603179D01*
X87480914Y-120726989D02*
X87519010Y-120688894D01*
X87557105Y-120612703D01*
X87557105Y-120422227D01*
X87519010Y-120346037D01*
X87480914Y-120307941D01*
X87404724Y-120269846D01*
X87328533Y-120269846D01*
X87214248Y-120307941D01*
X86757105Y-120765084D01*
X86757105Y-120269846D01*
X87557105Y-119774608D02*
X87557105Y-119698417D01*
X87519010Y-119622227D01*
X87480914Y-119584132D01*
X87404724Y-119546037D01*
X87252343Y-119507941D01*
X87061867Y-119507941D01*
X86909486Y-119546037D01*
X86833295Y-119584132D01*
X86795200Y-119622227D01*
X86757105Y-119698417D01*
X86757105Y-119774608D01*
X86795200Y-119850798D01*
X86833295Y-119888894D01*
X86909486Y-119926989D01*
X87061867Y-119965084D01*
X87252343Y-119965084D01*
X87404724Y-119926989D01*
X87480914Y-119888894D01*
X87519010Y-119850798D01*
X87557105Y-119774608D01*
X87480914Y-119203179D02*
X87519010Y-119165084D01*
X87557105Y-119088894D01*
X87557105Y-118898417D01*
X87519010Y-118822227D01*
X87480914Y-118784132D01*
X87404724Y-118746037D01*
X87328533Y-118746037D01*
X87214248Y-118784132D01*
X86757105Y-119241275D01*
X86757105Y-118746037D01*
X86757105Y-117984132D02*
X86757105Y-118441275D01*
X86757105Y-118212703D02*
X87557105Y-118212703D01*
X87442819Y-118288894D01*
X87366629Y-118365084D01*
X87328533Y-118441275D01*
X60302310Y-115862941D02*
X60035643Y-116662941D01*
X59768977Y-115862941D01*
X59045167Y-116586751D02*
X59083262Y-116624846D01*
X59197548Y-116662941D01*
X59273739Y-116662941D01*
X59388024Y-116624846D01*
X59464215Y-116548656D01*
X59502310Y-116472465D01*
X59540405Y-116320084D01*
X59540405Y-116205798D01*
X59502310Y-116053417D01*
X59464215Y-115977227D01*
X59388024Y-115901037D01*
X59273739Y-115862941D01*
X59197548Y-115862941D01*
X59083262Y-115901037D01*
X59045167Y-115939132D01*
X58245167Y-116586751D02*
X58283262Y-116624846D01*
X58397548Y-116662941D01*
X58473739Y-116662941D01*
X58588024Y-116624846D01*
X58664215Y-116548656D01*
X58702310Y-116472465D01*
X58740405Y-116320084D01*
X58740405Y-116205798D01*
X58702310Y-116053417D01*
X58664215Y-115977227D01*
X58588024Y-115901037D01*
X58473739Y-115862941D01*
X58397548Y-115862941D01*
X58283262Y-115901037D01*
X58245167Y-115939132D01*
X60188024Y-118948941D02*
X60188024Y-118148941D01*
X59883262Y-118148941D01*
X59807072Y-118187037D01*
X59768977Y-118225132D01*
X59730881Y-118301322D01*
X59730881Y-118415608D01*
X59768977Y-118491798D01*
X59807072Y-118529894D01*
X59883262Y-118567989D01*
X60188024Y-118567989D01*
X59426120Y-118720370D02*
X59045167Y-118720370D01*
X59502310Y-118948941D02*
X59235643Y-118148941D01*
X58968977Y-118948941D01*
X58778501Y-118148941D02*
X58283262Y-118148941D01*
X58549929Y-118453703D01*
X58435643Y-118453703D01*
X58359453Y-118491798D01*
X58321358Y-118529894D01*
X58283262Y-118606084D01*
X58283262Y-118796560D01*
X58321358Y-118872751D01*
X58359453Y-118910846D01*
X58435643Y-118948941D01*
X58664215Y-118948941D01*
X58740405Y-118910846D01*
X58778501Y-118872751D01*
X60188024Y-120472941D02*
X60188024Y-119672941D01*
X59883262Y-119672941D01*
X59807072Y-119711037D01*
X59768977Y-119749132D01*
X59730881Y-119825322D01*
X59730881Y-119939608D01*
X59768977Y-120015798D01*
X59807072Y-120053894D01*
X59883262Y-120091989D01*
X60188024Y-120091989D01*
X59426120Y-120244370D02*
X59045167Y-120244370D01*
X59502310Y-120472941D02*
X59235643Y-119672941D01*
X58968977Y-120472941D01*
X58359453Y-119939608D02*
X58359453Y-120472941D01*
X58549929Y-119634846D02*
X58740405Y-120206275D01*
X58245167Y-120206275D01*
X60188024Y-122504941D02*
X60188024Y-121704941D01*
X59883262Y-121704941D01*
X59807072Y-121743037D01*
X59768977Y-121781132D01*
X59730881Y-121857322D01*
X59730881Y-121971608D01*
X59768977Y-122047798D01*
X59807072Y-122085894D01*
X59883262Y-122123989D01*
X60188024Y-122123989D01*
X59426120Y-122276370D02*
X59045167Y-122276370D01*
X59502310Y-122504941D02*
X59235643Y-121704941D01*
X58968977Y-122504941D01*
X58321358Y-121704941D02*
X58702310Y-121704941D01*
X58740405Y-122085894D01*
X58702310Y-122047798D01*
X58626120Y-122009703D01*
X58435643Y-122009703D01*
X58359453Y-122047798D01*
X58321358Y-122085894D01*
X58283262Y-122162084D01*
X58283262Y-122352560D01*
X58321358Y-122428751D01*
X58359453Y-122466846D01*
X58435643Y-122504941D01*
X58626120Y-122504941D01*
X58702310Y-122466846D01*
X58740405Y-122428751D01*
X60188024Y-124536941D02*
X60188024Y-123736941D01*
X59883262Y-123736941D01*
X59807072Y-123775037D01*
X59768977Y-123813132D01*
X59730881Y-123889322D01*
X59730881Y-124003608D01*
X59768977Y-124079798D01*
X59807072Y-124117894D01*
X59883262Y-124155989D01*
X60188024Y-124155989D01*
X59426120Y-124308370D02*
X59045167Y-124308370D01*
X59502310Y-124536941D02*
X59235643Y-123736941D01*
X58968977Y-124536941D01*
X58359453Y-123736941D02*
X58511834Y-123736941D01*
X58588024Y-123775037D01*
X58626120Y-123813132D01*
X58702310Y-123927417D01*
X58740405Y-124079798D01*
X58740405Y-124384560D01*
X58702310Y-124460751D01*
X58664215Y-124498846D01*
X58588024Y-124536941D01*
X58435643Y-124536941D01*
X58359453Y-124498846D01*
X58321358Y-124460751D01*
X58283262Y-124384560D01*
X58283262Y-124194084D01*
X58321358Y-124117894D01*
X58359453Y-124079798D01*
X58435643Y-124041703D01*
X58588024Y-124041703D01*
X58664215Y-124079798D01*
X58702310Y-124117894D01*
X58740405Y-124194084D01*
X65450072Y-125807037D02*
X65526262Y-125768941D01*
X65640548Y-125768941D01*
X65754834Y-125807037D01*
X65831024Y-125883227D01*
X65869120Y-125959417D01*
X65907215Y-126111798D01*
X65907215Y-126226084D01*
X65869120Y-126378465D01*
X65831024Y-126454656D01*
X65754834Y-126530846D01*
X65640548Y-126568941D01*
X65564358Y-126568941D01*
X65450072Y-126530846D01*
X65411977Y-126492751D01*
X65411977Y-126226084D01*
X65564358Y-126226084D01*
X65069120Y-126568941D02*
X65069120Y-125768941D01*
X64611977Y-126568941D01*
X64611977Y-125768941D01*
X64231024Y-126568941D02*
X64231024Y-125768941D01*
X64040548Y-125768941D01*
X63926262Y-125807037D01*
X63850072Y-125883227D01*
X63811977Y-125959417D01*
X63773881Y-126111798D01*
X63773881Y-126226084D01*
X63811977Y-126378465D01*
X63850072Y-126454656D01*
X63926262Y-126530846D01*
X64040548Y-126568941D01*
X64231024Y-126568941D01*
X65107096Y-123793656D02*
X65907096Y-123793656D01*
X65526143Y-123793656D02*
X65526143Y-123336513D01*
X65107096Y-123336513D02*
X65907096Y-123336513D01*
X65183286Y-122498417D02*
X65145191Y-122536513D01*
X65107096Y-122650798D01*
X65107096Y-122726989D01*
X65145191Y-122841275D01*
X65221381Y-122917465D01*
X65297572Y-122955560D01*
X65449953Y-122993656D01*
X65564239Y-122993656D01*
X65716620Y-122955560D01*
X65792810Y-122917465D01*
X65869001Y-122841275D01*
X65907096Y-122726989D01*
X65907096Y-122650798D01*
X65869001Y-122536513D01*
X65830905Y-122498417D01*
X65145191Y-122193656D02*
X65107096Y-122079370D01*
X65107096Y-121888894D01*
X65145191Y-121812703D01*
X65183286Y-121774608D01*
X65259477Y-121736513D01*
X65335667Y-121736513D01*
X65411858Y-121774608D01*
X65449953Y-121812703D01*
X65488048Y-121888894D01*
X65526143Y-122041275D01*
X65564239Y-122117465D01*
X65602334Y-122155560D01*
X65678524Y-122193656D01*
X65754715Y-122193656D01*
X65830905Y-122155560D01*
X65869001Y-122117465D01*
X65907096Y-122041275D01*
X65907096Y-121850798D01*
X65869001Y-121736513D01*
X65107096Y-120326989D02*
X65488048Y-120593656D01*
X65107096Y-120784132D02*
X65907096Y-120784132D01*
X65907096Y-120479370D01*
X65869001Y-120403179D01*
X65830905Y-120365084D01*
X65754715Y-120326989D01*
X65640429Y-120326989D01*
X65564239Y-120365084D01*
X65526143Y-120403179D01*
X65488048Y-120479370D01*
X65488048Y-120784132D01*
X65145191Y-119679370D02*
X65107096Y-119755560D01*
X65107096Y-119907941D01*
X65145191Y-119984132D01*
X65221381Y-120022227D01*
X65526143Y-120022227D01*
X65602334Y-119984132D01*
X65640429Y-119907941D01*
X65640429Y-119755560D01*
X65602334Y-119679370D01*
X65526143Y-119641275D01*
X65449953Y-119641275D01*
X65373762Y-120022227D01*
X65640429Y-119374608D02*
X65107096Y-119184132D01*
X65640429Y-118993656D01*
X65107096Y-117660322D02*
X65107096Y-118117465D01*
X65107096Y-117888894D02*
X65907096Y-117888894D01*
X65792810Y-117965084D01*
X65716620Y-118041275D01*
X65678524Y-118117465D01*
X63757096Y-123469846D02*
X64557096Y-123469846D01*
X63757096Y-123012703D01*
X64557096Y-123012703D01*
X63757096Y-122517465D02*
X63795191Y-122593656D01*
X63833286Y-122631751D01*
X63909477Y-122669846D01*
X64138048Y-122669846D01*
X64214239Y-122631751D01*
X64252334Y-122593656D01*
X64290429Y-122517465D01*
X64290429Y-122403179D01*
X64252334Y-122326989D01*
X64214239Y-122288894D01*
X64138048Y-122250798D01*
X63909477Y-122250798D01*
X63833286Y-122288894D01*
X63795191Y-122326989D01*
X63757096Y-122403179D01*
X63757096Y-122517465D01*
X64290429Y-121984132D02*
X63757096Y-121793656D01*
X64290429Y-121603179D01*
X64480905Y-120726989D02*
X64519001Y-120688894D01*
X64557096Y-120612703D01*
X64557096Y-120422227D01*
X64519001Y-120346037D01*
X64480905Y-120307941D01*
X64404715Y-120269846D01*
X64328524Y-120269846D01*
X64214239Y-120307941D01*
X63757096Y-120765084D01*
X63757096Y-120269846D01*
X64557096Y-119774608D02*
X64557096Y-119698417D01*
X64519001Y-119622227D01*
X64480905Y-119584132D01*
X64404715Y-119546037D01*
X64252334Y-119507941D01*
X64061858Y-119507941D01*
X63909477Y-119546037D01*
X63833286Y-119584132D01*
X63795191Y-119622227D01*
X63757096Y-119698417D01*
X63757096Y-119774608D01*
X63795191Y-119850798D01*
X63833286Y-119888894D01*
X63909477Y-119926989D01*
X64061858Y-119965084D01*
X64252334Y-119965084D01*
X64404715Y-119926989D01*
X64480905Y-119888894D01*
X64519001Y-119850798D01*
X64557096Y-119774608D01*
X64480905Y-119203179D02*
X64519001Y-119165084D01*
X64557096Y-119088894D01*
X64557096Y-118898417D01*
X64519001Y-118822227D01*
X64480905Y-118784132D01*
X64404715Y-118746037D01*
X64328524Y-118746037D01*
X64214239Y-118784132D01*
X63757096Y-119241275D01*
X63757096Y-118746037D01*
X63757096Y-117984132D02*
X63757096Y-118441275D01*
X63757096Y-118212703D02*
X64557096Y-118212703D01*
X64442810Y-118288894D01*
X64366620Y-118365084D01*
X64328524Y-118441275D01*
X129302337Y-99862932D02*
X129035670Y-100662932D01*
X128769004Y-99862932D01*
X128045194Y-100586742D02*
X128083289Y-100624837D01*
X128197575Y-100662932D01*
X128273766Y-100662932D01*
X128388051Y-100624837D01*
X128464242Y-100548647D01*
X128502337Y-100472456D01*
X128540432Y-100320075D01*
X128540432Y-100205789D01*
X128502337Y-100053408D01*
X128464242Y-99977218D01*
X128388051Y-99901028D01*
X128273766Y-99862932D01*
X128197575Y-99862932D01*
X128083289Y-99901028D01*
X128045194Y-99939123D01*
X127245194Y-100586742D02*
X127283289Y-100624837D01*
X127397575Y-100662932D01*
X127473766Y-100662932D01*
X127588051Y-100624837D01*
X127664242Y-100548647D01*
X127702337Y-100472456D01*
X127740432Y-100320075D01*
X127740432Y-100205789D01*
X127702337Y-100053408D01*
X127664242Y-99977218D01*
X127588051Y-99901028D01*
X127473766Y-99862932D01*
X127397575Y-99862932D01*
X127283289Y-99901028D01*
X127245194Y-99939123D01*
X129188051Y-102948932D02*
X129188051Y-102148932D01*
X128883289Y-102148932D01*
X128807099Y-102187028D01*
X128769004Y-102225123D01*
X128730908Y-102301313D01*
X128730908Y-102415599D01*
X128769004Y-102491789D01*
X128807099Y-102529885D01*
X128883289Y-102567980D01*
X129188051Y-102567980D01*
X128426147Y-102720361D02*
X128045194Y-102720361D01*
X128502337Y-102948932D02*
X128235670Y-102148932D01*
X127969004Y-102948932D01*
X127778528Y-102148932D02*
X127283289Y-102148932D01*
X127549956Y-102453694D01*
X127435670Y-102453694D01*
X127359480Y-102491789D01*
X127321385Y-102529885D01*
X127283289Y-102606075D01*
X127283289Y-102796551D01*
X127321385Y-102872742D01*
X127359480Y-102910837D01*
X127435670Y-102948932D01*
X127664242Y-102948932D01*
X127740432Y-102910837D01*
X127778528Y-102872742D01*
X129188051Y-104472932D02*
X129188051Y-103672932D01*
X128883289Y-103672932D01*
X128807099Y-103711028D01*
X128769004Y-103749123D01*
X128730908Y-103825313D01*
X128730908Y-103939599D01*
X128769004Y-104015789D01*
X128807099Y-104053885D01*
X128883289Y-104091980D01*
X129188051Y-104091980D01*
X128426147Y-104244361D02*
X128045194Y-104244361D01*
X128502337Y-104472932D02*
X128235670Y-103672932D01*
X127969004Y-104472932D01*
X127359480Y-103939599D02*
X127359480Y-104472932D01*
X127549956Y-103634837D02*
X127740432Y-104206266D01*
X127245194Y-104206266D01*
X129188051Y-106504932D02*
X129188051Y-105704932D01*
X128883289Y-105704932D01*
X128807099Y-105743028D01*
X128769004Y-105781123D01*
X128730908Y-105857313D01*
X128730908Y-105971599D01*
X128769004Y-106047789D01*
X128807099Y-106085885D01*
X128883289Y-106123980D01*
X129188051Y-106123980D01*
X128426147Y-106276361D02*
X128045194Y-106276361D01*
X128502337Y-106504932D02*
X128235670Y-105704932D01*
X127969004Y-106504932D01*
X127321385Y-105704932D02*
X127702337Y-105704932D01*
X127740432Y-106085885D01*
X127702337Y-106047789D01*
X127626147Y-106009694D01*
X127435670Y-106009694D01*
X127359480Y-106047789D01*
X127321385Y-106085885D01*
X127283289Y-106162075D01*
X127283289Y-106352551D01*
X127321385Y-106428742D01*
X127359480Y-106466837D01*
X127435670Y-106504932D01*
X127626147Y-106504932D01*
X127702337Y-106466837D01*
X127740432Y-106428742D01*
X129188051Y-108536932D02*
X129188051Y-107736932D01*
X128883289Y-107736932D01*
X128807099Y-107775028D01*
X128769004Y-107813123D01*
X128730908Y-107889313D01*
X128730908Y-108003599D01*
X128769004Y-108079789D01*
X128807099Y-108117885D01*
X128883289Y-108155980D01*
X129188051Y-108155980D01*
X128426147Y-108308361D02*
X128045194Y-108308361D01*
X128502337Y-108536932D02*
X128235670Y-107736932D01*
X127969004Y-108536932D01*
X127359480Y-107736932D02*
X127511861Y-107736932D01*
X127588051Y-107775028D01*
X127626147Y-107813123D01*
X127702337Y-107927408D01*
X127740432Y-108079789D01*
X127740432Y-108384551D01*
X127702337Y-108460742D01*
X127664242Y-108498837D01*
X127588051Y-108536932D01*
X127435670Y-108536932D01*
X127359480Y-108498837D01*
X127321385Y-108460742D01*
X127283289Y-108384551D01*
X127283289Y-108194075D01*
X127321385Y-108117885D01*
X127359480Y-108079789D01*
X127435670Y-108041694D01*
X127588051Y-108041694D01*
X127664242Y-108079789D01*
X127702337Y-108117885D01*
X127740432Y-108194075D01*
X134450099Y-109807028D02*
X134526289Y-109768932D01*
X134640575Y-109768932D01*
X134754861Y-109807028D01*
X134831051Y-109883218D01*
X134869147Y-109959408D01*
X134907242Y-110111789D01*
X134907242Y-110226075D01*
X134869147Y-110378456D01*
X134831051Y-110454647D01*
X134754861Y-110530837D01*
X134640575Y-110568932D01*
X134564385Y-110568932D01*
X134450099Y-110530837D01*
X134412004Y-110492742D01*
X134412004Y-110226075D01*
X134564385Y-110226075D01*
X134069147Y-110568932D02*
X134069147Y-109768932D01*
X133612004Y-110568932D01*
X133612004Y-109768932D01*
X133231051Y-110568932D02*
X133231051Y-109768932D01*
X133040575Y-109768932D01*
X132926289Y-109807028D01*
X132850099Y-109883218D01*
X132812004Y-109959408D01*
X132773908Y-110111789D01*
X132773908Y-110226075D01*
X132812004Y-110378456D01*
X132850099Y-110454647D01*
X132926289Y-110530837D01*
X133040575Y-110568932D01*
X133231051Y-110568932D01*
X134107123Y-107793647D02*
X134907123Y-107793647D01*
X134526170Y-107793647D02*
X134526170Y-107336504D01*
X134107123Y-107336504D02*
X134907123Y-107336504D01*
X134183313Y-106498408D02*
X134145218Y-106536504D01*
X134107123Y-106650789D01*
X134107123Y-106726980D01*
X134145218Y-106841266D01*
X134221408Y-106917456D01*
X134297599Y-106955551D01*
X134449980Y-106993647D01*
X134564266Y-106993647D01*
X134716647Y-106955551D01*
X134792837Y-106917456D01*
X134869028Y-106841266D01*
X134907123Y-106726980D01*
X134907123Y-106650789D01*
X134869028Y-106536504D01*
X134830932Y-106498408D01*
X134145218Y-106193647D02*
X134107123Y-106079361D01*
X134107123Y-105888885D01*
X134145218Y-105812694D01*
X134183313Y-105774599D01*
X134259504Y-105736504D01*
X134335694Y-105736504D01*
X134411885Y-105774599D01*
X134449980Y-105812694D01*
X134488075Y-105888885D01*
X134526170Y-106041266D01*
X134564266Y-106117456D01*
X134602361Y-106155551D01*
X134678551Y-106193647D01*
X134754742Y-106193647D01*
X134830932Y-106155551D01*
X134869028Y-106117456D01*
X134907123Y-106041266D01*
X134907123Y-105850789D01*
X134869028Y-105736504D01*
X134107123Y-104326980D02*
X134488075Y-104593647D01*
X134107123Y-104784123D02*
X134907123Y-104784123D01*
X134907123Y-104479361D01*
X134869028Y-104403170D01*
X134830932Y-104365075D01*
X134754742Y-104326980D01*
X134640456Y-104326980D01*
X134564266Y-104365075D01*
X134526170Y-104403170D01*
X134488075Y-104479361D01*
X134488075Y-104784123D01*
X134145218Y-103679361D02*
X134107123Y-103755551D01*
X134107123Y-103907932D01*
X134145218Y-103984123D01*
X134221408Y-104022218D01*
X134526170Y-104022218D01*
X134602361Y-103984123D01*
X134640456Y-103907932D01*
X134640456Y-103755551D01*
X134602361Y-103679361D01*
X134526170Y-103641266D01*
X134449980Y-103641266D01*
X134373789Y-104022218D01*
X134640456Y-103374599D02*
X134107123Y-103184123D01*
X134640456Y-102993647D01*
X134107123Y-101660313D02*
X134107123Y-102117456D01*
X134107123Y-101888885D02*
X134907123Y-101888885D01*
X134792837Y-101965075D01*
X134716647Y-102041266D01*
X134678551Y-102117456D01*
X132757123Y-107469837D02*
X133557123Y-107469837D01*
X132757123Y-107012694D01*
X133557123Y-107012694D01*
X132757123Y-106517456D02*
X132795218Y-106593647D01*
X132833313Y-106631742D01*
X132909504Y-106669837D01*
X133138075Y-106669837D01*
X133214266Y-106631742D01*
X133252361Y-106593647D01*
X133290456Y-106517456D01*
X133290456Y-106403170D01*
X133252361Y-106326980D01*
X133214266Y-106288885D01*
X133138075Y-106250789D01*
X132909504Y-106250789D01*
X132833313Y-106288885D01*
X132795218Y-106326980D01*
X132757123Y-106403170D01*
X132757123Y-106517456D01*
X133290456Y-105984123D02*
X132757123Y-105793647D01*
X133290456Y-105603170D01*
X133480932Y-104726980D02*
X133519028Y-104688885D01*
X133557123Y-104612694D01*
X133557123Y-104422218D01*
X133519028Y-104346028D01*
X133480932Y-104307932D01*
X133404742Y-104269837D01*
X133328551Y-104269837D01*
X133214266Y-104307932D01*
X132757123Y-104765075D01*
X132757123Y-104269837D01*
X133557123Y-103774599D02*
X133557123Y-103698408D01*
X133519028Y-103622218D01*
X133480932Y-103584123D01*
X133404742Y-103546028D01*
X133252361Y-103507932D01*
X133061885Y-103507932D01*
X132909504Y-103546028D01*
X132833313Y-103584123D01*
X132795218Y-103622218D01*
X132757123Y-103698408D01*
X132757123Y-103774599D01*
X132795218Y-103850789D01*
X132833313Y-103888885D01*
X132909504Y-103926980D01*
X133061885Y-103965075D01*
X133252361Y-103965075D01*
X133404742Y-103926980D01*
X133480932Y-103888885D01*
X133519028Y-103850789D01*
X133557123Y-103774599D01*
X133480932Y-103203170D02*
X133519028Y-103165075D01*
X133557123Y-103088885D01*
X133557123Y-102898408D01*
X133519028Y-102822218D01*
X133480932Y-102784123D01*
X133404742Y-102746028D01*
X133328551Y-102746028D01*
X133214266Y-102784123D01*
X132757123Y-103241266D01*
X132757123Y-102746028D01*
X132757123Y-101984123D02*
X132757123Y-102441266D01*
X132757123Y-102212694D02*
X133557123Y-102212694D01*
X133442837Y-102288885D01*
X133366647Y-102365075D01*
X133328551Y-102441266D01*
X106302328Y-99862932D02*
X106035661Y-100662932D01*
X105768995Y-99862932D01*
X105045185Y-100586742D02*
X105083280Y-100624837D01*
X105197566Y-100662932D01*
X105273757Y-100662932D01*
X105388042Y-100624837D01*
X105464233Y-100548647D01*
X105502328Y-100472456D01*
X105540423Y-100320075D01*
X105540423Y-100205789D01*
X105502328Y-100053408D01*
X105464233Y-99977218D01*
X105388042Y-99901028D01*
X105273757Y-99862932D01*
X105197566Y-99862932D01*
X105083280Y-99901028D01*
X105045185Y-99939123D01*
X104245185Y-100586742D02*
X104283280Y-100624837D01*
X104397566Y-100662932D01*
X104473757Y-100662932D01*
X104588042Y-100624837D01*
X104664233Y-100548647D01*
X104702328Y-100472456D01*
X104740423Y-100320075D01*
X104740423Y-100205789D01*
X104702328Y-100053408D01*
X104664233Y-99977218D01*
X104588042Y-99901028D01*
X104473757Y-99862932D01*
X104397566Y-99862932D01*
X104283280Y-99901028D01*
X104245185Y-99939123D01*
X106188042Y-102948932D02*
X106188042Y-102148932D01*
X105883280Y-102148932D01*
X105807090Y-102187028D01*
X105768995Y-102225123D01*
X105730899Y-102301313D01*
X105730899Y-102415599D01*
X105768995Y-102491789D01*
X105807090Y-102529885D01*
X105883280Y-102567980D01*
X106188042Y-102567980D01*
X105426138Y-102720361D02*
X105045185Y-102720361D01*
X105502328Y-102948932D02*
X105235661Y-102148932D01*
X104968995Y-102948932D01*
X104778519Y-102148932D02*
X104283280Y-102148932D01*
X104549947Y-102453694D01*
X104435661Y-102453694D01*
X104359471Y-102491789D01*
X104321376Y-102529885D01*
X104283280Y-102606075D01*
X104283280Y-102796551D01*
X104321376Y-102872742D01*
X104359471Y-102910837D01*
X104435661Y-102948932D01*
X104664233Y-102948932D01*
X104740423Y-102910837D01*
X104778519Y-102872742D01*
X106188042Y-104472932D02*
X106188042Y-103672932D01*
X105883280Y-103672932D01*
X105807090Y-103711028D01*
X105768995Y-103749123D01*
X105730899Y-103825313D01*
X105730899Y-103939599D01*
X105768995Y-104015789D01*
X105807090Y-104053885D01*
X105883280Y-104091980D01*
X106188042Y-104091980D01*
X105426138Y-104244361D02*
X105045185Y-104244361D01*
X105502328Y-104472932D02*
X105235661Y-103672932D01*
X104968995Y-104472932D01*
X104359471Y-103939599D02*
X104359471Y-104472932D01*
X104549947Y-103634837D02*
X104740423Y-104206266D01*
X104245185Y-104206266D01*
X106188042Y-106504932D02*
X106188042Y-105704932D01*
X105883280Y-105704932D01*
X105807090Y-105743028D01*
X105768995Y-105781123D01*
X105730899Y-105857313D01*
X105730899Y-105971599D01*
X105768995Y-106047789D01*
X105807090Y-106085885D01*
X105883280Y-106123980D01*
X106188042Y-106123980D01*
X105426138Y-106276361D02*
X105045185Y-106276361D01*
X105502328Y-106504932D02*
X105235661Y-105704932D01*
X104968995Y-106504932D01*
X104321376Y-105704932D02*
X104702328Y-105704932D01*
X104740423Y-106085885D01*
X104702328Y-106047789D01*
X104626138Y-106009694D01*
X104435661Y-106009694D01*
X104359471Y-106047789D01*
X104321376Y-106085885D01*
X104283280Y-106162075D01*
X104283280Y-106352551D01*
X104321376Y-106428742D01*
X104359471Y-106466837D01*
X104435661Y-106504932D01*
X104626138Y-106504932D01*
X104702328Y-106466837D01*
X104740423Y-106428742D01*
X106188042Y-108536932D02*
X106188042Y-107736932D01*
X105883280Y-107736932D01*
X105807090Y-107775028D01*
X105768995Y-107813123D01*
X105730899Y-107889313D01*
X105730899Y-108003599D01*
X105768995Y-108079789D01*
X105807090Y-108117885D01*
X105883280Y-108155980D01*
X106188042Y-108155980D01*
X105426138Y-108308361D02*
X105045185Y-108308361D01*
X105502328Y-108536932D02*
X105235661Y-107736932D01*
X104968995Y-108536932D01*
X104359471Y-107736932D02*
X104511852Y-107736932D01*
X104588042Y-107775028D01*
X104626138Y-107813123D01*
X104702328Y-107927408D01*
X104740423Y-108079789D01*
X104740423Y-108384551D01*
X104702328Y-108460742D01*
X104664233Y-108498837D01*
X104588042Y-108536932D01*
X104435661Y-108536932D01*
X104359471Y-108498837D01*
X104321376Y-108460742D01*
X104283280Y-108384551D01*
X104283280Y-108194075D01*
X104321376Y-108117885D01*
X104359471Y-108079789D01*
X104435661Y-108041694D01*
X104588042Y-108041694D01*
X104664233Y-108079789D01*
X104702328Y-108117885D01*
X104740423Y-108194075D01*
X111450090Y-109807028D02*
X111526280Y-109768932D01*
X111640566Y-109768932D01*
X111754852Y-109807028D01*
X111831042Y-109883218D01*
X111869138Y-109959408D01*
X111907233Y-110111789D01*
X111907233Y-110226075D01*
X111869138Y-110378456D01*
X111831042Y-110454647D01*
X111754852Y-110530837D01*
X111640566Y-110568932D01*
X111564376Y-110568932D01*
X111450090Y-110530837D01*
X111411995Y-110492742D01*
X111411995Y-110226075D01*
X111564376Y-110226075D01*
X111069138Y-110568932D02*
X111069138Y-109768932D01*
X110611995Y-110568932D01*
X110611995Y-109768932D01*
X110231042Y-110568932D02*
X110231042Y-109768932D01*
X110040566Y-109768932D01*
X109926280Y-109807028D01*
X109850090Y-109883218D01*
X109811995Y-109959408D01*
X109773899Y-110111789D01*
X109773899Y-110226075D01*
X109811995Y-110378456D01*
X109850090Y-110454647D01*
X109926280Y-110530837D01*
X110040566Y-110568932D01*
X110231042Y-110568932D01*
X111107114Y-107793647D02*
X111907114Y-107793647D01*
X111526161Y-107793647D02*
X111526161Y-107336504D01*
X111107114Y-107336504D02*
X111907114Y-107336504D01*
X111183304Y-106498408D02*
X111145209Y-106536504D01*
X111107114Y-106650789D01*
X111107114Y-106726980D01*
X111145209Y-106841266D01*
X111221399Y-106917456D01*
X111297590Y-106955551D01*
X111449971Y-106993647D01*
X111564257Y-106993647D01*
X111716638Y-106955551D01*
X111792828Y-106917456D01*
X111869019Y-106841266D01*
X111907114Y-106726980D01*
X111907114Y-106650789D01*
X111869019Y-106536504D01*
X111830923Y-106498408D01*
X111145209Y-106193647D02*
X111107114Y-106079361D01*
X111107114Y-105888885D01*
X111145209Y-105812694D01*
X111183304Y-105774599D01*
X111259495Y-105736504D01*
X111335685Y-105736504D01*
X111411876Y-105774599D01*
X111449971Y-105812694D01*
X111488066Y-105888885D01*
X111526161Y-106041266D01*
X111564257Y-106117456D01*
X111602352Y-106155551D01*
X111678542Y-106193647D01*
X111754733Y-106193647D01*
X111830923Y-106155551D01*
X111869019Y-106117456D01*
X111907114Y-106041266D01*
X111907114Y-105850789D01*
X111869019Y-105736504D01*
X111107114Y-104326980D02*
X111488066Y-104593647D01*
X111107114Y-104784123D02*
X111907114Y-104784123D01*
X111907114Y-104479361D01*
X111869019Y-104403170D01*
X111830923Y-104365075D01*
X111754733Y-104326980D01*
X111640447Y-104326980D01*
X111564257Y-104365075D01*
X111526161Y-104403170D01*
X111488066Y-104479361D01*
X111488066Y-104784123D01*
X111145209Y-103679361D02*
X111107114Y-103755551D01*
X111107114Y-103907932D01*
X111145209Y-103984123D01*
X111221399Y-104022218D01*
X111526161Y-104022218D01*
X111602352Y-103984123D01*
X111640447Y-103907932D01*
X111640447Y-103755551D01*
X111602352Y-103679361D01*
X111526161Y-103641266D01*
X111449971Y-103641266D01*
X111373780Y-104022218D01*
X111640447Y-103374599D02*
X111107114Y-103184123D01*
X111640447Y-102993647D01*
X111107114Y-101660313D02*
X111107114Y-102117456D01*
X111107114Y-101888885D02*
X111907114Y-101888885D01*
X111792828Y-101965075D01*
X111716638Y-102041266D01*
X111678542Y-102117456D01*
X109757114Y-107469837D02*
X110557114Y-107469837D01*
X109757114Y-107012694D01*
X110557114Y-107012694D01*
X109757114Y-106517456D02*
X109795209Y-106593647D01*
X109833304Y-106631742D01*
X109909495Y-106669837D01*
X110138066Y-106669837D01*
X110214257Y-106631742D01*
X110252352Y-106593647D01*
X110290447Y-106517456D01*
X110290447Y-106403170D01*
X110252352Y-106326980D01*
X110214257Y-106288885D01*
X110138066Y-106250789D01*
X109909495Y-106250789D01*
X109833304Y-106288885D01*
X109795209Y-106326980D01*
X109757114Y-106403170D01*
X109757114Y-106517456D01*
X110290447Y-105984123D02*
X109757114Y-105793647D01*
X110290447Y-105603170D01*
X110480923Y-104726980D02*
X110519019Y-104688885D01*
X110557114Y-104612694D01*
X110557114Y-104422218D01*
X110519019Y-104346028D01*
X110480923Y-104307932D01*
X110404733Y-104269837D01*
X110328542Y-104269837D01*
X110214257Y-104307932D01*
X109757114Y-104765075D01*
X109757114Y-104269837D01*
X110557114Y-103774599D02*
X110557114Y-103698408D01*
X110519019Y-103622218D01*
X110480923Y-103584123D01*
X110404733Y-103546028D01*
X110252352Y-103507932D01*
X110061876Y-103507932D01*
X109909495Y-103546028D01*
X109833304Y-103584123D01*
X109795209Y-103622218D01*
X109757114Y-103698408D01*
X109757114Y-103774599D01*
X109795209Y-103850789D01*
X109833304Y-103888885D01*
X109909495Y-103926980D01*
X110061876Y-103965075D01*
X110252352Y-103965075D01*
X110404733Y-103926980D01*
X110480923Y-103888885D01*
X110519019Y-103850789D01*
X110557114Y-103774599D01*
X110480923Y-103203170D02*
X110519019Y-103165075D01*
X110557114Y-103088885D01*
X110557114Y-102898408D01*
X110519019Y-102822218D01*
X110480923Y-102784123D01*
X110404733Y-102746028D01*
X110328542Y-102746028D01*
X110214257Y-102784123D01*
X109757114Y-103241266D01*
X109757114Y-102746028D01*
X109757114Y-101984123D02*
X109757114Y-102441266D01*
X109757114Y-102212694D02*
X110557114Y-102212694D01*
X110442828Y-102288885D01*
X110366638Y-102365075D01*
X110328542Y-102441266D01*
X83302319Y-99862932D02*
X83035652Y-100662932D01*
X82768986Y-99862932D01*
X82045176Y-100586742D02*
X82083271Y-100624837D01*
X82197557Y-100662932D01*
X82273748Y-100662932D01*
X82388033Y-100624837D01*
X82464224Y-100548647D01*
X82502319Y-100472456D01*
X82540414Y-100320075D01*
X82540414Y-100205789D01*
X82502319Y-100053408D01*
X82464224Y-99977218D01*
X82388033Y-99901028D01*
X82273748Y-99862932D01*
X82197557Y-99862932D01*
X82083271Y-99901028D01*
X82045176Y-99939123D01*
X81245176Y-100586742D02*
X81283271Y-100624837D01*
X81397557Y-100662932D01*
X81473748Y-100662932D01*
X81588033Y-100624837D01*
X81664224Y-100548647D01*
X81702319Y-100472456D01*
X81740414Y-100320075D01*
X81740414Y-100205789D01*
X81702319Y-100053408D01*
X81664224Y-99977218D01*
X81588033Y-99901028D01*
X81473748Y-99862932D01*
X81397557Y-99862932D01*
X81283271Y-99901028D01*
X81245176Y-99939123D01*
X83188033Y-102948932D02*
X83188033Y-102148932D01*
X82883271Y-102148932D01*
X82807081Y-102187028D01*
X82768986Y-102225123D01*
X82730890Y-102301313D01*
X82730890Y-102415599D01*
X82768986Y-102491789D01*
X82807081Y-102529885D01*
X82883271Y-102567980D01*
X83188033Y-102567980D01*
X82426129Y-102720361D02*
X82045176Y-102720361D01*
X82502319Y-102948932D02*
X82235652Y-102148932D01*
X81968986Y-102948932D01*
X81778510Y-102148932D02*
X81283271Y-102148932D01*
X81549938Y-102453694D01*
X81435652Y-102453694D01*
X81359462Y-102491789D01*
X81321367Y-102529885D01*
X81283271Y-102606075D01*
X81283271Y-102796551D01*
X81321367Y-102872742D01*
X81359462Y-102910837D01*
X81435652Y-102948932D01*
X81664224Y-102948932D01*
X81740414Y-102910837D01*
X81778510Y-102872742D01*
X83188033Y-104472932D02*
X83188033Y-103672932D01*
X82883271Y-103672932D01*
X82807081Y-103711028D01*
X82768986Y-103749123D01*
X82730890Y-103825313D01*
X82730890Y-103939599D01*
X82768986Y-104015789D01*
X82807081Y-104053885D01*
X82883271Y-104091980D01*
X83188033Y-104091980D01*
X82426129Y-104244361D02*
X82045176Y-104244361D01*
X82502319Y-104472932D02*
X82235652Y-103672932D01*
X81968986Y-104472932D01*
X81359462Y-103939599D02*
X81359462Y-104472932D01*
X81549938Y-103634837D02*
X81740414Y-104206266D01*
X81245176Y-104206266D01*
X83188033Y-106504932D02*
X83188033Y-105704932D01*
X82883271Y-105704932D01*
X82807081Y-105743028D01*
X82768986Y-105781123D01*
X82730890Y-105857313D01*
X82730890Y-105971599D01*
X82768986Y-106047789D01*
X82807081Y-106085885D01*
X82883271Y-106123980D01*
X83188033Y-106123980D01*
X82426129Y-106276361D02*
X82045176Y-106276361D01*
X82502319Y-106504932D02*
X82235652Y-105704932D01*
X81968986Y-106504932D01*
X81321367Y-105704932D02*
X81702319Y-105704932D01*
X81740414Y-106085885D01*
X81702319Y-106047789D01*
X81626129Y-106009694D01*
X81435652Y-106009694D01*
X81359462Y-106047789D01*
X81321367Y-106085885D01*
X81283271Y-106162075D01*
X81283271Y-106352551D01*
X81321367Y-106428742D01*
X81359462Y-106466837D01*
X81435652Y-106504932D01*
X81626129Y-106504932D01*
X81702319Y-106466837D01*
X81740414Y-106428742D01*
X83188033Y-108536932D02*
X83188033Y-107736932D01*
X82883271Y-107736932D01*
X82807081Y-107775028D01*
X82768986Y-107813123D01*
X82730890Y-107889313D01*
X82730890Y-108003599D01*
X82768986Y-108079789D01*
X82807081Y-108117885D01*
X82883271Y-108155980D01*
X83188033Y-108155980D01*
X82426129Y-108308361D02*
X82045176Y-108308361D01*
X82502319Y-108536932D02*
X82235652Y-107736932D01*
X81968986Y-108536932D01*
X81359462Y-107736932D02*
X81511843Y-107736932D01*
X81588033Y-107775028D01*
X81626129Y-107813123D01*
X81702319Y-107927408D01*
X81740414Y-108079789D01*
X81740414Y-108384551D01*
X81702319Y-108460742D01*
X81664224Y-108498837D01*
X81588033Y-108536932D01*
X81435652Y-108536932D01*
X81359462Y-108498837D01*
X81321367Y-108460742D01*
X81283271Y-108384551D01*
X81283271Y-108194075D01*
X81321367Y-108117885D01*
X81359462Y-108079789D01*
X81435652Y-108041694D01*
X81588033Y-108041694D01*
X81664224Y-108079789D01*
X81702319Y-108117885D01*
X81740414Y-108194075D01*
X88450081Y-109807028D02*
X88526271Y-109768932D01*
X88640557Y-109768932D01*
X88754843Y-109807028D01*
X88831033Y-109883218D01*
X88869129Y-109959408D01*
X88907224Y-110111789D01*
X88907224Y-110226075D01*
X88869129Y-110378456D01*
X88831033Y-110454647D01*
X88754843Y-110530837D01*
X88640557Y-110568932D01*
X88564367Y-110568932D01*
X88450081Y-110530837D01*
X88411986Y-110492742D01*
X88411986Y-110226075D01*
X88564367Y-110226075D01*
X88069129Y-110568932D02*
X88069129Y-109768932D01*
X87611986Y-110568932D01*
X87611986Y-109768932D01*
X87231033Y-110568932D02*
X87231033Y-109768932D01*
X87040557Y-109768932D01*
X86926271Y-109807028D01*
X86850081Y-109883218D01*
X86811986Y-109959408D01*
X86773890Y-110111789D01*
X86773890Y-110226075D01*
X86811986Y-110378456D01*
X86850081Y-110454647D01*
X86926271Y-110530837D01*
X87040557Y-110568932D01*
X87231033Y-110568932D01*
X88107105Y-107793647D02*
X88907105Y-107793647D01*
X88526152Y-107793647D02*
X88526152Y-107336504D01*
X88107105Y-107336504D02*
X88907105Y-107336504D01*
X88183295Y-106498408D02*
X88145200Y-106536504D01*
X88107105Y-106650789D01*
X88107105Y-106726980D01*
X88145200Y-106841266D01*
X88221390Y-106917456D01*
X88297581Y-106955551D01*
X88449962Y-106993647D01*
X88564248Y-106993647D01*
X88716629Y-106955551D01*
X88792819Y-106917456D01*
X88869010Y-106841266D01*
X88907105Y-106726980D01*
X88907105Y-106650789D01*
X88869010Y-106536504D01*
X88830914Y-106498408D01*
X88145200Y-106193647D02*
X88107105Y-106079361D01*
X88107105Y-105888885D01*
X88145200Y-105812694D01*
X88183295Y-105774599D01*
X88259486Y-105736504D01*
X88335676Y-105736504D01*
X88411867Y-105774599D01*
X88449962Y-105812694D01*
X88488057Y-105888885D01*
X88526152Y-106041266D01*
X88564248Y-106117456D01*
X88602343Y-106155551D01*
X88678533Y-106193647D01*
X88754724Y-106193647D01*
X88830914Y-106155551D01*
X88869010Y-106117456D01*
X88907105Y-106041266D01*
X88907105Y-105850789D01*
X88869010Y-105736504D01*
X88107105Y-104326980D02*
X88488057Y-104593647D01*
X88107105Y-104784123D02*
X88907105Y-104784123D01*
X88907105Y-104479361D01*
X88869010Y-104403170D01*
X88830914Y-104365075D01*
X88754724Y-104326980D01*
X88640438Y-104326980D01*
X88564248Y-104365075D01*
X88526152Y-104403170D01*
X88488057Y-104479361D01*
X88488057Y-104784123D01*
X88145200Y-103679361D02*
X88107105Y-103755551D01*
X88107105Y-103907932D01*
X88145200Y-103984123D01*
X88221390Y-104022218D01*
X88526152Y-104022218D01*
X88602343Y-103984123D01*
X88640438Y-103907932D01*
X88640438Y-103755551D01*
X88602343Y-103679361D01*
X88526152Y-103641266D01*
X88449962Y-103641266D01*
X88373771Y-104022218D01*
X88640438Y-103374599D02*
X88107105Y-103184123D01*
X88640438Y-102993647D01*
X88107105Y-101660313D02*
X88107105Y-102117456D01*
X88107105Y-101888885D02*
X88907105Y-101888885D01*
X88792819Y-101965075D01*
X88716629Y-102041266D01*
X88678533Y-102117456D01*
X86757105Y-107469837D02*
X87557105Y-107469837D01*
X86757105Y-107012694D01*
X87557105Y-107012694D01*
X86757105Y-106517456D02*
X86795200Y-106593647D01*
X86833295Y-106631742D01*
X86909486Y-106669837D01*
X87138057Y-106669837D01*
X87214248Y-106631742D01*
X87252343Y-106593647D01*
X87290438Y-106517456D01*
X87290438Y-106403170D01*
X87252343Y-106326980D01*
X87214248Y-106288885D01*
X87138057Y-106250789D01*
X86909486Y-106250789D01*
X86833295Y-106288885D01*
X86795200Y-106326980D01*
X86757105Y-106403170D01*
X86757105Y-106517456D01*
X87290438Y-105984123D02*
X86757105Y-105793647D01*
X87290438Y-105603170D01*
X87480914Y-104726980D02*
X87519010Y-104688885D01*
X87557105Y-104612694D01*
X87557105Y-104422218D01*
X87519010Y-104346028D01*
X87480914Y-104307932D01*
X87404724Y-104269837D01*
X87328533Y-104269837D01*
X87214248Y-104307932D01*
X86757105Y-104765075D01*
X86757105Y-104269837D01*
X87557105Y-103774599D02*
X87557105Y-103698408D01*
X87519010Y-103622218D01*
X87480914Y-103584123D01*
X87404724Y-103546028D01*
X87252343Y-103507932D01*
X87061867Y-103507932D01*
X86909486Y-103546028D01*
X86833295Y-103584123D01*
X86795200Y-103622218D01*
X86757105Y-103698408D01*
X86757105Y-103774599D01*
X86795200Y-103850789D01*
X86833295Y-103888885D01*
X86909486Y-103926980D01*
X87061867Y-103965075D01*
X87252343Y-103965075D01*
X87404724Y-103926980D01*
X87480914Y-103888885D01*
X87519010Y-103850789D01*
X87557105Y-103774599D01*
X87480914Y-103203170D02*
X87519010Y-103165075D01*
X87557105Y-103088885D01*
X87557105Y-102898408D01*
X87519010Y-102822218D01*
X87480914Y-102784123D01*
X87404724Y-102746028D01*
X87328533Y-102746028D01*
X87214248Y-102784123D01*
X86757105Y-103241266D01*
X86757105Y-102746028D01*
X86757105Y-101984123D02*
X86757105Y-102441266D01*
X86757105Y-102212694D02*
X87557105Y-102212694D01*
X87442819Y-102288885D01*
X87366629Y-102365075D01*
X87328533Y-102441266D01*
X60302310Y-99862932D02*
X60035643Y-100662932D01*
X59768977Y-99862932D01*
X59045167Y-100586742D02*
X59083262Y-100624837D01*
X59197548Y-100662932D01*
X59273739Y-100662932D01*
X59388024Y-100624837D01*
X59464215Y-100548647D01*
X59502310Y-100472456D01*
X59540405Y-100320075D01*
X59540405Y-100205789D01*
X59502310Y-100053408D01*
X59464215Y-99977218D01*
X59388024Y-99901028D01*
X59273739Y-99862932D01*
X59197548Y-99862932D01*
X59083262Y-99901028D01*
X59045167Y-99939123D01*
X58245167Y-100586742D02*
X58283262Y-100624837D01*
X58397548Y-100662932D01*
X58473739Y-100662932D01*
X58588024Y-100624837D01*
X58664215Y-100548647D01*
X58702310Y-100472456D01*
X58740405Y-100320075D01*
X58740405Y-100205789D01*
X58702310Y-100053408D01*
X58664215Y-99977218D01*
X58588024Y-99901028D01*
X58473739Y-99862932D01*
X58397548Y-99862932D01*
X58283262Y-99901028D01*
X58245167Y-99939123D01*
X60188024Y-102948932D02*
X60188024Y-102148932D01*
X59883262Y-102148932D01*
X59807072Y-102187028D01*
X59768977Y-102225123D01*
X59730881Y-102301313D01*
X59730881Y-102415599D01*
X59768977Y-102491789D01*
X59807072Y-102529885D01*
X59883262Y-102567980D01*
X60188024Y-102567980D01*
X59426120Y-102720361D02*
X59045167Y-102720361D01*
X59502310Y-102948932D02*
X59235643Y-102148932D01*
X58968977Y-102948932D01*
X58778501Y-102148932D02*
X58283262Y-102148932D01*
X58549929Y-102453694D01*
X58435643Y-102453694D01*
X58359453Y-102491789D01*
X58321358Y-102529885D01*
X58283262Y-102606075D01*
X58283262Y-102796551D01*
X58321358Y-102872742D01*
X58359453Y-102910837D01*
X58435643Y-102948932D01*
X58664215Y-102948932D01*
X58740405Y-102910837D01*
X58778501Y-102872742D01*
X60188024Y-104472932D02*
X60188024Y-103672932D01*
X59883262Y-103672932D01*
X59807072Y-103711028D01*
X59768977Y-103749123D01*
X59730881Y-103825313D01*
X59730881Y-103939599D01*
X59768977Y-104015789D01*
X59807072Y-104053885D01*
X59883262Y-104091980D01*
X60188024Y-104091980D01*
X59426120Y-104244361D02*
X59045167Y-104244361D01*
X59502310Y-104472932D02*
X59235643Y-103672932D01*
X58968977Y-104472932D01*
X58359453Y-103939599D02*
X58359453Y-104472932D01*
X58549929Y-103634837D02*
X58740405Y-104206266D01*
X58245167Y-104206266D01*
X60188024Y-106504932D02*
X60188024Y-105704932D01*
X59883262Y-105704932D01*
X59807072Y-105743028D01*
X59768977Y-105781123D01*
X59730881Y-105857313D01*
X59730881Y-105971599D01*
X59768977Y-106047789D01*
X59807072Y-106085885D01*
X59883262Y-106123980D01*
X60188024Y-106123980D01*
X59426120Y-106276361D02*
X59045167Y-106276361D01*
X59502310Y-106504932D02*
X59235643Y-105704932D01*
X58968977Y-106504932D01*
X58321358Y-105704932D02*
X58702310Y-105704932D01*
X58740405Y-106085885D01*
X58702310Y-106047789D01*
X58626120Y-106009694D01*
X58435643Y-106009694D01*
X58359453Y-106047789D01*
X58321358Y-106085885D01*
X58283262Y-106162075D01*
X58283262Y-106352551D01*
X58321358Y-106428742D01*
X58359453Y-106466837D01*
X58435643Y-106504932D01*
X58626120Y-106504932D01*
X58702310Y-106466837D01*
X58740405Y-106428742D01*
X60188024Y-108536932D02*
X60188024Y-107736932D01*
X59883262Y-107736932D01*
X59807072Y-107775028D01*
X59768977Y-107813123D01*
X59730881Y-107889313D01*
X59730881Y-108003599D01*
X59768977Y-108079789D01*
X59807072Y-108117885D01*
X59883262Y-108155980D01*
X60188024Y-108155980D01*
X59426120Y-108308361D02*
X59045167Y-108308361D01*
X59502310Y-108536932D02*
X59235643Y-107736932D01*
X58968977Y-108536932D01*
X58359453Y-107736932D02*
X58511834Y-107736932D01*
X58588024Y-107775028D01*
X58626120Y-107813123D01*
X58702310Y-107927408D01*
X58740405Y-108079789D01*
X58740405Y-108384551D01*
X58702310Y-108460742D01*
X58664215Y-108498837D01*
X58588024Y-108536932D01*
X58435643Y-108536932D01*
X58359453Y-108498837D01*
X58321358Y-108460742D01*
X58283262Y-108384551D01*
X58283262Y-108194075D01*
X58321358Y-108117885D01*
X58359453Y-108079789D01*
X58435643Y-108041694D01*
X58588024Y-108041694D01*
X58664215Y-108079789D01*
X58702310Y-108117885D01*
X58740405Y-108194075D01*
X65450072Y-109807028D02*
X65526262Y-109768932D01*
X65640548Y-109768932D01*
X65754834Y-109807028D01*
X65831024Y-109883218D01*
X65869120Y-109959408D01*
X65907215Y-110111789D01*
X65907215Y-110226075D01*
X65869120Y-110378456D01*
X65831024Y-110454647D01*
X65754834Y-110530837D01*
X65640548Y-110568932D01*
X65564358Y-110568932D01*
X65450072Y-110530837D01*
X65411977Y-110492742D01*
X65411977Y-110226075D01*
X65564358Y-110226075D01*
X65069120Y-110568932D02*
X65069120Y-109768932D01*
X64611977Y-110568932D01*
X64611977Y-109768932D01*
X64231024Y-110568932D02*
X64231024Y-109768932D01*
X64040548Y-109768932D01*
X63926262Y-109807028D01*
X63850072Y-109883218D01*
X63811977Y-109959408D01*
X63773881Y-110111789D01*
X63773881Y-110226075D01*
X63811977Y-110378456D01*
X63850072Y-110454647D01*
X63926262Y-110530837D01*
X64040548Y-110568932D01*
X64231024Y-110568932D01*
X65107096Y-107793647D02*
X65907096Y-107793647D01*
X65526143Y-107793647D02*
X65526143Y-107336504D01*
X65107096Y-107336504D02*
X65907096Y-107336504D01*
X65183286Y-106498408D02*
X65145191Y-106536504D01*
X65107096Y-106650789D01*
X65107096Y-106726980D01*
X65145191Y-106841266D01*
X65221381Y-106917456D01*
X65297572Y-106955551D01*
X65449953Y-106993647D01*
X65564239Y-106993647D01*
X65716620Y-106955551D01*
X65792810Y-106917456D01*
X65869001Y-106841266D01*
X65907096Y-106726980D01*
X65907096Y-106650789D01*
X65869001Y-106536504D01*
X65830905Y-106498408D01*
X65145191Y-106193647D02*
X65107096Y-106079361D01*
X65107096Y-105888885D01*
X65145191Y-105812694D01*
X65183286Y-105774599D01*
X65259477Y-105736504D01*
X65335667Y-105736504D01*
X65411858Y-105774599D01*
X65449953Y-105812694D01*
X65488048Y-105888885D01*
X65526143Y-106041266D01*
X65564239Y-106117456D01*
X65602334Y-106155551D01*
X65678524Y-106193647D01*
X65754715Y-106193647D01*
X65830905Y-106155551D01*
X65869001Y-106117456D01*
X65907096Y-106041266D01*
X65907096Y-105850789D01*
X65869001Y-105736504D01*
X65107096Y-104326980D02*
X65488048Y-104593647D01*
X65107096Y-104784123D02*
X65907096Y-104784123D01*
X65907096Y-104479361D01*
X65869001Y-104403170D01*
X65830905Y-104365075D01*
X65754715Y-104326980D01*
X65640429Y-104326980D01*
X65564239Y-104365075D01*
X65526143Y-104403170D01*
X65488048Y-104479361D01*
X65488048Y-104784123D01*
X65145191Y-103679361D02*
X65107096Y-103755551D01*
X65107096Y-103907932D01*
X65145191Y-103984123D01*
X65221381Y-104022218D01*
X65526143Y-104022218D01*
X65602334Y-103984123D01*
X65640429Y-103907932D01*
X65640429Y-103755551D01*
X65602334Y-103679361D01*
X65526143Y-103641266D01*
X65449953Y-103641266D01*
X65373762Y-104022218D01*
X65640429Y-103374599D02*
X65107096Y-103184123D01*
X65640429Y-102993647D01*
X65107096Y-101660313D02*
X65107096Y-102117456D01*
X65107096Y-101888885D02*
X65907096Y-101888885D01*
X65792810Y-101965075D01*
X65716620Y-102041266D01*
X65678524Y-102117456D01*
X63757096Y-107469837D02*
X64557096Y-107469837D01*
X63757096Y-107012694D01*
X64557096Y-107012694D01*
X63757096Y-106517456D02*
X63795191Y-106593647D01*
X63833286Y-106631742D01*
X63909477Y-106669837D01*
X64138048Y-106669837D01*
X64214239Y-106631742D01*
X64252334Y-106593647D01*
X64290429Y-106517456D01*
X64290429Y-106403170D01*
X64252334Y-106326980D01*
X64214239Y-106288885D01*
X64138048Y-106250789D01*
X63909477Y-106250789D01*
X63833286Y-106288885D01*
X63795191Y-106326980D01*
X63757096Y-106403170D01*
X63757096Y-106517456D01*
X64290429Y-105984123D02*
X63757096Y-105793647D01*
X64290429Y-105603170D01*
X64480905Y-104726980D02*
X64519001Y-104688885D01*
X64557096Y-104612694D01*
X64557096Y-104422218D01*
X64519001Y-104346028D01*
X64480905Y-104307932D01*
X64404715Y-104269837D01*
X64328524Y-104269837D01*
X64214239Y-104307932D01*
X63757096Y-104765075D01*
X63757096Y-104269837D01*
X64557096Y-103774599D02*
X64557096Y-103698408D01*
X64519001Y-103622218D01*
X64480905Y-103584123D01*
X64404715Y-103546028D01*
X64252334Y-103507932D01*
X64061858Y-103507932D01*
X63909477Y-103546028D01*
X63833286Y-103584123D01*
X63795191Y-103622218D01*
X63757096Y-103698408D01*
X63757096Y-103774599D01*
X63795191Y-103850789D01*
X63833286Y-103888885D01*
X63909477Y-103926980D01*
X64061858Y-103965075D01*
X64252334Y-103965075D01*
X64404715Y-103926980D01*
X64480905Y-103888885D01*
X64519001Y-103850789D01*
X64557096Y-103774599D01*
X64480905Y-103203170D02*
X64519001Y-103165075D01*
X64557096Y-103088885D01*
X64557096Y-102898408D01*
X64519001Y-102822218D01*
X64480905Y-102784123D01*
X64404715Y-102746028D01*
X64328524Y-102746028D01*
X64214239Y-102784123D01*
X63757096Y-103241266D01*
X63757096Y-102746028D01*
X63757096Y-101984123D02*
X63757096Y-102441266D01*
X63757096Y-102212694D02*
X64557096Y-102212694D01*
X64442810Y-102288885D01*
X64366620Y-102365075D01*
X64328524Y-102441266D01*
X129302337Y-83862923D02*
X129035670Y-84662923D01*
X128769004Y-83862923D01*
X128045194Y-84586733D02*
X128083289Y-84624828D01*
X128197575Y-84662923D01*
X128273766Y-84662923D01*
X128388051Y-84624828D01*
X128464242Y-84548638D01*
X128502337Y-84472447D01*
X128540432Y-84320066D01*
X128540432Y-84205780D01*
X128502337Y-84053399D01*
X128464242Y-83977209D01*
X128388051Y-83901019D01*
X128273766Y-83862923D01*
X128197575Y-83862923D01*
X128083289Y-83901019D01*
X128045194Y-83939114D01*
X127245194Y-84586733D02*
X127283289Y-84624828D01*
X127397575Y-84662923D01*
X127473766Y-84662923D01*
X127588051Y-84624828D01*
X127664242Y-84548638D01*
X127702337Y-84472447D01*
X127740432Y-84320066D01*
X127740432Y-84205780D01*
X127702337Y-84053399D01*
X127664242Y-83977209D01*
X127588051Y-83901019D01*
X127473766Y-83862923D01*
X127397575Y-83862923D01*
X127283289Y-83901019D01*
X127245194Y-83939114D01*
X129188051Y-86948923D02*
X129188051Y-86148923D01*
X128883289Y-86148923D01*
X128807099Y-86187019D01*
X128769004Y-86225114D01*
X128730908Y-86301304D01*
X128730908Y-86415590D01*
X128769004Y-86491780D01*
X128807099Y-86529876D01*
X128883289Y-86567971D01*
X129188051Y-86567971D01*
X128426147Y-86720352D02*
X128045194Y-86720352D01*
X128502337Y-86948923D02*
X128235670Y-86148923D01*
X127969004Y-86948923D01*
X127778528Y-86148923D02*
X127283289Y-86148923D01*
X127549956Y-86453685D01*
X127435670Y-86453685D01*
X127359480Y-86491780D01*
X127321385Y-86529876D01*
X127283289Y-86606066D01*
X127283289Y-86796542D01*
X127321385Y-86872733D01*
X127359480Y-86910828D01*
X127435670Y-86948923D01*
X127664242Y-86948923D01*
X127740432Y-86910828D01*
X127778528Y-86872733D01*
X129188051Y-88472923D02*
X129188051Y-87672923D01*
X128883289Y-87672923D01*
X128807099Y-87711019D01*
X128769004Y-87749114D01*
X128730908Y-87825304D01*
X128730908Y-87939590D01*
X128769004Y-88015780D01*
X128807099Y-88053876D01*
X128883289Y-88091971D01*
X129188051Y-88091971D01*
X128426147Y-88244352D02*
X128045194Y-88244352D01*
X128502337Y-88472923D02*
X128235670Y-87672923D01*
X127969004Y-88472923D01*
X127359480Y-87939590D02*
X127359480Y-88472923D01*
X127549956Y-87634828D02*
X127740432Y-88206257D01*
X127245194Y-88206257D01*
X129188051Y-90504923D02*
X129188051Y-89704923D01*
X128883289Y-89704923D01*
X128807099Y-89743019D01*
X128769004Y-89781114D01*
X128730908Y-89857304D01*
X128730908Y-89971590D01*
X128769004Y-90047780D01*
X128807099Y-90085876D01*
X128883289Y-90123971D01*
X129188051Y-90123971D01*
X128426147Y-90276352D02*
X128045194Y-90276352D01*
X128502337Y-90504923D02*
X128235670Y-89704923D01*
X127969004Y-90504923D01*
X127321385Y-89704923D02*
X127702337Y-89704923D01*
X127740432Y-90085876D01*
X127702337Y-90047780D01*
X127626147Y-90009685D01*
X127435670Y-90009685D01*
X127359480Y-90047780D01*
X127321385Y-90085876D01*
X127283289Y-90162066D01*
X127283289Y-90352542D01*
X127321385Y-90428733D01*
X127359480Y-90466828D01*
X127435670Y-90504923D01*
X127626147Y-90504923D01*
X127702337Y-90466828D01*
X127740432Y-90428733D01*
X129188051Y-92536923D02*
X129188051Y-91736923D01*
X128883289Y-91736923D01*
X128807099Y-91775019D01*
X128769004Y-91813114D01*
X128730908Y-91889304D01*
X128730908Y-92003590D01*
X128769004Y-92079780D01*
X128807099Y-92117876D01*
X128883289Y-92155971D01*
X129188051Y-92155971D01*
X128426147Y-92308352D02*
X128045194Y-92308352D01*
X128502337Y-92536923D02*
X128235670Y-91736923D01*
X127969004Y-92536923D01*
X127359480Y-91736923D02*
X127511861Y-91736923D01*
X127588051Y-91775019D01*
X127626147Y-91813114D01*
X127702337Y-91927399D01*
X127740432Y-92079780D01*
X127740432Y-92384542D01*
X127702337Y-92460733D01*
X127664242Y-92498828D01*
X127588051Y-92536923D01*
X127435670Y-92536923D01*
X127359480Y-92498828D01*
X127321385Y-92460733D01*
X127283289Y-92384542D01*
X127283289Y-92194066D01*
X127321385Y-92117876D01*
X127359480Y-92079780D01*
X127435670Y-92041685D01*
X127588051Y-92041685D01*
X127664242Y-92079780D01*
X127702337Y-92117876D01*
X127740432Y-92194066D01*
X134450099Y-93807019D02*
X134526289Y-93768923D01*
X134640575Y-93768923D01*
X134754861Y-93807019D01*
X134831051Y-93883209D01*
X134869147Y-93959399D01*
X134907242Y-94111780D01*
X134907242Y-94226066D01*
X134869147Y-94378447D01*
X134831051Y-94454638D01*
X134754861Y-94530828D01*
X134640575Y-94568923D01*
X134564385Y-94568923D01*
X134450099Y-94530828D01*
X134412004Y-94492733D01*
X134412004Y-94226066D01*
X134564385Y-94226066D01*
X134069147Y-94568923D02*
X134069147Y-93768923D01*
X133612004Y-94568923D01*
X133612004Y-93768923D01*
X133231051Y-94568923D02*
X133231051Y-93768923D01*
X133040575Y-93768923D01*
X132926289Y-93807019D01*
X132850099Y-93883209D01*
X132812004Y-93959399D01*
X132773908Y-94111780D01*
X132773908Y-94226066D01*
X132812004Y-94378447D01*
X132850099Y-94454638D01*
X132926289Y-94530828D01*
X133040575Y-94568923D01*
X133231051Y-94568923D01*
X134107123Y-91793638D02*
X134907123Y-91793638D01*
X134526170Y-91793638D02*
X134526170Y-91336495D01*
X134107123Y-91336495D02*
X134907123Y-91336495D01*
X134183313Y-90498399D02*
X134145218Y-90536495D01*
X134107123Y-90650780D01*
X134107123Y-90726971D01*
X134145218Y-90841257D01*
X134221408Y-90917447D01*
X134297599Y-90955542D01*
X134449980Y-90993638D01*
X134564266Y-90993638D01*
X134716647Y-90955542D01*
X134792837Y-90917447D01*
X134869028Y-90841257D01*
X134907123Y-90726971D01*
X134907123Y-90650780D01*
X134869028Y-90536495D01*
X134830932Y-90498399D01*
X134145218Y-90193638D02*
X134107123Y-90079352D01*
X134107123Y-89888876D01*
X134145218Y-89812685D01*
X134183313Y-89774590D01*
X134259504Y-89736495D01*
X134335694Y-89736495D01*
X134411885Y-89774590D01*
X134449980Y-89812685D01*
X134488075Y-89888876D01*
X134526170Y-90041257D01*
X134564266Y-90117447D01*
X134602361Y-90155542D01*
X134678551Y-90193638D01*
X134754742Y-90193638D01*
X134830932Y-90155542D01*
X134869028Y-90117447D01*
X134907123Y-90041257D01*
X134907123Y-89850780D01*
X134869028Y-89736495D01*
X134107123Y-88326971D02*
X134488075Y-88593638D01*
X134107123Y-88784114D02*
X134907123Y-88784114D01*
X134907123Y-88479352D01*
X134869028Y-88403161D01*
X134830932Y-88365066D01*
X134754742Y-88326971D01*
X134640456Y-88326971D01*
X134564266Y-88365066D01*
X134526170Y-88403161D01*
X134488075Y-88479352D01*
X134488075Y-88784114D01*
X134145218Y-87679352D02*
X134107123Y-87755542D01*
X134107123Y-87907923D01*
X134145218Y-87984114D01*
X134221408Y-88022209D01*
X134526170Y-88022209D01*
X134602361Y-87984114D01*
X134640456Y-87907923D01*
X134640456Y-87755542D01*
X134602361Y-87679352D01*
X134526170Y-87641257D01*
X134449980Y-87641257D01*
X134373789Y-88022209D01*
X134640456Y-87374590D02*
X134107123Y-87184114D01*
X134640456Y-86993638D01*
X134107123Y-85660304D02*
X134107123Y-86117447D01*
X134107123Y-85888876D02*
X134907123Y-85888876D01*
X134792837Y-85965066D01*
X134716647Y-86041257D01*
X134678551Y-86117447D01*
X132757123Y-91469828D02*
X133557123Y-91469828D01*
X132757123Y-91012685D01*
X133557123Y-91012685D01*
X132757123Y-90517447D02*
X132795218Y-90593638D01*
X132833313Y-90631733D01*
X132909504Y-90669828D01*
X133138075Y-90669828D01*
X133214266Y-90631733D01*
X133252361Y-90593638D01*
X133290456Y-90517447D01*
X133290456Y-90403161D01*
X133252361Y-90326971D01*
X133214266Y-90288876D01*
X133138075Y-90250780D01*
X132909504Y-90250780D01*
X132833313Y-90288876D01*
X132795218Y-90326971D01*
X132757123Y-90403161D01*
X132757123Y-90517447D01*
X133290456Y-89984114D02*
X132757123Y-89793638D01*
X133290456Y-89603161D01*
X133480932Y-88726971D02*
X133519028Y-88688876D01*
X133557123Y-88612685D01*
X133557123Y-88422209D01*
X133519028Y-88346019D01*
X133480932Y-88307923D01*
X133404742Y-88269828D01*
X133328551Y-88269828D01*
X133214266Y-88307923D01*
X132757123Y-88765066D01*
X132757123Y-88269828D01*
X133557123Y-87774590D02*
X133557123Y-87698399D01*
X133519028Y-87622209D01*
X133480932Y-87584114D01*
X133404742Y-87546019D01*
X133252361Y-87507923D01*
X133061885Y-87507923D01*
X132909504Y-87546019D01*
X132833313Y-87584114D01*
X132795218Y-87622209D01*
X132757123Y-87698399D01*
X132757123Y-87774590D01*
X132795218Y-87850780D01*
X132833313Y-87888876D01*
X132909504Y-87926971D01*
X133061885Y-87965066D01*
X133252361Y-87965066D01*
X133404742Y-87926971D01*
X133480932Y-87888876D01*
X133519028Y-87850780D01*
X133557123Y-87774590D01*
X133480932Y-87203161D02*
X133519028Y-87165066D01*
X133557123Y-87088876D01*
X133557123Y-86898399D01*
X133519028Y-86822209D01*
X133480932Y-86784114D01*
X133404742Y-86746019D01*
X133328551Y-86746019D01*
X133214266Y-86784114D01*
X132757123Y-87241257D01*
X132757123Y-86746019D01*
X132757123Y-85984114D02*
X132757123Y-86441257D01*
X132757123Y-86212685D02*
X133557123Y-86212685D01*
X133442837Y-86288876D01*
X133366647Y-86365066D01*
X133328551Y-86441257D01*
X106302328Y-83862923D02*
X106035661Y-84662923D01*
X105768995Y-83862923D01*
X105045185Y-84586733D02*
X105083280Y-84624828D01*
X105197566Y-84662923D01*
X105273757Y-84662923D01*
X105388042Y-84624828D01*
X105464233Y-84548638D01*
X105502328Y-84472447D01*
X105540423Y-84320066D01*
X105540423Y-84205780D01*
X105502328Y-84053399D01*
X105464233Y-83977209D01*
X105388042Y-83901019D01*
X105273757Y-83862923D01*
X105197566Y-83862923D01*
X105083280Y-83901019D01*
X105045185Y-83939114D01*
X104245185Y-84586733D02*
X104283280Y-84624828D01*
X104397566Y-84662923D01*
X104473757Y-84662923D01*
X104588042Y-84624828D01*
X104664233Y-84548638D01*
X104702328Y-84472447D01*
X104740423Y-84320066D01*
X104740423Y-84205780D01*
X104702328Y-84053399D01*
X104664233Y-83977209D01*
X104588042Y-83901019D01*
X104473757Y-83862923D01*
X104397566Y-83862923D01*
X104283280Y-83901019D01*
X104245185Y-83939114D01*
X106188042Y-86948923D02*
X106188042Y-86148923D01*
X105883280Y-86148923D01*
X105807090Y-86187019D01*
X105768995Y-86225114D01*
X105730899Y-86301304D01*
X105730899Y-86415590D01*
X105768995Y-86491780D01*
X105807090Y-86529876D01*
X105883280Y-86567971D01*
X106188042Y-86567971D01*
X105426138Y-86720352D02*
X105045185Y-86720352D01*
X105502328Y-86948923D02*
X105235661Y-86148923D01*
X104968995Y-86948923D01*
X104778519Y-86148923D02*
X104283280Y-86148923D01*
X104549947Y-86453685D01*
X104435661Y-86453685D01*
X104359471Y-86491780D01*
X104321376Y-86529876D01*
X104283280Y-86606066D01*
X104283280Y-86796542D01*
X104321376Y-86872733D01*
X104359471Y-86910828D01*
X104435661Y-86948923D01*
X104664233Y-86948923D01*
X104740423Y-86910828D01*
X104778519Y-86872733D01*
X106188042Y-88472923D02*
X106188042Y-87672923D01*
X105883280Y-87672923D01*
X105807090Y-87711019D01*
X105768995Y-87749114D01*
X105730899Y-87825304D01*
X105730899Y-87939590D01*
X105768995Y-88015780D01*
X105807090Y-88053876D01*
X105883280Y-88091971D01*
X106188042Y-88091971D01*
X105426138Y-88244352D02*
X105045185Y-88244352D01*
X105502328Y-88472923D02*
X105235661Y-87672923D01*
X104968995Y-88472923D01*
X104359471Y-87939590D02*
X104359471Y-88472923D01*
X104549947Y-87634828D02*
X104740423Y-88206257D01*
X104245185Y-88206257D01*
X106188042Y-90504923D02*
X106188042Y-89704923D01*
X105883280Y-89704923D01*
X105807090Y-89743019D01*
X105768995Y-89781114D01*
X105730899Y-89857304D01*
X105730899Y-89971590D01*
X105768995Y-90047780D01*
X105807090Y-90085876D01*
X105883280Y-90123971D01*
X106188042Y-90123971D01*
X105426138Y-90276352D02*
X105045185Y-90276352D01*
X105502328Y-90504923D02*
X105235661Y-89704923D01*
X104968995Y-90504923D01*
X104321376Y-89704923D02*
X104702328Y-89704923D01*
X104740423Y-90085876D01*
X104702328Y-90047780D01*
X104626138Y-90009685D01*
X104435661Y-90009685D01*
X104359471Y-90047780D01*
X104321376Y-90085876D01*
X104283280Y-90162066D01*
X104283280Y-90352542D01*
X104321376Y-90428733D01*
X104359471Y-90466828D01*
X104435661Y-90504923D01*
X104626138Y-90504923D01*
X104702328Y-90466828D01*
X104740423Y-90428733D01*
X106188042Y-92536923D02*
X106188042Y-91736923D01*
X105883280Y-91736923D01*
X105807090Y-91775019D01*
X105768995Y-91813114D01*
X105730899Y-91889304D01*
X105730899Y-92003590D01*
X105768995Y-92079780D01*
X105807090Y-92117876D01*
X105883280Y-92155971D01*
X106188042Y-92155971D01*
X105426138Y-92308352D02*
X105045185Y-92308352D01*
X105502328Y-92536923D02*
X105235661Y-91736923D01*
X104968995Y-92536923D01*
X104359471Y-91736923D02*
X104511852Y-91736923D01*
X104588042Y-91775019D01*
X104626138Y-91813114D01*
X104702328Y-91927399D01*
X104740423Y-92079780D01*
X104740423Y-92384542D01*
X104702328Y-92460733D01*
X104664233Y-92498828D01*
X104588042Y-92536923D01*
X104435661Y-92536923D01*
X104359471Y-92498828D01*
X104321376Y-92460733D01*
X104283280Y-92384542D01*
X104283280Y-92194066D01*
X104321376Y-92117876D01*
X104359471Y-92079780D01*
X104435661Y-92041685D01*
X104588042Y-92041685D01*
X104664233Y-92079780D01*
X104702328Y-92117876D01*
X104740423Y-92194066D01*
X111450090Y-93807019D02*
X111526280Y-93768923D01*
X111640566Y-93768923D01*
X111754852Y-93807019D01*
X111831042Y-93883209D01*
X111869138Y-93959399D01*
X111907233Y-94111780D01*
X111907233Y-94226066D01*
X111869138Y-94378447D01*
X111831042Y-94454638D01*
X111754852Y-94530828D01*
X111640566Y-94568923D01*
X111564376Y-94568923D01*
X111450090Y-94530828D01*
X111411995Y-94492733D01*
X111411995Y-94226066D01*
X111564376Y-94226066D01*
X111069138Y-94568923D02*
X111069138Y-93768923D01*
X110611995Y-94568923D01*
X110611995Y-93768923D01*
X110231042Y-94568923D02*
X110231042Y-93768923D01*
X110040566Y-93768923D01*
X109926280Y-93807019D01*
X109850090Y-93883209D01*
X109811995Y-93959399D01*
X109773899Y-94111780D01*
X109773899Y-94226066D01*
X109811995Y-94378447D01*
X109850090Y-94454638D01*
X109926280Y-94530828D01*
X110040566Y-94568923D01*
X110231042Y-94568923D01*
X111107114Y-91793638D02*
X111907114Y-91793638D01*
X111526161Y-91793638D02*
X111526161Y-91336495D01*
X111107114Y-91336495D02*
X111907114Y-91336495D01*
X111183304Y-90498399D02*
X111145209Y-90536495D01*
X111107114Y-90650780D01*
X111107114Y-90726971D01*
X111145209Y-90841257D01*
X111221399Y-90917447D01*
X111297590Y-90955542D01*
X111449971Y-90993638D01*
X111564257Y-90993638D01*
X111716638Y-90955542D01*
X111792828Y-90917447D01*
X111869019Y-90841257D01*
X111907114Y-90726971D01*
X111907114Y-90650780D01*
X111869019Y-90536495D01*
X111830923Y-90498399D01*
X111145209Y-90193638D02*
X111107114Y-90079352D01*
X111107114Y-89888876D01*
X111145209Y-89812685D01*
X111183304Y-89774590D01*
X111259495Y-89736495D01*
X111335685Y-89736495D01*
X111411876Y-89774590D01*
X111449971Y-89812685D01*
X111488066Y-89888876D01*
X111526161Y-90041257D01*
X111564257Y-90117447D01*
X111602352Y-90155542D01*
X111678542Y-90193638D01*
X111754733Y-90193638D01*
X111830923Y-90155542D01*
X111869019Y-90117447D01*
X111907114Y-90041257D01*
X111907114Y-89850780D01*
X111869019Y-89736495D01*
X111107114Y-88326971D02*
X111488066Y-88593638D01*
X111107114Y-88784114D02*
X111907114Y-88784114D01*
X111907114Y-88479352D01*
X111869019Y-88403161D01*
X111830923Y-88365066D01*
X111754733Y-88326971D01*
X111640447Y-88326971D01*
X111564257Y-88365066D01*
X111526161Y-88403161D01*
X111488066Y-88479352D01*
X111488066Y-88784114D01*
X111145209Y-87679352D02*
X111107114Y-87755542D01*
X111107114Y-87907923D01*
X111145209Y-87984114D01*
X111221399Y-88022209D01*
X111526161Y-88022209D01*
X111602352Y-87984114D01*
X111640447Y-87907923D01*
X111640447Y-87755542D01*
X111602352Y-87679352D01*
X111526161Y-87641257D01*
X111449971Y-87641257D01*
X111373780Y-88022209D01*
X111640447Y-87374590D02*
X111107114Y-87184114D01*
X111640447Y-86993638D01*
X111107114Y-85660304D02*
X111107114Y-86117447D01*
X111107114Y-85888876D02*
X111907114Y-85888876D01*
X111792828Y-85965066D01*
X111716638Y-86041257D01*
X111678542Y-86117447D01*
X109757114Y-91469828D02*
X110557114Y-91469828D01*
X109757114Y-91012685D01*
X110557114Y-91012685D01*
X109757114Y-90517447D02*
X109795209Y-90593638D01*
X109833304Y-90631733D01*
X109909495Y-90669828D01*
X110138066Y-90669828D01*
X110214257Y-90631733D01*
X110252352Y-90593638D01*
X110290447Y-90517447D01*
X110290447Y-90403161D01*
X110252352Y-90326971D01*
X110214257Y-90288876D01*
X110138066Y-90250780D01*
X109909495Y-90250780D01*
X109833304Y-90288876D01*
X109795209Y-90326971D01*
X109757114Y-90403161D01*
X109757114Y-90517447D01*
X110290447Y-89984114D02*
X109757114Y-89793638D01*
X110290447Y-89603161D01*
X110480923Y-88726971D02*
X110519019Y-88688876D01*
X110557114Y-88612685D01*
X110557114Y-88422209D01*
X110519019Y-88346019D01*
X110480923Y-88307923D01*
X110404733Y-88269828D01*
X110328542Y-88269828D01*
X110214257Y-88307923D01*
X109757114Y-88765066D01*
X109757114Y-88269828D01*
X110557114Y-87774590D02*
X110557114Y-87698399D01*
X110519019Y-87622209D01*
X110480923Y-87584114D01*
X110404733Y-87546019D01*
X110252352Y-87507923D01*
X110061876Y-87507923D01*
X109909495Y-87546019D01*
X109833304Y-87584114D01*
X109795209Y-87622209D01*
X109757114Y-87698399D01*
X109757114Y-87774590D01*
X109795209Y-87850780D01*
X109833304Y-87888876D01*
X109909495Y-87926971D01*
X110061876Y-87965066D01*
X110252352Y-87965066D01*
X110404733Y-87926971D01*
X110480923Y-87888876D01*
X110519019Y-87850780D01*
X110557114Y-87774590D01*
X110480923Y-87203161D02*
X110519019Y-87165066D01*
X110557114Y-87088876D01*
X110557114Y-86898399D01*
X110519019Y-86822209D01*
X110480923Y-86784114D01*
X110404733Y-86746019D01*
X110328542Y-86746019D01*
X110214257Y-86784114D01*
X109757114Y-87241257D01*
X109757114Y-86746019D01*
X109757114Y-85984114D02*
X109757114Y-86441257D01*
X109757114Y-86212685D02*
X110557114Y-86212685D01*
X110442828Y-86288876D01*
X110366638Y-86365066D01*
X110328542Y-86441257D01*
X83302319Y-83862923D02*
X83035652Y-84662923D01*
X82768986Y-83862923D01*
X82045176Y-84586733D02*
X82083271Y-84624828D01*
X82197557Y-84662923D01*
X82273748Y-84662923D01*
X82388033Y-84624828D01*
X82464224Y-84548638D01*
X82502319Y-84472447D01*
X82540414Y-84320066D01*
X82540414Y-84205780D01*
X82502319Y-84053399D01*
X82464224Y-83977209D01*
X82388033Y-83901019D01*
X82273748Y-83862923D01*
X82197557Y-83862923D01*
X82083271Y-83901019D01*
X82045176Y-83939114D01*
X81245176Y-84586733D02*
X81283271Y-84624828D01*
X81397557Y-84662923D01*
X81473748Y-84662923D01*
X81588033Y-84624828D01*
X81664224Y-84548638D01*
X81702319Y-84472447D01*
X81740414Y-84320066D01*
X81740414Y-84205780D01*
X81702319Y-84053399D01*
X81664224Y-83977209D01*
X81588033Y-83901019D01*
X81473748Y-83862923D01*
X81397557Y-83862923D01*
X81283271Y-83901019D01*
X81245176Y-83939114D01*
X83188033Y-86948923D02*
X83188033Y-86148923D01*
X82883271Y-86148923D01*
X82807081Y-86187019D01*
X82768986Y-86225114D01*
X82730890Y-86301304D01*
X82730890Y-86415590D01*
X82768986Y-86491780D01*
X82807081Y-86529876D01*
X82883271Y-86567971D01*
X83188033Y-86567971D01*
X82426129Y-86720352D02*
X82045176Y-86720352D01*
X82502319Y-86948923D02*
X82235652Y-86148923D01*
X81968986Y-86948923D01*
X81778510Y-86148923D02*
X81283271Y-86148923D01*
X81549938Y-86453685D01*
X81435652Y-86453685D01*
X81359462Y-86491780D01*
X81321367Y-86529876D01*
X81283271Y-86606066D01*
X81283271Y-86796542D01*
X81321367Y-86872733D01*
X81359462Y-86910828D01*
X81435652Y-86948923D01*
X81664224Y-86948923D01*
X81740414Y-86910828D01*
X81778510Y-86872733D01*
X83188033Y-88472923D02*
X83188033Y-87672923D01*
X82883271Y-87672923D01*
X82807081Y-87711019D01*
X82768986Y-87749114D01*
X82730890Y-87825304D01*
X82730890Y-87939590D01*
X82768986Y-88015780D01*
X82807081Y-88053876D01*
X82883271Y-88091971D01*
X83188033Y-88091971D01*
X82426129Y-88244352D02*
X82045176Y-88244352D01*
X82502319Y-88472923D02*
X82235652Y-87672923D01*
X81968986Y-88472923D01*
X81359462Y-87939590D02*
X81359462Y-88472923D01*
X81549938Y-87634828D02*
X81740414Y-88206257D01*
X81245176Y-88206257D01*
X83188033Y-90504923D02*
X83188033Y-89704923D01*
X82883271Y-89704923D01*
X82807081Y-89743019D01*
X82768986Y-89781114D01*
X82730890Y-89857304D01*
X82730890Y-89971590D01*
X82768986Y-90047780D01*
X82807081Y-90085876D01*
X82883271Y-90123971D01*
X83188033Y-90123971D01*
X82426129Y-90276352D02*
X82045176Y-90276352D01*
X82502319Y-90504923D02*
X82235652Y-89704923D01*
X81968986Y-90504923D01*
X81321367Y-89704923D02*
X81702319Y-89704923D01*
X81740414Y-90085876D01*
X81702319Y-90047780D01*
X81626129Y-90009685D01*
X81435652Y-90009685D01*
X81359462Y-90047780D01*
X81321367Y-90085876D01*
X81283271Y-90162066D01*
X81283271Y-90352542D01*
X81321367Y-90428733D01*
X81359462Y-90466828D01*
X81435652Y-90504923D01*
X81626129Y-90504923D01*
X81702319Y-90466828D01*
X81740414Y-90428733D01*
X83188033Y-92536923D02*
X83188033Y-91736923D01*
X82883271Y-91736923D01*
X82807081Y-91775019D01*
X82768986Y-91813114D01*
X82730890Y-91889304D01*
X82730890Y-92003590D01*
X82768986Y-92079780D01*
X82807081Y-92117876D01*
X82883271Y-92155971D01*
X83188033Y-92155971D01*
X82426129Y-92308352D02*
X82045176Y-92308352D01*
X82502319Y-92536923D02*
X82235652Y-91736923D01*
X81968986Y-92536923D01*
X81359462Y-91736923D02*
X81511843Y-91736923D01*
X81588033Y-91775019D01*
X81626129Y-91813114D01*
X81702319Y-91927399D01*
X81740414Y-92079780D01*
X81740414Y-92384542D01*
X81702319Y-92460733D01*
X81664224Y-92498828D01*
X81588033Y-92536923D01*
X81435652Y-92536923D01*
X81359462Y-92498828D01*
X81321367Y-92460733D01*
X81283271Y-92384542D01*
X81283271Y-92194066D01*
X81321367Y-92117876D01*
X81359462Y-92079780D01*
X81435652Y-92041685D01*
X81588033Y-92041685D01*
X81664224Y-92079780D01*
X81702319Y-92117876D01*
X81740414Y-92194066D01*
X88450081Y-93807019D02*
X88526271Y-93768923D01*
X88640557Y-93768923D01*
X88754843Y-93807019D01*
X88831033Y-93883209D01*
X88869129Y-93959399D01*
X88907224Y-94111780D01*
X88907224Y-94226066D01*
X88869129Y-94378447D01*
X88831033Y-94454638D01*
X88754843Y-94530828D01*
X88640557Y-94568923D01*
X88564367Y-94568923D01*
X88450081Y-94530828D01*
X88411986Y-94492733D01*
X88411986Y-94226066D01*
X88564367Y-94226066D01*
X88069129Y-94568923D02*
X88069129Y-93768923D01*
X87611986Y-94568923D01*
X87611986Y-93768923D01*
X87231033Y-94568923D02*
X87231033Y-93768923D01*
X87040557Y-93768923D01*
X86926271Y-93807019D01*
X86850081Y-93883209D01*
X86811986Y-93959399D01*
X86773890Y-94111780D01*
X86773890Y-94226066D01*
X86811986Y-94378447D01*
X86850081Y-94454638D01*
X86926271Y-94530828D01*
X87040557Y-94568923D01*
X87231033Y-94568923D01*
X88107105Y-91793638D02*
X88907105Y-91793638D01*
X88526152Y-91793638D02*
X88526152Y-91336495D01*
X88107105Y-91336495D02*
X88907105Y-91336495D01*
X88183295Y-90498399D02*
X88145200Y-90536495D01*
X88107105Y-90650780D01*
X88107105Y-90726971D01*
X88145200Y-90841257D01*
X88221390Y-90917447D01*
X88297581Y-90955542D01*
X88449962Y-90993638D01*
X88564248Y-90993638D01*
X88716629Y-90955542D01*
X88792819Y-90917447D01*
X88869010Y-90841257D01*
X88907105Y-90726971D01*
X88907105Y-90650780D01*
X88869010Y-90536495D01*
X88830914Y-90498399D01*
X88145200Y-90193638D02*
X88107105Y-90079352D01*
X88107105Y-89888876D01*
X88145200Y-89812685D01*
X88183295Y-89774590D01*
X88259486Y-89736495D01*
X88335676Y-89736495D01*
X88411867Y-89774590D01*
X88449962Y-89812685D01*
X88488057Y-89888876D01*
X88526152Y-90041257D01*
X88564248Y-90117447D01*
X88602343Y-90155542D01*
X88678533Y-90193638D01*
X88754724Y-90193638D01*
X88830914Y-90155542D01*
X88869010Y-90117447D01*
X88907105Y-90041257D01*
X88907105Y-89850780D01*
X88869010Y-89736495D01*
X88107105Y-88326971D02*
X88488057Y-88593638D01*
X88107105Y-88784114D02*
X88907105Y-88784114D01*
X88907105Y-88479352D01*
X88869010Y-88403161D01*
X88830914Y-88365066D01*
X88754724Y-88326971D01*
X88640438Y-88326971D01*
X88564248Y-88365066D01*
X88526152Y-88403161D01*
X88488057Y-88479352D01*
X88488057Y-88784114D01*
X88145200Y-87679352D02*
X88107105Y-87755542D01*
X88107105Y-87907923D01*
X88145200Y-87984114D01*
X88221390Y-88022209D01*
X88526152Y-88022209D01*
X88602343Y-87984114D01*
X88640438Y-87907923D01*
X88640438Y-87755542D01*
X88602343Y-87679352D01*
X88526152Y-87641257D01*
X88449962Y-87641257D01*
X88373771Y-88022209D01*
X88640438Y-87374590D02*
X88107105Y-87184114D01*
X88640438Y-86993638D01*
X88107105Y-85660304D02*
X88107105Y-86117447D01*
X88107105Y-85888876D02*
X88907105Y-85888876D01*
X88792819Y-85965066D01*
X88716629Y-86041257D01*
X88678533Y-86117447D01*
X86757105Y-91469828D02*
X87557105Y-91469828D01*
X86757105Y-91012685D01*
X87557105Y-91012685D01*
X86757105Y-90517447D02*
X86795200Y-90593638D01*
X86833295Y-90631733D01*
X86909486Y-90669828D01*
X87138057Y-90669828D01*
X87214248Y-90631733D01*
X87252343Y-90593638D01*
X87290438Y-90517447D01*
X87290438Y-90403161D01*
X87252343Y-90326971D01*
X87214248Y-90288876D01*
X87138057Y-90250780D01*
X86909486Y-90250780D01*
X86833295Y-90288876D01*
X86795200Y-90326971D01*
X86757105Y-90403161D01*
X86757105Y-90517447D01*
X87290438Y-89984114D02*
X86757105Y-89793638D01*
X87290438Y-89603161D01*
X87480914Y-88726971D02*
X87519010Y-88688876D01*
X87557105Y-88612685D01*
X87557105Y-88422209D01*
X87519010Y-88346019D01*
X87480914Y-88307923D01*
X87404724Y-88269828D01*
X87328533Y-88269828D01*
X87214248Y-88307923D01*
X86757105Y-88765066D01*
X86757105Y-88269828D01*
X87557105Y-87774590D02*
X87557105Y-87698399D01*
X87519010Y-87622209D01*
X87480914Y-87584114D01*
X87404724Y-87546019D01*
X87252343Y-87507923D01*
X87061867Y-87507923D01*
X86909486Y-87546019D01*
X86833295Y-87584114D01*
X86795200Y-87622209D01*
X86757105Y-87698399D01*
X86757105Y-87774590D01*
X86795200Y-87850780D01*
X86833295Y-87888876D01*
X86909486Y-87926971D01*
X87061867Y-87965066D01*
X87252343Y-87965066D01*
X87404724Y-87926971D01*
X87480914Y-87888876D01*
X87519010Y-87850780D01*
X87557105Y-87774590D01*
X87480914Y-87203161D02*
X87519010Y-87165066D01*
X87557105Y-87088876D01*
X87557105Y-86898399D01*
X87519010Y-86822209D01*
X87480914Y-86784114D01*
X87404724Y-86746019D01*
X87328533Y-86746019D01*
X87214248Y-86784114D01*
X86757105Y-87241257D01*
X86757105Y-86746019D01*
X86757105Y-85984114D02*
X86757105Y-86441257D01*
X86757105Y-86212685D02*
X87557105Y-86212685D01*
X87442819Y-86288876D01*
X87366629Y-86365066D01*
X87328533Y-86441257D01*
X60302310Y-83862923D02*
X60035643Y-84662923D01*
X59768977Y-83862923D01*
X59045167Y-84586733D02*
X59083262Y-84624828D01*
X59197548Y-84662923D01*
X59273739Y-84662923D01*
X59388024Y-84624828D01*
X59464215Y-84548638D01*
X59502310Y-84472447D01*
X59540405Y-84320066D01*
X59540405Y-84205780D01*
X59502310Y-84053399D01*
X59464215Y-83977209D01*
X59388024Y-83901019D01*
X59273739Y-83862923D01*
X59197548Y-83862923D01*
X59083262Y-83901019D01*
X59045167Y-83939114D01*
X58245167Y-84586733D02*
X58283262Y-84624828D01*
X58397548Y-84662923D01*
X58473739Y-84662923D01*
X58588024Y-84624828D01*
X58664215Y-84548638D01*
X58702310Y-84472447D01*
X58740405Y-84320066D01*
X58740405Y-84205780D01*
X58702310Y-84053399D01*
X58664215Y-83977209D01*
X58588024Y-83901019D01*
X58473739Y-83862923D01*
X58397548Y-83862923D01*
X58283262Y-83901019D01*
X58245167Y-83939114D01*
X60188024Y-86948923D02*
X60188024Y-86148923D01*
X59883262Y-86148923D01*
X59807072Y-86187019D01*
X59768977Y-86225114D01*
X59730881Y-86301304D01*
X59730881Y-86415590D01*
X59768977Y-86491780D01*
X59807072Y-86529876D01*
X59883262Y-86567971D01*
X60188024Y-86567971D01*
X59426120Y-86720352D02*
X59045167Y-86720352D01*
X59502310Y-86948923D02*
X59235643Y-86148923D01*
X58968977Y-86948923D01*
X58778501Y-86148923D02*
X58283262Y-86148923D01*
X58549929Y-86453685D01*
X58435643Y-86453685D01*
X58359453Y-86491780D01*
X58321358Y-86529876D01*
X58283262Y-86606066D01*
X58283262Y-86796542D01*
X58321358Y-86872733D01*
X58359453Y-86910828D01*
X58435643Y-86948923D01*
X58664215Y-86948923D01*
X58740405Y-86910828D01*
X58778501Y-86872733D01*
X60188024Y-88472923D02*
X60188024Y-87672923D01*
X59883262Y-87672923D01*
X59807072Y-87711019D01*
X59768977Y-87749114D01*
X59730881Y-87825304D01*
X59730881Y-87939590D01*
X59768977Y-88015780D01*
X59807072Y-88053876D01*
X59883262Y-88091971D01*
X60188024Y-88091971D01*
X59426120Y-88244352D02*
X59045167Y-88244352D01*
X59502310Y-88472923D02*
X59235643Y-87672923D01*
X58968977Y-88472923D01*
X58359453Y-87939590D02*
X58359453Y-88472923D01*
X58549929Y-87634828D02*
X58740405Y-88206257D01*
X58245167Y-88206257D01*
X60188024Y-90504923D02*
X60188024Y-89704923D01*
X59883262Y-89704923D01*
X59807072Y-89743019D01*
X59768977Y-89781114D01*
X59730881Y-89857304D01*
X59730881Y-89971590D01*
X59768977Y-90047780D01*
X59807072Y-90085876D01*
X59883262Y-90123971D01*
X60188024Y-90123971D01*
X59426120Y-90276352D02*
X59045167Y-90276352D01*
X59502310Y-90504923D02*
X59235643Y-89704923D01*
X58968977Y-90504923D01*
X58321358Y-89704923D02*
X58702310Y-89704923D01*
X58740405Y-90085876D01*
X58702310Y-90047780D01*
X58626120Y-90009685D01*
X58435643Y-90009685D01*
X58359453Y-90047780D01*
X58321358Y-90085876D01*
X58283262Y-90162066D01*
X58283262Y-90352542D01*
X58321358Y-90428733D01*
X58359453Y-90466828D01*
X58435643Y-90504923D01*
X58626120Y-90504923D01*
X58702310Y-90466828D01*
X58740405Y-90428733D01*
X60188024Y-92536923D02*
X60188024Y-91736923D01*
X59883262Y-91736923D01*
X59807072Y-91775019D01*
X59768977Y-91813114D01*
X59730881Y-91889304D01*
X59730881Y-92003590D01*
X59768977Y-92079780D01*
X59807072Y-92117876D01*
X59883262Y-92155971D01*
X60188024Y-92155971D01*
X59426120Y-92308352D02*
X59045167Y-92308352D01*
X59502310Y-92536923D02*
X59235643Y-91736923D01*
X58968977Y-92536923D01*
X58359453Y-91736923D02*
X58511834Y-91736923D01*
X58588024Y-91775019D01*
X58626120Y-91813114D01*
X58702310Y-91927399D01*
X58740405Y-92079780D01*
X58740405Y-92384542D01*
X58702310Y-92460733D01*
X58664215Y-92498828D01*
X58588024Y-92536923D01*
X58435643Y-92536923D01*
X58359453Y-92498828D01*
X58321358Y-92460733D01*
X58283262Y-92384542D01*
X58283262Y-92194066D01*
X58321358Y-92117876D01*
X58359453Y-92079780D01*
X58435643Y-92041685D01*
X58588024Y-92041685D01*
X58664215Y-92079780D01*
X58702310Y-92117876D01*
X58740405Y-92194066D01*
X65450072Y-93807019D02*
X65526262Y-93768923D01*
X65640548Y-93768923D01*
X65754834Y-93807019D01*
X65831024Y-93883209D01*
X65869120Y-93959399D01*
X65907215Y-94111780D01*
X65907215Y-94226066D01*
X65869120Y-94378447D01*
X65831024Y-94454638D01*
X65754834Y-94530828D01*
X65640548Y-94568923D01*
X65564358Y-94568923D01*
X65450072Y-94530828D01*
X65411977Y-94492733D01*
X65411977Y-94226066D01*
X65564358Y-94226066D01*
X65069120Y-94568923D02*
X65069120Y-93768923D01*
X64611977Y-94568923D01*
X64611977Y-93768923D01*
X64231024Y-94568923D02*
X64231024Y-93768923D01*
X64040548Y-93768923D01*
X63926262Y-93807019D01*
X63850072Y-93883209D01*
X63811977Y-93959399D01*
X63773881Y-94111780D01*
X63773881Y-94226066D01*
X63811977Y-94378447D01*
X63850072Y-94454638D01*
X63926262Y-94530828D01*
X64040548Y-94568923D01*
X64231024Y-94568923D01*
X65107096Y-91793638D02*
X65907096Y-91793638D01*
X65526143Y-91793638D02*
X65526143Y-91336495D01*
X65107096Y-91336495D02*
X65907096Y-91336495D01*
X65183286Y-90498399D02*
X65145191Y-90536495D01*
X65107096Y-90650780D01*
X65107096Y-90726971D01*
X65145191Y-90841257D01*
X65221381Y-90917447D01*
X65297572Y-90955542D01*
X65449953Y-90993638D01*
X65564239Y-90993638D01*
X65716620Y-90955542D01*
X65792810Y-90917447D01*
X65869001Y-90841257D01*
X65907096Y-90726971D01*
X65907096Y-90650780D01*
X65869001Y-90536495D01*
X65830905Y-90498399D01*
X65145191Y-90193638D02*
X65107096Y-90079352D01*
X65107096Y-89888876D01*
X65145191Y-89812685D01*
X65183286Y-89774590D01*
X65259477Y-89736495D01*
X65335667Y-89736495D01*
X65411858Y-89774590D01*
X65449953Y-89812685D01*
X65488048Y-89888876D01*
X65526143Y-90041257D01*
X65564239Y-90117447D01*
X65602334Y-90155542D01*
X65678524Y-90193638D01*
X65754715Y-90193638D01*
X65830905Y-90155542D01*
X65869001Y-90117447D01*
X65907096Y-90041257D01*
X65907096Y-89850780D01*
X65869001Y-89736495D01*
X65107096Y-88326971D02*
X65488048Y-88593638D01*
X65107096Y-88784114D02*
X65907096Y-88784114D01*
X65907096Y-88479352D01*
X65869001Y-88403161D01*
X65830905Y-88365066D01*
X65754715Y-88326971D01*
X65640429Y-88326971D01*
X65564239Y-88365066D01*
X65526143Y-88403161D01*
X65488048Y-88479352D01*
X65488048Y-88784114D01*
X65145191Y-87679352D02*
X65107096Y-87755542D01*
X65107096Y-87907923D01*
X65145191Y-87984114D01*
X65221381Y-88022209D01*
X65526143Y-88022209D01*
X65602334Y-87984114D01*
X65640429Y-87907923D01*
X65640429Y-87755542D01*
X65602334Y-87679352D01*
X65526143Y-87641257D01*
X65449953Y-87641257D01*
X65373762Y-88022209D01*
X65640429Y-87374590D02*
X65107096Y-87184114D01*
X65640429Y-86993638D01*
X65107096Y-85660304D02*
X65107096Y-86117447D01*
X65107096Y-85888876D02*
X65907096Y-85888876D01*
X65792810Y-85965066D01*
X65716620Y-86041257D01*
X65678524Y-86117447D01*
X63757096Y-91469828D02*
X64557096Y-91469828D01*
X63757096Y-91012685D01*
X64557096Y-91012685D01*
X63757096Y-90517447D02*
X63795191Y-90593638D01*
X63833286Y-90631733D01*
X63909477Y-90669828D01*
X64138048Y-90669828D01*
X64214239Y-90631733D01*
X64252334Y-90593638D01*
X64290429Y-90517447D01*
X64290429Y-90403161D01*
X64252334Y-90326971D01*
X64214239Y-90288876D01*
X64138048Y-90250780D01*
X63909477Y-90250780D01*
X63833286Y-90288876D01*
X63795191Y-90326971D01*
X63757096Y-90403161D01*
X63757096Y-90517447D01*
X64290429Y-89984114D02*
X63757096Y-89793638D01*
X64290429Y-89603161D01*
X64480905Y-88726971D02*
X64519001Y-88688876D01*
X64557096Y-88612685D01*
X64557096Y-88422209D01*
X64519001Y-88346019D01*
X64480905Y-88307923D01*
X64404715Y-88269828D01*
X64328524Y-88269828D01*
X64214239Y-88307923D01*
X63757096Y-88765066D01*
X63757096Y-88269828D01*
X64557096Y-87774590D02*
X64557096Y-87698399D01*
X64519001Y-87622209D01*
X64480905Y-87584114D01*
X64404715Y-87546019D01*
X64252334Y-87507923D01*
X64061858Y-87507923D01*
X63909477Y-87546019D01*
X63833286Y-87584114D01*
X63795191Y-87622209D01*
X63757096Y-87698399D01*
X63757096Y-87774590D01*
X63795191Y-87850780D01*
X63833286Y-87888876D01*
X63909477Y-87926971D01*
X64061858Y-87965066D01*
X64252334Y-87965066D01*
X64404715Y-87926971D01*
X64480905Y-87888876D01*
X64519001Y-87850780D01*
X64557096Y-87774590D01*
X64480905Y-87203161D02*
X64519001Y-87165066D01*
X64557096Y-87088876D01*
X64557096Y-86898399D01*
X64519001Y-86822209D01*
X64480905Y-86784114D01*
X64404715Y-86746019D01*
X64328524Y-86746019D01*
X64214239Y-86784114D01*
X63757096Y-87241257D01*
X63757096Y-86746019D01*
X63757096Y-85984114D02*
X63757096Y-86441257D01*
X63757096Y-86212685D02*
X64557096Y-86212685D01*
X64442810Y-86288876D01*
X64366620Y-86365066D01*
X64328524Y-86441257D01*
X129302337Y-67862914D02*
X129035670Y-68662914D01*
X128769004Y-67862914D01*
X128045194Y-68586724D02*
X128083289Y-68624819D01*
X128197575Y-68662914D01*
X128273766Y-68662914D01*
X128388051Y-68624819D01*
X128464242Y-68548629D01*
X128502337Y-68472438D01*
X128540432Y-68320057D01*
X128540432Y-68205771D01*
X128502337Y-68053390D01*
X128464242Y-67977200D01*
X128388051Y-67901010D01*
X128273766Y-67862914D01*
X128197575Y-67862914D01*
X128083289Y-67901010D01*
X128045194Y-67939105D01*
X127245194Y-68586724D02*
X127283289Y-68624819D01*
X127397575Y-68662914D01*
X127473766Y-68662914D01*
X127588051Y-68624819D01*
X127664242Y-68548629D01*
X127702337Y-68472438D01*
X127740432Y-68320057D01*
X127740432Y-68205771D01*
X127702337Y-68053390D01*
X127664242Y-67977200D01*
X127588051Y-67901010D01*
X127473766Y-67862914D01*
X127397575Y-67862914D01*
X127283289Y-67901010D01*
X127245194Y-67939105D01*
X129188051Y-70948914D02*
X129188051Y-70148914D01*
X128883289Y-70148914D01*
X128807099Y-70187010D01*
X128769004Y-70225105D01*
X128730908Y-70301295D01*
X128730908Y-70415581D01*
X128769004Y-70491771D01*
X128807099Y-70529867D01*
X128883289Y-70567962D01*
X129188051Y-70567962D01*
X128426147Y-70720343D02*
X128045194Y-70720343D01*
X128502337Y-70948914D02*
X128235670Y-70148914D01*
X127969004Y-70948914D01*
X127778528Y-70148914D02*
X127283289Y-70148914D01*
X127549956Y-70453676D01*
X127435670Y-70453676D01*
X127359480Y-70491771D01*
X127321385Y-70529867D01*
X127283289Y-70606057D01*
X127283289Y-70796533D01*
X127321385Y-70872724D01*
X127359480Y-70910819D01*
X127435670Y-70948914D01*
X127664242Y-70948914D01*
X127740432Y-70910819D01*
X127778528Y-70872724D01*
X129188051Y-72472914D02*
X129188051Y-71672914D01*
X128883289Y-71672914D01*
X128807099Y-71711010D01*
X128769004Y-71749105D01*
X128730908Y-71825295D01*
X128730908Y-71939581D01*
X128769004Y-72015771D01*
X128807099Y-72053867D01*
X128883289Y-72091962D01*
X129188051Y-72091962D01*
X128426147Y-72244343D02*
X128045194Y-72244343D01*
X128502337Y-72472914D02*
X128235670Y-71672914D01*
X127969004Y-72472914D01*
X127359480Y-71939581D02*
X127359480Y-72472914D01*
X127549956Y-71634819D02*
X127740432Y-72206248D01*
X127245194Y-72206248D01*
X129188051Y-74504914D02*
X129188051Y-73704914D01*
X128883289Y-73704914D01*
X128807099Y-73743010D01*
X128769004Y-73781105D01*
X128730908Y-73857295D01*
X128730908Y-73971581D01*
X128769004Y-74047771D01*
X128807099Y-74085867D01*
X128883289Y-74123962D01*
X129188051Y-74123962D01*
X128426147Y-74276343D02*
X128045194Y-74276343D01*
X128502337Y-74504914D02*
X128235670Y-73704914D01*
X127969004Y-74504914D01*
X127321385Y-73704914D02*
X127702337Y-73704914D01*
X127740432Y-74085867D01*
X127702337Y-74047771D01*
X127626147Y-74009676D01*
X127435670Y-74009676D01*
X127359480Y-74047771D01*
X127321385Y-74085867D01*
X127283289Y-74162057D01*
X127283289Y-74352533D01*
X127321385Y-74428724D01*
X127359480Y-74466819D01*
X127435670Y-74504914D01*
X127626147Y-74504914D01*
X127702337Y-74466819D01*
X127740432Y-74428724D01*
X129188051Y-76536914D02*
X129188051Y-75736914D01*
X128883289Y-75736914D01*
X128807099Y-75775010D01*
X128769004Y-75813105D01*
X128730908Y-75889295D01*
X128730908Y-76003581D01*
X128769004Y-76079771D01*
X128807099Y-76117867D01*
X128883289Y-76155962D01*
X129188051Y-76155962D01*
X128426147Y-76308343D02*
X128045194Y-76308343D01*
X128502337Y-76536914D02*
X128235670Y-75736914D01*
X127969004Y-76536914D01*
X127359480Y-75736914D02*
X127511861Y-75736914D01*
X127588051Y-75775010D01*
X127626147Y-75813105D01*
X127702337Y-75927390D01*
X127740432Y-76079771D01*
X127740432Y-76384533D01*
X127702337Y-76460724D01*
X127664242Y-76498819D01*
X127588051Y-76536914D01*
X127435670Y-76536914D01*
X127359480Y-76498819D01*
X127321385Y-76460724D01*
X127283289Y-76384533D01*
X127283289Y-76194057D01*
X127321385Y-76117867D01*
X127359480Y-76079771D01*
X127435670Y-76041676D01*
X127588051Y-76041676D01*
X127664242Y-76079771D01*
X127702337Y-76117867D01*
X127740432Y-76194057D01*
X134450099Y-77807010D02*
X134526289Y-77768914D01*
X134640575Y-77768914D01*
X134754861Y-77807010D01*
X134831051Y-77883200D01*
X134869147Y-77959390D01*
X134907242Y-78111771D01*
X134907242Y-78226057D01*
X134869147Y-78378438D01*
X134831051Y-78454629D01*
X134754861Y-78530819D01*
X134640575Y-78568914D01*
X134564385Y-78568914D01*
X134450099Y-78530819D01*
X134412004Y-78492724D01*
X134412004Y-78226057D01*
X134564385Y-78226057D01*
X134069147Y-78568914D02*
X134069147Y-77768914D01*
X133612004Y-78568914D01*
X133612004Y-77768914D01*
X133231051Y-78568914D02*
X133231051Y-77768914D01*
X133040575Y-77768914D01*
X132926289Y-77807010D01*
X132850099Y-77883200D01*
X132812004Y-77959390D01*
X132773908Y-78111771D01*
X132773908Y-78226057D01*
X132812004Y-78378438D01*
X132850099Y-78454629D01*
X132926289Y-78530819D01*
X133040575Y-78568914D01*
X133231051Y-78568914D01*
X134107123Y-75793629D02*
X134907123Y-75793629D01*
X134526170Y-75793629D02*
X134526170Y-75336486D01*
X134107123Y-75336486D02*
X134907123Y-75336486D01*
X134183313Y-74498390D02*
X134145218Y-74536486D01*
X134107123Y-74650771D01*
X134107123Y-74726962D01*
X134145218Y-74841248D01*
X134221408Y-74917438D01*
X134297599Y-74955533D01*
X134449980Y-74993629D01*
X134564266Y-74993629D01*
X134716647Y-74955533D01*
X134792837Y-74917438D01*
X134869028Y-74841248D01*
X134907123Y-74726962D01*
X134907123Y-74650771D01*
X134869028Y-74536486D01*
X134830932Y-74498390D01*
X134145218Y-74193629D02*
X134107123Y-74079343D01*
X134107123Y-73888867D01*
X134145218Y-73812676D01*
X134183313Y-73774581D01*
X134259504Y-73736486D01*
X134335694Y-73736486D01*
X134411885Y-73774581D01*
X134449980Y-73812676D01*
X134488075Y-73888867D01*
X134526170Y-74041248D01*
X134564266Y-74117438D01*
X134602361Y-74155533D01*
X134678551Y-74193629D01*
X134754742Y-74193629D01*
X134830932Y-74155533D01*
X134869028Y-74117438D01*
X134907123Y-74041248D01*
X134907123Y-73850771D01*
X134869028Y-73736486D01*
X134107123Y-72326962D02*
X134488075Y-72593629D01*
X134107123Y-72784105D02*
X134907123Y-72784105D01*
X134907123Y-72479343D01*
X134869028Y-72403152D01*
X134830932Y-72365057D01*
X134754742Y-72326962D01*
X134640456Y-72326962D01*
X134564266Y-72365057D01*
X134526170Y-72403152D01*
X134488075Y-72479343D01*
X134488075Y-72784105D01*
X134145218Y-71679343D02*
X134107123Y-71755533D01*
X134107123Y-71907914D01*
X134145218Y-71984105D01*
X134221408Y-72022200D01*
X134526170Y-72022200D01*
X134602361Y-71984105D01*
X134640456Y-71907914D01*
X134640456Y-71755533D01*
X134602361Y-71679343D01*
X134526170Y-71641248D01*
X134449980Y-71641248D01*
X134373789Y-72022200D01*
X134640456Y-71374581D02*
X134107123Y-71184105D01*
X134640456Y-70993629D01*
X134107123Y-69660295D02*
X134107123Y-70117438D01*
X134107123Y-69888867D02*
X134907123Y-69888867D01*
X134792837Y-69965057D01*
X134716647Y-70041248D01*
X134678551Y-70117438D01*
X132757123Y-75469819D02*
X133557123Y-75469819D01*
X132757123Y-75012676D01*
X133557123Y-75012676D01*
X132757123Y-74517438D02*
X132795218Y-74593629D01*
X132833313Y-74631724D01*
X132909504Y-74669819D01*
X133138075Y-74669819D01*
X133214266Y-74631724D01*
X133252361Y-74593629D01*
X133290456Y-74517438D01*
X133290456Y-74403152D01*
X133252361Y-74326962D01*
X133214266Y-74288867D01*
X133138075Y-74250771D01*
X132909504Y-74250771D01*
X132833313Y-74288867D01*
X132795218Y-74326962D01*
X132757123Y-74403152D01*
X132757123Y-74517438D01*
X133290456Y-73984105D02*
X132757123Y-73793629D01*
X133290456Y-73603152D01*
X133480932Y-72726962D02*
X133519028Y-72688867D01*
X133557123Y-72612676D01*
X133557123Y-72422200D01*
X133519028Y-72346010D01*
X133480932Y-72307914D01*
X133404742Y-72269819D01*
X133328551Y-72269819D01*
X133214266Y-72307914D01*
X132757123Y-72765057D01*
X132757123Y-72269819D01*
X133557123Y-71774581D02*
X133557123Y-71698390D01*
X133519028Y-71622200D01*
X133480932Y-71584105D01*
X133404742Y-71546010D01*
X133252361Y-71507914D01*
X133061885Y-71507914D01*
X132909504Y-71546010D01*
X132833313Y-71584105D01*
X132795218Y-71622200D01*
X132757123Y-71698390D01*
X132757123Y-71774581D01*
X132795218Y-71850771D01*
X132833313Y-71888867D01*
X132909504Y-71926962D01*
X133061885Y-71965057D01*
X133252361Y-71965057D01*
X133404742Y-71926962D01*
X133480932Y-71888867D01*
X133519028Y-71850771D01*
X133557123Y-71774581D01*
X133480932Y-71203152D02*
X133519028Y-71165057D01*
X133557123Y-71088867D01*
X133557123Y-70898390D01*
X133519028Y-70822200D01*
X133480932Y-70784105D01*
X133404742Y-70746010D01*
X133328551Y-70746010D01*
X133214266Y-70784105D01*
X132757123Y-71241248D01*
X132757123Y-70746010D01*
X132757123Y-69984105D02*
X132757123Y-70441248D01*
X132757123Y-70212676D02*
X133557123Y-70212676D01*
X133442837Y-70288867D01*
X133366647Y-70365057D01*
X133328551Y-70441248D01*
X106302328Y-67862914D02*
X106035661Y-68662914D01*
X105768995Y-67862914D01*
X105045185Y-68586724D02*
X105083280Y-68624819D01*
X105197566Y-68662914D01*
X105273757Y-68662914D01*
X105388042Y-68624819D01*
X105464233Y-68548629D01*
X105502328Y-68472438D01*
X105540423Y-68320057D01*
X105540423Y-68205771D01*
X105502328Y-68053390D01*
X105464233Y-67977200D01*
X105388042Y-67901010D01*
X105273757Y-67862914D01*
X105197566Y-67862914D01*
X105083280Y-67901010D01*
X105045185Y-67939105D01*
X104245185Y-68586724D02*
X104283280Y-68624819D01*
X104397566Y-68662914D01*
X104473757Y-68662914D01*
X104588042Y-68624819D01*
X104664233Y-68548629D01*
X104702328Y-68472438D01*
X104740423Y-68320057D01*
X104740423Y-68205771D01*
X104702328Y-68053390D01*
X104664233Y-67977200D01*
X104588042Y-67901010D01*
X104473757Y-67862914D01*
X104397566Y-67862914D01*
X104283280Y-67901010D01*
X104245185Y-67939105D01*
X106188042Y-70948914D02*
X106188042Y-70148914D01*
X105883280Y-70148914D01*
X105807090Y-70187010D01*
X105768995Y-70225105D01*
X105730899Y-70301295D01*
X105730899Y-70415581D01*
X105768995Y-70491771D01*
X105807090Y-70529867D01*
X105883280Y-70567962D01*
X106188042Y-70567962D01*
X105426138Y-70720343D02*
X105045185Y-70720343D01*
X105502328Y-70948914D02*
X105235661Y-70148914D01*
X104968995Y-70948914D01*
X104778519Y-70148914D02*
X104283280Y-70148914D01*
X104549947Y-70453676D01*
X104435661Y-70453676D01*
X104359471Y-70491771D01*
X104321376Y-70529867D01*
X104283280Y-70606057D01*
X104283280Y-70796533D01*
X104321376Y-70872724D01*
X104359471Y-70910819D01*
X104435661Y-70948914D01*
X104664233Y-70948914D01*
X104740423Y-70910819D01*
X104778519Y-70872724D01*
X106188042Y-72472914D02*
X106188042Y-71672914D01*
X105883280Y-71672914D01*
X105807090Y-71711010D01*
X105768995Y-71749105D01*
X105730899Y-71825295D01*
X105730899Y-71939581D01*
X105768995Y-72015771D01*
X105807090Y-72053867D01*
X105883280Y-72091962D01*
X106188042Y-72091962D01*
X105426138Y-72244343D02*
X105045185Y-72244343D01*
X105502328Y-72472914D02*
X105235661Y-71672914D01*
X104968995Y-72472914D01*
X104359471Y-71939581D02*
X104359471Y-72472914D01*
X104549947Y-71634819D02*
X104740423Y-72206248D01*
X104245185Y-72206248D01*
X106188042Y-74504914D02*
X106188042Y-73704914D01*
X105883280Y-73704914D01*
X105807090Y-73743010D01*
X105768995Y-73781105D01*
X105730899Y-73857295D01*
X105730899Y-73971581D01*
X105768995Y-74047771D01*
X105807090Y-74085867D01*
X105883280Y-74123962D01*
X106188042Y-74123962D01*
X105426138Y-74276343D02*
X105045185Y-74276343D01*
X105502328Y-74504914D02*
X105235661Y-73704914D01*
X104968995Y-74504914D01*
X104321376Y-73704914D02*
X104702328Y-73704914D01*
X104740423Y-74085867D01*
X104702328Y-74047771D01*
X104626138Y-74009676D01*
X104435661Y-74009676D01*
X104359471Y-74047771D01*
X104321376Y-74085867D01*
X104283280Y-74162057D01*
X104283280Y-74352533D01*
X104321376Y-74428724D01*
X104359471Y-74466819D01*
X104435661Y-74504914D01*
X104626138Y-74504914D01*
X104702328Y-74466819D01*
X104740423Y-74428724D01*
X106188042Y-76536914D02*
X106188042Y-75736914D01*
X105883280Y-75736914D01*
X105807090Y-75775010D01*
X105768995Y-75813105D01*
X105730899Y-75889295D01*
X105730899Y-76003581D01*
X105768995Y-76079771D01*
X105807090Y-76117867D01*
X105883280Y-76155962D01*
X106188042Y-76155962D01*
X105426138Y-76308343D02*
X105045185Y-76308343D01*
X105502328Y-76536914D02*
X105235661Y-75736914D01*
X104968995Y-76536914D01*
X104359471Y-75736914D02*
X104511852Y-75736914D01*
X104588042Y-75775010D01*
X104626138Y-75813105D01*
X104702328Y-75927390D01*
X104740423Y-76079771D01*
X104740423Y-76384533D01*
X104702328Y-76460724D01*
X104664233Y-76498819D01*
X104588042Y-76536914D01*
X104435661Y-76536914D01*
X104359471Y-76498819D01*
X104321376Y-76460724D01*
X104283280Y-76384533D01*
X104283280Y-76194057D01*
X104321376Y-76117867D01*
X104359471Y-76079771D01*
X104435661Y-76041676D01*
X104588042Y-76041676D01*
X104664233Y-76079771D01*
X104702328Y-76117867D01*
X104740423Y-76194057D01*
X111450090Y-77807010D02*
X111526280Y-77768914D01*
X111640566Y-77768914D01*
X111754852Y-77807010D01*
X111831042Y-77883200D01*
X111869138Y-77959390D01*
X111907233Y-78111771D01*
X111907233Y-78226057D01*
X111869138Y-78378438D01*
X111831042Y-78454629D01*
X111754852Y-78530819D01*
X111640566Y-78568914D01*
X111564376Y-78568914D01*
X111450090Y-78530819D01*
X111411995Y-78492724D01*
X111411995Y-78226057D01*
X111564376Y-78226057D01*
X111069138Y-78568914D02*
X111069138Y-77768914D01*
X110611995Y-78568914D01*
X110611995Y-77768914D01*
X110231042Y-78568914D02*
X110231042Y-77768914D01*
X110040566Y-77768914D01*
X109926280Y-77807010D01*
X109850090Y-77883200D01*
X109811995Y-77959390D01*
X109773899Y-78111771D01*
X109773899Y-78226057D01*
X109811995Y-78378438D01*
X109850090Y-78454629D01*
X109926280Y-78530819D01*
X110040566Y-78568914D01*
X110231042Y-78568914D01*
X111107114Y-75793629D02*
X111907114Y-75793629D01*
X111526161Y-75793629D02*
X111526161Y-75336486D01*
X111107114Y-75336486D02*
X111907114Y-75336486D01*
X111183304Y-74498390D02*
X111145209Y-74536486D01*
X111107114Y-74650771D01*
X111107114Y-74726962D01*
X111145209Y-74841248D01*
X111221399Y-74917438D01*
X111297590Y-74955533D01*
X111449971Y-74993629D01*
X111564257Y-74993629D01*
X111716638Y-74955533D01*
X111792828Y-74917438D01*
X111869019Y-74841248D01*
X111907114Y-74726962D01*
X111907114Y-74650771D01*
X111869019Y-74536486D01*
X111830923Y-74498390D01*
X111145209Y-74193629D02*
X111107114Y-74079343D01*
X111107114Y-73888867D01*
X111145209Y-73812676D01*
X111183304Y-73774581D01*
X111259495Y-73736486D01*
X111335685Y-73736486D01*
X111411876Y-73774581D01*
X111449971Y-73812676D01*
X111488066Y-73888867D01*
X111526161Y-74041248D01*
X111564257Y-74117438D01*
X111602352Y-74155533D01*
X111678542Y-74193629D01*
X111754733Y-74193629D01*
X111830923Y-74155533D01*
X111869019Y-74117438D01*
X111907114Y-74041248D01*
X111907114Y-73850771D01*
X111869019Y-73736486D01*
X111107114Y-72326962D02*
X111488066Y-72593629D01*
X111107114Y-72784105D02*
X111907114Y-72784105D01*
X111907114Y-72479343D01*
X111869019Y-72403152D01*
X111830923Y-72365057D01*
X111754733Y-72326962D01*
X111640447Y-72326962D01*
X111564257Y-72365057D01*
X111526161Y-72403152D01*
X111488066Y-72479343D01*
X111488066Y-72784105D01*
X111145209Y-71679343D02*
X111107114Y-71755533D01*
X111107114Y-71907914D01*
X111145209Y-71984105D01*
X111221399Y-72022200D01*
X111526161Y-72022200D01*
X111602352Y-71984105D01*
X111640447Y-71907914D01*
X111640447Y-71755533D01*
X111602352Y-71679343D01*
X111526161Y-71641248D01*
X111449971Y-71641248D01*
X111373780Y-72022200D01*
X111640447Y-71374581D02*
X111107114Y-71184105D01*
X111640447Y-70993629D01*
X111107114Y-69660295D02*
X111107114Y-70117438D01*
X111107114Y-69888867D02*
X111907114Y-69888867D01*
X111792828Y-69965057D01*
X111716638Y-70041248D01*
X111678542Y-70117438D01*
X109757114Y-75469819D02*
X110557114Y-75469819D01*
X109757114Y-75012676D01*
X110557114Y-75012676D01*
X109757114Y-74517438D02*
X109795209Y-74593629D01*
X109833304Y-74631724D01*
X109909495Y-74669819D01*
X110138066Y-74669819D01*
X110214257Y-74631724D01*
X110252352Y-74593629D01*
X110290447Y-74517438D01*
X110290447Y-74403152D01*
X110252352Y-74326962D01*
X110214257Y-74288867D01*
X110138066Y-74250771D01*
X109909495Y-74250771D01*
X109833304Y-74288867D01*
X109795209Y-74326962D01*
X109757114Y-74403152D01*
X109757114Y-74517438D01*
X110290447Y-73984105D02*
X109757114Y-73793629D01*
X110290447Y-73603152D01*
X110480923Y-72726962D02*
X110519019Y-72688867D01*
X110557114Y-72612676D01*
X110557114Y-72422200D01*
X110519019Y-72346010D01*
X110480923Y-72307914D01*
X110404733Y-72269819D01*
X110328542Y-72269819D01*
X110214257Y-72307914D01*
X109757114Y-72765057D01*
X109757114Y-72269819D01*
X110557114Y-71774581D02*
X110557114Y-71698390D01*
X110519019Y-71622200D01*
X110480923Y-71584105D01*
X110404733Y-71546010D01*
X110252352Y-71507914D01*
X110061876Y-71507914D01*
X109909495Y-71546010D01*
X109833304Y-71584105D01*
X109795209Y-71622200D01*
X109757114Y-71698390D01*
X109757114Y-71774581D01*
X109795209Y-71850771D01*
X109833304Y-71888867D01*
X109909495Y-71926962D01*
X110061876Y-71965057D01*
X110252352Y-71965057D01*
X110404733Y-71926962D01*
X110480923Y-71888867D01*
X110519019Y-71850771D01*
X110557114Y-71774581D01*
X110480923Y-71203152D02*
X110519019Y-71165057D01*
X110557114Y-71088867D01*
X110557114Y-70898390D01*
X110519019Y-70822200D01*
X110480923Y-70784105D01*
X110404733Y-70746010D01*
X110328542Y-70746010D01*
X110214257Y-70784105D01*
X109757114Y-71241248D01*
X109757114Y-70746010D01*
X109757114Y-69984105D02*
X109757114Y-70441248D01*
X109757114Y-70212676D02*
X110557114Y-70212676D01*
X110442828Y-70288867D01*
X110366638Y-70365057D01*
X110328542Y-70441248D01*
X83302319Y-67862914D02*
X83035652Y-68662914D01*
X82768986Y-67862914D01*
X82045176Y-68586724D02*
X82083271Y-68624819D01*
X82197557Y-68662914D01*
X82273748Y-68662914D01*
X82388033Y-68624819D01*
X82464224Y-68548629D01*
X82502319Y-68472438D01*
X82540414Y-68320057D01*
X82540414Y-68205771D01*
X82502319Y-68053390D01*
X82464224Y-67977200D01*
X82388033Y-67901010D01*
X82273748Y-67862914D01*
X82197557Y-67862914D01*
X82083271Y-67901010D01*
X82045176Y-67939105D01*
X81245176Y-68586724D02*
X81283271Y-68624819D01*
X81397557Y-68662914D01*
X81473748Y-68662914D01*
X81588033Y-68624819D01*
X81664224Y-68548629D01*
X81702319Y-68472438D01*
X81740414Y-68320057D01*
X81740414Y-68205771D01*
X81702319Y-68053390D01*
X81664224Y-67977200D01*
X81588033Y-67901010D01*
X81473748Y-67862914D01*
X81397557Y-67862914D01*
X81283271Y-67901010D01*
X81245176Y-67939105D01*
X83188033Y-70948914D02*
X83188033Y-70148914D01*
X82883271Y-70148914D01*
X82807081Y-70187010D01*
X82768986Y-70225105D01*
X82730890Y-70301295D01*
X82730890Y-70415581D01*
X82768986Y-70491771D01*
X82807081Y-70529867D01*
X82883271Y-70567962D01*
X83188033Y-70567962D01*
X82426129Y-70720343D02*
X82045176Y-70720343D01*
X82502319Y-70948914D02*
X82235652Y-70148914D01*
X81968986Y-70948914D01*
X81778510Y-70148914D02*
X81283271Y-70148914D01*
X81549938Y-70453676D01*
X81435652Y-70453676D01*
X81359462Y-70491771D01*
X81321367Y-70529867D01*
X81283271Y-70606057D01*
X81283271Y-70796533D01*
X81321367Y-70872724D01*
X81359462Y-70910819D01*
X81435652Y-70948914D01*
X81664224Y-70948914D01*
X81740414Y-70910819D01*
X81778510Y-70872724D01*
X83188033Y-72472914D02*
X83188033Y-71672914D01*
X82883271Y-71672914D01*
X82807081Y-71711010D01*
X82768986Y-71749105D01*
X82730890Y-71825295D01*
X82730890Y-71939581D01*
X82768986Y-72015771D01*
X82807081Y-72053867D01*
X82883271Y-72091962D01*
X83188033Y-72091962D01*
X82426129Y-72244343D02*
X82045176Y-72244343D01*
X82502319Y-72472914D02*
X82235652Y-71672914D01*
X81968986Y-72472914D01*
X81359462Y-71939581D02*
X81359462Y-72472914D01*
X81549938Y-71634819D02*
X81740414Y-72206248D01*
X81245176Y-72206248D01*
X83188033Y-74504914D02*
X83188033Y-73704914D01*
X82883271Y-73704914D01*
X82807081Y-73743010D01*
X82768986Y-73781105D01*
X82730890Y-73857295D01*
X82730890Y-73971581D01*
X82768986Y-74047771D01*
X82807081Y-74085867D01*
X82883271Y-74123962D01*
X83188033Y-74123962D01*
X82426129Y-74276343D02*
X82045176Y-74276343D01*
X82502319Y-74504914D02*
X82235652Y-73704914D01*
X81968986Y-74504914D01*
X81321367Y-73704914D02*
X81702319Y-73704914D01*
X81740414Y-74085867D01*
X81702319Y-74047771D01*
X81626129Y-74009676D01*
X81435652Y-74009676D01*
X81359462Y-74047771D01*
X81321367Y-74085867D01*
X81283271Y-74162057D01*
X81283271Y-74352533D01*
X81321367Y-74428724D01*
X81359462Y-74466819D01*
X81435652Y-74504914D01*
X81626129Y-74504914D01*
X81702319Y-74466819D01*
X81740414Y-74428724D01*
X83188033Y-76536914D02*
X83188033Y-75736914D01*
X82883271Y-75736914D01*
X82807081Y-75775010D01*
X82768986Y-75813105D01*
X82730890Y-75889295D01*
X82730890Y-76003581D01*
X82768986Y-76079771D01*
X82807081Y-76117867D01*
X82883271Y-76155962D01*
X83188033Y-76155962D01*
X82426129Y-76308343D02*
X82045176Y-76308343D01*
X82502319Y-76536914D02*
X82235652Y-75736914D01*
X81968986Y-76536914D01*
X81359462Y-75736914D02*
X81511843Y-75736914D01*
X81588033Y-75775010D01*
X81626129Y-75813105D01*
X81702319Y-75927390D01*
X81740414Y-76079771D01*
X81740414Y-76384533D01*
X81702319Y-76460724D01*
X81664224Y-76498819D01*
X81588033Y-76536914D01*
X81435652Y-76536914D01*
X81359462Y-76498819D01*
X81321367Y-76460724D01*
X81283271Y-76384533D01*
X81283271Y-76194057D01*
X81321367Y-76117867D01*
X81359462Y-76079771D01*
X81435652Y-76041676D01*
X81588033Y-76041676D01*
X81664224Y-76079771D01*
X81702319Y-76117867D01*
X81740414Y-76194057D01*
X88450081Y-77807010D02*
X88526271Y-77768914D01*
X88640557Y-77768914D01*
X88754843Y-77807010D01*
X88831033Y-77883200D01*
X88869129Y-77959390D01*
X88907224Y-78111771D01*
X88907224Y-78226057D01*
X88869129Y-78378438D01*
X88831033Y-78454629D01*
X88754843Y-78530819D01*
X88640557Y-78568914D01*
X88564367Y-78568914D01*
X88450081Y-78530819D01*
X88411986Y-78492724D01*
X88411986Y-78226057D01*
X88564367Y-78226057D01*
X88069129Y-78568914D02*
X88069129Y-77768914D01*
X87611986Y-78568914D01*
X87611986Y-77768914D01*
X87231033Y-78568914D02*
X87231033Y-77768914D01*
X87040557Y-77768914D01*
X86926271Y-77807010D01*
X86850081Y-77883200D01*
X86811986Y-77959390D01*
X86773890Y-78111771D01*
X86773890Y-78226057D01*
X86811986Y-78378438D01*
X86850081Y-78454629D01*
X86926271Y-78530819D01*
X87040557Y-78568914D01*
X87231033Y-78568914D01*
X88107105Y-75793629D02*
X88907105Y-75793629D01*
X88526152Y-75793629D02*
X88526152Y-75336486D01*
X88107105Y-75336486D02*
X88907105Y-75336486D01*
X88183295Y-74498390D02*
X88145200Y-74536486D01*
X88107105Y-74650771D01*
X88107105Y-74726962D01*
X88145200Y-74841248D01*
X88221390Y-74917438D01*
X88297581Y-74955533D01*
X88449962Y-74993629D01*
X88564248Y-74993629D01*
X88716629Y-74955533D01*
X88792819Y-74917438D01*
X88869010Y-74841248D01*
X88907105Y-74726962D01*
X88907105Y-74650771D01*
X88869010Y-74536486D01*
X88830914Y-74498390D01*
X88145200Y-74193629D02*
X88107105Y-74079343D01*
X88107105Y-73888867D01*
X88145200Y-73812676D01*
X88183295Y-73774581D01*
X88259486Y-73736486D01*
X88335676Y-73736486D01*
X88411867Y-73774581D01*
X88449962Y-73812676D01*
X88488057Y-73888867D01*
X88526152Y-74041248D01*
X88564248Y-74117438D01*
X88602343Y-74155533D01*
X88678533Y-74193629D01*
X88754724Y-74193629D01*
X88830914Y-74155533D01*
X88869010Y-74117438D01*
X88907105Y-74041248D01*
X88907105Y-73850771D01*
X88869010Y-73736486D01*
X88107105Y-72326962D02*
X88488057Y-72593629D01*
X88107105Y-72784105D02*
X88907105Y-72784105D01*
X88907105Y-72479343D01*
X88869010Y-72403152D01*
X88830914Y-72365057D01*
X88754724Y-72326962D01*
X88640438Y-72326962D01*
X88564248Y-72365057D01*
X88526152Y-72403152D01*
X88488057Y-72479343D01*
X88488057Y-72784105D01*
X88145200Y-71679343D02*
X88107105Y-71755533D01*
X88107105Y-71907914D01*
X88145200Y-71984105D01*
X88221390Y-72022200D01*
X88526152Y-72022200D01*
X88602343Y-71984105D01*
X88640438Y-71907914D01*
X88640438Y-71755533D01*
X88602343Y-71679343D01*
X88526152Y-71641248D01*
X88449962Y-71641248D01*
X88373771Y-72022200D01*
X88640438Y-71374581D02*
X88107105Y-71184105D01*
X88640438Y-70993629D01*
X88107105Y-69660295D02*
X88107105Y-70117438D01*
X88107105Y-69888867D02*
X88907105Y-69888867D01*
X88792819Y-69965057D01*
X88716629Y-70041248D01*
X88678533Y-70117438D01*
X86757105Y-75469819D02*
X87557105Y-75469819D01*
X86757105Y-75012676D01*
X87557105Y-75012676D01*
X86757105Y-74517438D02*
X86795200Y-74593629D01*
X86833295Y-74631724D01*
X86909486Y-74669819D01*
X87138057Y-74669819D01*
X87214248Y-74631724D01*
X87252343Y-74593629D01*
X87290438Y-74517438D01*
X87290438Y-74403152D01*
X87252343Y-74326962D01*
X87214248Y-74288867D01*
X87138057Y-74250771D01*
X86909486Y-74250771D01*
X86833295Y-74288867D01*
X86795200Y-74326962D01*
X86757105Y-74403152D01*
X86757105Y-74517438D01*
X87290438Y-73984105D02*
X86757105Y-73793629D01*
X87290438Y-73603152D01*
X87480914Y-72726962D02*
X87519010Y-72688867D01*
X87557105Y-72612676D01*
X87557105Y-72422200D01*
X87519010Y-72346010D01*
X87480914Y-72307914D01*
X87404724Y-72269819D01*
X87328533Y-72269819D01*
X87214248Y-72307914D01*
X86757105Y-72765057D01*
X86757105Y-72269819D01*
X87557105Y-71774581D02*
X87557105Y-71698390D01*
X87519010Y-71622200D01*
X87480914Y-71584105D01*
X87404724Y-71546010D01*
X87252343Y-71507914D01*
X87061867Y-71507914D01*
X86909486Y-71546010D01*
X86833295Y-71584105D01*
X86795200Y-71622200D01*
X86757105Y-71698390D01*
X86757105Y-71774581D01*
X86795200Y-71850771D01*
X86833295Y-71888867D01*
X86909486Y-71926962D01*
X87061867Y-71965057D01*
X87252343Y-71965057D01*
X87404724Y-71926962D01*
X87480914Y-71888867D01*
X87519010Y-71850771D01*
X87557105Y-71774581D01*
X87480914Y-71203152D02*
X87519010Y-71165057D01*
X87557105Y-71088867D01*
X87557105Y-70898390D01*
X87519010Y-70822200D01*
X87480914Y-70784105D01*
X87404724Y-70746010D01*
X87328533Y-70746010D01*
X87214248Y-70784105D01*
X86757105Y-71241248D01*
X86757105Y-70746010D01*
X86757105Y-69984105D02*
X86757105Y-70441248D01*
X86757105Y-70212676D02*
X87557105Y-70212676D01*
X87442819Y-70288867D01*
X87366629Y-70365057D01*
X87328533Y-70441248D01*
X60302310Y-67862914D02*
X60035643Y-68662914D01*
X59768977Y-67862914D01*
X59045167Y-68586724D02*
X59083262Y-68624819D01*
X59197548Y-68662914D01*
X59273739Y-68662914D01*
X59388024Y-68624819D01*
X59464215Y-68548629D01*
X59502310Y-68472438D01*
X59540405Y-68320057D01*
X59540405Y-68205771D01*
X59502310Y-68053390D01*
X59464215Y-67977200D01*
X59388024Y-67901010D01*
X59273739Y-67862914D01*
X59197548Y-67862914D01*
X59083262Y-67901010D01*
X59045167Y-67939105D01*
X58245167Y-68586724D02*
X58283262Y-68624819D01*
X58397548Y-68662914D01*
X58473739Y-68662914D01*
X58588024Y-68624819D01*
X58664215Y-68548629D01*
X58702310Y-68472438D01*
X58740405Y-68320057D01*
X58740405Y-68205771D01*
X58702310Y-68053390D01*
X58664215Y-67977200D01*
X58588024Y-67901010D01*
X58473739Y-67862914D01*
X58397548Y-67862914D01*
X58283262Y-67901010D01*
X58245167Y-67939105D01*
X60188024Y-70948914D02*
X60188024Y-70148914D01*
X59883262Y-70148914D01*
X59807072Y-70187010D01*
X59768977Y-70225105D01*
X59730881Y-70301295D01*
X59730881Y-70415581D01*
X59768977Y-70491771D01*
X59807072Y-70529867D01*
X59883262Y-70567962D01*
X60188024Y-70567962D01*
X59426120Y-70720343D02*
X59045167Y-70720343D01*
X59502310Y-70948914D02*
X59235643Y-70148914D01*
X58968977Y-70948914D01*
X58778501Y-70148914D02*
X58283262Y-70148914D01*
X58549929Y-70453676D01*
X58435643Y-70453676D01*
X58359453Y-70491771D01*
X58321358Y-70529867D01*
X58283262Y-70606057D01*
X58283262Y-70796533D01*
X58321358Y-70872724D01*
X58359453Y-70910819D01*
X58435643Y-70948914D01*
X58664215Y-70948914D01*
X58740405Y-70910819D01*
X58778501Y-70872724D01*
X60188024Y-72472914D02*
X60188024Y-71672914D01*
X59883262Y-71672914D01*
X59807072Y-71711010D01*
X59768977Y-71749105D01*
X59730881Y-71825295D01*
X59730881Y-71939581D01*
X59768977Y-72015771D01*
X59807072Y-72053867D01*
X59883262Y-72091962D01*
X60188024Y-72091962D01*
X59426120Y-72244343D02*
X59045167Y-72244343D01*
X59502310Y-72472914D02*
X59235643Y-71672914D01*
X58968977Y-72472914D01*
X58359453Y-71939581D02*
X58359453Y-72472914D01*
X58549929Y-71634819D02*
X58740405Y-72206248D01*
X58245167Y-72206248D01*
X60188024Y-74504914D02*
X60188024Y-73704914D01*
X59883262Y-73704914D01*
X59807072Y-73743010D01*
X59768977Y-73781105D01*
X59730881Y-73857295D01*
X59730881Y-73971581D01*
X59768977Y-74047771D01*
X59807072Y-74085867D01*
X59883262Y-74123962D01*
X60188024Y-74123962D01*
X59426120Y-74276343D02*
X59045167Y-74276343D01*
X59502310Y-74504914D02*
X59235643Y-73704914D01*
X58968977Y-74504914D01*
X58321358Y-73704914D02*
X58702310Y-73704914D01*
X58740405Y-74085867D01*
X58702310Y-74047771D01*
X58626120Y-74009676D01*
X58435643Y-74009676D01*
X58359453Y-74047771D01*
X58321358Y-74085867D01*
X58283262Y-74162057D01*
X58283262Y-74352533D01*
X58321358Y-74428724D01*
X58359453Y-74466819D01*
X58435643Y-74504914D01*
X58626120Y-74504914D01*
X58702310Y-74466819D01*
X58740405Y-74428724D01*
X60188024Y-76536914D02*
X60188024Y-75736914D01*
X59883262Y-75736914D01*
X59807072Y-75775010D01*
X59768977Y-75813105D01*
X59730881Y-75889295D01*
X59730881Y-76003581D01*
X59768977Y-76079771D01*
X59807072Y-76117867D01*
X59883262Y-76155962D01*
X60188024Y-76155962D01*
X59426120Y-76308343D02*
X59045167Y-76308343D01*
X59502310Y-76536914D02*
X59235643Y-75736914D01*
X58968977Y-76536914D01*
X58359453Y-75736914D02*
X58511834Y-75736914D01*
X58588024Y-75775010D01*
X58626120Y-75813105D01*
X58702310Y-75927390D01*
X58740405Y-76079771D01*
X58740405Y-76384533D01*
X58702310Y-76460724D01*
X58664215Y-76498819D01*
X58588024Y-76536914D01*
X58435643Y-76536914D01*
X58359453Y-76498819D01*
X58321358Y-76460724D01*
X58283262Y-76384533D01*
X58283262Y-76194057D01*
X58321358Y-76117867D01*
X58359453Y-76079771D01*
X58435643Y-76041676D01*
X58588024Y-76041676D01*
X58664215Y-76079771D01*
X58702310Y-76117867D01*
X58740405Y-76194057D01*
X65450072Y-77807010D02*
X65526262Y-77768914D01*
X65640548Y-77768914D01*
X65754834Y-77807010D01*
X65831024Y-77883200D01*
X65869120Y-77959390D01*
X65907215Y-78111771D01*
X65907215Y-78226057D01*
X65869120Y-78378438D01*
X65831024Y-78454629D01*
X65754834Y-78530819D01*
X65640548Y-78568914D01*
X65564358Y-78568914D01*
X65450072Y-78530819D01*
X65411977Y-78492724D01*
X65411977Y-78226057D01*
X65564358Y-78226057D01*
X65069120Y-78568914D02*
X65069120Y-77768914D01*
X64611977Y-78568914D01*
X64611977Y-77768914D01*
X64231024Y-78568914D02*
X64231024Y-77768914D01*
X64040548Y-77768914D01*
X63926262Y-77807010D01*
X63850072Y-77883200D01*
X63811977Y-77959390D01*
X63773881Y-78111771D01*
X63773881Y-78226057D01*
X63811977Y-78378438D01*
X63850072Y-78454629D01*
X63926262Y-78530819D01*
X64040548Y-78568914D01*
X64231024Y-78568914D01*
X65107096Y-75793629D02*
X65907096Y-75793629D01*
X65526143Y-75793629D02*
X65526143Y-75336486D01*
X65107096Y-75336486D02*
X65907096Y-75336486D01*
X65183286Y-74498390D02*
X65145191Y-74536486D01*
X65107096Y-74650771D01*
X65107096Y-74726962D01*
X65145191Y-74841248D01*
X65221381Y-74917438D01*
X65297572Y-74955533D01*
X65449953Y-74993629D01*
X65564239Y-74993629D01*
X65716620Y-74955533D01*
X65792810Y-74917438D01*
X65869001Y-74841248D01*
X65907096Y-74726962D01*
X65907096Y-74650771D01*
X65869001Y-74536486D01*
X65830905Y-74498390D01*
X65145191Y-74193629D02*
X65107096Y-74079343D01*
X65107096Y-73888867D01*
X65145191Y-73812676D01*
X65183286Y-73774581D01*
X65259477Y-73736486D01*
X65335667Y-73736486D01*
X65411858Y-73774581D01*
X65449953Y-73812676D01*
X65488048Y-73888867D01*
X65526143Y-74041248D01*
X65564239Y-74117438D01*
X65602334Y-74155533D01*
X65678524Y-74193629D01*
X65754715Y-74193629D01*
X65830905Y-74155533D01*
X65869001Y-74117438D01*
X65907096Y-74041248D01*
X65907096Y-73850771D01*
X65869001Y-73736486D01*
X65107096Y-72326962D02*
X65488048Y-72593629D01*
X65107096Y-72784105D02*
X65907096Y-72784105D01*
X65907096Y-72479343D01*
X65869001Y-72403152D01*
X65830905Y-72365057D01*
X65754715Y-72326962D01*
X65640429Y-72326962D01*
X65564239Y-72365057D01*
X65526143Y-72403152D01*
X65488048Y-72479343D01*
X65488048Y-72784105D01*
X65145191Y-71679343D02*
X65107096Y-71755533D01*
X65107096Y-71907914D01*
X65145191Y-71984105D01*
X65221381Y-72022200D01*
X65526143Y-72022200D01*
X65602334Y-71984105D01*
X65640429Y-71907914D01*
X65640429Y-71755533D01*
X65602334Y-71679343D01*
X65526143Y-71641248D01*
X65449953Y-71641248D01*
X65373762Y-72022200D01*
X65640429Y-71374581D02*
X65107096Y-71184105D01*
X65640429Y-70993629D01*
X65107096Y-69660295D02*
X65107096Y-70117438D01*
X65107096Y-69888867D02*
X65907096Y-69888867D01*
X65792810Y-69965057D01*
X65716620Y-70041248D01*
X65678524Y-70117438D01*
X63757096Y-75469819D02*
X64557096Y-75469819D01*
X63757096Y-75012676D01*
X64557096Y-75012676D01*
X63757096Y-74517438D02*
X63795191Y-74593629D01*
X63833286Y-74631724D01*
X63909477Y-74669819D01*
X64138048Y-74669819D01*
X64214239Y-74631724D01*
X64252334Y-74593629D01*
X64290429Y-74517438D01*
X64290429Y-74403152D01*
X64252334Y-74326962D01*
X64214239Y-74288867D01*
X64138048Y-74250771D01*
X63909477Y-74250771D01*
X63833286Y-74288867D01*
X63795191Y-74326962D01*
X63757096Y-74403152D01*
X63757096Y-74517438D01*
X64290429Y-73984105D02*
X63757096Y-73793629D01*
X64290429Y-73603152D01*
X64480905Y-72726962D02*
X64519001Y-72688867D01*
X64557096Y-72612676D01*
X64557096Y-72422200D01*
X64519001Y-72346010D01*
X64480905Y-72307914D01*
X64404715Y-72269819D01*
X64328524Y-72269819D01*
X64214239Y-72307914D01*
X63757096Y-72765057D01*
X63757096Y-72269819D01*
X64557096Y-71774581D02*
X64557096Y-71698390D01*
X64519001Y-71622200D01*
X64480905Y-71584105D01*
X64404715Y-71546010D01*
X64252334Y-71507914D01*
X64061858Y-71507914D01*
X63909477Y-71546010D01*
X63833286Y-71584105D01*
X63795191Y-71622200D01*
X63757096Y-71698390D01*
X63757096Y-71774581D01*
X63795191Y-71850771D01*
X63833286Y-71888867D01*
X63909477Y-71926962D01*
X64061858Y-71965057D01*
X64252334Y-71965057D01*
X64404715Y-71926962D01*
X64480905Y-71888867D01*
X64519001Y-71850771D01*
X64557096Y-71774581D01*
X64480905Y-71203152D02*
X64519001Y-71165057D01*
X64557096Y-71088867D01*
X64557096Y-70898390D01*
X64519001Y-70822200D01*
X64480905Y-70784105D01*
X64404715Y-70746010D01*
X64328524Y-70746010D01*
X64214239Y-70784105D01*
X63757096Y-71241248D01*
X63757096Y-70746010D01*
X63757096Y-69984105D02*
X63757096Y-70441248D01*
X63757096Y-70212676D02*
X64557096Y-70212676D01*
X64442810Y-70288867D01*
X64366620Y-70365057D01*
X64328524Y-70441248D01*
X129302337Y-51862905D02*
X129035670Y-52662905D01*
X128769004Y-51862905D01*
X128045194Y-52586715D02*
X128083289Y-52624810D01*
X128197575Y-52662905D01*
X128273766Y-52662905D01*
X128388051Y-52624810D01*
X128464242Y-52548620D01*
X128502337Y-52472429D01*
X128540432Y-52320048D01*
X128540432Y-52205762D01*
X128502337Y-52053381D01*
X128464242Y-51977191D01*
X128388051Y-51901001D01*
X128273766Y-51862905D01*
X128197575Y-51862905D01*
X128083289Y-51901001D01*
X128045194Y-51939096D01*
X127245194Y-52586715D02*
X127283289Y-52624810D01*
X127397575Y-52662905D01*
X127473766Y-52662905D01*
X127588051Y-52624810D01*
X127664242Y-52548620D01*
X127702337Y-52472429D01*
X127740432Y-52320048D01*
X127740432Y-52205762D01*
X127702337Y-52053381D01*
X127664242Y-51977191D01*
X127588051Y-51901001D01*
X127473766Y-51862905D01*
X127397575Y-51862905D01*
X127283289Y-51901001D01*
X127245194Y-51939096D01*
X129188051Y-54948905D02*
X129188051Y-54148905D01*
X128883289Y-54148905D01*
X128807099Y-54187001D01*
X128769004Y-54225096D01*
X128730908Y-54301286D01*
X128730908Y-54415572D01*
X128769004Y-54491762D01*
X128807099Y-54529858D01*
X128883289Y-54567953D01*
X129188051Y-54567953D01*
X128426147Y-54720334D02*
X128045194Y-54720334D01*
X128502337Y-54948905D02*
X128235670Y-54148905D01*
X127969004Y-54948905D01*
X127778528Y-54148905D02*
X127283289Y-54148905D01*
X127549956Y-54453667D01*
X127435670Y-54453667D01*
X127359480Y-54491762D01*
X127321385Y-54529858D01*
X127283289Y-54606048D01*
X127283289Y-54796524D01*
X127321385Y-54872715D01*
X127359480Y-54910810D01*
X127435670Y-54948905D01*
X127664242Y-54948905D01*
X127740432Y-54910810D01*
X127778528Y-54872715D01*
X129188051Y-56472905D02*
X129188051Y-55672905D01*
X128883289Y-55672905D01*
X128807099Y-55711001D01*
X128769004Y-55749096D01*
X128730908Y-55825286D01*
X128730908Y-55939572D01*
X128769004Y-56015762D01*
X128807099Y-56053858D01*
X128883289Y-56091953D01*
X129188051Y-56091953D01*
X128426147Y-56244334D02*
X128045194Y-56244334D01*
X128502337Y-56472905D02*
X128235670Y-55672905D01*
X127969004Y-56472905D01*
X127359480Y-55939572D02*
X127359480Y-56472905D01*
X127549956Y-55634810D02*
X127740432Y-56206239D01*
X127245194Y-56206239D01*
X129188051Y-58504905D02*
X129188051Y-57704905D01*
X128883289Y-57704905D01*
X128807099Y-57743001D01*
X128769004Y-57781096D01*
X128730908Y-57857286D01*
X128730908Y-57971572D01*
X128769004Y-58047762D01*
X128807099Y-58085858D01*
X128883289Y-58123953D01*
X129188051Y-58123953D01*
X128426147Y-58276334D02*
X128045194Y-58276334D01*
X128502337Y-58504905D02*
X128235670Y-57704905D01*
X127969004Y-58504905D01*
X127321385Y-57704905D02*
X127702337Y-57704905D01*
X127740432Y-58085858D01*
X127702337Y-58047762D01*
X127626147Y-58009667D01*
X127435670Y-58009667D01*
X127359480Y-58047762D01*
X127321385Y-58085858D01*
X127283289Y-58162048D01*
X127283289Y-58352524D01*
X127321385Y-58428715D01*
X127359480Y-58466810D01*
X127435670Y-58504905D01*
X127626147Y-58504905D01*
X127702337Y-58466810D01*
X127740432Y-58428715D01*
X129188051Y-60536905D02*
X129188051Y-59736905D01*
X128883289Y-59736905D01*
X128807099Y-59775001D01*
X128769004Y-59813096D01*
X128730908Y-59889286D01*
X128730908Y-60003572D01*
X128769004Y-60079762D01*
X128807099Y-60117858D01*
X128883289Y-60155953D01*
X129188051Y-60155953D01*
X128426147Y-60308334D02*
X128045194Y-60308334D01*
X128502337Y-60536905D02*
X128235670Y-59736905D01*
X127969004Y-60536905D01*
X127359480Y-59736905D02*
X127511861Y-59736905D01*
X127588051Y-59775001D01*
X127626147Y-59813096D01*
X127702337Y-59927381D01*
X127740432Y-60079762D01*
X127740432Y-60384524D01*
X127702337Y-60460715D01*
X127664242Y-60498810D01*
X127588051Y-60536905D01*
X127435670Y-60536905D01*
X127359480Y-60498810D01*
X127321385Y-60460715D01*
X127283289Y-60384524D01*
X127283289Y-60194048D01*
X127321385Y-60117858D01*
X127359480Y-60079762D01*
X127435670Y-60041667D01*
X127588051Y-60041667D01*
X127664242Y-60079762D01*
X127702337Y-60117858D01*
X127740432Y-60194048D01*
X134450099Y-61807001D02*
X134526289Y-61768905D01*
X134640575Y-61768905D01*
X134754861Y-61807001D01*
X134831051Y-61883191D01*
X134869147Y-61959381D01*
X134907242Y-62111762D01*
X134907242Y-62226048D01*
X134869147Y-62378429D01*
X134831051Y-62454620D01*
X134754861Y-62530810D01*
X134640575Y-62568905D01*
X134564385Y-62568905D01*
X134450099Y-62530810D01*
X134412004Y-62492715D01*
X134412004Y-62226048D01*
X134564385Y-62226048D01*
X134069147Y-62568905D02*
X134069147Y-61768905D01*
X133612004Y-62568905D01*
X133612004Y-61768905D01*
X133231051Y-62568905D02*
X133231051Y-61768905D01*
X133040575Y-61768905D01*
X132926289Y-61807001D01*
X132850099Y-61883191D01*
X132812004Y-61959381D01*
X132773908Y-62111762D01*
X132773908Y-62226048D01*
X132812004Y-62378429D01*
X132850099Y-62454620D01*
X132926289Y-62530810D01*
X133040575Y-62568905D01*
X133231051Y-62568905D01*
X134107123Y-59793620D02*
X134907123Y-59793620D01*
X134526170Y-59793620D02*
X134526170Y-59336477D01*
X134107123Y-59336477D02*
X134907123Y-59336477D01*
X134183313Y-58498381D02*
X134145218Y-58536477D01*
X134107123Y-58650762D01*
X134107123Y-58726953D01*
X134145218Y-58841239D01*
X134221408Y-58917429D01*
X134297599Y-58955524D01*
X134449980Y-58993620D01*
X134564266Y-58993620D01*
X134716647Y-58955524D01*
X134792837Y-58917429D01*
X134869028Y-58841239D01*
X134907123Y-58726953D01*
X134907123Y-58650762D01*
X134869028Y-58536477D01*
X134830932Y-58498381D01*
X134145218Y-58193620D02*
X134107123Y-58079334D01*
X134107123Y-57888858D01*
X134145218Y-57812667D01*
X134183313Y-57774572D01*
X134259504Y-57736477D01*
X134335694Y-57736477D01*
X134411885Y-57774572D01*
X134449980Y-57812667D01*
X134488075Y-57888858D01*
X134526170Y-58041239D01*
X134564266Y-58117429D01*
X134602361Y-58155524D01*
X134678551Y-58193620D01*
X134754742Y-58193620D01*
X134830932Y-58155524D01*
X134869028Y-58117429D01*
X134907123Y-58041239D01*
X134907123Y-57850762D01*
X134869028Y-57736477D01*
X134107123Y-56326953D02*
X134488075Y-56593620D01*
X134107123Y-56784096D02*
X134907123Y-56784096D01*
X134907123Y-56479334D01*
X134869028Y-56403143D01*
X134830932Y-56365048D01*
X134754742Y-56326953D01*
X134640456Y-56326953D01*
X134564266Y-56365048D01*
X134526170Y-56403143D01*
X134488075Y-56479334D01*
X134488075Y-56784096D01*
X134145218Y-55679334D02*
X134107123Y-55755524D01*
X134107123Y-55907905D01*
X134145218Y-55984096D01*
X134221408Y-56022191D01*
X134526170Y-56022191D01*
X134602361Y-55984096D01*
X134640456Y-55907905D01*
X134640456Y-55755524D01*
X134602361Y-55679334D01*
X134526170Y-55641239D01*
X134449980Y-55641239D01*
X134373789Y-56022191D01*
X134640456Y-55374572D02*
X134107123Y-55184096D01*
X134640456Y-54993620D01*
X134107123Y-53660286D02*
X134107123Y-54117429D01*
X134107123Y-53888858D02*
X134907123Y-53888858D01*
X134792837Y-53965048D01*
X134716647Y-54041239D01*
X134678551Y-54117429D01*
X132757123Y-59469810D02*
X133557123Y-59469810D01*
X132757123Y-59012667D01*
X133557123Y-59012667D01*
X132757123Y-58517429D02*
X132795218Y-58593620D01*
X132833313Y-58631715D01*
X132909504Y-58669810D01*
X133138075Y-58669810D01*
X133214266Y-58631715D01*
X133252361Y-58593620D01*
X133290456Y-58517429D01*
X133290456Y-58403143D01*
X133252361Y-58326953D01*
X133214266Y-58288858D01*
X133138075Y-58250762D01*
X132909504Y-58250762D01*
X132833313Y-58288858D01*
X132795218Y-58326953D01*
X132757123Y-58403143D01*
X132757123Y-58517429D01*
X133290456Y-57984096D02*
X132757123Y-57793620D01*
X133290456Y-57603143D01*
X133480932Y-56726953D02*
X133519028Y-56688858D01*
X133557123Y-56612667D01*
X133557123Y-56422191D01*
X133519028Y-56346001D01*
X133480932Y-56307905D01*
X133404742Y-56269810D01*
X133328551Y-56269810D01*
X133214266Y-56307905D01*
X132757123Y-56765048D01*
X132757123Y-56269810D01*
X133557123Y-55774572D02*
X133557123Y-55698381D01*
X133519028Y-55622191D01*
X133480932Y-55584096D01*
X133404742Y-55546001D01*
X133252361Y-55507905D01*
X133061885Y-55507905D01*
X132909504Y-55546001D01*
X132833313Y-55584096D01*
X132795218Y-55622191D01*
X132757123Y-55698381D01*
X132757123Y-55774572D01*
X132795218Y-55850762D01*
X132833313Y-55888858D01*
X132909504Y-55926953D01*
X133061885Y-55965048D01*
X133252361Y-55965048D01*
X133404742Y-55926953D01*
X133480932Y-55888858D01*
X133519028Y-55850762D01*
X133557123Y-55774572D01*
X133480932Y-55203143D02*
X133519028Y-55165048D01*
X133557123Y-55088858D01*
X133557123Y-54898381D01*
X133519028Y-54822191D01*
X133480932Y-54784096D01*
X133404742Y-54746001D01*
X133328551Y-54746001D01*
X133214266Y-54784096D01*
X132757123Y-55241239D01*
X132757123Y-54746001D01*
X132757123Y-53984096D02*
X132757123Y-54441239D01*
X132757123Y-54212667D02*
X133557123Y-54212667D01*
X133442837Y-54288858D01*
X133366647Y-54365048D01*
X133328551Y-54441239D01*
X106302328Y-51862905D02*
X106035661Y-52662905D01*
X105768995Y-51862905D01*
X105045185Y-52586715D02*
X105083280Y-52624810D01*
X105197566Y-52662905D01*
X105273757Y-52662905D01*
X105388042Y-52624810D01*
X105464233Y-52548620D01*
X105502328Y-52472429D01*
X105540423Y-52320048D01*
X105540423Y-52205762D01*
X105502328Y-52053381D01*
X105464233Y-51977191D01*
X105388042Y-51901001D01*
X105273757Y-51862905D01*
X105197566Y-51862905D01*
X105083280Y-51901001D01*
X105045185Y-51939096D01*
X104245185Y-52586715D02*
X104283280Y-52624810D01*
X104397566Y-52662905D01*
X104473757Y-52662905D01*
X104588042Y-52624810D01*
X104664233Y-52548620D01*
X104702328Y-52472429D01*
X104740423Y-52320048D01*
X104740423Y-52205762D01*
X104702328Y-52053381D01*
X104664233Y-51977191D01*
X104588042Y-51901001D01*
X104473757Y-51862905D01*
X104397566Y-51862905D01*
X104283280Y-51901001D01*
X104245185Y-51939096D01*
X106188042Y-54948905D02*
X106188042Y-54148905D01*
X105883280Y-54148905D01*
X105807090Y-54187001D01*
X105768995Y-54225096D01*
X105730899Y-54301286D01*
X105730899Y-54415572D01*
X105768995Y-54491762D01*
X105807090Y-54529858D01*
X105883280Y-54567953D01*
X106188042Y-54567953D01*
X105426138Y-54720334D02*
X105045185Y-54720334D01*
X105502328Y-54948905D02*
X105235661Y-54148905D01*
X104968995Y-54948905D01*
X104778519Y-54148905D02*
X104283280Y-54148905D01*
X104549947Y-54453667D01*
X104435661Y-54453667D01*
X104359471Y-54491762D01*
X104321376Y-54529858D01*
X104283280Y-54606048D01*
X104283280Y-54796524D01*
X104321376Y-54872715D01*
X104359471Y-54910810D01*
X104435661Y-54948905D01*
X104664233Y-54948905D01*
X104740423Y-54910810D01*
X104778519Y-54872715D01*
X106188042Y-56472905D02*
X106188042Y-55672905D01*
X105883280Y-55672905D01*
X105807090Y-55711001D01*
X105768995Y-55749096D01*
X105730899Y-55825286D01*
X105730899Y-55939572D01*
X105768995Y-56015762D01*
X105807090Y-56053858D01*
X105883280Y-56091953D01*
X106188042Y-56091953D01*
X105426138Y-56244334D02*
X105045185Y-56244334D01*
X105502328Y-56472905D02*
X105235661Y-55672905D01*
X104968995Y-56472905D01*
X104359471Y-55939572D02*
X104359471Y-56472905D01*
X104549947Y-55634810D02*
X104740423Y-56206239D01*
X104245185Y-56206239D01*
X106188042Y-58504905D02*
X106188042Y-57704905D01*
X105883280Y-57704905D01*
X105807090Y-57743001D01*
X105768995Y-57781096D01*
X105730899Y-57857286D01*
X105730899Y-57971572D01*
X105768995Y-58047762D01*
X105807090Y-58085858D01*
X105883280Y-58123953D01*
X106188042Y-58123953D01*
X105426138Y-58276334D02*
X105045185Y-58276334D01*
X105502328Y-58504905D02*
X105235661Y-57704905D01*
X104968995Y-58504905D01*
X104321376Y-57704905D02*
X104702328Y-57704905D01*
X104740423Y-58085858D01*
X104702328Y-58047762D01*
X104626138Y-58009667D01*
X104435661Y-58009667D01*
X104359471Y-58047762D01*
X104321376Y-58085858D01*
X104283280Y-58162048D01*
X104283280Y-58352524D01*
X104321376Y-58428715D01*
X104359471Y-58466810D01*
X104435661Y-58504905D01*
X104626138Y-58504905D01*
X104702328Y-58466810D01*
X104740423Y-58428715D01*
X106188042Y-60536905D02*
X106188042Y-59736905D01*
X105883280Y-59736905D01*
X105807090Y-59775001D01*
X105768995Y-59813096D01*
X105730899Y-59889286D01*
X105730899Y-60003572D01*
X105768995Y-60079762D01*
X105807090Y-60117858D01*
X105883280Y-60155953D01*
X106188042Y-60155953D01*
X105426138Y-60308334D02*
X105045185Y-60308334D01*
X105502328Y-60536905D02*
X105235661Y-59736905D01*
X104968995Y-60536905D01*
X104359471Y-59736905D02*
X104511852Y-59736905D01*
X104588042Y-59775001D01*
X104626138Y-59813096D01*
X104702328Y-59927381D01*
X104740423Y-60079762D01*
X104740423Y-60384524D01*
X104702328Y-60460715D01*
X104664233Y-60498810D01*
X104588042Y-60536905D01*
X104435661Y-60536905D01*
X104359471Y-60498810D01*
X104321376Y-60460715D01*
X104283280Y-60384524D01*
X104283280Y-60194048D01*
X104321376Y-60117858D01*
X104359471Y-60079762D01*
X104435661Y-60041667D01*
X104588042Y-60041667D01*
X104664233Y-60079762D01*
X104702328Y-60117858D01*
X104740423Y-60194048D01*
X111450090Y-61807001D02*
X111526280Y-61768905D01*
X111640566Y-61768905D01*
X111754852Y-61807001D01*
X111831042Y-61883191D01*
X111869138Y-61959381D01*
X111907233Y-62111762D01*
X111907233Y-62226048D01*
X111869138Y-62378429D01*
X111831042Y-62454620D01*
X111754852Y-62530810D01*
X111640566Y-62568905D01*
X111564376Y-62568905D01*
X111450090Y-62530810D01*
X111411995Y-62492715D01*
X111411995Y-62226048D01*
X111564376Y-62226048D01*
X111069138Y-62568905D02*
X111069138Y-61768905D01*
X110611995Y-62568905D01*
X110611995Y-61768905D01*
X110231042Y-62568905D02*
X110231042Y-61768905D01*
X110040566Y-61768905D01*
X109926280Y-61807001D01*
X109850090Y-61883191D01*
X109811995Y-61959381D01*
X109773899Y-62111762D01*
X109773899Y-62226048D01*
X109811995Y-62378429D01*
X109850090Y-62454620D01*
X109926280Y-62530810D01*
X110040566Y-62568905D01*
X110231042Y-62568905D01*
X111107114Y-59793620D02*
X111907114Y-59793620D01*
X111526161Y-59793620D02*
X111526161Y-59336477D01*
X111107114Y-59336477D02*
X111907114Y-59336477D01*
X111183304Y-58498381D02*
X111145209Y-58536477D01*
X111107114Y-58650762D01*
X111107114Y-58726953D01*
X111145209Y-58841239D01*
X111221399Y-58917429D01*
X111297590Y-58955524D01*
X111449971Y-58993620D01*
X111564257Y-58993620D01*
X111716638Y-58955524D01*
X111792828Y-58917429D01*
X111869019Y-58841239D01*
X111907114Y-58726953D01*
X111907114Y-58650762D01*
X111869019Y-58536477D01*
X111830923Y-58498381D01*
X111145209Y-58193620D02*
X111107114Y-58079334D01*
X111107114Y-57888858D01*
X111145209Y-57812667D01*
X111183304Y-57774572D01*
X111259495Y-57736477D01*
X111335685Y-57736477D01*
X111411876Y-57774572D01*
X111449971Y-57812667D01*
X111488066Y-57888858D01*
X111526161Y-58041239D01*
X111564257Y-58117429D01*
X111602352Y-58155524D01*
X111678542Y-58193620D01*
X111754733Y-58193620D01*
X111830923Y-58155524D01*
X111869019Y-58117429D01*
X111907114Y-58041239D01*
X111907114Y-57850762D01*
X111869019Y-57736477D01*
X111107114Y-56326953D02*
X111488066Y-56593620D01*
X111107114Y-56784096D02*
X111907114Y-56784096D01*
X111907114Y-56479334D01*
X111869019Y-56403143D01*
X111830923Y-56365048D01*
X111754733Y-56326953D01*
X111640447Y-56326953D01*
X111564257Y-56365048D01*
X111526161Y-56403143D01*
X111488066Y-56479334D01*
X111488066Y-56784096D01*
X111145209Y-55679334D02*
X111107114Y-55755524D01*
X111107114Y-55907905D01*
X111145209Y-55984096D01*
X111221399Y-56022191D01*
X111526161Y-56022191D01*
X111602352Y-55984096D01*
X111640447Y-55907905D01*
X111640447Y-55755524D01*
X111602352Y-55679334D01*
X111526161Y-55641239D01*
X111449971Y-55641239D01*
X111373780Y-56022191D01*
X111640447Y-55374572D02*
X111107114Y-55184096D01*
X111640447Y-54993620D01*
X111107114Y-53660286D02*
X111107114Y-54117429D01*
X111107114Y-53888858D02*
X111907114Y-53888858D01*
X111792828Y-53965048D01*
X111716638Y-54041239D01*
X111678542Y-54117429D01*
X109757114Y-59469810D02*
X110557114Y-59469810D01*
X109757114Y-59012667D01*
X110557114Y-59012667D01*
X109757114Y-58517429D02*
X109795209Y-58593620D01*
X109833304Y-58631715D01*
X109909495Y-58669810D01*
X110138066Y-58669810D01*
X110214257Y-58631715D01*
X110252352Y-58593620D01*
X110290447Y-58517429D01*
X110290447Y-58403143D01*
X110252352Y-58326953D01*
X110214257Y-58288858D01*
X110138066Y-58250762D01*
X109909495Y-58250762D01*
X109833304Y-58288858D01*
X109795209Y-58326953D01*
X109757114Y-58403143D01*
X109757114Y-58517429D01*
X110290447Y-57984096D02*
X109757114Y-57793620D01*
X110290447Y-57603143D01*
X110480923Y-56726953D02*
X110519019Y-56688858D01*
X110557114Y-56612667D01*
X110557114Y-56422191D01*
X110519019Y-56346001D01*
X110480923Y-56307905D01*
X110404733Y-56269810D01*
X110328542Y-56269810D01*
X110214257Y-56307905D01*
X109757114Y-56765048D01*
X109757114Y-56269810D01*
X110557114Y-55774572D02*
X110557114Y-55698381D01*
X110519019Y-55622191D01*
X110480923Y-55584096D01*
X110404733Y-55546001D01*
X110252352Y-55507905D01*
X110061876Y-55507905D01*
X109909495Y-55546001D01*
X109833304Y-55584096D01*
X109795209Y-55622191D01*
X109757114Y-55698381D01*
X109757114Y-55774572D01*
X109795209Y-55850762D01*
X109833304Y-55888858D01*
X109909495Y-55926953D01*
X110061876Y-55965048D01*
X110252352Y-55965048D01*
X110404733Y-55926953D01*
X110480923Y-55888858D01*
X110519019Y-55850762D01*
X110557114Y-55774572D01*
X110480923Y-55203143D02*
X110519019Y-55165048D01*
X110557114Y-55088858D01*
X110557114Y-54898381D01*
X110519019Y-54822191D01*
X110480923Y-54784096D01*
X110404733Y-54746001D01*
X110328542Y-54746001D01*
X110214257Y-54784096D01*
X109757114Y-55241239D01*
X109757114Y-54746001D01*
X109757114Y-53984096D02*
X109757114Y-54441239D01*
X109757114Y-54212667D02*
X110557114Y-54212667D01*
X110442828Y-54288858D01*
X110366638Y-54365048D01*
X110328542Y-54441239D01*
X83302319Y-51862905D02*
X83035652Y-52662905D01*
X82768986Y-51862905D01*
X82045176Y-52586715D02*
X82083271Y-52624810D01*
X82197557Y-52662905D01*
X82273748Y-52662905D01*
X82388033Y-52624810D01*
X82464224Y-52548620D01*
X82502319Y-52472429D01*
X82540414Y-52320048D01*
X82540414Y-52205762D01*
X82502319Y-52053381D01*
X82464224Y-51977191D01*
X82388033Y-51901001D01*
X82273748Y-51862905D01*
X82197557Y-51862905D01*
X82083271Y-51901001D01*
X82045176Y-51939096D01*
X81245176Y-52586715D02*
X81283271Y-52624810D01*
X81397557Y-52662905D01*
X81473748Y-52662905D01*
X81588033Y-52624810D01*
X81664224Y-52548620D01*
X81702319Y-52472429D01*
X81740414Y-52320048D01*
X81740414Y-52205762D01*
X81702319Y-52053381D01*
X81664224Y-51977191D01*
X81588033Y-51901001D01*
X81473748Y-51862905D01*
X81397557Y-51862905D01*
X81283271Y-51901001D01*
X81245176Y-51939096D01*
X83188033Y-54948905D02*
X83188033Y-54148905D01*
X82883271Y-54148905D01*
X82807081Y-54187001D01*
X82768986Y-54225096D01*
X82730890Y-54301286D01*
X82730890Y-54415572D01*
X82768986Y-54491762D01*
X82807081Y-54529858D01*
X82883271Y-54567953D01*
X83188033Y-54567953D01*
X82426129Y-54720334D02*
X82045176Y-54720334D01*
X82502319Y-54948905D02*
X82235652Y-54148905D01*
X81968986Y-54948905D01*
X81778510Y-54148905D02*
X81283271Y-54148905D01*
X81549938Y-54453667D01*
X81435652Y-54453667D01*
X81359462Y-54491762D01*
X81321367Y-54529858D01*
X81283271Y-54606048D01*
X81283271Y-54796524D01*
X81321367Y-54872715D01*
X81359462Y-54910810D01*
X81435652Y-54948905D01*
X81664224Y-54948905D01*
X81740414Y-54910810D01*
X81778510Y-54872715D01*
X83188033Y-56472905D02*
X83188033Y-55672905D01*
X82883271Y-55672905D01*
X82807081Y-55711001D01*
X82768986Y-55749096D01*
X82730890Y-55825286D01*
X82730890Y-55939572D01*
X82768986Y-56015762D01*
X82807081Y-56053858D01*
X82883271Y-56091953D01*
X83188033Y-56091953D01*
X82426129Y-56244334D02*
X82045176Y-56244334D01*
X82502319Y-56472905D02*
X82235652Y-55672905D01*
X81968986Y-56472905D01*
X81359462Y-55939572D02*
X81359462Y-56472905D01*
X81549938Y-55634810D02*
X81740414Y-56206239D01*
X81245176Y-56206239D01*
X83188033Y-58504905D02*
X83188033Y-57704905D01*
X82883271Y-57704905D01*
X82807081Y-57743001D01*
X82768986Y-57781096D01*
X82730890Y-57857286D01*
X82730890Y-57971572D01*
X82768986Y-58047762D01*
X82807081Y-58085858D01*
X82883271Y-58123953D01*
X83188033Y-58123953D01*
X82426129Y-58276334D02*
X82045176Y-58276334D01*
X82502319Y-58504905D02*
X82235652Y-57704905D01*
X81968986Y-58504905D01*
X81321367Y-57704905D02*
X81702319Y-57704905D01*
X81740414Y-58085858D01*
X81702319Y-58047762D01*
X81626129Y-58009667D01*
X81435652Y-58009667D01*
X81359462Y-58047762D01*
X81321367Y-58085858D01*
X81283271Y-58162048D01*
X81283271Y-58352524D01*
X81321367Y-58428715D01*
X81359462Y-58466810D01*
X81435652Y-58504905D01*
X81626129Y-58504905D01*
X81702319Y-58466810D01*
X81740414Y-58428715D01*
X83188033Y-60536905D02*
X83188033Y-59736905D01*
X82883271Y-59736905D01*
X82807081Y-59775001D01*
X82768986Y-59813096D01*
X82730890Y-59889286D01*
X82730890Y-60003572D01*
X82768986Y-60079762D01*
X82807081Y-60117858D01*
X82883271Y-60155953D01*
X83188033Y-60155953D01*
X82426129Y-60308334D02*
X82045176Y-60308334D01*
X82502319Y-60536905D02*
X82235652Y-59736905D01*
X81968986Y-60536905D01*
X81359462Y-59736905D02*
X81511843Y-59736905D01*
X81588033Y-59775001D01*
X81626129Y-59813096D01*
X81702319Y-59927381D01*
X81740414Y-60079762D01*
X81740414Y-60384524D01*
X81702319Y-60460715D01*
X81664224Y-60498810D01*
X81588033Y-60536905D01*
X81435652Y-60536905D01*
X81359462Y-60498810D01*
X81321367Y-60460715D01*
X81283271Y-60384524D01*
X81283271Y-60194048D01*
X81321367Y-60117858D01*
X81359462Y-60079762D01*
X81435652Y-60041667D01*
X81588033Y-60041667D01*
X81664224Y-60079762D01*
X81702319Y-60117858D01*
X81740414Y-60194048D01*
X88450081Y-61807001D02*
X88526271Y-61768905D01*
X88640557Y-61768905D01*
X88754843Y-61807001D01*
X88831033Y-61883191D01*
X88869129Y-61959381D01*
X88907224Y-62111762D01*
X88907224Y-62226048D01*
X88869129Y-62378429D01*
X88831033Y-62454620D01*
X88754843Y-62530810D01*
X88640557Y-62568905D01*
X88564367Y-62568905D01*
X88450081Y-62530810D01*
X88411986Y-62492715D01*
X88411986Y-62226048D01*
X88564367Y-62226048D01*
X88069129Y-62568905D02*
X88069129Y-61768905D01*
X87611986Y-62568905D01*
X87611986Y-61768905D01*
X87231033Y-62568905D02*
X87231033Y-61768905D01*
X87040557Y-61768905D01*
X86926271Y-61807001D01*
X86850081Y-61883191D01*
X86811986Y-61959381D01*
X86773890Y-62111762D01*
X86773890Y-62226048D01*
X86811986Y-62378429D01*
X86850081Y-62454620D01*
X86926271Y-62530810D01*
X87040557Y-62568905D01*
X87231033Y-62568905D01*
X88107105Y-59793620D02*
X88907105Y-59793620D01*
X88526152Y-59793620D02*
X88526152Y-59336477D01*
X88107105Y-59336477D02*
X88907105Y-59336477D01*
X88183295Y-58498381D02*
X88145200Y-58536477D01*
X88107105Y-58650762D01*
X88107105Y-58726953D01*
X88145200Y-58841239D01*
X88221390Y-58917429D01*
X88297581Y-58955524D01*
X88449962Y-58993620D01*
X88564248Y-58993620D01*
X88716629Y-58955524D01*
X88792819Y-58917429D01*
X88869010Y-58841239D01*
X88907105Y-58726953D01*
X88907105Y-58650762D01*
X88869010Y-58536477D01*
X88830914Y-58498381D01*
X88145200Y-58193620D02*
X88107105Y-58079334D01*
X88107105Y-57888858D01*
X88145200Y-57812667D01*
X88183295Y-57774572D01*
X88259486Y-57736477D01*
X88335676Y-57736477D01*
X88411867Y-57774572D01*
X88449962Y-57812667D01*
X88488057Y-57888858D01*
X88526152Y-58041239D01*
X88564248Y-58117429D01*
X88602343Y-58155524D01*
X88678533Y-58193620D01*
X88754724Y-58193620D01*
X88830914Y-58155524D01*
X88869010Y-58117429D01*
X88907105Y-58041239D01*
X88907105Y-57850762D01*
X88869010Y-57736477D01*
X88107105Y-56326953D02*
X88488057Y-56593620D01*
X88107105Y-56784096D02*
X88907105Y-56784096D01*
X88907105Y-56479334D01*
X88869010Y-56403143D01*
X88830914Y-56365048D01*
X88754724Y-56326953D01*
X88640438Y-56326953D01*
X88564248Y-56365048D01*
X88526152Y-56403143D01*
X88488057Y-56479334D01*
X88488057Y-56784096D01*
X88145200Y-55679334D02*
X88107105Y-55755524D01*
X88107105Y-55907905D01*
X88145200Y-55984096D01*
X88221390Y-56022191D01*
X88526152Y-56022191D01*
X88602343Y-55984096D01*
X88640438Y-55907905D01*
X88640438Y-55755524D01*
X88602343Y-55679334D01*
X88526152Y-55641239D01*
X88449962Y-55641239D01*
X88373771Y-56022191D01*
X88640438Y-55374572D02*
X88107105Y-55184096D01*
X88640438Y-54993620D01*
X88107105Y-53660286D02*
X88107105Y-54117429D01*
X88107105Y-53888858D02*
X88907105Y-53888858D01*
X88792819Y-53965048D01*
X88716629Y-54041239D01*
X88678533Y-54117429D01*
X86757105Y-59469810D02*
X87557105Y-59469810D01*
X86757105Y-59012667D01*
X87557105Y-59012667D01*
X86757105Y-58517429D02*
X86795200Y-58593620D01*
X86833295Y-58631715D01*
X86909486Y-58669810D01*
X87138057Y-58669810D01*
X87214248Y-58631715D01*
X87252343Y-58593620D01*
X87290438Y-58517429D01*
X87290438Y-58403143D01*
X87252343Y-58326953D01*
X87214248Y-58288858D01*
X87138057Y-58250762D01*
X86909486Y-58250762D01*
X86833295Y-58288858D01*
X86795200Y-58326953D01*
X86757105Y-58403143D01*
X86757105Y-58517429D01*
X87290438Y-57984096D02*
X86757105Y-57793620D01*
X87290438Y-57603143D01*
X87480914Y-56726953D02*
X87519010Y-56688858D01*
X87557105Y-56612667D01*
X87557105Y-56422191D01*
X87519010Y-56346001D01*
X87480914Y-56307905D01*
X87404724Y-56269810D01*
X87328533Y-56269810D01*
X87214248Y-56307905D01*
X86757105Y-56765048D01*
X86757105Y-56269810D01*
X87557105Y-55774572D02*
X87557105Y-55698381D01*
X87519010Y-55622191D01*
X87480914Y-55584096D01*
X87404724Y-55546001D01*
X87252343Y-55507905D01*
X87061867Y-55507905D01*
X86909486Y-55546001D01*
X86833295Y-55584096D01*
X86795200Y-55622191D01*
X86757105Y-55698381D01*
X86757105Y-55774572D01*
X86795200Y-55850762D01*
X86833295Y-55888858D01*
X86909486Y-55926953D01*
X87061867Y-55965048D01*
X87252343Y-55965048D01*
X87404724Y-55926953D01*
X87480914Y-55888858D01*
X87519010Y-55850762D01*
X87557105Y-55774572D01*
X87480914Y-55203143D02*
X87519010Y-55165048D01*
X87557105Y-55088858D01*
X87557105Y-54898381D01*
X87519010Y-54822191D01*
X87480914Y-54784096D01*
X87404724Y-54746001D01*
X87328533Y-54746001D01*
X87214248Y-54784096D01*
X86757105Y-55241239D01*
X86757105Y-54746001D01*
X86757105Y-53984096D02*
X86757105Y-54441239D01*
X86757105Y-54212667D02*
X87557105Y-54212667D01*
X87442819Y-54288858D01*
X87366629Y-54365048D01*
X87328533Y-54441239D01*
X60302310Y-51862905D02*
X60035643Y-52662905D01*
X59768977Y-51862905D01*
X59045167Y-52586715D02*
X59083262Y-52624810D01*
X59197548Y-52662905D01*
X59273739Y-52662905D01*
X59388024Y-52624810D01*
X59464215Y-52548620D01*
X59502310Y-52472429D01*
X59540405Y-52320048D01*
X59540405Y-52205762D01*
X59502310Y-52053381D01*
X59464215Y-51977191D01*
X59388024Y-51901001D01*
X59273739Y-51862905D01*
X59197548Y-51862905D01*
X59083262Y-51901001D01*
X59045167Y-51939096D01*
X58245167Y-52586715D02*
X58283262Y-52624810D01*
X58397548Y-52662905D01*
X58473739Y-52662905D01*
X58588024Y-52624810D01*
X58664215Y-52548620D01*
X58702310Y-52472429D01*
X58740405Y-52320048D01*
X58740405Y-52205762D01*
X58702310Y-52053381D01*
X58664215Y-51977191D01*
X58588024Y-51901001D01*
X58473739Y-51862905D01*
X58397548Y-51862905D01*
X58283262Y-51901001D01*
X58245167Y-51939096D01*
X60188024Y-54948905D02*
X60188024Y-54148905D01*
X59883262Y-54148905D01*
X59807072Y-54187001D01*
X59768977Y-54225096D01*
X59730881Y-54301286D01*
X59730881Y-54415572D01*
X59768977Y-54491762D01*
X59807072Y-54529858D01*
X59883262Y-54567953D01*
X60188024Y-54567953D01*
X59426120Y-54720334D02*
X59045167Y-54720334D01*
X59502310Y-54948905D02*
X59235643Y-54148905D01*
X58968977Y-54948905D01*
X58778501Y-54148905D02*
X58283262Y-54148905D01*
X58549929Y-54453667D01*
X58435643Y-54453667D01*
X58359453Y-54491762D01*
X58321358Y-54529858D01*
X58283262Y-54606048D01*
X58283262Y-54796524D01*
X58321358Y-54872715D01*
X58359453Y-54910810D01*
X58435643Y-54948905D01*
X58664215Y-54948905D01*
X58740405Y-54910810D01*
X58778501Y-54872715D01*
X60188024Y-56472905D02*
X60188024Y-55672905D01*
X59883262Y-55672905D01*
X59807072Y-55711001D01*
X59768977Y-55749096D01*
X59730881Y-55825286D01*
X59730881Y-55939572D01*
X59768977Y-56015762D01*
X59807072Y-56053858D01*
X59883262Y-56091953D01*
X60188024Y-56091953D01*
X59426120Y-56244334D02*
X59045167Y-56244334D01*
X59502310Y-56472905D02*
X59235643Y-55672905D01*
X58968977Y-56472905D01*
X58359453Y-55939572D02*
X58359453Y-56472905D01*
X58549929Y-55634810D02*
X58740405Y-56206239D01*
X58245167Y-56206239D01*
X60188024Y-58504905D02*
X60188024Y-57704905D01*
X59883262Y-57704905D01*
X59807072Y-57743001D01*
X59768977Y-57781096D01*
X59730881Y-57857286D01*
X59730881Y-57971572D01*
X59768977Y-58047762D01*
X59807072Y-58085858D01*
X59883262Y-58123953D01*
X60188024Y-58123953D01*
X59426120Y-58276334D02*
X59045167Y-58276334D01*
X59502310Y-58504905D02*
X59235643Y-57704905D01*
X58968977Y-58504905D01*
X58321358Y-57704905D02*
X58702310Y-57704905D01*
X58740405Y-58085858D01*
X58702310Y-58047762D01*
X58626120Y-58009667D01*
X58435643Y-58009667D01*
X58359453Y-58047762D01*
X58321358Y-58085858D01*
X58283262Y-58162048D01*
X58283262Y-58352524D01*
X58321358Y-58428715D01*
X58359453Y-58466810D01*
X58435643Y-58504905D01*
X58626120Y-58504905D01*
X58702310Y-58466810D01*
X58740405Y-58428715D01*
X60188024Y-60536905D02*
X60188024Y-59736905D01*
X59883262Y-59736905D01*
X59807072Y-59775001D01*
X59768977Y-59813096D01*
X59730881Y-59889286D01*
X59730881Y-60003572D01*
X59768977Y-60079762D01*
X59807072Y-60117858D01*
X59883262Y-60155953D01*
X60188024Y-60155953D01*
X59426120Y-60308334D02*
X59045167Y-60308334D01*
X59502310Y-60536905D02*
X59235643Y-59736905D01*
X58968977Y-60536905D01*
X58359453Y-59736905D02*
X58511834Y-59736905D01*
X58588024Y-59775001D01*
X58626120Y-59813096D01*
X58702310Y-59927381D01*
X58740405Y-60079762D01*
X58740405Y-60384524D01*
X58702310Y-60460715D01*
X58664215Y-60498810D01*
X58588024Y-60536905D01*
X58435643Y-60536905D01*
X58359453Y-60498810D01*
X58321358Y-60460715D01*
X58283262Y-60384524D01*
X58283262Y-60194048D01*
X58321358Y-60117858D01*
X58359453Y-60079762D01*
X58435643Y-60041667D01*
X58588024Y-60041667D01*
X58664215Y-60079762D01*
X58702310Y-60117858D01*
X58740405Y-60194048D01*
X65450072Y-61807001D02*
X65526262Y-61768905D01*
X65640548Y-61768905D01*
X65754834Y-61807001D01*
X65831024Y-61883191D01*
X65869120Y-61959381D01*
X65907215Y-62111762D01*
X65907215Y-62226048D01*
X65869120Y-62378429D01*
X65831024Y-62454620D01*
X65754834Y-62530810D01*
X65640548Y-62568905D01*
X65564358Y-62568905D01*
X65450072Y-62530810D01*
X65411977Y-62492715D01*
X65411977Y-62226048D01*
X65564358Y-62226048D01*
X65069120Y-62568905D02*
X65069120Y-61768905D01*
X64611977Y-62568905D01*
X64611977Y-61768905D01*
X64231024Y-62568905D02*
X64231024Y-61768905D01*
X64040548Y-61768905D01*
X63926262Y-61807001D01*
X63850072Y-61883191D01*
X63811977Y-61959381D01*
X63773881Y-62111762D01*
X63773881Y-62226048D01*
X63811977Y-62378429D01*
X63850072Y-62454620D01*
X63926262Y-62530810D01*
X64040548Y-62568905D01*
X64231024Y-62568905D01*
X65107096Y-59793620D02*
X65907096Y-59793620D01*
X65526143Y-59793620D02*
X65526143Y-59336477D01*
X65107096Y-59336477D02*
X65907096Y-59336477D01*
X65183286Y-58498381D02*
X65145191Y-58536477D01*
X65107096Y-58650762D01*
X65107096Y-58726953D01*
X65145191Y-58841239D01*
X65221381Y-58917429D01*
X65297572Y-58955524D01*
X65449953Y-58993620D01*
X65564239Y-58993620D01*
X65716620Y-58955524D01*
X65792810Y-58917429D01*
X65869001Y-58841239D01*
X65907096Y-58726953D01*
X65907096Y-58650762D01*
X65869001Y-58536477D01*
X65830905Y-58498381D01*
X65145191Y-58193620D02*
X65107096Y-58079334D01*
X65107096Y-57888858D01*
X65145191Y-57812667D01*
X65183286Y-57774572D01*
X65259477Y-57736477D01*
X65335667Y-57736477D01*
X65411858Y-57774572D01*
X65449953Y-57812667D01*
X65488048Y-57888858D01*
X65526143Y-58041239D01*
X65564239Y-58117429D01*
X65602334Y-58155524D01*
X65678524Y-58193620D01*
X65754715Y-58193620D01*
X65830905Y-58155524D01*
X65869001Y-58117429D01*
X65907096Y-58041239D01*
X65907096Y-57850762D01*
X65869001Y-57736477D01*
X65107096Y-56326953D02*
X65488048Y-56593620D01*
X65107096Y-56784096D02*
X65907096Y-56784096D01*
X65907096Y-56479334D01*
X65869001Y-56403143D01*
X65830905Y-56365048D01*
X65754715Y-56326953D01*
X65640429Y-56326953D01*
X65564239Y-56365048D01*
X65526143Y-56403143D01*
X65488048Y-56479334D01*
X65488048Y-56784096D01*
X65145191Y-55679334D02*
X65107096Y-55755524D01*
X65107096Y-55907905D01*
X65145191Y-55984096D01*
X65221381Y-56022191D01*
X65526143Y-56022191D01*
X65602334Y-55984096D01*
X65640429Y-55907905D01*
X65640429Y-55755524D01*
X65602334Y-55679334D01*
X65526143Y-55641239D01*
X65449953Y-55641239D01*
X65373762Y-56022191D01*
X65640429Y-55374572D02*
X65107096Y-55184096D01*
X65640429Y-54993620D01*
X65107096Y-53660286D02*
X65107096Y-54117429D01*
X65107096Y-53888858D02*
X65907096Y-53888858D01*
X65792810Y-53965048D01*
X65716620Y-54041239D01*
X65678524Y-54117429D01*
X63757096Y-59469810D02*
X64557096Y-59469810D01*
X63757096Y-59012667D01*
X64557096Y-59012667D01*
X63757096Y-58517429D02*
X63795191Y-58593620D01*
X63833286Y-58631715D01*
X63909477Y-58669810D01*
X64138048Y-58669810D01*
X64214239Y-58631715D01*
X64252334Y-58593620D01*
X64290429Y-58517429D01*
X64290429Y-58403143D01*
X64252334Y-58326953D01*
X64214239Y-58288858D01*
X64138048Y-58250762D01*
X63909477Y-58250762D01*
X63833286Y-58288858D01*
X63795191Y-58326953D01*
X63757096Y-58403143D01*
X63757096Y-58517429D01*
X64290429Y-57984096D02*
X63757096Y-57793620D01*
X64290429Y-57603143D01*
X64480905Y-56726953D02*
X64519001Y-56688858D01*
X64557096Y-56612667D01*
X64557096Y-56422191D01*
X64519001Y-56346001D01*
X64480905Y-56307905D01*
X64404715Y-56269810D01*
X64328524Y-56269810D01*
X64214239Y-56307905D01*
X63757096Y-56765048D01*
X63757096Y-56269810D01*
X64557096Y-55774572D02*
X64557096Y-55698381D01*
X64519001Y-55622191D01*
X64480905Y-55584096D01*
X64404715Y-55546001D01*
X64252334Y-55507905D01*
X64061858Y-55507905D01*
X63909477Y-55546001D01*
X63833286Y-55584096D01*
X63795191Y-55622191D01*
X63757096Y-55698381D01*
X63757096Y-55774572D01*
X63795191Y-55850762D01*
X63833286Y-55888858D01*
X63909477Y-55926953D01*
X64061858Y-55965048D01*
X64252334Y-55965048D01*
X64404715Y-55926953D01*
X64480905Y-55888858D01*
X64519001Y-55850762D01*
X64557096Y-55774572D01*
X64480905Y-55203143D02*
X64519001Y-55165048D01*
X64557096Y-55088858D01*
X64557096Y-54898381D01*
X64519001Y-54822191D01*
X64480905Y-54784096D01*
X64404715Y-54746001D01*
X64328524Y-54746001D01*
X64214239Y-54784096D01*
X63757096Y-55241239D01*
X63757096Y-54746001D01*
X63757096Y-53984096D02*
X63757096Y-54441239D01*
X63757096Y-54212667D02*
X64557096Y-54212667D01*
X64442810Y-54288858D01*
X64366620Y-54365048D01*
X64328524Y-54441239D01*
D11*
X132060028Y-115114037D02*
X131000028Y-115114037D01*
X132060028Y-116174037D02*
X132060028Y-115114037D01*
X132060028Y-117174037D02*
X129940028Y-117174037D01*
X129940028Y-117174037D02*
X129940028Y-127234037D01*
X132060028Y-117174037D02*
X132060028Y-127234037D01*
X132060028Y-127234037D02*
X129940028Y-127234037D01*
X109060019Y-115114037D02*
X108000019Y-115114037D01*
X109060019Y-116174037D02*
X109060019Y-115114037D01*
X109060019Y-117174037D02*
X106940019Y-117174037D01*
X106940019Y-117174037D02*
X106940019Y-127234037D01*
X109060019Y-117174037D02*
X109060019Y-127234037D01*
X109060019Y-127234037D02*
X106940019Y-127234037D01*
X86060010Y-115114037D02*
X85000010Y-115114037D01*
X86060010Y-116174037D02*
X86060010Y-115114037D01*
X86060010Y-117174037D02*
X83940010Y-117174037D01*
X83940010Y-117174037D02*
X83940010Y-127234037D01*
X86060010Y-117174037D02*
X86060010Y-127234037D01*
X86060010Y-127234037D02*
X83940010Y-127234037D01*
X63060001Y-115114037D02*
X62000001Y-115114037D01*
X63060001Y-116174037D02*
X63060001Y-115114037D01*
X63060001Y-117174037D02*
X60940001Y-117174037D01*
X60940001Y-117174037D02*
X60940001Y-127234037D01*
X63060001Y-117174037D02*
X63060001Y-127234037D01*
X63060001Y-127234037D02*
X60940001Y-127234037D01*
X132060028Y-99114028D02*
X131000028Y-99114028D01*
X132060028Y-100174028D02*
X132060028Y-99114028D01*
X132060028Y-101174028D02*
X129940028Y-101174028D01*
X129940028Y-101174028D02*
X129940028Y-111234028D01*
X132060028Y-101174028D02*
X132060028Y-111234028D01*
X132060028Y-111234028D02*
X129940028Y-111234028D01*
X109060019Y-99114028D02*
X108000019Y-99114028D01*
X109060019Y-100174028D02*
X109060019Y-99114028D01*
X109060019Y-101174028D02*
X106940019Y-101174028D01*
X106940019Y-101174028D02*
X106940019Y-111234028D01*
X109060019Y-101174028D02*
X109060019Y-111234028D01*
X109060019Y-111234028D02*
X106940019Y-111234028D01*
X86060010Y-99114028D02*
X85000010Y-99114028D01*
X86060010Y-100174028D02*
X86060010Y-99114028D01*
X86060010Y-101174028D02*
X83940010Y-101174028D01*
X83940010Y-101174028D02*
X83940010Y-111234028D01*
X86060010Y-101174028D02*
X86060010Y-111234028D01*
X86060010Y-111234028D02*
X83940010Y-111234028D01*
X63060001Y-99114028D02*
X62000001Y-99114028D01*
X63060001Y-100174028D02*
X63060001Y-99114028D01*
X63060001Y-101174028D02*
X60940001Y-101174028D01*
X60940001Y-101174028D02*
X60940001Y-111234028D01*
X63060001Y-101174028D02*
X63060001Y-111234028D01*
X63060001Y-111234028D02*
X60940001Y-111234028D01*
X132060028Y-83114019D02*
X131000028Y-83114019D01*
X132060028Y-84174019D02*
X132060028Y-83114019D01*
X132060028Y-85174019D02*
X129940028Y-85174019D01*
X129940028Y-85174019D02*
X129940028Y-95234019D01*
X132060028Y-85174019D02*
X132060028Y-95234019D01*
X132060028Y-95234019D02*
X129940028Y-95234019D01*
X109060019Y-83114019D02*
X108000019Y-83114019D01*
X109060019Y-84174019D02*
X109060019Y-83114019D01*
X109060019Y-85174019D02*
X106940019Y-85174019D01*
X106940019Y-85174019D02*
X106940019Y-95234019D01*
X109060019Y-85174019D02*
X109060019Y-95234019D01*
X109060019Y-95234019D02*
X106940019Y-95234019D01*
X86060010Y-83114019D02*
X85000010Y-83114019D01*
X86060010Y-84174019D02*
X86060010Y-83114019D01*
X86060010Y-85174019D02*
X83940010Y-85174019D01*
X83940010Y-85174019D02*
X83940010Y-95234019D01*
X86060010Y-85174019D02*
X86060010Y-95234019D01*
X86060010Y-95234019D02*
X83940010Y-95234019D01*
X63060001Y-83114019D02*
X62000001Y-83114019D01*
X63060001Y-84174019D02*
X63060001Y-83114019D01*
X63060001Y-85174019D02*
X60940001Y-85174019D01*
X60940001Y-85174019D02*
X60940001Y-95234019D01*
X63060001Y-85174019D02*
X63060001Y-95234019D01*
X63060001Y-95234019D02*
X60940001Y-95234019D01*
X132060028Y-67114010D02*
X131000028Y-67114010D01*
X132060028Y-68174010D02*
X132060028Y-67114010D01*
X132060028Y-69174010D02*
X129940028Y-69174010D01*
X129940028Y-69174010D02*
X129940028Y-79234010D01*
X132060028Y-69174010D02*
X132060028Y-79234010D01*
X132060028Y-79234010D02*
X129940028Y-79234010D01*
X109060019Y-67114010D02*
X108000019Y-67114010D01*
X109060019Y-68174010D02*
X109060019Y-67114010D01*
X109060019Y-69174010D02*
X106940019Y-69174010D01*
X106940019Y-69174010D02*
X106940019Y-79234010D01*
X109060019Y-69174010D02*
X109060019Y-79234010D01*
X109060019Y-79234010D02*
X106940019Y-79234010D01*
X86060010Y-67114010D02*
X85000010Y-67114010D01*
X86060010Y-68174010D02*
X86060010Y-67114010D01*
X86060010Y-69174010D02*
X83940010Y-69174010D01*
X83940010Y-69174010D02*
X83940010Y-79234010D01*
X86060010Y-69174010D02*
X86060010Y-79234010D01*
X86060010Y-79234010D02*
X83940010Y-79234010D01*
X63060001Y-67114010D02*
X62000001Y-67114010D01*
X63060001Y-68174010D02*
X63060001Y-67114010D01*
X63060001Y-69174010D02*
X60940001Y-69174010D01*
X60940001Y-69174010D02*
X60940001Y-79234010D01*
X63060001Y-69174010D02*
X63060001Y-79234010D01*
X63060001Y-79234010D02*
X60940001Y-79234010D01*
X132060028Y-51114001D02*
X131000028Y-51114001D01*
X132060028Y-52174001D02*
X132060028Y-51114001D01*
X132060028Y-53174001D02*
X129940028Y-53174001D01*
X129940028Y-53174001D02*
X129940028Y-63234001D01*
X132060028Y-53174001D02*
X132060028Y-63234001D01*
X132060028Y-63234001D02*
X129940028Y-63234001D01*
X109060019Y-51114001D02*
X108000019Y-51114001D01*
X109060019Y-52174001D02*
X109060019Y-51114001D01*
X109060019Y-53174001D02*
X106940019Y-53174001D01*
X106940019Y-53174001D02*
X106940019Y-63234001D01*
X109060019Y-53174001D02*
X109060019Y-63234001D01*
X109060019Y-63234001D02*
X106940019Y-63234001D01*
X86060010Y-51114001D02*
X85000010Y-51114001D01*
X86060010Y-52174001D02*
X86060010Y-51114001D01*
X86060010Y-53174001D02*
X83940010Y-53174001D01*
X83940010Y-53174001D02*
X83940010Y-63234001D01*
X86060010Y-53174001D02*
X86060010Y-63234001D01*
X86060010Y-63234001D02*
X83940010Y-63234001D01*
X63060001Y-51114001D02*
X62000001Y-51114001D01*
X63060001Y-52174001D02*
X63060001Y-51114001D01*
X63060001Y-53174001D02*
X60940001Y-53174001D01*
X60940001Y-53174001D02*
X60940001Y-63234001D01*
X63060001Y-53174001D02*
X63060001Y-63234001D01*
X63060001Y-63234001D02*
X60940001Y-63234001D01*
D10*
X133619361Y-116388417D02*
X133619361Y-117102703D01*
X133666980Y-117245560D01*
X133762218Y-117340798D01*
X133905075Y-117388417D01*
X134000313Y-117388417D01*
X133238408Y-116388417D02*
X132619361Y-116388417D01*
X132952694Y-116769370D01*
X132809837Y-116769370D01*
X132714599Y-116816989D01*
X132666980Y-116864608D01*
X132619361Y-116959846D01*
X132619361Y-117197941D01*
X132666980Y-117293179D01*
X132714599Y-117340798D01*
X132809837Y-117388417D01*
X133095551Y-117388417D01*
X133190789Y-117340798D01*
X133238408Y-117293179D01*
X110619352Y-116388417D02*
X110619352Y-117102703D01*
X110666971Y-117245560D01*
X110762209Y-117340798D01*
X110905066Y-117388417D01*
X111000304Y-117388417D01*
X110238399Y-116388417D02*
X109619352Y-116388417D01*
X109952685Y-116769370D01*
X109809828Y-116769370D01*
X109714590Y-116816989D01*
X109666971Y-116864608D01*
X109619352Y-116959846D01*
X109619352Y-117197941D01*
X109666971Y-117293179D01*
X109714590Y-117340798D01*
X109809828Y-117388417D01*
X110095542Y-117388417D01*
X110190780Y-117340798D01*
X110238399Y-117293179D01*
X87619343Y-116388417D02*
X87619343Y-117102703D01*
X87666962Y-117245560D01*
X87762200Y-117340798D01*
X87905057Y-117388417D01*
X88000295Y-117388417D01*
X87238390Y-116388417D02*
X86619343Y-116388417D01*
X86952676Y-116769370D01*
X86809819Y-116769370D01*
X86714581Y-116816989D01*
X86666962Y-116864608D01*
X86619343Y-116959846D01*
X86619343Y-117197941D01*
X86666962Y-117293179D01*
X86714581Y-117340798D01*
X86809819Y-117388417D01*
X87095533Y-117388417D01*
X87190771Y-117340798D01*
X87238390Y-117293179D01*
X64619334Y-116388417D02*
X64619334Y-117102703D01*
X64666953Y-117245560D01*
X64762191Y-117340798D01*
X64905048Y-117388417D01*
X65000286Y-117388417D01*
X64238381Y-116388417D02*
X63619334Y-116388417D01*
X63952667Y-116769370D01*
X63809810Y-116769370D01*
X63714572Y-116816989D01*
X63666953Y-116864608D01*
X63619334Y-116959846D01*
X63619334Y-117197941D01*
X63666953Y-117293179D01*
X63714572Y-117340798D01*
X63809810Y-117388417D01*
X64095524Y-117388417D01*
X64190762Y-117340798D01*
X64238381Y-117293179D01*
X133619361Y-100388408D02*
X133619361Y-101102694D01*
X133666980Y-101245551D01*
X133762218Y-101340789D01*
X133905075Y-101388408D01*
X134000313Y-101388408D01*
X133238408Y-100388408D02*
X132619361Y-100388408D01*
X132952694Y-100769361D01*
X132809837Y-100769361D01*
X132714599Y-100816980D01*
X132666980Y-100864599D01*
X132619361Y-100959837D01*
X132619361Y-101197932D01*
X132666980Y-101293170D01*
X132714599Y-101340789D01*
X132809837Y-101388408D01*
X133095551Y-101388408D01*
X133190789Y-101340789D01*
X133238408Y-101293170D01*
X110619352Y-100388408D02*
X110619352Y-101102694D01*
X110666971Y-101245551D01*
X110762209Y-101340789D01*
X110905066Y-101388408D01*
X111000304Y-101388408D01*
X110238399Y-100388408D02*
X109619352Y-100388408D01*
X109952685Y-100769361D01*
X109809828Y-100769361D01*
X109714590Y-100816980D01*
X109666971Y-100864599D01*
X109619352Y-100959837D01*
X109619352Y-101197932D01*
X109666971Y-101293170D01*
X109714590Y-101340789D01*
X109809828Y-101388408D01*
X110095542Y-101388408D01*
X110190780Y-101340789D01*
X110238399Y-101293170D01*
X87619343Y-100388408D02*
X87619343Y-101102694D01*
X87666962Y-101245551D01*
X87762200Y-101340789D01*
X87905057Y-101388408D01*
X88000295Y-101388408D01*
X87238390Y-100388408D02*
X86619343Y-100388408D01*
X86952676Y-100769361D01*
X86809819Y-100769361D01*
X86714581Y-100816980D01*
X86666962Y-100864599D01*
X86619343Y-100959837D01*
X86619343Y-101197932D01*
X86666962Y-101293170D01*
X86714581Y-101340789D01*
X86809819Y-101388408D01*
X87095533Y-101388408D01*
X87190771Y-101340789D01*
X87238390Y-101293170D01*
X64619334Y-100388408D02*
X64619334Y-101102694D01*
X64666953Y-101245551D01*
X64762191Y-101340789D01*
X64905048Y-101388408D01*
X65000286Y-101388408D01*
X64238381Y-100388408D02*
X63619334Y-100388408D01*
X63952667Y-100769361D01*
X63809810Y-100769361D01*
X63714572Y-100816980D01*
X63666953Y-100864599D01*
X63619334Y-100959837D01*
X63619334Y-101197932D01*
X63666953Y-101293170D01*
X63714572Y-101340789D01*
X63809810Y-101388408D01*
X64095524Y-101388408D01*
X64190762Y-101340789D01*
X64238381Y-101293170D01*
X133619361Y-84388399D02*
X133619361Y-85102685D01*
X133666980Y-85245542D01*
X133762218Y-85340780D01*
X133905075Y-85388399D01*
X134000313Y-85388399D01*
X133238408Y-84388399D02*
X132619361Y-84388399D01*
X132952694Y-84769352D01*
X132809837Y-84769352D01*
X132714599Y-84816971D01*
X132666980Y-84864590D01*
X132619361Y-84959828D01*
X132619361Y-85197923D01*
X132666980Y-85293161D01*
X132714599Y-85340780D01*
X132809837Y-85388399D01*
X133095551Y-85388399D01*
X133190789Y-85340780D01*
X133238408Y-85293161D01*
X110619352Y-84388399D02*
X110619352Y-85102685D01*
X110666971Y-85245542D01*
X110762209Y-85340780D01*
X110905066Y-85388399D01*
X111000304Y-85388399D01*
X110238399Y-84388399D02*
X109619352Y-84388399D01*
X109952685Y-84769352D01*
X109809828Y-84769352D01*
X109714590Y-84816971D01*
X109666971Y-84864590D01*
X109619352Y-84959828D01*
X109619352Y-85197923D01*
X109666971Y-85293161D01*
X109714590Y-85340780D01*
X109809828Y-85388399D01*
X110095542Y-85388399D01*
X110190780Y-85340780D01*
X110238399Y-85293161D01*
X87619343Y-84388399D02*
X87619343Y-85102685D01*
X87666962Y-85245542D01*
X87762200Y-85340780D01*
X87905057Y-85388399D01*
X88000295Y-85388399D01*
X87238390Y-84388399D02*
X86619343Y-84388399D01*
X86952676Y-84769352D01*
X86809819Y-84769352D01*
X86714581Y-84816971D01*
X86666962Y-84864590D01*
X86619343Y-84959828D01*
X86619343Y-85197923D01*
X86666962Y-85293161D01*
X86714581Y-85340780D01*
X86809819Y-85388399D01*
X87095533Y-85388399D01*
X87190771Y-85340780D01*
X87238390Y-85293161D01*
X64619334Y-84388399D02*
X64619334Y-85102685D01*
X64666953Y-85245542D01*
X64762191Y-85340780D01*
X64905048Y-85388399D01*
X65000286Y-85388399D01*
X64238381Y-84388399D02*
X63619334Y-84388399D01*
X63952667Y-84769352D01*
X63809810Y-84769352D01*
X63714572Y-84816971D01*
X63666953Y-84864590D01*
X63619334Y-84959828D01*
X63619334Y-85197923D01*
X63666953Y-85293161D01*
X63714572Y-85340780D01*
X63809810Y-85388399D01*
X64095524Y-85388399D01*
X64190762Y-85340780D01*
X64238381Y-85293161D01*
X133619361Y-68388390D02*
X133619361Y-69102676D01*
X133666980Y-69245533D01*
X133762218Y-69340771D01*
X133905075Y-69388390D01*
X134000313Y-69388390D01*
X133238408Y-68388390D02*
X132619361Y-68388390D01*
X132952694Y-68769343D01*
X132809837Y-68769343D01*
X132714599Y-68816962D01*
X132666980Y-68864581D01*
X132619361Y-68959819D01*
X132619361Y-69197914D01*
X132666980Y-69293152D01*
X132714599Y-69340771D01*
X132809837Y-69388390D01*
X133095551Y-69388390D01*
X133190789Y-69340771D01*
X133238408Y-69293152D01*
X110619352Y-68388390D02*
X110619352Y-69102676D01*
X110666971Y-69245533D01*
X110762209Y-69340771D01*
X110905066Y-69388390D01*
X111000304Y-69388390D01*
X110238399Y-68388390D02*
X109619352Y-68388390D01*
X109952685Y-68769343D01*
X109809828Y-68769343D01*
X109714590Y-68816962D01*
X109666971Y-68864581D01*
X109619352Y-68959819D01*
X109619352Y-69197914D01*
X109666971Y-69293152D01*
X109714590Y-69340771D01*
X109809828Y-69388390D01*
X110095542Y-69388390D01*
X110190780Y-69340771D01*
X110238399Y-69293152D01*
X87619343Y-68388390D02*
X87619343Y-69102676D01*
X87666962Y-69245533D01*
X87762200Y-69340771D01*
X87905057Y-69388390D01*
X88000295Y-69388390D01*
X87238390Y-68388390D02*
X86619343Y-68388390D01*
X86952676Y-68769343D01*
X86809819Y-68769343D01*
X86714581Y-68816962D01*
X86666962Y-68864581D01*
X86619343Y-68959819D01*
X86619343Y-69197914D01*
X86666962Y-69293152D01*
X86714581Y-69340771D01*
X86809819Y-69388390D01*
X87095533Y-69388390D01*
X87190771Y-69340771D01*
X87238390Y-69293152D01*
X64619334Y-68388390D02*
X64619334Y-69102676D01*
X64666953Y-69245533D01*
X64762191Y-69340771D01*
X64905048Y-69388390D01*
X65000286Y-69388390D01*
X64238381Y-68388390D02*
X63619334Y-68388390D01*
X63952667Y-68769343D01*
X63809810Y-68769343D01*
X63714572Y-68816962D01*
X63666953Y-68864581D01*
X63619334Y-68959819D01*
X63619334Y-69197914D01*
X63666953Y-69293152D01*
X63714572Y-69340771D01*
X63809810Y-69388390D01*
X64095524Y-69388390D01*
X64190762Y-69340771D01*
X64238381Y-69293152D01*
X133619361Y-52388381D02*
X133619361Y-53102667D01*
X133666980Y-53245524D01*
X133762218Y-53340762D01*
X133905075Y-53388381D01*
X134000313Y-53388381D01*
X133238408Y-52388381D02*
X132619361Y-52388381D01*
X132952694Y-52769334D01*
X132809837Y-52769334D01*
X132714599Y-52816953D01*
X132666980Y-52864572D01*
X132619361Y-52959810D01*
X132619361Y-53197905D01*
X132666980Y-53293143D01*
X132714599Y-53340762D01*
X132809837Y-53388381D01*
X133095551Y-53388381D01*
X133190789Y-53340762D01*
X133238408Y-53293143D01*
X110619352Y-52388381D02*
X110619352Y-53102667D01*
X110666971Y-53245524D01*
X110762209Y-53340762D01*
X110905066Y-53388381D01*
X111000304Y-53388381D01*
X110238399Y-52388381D02*
X109619352Y-52388381D01*
X109952685Y-52769334D01*
X109809828Y-52769334D01*
X109714590Y-52816953D01*
X109666971Y-52864572D01*
X109619352Y-52959810D01*
X109619352Y-53197905D01*
X109666971Y-53293143D01*
X109714590Y-53340762D01*
X109809828Y-53388381D01*
X110095542Y-53388381D01*
X110190780Y-53340762D01*
X110238399Y-53293143D01*
X87619343Y-52388381D02*
X87619343Y-53102667D01*
X87666962Y-53245524D01*
X87762200Y-53340762D01*
X87905057Y-53388381D01*
X88000295Y-53388381D01*
X87238390Y-52388381D02*
X86619343Y-52388381D01*
X86952676Y-52769334D01*
X86809819Y-52769334D01*
X86714581Y-52816953D01*
X86666962Y-52864572D01*
X86619343Y-52959810D01*
X86619343Y-53197905D01*
X86666962Y-53293143D01*
X86714581Y-53340762D01*
X86809819Y-53388381D01*
X87095533Y-53388381D01*
X87190771Y-53340762D01*
X87238390Y-53293143D01*
X64619334Y-52388381D02*
X64619334Y-53102667D01*
X64666953Y-53245524D01*
X64762191Y-53340762D01*
X64905048Y-53388381D01*
X65000286Y-53388381D01*
X64238381Y-52388381D02*
X63619334Y-52388381D01*
X63952667Y-52769334D01*
X63809810Y-52769334D01*
X63714572Y-52816953D01*
X63666953Y-52864572D01*
X63619334Y-52959810D01*
X63619334Y-53197905D01*
X63666953Y-53293143D01*
X63714572Y-53340762D01*
X63809810Y-53388381D01*
X64095524Y-53388381D01*
X64190762Y-53340762D01*
X64238381Y-53293143D01*
%LPC*%
D12*
X137604028Y-119476037D03*
X137604028Y-122876037D03*
D13*
X126936028Y-125826037D03*
X137096028Y-116428037D03*
X137096028Y-125826037D03*
D14*
X135064028Y-115412037D03*
D15*
X133540028Y-115412037D03*
D16*
X131000028Y-126174037D03*
X131000028Y-124174037D03*
X131000028Y-122174037D03*
X131000028Y-120174037D03*
X131000028Y-118174037D03*
D17*
X131000028Y-116174037D03*
D12*
X114604019Y-119476037D03*
X114604019Y-122876037D03*
D13*
X103936019Y-125826037D03*
X114096019Y-116428037D03*
X114096019Y-125826037D03*
D14*
X112064019Y-115412037D03*
D15*
X110540019Y-115412037D03*
D16*
X108000019Y-126174037D03*
X108000019Y-124174037D03*
X108000019Y-122174037D03*
X108000019Y-120174037D03*
X108000019Y-118174037D03*
D17*
X108000019Y-116174037D03*
D12*
X91604010Y-119476037D03*
X91604010Y-122876037D03*
D13*
X80936010Y-125826037D03*
X91096010Y-116428037D03*
X91096010Y-125826037D03*
D14*
X89064010Y-115412037D03*
D15*
X87540010Y-115412037D03*
D16*
X85000010Y-126174037D03*
X85000010Y-124174037D03*
X85000010Y-122174037D03*
X85000010Y-120174037D03*
X85000010Y-118174037D03*
D17*
X85000010Y-116174037D03*
D12*
X68604001Y-119476037D03*
X68604001Y-122876037D03*
D13*
X57936001Y-125826037D03*
X68096001Y-116428037D03*
X68096001Y-125826037D03*
D14*
X66064001Y-115412037D03*
D15*
X64540001Y-115412037D03*
D16*
X62000001Y-126174037D03*
X62000001Y-124174037D03*
X62000001Y-122174037D03*
X62000001Y-120174037D03*
X62000001Y-118174037D03*
D17*
X62000001Y-116174037D03*
D12*
X137604028Y-103476028D03*
X137604028Y-106876028D03*
D13*
X126936028Y-109826028D03*
X137096028Y-100428028D03*
X137096028Y-109826028D03*
D14*
X135064028Y-99412028D03*
D15*
X133540028Y-99412028D03*
D16*
X131000028Y-110174028D03*
X131000028Y-108174028D03*
X131000028Y-106174028D03*
X131000028Y-104174028D03*
X131000028Y-102174028D03*
D17*
X131000028Y-100174028D03*
D12*
X114604019Y-103476028D03*
X114604019Y-106876028D03*
D13*
X103936019Y-109826028D03*
X114096019Y-100428028D03*
X114096019Y-109826028D03*
D14*
X112064019Y-99412028D03*
D15*
X110540019Y-99412028D03*
D16*
X108000019Y-110174028D03*
X108000019Y-108174028D03*
X108000019Y-106174028D03*
X108000019Y-104174028D03*
X108000019Y-102174028D03*
D17*
X108000019Y-100174028D03*
D12*
X91604010Y-103476028D03*
X91604010Y-106876028D03*
D13*
X80936010Y-109826028D03*
X91096010Y-100428028D03*
X91096010Y-109826028D03*
D14*
X89064010Y-99412028D03*
D15*
X87540010Y-99412028D03*
D16*
X85000010Y-110174028D03*
X85000010Y-108174028D03*
X85000010Y-106174028D03*
X85000010Y-104174028D03*
X85000010Y-102174028D03*
D17*
X85000010Y-100174028D03*
D12*
X68604001Y-103476028D03*
X68604001Y-106876028D03*
D13*
X57936001Y-109826028D03*
X68096001Y-100428028D03*
X68096001Y-109826028D03*
D14*
X66064001Y-99412028D03*
D15*
X64540001Y-99412028D03*
D16*
X62000001Y-110174028D03*
X62000001Y-108174028D03*
X62000001Y-106174028D03*
X62000001Y-104174028D03*
X62000001Y-102174028D03*
D17*
X62000001Y-100174028D03*
D12*
X137604028Y-87476019D03*
X137604028Y-90876019D03*
D13*
X126936028Y-93826019D03*
X137096028Y-84428019D03*
X137096028Y-93826019D03*
D14*
X135064028Y-83412019D03*
D15*
X133540028Y-83412019D03*
D16*
X131000028Y-94174019D03*
X131000028Y-92174019D03*
X131000028Y-90174019D03*
X131000028Y-88174019D03*
X131000028Y-86174019D03*
D17*
X131000028Y-84174019D03*
D12*
X114604019Y-87476019D03*
X114604019Y-90876019D03*
D13*
X103936019Y-93826019D03*
X114096019Y-84428019D03*
X114096019Y-93826019D03*
D14*
X112064019Y-83412019D03*
D15*
X110540019Y-83412019D03*
D16*
X108000019Y-94174019D03*
X108000019Y-92174019D03*
X108000019Y-90174019D03*
X108000019Y-88174019D03*
X108000019Y-86174019D03*
D17*
X108000019Y-84174019D03*
D12*
X91604010Y-87476019D03*
X91604010Y-90876019D03*
D13*
X80936010Y-93826019D03*
X91096010Y-84428019D03*
X91096010Y-93826019D03*
D14*
X89064010Y-83412019D03*
D15*
X87540010Y-83412019D03*
D16*
X85000010Y-94174019D03*
X85000010Y-92174019D03*
X85000010Y-90174019D03*
X85000010Y-88174019D03*
X85000010Y-86174019D03*
D17*
X85000010Y-84174019D03*
D12*
X68604001Y-87476019D03*
X68604001Y-90876019D03*
D13*
X57936001Y-93826019D03*
X68096001Y-84428019D03*
X68096001Y-93826019D03*
D14*
X66064001Y-83412019D03*
D15*
X64540001Y-83412019D03*
D16*
X62000001Y-94174019D03*
X62000001Y-92174019D03*
X62000001Y-90174019D03*
X62000001Y-88174019D03*
X62000001Y-86174019D03*
D17*
X62000001Y-84174019D03*
D12*
X137604028Y-71476010D03*
X137604028Y-74876010D03*
D13*
X126936028Y-77826010D03*
X137096028Y-68428010D03*
X137096028Y-77826010D03*
D14*
X135064028Y-67412010D03*
D15*
X133540028Y-67412010D03*
D16*
X131000028Y-78174010D03*
X131000028Y-76174010D03*
X131000028Y-74174010D03*
X131000028Y-72174010D03*
X131000028Y-70174010D03*
D17*
X131000028Y-68174010D03*
D12*
X114604019Y-71476010D03*
X114604019Y-74876010D03*
D13*
X103936019Y-77826010D03*
X114096019Y-68428010D03*
X114096019Y-77826010D03*
D14*
X112064019Y-67412010D03*
D15*
X110540019Y-67412010D03*
D16*
X108000019Y-78174010D03*
X108000019Y-76174010D03*
X108000019Y-74174010D03*
X108000019Y-72174010D03*
X108000019Y-70174010D03*
D17*
X108000019Y-68174010D03*
D12*
X91604010Y-71476010D03*
X91604010Y-74876010D03*
D13*
X80936010Y-77826010D03*
X91096010Y-68428010D03*
X91096010Y-77826010D03*
D14*
X89064010Y-67412010D03*
D15*
X87540010Y-67412010D03*
D16*
X85000010Y-78174010D03*
X85000010Y-76174010D03*
X85000010Y-74174010D03*
X85000010Y-72174010D03*
X85000010Y-70174010D03*
D17*
X85000010Y-68174010D03*
D12*
X68604001Y-71476010D03*
X68604001Y-74876010D03*
D13*
X57936001Y-77826010D03*
X68096001Y-68428010D03*
X68096001Y-77826010D03*
D14*
X66064001Y-67412010D03*
D15*
X64540001Y-67412010D03*
D16*
X62000001Y-78174010D03*
X62000001Y-76174010D03*
X62000001Y-74174010D03*
X62000001Y-72174010D03*
X62000001Y-70174010D03*
D17*
X62000001Y-68174010D03*
D12*
X137604028Y-55476001D03*
X137604028Y-58876001D03*
D13*
X126936028Y-61826001D03*
X137096028Y-52428001D03*
X137096028Y-61826001D03*
D14*
X135064028Y-51412001D03*
D15*
X133540028Y-51412001D03*
D16*
X131000028Y-62174001D03*
X131000028Y-60174001D03*
X131000028Y-58174001D03*
X131000028Y-56174001D03*
X131000028Y-54174001D03*
D17*
X131000028Y-52174001D03*
D12*
X114604019Y-55476001D03*
X114604019Y-58876001D03*
D13*
X103936019Y-61826001D03*
X114096019Y-52428001D03*
X114096019Y-61826001D03*
D14*
X112064019Y-51412001D03*
D15*
X110540019Y-51412001D03*
D16*
X108000019Y-62174001D03*
X108000019Y-60174001D03*
X108000019Y-58174001D03*
X108000019Y-56174001D03*
X108000019Y-54174001D03*
D17*
X108000019Y-52174001D03*
D12*
X91604010Y-55476001D03*
X91604010Y-58876001D03*
D13*
X80936010Y-61826001D03*
X91096010Y-52428001D03*
X91096010Y-61826001D03*
D14*
X89064010Y-51412001D03*
D15*
X87540010Y-51412001D03*
D16*
X85000010Y-62174001D03*
X85000010Y-60174001D03*
X85000010Y-58174001D03*
X85000010Y-56174001D03*
X85000010Y-54174001D03*
D17*
X85000010Y-52174001D03*
D12*
X68604001Y-55476001D03*
X68604001Y-58876001D03*
D13*
X57936001Y-61826001D03*
X68096001Y-52428001D03*
X68096001Y-61826001D03*
D14*
X66064001Y-51412001D03*
D15*
X64540001Y-51412001D03*
D16*
X62000001Y-62174001D03*
X62000001Y-60174001D03*
X62000001Y-58174001D03*
X62000001Y-56174001D03*
X62000001Y-54174001D03*
D17*
X62000001Y-52174001D03*
M02*
