G04 #@! TF.GenerationSoftware,KiCad,Pcbnew,(5.1.8)-1*
G04 #@! TF.CreationDate,2021-11-13T10:16:22+08:00*
G04 #@! TF.ProjectId,haptic-cloth-panelized-small,68617074-6963-42d6-936c-6f74682d7061,rev?*
G04 #@! TF.SameCoordinates,Original*
G04 #@! TF.FileFunction,Paste,Bot*
G04 #@! TF.FilePolarity,Positive*
%FSLAX46Y46*%
G04 Gerber Fmt 4.6, Leading zero omitted, Abs format (unit mm)*
G04 Created by KiCad (PCBNEW (5.1.8)-1) date 2021-11-13 10:16:22*
%MOMM*%
%LPD*%
G01*
G04 APERTURE LIST*
%ADD10O,1.350000X1.350000*%
%ADD11R,1.350000X1.350000*%
G04 APERTURE END LIST*
D10*
X131000028Y-126174037D03*
D11*
X131000028Y-116174037D03*
D10*
X108000019Y-126174037D03*
D11*
X108000019Y-116174037D03*
D10*
X85000010Y-126174037D03*
D11*
X85000010Y-116174037D03*
D10*
X62000001Y-126174037D03*
D11*
X62000001Y-116174037D03*
D10*
X131000028Y-110174028D03*
D11*
X131000028Y-100174028D03*
D10*
X108000019Y-110174028D03*
D11*
X108000019Y-100174028D03*
D10*
X85000010Y-110174028D03*
D11*
X85000010Y-100174028D03*
D10*
X62000001Y-110174028D03*
D11*
X62000001Y-100174028D03*
D10*
X131000028Y-94174019D03*
D11*
X131000028Y-84174019D03*
D10*
X108000019Y-94174019D03*
D11*
X108000019Y-84174019D03*
D10*
X85000010Y-94174019D03*
D11*
X85000010Y-84174019D03*
D10*
X62000001Y-94174019D03*
D11*
X62000001Y-84174019D03*
D10*
X131000028Y-78174010D03*
D11*
X131000028Y-68174010D03*
D10*
X108000019Y-78174010D03*
D11*
X108000019Y-68174010D03*
D10*
X85000010Y-78174010D03*
D11*
X85000010Y-68174010D03*
D10*
X62000001Y-78174010D03*
D11*
X62000001Y-68174010D03*
D10*
X131000028Y-62174001D03*
D11*
X131000028Y-52174001D03*
D10*
X108000019Y-62174001D03*
D11*
X108000019Y-52174001D03*
D10*
X85000010Y-62174001D03*
D11*
X85000010Y-52174001D03*
D10*
X62000001Y-62174001D03*
D11*
X62000001Y-52174001D03*
M02*
