M48
; DRILL file {KiCad (5.1.8)-1} date 11/13/21 10:16:30
; FORMAT={-:-/ absolute / metric / decimal}
; #@! TF.CreationDate,2021-11-13T10:16:30+08:00
; #@! TF.GenerationSoftware,Kicad,Pcbnew,(5.1.8)-1
; #@! TF.FileFunction,Plated,1,2,PTH
FMAT,2
METRIC
T1C0.300
T2C0.500
T3C0.800
%
G90
G05
T1
X51.465Y-57.815
X51.465Y-61.58
X51.465Y-73.815
X51.465Y-77.58
X51.465Y-89.815
X51.465Y-93.58
X51.465Y-105.815
X51.465Y-109.58
X51.465Y-121.815
X51.465Y-125.58
X52.729Y-52.301
X52.729Y-53.571
X52.729Y-68.301
X52.729Y-69.571
X52.729Y-84.301
X52.729Y-85.571
X52.729Y-100.301
X52.729Y-101.571
X52.729Y-116.301
X52.729Y-117.571
X52.971Y-54.803
X52.971Y-70.803
X52.971Y-86.803
X52.971Y-102.803
X52.971Y-118.803
X53.724Y-63.086
X53.724Y-79.086
X53.724Y-95.086
X53.724Y-111.086
X53.724Y-127.086
X54.477Y-51.038
X54.477Y-57.062
X54.477Y-67.038
X54.477Y-73.062
X54.477Y-83.038
X54.477Y-89.062
X54.477Y-99.038
X54.477Y-105.062
X54.477Y-115.038
X54.477Y-121.062
X55.142Y-54.841
X55.142Y-70.841
X55.142Y-86.841
X55.142Y-102.841
X55.142Y-118.841
X58.242Y-57.815
X58.242Y-73.815
X58.242Y-89.815
X58.242Y-105.815
X58.242Y-121.815
X58.917Y-53.803
X58.917Y-69.803
X58.917Y-85.803
X58.917Y-101.803
X58.917Y-117.803
X59.333Y-50.904
X59.333Y-66.904
X59.333Y-82.904
X59.333Y-98.904
X59.333Y-114.904
X59.67Y-53.828
X59.67Y-69.828
X59.67Y-85.828
X59.67Y-101.828
X59.67Y-117.828
X60.73Y-52.301
X60.73Y-68.301
X60.73Y-84.301
X60.73Y-100.301
X60.73Y-116.301
X60.793Y-61.889
X60.793Y-77.889
X60.793Y-93.89
X60.793Y-109.89
X60.793Y-125.89
X63.27Y-52.311
X63.27Y-68.311
X63.27Y-84.311
X63.27Y-100.311
X63.27Y-116.311
X63.513Y-57.815
X63.513Y-62.333
X63.513Y-73.815
X63.513Y-78.333
X63.513Y-89.815
X63.513Y-94.333
X63.513Y-105.815
X63.513Y-110.333
X63.513Y-121.815
X63.513Y-126.333
X65.019Y-53.297
X65.019Y-69.297
X65.019Y-85.297
X65.019Y-101.297
X65.019Y-117.297
X65.772Y-60.074
X65.772Y-76.074
X65.772Y-92.074
X65.772Y-108.074
X65.772Y-124.074
X74.465Y-57.815
X74.465Y-61.58
X74.465Y-73.815
X74.465Y-77.58
X74.465Y-89.815
X74.465Y-93.58
X74.465Y-105.815
X74.465Y-109.58
X74.465Y-121.815
X74.465Y-125.58
X75.729Y-52.301
X75.729Y-53.571
X75.729Y-68.301
X75.729Y-69.571
X75.729Y-84.301
X75.729Y-85.571
X75.729Y-100.301
X75.729Y-101.571
X75.729Y-116.301
X75.729Y-117.571
X75.971Y-54.803
X75.971Y-70.803
X75.971Y-86.803
X75.971Y-102.803
X75.971Y-118.803
X76.724Y-63.086
X76.724Y-79.086
X76.724Y-95.086
X76.724Y-111.086
X76.724Y-127.086
X77.477Y-51.038
X77.477Y-57.062
X77.477Y-67.038
X77.477Y-73.062
X77.477Y-83.038
X77.477Y-89.062
X77.477Y-99.038
X77.477Y-105.062
X77.477Y-115.038
X77.477Y-121.062
X78.142Y-54.841
X78.142Y-70.841
X78.142Y-86.841
X78.142Y-102.841
X78.142Y-118.841
X81.242Y-57.815
X81.242Y-73.815
X81.242Y-89.815
X81.242Y-105.815
X81.242Y-121.815
X81.917Y-53.803
X81.917Y-69.803
X81.917Y-85.803
X81.917Y-101.803
X81.917Y-117.803
X82.333Y-50.904
X82.333Y-66.904
X82.333Y-82.904
X82.333Y-98.904
X82.333Y-114.904
X82.67Y-53.828
X82.67Y-69.828
X82.67Y-85.828
X82.67Y-101.828
X82.67Y-117.828
X83.73Y-52.301
X83.73Y-68.301
X83.73Y-84.301
X83.73Y-100.301
X83.73Y-116.301
X83.793Y-61.889
X83.793Y-77.889
X83.793Y-93.89
X83.793Y-109.89
X83.793Y-125.89
X86.27Y-52.311
X86.27Y-68.311
X86.27Y-84.311
X86.27Y-100.311
X86.27Y-116.311
X86.513Y-57.815
X86.513Y-62.333
X86.513Y-73.815
X86.513Y-78.333
X86.513Y-89.815
X86.513Y-94.333
X86.513Y-105.815
X86.513Y-110.333
X86.513Y-121.815
X86.513Y-126.333
X88.019Y-53.297
X88.019Y-69.297
X88.019Y-85.297
X88.019Y-101.297
X88.019Y-117.297
X88.772Y-60.074
X88.772Y-76.074
X88.772Y-92.074
X88.772Y-108.074
X88.772Y-124.074
X97.465Y-57.815
X97.465Y-61.58
X97.465Y-73.815
X97.465Y-77.58
X97.465Y-89.815
X97.465Y-93.58
X97.465Y-105.815
X97.465Y-109.58
X97.465Y-121.815
X97.465Y-125.58
X98.729Y-52.301
X98.729Y-53.571
X98.729Y-68.301
X98.729Y-69.571
X98.729Y-84.301
X98.729Y-85.571
X98.729Y-100.301
X98.729Y-101.571
X98.729Y-116.301
X98.729Y-117.571
X98.971Y-54.803
X98.971Y-70.803
X98.971Y-86.803
X98.971Y-102.803
X98.971Y-118.803
X99.724Y-63.086
X99.724Y-79.086
X99.724Y-95.086
X99.724Y-111.086
X99.724Y-127.086
X100.477Y-51.038
X100.477Y-57.062
X100.477Y-67.038
X100.477Y-73.062
X100.477Y-83.038
X100.477Y-89.062
X100.477Y-99.038
X100.477Y-105.062
X100.477Y-115.038
X100.477Y-121.062
X101.142Y-54.841
X101.142Y-70.841
X101.142Y-86.841
X101.142Y-102.841
X101.142Y-118.841
X104.242Y-57.815
X104.242Y-73.815
X104.242Y-89.815
X104.242Y-105.815
X104.242Y-121.815
X104.917Y-53.803
X104.917Y-69.803
X104.917Y-85.803
X104.917Y-101.803
X104.917Y-117.803
X105.333Y-50.904
X105.333Y-66.904
X105.333Y-82.904
X105.333Y-98.904
X105.333Y-114.904
X105.67Y-53.828
X105.67Y-69.828
X105.67Y-85.828
X105.67Y-101.828
X105.67Y-117.828
X106.73Y-52.301
X106.73Y-68.301
X106.73Y-84.301
X106.73Y-100.301
X106.73Y-116.301
X106.794Y-61.889
X106.794Y-77.889
X106.794Y-93.89
X106.794Y-109.89
X106.794Y-125.89
X109.27Y-52.311
X109.27Y-68.311
X109.27Y-84.311
X109.27Y-100.311
X109.27Y-116.311
X109.513Y-57.815
X109.513Y-62.333
X109.513Y-73.815
X109.513Y-78.333
X109.513Y-89.815
X109.513Y-94.333
X109.513Y-105.815
X109.513Y-110.333
X109.513Y-121.815
X109.513Y-126.333
X111.019Y-53.297
X111.019Y-69.297
X111.019Y-85.297
X111.019Y-101.297
X111.019Y-117.297
X111.772Y-60.074
X111.772Y-76.074
X111.772Y-92.074
X111.772Y-108.074
X111.772Y-124.074
X120.465Y-57.815
X120.465Y-61.58
X120.465Y-73.815
X120.465Y-77.58
X120.465Y-89.815
X120.465Y-93.58
X120.465Y-105.815
X120.465Y-109.58
X120.465Y-121.815
X120.465Y-125.58
X121.729Y-52.301
X121.729Y-53.571
X121.729Y-68.301
X121.729Y-69.571
X121.729Y-84.301
X121.729Y-85.571
X121.729Y-100.301
X121.729Y-101.571
X121.729Y-116.301
X121.729Y-117.571
X121.971Y-54.803
X121.971Y-70.803
X121.971Y-86.803
X121.971Y-102.803
X121.971Y-118.803
X122.724Y-63.086
X122.724Y-79.086
X122.724Y-95.086
X122.724Y-111.086
X122.724Y-127.086
X123.477Y-51.038
X123.477Y-57.062
X123.477Y-67.038
X123.477Y-73.062
X123.477Y-83.038
X123.477Y-89.062
X123.477Y-99.038
X123.477Y-105.062
X123.477Y-115.038
X123.477Y-121.062
X124.142Y-54.841
X124.142Y-70.841
X124.142Y-86.841
X124.142Y-102.841
X124.142Y-118.841
X127.242Y-57.815
X127.242Y-73.815
X127.242Y-89.815
X127.242Y-105.815
X127.242Y-121.815
X127.917Y-53.803
X127.917Y-69.803
X127.917Y-85.803
X127.917Y-101.803
X127.917Y-117.803
X128.333Y-50.904
X128.333Y-66.904
X128.333Y-82.904
X128.333Y-98.904
X128.333Y-114.904
X128.67Y-53.828
X128.67Y-69.828
X128.67Y-85.828
X128.67Y-101.828
X128.67Y-117.828
X129.73Y-52.301
X129.73Y-68.301
X129.73Y-84.301
X129.73Y-100.301
X129.73Y-116.301
X129.794Y-61.889
X129.794Y-77.889
X129.794Y-93.89
X129.794Y-109.89
X129.794Y-125.89
X132.27Y-52.311
X132.27Y-68.311
X132.27Y-84.311
X132.27Y-100.311
X132.27Y-116.311
X132.513Y-57.815
X132.513Y-62.333
X132.513Y-73.815
X132.513Y-78.333
X132.513Y-89.815
X132.513Y-94.333
X132.513Y-105.815
X132.513Y-110.333
X132.513Y-121.815
X132.513Y-126.333
X134.019Y-53.297
X134.019Y-69.297
X134.019Y-85.297
X134.019Y-101.297
X134.019Y-117.297
X134.772Y-60.074
X134.772Y-76.074
X134.772Y-92.074
X134.772Y-108.074
X134.772Y-124.074
T2
X110.54Y-51.412
X112.064Y-51.412
X64.54Y-83.412
X66.064Y-83.412
X110.54Y-99.412
X112.064Y-99.412
X87.54Y-115.412
X89.064Y-115.412
X87.54Y-67.412
X89.064Y-67.412
X64.54Y-115.412
X66.064Y-115.412
X87.54Y-51.412
X89.064Y-51.412
X87.54Y-99.412
X89.064Y-99.412
X133.54Y-115.412
X135.064Y-115.412
X64.54Y-67.412
X66.064Y-67.412
X110.54Y-83.412
X112.064Y-83.412
X133.54Y-99.412
X135.064Y-99.412
X133.54Y-83.412
X135.064Y-83.412
X110.54Y-67.412
X112.064Y-67.412
X64.54Y-51.412
X66.064Y-51.412
X87.54Y-83.412
X89.064Y-83.412
X133.54Y-51.412
X135.064Y-51.412
X64.54Y-99.412
X66.064Y-99.412
X110.54Y-115.412
X112.064Y-115.412
X133.54Y-67.412
X135.064Y-67.412
T3
X137.604Y-87.476
X137.604Y-90.876
X91.604Y-87.476
X91.604Y-90.876
X137.604Y-119.476
X137.604Y-122.876
X131.0Y-102.174
X131.0Y-104.174
X131.0Y-106.174
X131.0Y-108.174
X91.604Y-71.476
X91.604Y-74.876
X108.0Y-70.174
X108.0Y-72.174
X108.0Y-74.174
X108.0Y-76.174
X85.0Y-54.174
X85.0Y-56.174
X85.0Y-58.174
X85.0Y-60.174
X91.604Y-103.476
X91.604Y-106.876
X68.604Y-87.476
X68.604Y-90.876
X137.604Y-55.476
X137.604Y-58.876
X68.604Y-103.476
X68.604Y-106.876
X68.604Y-119.476
X68.604Y-122.876
X62.0Y-102.174
X62.0Y-104.174
X62.0Y-106.174
X62.0Y-108.174
X137.604Y-71.476
X137.604Y-74.876
X62.0Y-54.174
X62.0Y-56.174
X62.0Y-58.174
X62.0Y-60.174
X62.0Y-86.174
X62.0Y-88.174
X62.0Y-90.174
X62.0Y-92.174
X108.0Y-54.174
X108.0Y-56.174
X108.0Y-58.174
X108.0Y-60.174
X131.0Y-118.174
X131.0Y-120.174
X131.0Y-122.174
X131.0Y-124.174
X108.0Y-86.174
X108.0Y-88.174
X108.0Y-90.174
X108.0Y-92.174
X85.0Y-118.174
X85.0Y-120.174
X85.0Y-122.174
X85.0Y-124.174
X85.0Y-70.174
X85.0Y-72.174
X85.0Y-74.174
X85.0Y-76.174
X68.604Y-55.476
X68.604Y-58.876
X114.604Y-55.476
X114.604Y-58.876
X131.0Y-54.174
X131.0Y-56.174
X131.0Y-58.174
X131.0Y-60.174
X114.604Y-103.476
X114.604Y-106.876
X114.604Y-87.476
X114.604Y-90.876
X68.604Y-71.476
X68.604Y-74.876
X108.0Y-118.174
X108.0Y-120.174
X108.0Y-122.174
X108.0Y-124.174
X62.0Y-118.174
X62.0Y-120.174
X62.0Y-122.174
X62.0Y-124.174
X91.604Y-119.476
X91.604Y-122.876
X131.0Y-70.174
X131.0Y-72.174
X131.0Y-74.174
X131.0Y-76.174
X114.604Y-119.476
X114.604Y-122.876
X108.0Y-102.174
X108.0Y-104.174
X108.0Y-106.174
X108.0Y-108.174
X85.0Y-102.174
X85.0Y-104.174
X85.0Y-106.174
X85.0Y-108.174
X114.604Y-71.476
X114.604Y-74.876
X91.604Y-55.476
X91.604Y-58.876
X85.0Y-86.174
X85.0Y-88.174
X85.0Y-90.174
X85.0Y-92.174
X131.0Y-86.174
X131.0Y-88.174
X131.0Y-90.174
X131.0Y-92.174
X137.604Y-103.476
X137.604Y-106.876
X62.0Y-70.174
X62.0Y-72.174
X62.0Y-74.174
X62.0Y-76.174
T0
M30
