M48
; DRILL file {KiCad (5.1.8)-1} date 11/13/21 10:16:30
; FORMAT={-:-/ absolute / metric / decimal}
; #@! TF.CreationDate,2021-11-13T10:16:30+08:00
; #@! TF.GenerationSoftware,Kicad,Pcbnew,(5.1.8)-1
; #@! TF.FileFunction,NonPlated,1,2,NPTH
FMAT,2
METRIC
T1C0.500
T2C2.500
%
G90
G05
T1
X96.249Y-103.5
X124.5Y-66.249
X86.5Y-63.751
X79.5Y-114.249
X101.5Y-98.249
X116.751Y-103.5
X127.5Y-79.751
X131.5Y-63.751
X127.5Y-114.249
X132.5Y-98.249
X86.5Y-82.249
X58.5Y-66.249
X73.249Y-57.5
X131.5Y-98.249
X133.5Y-79.751
X57.5Y-79.751
X50.249Y-72.5
X125.5Y-111.751
X116.751Y-90.5
X63.5Y-95.751
X93.751Y-71.5
X139.751Y-56.5
X108.5Y-111.751
X50.249Y-103.5
X70.751Y-90.5
X139.751Y-72.5
X133.5Y-66.249
X119.249Y-55.5
X104.5Y-111.751
X103.5Y-95.751
X73.249Y-88.5
X96.249Y-71.5
X125.5Y-66.249
X134.5Y-82.249
X116.751Y-72.5
X81.5Y-82.249
X70.751Y-122.5
X104.5Y-82.249
X96.249Y-119.5
X139.751Y-105.5
X88.5Y-95.751
X119.249Y-103.5
X132.5Y-95.751
X63.5Y-63.751
X62.5Y-98.249
X78.5Y-98.249
X93.751Y-120.5
X85.5Y-66.249
X62.5Y-63.751
X87.5Y-98.249
X87.5Y-79.751
X110.5Y-63.751
X108.5Y-114.249
X58.5Y-98.249
X70.751Y-106.5
X110.5Y-79.751
X85.5Y-63.751
X50.249Y-56.5
X56.5Y-111.751
X116.751Y-105.5
X104.5Y-79.751
X79.5Y-66.249
X80.5Y-114.249
X131.5Y-111.751
X96.249Y-106.5
X131.5Y-79.751
X124.5Y-63.751
X110.5Y-114.249
X133.5Y-98.249
X55.5Y-95.751
X108.5Y-63.751
X133.5Y-114.249
X62.5Y-114.249
X132.5Y-79.751
X132.5Y-63.751
X50.249Y-71.5
X111.5Y-98.249
X139.751Y-90.5
X50.249Y-88.5
X85.5Y-82.249
X93.751Y-74.5
X116.751Y-58.5
X134.5Y-98.249
X125.5Y-95.751
X119.249Y-88.5
X93.751Y-87.5
X50.249Y-89.5
X134.5Y-79.751
X139.751Y-55.5
X125.5Y-98.249
X131.5Y-82.249
X96.249Y-89.5
X116.751Y-71.5
X64.5Y-95.751
X101.5Y-82.249
X139.751Y-119.5
X96.249Y-72.5
X73.249Y-121.5
X102.5Y-95.751
X119.249Y-106.5
X102.5Y-82.249
X119.249Y-122.5
X50.249Y-122.5
X127.5Y-82.249
X86.5Y-111.751
X64.5Y-63.751
X81.5Y-111.751
X93.751Y-121.5
X86.5Y-66.249
X104.5Y-63.751
X102.5Y-98.249
X88.5Y-79.751
X55.5Y-79.751
X70.751Y-58.5
X65.5Y-111.751
X73.249Y-106.5
X108.5Y-79.751
X55.5Y-66.249
X132.5Y-114.249
X79.5Y-111.751
X96.249Y-105.5
X103.5Y-79.751
X134.5Y-63.751
X81.5Y-114.249
X111.5Y-111.751
X116.751Y-104.5
X64.5Y-82.249
X62.5Y-79.751
X124.5Y-114.249
X58.5Y-114.249
X56.5Y-82.249
X80.5Y-63.751
X139.751Y-58.5
X73.249Y-58.5
X56.5Y-114.249
X65.5Y-82.249
X63.5Y-66.249
X70.751Y-71.5
X93.751Y-56.5
X127.5Y-98.249
X50.249Y-105.5
X50.249Y-87.5
X78.5Y-95.751
X93.751Y-73.5
X119.249Y-58.5
X133.5Y-111.751
X133.5Y-82.249
X116.751Y-89.5
X73.249Y-90.5
X139.751Y-74.5
X58.5Y-82.249
X116.751Y-56.5
X124.5Y-95.751
X93.751Y-88.5
X119.249Y-74.5
X88.5Y-82.249
X109.5Y-82.249
X116.751Y-74.5
X70.751Y-121.5
X110.5Y-82.249
X119.249Y-121.5
X139.751Y-103.5
X103.5Y-82.249
X119.249Y-120.5
X50.249Y-120.5
X58.5Y-63.751
X80.5Y-111.751
X79.5Y-98.249
X73.249Y-119.5
X79.5Y-79.751
X81.5Y-63.751
X86.5Y-98.249
X86.5Y-79.751
X63.5Y-79.751
X73.249Y-56.5
X63.5Y-98.249
X93.751Y-106.5
X103.5Y-66.249
X111.5Y-63.751
X134.5Y-114.249
X62.5Y-111.751
X116.751Y-106.5
X102.5Y-79.751
X103.5Y-63.751
X85.5Y-114.249
X110.5Y-111.751
X126.5Y-66.249
X56.5Y-66.249
X70.751Y-56.5
X63.5Y-114.249
X58.5Y-95.751
X56.5Y-79.751
X50.249Y-74.5
X109.5Y-114.249
X108.5Y-98.249
X70.751Y-103.5
X65.5Y-95.751
X70.751Y-73.5
X93.751Y-58.5
X103.5Y-111.751
X119.249Y-90.5
X73.249Y-87.5
X55.5Y-82.249
X73.249Y-71.5
X119.249Y-56.5
X102.5Y-111.751
X131.5Y-95.751
X119.249Y-87.5
X96.249Y-88.5
X139.751Y-73.5
X134.5Y-66.249
X116.751Y-55.5
X133.5Y-95.751
X93.751Y-89.5
X119.249Y-73.5
X62.5Y-95.751
X111.5Y-95.751
X139.751Y-121.5
X50.249Y-121.5
X104.5Y-95.751
X116.751Y-119.5
X119.249Y-105.5
X111.5Y-82.249
X55.5Y-98.249
X96.249Y-122.5
X88.5Y-98.249
X93.751Y-122.5
X87.5Y-66.249
X79.5Y-63.751
X85.5Y-98.249
X101.5Y-66.249
X80.5Y-66.249
X102.5Y-114.249
X64.5Y-98.249
X73.249Y-104.5
X109.5Y-66.249
X133.5Y-63.751
X73.249Y-55.5
X87.5Y-111.751
X70.751Y-105.5
X101.5Y-79.751
X102.5Y-63.751
X86.5Y-114.249
X109.5Y-111.751
X127.5Y-66.249
X64.5Y-66.249
X125.5Y-114.249
X127.5Y-111.751
X126.5Y-79.751
X65.5Y-79.751
X70.751Y-72.5
X50.249Y-57.5
X132.5Y-111.751
X70.751Y-104.5
X79.5Y-95.751
X73.249Y-73.5
X96.249Y-58.5
X101.5Y-111.751
X50.249Y-104.5
X70.751Y-87.5
X56.5Y-95.751
X139.751Y-57.5
X119.249Y-57.5
X57.5Y-114.249
X108.5Y-82.249
X139.751Y-88.5
X93.751Y-90.5
X119.249Y-72.5
X57.5Y-82.249
X93.751Y-57.5
X87.5Y-95.751
X96.249Y-87.5
X119.249Y-71.5
X78.5Y-82.249
X126.5Y-95.751
X50.249Y-119.5
X134.5Y-95.751
X119.249Y-119.5
X73.249Y-122.5
X110.5Y-95.751
X139.751Y-120.5
X56.5Y-98.249
X96.249Y-121.5
X80.5Y-79.751
X57.5Y-63.751
X78.5Y-111.751
X96.249Y-120.5
X88.5Y-66.249
X126.5Y-63.751
X58.5Y-111.751
X102.5Y-66.249
X109.5Y-63.751
X101.5Y-114.249
X65.5Y-98.249
X93.751Y-105.5
X110.5Y-66.249
X78.5Y-66.249
X50.249Y-55.5
X104.5Y-98.249
X73.249Y-103.5
X111.5Y-79.751
X101.5Y-63.751
X88.5Y-114.249
X124.5Y-98.249
X131.5Y-66.249
X58.5Y-79.751
X70.751Y-57.5
X65.5Y-114.249
X125.5Y-79.751
X125.5Y-63.751
X93.751Y-72.5
X131.5Y-114.249
X126.5Y-111.751
X116.751Y-87.5
X132.5Y-66.249
X70.751Y-74.5
X96.249Y-56.5
X126.5Y-98.249
X119.249Y-89.5
X70.751Y-88.5
X79.5Y-82.249
X73.249Y-74.5
X96.249Y-57.5
X109.5Y-98.249
X101.5Y-95.751
X139.751Y-89.5
X96.249Y-90.5
X96.249Y-73.5
X62.5Y-82.249
X93.751Y-55.5
X109.5Y-95.751
X116.751Y-73.5
X87.5Y-82.249
X85.5Y-95.751
X116.751Y-120.5
X139.751Y-106.5
X132.5Y-82.249
X116.751Y-121.5
X139.751Y-104.5
X127.5Y-95.751
X65.5Y-63.751
X57.5Y-98.249
X73.249Y-120.5
X78.5Y-79.751
X56.5Y-63.751
X80.5Y-98.249
X81.5Y-79.751
X78.5Y-63.751
X70.751Y-55.5
X64.5Y-111.751
X93.751Y-103.5
X108.5Y-66.249
X127.5Y-63.751
X111.5Y-114.249
X57.5Y-111.751
X93.751Y-104.5
X111.5Y-66.249
X87.5Y-63.751
X78.5Y-114.249
X85.5Y-111.751
X96.249Y-104.5
X109.5Y-79.751
X57.5Y-66.249
X103.5Y-114.249
X55.5Y-114.249
X80.5Y-82.249
X65.5Y-66.249
X126.5Y-114.249
X64.5Y-114.249
X124.5Y-79.751
X62.5Y-66.249
X50.249Y-73.5
X50.249Y-58.5
X134.5Y-111.751
X116.751Y-88.5
X80.5Y-95.751
X73.249Y-72.5
X116.751Y-57.5
X124.5Y-111.751
X139.751Y-87.5
X70.751Y-89.5
X139.751Y-71.5
X81.5Y-95.751
X96.249Y-55.5
X110.5Y-98.249
X124.5Y-82.249
X50.249Y-106.5
X73.249Y-89.5
X96.249Y-74.5
X63.5Y-82.249
X108.5Y-95.751
X50.249Y-90.5
X57.5Y-95.751
X70.751Y-120.5
X86.5Y-95.751
X139.751Y-122.5
X70.751Y-119.5
X126.5Y-82.249
X116.751Y-122.5
X119.249Y-104.5
X125.5Y-82.249
X103.5Y-98.249
X55.5Y-111.751
X93.751Y-119.5
X81.5Y-66.249
X55.5Y-63.751
X63.5Y-111.751
X85.5Y-79.751
X88.5Y-63.751
X87.5Y-114.249
X88.5Y-111.751
X73.249Y-105.5
X104.5Y-66.249
X64.5Y-79.751
X104.5Y-114.249
X81.5Y-98.249
T2
X126.936Y-93.826
X68.096Y-52.428
X80.936Y-61.826
X57.936Y-93.826
X114.096Y-52.428
X91.096Y-84.428
X91.096Y-93.826
X137.096Y-125.826
X137.096Y-116.428
X126.936Y-109.826
X91.096Y-77.826
X91.096Y-116.428
X57.936Y-109.826
X91.096Y-125.826
X137.096Y-100.428
X57.936Y-61.826
X68.096Y-84.428
X80.936Y-93.826
X137.096Y-93.826
X68.096Y-77.826
X68.096Y-109.826
X103.936Y-77.826
X126.936Y-77.826
X114.096Y-116.428
X126.936Y-125.826
X114.096Y-109.826
X137.096Y-84.428
X68.096Y-68.428
X68.096Y-100.428
X57.936Y-125.826
X68.096Y-61.826
X114.096Y-61.826
X68.096Y-93.826
X91.096Y-100.428
X103.936Y-125.826
X91.096Y-109.826
X114.096Y-125.826
X114.096Y-100.428
X137.096Y-52.428
X68.096Y-125.826
X68.096Y-116.428
X137.096Y-77.826
X91.096Y-68.428
X91.096Y-61.826
X103.936Y-61.826
X103.936Y-109.826
X114.096Y-93.826
X126.936Y-61.826
X80.936Y-125.826
X137.096Y-68.428
X80.936Y-77.826
X80.936Y-109.826
X91.096Y-52.428
X114.096Y-84.428
X57.936Y-77.826
X114.096Y-77.826
X114.096Y-68.428
X103.936Y-93.826
X137.096Y-61.826
X137.096Y-109.826
T0
M30
