G04 #@! TF.GenerationSoftware,KiCad,Pcbnew,(5.1.8)-1*
G04 #@! TF.CreationDate,2021-11-13T10:16:22+08:00*
G04 #@! TF.ProjectId,haptic-cloth-panelized-small,68617074-6963-42d6-936c-6f74682d7061,rev?*
G04 #@! TF.SameCoordinates,Original*
G04 #@! TF.FileFunction,Paste,Top*
G04 #@! TF.FilePolarity,Positive*
%FSLAX46Y46*%
G04 Gerber Fmt 4.6, Leading zero omitted, Abs format (unit mm)*
G04 Created by KiCad (PCBNEW (5.1.8)-1) date 2021-11-13 10:16:22*
%MOMM*%
%LPD*%
G01*
G04 APERTURE LIST*
%ADD10R,0.800000X0.900000*%
%ADD11R,0.600000X0.700000*%
%ADD12R,0.700000X0.600000*%
G04 APERTURE END LIST*
D10*
X129410028Y-114920037D03*
X127510028Y-114920037D03*
X128460028Y-116920037D03*
D11*
X130808028Y-115412037D03*
X132208028Y-115412037D03*
D12*
X125920028Y-123224037D03*
X125920028Y-121824037D03*
G36*
G01*
X123260028Y-122244037D02*
X124660028Y-122244037D01*
G75*
G02*
X124810028Y-122394037I0J-150000D01*
G01*
X124810028Y-122694037D01*
G75*
G02*
X124660028Y-122844037I-150000J0D01*
G01*
X123260028Y-122844037D01*
G75*
G02*
X123110028Y-122694037I0J150000D01*
G01*
X123110028Y-122394037D01*
G75*
G02*
X123260028Y-122244037I150000J0D01*
G01*
G37*
G36*
G01*
X123260028Y-123494037D02*
X124660028Y-123494037D01*
G75*
G02*
X124810028Y-123644037I0J-150000D01*
G01*
X124810028Y-123944037D01*
G75*
G02*
X124660028Y-124094037I-150000J0D01*
G01*
X123260028Y-124094037D01*
G75*
G02*
X123110028Y-123944037I0J150000D01*
G01*
X123110028Y-123644037D01*
G75*
G02*
X123260028Y-123494037I150000J0D01*
G01*
G37*
G36*
G01*
X123260028Y-124744037D02*
X124660028Y-124744037D01*
G75*
G02*
X124810028Y-124894037I0J-150000D01*
G01*
X124810028Y-125194037D01*
G75*
G02*
X124660028Y-125344037I-150000J0D01*
G01*
X123260028Y-125344037D01*
G75*
G02*
X123110028Y-125194037I0J150000D01*
G01*
X123110028Y-124894037D01*
G75*
G02*
X123260028Y-124744037I150000J0D01*
G01*
G37*
G36*
G01*
X119660028Y-120194037D02*
X121860028Y-120194037D01*
G75*
G02*
X122110028Y-120444037I0J-250000D01*
G01*
X122110028Y-120944037D01*
G75*
G02*
X121860028Y-121194037I-250000J0D01*
G01*
X119660028Y-121194037D01*
G75*
G02*
X119410028Y-120944037I0J250000D01*
G01*
X119410028Y-120444037D01*
G75*
G02*
X119660028Y-120194037I250000J0D01*
G01*
G37*
G36*
G01*
X119660028Y-126394037D02*
X121860028Y-126394037D01*
G75*
G02*
X122110028Y-126644037I0J-250000D01*
G01*
X122110028Y-127144037D01*
G75*
G02*
X121860028Y-127394037I-250000J0D01*
G01*
X119660028Y-127394037D01*
G75*
G02*
X119410028Y-127144037I0J250000D01*
G01*
X119410028Y-126644037D01*
G75*
G02*
X119660028Y-126394037I250000J0D01*
G01*
G37*
G36*
G01*
X126322028Y-118691037D02*
X126322028Y-118991037D01*
G75*
G02*
X126172028Y-119141037I-150000J0D01*
G01*
X124722028Y-119141037D01*
G75*
G02*
X124572028Y-118991037I0J150000D01*
G01*
X124572028Y-118691037D01*
G75*
G02*
X124722028Y-118541037I150000J0D01*
G01*
X126172028Y-118541037D01*
G75*
G02*
X126322028Y-118691037I0J-150000D01*
G01*
G37*
G36*
G01*
X126322028Y-117421037D02*
X126322028Y-117721037D01*
G75*
G02*
X126172028Y-117871037I-150000J0D01*
G01*
X124722028Y-117871037D01*
G75*
G02*
X124572028Y-117721037I0J150000D01*
G01*
X124572028Y-117421037D01*
G75*
G02*
X124722028Y-117271037I150000J0D01*
G01*
X126172028Y-117271037D01*
G75*
G02*
X126322028Y-117421037I0J-150000D01*
G01*
G37*
G36*
G01*
X126322028Y-116151037D02*
X126322028Y-116451037D01*
G75*
G02*
X126172028Y-116601037I-150000J0D01*
G01*
X124722028Y-116601037D01*
G75*
G02*
X124572028Y-116451037I0J150000D01*
G01*
X124572028Y-116151037D01*
G75*
G02*
X124722028Y-116001037I150000J0D01*
G01*
X126172028Y-116001037D01*
G75*
G02*
X126322028Y-116151037I0J-150000D01*
G01*
G37*
G36*
G01*
X126322028Y-114881037D02*
X126322028Y-115181037D01*
G75*
G02*
X126172028Y-115331037I-150000J0D01*
G01*
X124722028Y-115331037D01*
G75*
G02*
X124572028Y-115181037I0J150000D01*
G01*
X124572028Y-114881037D01*
G75*
G02*
X124722028Y-114731037I150000J0D01*
G01*
X126172028Y-114731037D01*
G75*
G02*
X126322028Y-114881037I0J-150000D01*
G01*
G37*
G36*
G01*
X121172028Y-114881037D02*
X121172028Y-115181037D01*
G75*
G02*
X121022028Y-115331037I-150000J0D01*
G01*
X119572028Y-115331037D01*
G75*
G02*
X119422028Y-115181037I0J150000D01*
G01*
X119422028Y-114881037D01*
G75*
G02*
X119572028Y-114731037I150000J0D01*
G01*
X121022028Y-114731037D01*
G75*
G02*
X121172028Y-114881037I0J-150000D01*
G01*
G37*
G36*
G01*
X121172028Y-116151037D02*
X121172028Y-116451037D01*
G75*
G02*
X121022028Y-116601037I-150000J0D01*
G01*
X119572028Y-116601037D01*
G75*
G02*
X119422028Y-116451037I0J150000D01*
G01*
X119422028Y-116151037D01*
G75*
G02*
X119572028Y-116001037I150000J0D01*
G01*
X121022028Y-116001037D01*
G75*
G02*
X121172028Y-116151037I0J-150000D01*
G01*
G37*
G36*
G01*
X121172028Y-117421037D02*
X121172028Y-117721037D01*
G75*
G02*
X121022028Y-117871037I-150000J0D01*
G01*
X119572028Y-117871037D01*
G75*
G02*
X119422028Y-117721037I0J150000D01*
G01*
X119422028Y-117421037D01*
G75*
G02*
X119572028Y-117271037I150000J0D01*
G01*
X121022028Y-117271037D01*
G75*
G02*
X121172028Y-117421037I0J-150000D01*
G01*
G37*
G36*
G01*
X121172028Y-118691037D02*
X121172028Y-118991037D01*
G75*
G02*
X121022028Y-119141037I-150000J0D01*
G01*
X119572028Y-119141037D01*
G75*
G02*
X119422028Y-118991037I0J150000D01*
G01*
X119422028Y-118691037D01*
G75*
G02*
X119572028Y-118541037I150000J0D01*
G01*
X121022028Y-118541037D01*
G75*
G02*
X121172028Y-118691037I0J-150000D01*
G01*
G37*
G36*
G01*
X131209028Y-126567037D02*
X131209028Y-127117037D01*
G75*
G02*
X131009028Y-127317037I-200000J0D01*
G01*
X130609028Y-127317037D01*
G75*
G02*
X130409028Y-127117037I0J200000D01*
G01*
X130409028Y-126567037D01*
G75*
G02*
X130609028Y-126367037I200000J0D01*
G01*
X131009028Y-126367037D01*
G75*
G02*
X131209028Y-126567037I0J-200000D01*
G01*
G37*
G36*
G01*
X129559028Y-126567037D02*
X129559028Y-127117037D01*
G75*
G02*
X129359028Y-127317037I-200000J0D01*
G01*
X128959028Y-127317037D01*
G75*
G02*
X128759028Y-127117037I0J200000D01*
G01*
X128759028Y-126567037D01*
G75*
G02*
X128959028Y-126367037I200000J0D01*
G01*
X129359028Y-126367037D01*
G75*
G02*
X129559028Y-126567037I0J-200000D01*
G01*
G37*
G36*
G01*
X126637028Y-120242037D02*
X126637028Y-120742037D01*
G75*
G02*
X126412028Y-120967037I-225000J0D01*
G01*
X125962028Y-120967037D01*
G75*
G02*
X125737028Y-120742037I0J225000D01*
G01*
X125737028Y-120242037D01*
G75*
G02*
X125962028Y-120017037I225000J0D01*
G01*
X126412028Y-120017037D01*
G75*
G02*
X126637028Y-120242037I0J-225000D01*
G01*
G37*
G36*
G01*
X125087028Y-120242037D02*
X125087028Y-120742037D01*
G75*
G02*
X124862028Y-120967037I-225000J0D01*
G01*
X124412028Y-120967037D01*
G75*
G02*
X124187028Y-120742037I0J225000D01*
G01*
X124187028Y-120242037D01*
G75*
G02*
X124412028Y-120017037I225000J0D01*
G01*
X124862028Y-120017037D01*
G75*
G02*
X125087028Y-120242037I0J-225000D01*
G01*
G37*
G36*
G01*
X136379028Y-121529037D02*
X136379028Y-120979037D01*
G75*
G02*
X136579028Y-120779037I200000J0D01*
G01*
X136979028Y-120779037D01*
G75*
G02*
X137179028Y-120979037I0J-200000D01*
G01*
X137179028Y-121529037D01*
G75*
G02*
X136979028Y-121729037I-200000J0D01*
G01*
X136579028Y-121729037D01*
G75*
G02*
X136379028Y-121529037I0J200000D01*
G01*
G37*
G36*
G01*
X138029028Y-121529037D02*
X138029028Y-120979037D01*
G75*
G02*
X138229028Y-120779037I200000J0D01*
G01*
X138629028Y-120779037D01*
G75*
G02*
X138829028Y-120979037I0J-200000D01*
G01*
X138829028Y-121529037D01*
G75*
G02*
X138629028Y-121729037I-200000J0D01*
G01*
X138229028Y-121729037D01*
G75*
G02*
X138029028Y-121529037I0J200000D01*
G01*
G37*
D10*
X106410019Y-114920037D03*
X104510019Y-114920037D03*
X105460019Y-116920037D03*
D11*
X107808019Y-115412037D03*
X109208019Y-115412037D03*
D12*
X102920019Y-123224037D03*
X102920019Y-121824037D03*
G36*
G01*
X100260019Y-122244037D02*
X101660019Y-122244037D01*
G75*
G02*
X101810019Y-122394037I0J-150000D01*
G01*
X101810019Y-122694037D01*
G75*
G02*
X101660019Y-122844037I-150000J0D01*
G01*
X100260019Y-122844037D01*
G75*
G02*
X100110019Y-122694037I0J150000D01*
G01*
X100110019Y-122394037D01*
G75*
G02*
X100260019Y-122244037I150000J0D01*
G01*
G37*
G36*
G01*
X100260019Y-123494037D02*
X101660019Y-123494037D01*
G75*
G02*
X101810019Y-123644037I0J-150000D01*
G01*
X101810019Y-123944037D01*
G75*
G02*
X101660019Y-124094037I-150000J0D01*
G01*
X100260019Y-124094037D01*
G75*
G02*
X100110019Y-123944037I0J150000D01*
G01*
X100110019Y-123644037D01*
G75*
G02*
X100260019Y-123494037I150000J0D01*
G01*
G37*
G36*
G01*
X100260019Y-124744037D02*
X101660019Y-124744037D01*
G75*
G02*
X101810019Y-124894037I0J-150000D01*
G01*
X101810019Y-125194037D01*
G75*
G02*
X101660019Y-125344037I-150000J0D01*
G01*
X100260019Y-125344037D01*
G75*
G02*
X100110019Y-125194037I0J150000D01*
G01*
X100110019Y-124894037D01*
G75*
G02*
X100260019Y-124744037I150000J0D01*
G01*
G37*
G36*
G01*
X96660019Y-120194037D02*
X98860019Y-120194037D01*
G75*
G02*
X99110019Y-120444037I0J-250000D01*
G01*
X99110019Y-120944037D01*
G75*
G02*
X98860019Y-121194037I-250000J0D01*
G01*
X96660019Y-121194037D01*
G75*
G02*
X96410019Y-120944037I0J250000D01*
G01*
X96410019Y-120444037D01*
G75*
G02*
X96660019Y-120194037I250000J0D01*
G01*
G37*
G36*
G01*
X96660019Y-126394037D02*
X98860019Y-126394037D01*
G75*
G02*
X99110019Y-126644037I0J-250000D01*
G01*
X99110019Y-127144037D01*
G75*
G02*
X98860019Y-127394037I-250000J0D01*
G01*
X96660019Y-127394037D01*
G75*
G02*
X96410019Y-127144037I0J250000D01*
G01*
X96410019Y-126644037D01*
G75*
G02*
X96660019Y-126394037I250000J0D01*
G01*
G37*
G36*
G01*
X103322019Y-118691037D02*
X103322019Y-118991037D01*
G75*
G02*
X103172019Y-119141037I-150000J0D01*
G01*
X101722019Y-119141037D01*
G75*
G02*
X101572019Y-118991037I0J150000D01*
G01*
X101572019Y-118691037D01*
G75*
G02*
X101722019Y-118541037I150000J0D01*
G01*
X103172019Y-118541037D01*
G75*
G02*
X103322019Y-118691037I0J-150000D01*
G01*
G37*
G36*
G01*
X103322019Y-117421037D02*
X103322019Y-117721037D01*
G75*
G02*
X103172019Y-117871037I-150000J0D01*
G01*
X101722019Y-117871037D01*
G75*
G02*
X101572019Y-117721037I0J150000D01*
G01*
X101572019Y-117421037D01*
G75*
G02*
X101722019Y-117271037I150000J0D01*
G01*
X103172019Y-117271037D01*
G75*
G02*
X103322019Y-117421037I0J-150000D01*
G01*
G37*
G36*
G01*
X103322019Y-116151037D02*
X103322019Y-116451037D01*
G75*
G02*
X103172019Y-116601037I-150000J0D01*
G01*
X101722019Y-116601037D01*
G75*
G02*
X101572019Y-116451037I0J150000D01*
G01*
X101572019Y-116151037D01*
G75*
G02*
X101722019Y-116001037I150000J0D01*
G01*
X103172019Y-116001037D01*
G75*
G02*
X103322019Y-116151037I0J-150000D01*
G01*
G37*
G36*
G01*
X103322019Y-114881037D02*
X103322019Y-115181037D01*
G75*
G02*
X103172019Y-115331037I-150000J0D01*
G01*
X101722019Y-115331037D01*
G75*
G02*
X101572019Y-115181037I0J150000D01*
G01*
X101572019Y-114881037D01*
G75*
G02*
X101722019Y-114731037I150000J0D01*
G01*
X103172019Y-114731037D01*
G75*
G02*
X103322019Y-114881037I0J-150000D01*
G01*
G37*
G36*
G01*
X98172019Y-114881037D02*
X98172019Y-115181037D01*
G75*
G02*
X98022019Y-115331037I-150000J0D01*
G01*
X96572019Y-115331037D01*
G75*
G02*
X96422019Y-115181037I0J150000D01*
G01*
X96422019Y-114881037D01*
G75*
G02*
X96572019Y-114731037I150000J0D01*
G01*
X98022019Y-114731037D01*
G75*
G02*
X98172019Y-114881037I0J-150000D01*
G01*
G37*
G36*
G01*
X98172019Y-116151037D02*
X98172019Y-116451037D01*
G75*
G02*
X98022019Y-116601037I-150000J0D01*
G01*
X96572019Y-116601037D01*
G75*
G02*
X96422019Y-116451037I0J150000D01*
G01*
X96422019Y-116151037D01*
G75*
G02*
X96572019Y-116001037I150000J0D01*
G01*
X98022019Y-116001037D01*
G75*
G02*
X98172019Y-116151037I0J-150000D01*
G01*
G37*
G36*
G01*
X98172019Y-117421037D02*
X98172019Y-117721037D01*
G75*
G02*
X98022019Y-117871037I-150000J0D01*
G01*
X96572019Y-117871037D01*
G75*
G02*
X96422019Y-117721037I0J150000D01*
G01*
X96422019Y-117421037D01*
G75*
G02*
X96572019Y-117271037I150000J0D01*
G01*
X98022019Y-117271037D01*
G75*
G02*
X98172019Y-117421037I0J-150000D01*
G01*
G37*
G36*
G01*
X98172019Y-118691037D02*
X98172019Y-118991037D01*
G75*
G02*
X98022019Y-119141037I-150000J0D01*
G01*
X96572019Y-119141037D01*
G75*
G02*
X96422019Y-118991037I0J150000D01*
G01*
X96422019Y-118691037D01*
G75*
G02*
X96572019Y-118541037I150000J0D01*
G01*
X98022019Y-118541037D01*
G75*
G02*
X98172019Y-118691037I0J-150000D01*
G01*
G37*
G36*
G01*
X108209019Y-126567037D02*
X108209019Y-127117037D01*
G75*
G02*
X108009019Y-127317037I-200000J0D01*
G01*
X107609019Y-127317037D01*
G75*
G02*
X107409019Y-127117037I0J200000D01*
G01*
X107409019Y-126567037D01*
G75*
G02*
X107609019Y-126367037I200000J0D01*
G01*
X108009019Y-126367037D01*
G75*
G02*
X108209019Y-126567037I0J-200000D01*
G01*
G37*
G36*
G01*
X106559019Y-126567037D02*
X106559019Y-127117037D01*
G75*
G02*
X106359019Y-127317037I-200000J0D01*
G01*
X105959019Y-127317037D01*
G75*
G02*
X105759019Y-127117037I0J200000D01*
G01*
X105759019Y-126567037D01*
G75*
G02*
X105959019Y-126367037I200000J0D01*
G01*
X106359019Y-126367037D01*
G75*
G02*
X106559019Y-126567037I0J-200000D01*
G01*
G37*
G36*
G01*
X103637019Y-120242037D02*
X103637019Y-120742037D01*
G75*
G02*
X103412019Y-120967037I-225000J0D01*
G01*
X102962019Y-120967037D01*
G75*
G02*
X102737019Y-120742037I0J225000D01*
G01*
X102737019Y-120242037D01*
G75*
G02*
X102962019Y-120017037I225000J0D01*
G01*
X103412019Y-120017037D01*
G75*
G02*
X103637019Y-120242037I0J-225000D01*
G01*
G37*
G36*
G01*
X102087019Y-120242037D02*
X102087019Y-120742037D01*
G75*
G02*
X101862019Y-120967037I-225000J0D01*
G01*
X101412019Y-120967037D01*
G75*
G02*
X101187019Y-120742037I0J225000D01*
G01*
X101187019Y-120242037D01*
G75*
G02*
X101412019Y-120017037I225000J0D01*
G01*
X101862019Y-120017037D01*
G75*
G02*
X102087019Y-120242037I0J-225000D01*
G01*
G37*
G36*
G01*
X113379019Y-121529037D02*
X113379019Y-120979037D01*
G75*
G02*
X113579019Y-120779037I200000J0D01*
G01*
X113979019Y-120779037D01*
G75*
G02*
X114179019Y-120979037I0J-200000D01*
G01*
X114179019Y-121529037D01*
G75*
G02*
X113979019Y-121729037I-200000J0D01*
G01*
X113579019Y-121729037D01*
G75*
G02*
X113379019Y-121529037I0J200000D01*
G01*
G37*
G36*
G01*
X115029019Y-121529037D02*
X115029019Y-120979037D01*
G75*
G02*
X115229019Y-120779037I200000J0D01*
G01*
X115629019Y-120779037D01*
G75*
G02*
X115829019Y-120979037I0J-200000D01*
G01*
X115829019Y-121529037D01*
G75*
G02*
X115629019Y-121729037I-200000J0D01*
G01*
X115229019Y-121729037D01*
G75*
G02*
X115029019Y-121529037I0J200000D01*
G01*
G37*
D10*
X83410010Y-114920037D03*
X81510010Y-114920037D03*
X82460010Y-116920037D03*
D11*
X84808010Y-115412037D03*
X86208010Y-115412037D03*
D12*
X79920010Y-123224037D03*
X79920010Y-121824037D03*
G36*
G01*
X77260010Y-122244037D02*
X78660010Y-122244037D01*
G75*
G02*
X78810010Y-122394037I0J-150000D01*
G01*
X78810010Y-122694037D01*
G75*
G02*
X78660010Y-122844037I-150000J0D01*
G01*
X77260010Y-122844037D01*
G75*
G02*
X77110010Y-122694037I0J150000D01*
G01*
X77110010Y-122394037D01*
G75*
G02*
X77260010Y-122244037I150000J0D01*
G01*
G37*
G36*
G01*
X77260010Y-123494037D02*
X78660010Y-123494037D01*
G75*
G02*
X78810010Y-123644037I0J-150000D01*
G01*
X78810010Y-123944037D01*
G75*
G02*
X78660010Y-124094037I-150000J0D01*
G01*
X77260010Y-124094037D01*
G75*
G02*
X77110010Y-123944037I0J150000D01*
G01*
X77110010Y-123644037D01*
G75*
G02*
X77260010Y-123494037I150000J0D01*
G01*
G37*
G36*
G01*
X77260010Y-124744037D02*
X78660010Y-124744037D01*
G75*
G02*
X78810010Y-124894037I0J-150000D01*
G01*
X78810010Y-125194037D01*
G75*
G02*
X78660010Y-125344037I-150000J0D01*
G01*
X77260010Y-125344037D01*
G75*
G02*
X77110010Y-125194037I0J150000D01*
G01*
X77110010Y-124894037D01*
G75*
G02*
X77260010Y-124744037I150000J0D01*
G01*
G37*
G36*
G01*
X73660010Y-120194037D02*
X75860010Y-120194037D01*
G75*
G02*
X76110010Y-120444037I0J-250000D01*
G01*
X76110010Y-120944037D01*
G75*
G02*
X75860010Y-121194037I-250000J0D01*
G01*
X73660010Y-121194037D01*
G75*
G02*
X73410010Y-120944037I0J250000D01*
G01*
X73410010Y-120444037D01*
G75*
G02*
X73660010Y-120194037I250000J0D01*
G01*
G37*
G36*
G01*
X73660010Y-126394037D02*
X75860010Y-126394037D01*
G75*
G02*
X76110010Y-126644037I0J-250000D01*
G01*
X76110010Y-127144037D01*
G75*
G02*
X75860010Y-127394037I-250000J0D01*
G01*
X73660010Y-127394037D01*
G75*
G02*
X73410010Y-127144037I0J250000D01*
G01*
X73410010Y-126644037D01*
G75*
G02*
X73660010Y-126394037I250000J0D01*
G01*
G37*
G36*
G01*
X80322010Y-118691037D02*
X80322010Y-118991037D01*
G75*
G02*
X80172010Y-119141037I-150000J0D01*
G01*
X78722010Y-119141037D01*
G75*
G02*
X78572010Y-118991037I0J150000D01*
G01*
X78572010Y-118691037D01*
G75*
G02*
X78722010Y-118541037I150000J0D01*
G01*
X80172010Y-118541037D01*
G75*
G02*
X80322010Y-118691037I0J-150000D01*
G01*
G37*
G36*
G01*
X80322010Y-117421037D02*
X80322010Y-117721037D01*
G75*
G02*
X80172010Y-117871037I-150000J0D01*
G01*
X78722010Y-117871037D01*
G75*
G02*
X78572010Y-117721037I0J150000D01*
G01*
X78572010Y-117421037D01*
G75*
G02*
X78722010Y-117271037I150000J0D01*
G01*
X80172010Y-117271037D01*
G75*
G02*
X80322010Y-117421037I0J-150000D01*
G01*
G37*
G36*
G01*
X80322010Y-116151037D02*
X80322010Y-116451037D01*
G75*
G02*
X80172010Y-116601037I-150000J0D01*
G01*
X78722010Y-116601037D01*
G75*
G02*
X78572010Y-116451037I0J150000D01*
G01*
X78572010Y-116151037D01*
G75*
G02*
X78722010Y-116001037I150000J0D01*
G01*
X80172010Y-116001037D01*
G75*
G02*
X80322010Y-116151037I0J-150000D01*
G01*
G37*
G36*
G01*
X80322010Y-114881037D02*
X80322010Y-115181037D01*
G75*
G02*
X80172010Y-115331037I-150000J0D01*
G01*
X78722010Y-115331037D01*
G75*
G02*
X78572010Y-115181037I0J150000D01*
G01*
X78572010Y-114881037D01*
G75*
G02*
X78722010Y-114731037I150000J0D01*
G01*
X80172010Y-114731037D01*
G75*
G02*
X80322010Y-114881037I0J-150000D01*
G01*
G37*
G36*
G01*
X75172010Y-114881037D02*
X75172010Y-115181037D01*
G75*
G02*
X75022010Y-115331037I-150000J0D01*
G01*
X73572010Y-115331037D01*
G75*
G02*
X73422010Y-115181037I0J150000D01*
G01*
X73422010Y-114881037D01*
G75*
G02*
X73572010Y-114731037I150000J0D01*
G01*
X75022010Y-114731037D01*
G75*
G02*
X75172010Y-114881037I0J-150000D01*
G01*
G37*
G36*
G01*
X75172010Y-116151037D02*
X75172010Y-116451037D01*
G75*
G02*
X75022010Y-116601037I-150000J0D01*
G01*
X73572010Y-116601037D01*
G75*
G02*
X73422010Y-116451037I0J150000D01*
G01*
X73422010Y-116151037D01*
G75*
G02*
X73572010Y-116001037I150000J0D01*
G01*
X75022010Y-116001037D01*
G75*
G02*
X75172010Y-116151037I0J-150000D01*
G01*
G37*
G36*
G01*
X75172010Y-117421037D02*
X75172010Y-117721037D01*
G75*
G02*
X75022010Y-117871037I-150000J0D01*
G01*
X73572010Y-117871037D01*
G75*
G02*
X73422010Y-117721037I0J150000D01*
G01*
X73422010Y-117421037D01*
G75*
G02*
X73572010Y-117271037I150000J0D01*
G01*
X75022010Y-117271037D01*
G75*
G02*
X75172010Y-117421037I0J-150000D01*
G01*
G37*
G36*
G01*
X75172010Y-118691037D02*
X75172010Y-118991037D01*
G75*
G02*
X75022010Y-119141037I-150000J0D01*
G01*
X73572010Y-119141037D01*
G75*
G02*
X73422010Y-118991037I0J150000D01*
G01*
X73422010Y-118691037D01*
G75*
G02*
X73572010Y-118541037I150000J0D01*
G01*
X75022010Y-118541037D01*
G75*
G02*
X75172010Y-118691037I0J-150000D01*
G01*
G37*
G36*
G01*
X85209010Y-126567037D02*
X85209010Y-127117037D01*
G75*
G02*
X85009010Y-127317037I-200000J0D01*
G01*
X84609010Y-127317037D01*
G75*
G02*
X84409010Y-127117037I0J200000D01*
G01*
X84409010Y-126567037D01*
G75*
G02*
X84609010Y-126367037I200000J0D01*
G01*
X85009010Y-126367037D01*
G75*
G02*
X85209010Y-126567037I0J-200000D01*
G01*
G37*
G36*
G01*
X83559010Y-126567037D02*
X83559010Y-127117037D01*
G75*
G02*
X83359010Y-127317037I-200000J0D01*
G01*
X82959010Y-127317037D01*
G75*
G02*
X82759010Y-127117037I0J200000D01*
G01*
X82759010Y-126567037D01*
G75*
G02*
X82959010Y-126367037I200000J0D01*
G01*
X83359010Y-126367037D01*
G75*
G02*
X83559010Y-126567037I0J-200000D01*
G01*
G37*
G36*
G01*
X80637010Y-120242037D02*
X80637010Y-120742037D01*
G75*
G02*
X80412010Y-120967037I-225000J0D01*
G01*
X79962010Y-120967037D01*
G75*
G02*
X79737010Y-120742037I0J225000D01*
G01*
X79737010Y-120242037D01*
G75*
G02*
X79962010Y-120017037I225000J0D01*
G01*
X80412010Y-120017037D01*
G75*
G02*
X80637010Y-120242037I0J-225000D01*
G01*
G37*
G36*
G01*
X79087010Y-120242037D02*
X79087010Y-120742037D01*
G75*
G02*
X78862010Y-120967037I-225000J0D01*
G01*
X78412010Y-120967037D01*
G75*
G02*
X78187010Y-120742037I0J225000D01*
G01*
X78187010Y-120242037D01*
G75*
G02*
X78412010Y-120017037I225000J0D01*
G01*
X78862010Y-120017037D01*
G75*
G02*
X79087010Y-120242037I0J-225000D01*
G01*
G37*
G36*
G01*
X90379010Y-121529037D02*
X90379010Y-120979037D01*
G75*
G02*
X90579010Y-120779037I200000J0D01*
G01*
X90979010Y-120779037D01*
G75*
G02*
X91179010Y-120979037I0J-200000D01*
G01*
X91179010Y-121529037D01*
G75*
G02*
X90979010Y-121729037I-200000J0D01*
G01*
X90579010Y-121729037D01*
G75*
G02*
X90379010Y-121529037I0J200000D01*
G01*
G37*
G36*
G01*
X92029010Y-121529037D02*
X92029010Y-120979037D01*
G75*
G02*
X92229010Y-120779037I200000J0D01*
G01*
X92629010Y-120779037D01*
G75*
G02*
X92829010Y-120979037I0J-200000D01*
G01*
X92829010Y-121529037D01*
G75*
G02*
X92629010Y-121729037I-200000J0D01*
G01*
X92229010Y-121729037D01*
G75*
G02*
X92029010Y-121529037I0J200000D01*
G01*
G37*
D10*
X60410001Y-114920037D03*
X58510001Y-114920037D03*
X59460001Y-116920037D03*
D11*
X61808001Y-115412037D03*
X63208001Y-115412037D03*
D12*
X56920001Y-123224037D03*
X56920001Y-121824037D03*
G36*
G01*
X54260001Y-122244037D02*
X55660001Y-122244037D01*
G75*
G02*
X55810001Y-122394037I0J-150000D01*
G01*
X55810001Y-122694037D01*
G75*
G02*
X55660001Y-122844037I-150000J0D01*
G01*
X54260001Y-122844037D01*
G75*
G02*
X54110001Y-122694037I0J150000D01*
G01*
X54110001Y-122394037D01*
G75*
G02*
X54260001Y-122244037I150000J0D01*
G01*
G37*
G36*
G01*
X54260001Y-123494037D02*
X55660001Y-123494037D01*
G75*
G02*
X55810001Y-123644037I0J-150000D01*
G01*
X55810001Y-123944037D01*
G75*
G02*
X55660001Y-124094037I-150000J0D01*
G01*
X54260001Y-124094037D01*
G75*
G02*
X54110001Y-123944037I0J150000D01*
G01*
X54110001Y-123644037D01*
G75*
G02*
X54260001Y-123494037I150000J0D01*
G01*
G37*
G36*
G01*
X54260001Y-124744037D02*
X55660001Y-124744037D01*
G75*
G02*
X55810001Y-124894037I0J-150000D01*
G01*
X55810001Y-125194037D01*
G75*
G02*
X55660001Y-125344037I-150000J0D01*
G01*
X54260001Y-125344037D01*
G75*
G02*
X54110001Y-125194037I0J150000D01*
G01*
X54110001Y-124894037D01*
G75*
G02*
X54260001Y-124744037I150000J0D01*
G01*
G37*
G36*
G01*
X50660001Y-120194037D02*
X52860001Y-120194037D01*
G75*
G02*
X53110001Y-120444037I0J-250000D01*
G01*
X53110001Y-120944037D01*
G75*
G02*
X52860001Y-121194037I-250000J0D01*
G01*
X50660001Y-121194037D01*
G75*
G02*
X50410001Y-120944037I0J250000D01*
G01*
X50410001Y-120444037D01*
G75*
G02*
X50660001Y-120194037I250000J0D01*
G01*
G37*
G36*
G01*
X50660001Y-126394037D02*
X52860001Y-126394037D01*
G75*
G02*
X53110001Y-126644037I0J-250000D01*
G01*
X53110001Y-127144037D01*
G75*
G02*
X52860001Y-127394037I-250000J0D01*
G01*
X50660001Y-127394037D01*
G75*
G02*
X50410001Y-127144037I0J250000D01*
G01*
X50410001Y-126644037D01*
G75*
G02*
X50660001Y-126394037I250000J0D01*
G01*
G37*
G36*
G01*
X57322001Y-118691037D02*
X57322001Y-118991037D01*
G75*
G02*
X57172001Y-119141037I-150000J0D01*
G01*
X55722001Y-119141037D01*
G75*
G02*
X55572001Y-118991037I0J150000D01*
G01*
X55572001Y-118691037D01*
G75*
G02*
X55722001Y-118541037I150000J0D01*
G01*
X57172001Y-118541037D01*
G75*
G02*
X57322001Y-118691037I0J-150000D01*
G01*
G37*
G36*
G01*
X57322001Y-117421037D02*
X57322001Y-117721037D01*
G75*
G02*
X57172001Y-117871037I-150000J0D01*
G01*
X55722001Y-117871037D01*
G75*
G02*
X55572001Y-117721037I0J150000D01*
G01*
X55572001Y-117421037D01*
G75*
G02*
X55722001Y-117271037I150000J0D01*
G01*
X57172001Y-117271037D01*
G75*
G02*
X57322001Y-117421037I0J-150000D01*
G01*
G37*
G36*
G01*
X57322001Y-116151037D02*
X57322001Y-116451037D01*
G75*
G02*
X57172001Y-116601037I-150000J0D01*
G01*
X55722001Y-116601037D01*
G75*
G02*
X55572001Y-116451037I0J150000D01*
G01*
X55572001Y-116151037D01*
G75*
G02*
X55722001Y-116001037I150000J0D01*
G01*
X57172001Y-116001037D01*
G75*
G02*
X57322001Y-116151037I0J-150000D01*
G01*
G37*
G36*
G01*
X57322001Y-114881037D02*
X57322001Y-115181037D01*
G75*
G02*
X57172001Y-115331037I-150000J0D01*
G01*
X55722001Y-115331037D01*
G75*
G02*
X55572001Y-115181037I0J150000D01*
G01*
X55572001Y-114881037D01*
G75*
G02*
X55722001Y-114731037I150000J0D01*
G01*
X57172001Y-114731037D01*
G75*
G02*
X57322001Y-114881037I0J-150000D01*
G01*
G37*
G36*
G01*
X52172001Y-114881037D02*
X52172001Y-115181037D01*
G75*
G02*
X52022001Y-115331037I-150000J0D01*
G01*
X50572001Y-115331037D01*
G75*
G02*
X50422001Y-115181037I0J150000D01*
G01*
X50422001Y-114881037D01*
G75*
G02*
X50572001Y-114731037I150000J0D01*
G01*
X52022001Y-114731037D01*
G75*
G02*
X52172001Y-114881037I0J-150000D01*
G01*
G37*
G36*
G01*
X52172001Y-116151037D02*
X52172001Y-116451037D01*
G75*
G02*
X52022001Y-116601037I-150000J0D01*
G01*
X50572001Y-116601037D01*
G75*
G02*
X50422001Y-116451037I0J150000D01*
G01*
X50422001Y-116151037D01*
G75*
G02*
X50572001Y-116001037I150000J0D01*
G01*
X52022001Y-116001037D01*
G75*
G02*
X52172001Y-116151037I0J-150000D01*
G01*
G37*
G36*
G01*
X52172001Y-117421037D02*
X52172001Y-117721037D01*
G75*
G02*
X52022001Y-117871037I-150000J0D01*
G01*
X50572001Y-117871037D01*
G75*
G02*
X50422001Y-117721037I0J150000D01*
G01*
X50422001Y-117421037D01*
G75*
G02*
X50572001Y-117271037I150000J0D01*
G01*
X52022001Y-117271037D01*
G75*
G02*
X52172001Y-117421037I0J-150000D01*
G01*
G37*
G36*
G01*
X52172001Y-118691037D02*
X52172001Y-118991037D01*
G75*
G02*
X52022001Y-119141037I-150000J0D01*
G01*
X50572001Y-119141037D01*
G75*
G02*
X50422001Y-118991037I0J150000D01*
G01*
X50422001Y-118691037D01*
G75*
G02*
X50572001Y-118541037I150000J0D01*
G01*
X52022001Y-118541037D01*
G75*
G02*
X52172001Y-118691037I0J-150000D01*
G01*
G37*
G36*
G01*
X62209001Y-126567037D02*
X62209001Y-127117037D01*
G75*
G02*
X62009001Y-127317037I-200000J0D01*
G01*
X61609001Y-127317037D01*
G75*
G02*
X61409001Y-127117037I0J200000D01*
G01*
X61409001Y-126567037D01*
G75*
G02*
X61609001Y-126367037I200000J0D01*
G01*
X62009001Y-126367037D01*
G75*
G02*
X62209001Y-126567037I0J-200000D01*
G01*
G37*
G36*
G01*
X60559001Y-126567037D02*
X60559001Y-127117037D01*
G75*
G02*
X60359001Y-127317037I-200000J0D01*
G01*
X59959001Y-127317037D01*
G75*
G02*
X59759001Y-127117037I0J200000D01*
G01*
X59759001Y-126567037D01*
G75*
G02*
X59959001Y-126367037I200000J0D01*
G01*
X60359001Y-126367037D01*
G75*
G02*
X60559001Y-126567037I0J-200000D01*
G01*
G37*
G36*
G01*
X57637001Y-120242037D02*
X57637001Y-120742037D01*
G75*
G02*
X57412001Y-120967037I-225000J0D01*
G01*
X56962001Y-120967037D01*
G75*
G02*
X56737001Y-120742037I0J225000D01*
G01*
X56737001Y-120242037D01*
G75*
G02*
X56962001Y-120017037I225000J0D01*
G01*
X57412001Y-120017037D01*
G75*
G02*
X57637001Y-120242037I0J-225000D01*
G01*
G37*
G36*
G01*
X56087001Y-120242037D02*
X56087001Y-120742037D01*
G75*
G02*
X55862001Y-120967037I-225000J0D01*
G01*
X55412001Y-120967037D01*
G75*
G02*
X55187001Y-120742037I0J225000D01*
G01*
X55187001Y-120242037D01*
G75*
G02*
X55412001Y-120017037I225000J0D01*
G01*
X55862001Y-120017037D01*
G75*
G02*
X56087001Y-120242037I0J-225000D01*
G01*
G37*
G36*
G01*
X67379001Y-121529037D02*
X67379001Y-120979037D01*
G75*
G02*
X67579001Y-120779037I200000J0D01*
G01*
X67979001Y-120779037D01*
G75*
G02*
X68179001Y-120979037I0J-200000D01*
G01*
X68179001Y-121529037D01*
G75*
G02*
X67979001Y-121729037I-200000J0D01*
G01*
X67579001Y-121729037D01*
G75*
G02*
X67379001Y-121529037I0J200000D01*
G01*
G37*
G36*
G01*
X69029001Y-121529037D02*
X69029001Y-120979037D01*
G75*
G02*
X69229001Y-120779037I200000J0D01*
G01*
X69629001Y-120779037D01*
G75*
G02*
X69829001Y-120979037I0J-200000D01*
G01*
X69829001Y-121529037D01*
G75*
G02*
X69629001Y-121729037I-200000J0D01*
G01*
X69229001Y-121729037D01*
G75*
G02*
X69029001Y-121529037I0J200000D01*
G01*
G37*
D10*
X129410028Y-98920028D03*
X127510028Y-98920028D03*
X128460028Y-100920028D03*
D11*
X130808028Y-99412028D03*
X132208028Y-99412028D03*
D12*
X125920028Y-107224028D03*
X125920028Y-105824028D03*
G36*
G01*
X123260028Y-106244028D02*
X124660028Y-106244028D01*
G75*
G02*
X124810028Y-106394028I0J-150000D01*
G01*
X124810028Y-106694028D01*
G75*
G02*
X124660028Y-106844028I-150000J0D01*
G01*
X123260028Y-106844028D01*
G75*
G02*
X123110028Y-106694028I0J150000D01*
G01*
X123110028Y-106394028D01*
G75*
G02*
X123260028Y-106244028I150000J0D01*
G01*
G37*
G36*
G01*
X123260028Y-107494028D02*
X124660028Y-107494028D01*
G75*
G02*
X124810028Y-107644028I0J-150000D01*
G01*
X124810028Y-107944028D01*
G75*
G02*
X124660028Y-108094028I-150000J0D01*
G01*
X123260028Y-108094028D01*
G75*
G02*
X123110028Y-107944028I0J150000D01*
G01*
X123110028Y-107644028D01*
G75*
G02*
X123260028Y-107494028I150000J0D01*
G01*
G37*
G36*
G01*
X123260028Y-108744028D02*
X124660028Y-108744028D01*
G75*
G02*
X124810028Y-108894028I0J-150000D01*
G01*
X124810028Y-109194028D01*
G75*
G02*
X124660028Y-109344028I-150000J0D01*
G01*
X123260028Y-109344028D01*
G75*
G02*
X123110028Y-109194028I0J150000D01*
G01*
X123110028Y-108894028D01*
G75*
G02*
X123260028Y-108744028I150000J0D01*
G01*
G37*
G36*
G01*
X119660028Y-104194028D02*
X121860028Y-104194028D01*
G75*
G02*
X122110028Y-104444028I0J-250000D01*
G01*
X122110028Y-104944028D01*
G75*
G02*
X121860028Y-105194028I-250000J0D01*
G01*
X119660028Y-105194028D01*
G75*
G02*
X119410028Y-104944028I0J250000D01*
G01*
X119410028Y-104444028D01*
G75*
G02*
X119660028Y-104194028I250000J0D01*
G01*
G37*
G36*
G01*
X119660028Y-110394028D02*
X121860028Y-110394028D01*
G75*
G02*
X122110028Y-110644028I0J-250000D01*
G01*
X122110028Y-111144028D01*
G75*
G02*
X121860028Y-111394028I-250000J0D01*
G01*
X119660028Y-111394028D01*
G75*
G02*
X119410028Y-111144028I0J250000D01*
G01*
X119410028Y-110644028D01*
G75*
G02*
X119660028Y-110394028I250000J0D01*
G01*
G37*
G36*
G01*
X126322028Y-102691028D02*
X126322028Y-102991028D01*
G75*
G02*
X126172028Y-103141028I-150000J0D01*
G01*
X124722028Y-103141028D01*
G75*
G02*
X124572028Y-102991028I0J150000D01*
G01*
X124572028Y-102691028D01*
G75*
G02*
X124722028Y-102541028I150000J0D01*
G01*
X126172028Y-102541028D01*
G75*
G02*
X126322028Y-102691028I0J-150000D01*
G01*
G37*
G36*
G01*
X126322028Y-101421028D02*
X126322028Y-101721028D01*
G75*
G02*
X126172028Y-101871028I-150000J0D01*
G01*
X124722028Y-101871028D01*
G75*
G02*
X124572028Y-101721028I0J150000D01*
G01*
X124572028Y-101421028D01*
G75*
G02*
X124722028Y-101271028I150000J0D01*
G01*
X126172028Y-101271028D01*
G75*
G02*
X126322028Y-101421028I0J-150000D01*
G01*
G37*
G36*
G01*
X126322028Y-100151028D02*
X126322028Y-100451028D01*
G75*
G02*
X126172028Y-100601028I-150000J0D01*
G01*
X124722028Y-100601028D01*
G75*
G02*
X124572028Y-100451028I0J150000D01*
G01*
X124572028Y-100151028D01*
G75*
G02*
X124722028Y-100001028I150000J0D01*
G01*
X126172028Y-100001028D01*
G75*
G02*
X126322028Y-100151028I0J-150000D01*
G01*
G37*
G36*
G01*
X126322028Y-98881028D02*
X126322028Y-99181028D01*
G75*
G02*
X126172028Y-99331028I-150000J0D01*
G01*
X124722028Y-99331028D01*
G75*
G02*
X124572028Y-99181028I0J150000D01*
G01*
X124572028Y-98881028D01*
G75*
G02*
X124722028Y-98731028I150000J0D01*
G01*
X126172028Y-98731028D01*
G75*
G02*
X126322028Y-98881028I0J-150000D01*
G01*
G37*
G36*
G01*
X121172028Y-98881028D02*
X121172028Y-99181028D01*
G75*
G02*
X121022028Y-99331028I-150000J0D01*
G01*
X119572028Y-99331028D01*
G75*
G02*
X119422028Y-99181028I0J150000D01*
G01*
X119422028Y-98881028D01*
G75*
G02*
X119572028Y-98731028I150000J0D01*
G01*
X121022028Y-98731028D01*
G75*
G02*
X121172028Y-98881028I0J-150000D01*
G01*
G37*
G36*
G01*
X121172028Y-100151028D02*
X121172028Y-100451028D01*
G75*
G02*
X121022028Y-100601028I-150000J0D01*
G01*
X119572028Y-100601028D01*
G75*
G02*
X119422028Y-100451028I0J150000D01*
G01*
X119422028Y-100151028D01*
G75*
G02*
X119572028Y-100001028I150000J0D01*
G01*
X121022028Y-100001028D01*
G75*
G02*
X121172028Y-100151028I0J-150000D01*
G01*
G37*
G36*
G01*
X121172028Y-101421028D02*
X121172028Y-101721028D01*
G75*
G02*
X121022028Y-101871028I-150000J0D01*
G01*
X119572028Y-101871028D01*
G75*
G02*
X119422028Y-101721028I0J150000D01*
G01*
X119422028Y-101421028D01*
G75*
G02*
X119572028Y-101271028I150000J0D01*
G01*
X121022028Y-101271028D01*
G75*
G02*
X121172028Y-101421028I0J-150000D01*
G01*
G37*
G36*
G01*
X121172028Y-102691028D02*
X121172028Y-102991028D01*
G75*
G02*
X121022028Y-103141028I-150000J0D01*
G01*
X119572028Y-103141028D01*
G75*
G02*
X119422028Y-102991028I0J150000D01*
G01*
X119422028Y-102691028D01*
G75*
G02*
X119572028Y-102541028I150000J0D01*
G01*
X121022028Y-102541028D01*
G75*
G02*
X121172028Y-102691028I0J-150000D01*
G01*
G37*
G36*
G01*
X131209028Y-110567028D02*
X131209028Y-111117028D01*
G75*
G02*
X131009028Y-111317028I-200000J0D01*
G01*
X130609028Y-111317028D01*
G75*
G02*
X130409028Y-111117028I0J200000D01*
G01*
X130409028Y-110567028D01*
G75*
G02*
X130609028Y-110367028I200000J0D01*
G01*
X131009028Y-110367028D01*
G75*
G02*
X131209028Y-110567028I0J-200000D01*
G01*
G37*
G36*
G01*
X129559028Y-110567028D02*
X129559028Y-111117028D01*
G75*
G02*
X129359028Y-111317028I-200000J0D01*
G01*
X128959028Y-111317028D01*
G75*
G02*
X128759028Y-111117028I0J200000D01*
G01*
X128759028Y-110567028D01*
G75*
G02*
X128959028Y-110367028I200000J0D01*
G01*
X129359028Y-110367028D01*
G75*
G02*
X129559028Y-110567028I0J-200000D01*
G01*
G37*
G36*
G01*
X126637028Y-104242028D02*
X126637028Y-104742028D01*
G75*
G02*
X126412028Y-104967028I-225000J0D01*
G01*
X125962028Y-104967028D01*
G75*
G02*
X125737028Y-104742028I0J225000D01*
G01*
X125737028Y-104242028D01*
G75*
G02*
X125962028Y-104017028I225000J0D01*
G01*
X126412028Y-104017028D01*
G75*
G02*
X126637028Y-104242028I0J-225000D01*
G01*
G37*
G36*
G01*
X125087028Y-104242028D02*
X125087028Y-104742028D01*
G75*
G02*
X124862028Y-104967028I-225000J0D01*
G01*
X124412028Y-104967028D01*
G75*
G02*
X124187028Y-104742028I0J225000D01*
G01*
X124187028Y-104242028D01*
G75*
G02*
X124412028Y-104017028I225000J0D01*
G01*
X124862028Y-104017028D01*
G75*
G02*
X125087028Y-104242028I0J-225000D01*
G01*
G37*
G36*
G01*
X136379028Y-105529028D02*
X136379028Y-104979028D01*
G75*
G02*
X136579028Y-104779028I200000J0D01*
G01*
X136979028Y-104779028D01*
G75*
G02*
X137179028Y-104979028I0J-200000D01*
G01*
X137179028Y-105529028D01*
G75*
G02*
X136979028Y-105729028I-200000J0D01*
G01*
X136579028Y-105729028D01*
G75*
G02*
X136379028Y-105529028I0J200000D01*
G01*
G37*
G36*
G01*
X138029028Y-105529028D02*
X138029028Y-104979028D01*
G75*
G02*
X138229028Y-104779028I200000J0D01*
G01*
X138629028Y-104779028D01*
G75*
G02*
X138829028Y-104979028I0J-200000D01*
G01*
X138829028Y-105529028D01*
G75*
G02*
X138629028Y-105729028I-200000J0D01*
G01*
X138229028Y-105729028D01*
G75*
G02*
X138029028Y-105529028I0J200000D01*
G01*
G37*
D10*
X106410019Y-98920028D03*
X104510019Y-98920028D03*
X105460019Y-100920028D03*
D11*
X107808019Y-99412028D03*
X109208019Y-99412028D03*
D12*
X102920019Y-107224028D03*
X102920019Y-105824028D03*
G36*
G01*
X100260019Y-106244028D02*
X101660019Y-106244028D01*
G75*
G02*
X101810019Y-106394028I0J-150000D01*
G01*
X101810019Y-106694028D01*
G75*
G02*
X101660019Y-106844028I-150000J0D01*
G01*
X100260019Y-106844028D01*
G75*
G02*
X100110019Y-106694028I0J150000D01*
G01*
X100110019Y-106394028D01*
G75*
G02*
X100260019Y-106244028I150000J0D01*
G01*
G37*
G36*
G01*
X100260019Y-107494028D02*
X101660019Y-107494028D01*
G75*
G02*
X101810019Y-107644028I0J-150000D01*
G01*
X101810019Y-107944028D01*
G75*
G02*
X101660019Y-108094028I-150000J0D01*
G01*
X100260019Y-108094028D01*
G75*
G02*
X100110019Y-107944028I0J150000D01*
G01*
X100110019Y-107644028D01*
G75*
G02*
X100260019Y-107494028I150000J0D01*
G01*
G37*
G36*
G01*
X100260019Y-108744028D02*
X101660019Y-108744028D01*
G75*
G02*
X101810019Y-108894028I0J-150000D01*
G01*
X101810019Y-109194028D01*
G75*
G02*
X101660019Y-109344028I-150000J0D01*
G01*
X100260019Y-109344028D01*
G75*
G02*
X100110019Y-109194028I0J150000D01*
G01*
X100110019Y-108894028D01*
G75*
G02*
X100260019Y-108744028I150000J0D01*
G01*
G37*
G36*
G01*
X96660019Y-104194028D02*
X98860019Y-104194028D01*
G75*
G02*
X99110019Y-104444028I0J-250000D01*
G01*
X99110019Y-104944028D01*
G75*
G02*
X98860019Y-105194028I-250000J0D01*
G01*
X96660019Y-105194028D01*
G75*
G02*
X96410019Y-104944028I0J250000D01*
G01*
X96410019Y-104444028D01*
G75*
G02*
X96660019Y-104194028I250000J0D01*
G01*
G37*
G36*
G01*
X96660019Y-110394028D02*
X98860019Y-110394028D01*
G75*
G02*
X99110019Y-110644028I0J-250000D01*
G01*
X99110019Y-111144028D01*
G75*
G02*
X98860019Y-111394028I-250000J0D01*
G01*
X96660019Y-111394028D01*
G75*
G02*
X96410019Y-111144028I0J250000D01*
G01*
X96410019Y-110644028D01*
G75*
G02*
X96660019Y-110394028I250000J0D01*
G01*
G37*
G36*
G01*
X103322019Y-102691028D02*
X103322019Y-102991028D01*
G75*
G02*
X103172019Y-103141028I-150000J0D01*
G01*
X101722019Y-103141028D01*
G75*
G02*
X101572019Y-102991028I0J150000D01*
G01*
X101572019Y-102691028D01*
G75*
G02*
X101722019Y-102541028I150000J0D01*
G01*
X103172019Y-102541028D01*
G75*
G02*
X103322019Y-102691028I0J-150000D01*
G01*
G37*
G36*
G01*
X103322019Y-101421028D02*
X103322019Y-101721028D01*
G75*
G02*
X103172019Y-101871028I-150000J0D01*
G01*
X101722019Y-101871028D01*
G75*
G02*
X101572019Y-101721028I0J150000D01*
G01*
X101572019Y-101421028D01*
G75*
G02*
X101722019Y-101271028I150000J0D01*
G01*
X103172019Y-101271028D01*
G75*
G02*
X103322019Y-101421028I0J-150000D01*
G01*
G37*
G36*
G01*
X103322019Y-100151028D02*
X103322019Y-100451028D01*
G75*
G02*
X103172019Y-100601028I-150000J0D01*
G01*
X101722019Y-100601028D01*
G75*
G02*
X101572019Y-100451028I0J150000D01*
G01*
X101572019Y-100151028D01*
G75*
G02*
X101722019Y-100001028I150000J0D01*
G01*
X103172019Y-100001028D01*
G75*
G02*
X103322019Y-100151028I0J-150000D01*
G01*
G37*
G36*
G01*
X103322019Y-98881028D02*
X103322019Y-99181028D01*
G75*
G02*
X103172019Y-99331028I-150000J0D01*
G01*
X101722019Y-99331028D01*
G75*
G02*
X101572019Y-99181028I0J150000D01*
G01*
X101572019Y-98881028D01*
G75*
G02*
X101722019Y-98731028I150000J0D01*
G01*
X103172019Y-98731028D01*
G75*
G02*
X103322019Y-98881028I0J-150000D01*
G01*
G37*
G36*
G01*
X98172019Y-98881028D02*
X98172019Y-99181028D01*
G75*
G02*
X98022019Y-99331028I-150000J0D01*
G01*
X96572019Y-99331028D01*
G75*
G02*
X96422019Y-99181028I0J150000D01*
G01*
X96422019Y-98881028D01*
G75*
G02*
X96572019Y-98731028I150000J0D01*
G01*
X98022019Y-98731028D01*
G75*
G02*
X98172019Y-98881028I0J-150000D01*
G01*
G37*
G36*
G01*
X98172019Y-100151028D02*
X98172019Y-100451028D01*
G75*
G02*
X98022019Y-100601028I-150000J0D01*
G01*
X96572019Y-100601028D01*
G75*
G02*
X96422019Y-100451028I0J150000D01*
G01*
X96422019Y-100151028D01*
G75*
G02*
X96572019Y-100001028I150000J0D01*
G01*
X98022019Y-100001028D01*
G75*
G02*
X98172019Y-100151028I0J-150000D01*
G01*
G37*
G36*
G01*
X98172019Y-101421028D02*
X98172019Y-101721028D01*
G75*
G02*
X98022019Y-101871028I-150000J0D01*
G01*
X96572019Y-101871028D01*
G75*
G02*
X96422019Y-101721028I0J150000D01*
G01*
X96422019Y-101421028D01*
G75*
G02*
X96572019Y-101271028I150000J0D01*
G01*
X98022019Y-101271028D01*
G75*
G02*
X98172019Y-101421028I0J-150000D01*
G01*
G37*
G36*
G01*
X98172019Y-102691028D02*
X98172019Y-102991028D01*
G75*
G02*
X98022019Y-103141028I-150000J0D01*
G01*
X96572019Y-103141028D01*
G75*
G02*
X96422019Y-102991028I0J150000D01*
G01*
X96422019Y-102691028D01*
G75*
G02*
X96572019Y-102541028I150000J0D01*
G01*
X98022019Y-102541028D01*
G75*
G02*
X98172019Y-102691028I0J-150000D01*
G01*
G37*
G36*
G01*
X108209019Y-110567028D02*
X108209019Y-111117028D01*
G75*
G02*
X108009019Y-111317028I-200000J0D01*
G01*
X107609019Y-111317028D01*
G75*
G02*
X107409019Y-111117028I0J200000D01*
G01*
X107409019Y-110567028D01*
G75*
G02*
X107609019Y-110367028I200000J0D01*
G01*
X108009019Y-110367028D01*
G75*
G02*
X108209019Y-110567028I0J-200000D01*
G01*
G37*
G36*
G01*
X106559019Y-110567028D02*
X106559019Y-111117028D01*
G75*
G02*
X106359019Y-111317028I-200000J0D01*
G01*
X105959019Y-111317028D01*
G75*
G02*
X105759019Y-111117028I0J200000D01*
G01*
X105759019Y-110567028D01*
G75*
G02*
X105959019Y-110367028I200000J0D01*
G01*
X106359019Y-110367028D01*
G75*
G02*
X106559019Y-110567028I0J-200000D01*
G01*
G37*
G36*
G01*
X103637019Y-104242028D02*
X103637019Y-104742028D01*
G75*
G02*
X103412019Y-104967028I-225000J0D01*
G01*
X102962019Y-104967028D01*
G75*
G02*
X102737019Y-104742028I0J225000D01*
G01*
X102737019Y-104242028D01*
G75*
G02*
X102962019Y-104017028I225000J0D01*
G01*
X103412019Y-104017028D01*
G75*
G02*
X103637019Y-104242028I0J-225000D01*
G01*
G37*
G36*
G01*
X102087019Y-104242028D02*
X102087019Y-104742028D01*
G75*
G02*
X101862019Y-104967028I-225000J0D01*
G01*
X101412019Y-104967028D01*
G75*
G02*
X101187019Y-104742028I0J225000D01*
G01*
X101187019Y-104242028D01*
G75*
G02*
X101412019Y-104017028I225000J0D01*
G01*
X101862019Y-104017028D01*
G75*
G02*
X102087019Y-104242028I0J-225000D01*
G01*
G37*
G36*
G01*
X113379019Y-105529028D02*
X113379019Y-104979028D01*
G75*
G02*
X113579019Y-104779028I200000J0D01*
G01*
X113979019Y-104779028D01*
G75*
G02*
X114179019Y-104979028I0J-200000D01*
G01*
X114179019Y-105529028D01*
G75*
G02*
X113979019Y-105729028I-200000J0D01*
G01*
X113579019Y-105729028D01*
G75*
G02*
X113379019Y-105529028I0J200000D01*
G01*
G37*
G36*
G01*
X115029019Y-105529028D02*
X115029019Y-104979028D01*
G75*
G02*
X115229019Y-104779028I200000J0D01*
G01*
X115629019Y-104779028D01*
G75*
G02*
X115829019Y-104979028I0J-200000D01*
G01*
X115829019Y-105529028D01*
G75*
G02*
X115629019Y-105729028I-200000J0D01*
G01*
X115229019Y-105729028D01*
G75*
G02*
X115029019Y-105529028I0J200000D01*
G01*
G37*
D10*
X83410010Y-98920028D03*
X81510010Y-98920028D03*
X82460010Y-100920028D03*
D11*
X84808010Y-99412028D03*
X86208010Y-99412028D03*
D12*
X79920010Y-107224028D03*
X79920010Y-105824028D03*
G36*
G01*
X77260010Y-106244028D02*
X78660010Y-106244028D01*
G75*
G02*
X78810010Y-106394028I0J-150000D01*
G01*
X78810010Y-106694028D01*
G75*
G02*
X78660010Y-106844028I-150000J0D01*
G01*
X77260010Y-106844028D01*
G75*
G02*
X77110010Y-106694028I0J150000D01*
G01*
X77110010Y-106394028D01*
G75*
G02*
X77260010Y-106244028I150000J0D01*
G01*
G37*
G36*
G01*
X77260010Y-107494028D02*
X78660010Y-107494028D01*
G75*
G02*
X78810010Y-107644028I0J-150000D01*
G01*
X78810010Y-107944028D01*
G75*
G02*
X78660010Y-108094028I-150000J0D01*
G01*
X77260010Y-108094028D01*
G75*
G02*
X77110010Y-107944028I0J150000D01*
G01*
X77110010Y-107644028D01*
G75*
G02*
X77260010Y-107494028I150000J0D01*
G01*
G37*
G36*
G01*
X77260010Y-108744028D02*
X78660010Y-108744028D01*
G75*
G02*
X78810010Y-108894028I0J-150000D01*
G01*
X78810010Y-109194028D01*
G75*
G02*
X78660010Y-109344028I-150000J0D01*
G01*
X77260010Y-109344028D01*
G75*
G02*
X77110010Y-109194028I0J150000D01*
G01*
X77110010Y-108894028D01*
G75*
G02*
X77260010Y-108744028I150000J0D01*
G01*
G37*
G36*
G01*
X73660010Y-104194028D02*
X75860010Y-104194028D01*
G75*
G02*
X76110010Y-104444028I0J-250000D01*
G01*
X76110010Y-104944028D01*
G75*
G02*
X75860010Y-105194028I-250000J0D01*
G01*
X73660010Y-105194028D01*
G75*
G02*
X73410010Y-104944028I0J250000D01*
G01*
X73410010Y-104444028D01*
G75*
G02*
X73660010Y-104194028I250000J0D01*
G01*
G37*
G36*
G01*
X73660010Y-110394028D02*
X75860010Y-110394028D01*
G75*
G02*
X76110010Y-110644028I0J-250000D01*
G01*
X76110010Y-111144028D01*
G75*
G02*
X75860010Y-111394028I-250000J0D01*
G01*
X73660010Y-111394028D01*
G75*
G02*
X73410010Y-111144028I0J250000D01*
G01*
X73410010Y-110644028D01*
G75*
G02*
X73660010Y-110394028I250000J0D01*
G01*
G37*
G36*
G01*
X80322010Y-102691028D02*
X80322010Y-102991028D01*
G75*
G02*
X80172010Y-103141028I-150000J0D01*
G01*
X78722010Y-103141028D01*
G75*
G02*
X78572010Y-102991028I0J150000D01*
G01*
X78572010Y-102691028D01*
G75*
G02*
X78722010Y-102541028I150000J0D01*
G01*
X80172010Y-102541028D01*
G75*
G02*
X80322010Y-102691028I0J-150000D01*
G01*
G37*
G36*
G01*
X80322010Y-101421028D02*
X80322010Y-101721028D01*
G75*
G02*
X80172010Y-101871028I-150000J0D01*
G01*
X78722010Y-101871028D01*
G75*
G02*
X78572010Y-101721028I0J150000D01*
G01*
X78572010Y-101421028D01*
G75*
G02*
X78722010Y-101271028I150000J0D01*
G01*
X80172010Y-101271028D01*
G75*
G02*
X80322010Y-101421028I0J-150000D01*
G01*
G37*
G36*
G01*
X80322010Y-100151028D02*
X80322010Y-100451028D01*
G75*
G02*
X80172010Y-100601028I-150000J0D01*
G01*
X78722010Y-100601028D01*
G75*
G02*
X78572010Y-100451028I0J150000D01*
G01*
X78572010Y-100151028D01*
G75*
G02*
X78722010Y-100001028I150000J0D01*
G01*
X80172010Y-100001028D01*
G75*
G02*
X80322010Y-100151028I0J-150000D01*
G01*
G37*
G36*
G01*
X80322010Y-98881028D02*
X80322010Y-99181028D01*
G75*
G02*
X80172010Y-99331028I-150000J0D01*
G01*
X78722010Y-99331028D01*
G75*
G02*
X78572010Y-99181028I0J150000D01*
G01*
X78572010Y-98881028D01*
G75*
G02*
X78722010Y-98731028I150000J0D01*
G01*
X80172010Y-98731028D01*
G75*
G02*
X80322010Y-98881028I0J-150000D01*
G01*
G37*
G36*
G01*
X75172010Y-98881028D02*
X75172010Y-99181028D01*
G75*
G02*
X75022010Y-99331028I-150000J0D01*
G01*
X73572010Y-99331028D01*
G75*
G02*
X73422010Y-99181028I0J150000D01*
G01*
X73422010Y-98881028D01*
G75*
G02*
X73572010Y-98731028I150000J0D01*
G01*
X75022010Y-98731028D01*
G75*
G02*
X75172010Y-98881028I0J-150000D01*
G01*
G37*
G36*
G01*
X75172010Y-100151028D02*
X75172010Y-100451028D01*
G75*
G02*
X75022010Y-100601028I-150000J0D01*
G01*
X73572010Y-100601028D01*
G75*
G02*
X73422010Y-100451028I0J150000D01*
G01*
X73422010Y-100151028D01*
G75*
G02*
X73572010Y-100001028I150000J0D01*
G01*
X75022010Y-100001028D01*
G75*
G02*
X75172010Y-100151028I0J-150000D01*
G01*
G37*
G36*
G01*
X75172010Y-101421028D02*
X75172010Y-101721028D01*
G75*
G02*
X75022010Y-101871028I-150000J0D01*
G01*
X73572010Y-101871028D01*
G75*
G02*
X73422010Y-101721028I0J150000D01*
G01*
X73422010Y-101421028D01*
G75*
G02*
X73572010Y-101271028I150000J0D01*
G01*
X75022010Y-101271028D01*
G75*
G02*
X75172010Y-101421028I0J-150000D01*
G01*
G37*
G36*
G01*
X75172010Y-102691028D02*
X75172010Y-102991028D01*
G75*
G02*
X75022010Y-103141028I-150000J0D01*
G01*
X73572010Y-103141028D01*
G75*
G02*
X73422010Y-102991028I0J150000D01*
G01*
X73422010Y-102691028D01*
G75*
G02*
X73572010Y-102541028I150000J0D01*
G01*
X75022010Y-102541028D01*
G75*
G02*
X75172010Y-102691028I0J-150000D01*
G01*
G37*
G36*
G01*
X85209010Y-110567028D02*
X85209010Y-111117028D01*
G75*
G02*
X85009010Y-111317028I-200000J0D01*
G01*
X84609010Y-111317028D01*
G75*
G02*
X84409010Y-111117028I0J200000D01*
G01*
X84409010Y-110567028D01*
G75*
G02*
X84609010Y-110367028I200000J0D01*
G01*
X85009010Y-110367028D01*
G75*
G02*
X85209010Y-110567028I0J-200000D01*
G01*
G37*
G36*
G01*
X83559010Y-110567028D02*
X83559010Y-111117028D01*
G75*
G02*
X83359010Y-111317028I-200000J0D01*
G01*
X82959010Y-111317028D01*
G75*
G02*
X82759010Y-111117028I0J200000D01*
G01*
X82759010Y-110567028D01*
G75*
G02*
X82959010Y-110367028I200000J0D01*
G01*
X83359010Y-110367028D01*
G75*
G02*
X83559010Y-110567028I0J-200000D01*
G01*
G37*
G36*
G01*
X80637010Y-104242028D02*
X80637010Y-104742028D01*
G75*
G02*
X80412010Y-104967028I-225000J0D01*
G01*
X79962010Y-104967028D01*
G75*
G02*
X79737010Y-104742028I0J225000D01*
G01*
X79737010Y-104242028D01*
G75*
G02*
X79962010Y-104017028I225000J0D01*
G01*
X80412010Y-104017028D01*
G75*
G02*
X80637010Y-104242028I0J-225000D01*
G01*
G37*
G36*
G01*
X79087010Y-104242028D02*
X79087010Y-104742028D01*
G75*
G02*
X78862010Y-104967028I-225000J0D01*
G01*
X78412010Y-104967028D01*
G75*
G02*
X78187010Y-104742028I0J225000D01*
G01*
X78187010Y-104242028D01*
G75*
G02*
X78412010Y-104017028I225000J0D01*
G01*
X78862010Y-104017028D01*
G75*
G02*
X79087010Y-104242028I0J-225000D01*
G01*
G37*
G36*
G01*
X90379010Y-105529028D02*
X90379010Y-104979028D01*
G75*
G02*
X90579010Y-104779028I200000J0D01*
G01*
X90979010Y-104779028D01*
G75*
G02*
X91179010Y-104979028I0J-200000D01*
G01*
X91179010Y-105529028D01*
G75*
G02*
X90979010Y-105729028I-200000J0D01*
G01*
X90579010Y-105729028D01*
G75*
G02*
X90379010Y-105529028I0J200000D01*
G01*
G37*
G36*
G01*
X92029010Y-105529028D02*
X92029010Y-104979028D01*
G75*
G02*
X92229010Y-104779028I200000J0D01*
G01*
X92629010Y-104779028D01*
G75*
G02*
X92829010Y-104979028I0J-200000D01*
G01*
X92829010Y-105529028D01*
G75*
G02*
X92629010Y-105729028I-200000J0D01*
G01*
X92229010Y-105729028D01*
G75*
G02*
X92029010Y-105529028I0J200000D01*
G01*
G37*
D10*
X60410001Y-98920028D03*
X58510001Y-98920028D03*
X59460001Y-100920028D03*
D11*
X61808001Y-99412028D03*
X63208001Y-99412028D03*
D12*
X56920001Y-107224028D03*
X56920001Y-105824028D03*
G36*
G01*
X54260001Y-106244028D02*
X55660001Y-106244028D01*
G75*
G02*
X55810001Y-106394028I0J-150000D01*
G01*
X55810001Y-106694028D01*
G75*
G02*
X55660001Y-106844028I-150000J0D01*
G01*
X54260001Y-106844028D01*
G75*
G02*
X54110001Y-106694028I0J150000D01*
G01*
X54110001Y-106394028D01*
G75*
G02*
X54260001Y-106244028I150000J0D01*
G01*
G37*
G36*
G01*
X54260001Y-107494028D02*
X55660001Y-107494028D01*
G75*
G02*
X55810001Y-107644028I0J-150000D01*
G01*
X55810001Y-107944028D01*
G75*
G02*
X55660001Y-108094028I-150000J0D01*
G01*
X54260001Y-108094028D01*
G75*
G02*
X54110001Y-107944028I0J150000D01*
G01*
X54110001Y-107644028D01*
G75*
G02*
X54260001Y-107494028I150000J0D01*
G01*
G37*
G36*
G01*
X54260001Y-108744028D02*
X55660001Y-108744028D01*
G75*
G02*
X55810001Y-108894028I0J-150000D01*
G01*
X55810001Y-109194028D01*
G75*
G02*
X55660001Y-109344028I-150000J0D01*
G01*
X54260001Y-109344028D01*
G75*
G02*
X54110001Y-109194028I0J150000D01*
G01*
X54110001Y-108894028D01*
G75*
G02*
X54260001Y-108744028I150000J0D01*
G01*
G37*
G36*
G01*
X50660001Y-104194028D02*
X52860001Y-104194028D01*
G75*
G02*
X53110001Y-104444028I0J-250000D01*
G01*
X53110001Y-104944028D01*
G75*
G02*
X52860001Y-105194028I-250000J0D01*
G01*
X50660001Y-105194028D01*
G75*
G02*
X50410001Y-104944028I0J250000D01*
G01*
X50410001Y-104444028D01*
G75*
G02*
X50660001Y-104194028I250000J0D01*
G01*
G37*
G36*
G01*
X50660001Y-110394028D02*
X52860001Y-110394028D01*
G75*
G02*
X53110001Y-110644028I0J-250000D01*
G01*
X53110001Y-111144028D01*
G75*
G02*
X52860001Y-111394028I-250000J0D01*
G01*
X50660001Y-111394028D01*
G75*
G02*
X50410001Y-111144028I0J250000D01*
G01*
X50410001Y-110644028D01*
G75*
G02*
X50660001Y-110394028I250000J0D01*
G01*
G37*
G36*
G01*
X57322001Y-102691028D02*
X57322001Y-102991028D01*
G75*
G02*
X57172001Y-103141028I-150000J0D01*
G01*
X55722001Y-103141028D01*
G75*
G02*
X55572001Y-102991028I0J150000D01*
G01*
X55572001Y-102691028D01*
G75*
G02*
X55722001Y-102541028I150000J0D01*
G01*
X57172001Y-102541028D01*
G75*
G02*
X57322001Y-102691028I0J-150000D01*
G01*
G37*
G36*
G01*
X57322001Y-101421028D02*
X57322001Y-101721028D01*
G75*
G02*
X57172001Y-101871028I-150000J0D01*
G01*
X55722001Y-101871028D01*
G75*
G02*
X55572001Y-101721028I0J150000D01*
G01*
X55572001Y-101421028D01*
G75*
G02*
X55722001Y-101271028I150000J0D01*
G01*
X57172001Y-101271028D01*
G75*
G02*
X57322001Y-101421028I0J-150000D01*
G01*
G37*
G36*
G01*
X57322001Y-100151028D02*
X57322001Y-100451028D01*
G75*
G02*
X57172001Y-100601028I-150000J0D01*
G01*
X55722001Y-100601028D01*
G75*
G02*
X55572001Y-100451028I0J150000D01*
G01*
X55572001Y-100151028D01*
G75*
G02*
X55722001Y-100001028I150000J0D01*
G01*
X57172001Y-100001028D01*
G75*
G02*
X57322001Y-100151028I0J-150000D01*
G01*
G37*
G36*
G01*
X57322001Y-98881028D02*
X57322001Y-99181028D01*
G75*
G02*
X57172001Y-99331028I-150000J0D01*
G01*
X55722001Y-99331028D01*
G75*
G02*
X55572001Y-99181028I0J150000D01*
G01*
X55572001Y-98881028D01*
G75*
G02*
X55722001Y-98731028I150000J0D01*
G01*
X57172001Y-98731028D01*
G75*
G02*
X57322001Y-98881028I0J-150000D01*
G01*
G37*
G36*
G01*
X52172001Y-98881028D02*
X52172001Y-99181028D01*
G75*
G02*
X52022001Y-99331028I-150000J0D01*
G01*
X50572001Y-99331028D01*
G75*
G02*
X50422001Y-99181028I0J150000D01*
G01*
X50422001Y-98881028D01*
G75*
G02*
X50572001Y-98731028I150000J0D01*
G01*
X52022001Y-98731028D01*
G75*
G02*
X52172001Y-98881028I0J-150000D01*
G01*
G37*
G36*
G01*
X52172001Y-100151028D02*
X52172001Y-100451028D01*
G75*
G02*
X52022001Y-100601028I-150000J0D01*
G01*
X50572001Y-100601028D01*
G75*
G02*
X50422001Y-100451028I0J150000D01*
G01*
X50422001Y-100151028D01*
G75*
G02*
X50572001Y-100001028I150000J0D01*
G01*
X52022001Y-100001028D01*
G75*
G02*
X52172001Y-100151028I0J-150000D01*
G01*
G37*
G36*
G01*
X52172001Y-101421028D02*
X52172001Y-101721028D01*
G75*
G02*
X52022001Y-101871028I-150000J0D01*
G01*
X50572001Y-101871028D01*
G75*
G02*
X50422001Y-101721028I0J150000D01*
G01*
X50422001Y-101421028D01*
G75*
G02*
X50572001Y-101271028I150000J0D01*
G01*
X52022001Y-101271028D01*
G75*
G02*
X52172001Y-101421028I0J-150000D01*
G01*
G37*
G36*
G01*
X52172001Y-102691028D02*
X52172001Y-102991028D01*
G75*
G02*
X52022001Y-103141028I-150000J0D01*
G01*
X50572001Y-103141028D01*
G75*
G02*
X50422001Y-102991028I0J150000D01*
G01*
X50422001Y-102691028D01*
G75*
G02*
X50572001Y-102541028I150000J0D01*
G01*
X52022001Y-102541028D01*
G75*
G02*
X52172001Y-102691028I0J-150000D01*
G01*
G37*
G36*
G01*
X62209001Y-110567028D02*
X62209001Y-111117028D01*
G75*
G02*
X62009001Y-111317028I-200000J0D01*
G01*
X61609001Y-111317028D01*
G75*
G02*
X61409001Y-111117028I0J200000D01*
G01*
X61409001Y-110567028D01*
G75*
G02*
X61609001Y-110367028I200000J0D01*
G01*
X62009001Y-110367028D01*
G75*
G02*
X62209001Y-110567028I0J-200000D01*
G01*
G37*
G36*
G01*
X60559001Y-110567028D02*
X60559001Y-111117028D01*
G75*
G02*
X60359001Y-111317028I-200000J0D01*
G01*
X59959001Y-111317028D01*
G75*
G02*
X59759001Y-111117028I0J200000D01*
G01*
X59759001Y-110567028D01*
G75*
G02*
X59959001Y-110367028I200000J0D01*
G01*
X60359001Y-110367028D01*
G75*
G02*
X60559001Y-110567028I0J-200000D01*
G01*
G37*
G36*
G01*
X57637001Y-104242028D02*
X57637001Y-104742028D01*
G75*
G02*
X57412001Y-104967028I-225000J0D01*
G01*
X56962001Y-104967028D01*
G75*
G02*
X56737001Y-104742028I0J225000D01*
G01*
X56737001Y-104242028D01*
G75*
G02*
X56962001Y-104017028I225000J0D01*
G01*
X57412001Y-104017028D01*
G75*
G02*
X57637001Y-104242028I0J-225000D01*
G01*
G37*
G36*
G01*
X56087001Y-104242028D02*
X56087001Y-104742028D01*
G75*
G02*
X55862001Y-104967028I-225000J0D01*
G01*
X55412001Y-104967028D01*
G75*
G02*
X55187001Y-104742028I0J225000D01*
G01*
X55187001Y-104242028D01*
G75*
G02*
X55412001Y-104017028I225000J0D01*
G01*
X55862001Y-104017028D01*
G75*
G02*
X56087001Y-104242028I0J-225000D01*
G01*
G37*
G36*
G01*
X67379001Y-105529028D02*
X67379001Y-104979028D01*
G75*
G02*
X67579001Y-104779028I200000J0D01*
G01*
X67979001Y-104779028D01*
G75*
G02*
X68179001Y-104979028I0J-200000D01*
G01*
X68179001Y-105529028D01*
G75*
G02*
X67979001Y-105729028I-200000J0D01*
G01*
X67579001Y-105729028D01*
G75*
G02*
X67379001Y-105529028I0J200000D01*
G01*
G37*
G36*
G01*
X69029001Y-105529028D02*
X69029001Y-104979028D01*
G75*
G02*
X69229001Y-104779028I200000J0D01*
G01*
X69629001Y-104779028D01*
G75*
G02*
X69829001Y-104979028I0J-200000D01*
G01*
X69829001Y-105529028D01*
G75*
G02*
X69629001Y-105729028I-200000J0D01*
G01*
X69229001Y-105729028D01*
G75*
G02*
X69029001Y-105529028I0J200000D01*
G01*
G37*
D10*
X129410028Y-82920019D03*
X127510028Y-82920019D03*
X128460028Y-84920019D03*
D11*
X130808028Y-83412019D03*
X132208028Y-83412019D03*
D12*
X125920028Y-91224019D03*
X125920028Y-89824019D03*
G36*
G01*
X123260028Y-90244019D02*
X124660028Y-90244019D01*
G75*
G02*
X124810028Y-90394019I0J-150000D01*
G01*
X124810028Y-90694019D01*
G75*
G02*
X124660028Y-90844019I-150000J0D01*
G01*
X123260028Y-90844019D01*
G75*
G02*
X123110028Y-90694019I0J150000D01*
G01*
X123110028Y-90394019D01*
G75*
G02*
X123260028Y-90244019I150000J0D01*
G01*
G37*
G36*
G01*
X123260028Y-91494019D02*
X124660028Y-91494019D01*
G75*
G02*
X124810028Y-91644019I0J-150000D01*
G01*
X124810028Y-91944019D01*
G75*
G02*
X124660028Y-92094019I-150000J0D01*
G01*
X123260028Y-92094019D01*
G75*
G02*
X123110028Y-91944019I0J150000D01*
G01*
X123110028Y-91644019D01*
G75*
G02*
X123260028Y-91494019I150000J0D01*
G01*
G37*
G36*
G01*
X123260028Y-92744019D02*
X124660028Y-92744019D01*
G75*
G02*
X124810028Y-92894019I0J-150000D01*
G01*
X124810028Y-93194019D01*
G75*
G02*
X124660028Y-93344019I-150000J0D01*
G01*
X123260028Y-93344019D01*
G75*
G02*
X123110028Y-93194019I0J150000D01*
G01*
X123110028Y-92894019D01*
G75*
G02*
X123260028Y-92744019I150000J0D01*
G01*
G37*
G36*
G01*
X119660028Y-88194019D02*
X121860028Y-88194019D01*
G75*
G02*
X122110028Y-88444019I0J-250000D01*
G01*
X122110028Y-88944019D01*
G75*
G02*
X121860028Y-89194019I-250000J0D01*
G01*
X119660028Y-89194019D01*
G75*
G02*
X119410028Y-88944019I0J250000D01*
G01*
X119410028Y-88444019D01*
G75*
G02*
X119660028Y-88194019I250000J0D01*
G01*
G37*
G36*
G01*
X119660028Y-94394019D02*
X121860028Y-94394019D01*
G75*
G02*
X122110028Y-94644019I0J-250000D01*
G01*
X122110028Y-95144019D01*
G75*
G02*
X121860028Y-95394019I-250000J0D01*
G01*
X119660028Y-95394019D01*
G75*
G02*
X119410028Y-95144019I0J250000D01*
G01*
X119410028Y-94644019D01*
G75*
G02*
X119660028Y-94394019I250000J0D01*
G01*
G37*
G36*
G01*
X126322028Y-86691019D02*
X126322028Y-86991019D01*
G75*
G02*
X126172028Y-87141019I-150000J0D01*
G01*
X124722028Y-87141019D01*
G75*
G02*
X124572028Y-86991019I0J150000D01*
G01*
X124572028Y-86691019D01*
G75*
G02*
X124722028Y-86541019I150000J0D01*
G01*
X126172028Y-86541019D01*
G75*
G02*
X126322028Y-86691019I0J-150000D01*
G01*
G37*
G36*
G01*
X126322028Y-85421019D02*
X126322028Y-85721019D01*
G75*
G02*
X126172028Y-85871019I-150000J0D01*
G01*
X124722028Y-85871019D01*
G75*
G02*
X124572028Y-85721019I0J150000D01*
G01*
X124572028Y-85421019D01*
G75*
G02*
X124722028Y-85271019I150000J0D01*
G01*
X126172028Y-85271019D01*
G75*
G02*
X126322028Y-85421019I0J-150000D01*
G01*
G37*
G36*
G01*
X126322028Y-84151019D02*
X126322028Y-84451019D01*
G75*
G02*
X126172028Y-84601019I-150000J0D01*
G01*
X124722028Y-84601019D01*
G75*
G02*
X124572028Y-84451019I0J150000D01*
G01*
X124572028Y-84151019D01*
G75*
G02*
X124722028Y-84001019I150000J0D01*
G01*
X126172028Y-84001019D01*
G75*
G02*
X126322028Y-84151019I0J-150000D01*
G01*
G37*
G36*
G01*
X126322028Y-82881019D02*
X126322028Y-83181019D01*
G75*
G02*
X126172028Y-83331019I-150000J0D01*
G01*
X124722028Y-83331019D01*
G75*
G02*
X124572028Y-83181019I0J150000D01*
G01*
X124572028Y-82881019D01*
G75*
G02*
X124722028Y-82731019I150000J0D01*
G01*
X126172028Y-82731019D01*
G75*
G02*
X126322028Y-82881019I0J-150000D01*
G01*
G37*
G36*
G01*
X121172028Y-82881019D02*
X121172028Y-83181019D01*
G75*
G02*
X121022028Y-83331019I-150000J0D01*
G01*
X119572028Y-83331019D01*
G75*
G02*
X119422028Y-83181019I0J150000D01*
G01*
X119422028Y-82881019D01*
G75*
G02*
X119572028Y-82731019I150000J0D01*
G01*
X121022028Y-82731019D01*
G75*
G02*
X121172028Y-82881019I0J-150000D01*
G01*
G37*
G36*
G01*
X121172028Y-84151019D02*
X121172028Y-84451019D01*
G75*
G02*
X121022028Y-84601019I-150000J0D01*
G01*
X119572028Y-84601019D01*
G75*
G02*
X119422028Y-84451019I0J150000D01*
G01*
X119422028Y-84151019D01*
G75*
G02*
X119572028Y-84001019I150000J0D01*
G01*
X121022028Y-84001019D01*
G75*
G02*
X121172028Y-84151019I0J-150000D01*
G01*
G37*
G36*
G01*
X121172028Y-85421019D02*
X121172028Y-85721019D01*
G75*
G02*
X121022028Y-85871019I-150000J0D01*
G01*
X119572028Y-85871019D01*
G75*
G02*
X119422028Y-85721019I0J150000D01*
G01*
X119422028Y-85421019D01*
G75*
G02*
X119572028Y-85271019I150000J0D01*
G01*
X121022028Y-85271019D01*
G75*
G02*
X121172028Y-85421019I0J-150000D01*
G01*
G37*
G36*
G01*
X121172028Y-86691019D02*
X121172028Y-86991019D01*
G75*
G02*
X121022028Y-87141019I-150000J0D01*
G01*
X119572028Y-87141019D01*
G75*
G02*
X119422028Y-86991019I0J150000D01*
G01*
X119422028Y-86691019D01*
G75*
G02*
X119572028Y-86541019I150000J0D01*
G01*
X121022028Y-86541019D01*
G75*
G02*
X121172028Y-86691019I0J-150000D01*
G01*
G37*
G36*
G01*
X131209028Y-94567019D02*
X131209028Y-95117019D01*
G75*
G02*
X131009028Y-95317019I-200000J0D01*
G01*
X130609028Y-95317019D01*
G75*
G02*
X130409028Y-95117019I0J200000D01*
G01*
X130409028Y-94567019D01*
G75*
G02*
X130609028Y-94367019I200000J0D01*
G01*
X131009028Y-94367019D01*
G75*
G02*
X131209028Y-94567019I0J-200000D01*
G01*
G37*
G36*
G01*
X129559028Y-94567019D02*
X129559028Y-95117019D01*
G75*
G02*
X129359028Y-95317019I-200000J0D01*
G01*
X128959028Y-95317019D01*
G75*
G02*
X128759028Y-95117019I0J200000D01*
G01*
X128759028Y-94567019D01*
G75*
G02*
X128959028Y-94367019I200000J0D01*
G01*
X129359028Y-94367019D01*
G75*
G02*
X129559028Y-94567019I0J-200000D01*
G01*
G37*
G36*
G01*
X126637028Y-88242019D02*
X126637028Y-88742019D01*
G75*
G02*
X126412028Y-88967019I-225000J0D01*
G01*
X125962028Y-88967019D01*
G75*
G02*
X125737028Y-88742019I0J225000D01*
G01*
X125737028Y-88242019D01*
G75*
G02*
X125962028Y-88017019I225000J0D01*
G01*
X126412028Y-88017019D01*
G75*
G02*
X126637028Y-88242019I0J-225000D01*
G01*
G37*
G36*
G01*
X125087028Y-88242019D02*
X125087028Y-88742019D01*
G75*
G02*
X124862028Y-88967019I-225000J0D01*
G01*
X124412028Y-88967019D01*
G75*
G02*
X124187028Y-88742019I0J225000D01*
G01*
X124187028Y-88242019D01*
G75*
G02*
X124412028Y-88017019I225000J0D01*
G01*
X124862028Y-88017019D01*
G75*
G02*
X125087028Y-88242019I0J-225000D01*
G01*
G37*
G36*
G01*
X136379028Y-89529019D02*
X136379028Y-88979019D01*
G75*
G02*
X136579028Y-88779019I200000J0D01*
G01*
X136979028Y-88779019D01*
G75*
G02*
X137179028Y-88979019I0J-200000D01*
G01*
X137179028Y-89529019D01*
G75*
G02*
X136979028Y-89729019I-200000J0D01*
G01*
X136579028Y-89729019D01*
G75*
G02*
X136379028Y-89529019I0J200000D01*
G01*
G37*
G36*
G01*
X138029028Y-89529019D02*
X138029028Y-88979019D01*
G75*
G02*
X138229028Y-88779019I200000J0D01*
G01*
X138629028Y-88779019D01*
G75*
G02*
X138829028Y-88979019I0J-200000D01*
G01*
X138829028Y-89529019D01*
G75*
G02*
X138629028Y-89729019I-200000J0D01*
G01*
X138229028Y-89729019D01*
G75*
G02*
X138029028Y-89529019I0J200000D01*
G01*
G37*
D10*
X106410019Y-82920019D03*
X104510019Y-82920019D03*
X105460019Y-84920019D03*
D11*
X107808019Y-83412019D03*
X109208019Y-83412019D03*
D12*
X102920019Y-91224019D03*
X102920019Y-89824019D03*
G36*
G01*
X100260019Y-90244019D02*
X101660019Y-90244019D01*
G75*
G02*
X101810019Y-90394019I0J-150000D01*
G01*
X101810019Y-90694019D01*
G75*
G02*
X101660019Y-90844019I-150000J0D01*
G01*
X100260019Y-90844019D01*
G75*
G02*
X100110019Y-90694019I0J150000D01*
G01*
X100110019Y-90394019D01*
G75*
G02*
X100260019Y-90244019I150000J0D01*
G01*
G37*
G36*
G01*
X100260019Y-91494019D02*
X101660019Y-91494019D01*
G75*
G02*
X101810019Y-91644019I0J-150000D01*
G01*
X101810019Y-91944019D01*
G75*
G02*
X101660019Y-92094019I-150000J0D01*
G01*
X100260019Y-92094019D01*
G75*
G02*
X100110019Y-91944019I0J150000D01*
G01*
X100110019Y-91644019D01*
G75*
G02*
X100260019Y-91494019I150000J0D01*
G01*
G37*
G36*
G01*
X100260019Y-92744019D02*
X101660019Y-92744019D01*
G75*
G02*
X101810019Y-92894019I0J-150000D01*
G01*
X101810019Y-93194019D01*
G75*
G02*
X101660019Y-93344019I-150000J0D01*
G01*
X100260019Y-93344019D01*
G75*
G02*
X100110019Y-93194019I0J150000D01*
G01*
X100110019Y-92894019D01*
G75*
G02*
X100260019Y-92744019I150000J0D01*
G01*
G37*
G36*
G01*
X96660019Y-88194019D02*
X98860019Y-88194019D01*
G75*
G02*
X99110019Y-88444019I0J-250000D01*
G01*
X99110019Y-88944019D01*
G75*
G02*
X98860019Y-89194019I-250000J0D01*
G01*
X96660019Y-89194019D01*
G75*
G02*
X96410019Y-88944019I0J250000D01*
G01*
X96410019Y-88444019D01*
G75*
G02*
X96660019Y-88194019I250000J0D01*
G01*
G37*
G36*
G01*
X96660019Y-94394019D02*
X98860019Y-94394019D01*
G75*
G02*
X99110019Y-94644019I0J-250000D01*
G01*
X99110019Y-95144019D01*
G75*
G02*
X98860019Y-95394019I-250000J0D01*
G01*
X96660019Y-95394019D01*
G75*
G02*
X96410019Y-95144019I0J250000D01*
G01*
X96410019Y-94644019D01*
G75*
G02*
X96660019Y-94394019I250000J0D01*
G01*
G37*
G36*
G01*
X103322019Y-86691019D02*
X103322019Y-86991019D01*
G75*
G02*
X103172019Y-87141019I-150000J0D01*
G01*
X101722019Y-87141019D01*
G75*
G02*
X101572019Y-86991019I0J150000D01*
G01*
X101572019Y-86691019D01*
G75*
G02*
X101722019Y-86541019I150000J0D01*
G01*
X103172019Y-86541019D01*
G75*
G02*
X103322019Y-86691019I0J-150000D01*
G01*
G37*
G36*
G01*
X103322019Y-85421019D02*
X103322019Y-85721019D01*
G75*
G02*
X103172019Y-85871019I-150000J0D01*
G01*
X101722019Y-85871019D01*
G75*
G02*
X101572019Y-85721019I0J150000D01*
G01*
X101572019Y-85421019D01*
G75*
G02*
X101722019Y-85271019I150000J0D01*
G01*
X103172019Y-85271019D01*
G75*
G02*
X103322019Y-85421019I0J-150000D01*
G01*
G37*
G36*
G01*
X103322019Y-84151019D02*
X103322019Y-84451019D01*
G75*
G02*
X103172019Y-84601019I-150000J0D01*
G01*
X101722019Y-84601019D01*
G75*
G02*
X101572019Y-84451019I0J150000D01*
G01*
X101572019Y-84151019D01*
G75*
G02*
X101722019Y-84001019I150000J0D01*
G01*
X103172019Y-84001019D01*
G75*
G02*
X103322019Y-84151019I0J-150000D01*
G01*
G37*
G36*
G01*
X103322019Y-82881019D02*
X103322019Y-83181019D01*
G75*
G02*
X103172019Y-83331019I-150000J0D01*
G01*
X101722019Y-83331019D01*
G75*
G02*
X101572019Y-83181019I0J150000D01*
G01*
X101572019Y-82881019D01*
G75*
G02*
X101722019Y-82731019I150000J0D01*
G01*
X103172019Y-82731019D01*
G75*
G02*
X103322019Y-82881019I0J-150000D01*
G01*
G37*
G36*
G01*
X98172019Y-82881019D02*
X98172019Y-83181019D01*
G75*
G02*
X98022019Y-83331019I-150000J0D01*
G01*
X96572019Y-83331019D01*
G75*
G02*
X96422019Y-83181019I0J150000D01*
G01*
X96422019Y-82881019D01*
G75*
G02*
X96572019Y-82731019I150000J0D01*
G01*
X98022019Y-82731019D01*
G75*
G02*
X98172019Y-82881019I0J-150000D01*
G01*
G37*
G36*
G01*
X98172019Y-84151019D02*
X98172019Y-84451019D01*
G75*
G02*
X98022019Y-84601019I-150000J0D01*
G01*
X96572019Y-84601019D01*
G75*
G02*
X96422019Y-84451019I0J150000D01*
G01*
X96422019Y-84151019D01*
G75*
G02*
X96572019Y-84001019I150000J0D01*
G01*
X98022019Y-84001019D01*
G75*
G02*
X98172019Y-84151019I0J-150000D01*
G01*
G37*
G36*
G01*
X98172019Y-85421019D02*
X98172019Y-85721019D01*
G75*
G02*
X98022019Y-85871019I-150000J0D01*
G01*
X96572019Y-85871019D01*
G75*
G02*
X96422019Y-85721019I0J150000D01*
G01*
X96422019Y-85421019D01*
G75*
G02*
X96572019Y-85271019I150000J0D01*
G01*
X98022019Y-85271019D01*
G75*
G02*
X98172019Y-85421019I0J-150000D01*
G01*
G37*
G36*
G01*
X98172019Y-86691019D02*
X98172019Y-86991019D01*
G75*
G02*
X98022019Y-87141019I-150000J0D01*
G01*
X96572019Y-87141019D01*
G75*
G02*
X96422019Y-86991019I0J150000D01*
G01*
X96422019Y-86691019D01*
G75*
G02*
X96572019Y-86541019I150000J0D01*
G01*
X98022019Y-86541019D01*
G75*
G02*
X98172019Y-86691019I0J-150000D01*
G01*
G37*
G36*
G01*
X108209019Y-94567019D02*
X108209019Y-95117019D01*
G75*
G02*
X108009019Y-95317019I-200000J0D01*
G01*
X107609019Y-95317019D01*
G75*
G02*
X107409019Y-95117019I0J200000D01*
G01*
X107409019Y-94567019D01*
G75*
G02*
X107609019Y-94367019I200000J0D01*
G01*
X108009019Y-94367019D01*
G75*
G02*
X108209019Y-94567019I0J-200000D01*
G01*
G37*
G36*
G01*
X106559019Y-94567019D02*
X106559019Y-95117019D01*
G75*
G02*
X106359019Y-95317019I-200000J0D01*
G01*
X105959019Y-95317019D01*
G75*
G02*
X105759019Y-95117019I0J200000D01*
G01*
X105759019Y-94567019D01*
G75*
G02*
X105959019Y-94367019I200000J0D01*
G01*
X106359019Y-94367019D01*
G75*
G02*
X106559019Y-94567019I0J-200000D01*
G01*
G37*
G36*
G01*
X103637019Y-88242019D02*
X103637019Y-88742019D01*
G75*
G02*
X103412019Y-88967019I-225000J0D01*
G01*
X102962019Y-88967019D01*
G75*
G02*
X102737019Y-88742019I0J225000D01*
G01*
X102737019Y-88242019D01*
G75*
G02*
X102962019Y-88017019I225000J0D01*
G01*
X103412019Y-88017019D01*
G75*
G02*
X103637019Y-88242019I0J-225000D01*
G01*
G37*
G36*
G01*
X102087019Y-88242019D02*
X102087019Y-88742019D01*
G75*
G02*
X101862019Y-88967019I-225000J0D01*
G01*
X101412019Y-88967019D01*
G75*
G02*
X101187019Y-88742019I0J225000D01*
G01*
X101187019Y-88242019D01*
G75*
G02*
X101412019Y-88017019I225000J0D01*
G01*
X101862019Y-88017019D01*
G75*
G02*
X102087019Y-88242019I0J-225000D01*
G01*
G37*
G36*
G01*
X113379019Y-89529019D02*
X113379019Y-88979019D01*
G75*
G02*
X113579019Y-88779019I200000J0D01*
G01*
X113979019Y-88779019D01*
G75*
G02*
X114179019Y-88979019I0J-200000D01*
G01*
X114179019Y-89529019D01*
G75*
G02*
X113979019Y-89729019I-200000J0D01*
G01*
X113579019Y-89729019D01*
G75*
G02*
X113379019Y-89529019I0J200000D01*
G01*
G37*
G36*
G01*
X115029019Y-89529019D02*
X115029019Y-88979019D01*
G75*
G02*
X115229019Y-88779019I200000J0D01*
G01*
X115629019Y-88779019D01*
G75*
G02*
X115829019Y-88979019I0J-200000D01*
G01*
X115829019Y-89529019D01*
G75*
G02*
X115629019Y-89729019I-200000J0D01*
G01*
X115229019Y-89729019D01*
G75*
G02*
X115029019Y-89529019I0J200000D01*
G01*
G37*
D10*
X83410010Y-82920019D03*
X81510010Y-82920019D03*
X82460010Y-84920019D03*
D11*
X84808010Y-83412019D03*
X86208010Y-83412019D03*
D12*
X79920010Y-91224019D03*
X79920010Y-89824019D03*
G36*
G01*
X77260010Y-90244019D02*
X78660010Y-90244019D01*
G75*
G02*
X78810010Y-90394019I0J-150000D01*
G01*
X78810010Y-90694019D01*
G75*
G02*
X78660010Y-90844019I-150000J0D01*
G01*
X77260010Y-90844019D01*
G75*
G02*
X77110010Y-90694019I0J150000D01*
G01*
X77110010Y-90394019D01*
G75*
G02*
X77260010Y-90244019I150000J0D01*
G01*
G37*
G36*
G01*
X77260010Y-91494019D02*
X78660010Y-91494019D01*
G75*
G02*
X78810010Y-91644019I0J-150000D01*
G01*
X78810010Y-91944019D01*
G75*
G02*
X78660010Y-92094019I-150000J0D01*
G01*
X77260010Y-92094019D01*
G75*
G02*
X77110010Y-91944019I0J150000D01*
G01*
X77110010Y-91644019D01*
G75*
G02*
X77260010Y-91494019I150000J0D01*
G01*
G37*
G36*
G01*
X77260010Y-92744019D02*
X78660010Y-92744019D01*
G75*
G02*
X78810010Y-92894019I0J-150000D01*
G01*
X78810010Y-93194019D01*
G75*
G02*
X78660010Y-93344019I-150000J0D01*
G01*
X77260010Y-93344019D01*
G75*
G02*
X77110010Y-93194019I0J150000D01*
G01*
X77110010Y-92894019D01*
G75*
G02*
X77260010Y-92744019I150000J0D01*
G01*
G37*
G36*
G01*
X73660010Y-88194019D02*
X75860010Y-88194019D01*
G75*
G02*
X76110010Y-88444019I0J-250000D01*
G01*
X76110010Y-88944019D01*
G75*
G02*
X75860010Y-89194019I-250000J0D01*
G01*
X73660010Y-89194019D01*
G75*
G02*
X73410010Y-88944019I0J250000D01*
G01*
X73410010Y-88444019D01*
G75*
G02*
X73660010Y-88194019I250000J0D01*
G01*
G37*
G36*
G01*
X73660010Y-94394019D02*
X75860010Y-94394019D01*
G75*
G02*
X76110010Y-94644019I0J-250000D01*
G01*
X76110010Y-95144019D01*
G75*
G02*
X75860010Y-95394019I-250000J0D01*
G01*
X73660010Y-95394019D01*
G75*
G02*
X73410010Y-95144019I0J250000D01*
G01*
X73410010Y-94644019D01*
G75*
G02*
X73660010Y-94394019I250000J0D01*
G01*
G37*
G36*
G01*
X80322010Y-86691019D02*
X80322010Y-86991019D01*
G75*
G02*
X80172010Y-87141019I-150000J0D01*
G01*
X78722010Y-87141019D01*
G75*
G02*
X78572010Y-86991019I0J150000D01*
G01*
X78572010Y-86691019D01*
G75*
G02*
X78722010Y-86541019I150000J0D01*
G01*
X80172010Y-86541019D01*
G75*
G02*
X80322010Y-86691019I0J-150000D01*
G01*
G37*
G36*
G01*
X80322010Y-85421019D02*
X80322010Y-85721019D01*
G75*
G02*
X80172010Y-85871019I-150000J0D01*
G01*
X78722010Y-85871019D01*
G75*
G02*
X78572010Y-85721019I0J150000D01*
G01*
X78572010Y-85421019D01*
G75*
G02*
X78722010Y-85271019I150000J0D01*
G01*
X80172010Y-85271019D01*
G75*
G02*
X80322010Y-85421019I0J-150000D01*
G01*
G37*
G36*
G01*
X80322010Y-84151019D02*
X80322010Y-84451019D01*
G75*
G02*
X80172010Y-84601019I-150000J0D01*
G01*
X78722010Y-84601019D01*
G75*
G02*
X78572010Y-84451019I0J150000D01*
G01*
X78572010Y-84151019D01*
G75*
G02*
X78722010Y-84001019I150000J0D01*
G01*
X80172010Y-84001019D01*
G75*
G02*
X80322010Y-84151019I0J-150000D01*
G01*
G37*
G36*
G01*
X80322010Y-82881019D02*
X80322010Y-83181019D01*
G75*
G02*
X80172010Y-83331019I-150000J0D01*
G01*
X78722010Y-83331019D01*
G75*
G02*
X78572010Y-83181019I0J150000D01*
G01*
X78572010Y-82881019D01*
G75*
G02*
X78722010Y-82731019I150000J0D01*
G01*
X80172010Y-82731019D01*
G75*
G02*
X80322010Y-82881019I0J-150000D01*
G01*
G37*
G36*
G01*
X75172010Y-82881019D02*
X75172010Y-83181019D01*
G75*
G02*
X75022010Y-83331019I-150000J0D01*
G01*
X73572010Y-83331019D01*
G75*
G02*
X73422010Y-83181019I0J150000D01*
G01*
X73422010Y-82881019D01*
G75*
G02*
X73572010Y-82731019I150000J0D01*
G01*
X75022010Y-82731019D01*
G75*
G02*
X75172010Y-82881019I0J-150000D01*
G01*
G37*
G36*
G01*
X75172010Y-84151019D02*
X75172010Y-84451019D01*
G75*
G02*
X75022010Y-84601019I-150000J0D01*
G01*
X73572010Y-84601019D01*
G75*
G02*
X73422010Y-84451019I0J150000D01*
G01*
X73422010Y-84151019D01*
G75*
G02*
X73572010Y-84001019I150000J0D01*
G01*
X75022010Y-84001019D01*
G75*
G02*
X75172010Y-84151019I0J-150000D01*
G01*
G37*
G36*
G01*
X75172010Y-85421019D02*
X75172010Y-85721019D01*
G75*
G02*
X75022010Y-85871019I-150000J0D01*
G01*
X73572010Y-85871019D01*
G75*
G02*
X73422010Y-85721019I0J150000D01*
G01*
X73422010Y-85421019D01*
G75*
G02*
X73572010Y-85271019I150000J0D01*
G01*
X75022010Y-85271019D01*
G75*
G02*
X75172010Y-85421019I0J-150000D01*
G01*
G37*
G36*
G01*
X75172010Y-86691019D02*
X75172010Y-86991019D01*
G75*
G02*
X75022010Y-87141019I-150000J0D01*
G01*
X73572010Y-87141019D01*
G75*
G02*
X73422010Y-86991019I0J150000D01*
G01*
X73422010Y-86691019D01*
G75*
G02*
X73572010Y-86541019I150000J0D01*
G01*
X75022010Y-86541019D01*
G75*
G02*
X75172010Y-86691019I0J-150000D01*
G01*
G37*
G36*
G01*
X85209010Y-94567019D02*
X85209010Y-95117019D01*
G75*
G02*
X85009010Y-95317019I-200000J0D01*
G01*
X84609010Y-95317019D01*
G75*
G02*
X84409010Y-95117019I0J200000D01*
G01*
X84409010Y-94567019D01*
G75*
G02*
X84609010Y-94367019I200000J0D01*
G01*
X85009010Y-94367019D01*
G75*
G02*
X85209010Y-94567019I0J-200000D01*
G01*
G37*
G36*
G01*
X83559010Y-94567019D02*
X83559010Y-95117019D01*
G75*
G02*
X83359010Y-95317019I-200000J0D01*
G01*
X82959010Y-95317019D01*
G75*
G02*
X82759010Y-95117019I0J200000D01*
G01*
X82759010Y-94567019D01*
G75*
G02*
X82959010Y-94367019I200000J0D01*
G01*
X83359010Y-94367019D01*
G75*
G02*
X83559010Y-94567019I0J-200000D01*
G01*
G37*
G36*
G01*
X80637010Y-88242019D02*
X80637010Y-88742019D01*
G75*
G02*
X80412010Y-88967019I-225000J0D01*
G01*
X79962010Y-88967019D01*
G75*
G02*
X79737010Y-88742019I0J225000D01*
G01*
X79737010Y-88242019D01*
G75*
G02*
X79962010Y-88017019I225000J0D01*
G01*
X80412010Y-88017019D01*
G75*
G02*
X80637010Y-88242019I0J-225000D01*
G01*
G37*
G36*
G01*
X79087010Y-88242019D02*
X79087010Y-88742019D01*
G75*
G02*
X78862010Y-88967019I-225000J0D01*
G01*
X78412010Y-88967019D01*
G75*
G02*
X78187010Y-88742019I0J225000D01*
G01*
X78187010Y-88242019D01*
G75*
G02*
X78412010Y-88017019I225000J0D01*
G01*
X78862010Y-88017019D01*
G75*
G02*
X79087010Y-88242019I0J-225000D01*
G01*
G37*
G36*
G01*
X90379010Y-89529019D02*
X90379010Y-88979019D01*
G75*
G02*
X90579010Y-88779019I200000J0D01*
G01*
X90979010Y-88779019D01*
G75*
G02*
X91179010Y-88979019I0J-200000D01*
G01*
X91179010Y-89529019D01*
G75*
G02*
X90979010Y-89729019I-200000J0D01*
G01*
X90579010Y-89729019D01*
G75*
G02*
X90379010Y-89529019I0J200000D01*
G01*
G37*
G36*
G01*
X92029010Y-89529019D02*
X92029010Y-88979019D01*
G75*
G02*
X92229010Y-88779019I200000J0D01*
G01*
X92629010Y-88779019D01*
G75*
G02*
X92829010Y-88979019I0J-200000D01*
G01*
X92829010Y-89529019D01*
G75*
G02*
X92629010Y-89729019I-200000J0D01*
G01*
X92229010Y-89729019D01*
G75*
G02*
X92029010Y-89529019I0J200000D01*
G01*
G37*
D10*
X60410001Y-82920019D03*
X58510001Y-82920019D03*
X59460001Y-84920019D03*
D11*
X61808001Y-83412019D03*
X63208001Y-83412019D03*
D12*
X56920001Y-91224019D03*
X56920001Y-89824019D03*
G36*
G01*
X54260001Y-90244019D02*
X55660001Y-90244019D01*
G75*
G02*
X55810001Y-90394019I0J-150000D01*
G01*
X55810001Y-90694019D01*
G75*
G02*
X55660001Y-90844019I-150000J0D01*
G01*
X54260001Y-90844019D01*
G75*
G02*
X54110001Y-90694019I0J150000D01*
G01*
X54110001Y-90394019D01*
G75*
G02*
X54260001Y-90244019I150000J0D01*
G01*
G37*
G36*
G01*
X54260001Y-91494019D02*
X55660001Y-91494019D01*
G75*
G02*
X55810001Y-91644019I0J-150000D01*
G01*
X55810001Y-91944019D01*
G75*
G02*
X55660001Y-92094019I-150000J0D01*
G01*
X54260001Y-92094019D01*
G75*
G02*
X54110001Y-91944019I0J150000D01*
G01*
X54110001Y-91644019D01*
G75*
G02*
X54260001Y-91494019I150000J0D01*
G01*
G37*
G36*
G01*
X54260001Y-92744019D02*
X55660001Y-92744019D01*
G75*
G02*
X55810001Y-92894019I0J-150000D01*
G01*
X55810001Y-93194019D01*
G75*
G02*
X55660001Y-93344019I-150000J0D01*
G01*
X54260001Y-93344019D01*
G75*
G02*
X54110001Y-93194019I0J150000D01*
G01*
X54110001Y-92894019D01*
G75*
G02*
X54260001Y-92744019I150000J0D01*
G01*
G37*
G36*
G01*
X50660001Y-88194019D02*
X52860001Y-88194019D01*
G75*
G02*
X53110001Y-88444019I0J-250000D01*
G01*
X53110001Y-88944019D01*
G75*
G02*
X52860001Y-89194019I-250000J0D01*
G01*
X50660001Y-89194019D01*
G75*
G02*
X50410001Y-88944019I0J250000D01*
G01*
X50410001Y-88444019D01*
G75*
G02*
X50660001Y-88194019I250000J0D01*
G01*
G37*
G36*
G01*
X50660001Y-94394019D02*
X52860001Y-94394019D01*
G75*
G02*
X53110001Y-94644019I0J-250000D01*
G01*
X53110001Y-95144019D01*
G75*
G02*
X52860001Y-95394019I-250000J0D01*
G01*
X50660001Y-95394019D01*
G75*
G02*
X50410001Y-95144019I0J250000D01*
G01*
X50410001Y-94644019D01*
G75*
G02*
X50660001Y-94394019I250000J0D01*
G01*
G37*
G36*
G01*
X57322001Y-86691019D02*
X57322001Y-86991019D01*
G75*
G02*
X57172001Y-87141019I-150000J0D01*
G01*
X55722001Y-87141019D01*
G75*
G02*
X55572001Y-86991019I0J150000D01*
G01*
X55572001Y-86691019D01*
G75*
G02*
X55722001Y-86541019I150000J0D01*
G01*
X57172001Y-86541019D01*
G75*
G02*
X57322001Y-86691019I0J-150000D01*
G01*
G37*
G36*
G01*
X57322001Y-85421019D02*
X57322001Y-85721019D01*
G75*
G02*
X57172001Y-85871019I-150000J0D01*
G01*
X55722001Y-85871019D01*
G75*
G02*
X55572001Y-85721019I0J150000D01*
G01*
X55572001Y-85421019D01*
G75*
G02*
X55722001Y-85271019I150000J0D01*
G01*
X57172001Y-85271019D01*
G75*
G02*
X57322001Y-85421019I0J-150000D01*
G01*
G37*
G36*
G01*
X57322001Y-84151019D02*
X57322001Y-84451019D01*
G75*
G02*
X57172001Y-84601019I-150000J0D01*
G01*
X55722001Y-84601019D01*
G75*
G02*
X55572001Y-84451019I0J150000D01*
G01*
X55572001Y-84151019D01*
G75*
G02*
X55722001Y-84001019I150000J0D01*
G01*
X57172001Y-84001019D01*
G75*
G02*
X57322001Y-84151019I0J-150000D01*
G01*
G37*
G36*
G01*
X57322001Y-82881019D02*
X57322001Y-83181019D01*
G75*
G02*
X57172001Y-83331019I-150000J0D01*
G01*
X55722001Y-83331019D01*
G75*
G02*
X55572001Y-83181019I0J150000D01*
G01*
X55572001Y-82881019D01*
G75*
G02*
X55722001Y-82731019I150000J0D01*
G01*
X57172001Y-82731019D01*
G75*
G02*
X57322001Y-82881019I0J-150000D01*
G01*
G37*
G36*
G01*
X52172001Y-82881019D02*
X52172001Y-83181019D01*
G75*
G02*
X52022001Y-83331019I-150000J0D01*
G01*
X50572001Y-83331019D01*
G75*
G02*
X50422001Y-83181019I0J150000D01*
G01*
X50422001Y-82881019D01*
G75*
G02*
X50572001Y-82731019I150000J0D01*
G01*
X52022001Y-82731019D01*
G75*
G02*
X52172001Y-82881019I0J-150000D01*
G01*
G37*
G36*
G01*
X52172001Y-84151019D02*
X52172001Y-84451019D01*
G75*
G02*
X52022001Y-84601019I-150000J0D01*
G01*
X50572001Y-84601019D01*
G75*
G02*
X50422001Y-84451019I0J150000D01*
G01*
X50422001Y-84151019D01*
G75*
G02*
X50572001Y-84001019I150000J0D01*
G01*
X52022001Y-84001019D01*
G75*
G02*
X52172001Y-84151019I0J-150000D01*
G01*
G37*
G36*
G01*
X52172001Y-85421019D02*
X52172001Y-85721019D01*
G75*
G02*
X52022001Y-85871019I-150000J0D01*
G01*
X50572001Y-85871019D01*
G75*
G02*
X50422001Y-85721019I0J150000D01*
G01*
X50422001Y-85421019D01*
G75*
G02*
X50572001Y-85271019I150000J0D01*
G01*
X52022001Y-85271019D01*
G75*
G02*
X52172001Y-85421019I0J-150000D01*
G01*
G37*
G36*
G01*
X52172001Y-86691019D02*
X52172001Y-86991019D01*
G75*
G02*
X52022001Y-87141019I-150000J0D01*
G01*
X50572001Y-87141019D01*
G75*
G02*
X50422001Y-86991019I0J150000D01*
G01*
X50422001Y-86691019D01*
G75*
G02*
X50572001Y-86541019I150000J0D01*
G01*
X52022001Y-86541019D01*
G75*
G02*
X52172001Y-86691019I0J-150000D01*
G01*
G37*
G36*
G01*
X62209001Y-94567019D02*
X62209001Y-95117019D01*
G75*
G02*
X62009001Y-95317019I-200000J0D01*
G01*
X61609001Y-95317019D01*
G75*
G02*
X61409001Y-95117019I0J200000D01*
G01*
X61409001Y-94567019D01*
G75*
G02*
X61609001Y-94367019I200000J0D01*
G01*
X62009001Y-94367019D01*
G75*
G02*
X62209001Y-94567019I0J-200000D01*
G01*
G37*
G36*
G01*
X60559001Y-94567019D02*
X60559001Y-95117019D01*
G75*
G02*
X60359001Y-95317019I-200000J0D01*
G01*
X59959001Y-95317019D01*
G75*
G02*
X59759001Y-95117019I0J200000D01*
G01*
X59759001Y-94567019D01*
G75*
G02*
X59959001Y-94367019I200000J0D01*
G01*
X60359001Y-94367019D01*
G75*
G02*
X60559001Y-94567019I0J-200000D01*
G01*
G37*
G36*
G01*
X57637001Y-88242019D02*
X57637001Y-88742019D01*
G75*
G02*
X57412001Y-88967019I-225000J0D01*
G01*
X56962001Y-88967019D01*
G75*
G02*
X56737001Y-88742019I0J225000D01*
G01*
X56737001Y-88242019D01*
G75*
G02*
X56962001Y-88017019I225000J0D01*
G01*
X57412001Y-88017019D01*
G75*
G02*
X57637001Y-88242019I0J-225000D01*
G01*
G37*
G36*
G01*
X56087001Y-88242019D02*
X56087001Y-88742019D01*
G75*
G02*
X55862001Y-88967019I-225000J0D01*
G01*
X55412001Y-88967019D01*
G75*
G02*
X55187001Y-88742019I0J225000D01*
G01*
X55187001Y-88242019D01*
G75*
G02*
X55412001Y-88017019I225000J0D01*
G01*
X55862001Y-88017019D01*
G75*
G02*
X56087001Y-88242019I0J-225000D01*
G01*
G37*
G36*
G01*
X67379001Y-89529019D02*
X67379001Y-88979019D01*
G75*
G02*
X67579001Y-88779019I200000J0D01*
G01*
X67979001Y-88779019D01*
G75*
G02*
X68179001Y-88979019I0J-200000D01*
G01*
X68179001Y-89529019D01*
G75*
G02*
X67979001Y-89729019I-200000J0D01*
G01*
X67579001Y-89729019D01*
G75*
G02*
X67379001Y-89529019I0J200000D01*
G01*
G37*
G36*
G01*
X69029001Y-89529019D02*
X69029001Y-88979019D01*
G75*
G02*
X69229001Y-88779019I200000J0D01*
G01*
X69629001Y-88779019D01*
G75*
G02*
X69829001Y-88979019I0J-200000D01*
G01*
X69829001Y-89529019D01*
G75*
G02*
X69629001Y-89729019I-200000J0D01*
G01*
X69229001Y-89729019D01*
G75*
G02*
X69029001Y-89529019I0J200000D01*
G01*
G37*
D10*
X129410028Y-66920010D03*
X127510028Y-66920010D03*
X128460028Y-68920010D03*
D11*
X130808028Y-67412010D03*
X132208028Y-67412010D03*
D12*
X125920028Y-75224010D03*
X125920028Y-73824010D03*
G36*
G01*
X123260028Y-74244010D02*
X124660028Y-74244010D01*
G75*
G02*
X124810028Y-74394010I0J-150000D01*
G01*
X124810028Y-74694010D01*
G75*
G02*
X124660028Y-74844010I-150000J0D01*
G01*
X123260028Y-74844010D01*
G75*
G02*
X123110028Y-74694010I0J150000D01*
G01*
X123110028Y-74394010D01*
G75*
G02*
X123260028Y-74244010I150000J0D01*
G01*
G37*
G36*
G01*
X123260028Y-75494010D02*
X124660028Y-75494010D01*
G75*
G02*
X124810028Y-75644010I0J-150000D01*
G01*
X124810028Y-75944010D01*
G75*
G02*
X124660028Y-76094010I-150000J0D01*
G01*
X123260028Y-76094010D01*
G75*
G02*
X123110028Y-75944010I0J150000D01*
G01*
X123110028Y-75644010D01*
G75*
G02*
X123260028Y-75494010I150000J0D01*
G01*
G37*
G36*
G01*
X123260028Y-76744010D02*
X124660028Y-76744010D01*
G75*
G02*
X124810028Y-76894010I0J-150000D01*
G01*
X124810028Y-77194010D01*
G75*
G02*
X124660028Y-77344010I-150000J0D01*
G01*
X123260028Y-77344010D01*
G75*
G02*
X123110028Y-77194010I0J150000D01*
G01*
X123110028Y-76894010D01*
G75*
G02*
X123260028Y-76744010I150000J0D01*
G01*
G37*
G36*
G01*
X119660028Y-72194010D02*
X121860028Y-72194010D01*
G75*
G02*
X122110028Y-72444010I0J-250000D01*
G01*
X122110028Y-72944010D01*
G75*
G02*
X121860028Y-73194010I-250000J0D01*
G01*
X119660028Y-73194010D01*
G75*
G02*
X119410028Y-72944010I0J250000D01*
G01*
X119410028Y-72444010D01*
G75*
G02*
X119660028Y-72194010I250000J0D01*
G01*
G37*
G36*
G01*
X119660028Y-78394010D02*
X121860028Y-78394010D01*
G75*
G02*
X122110028Y-78644010I0J-250000D01*
G01*
X122110028Y-79144010D01*
G75*
G02*
X121860028Y-79394010I-250000J0D01*
G01*
X119660028Y-79394010D01*
G75*
G02*
X119410028Y-79144010I0J250000D01*
G01*
X119410028Y-78644010D01*
G75*
G02*
X119660028Y-78394010I250000J0D01*
G01*
G37*
G36*
G01*
X126322028Y-70691010D02*
X126322028Y-70991010D01*
G75*
G02*
X126172028Y-71141010I-150000J0D01*
G01*
X124722028Y-71141010D01*
G75*
G02*
X124572028Y-70991010I0J150000D01*
G01*
X124572028Y-70691010D01*
G75*
G02*
X124722028Y-70541010I150000J0D01*
G01*
X126172028Y-70541010D01*
G75*
G02*
X126322028Y-70691010I0J-150000D01*
G01*
G37*
G36*
G01*
X126322028Y-69421010D02*
X126322028Y-69721010D01*
G75*
G02*
X126172028Y-69871010I-150000J0D01*
G01*
X124722028Y-69871010D01*
G75*
G02*
X124572028Y-69721010I0J150000D01*
G01*
X124572028Y-69421010D01*
G75*
G02*
X124722028Y-69271010I150000J0D01*
G01*
X126172028Y-69271010D01*
G75*
G02*
X126322028Y-69421010I0J-150000D01*
G01*
G37*
G36*
G01*
X126322028Y-68151010D02*
X126322028Y-68451010D01*
G75*
G02*
X126172028Y-68601010I-150000J0D01*
G01*
X124722028Y-68601010D01*
G75*
G02*
X124572028Y-68451010I0J150000D01*
G01*
X124572028Y-68151010D01*
G75*
G02*
X124722028Y-68001010I150000J0D01*
G01*
X126172028Y-68001010D01*
G75*
G02*
X126322028Y-68151010I0J-150000D01*
G01*
G37*
G36*
G01*
X126322028Y-66881010D02*
X126322028Y-67181010D01*
G75*
G02*
X126172028Y-67331010I-150000J0D01*
G01*
X124722028Y-67331010D01*
G75*
G02*
X124572028Y-67181010I0J150000D01*
G01*
X124572028Y-66881010D01*
G75*
G02*
X124722028Y-66731010I150000J0D01*
G01*
X126172028Y-66731010D01*
G75*
G02*
X126322028Y-66881010I0J-150000D01*
G01*
G37*
G36*
G01*
X121172028Y-66881010D02*
X121172028Y-67181010D01*
G75*
G02*
X121022028Y-67331010I-150000J0D01*
G01*
X119572028Y-67331010D01*
G75*
G02*
X119422028Y-67181010I0J150000D01*
G01*
X119422028Y-66881010D01*
G75*
G02*
X119572028Y-66731010I150000J0D01*
G01*
X121022028Y-66731010D01*
G75*
G02*
X121172028Y-66881010I0J-150000D01*
G01*
G37*
G36*
G01*
X121172028Y-68151010D02*
X121172028Y-68451010D01*
G75*
G02*
X121022028Y-68601010I-150000J0D01*
G01*
X119572028Y-68601010D01*
G75*
G02*
X119422028Y-68451010I0J150000D01*
G01*
X119422028Y-68151010D01*
G75*
G02*
X119572028Y-68001010I150000J0D01*
G01*
X121022028Y-68001010D01*
G75*
G02*
X121172028Y-68151010I0J-150000D01*
G01*
G37*
G36*
G01*
X121172028Y-69421010D02*
X121172028Y-69721010D01*
G75*
G02*
X121022028Y-69871010I-150000J0D01*
G01*
X119572028Y-69871010D01*
G75*
G02*
X119422028Y-69721010I0J150000D01*
G01*
X119422028Y-69421010D01*
G75*
G02*
X119572028Y-69271010I150000J0D01*
G01*
X121022028Y-69271010D01*
G75*
G02*
X121172028Y-69421010I0J-150000D01*
G01*
G37*
G36*
G01*
X121172028Y-70691010D02*
X121172028Y-70991010D01*
G75*
G02*
X121022028Y-71141010I-150000J0D01*
G01*
X119572028Y-71141010D01*
G75*
G02*
X119422028Y-70991010I0J150000D01*
G01*
X119422028Y-70691010D01*
G75*
G02*
X119572028Y-70541010I150000J0D01*
G01*
X121022028Y-70541010D01*
G75*
G02*
X121172028Y-70691010I0J-150000D01*
G01*
G37*
G36*
G01*
X131209028Y-78567010D02*
X131209028Y-79117010D01*
G75*
G02*
X131009028Y-79317010I-200000J0D01*
G01*
X130609028Y-79317010D01*
G75*
G02*
X130409028Y-79117010I0J200000D01*
G01*
X130409028Y-78567010D01*
G75*
G02*
X130609028Y-78367010I200000J0D01*
G01*
X131009028Y-78367010D01*
G75*
G02*
X131209028Y-78567010I0J-200000D01*
G01*
G37*
G36*
G01*
X129559028Y-78567010D02*
X129559028Y-79117010D01*
G75*
G02*
X129359028Y-79317010I-200000J0D01*
G01*
X128959028Y-79317010D01*
G75*
G02*
X128759028Y-79117010I0J200000D01*
G01*
X128759028Y-78567010D01*
G75*
G02*
X128959028Y-78367010I200000J0D01*
G01*
X129359028Y-78367010D01*
G75*
G02*
X129559028Y-78567010I0J-200000D01*
G01*
G37*
G36*
G01*
X126637028Y-72242010D02*
X126637028Y-72742010D01*
G75*
G02*
X126412028Y-72967010I-225000J0D01*
G01*
X125962028Y-72967010D01*
G75*
G02*
X125737028Y-72742010I0J225000D01*
G01*
X125737028Y-72242010D01*
G75*
G02*
X125962028Y-72017010I225000J0D01*
G01*
X126412028Y-72017010D01*
G75*
G02*
X126637028Y-72242010I0J-225000D01*
G01*
G37*
G36*
G01*
X125087028Y-72242010D02*
X125087028Y-72742010D01*
G75*
G02*
X124862028Y-72967010I-225000J0D01*
G01*
X124412028Y-72967010D01*
G75*
G02*
X124187028Y-72742010I0J225000D01*
G01*
X124187028Y-72242010D01*
G75*
G02*
X124412028Y-72017010I225000J0D01*
G01*
X124862028Y-72017010D01*
G75*
G02*
X125087028Y-72242010I0J-225000D01*
G01*
G37*
G36*
G01*
X136379028Y-73529010D02*
X136379028Y-72979010D01*
G75*
G02*
X136579028Y-72779010I200000J0D01*
G01*
X136979028Y-72779010D01*
G75*
G02*
X137179028Y-72979010I0J-200000D01*
G01*
X137179028Y-73529010D01*
G75*
G02*
X136979028Y-73729010I-200000J0D01*
G01*
X136579028Y-73729010D01*
G75*
G02*
X136379028Y-73529010I0J200000D01*
G01*
G37*
G36*
G01*
X138029028Y-73529010D02*
X138029028Y-72979010D01*
G75*
G02*
X138229028Y-72779010I200000J0D01*
G01*
X138629028Y-72779010D01*
G75*
G02*
X138829028Y-72979010I0J-200000D01*
G01*
X138829028Y-73529010D01*
G75*
G02*
X138629028Y-73729010I-200000J0D01*
G01*
X138229028Y-73729010D01*
G75*
G02*
X138029028Y-73529010I0J200000D01*
G01*
G37*
D10*
X106410019Y-66920010D03*
X104510019Y-66920010D03*
X105460019Y-68920010D03*
D11*
X107808019Y-67412010D03*
X109208019Y-67412010D03*
D12*
X102920019Y-75224010D03*
X102920019Y-73824010D03*
G36*
G01*
X100260019Y-74244010D02*
X101660019Y-74244010D01*
G75*
G02*
X101810019Y-74394010I0J-150000D01*
G01*
X101810019Y-74694010D01*
G75*
G02*
X101660019Y-74844010I-150000J0D01*
G01*
X100260019Y-74844010D01*
G75*
G02*
X100110019Y-74694010I0J150000D01*
G01*
X100110019Y-74394010D01*
G75*
G02*
X100260019Y-74244010I150000J0D01*
G01*
G37*
G36*
G01*
X100260019Y-75494010D02*
X101660019Y-75494010D01*
G75*
G02*
X101810019Y-75644010I0J-150000D01*
G01*
X101810019Y-75944010D01*
G75*
G02*
X101660019Y-76094010I-150000J0D01*
G01*
X100260019Y-76094010D01*
G75*
G02*
X100110019Y-75944010I0J150000D01*
G01*
X100110019Y-75644010D01*
G75*
G02*
X100260019Y-75494010I150000J0D01*
G01*
G37*
G36*
G01*
X100260019Y-76744010D02*
X101660019Y-76744010D01*
G75*
G02*
X101810019Y-76894010I0J-150000D01*
G01*
X101810019Y-77194010D01*
G75*
G02*
X101660019Y-77344010I-150000J0D01*
G01*
X100260019Y-77344010D01*
G75*
G02*
X100110019Y-77194010I0J150000D01*
G01*
X100110019Y-76894010D01*
G75*
G02*
X100260019Y-76744010I150000J0D01*
G01*
G37*
G36*
G01*
X96660019Y-72194010D02*
X98860019Y-72194010D01*
G75*
G02*
X99110019Y-72444010I0J-250000D01*
G01*
X99110019Y-72944010D01*
G75*
G02*
X98860019Y-73194010I-250000J0D01*
G01*
X96660019Y-73194010D01*
G75*
G02*
X96410019Y-72944010I0J250000D01*
G01*
X96410019Y-72444010D01*
G75*
G02*
X96660019Y-72194010I250000J0D01*
G01*
G37*
G36*
G01*
X96660019Y-78394010D02*
X98860019Y-78394010D01*
G75*
G02*
X99110019Y-78644010I0J-250000D01*
G01*
X99110019Y-79144010D01*
G75*
G02*
X98860019Y-79394010I-250000J0D01*
G01*
X96660019Y-79394010D01*
G75*
G02*
X96410019Y-79144010I0J250000D01*
G01*
X96410019Y-78644010D01*
G75*
G02*
X96660019Y-78394010I250000J0D01*
G01*
G37*
G36*
G01*
X103322019Y-70691010D02*
X103322019Y-70991010D01*
G75*
G02*
X103172019Y-71141010I-150000J0D01*
G01*
X101722019Y-71141010D01*
G75*
G02*
X101572019Y-70991010I0J150000D01*
G01*
X101572019Y-70691010D01*
G75*
G02*
X101722019Y-70541010I150000J0D01*
G01*
X103172019Y-70541010D01*
G75*
G02*
X103322019Y-70691010I0J-150000D01*
G01*
G37*
G36*
G01*
X103322019Y-69421010D02*
X103322019Y-69721010D01*
G75*
G02*
X103172019Y-69871010I-150000J0D01*
G01*
X101722019Y-69871010D01*
G75*
G02*
X101572019Y-69721010I0J150000D01*
G01*
X101572019Y-69421010D01*
G75*
G02*
X101722019Y-69271010I150000J0D01*
G01*
X103172019Y-69271010D01*
G75*
G02*
X103322019Y-69421010I0J-150000D01*
G01*
G37*
G36*
G01*
X103322019Y-68151010D02*
X103322019Y-68451010D01*
G75*
G02*
X103172019Y-68601010I-150000J0D01*
G01*
X101722019Y-68601010D01*
G75*
G02*
X101572019Y-68451010I0J150000D01*
G01*
X101572019Y-68151010D01*
G75*
G02*
X101722019Y-68001010I150000J0D01*
G01*
X103172019Y-68001010D01*
G75*
G02*
X103322019Y-68151010I0J-150000D01*
G01*
G37*
G36*
G01*
X103322019Y-66881010D02*
X103322019Y-67181010D01*
G75*
G02*
X103172019Y-67331010I-150000J0D01*
G01*
X101722019Y-67331010D01*
G75*
G02*
X101572019Y-67181010I0J150000D01*
G01*
X101572019Y-66881010D01*
G75*
G02*
X101722019Y-66731010I150000J0D01*
G01*
X103172019Y-66731010D01*
G75*
G02*
X103322019Y-66881010I0J-150000D01*
G01*
G37*
G36*
G01*
X98172019Y-66881010D02*
X98172019Y-67181010D01*
G75*
G02*
X98022019Y-67331010I-150000J0D01*
G01*
X96572019Y-67331010D01*
G75*
G02*
X96422019Y-67181010I0J150000D01*
G01*
X96422019Y-66881010D01*
G75*
G02*
X96572019Y-66731010I150000J0D01*
G01*
X98022019Y-66731010D01*
G75*
G02*
X98172019Y-66881010I0J-150000D01*
G01*
G37*
G36*
G01*
X98172019Y-68151010D02*
X98172019Y-68451010D01*
G75*
G02*
X98022019Y-68601010I-150000J0D01*
G01*
X96572019Y-68601010D01*
G75*
G02*
X96422019Y-68451010I0J150000D01*
G01*
X96422019Y-68151010D01*
G75*
G02*
X96572019Y-68001010I150000J0D01*
G01*
X98022019Y-68001010D01*
G75*
G02*
X98172019Y-68151010I0J-150000D01*
G01*
G37*
G36*
G01*
X98172019Y-69421010D02*
X98172019Y-69721010D01*
G75*
G02*
X98022019Y-69871010I-150000J0D01*
G01*
X96572019Y-69871010D01*
G75*
G02*
X96422019Y-69721010I0J150000D01*
G01*
X96422019Y-69421010D01*
G75*
G02*
X96572019Y-69271010I150000J0D01*
G01*
X98022019Y-69271010D01*
G75*
G02*
X98172019Y-69421010I0J-150000D01*
G01*
G37*
G36*
G01*
X98172019Y-70691010D02*
X98172019Y-70991010D01*
G75*
G02*
X98022019Y-71141010I-150000J0D01*
G01*
X96572019Y-71141010D01*
G75*
G02*
X96422019Y-70991010I0J150000D01*
G01*
X96422019Y-70691010D01*
G75*
G02*
X96572019Y-70541010I150000J0D01*
G01*
X98022019Y-70541010D01*
G75*
G02*
X98172019Y-70691010I0J-150000D01*
G01*
G37*
G36*
G01*
X108209019Y-78567010D02*
X108209019Y-79117010D01*
G75*
G02*
X108009019Y-79317010I-200000J0D01*
G01*
X107609019Y-79317010D01*
G75*
G02*
X107409019Y-79117010I0J200000D01*
G01*
X107409019Y-78567010D01*
G75*
G02*
X107609019Y-78367010I200000J0D01*
G01*
X108009019Y-78367010D01*
G75*
G02*
X108209019Y-78567010I0J-200000D01*
G01*
G37*
G36*
G01*
X106559019Y-78567010D02*
X106559019Y-79117010D01*
G75*
G02*
X106359019Y-79317010I-200000J0D01*
G01*
X105959019Y-79317010D01*
G75*
G02*
X105759019Y-79117010I0J200000D01*
G01*
X105759019Y-78567010D01*
G75*
G02*
X105959019Y-78367010I200000J0D01*
G01*
X106359019Y-78367010D01*
G75*
G02*
X106559019Y-78567010I0J-200000D01*
G01*
G37*
G36*
G01*
X103637019Y-72242010D02*
X103637019Y-72742010D01*
G75*
G02*
X103412019Y-72967010I-225000J0D01*
G01*
X102962019Y-72967010D01*
G75*
G02*
X102737019Y-72742010I0J225000D01*
G01*
X102737019Y-72242010D01*
G75*
G02*
X102962019Y-72017010I225000J0D01*
G01*
X103412019Y-72017010D01*
G75*
G02*
X103637019Y-72242010I0J-225000D01*
G01*
G37*
G36*
G01*
X102087019Y-72242010D02*
X102087019Y-72742010D01*
G75*
G02*
X101862019Y-72967010I-225000J0D01*
G01*
X101412019Y-72967010D01*
G75*
G02*
X101187019Y-72742010I0J225000D01*
G01*
X101187019Y-72242010D01*
G75*
G02*
X101412019Y-72017010I225000J0D01*
G01*
X101862019Y-72017010D01*
G75*
G02*
X102087019Y-72242010I0J-225000D01*
G01*
G37*
G36*
G01*
X113379019Y-73529010D02*
X113379019Y-72979010D01*
G75*
G02*
X113579019Y-72779010I200000J0D01*
G01*
X113979019Y-72779010D01*
G75*
G02*
X114179019Y-72979010I0J-200000D01*
G01*
X114179019Y-73529010D01*
G75*
G02*
X113979019Y-73729010I-200000J0D01*
G01*
X113579019Y-73729010D01*
G75*
G02*
X113379019Y-73529010I0J200000D01*
G01*
G37*
G36*
G01*
X115029019Y-73529010D02*
X115029019Y-72979010D01*
G75*
G02*
X115229019Y-72779010I200000J0D01*
G01*
X115629019Y-72779010D01*
G75*
G02*
X115829019Y-72979010I0J-200000D01*
G01*
X115829019Y-73529010D01*
G75*
G02*
X115629019Y-73729010I-200000J0D01*
G01*
X115229019Y-73729010D01*
G75*
G02*
X115029019Y-73529010I0J200000D01*
G01*
G37*
D10*
X83410010Y-66920010D03*
X81510010Y-66920010D03*
X82460010Y-68920010D03*
D11*
X84808010Y-67412010D03*
X86208010Y-67412010D03*
D12*
X79920010Y-75224010D03*
X79920010Y-73824010D03*
G36*
G01*
X77260010Y-74244010D02*
X78660010Y-74244010D01*
G75*
G02*
X78810010Y-74394010I0J-150000D01*
G01*
X78810010Y-74694010D01*
G75*
G02*
X78660010Y-74844010I-150000J0D01*
G01*
X77260010Y-74844010D01*
G75*
G02*
X77110010Y-74694010I0J150000D01*
G01*
X77110010Y-74394010D01*
G75*
G02*
X77260010Y-74244010I150000J0D01*
G01*
G37*
G36*
G01*
X77260010Y-75494010D02*
X78660010Y-75494010D01*
G75*
G02*
X78810010Y-75644010I0J-150000D01*
G01*
X78810010Y-75944010D01*
G75*
G02*
X78660010Y-76094010I-150000J0D01*
G01*
X77260010Y-76094010D01*
G75*
G02*
X77110010Y-75944010I0J150000D01*
G01*
X77110010Y-75644010D01*
G75*
G02*
X77260010Y-75494010I150000J0D01*
G01*
G37*
G36*
G01*
X77260010Y-76744010D02*
X78660010Y-76744010D01*
G75*
G02*
X78810010Y-76894010I0J-150000D01*
G01*
X78810010Y-77194010D01*
G75*
G02*
X78660010Y-77344010I-150000J0D01*
G01*
X77260010Y-77344010D01*
G75*
G02*
X77110010Y-77194010I0J150000D01*
G01*
X77110010Y-76894010D01*
G75*
G02*
X77260010Y-76744010I150000J0D01*
G01*
G37*
G36*
G01*
X73660010Y-72194010D02*
X75860010Y-72194010D01*
G75*
G02*
X76110010Y-72444010I0J-250000D01*
G01*
X76110010Y-72944010D01*
G75*
G02*
X75860010Y-73194010I-250000J0D01*
G01*
X73660010Y-73194010D01*
G75*
G02*
X73410010Y-72944010I0J250000D01*
G01*
X73410010Y-72444010D01*
G75*
G02*
X73660010Y-72194010I250000J0D01*
G01*
G37*
G36*
G01*
X73660010Y-78394010D02*
X75860010Y-78394010D01*
G75*
G02*
X76110010Y-78644010I0J-250000D01*
G01*
X76110010Y-79144010D01*
G75*
G02*
X75860010Y-79394010I-250000J0D01*
G01*
X73660010Y-79394010D01*
G75*
G02*
X73410010Y-79144010I0J250000D01*
G01*
X73410010Y-78644010D01*
G75*
G02*
X73660010Y-78394010I250000J0D01*
G01*
G37*
G36*
G01*
X80322010Y-70691010D02*
X80322010Y-70991010D01*
G75*
G02*
X80172010Y-71141010I-150000J0D01*
G01*
X78722010Y-71141010D01*
G75*
G02*
X78572010Y-70991010I0J150000D01*
G01*
X78572010Y-70691010D01*
G75*
G02*
X78722010Y-70541010I150000J0D01*
G01*
X80172010Y-70541010D01*
G75*
G02*
X80322010Y-70691010I0J-150000D01*
G01*
G37*
G36*
G01*
X80322010Y-69421010D02*
X80322010Y-69721010D01*
G75*
G02*
X80172010Y-69871010I-150000J0D01*
G01*
X78722010Y-69871010D01*
G75*
G02*
X78572010Y-69721010I0J150000D01*
G01*
X78572010Y-69421010D01*
G75*
G02*
X78722010Y-69271010I150000J0D01*
G01*
X80172010Y-69271010D01*
G75*
G02*
X80322010Y-69421010I0J-150000D01*
G01*
G37*
G36*
G01*
X80322010Y-68151010D02*
X80322010Y-68451010D01*
G75*
G02*
X80172010Y-68601010I-150000J0D01*
G01*
X78722010Y-68601010D01*
G75*
G02*
X78572010Y-68451010I0J150000D01*
G01*
X78572010Y-68151010D01*
G75*
G02*
X78722010Y-68001010I150000J0D01*
G01*
X80172010Y-68001010D01*
G75*
G02*
X80322010Y-68151010I0J-150000D01*
G01*
G37*
G36*
G01*
X80322010Y-66881010D02*
X80322010Y-67181010D01*
G75*
G02*
X80172010Y-67331010I-150000J0D01*
G01*
X78722010Y-67331010D01*
G75*
G02*
X78572010Y-67181010I0J150000D01*
G01*
X78572010Y-66881010D01*
G75*
G02*
X78722010Y-66731010I150000J0D01*
G01*
X80172010Y-66731010D01*
G75*
G02*
X80322010Y-66881010I0J-150000D01*
G01*
G37*
G36*
G01*
X75172010Y-66881010D02*
X75172010Y-67181010D01*
G75*
G02*
X75022010Y-67331010I-150000J0D01*
G01*
X73572010Y-67331010D01*
G75*
G02*
X73422010Y-67181010I0J150000D01*
G01*
X73422010Y-66881010D01*
G75*
G02*
X73572010Y-66731010I150000J0D01*
G01*
X75022010Y-66731010D01*
G75*
G02*
X75172010Y-66881010I0J-150000D01*
G01*
G37*
G36*
G01*
X75172010Y-68151010D02*
X75172010Y-68451010D01*
G75*
G02*
X75022010Y-68601010I-150000J0D01*
G01*
X73572010Y-68601010D01*
G75*
G02*
X73422010Y-68451010I0J150000D01*
G01*
X73422010Y-68151010D01*
G75*
G02*
X73572010Y-68001010I150000J0D01*
G01*
X75022010Y-68001010D01*
G75*
G02*
X75172010Y-68151010I0J-150000D01*
G01*
G37*
G36*
G01*
X75172010Y-69421010D02*
X75172010Y-69721010D01*
G75*
G02*
X75022010Y-69871010I-150000J0D01*
G01*
X73572010Y-69871010D01*
G75*
G02*
X73422010Y-69721010I0J150000D01*
G01*
X73422010Y-69421010D01*
G75*
G02*
X73572010Y-69271010I150000J0D01*
G01*
X75022010Y-69271010D01*
G75*
G02*
X75172010Y-69421010I0J-150000D01*
G01*
G37*
G36*
G01*
X75172010Y-70691010D02*
X75172010Y-70991010D01*
G75*
G02*
X75022010Y-71141010I-150000J0D01*
G01*
X73572010Y-71141010D01*
G75*
G02*
X73422010Y-70991010I0J150000D01*
G01*
X73422010Y-70691010D01*
G75*
G02*
X73572010Y-70541010I150000J0D01*
G01*
X75022010Y-70541010D01*
G75*
G02*
X75172010Y-70691010I0J-150000D01*
G01*
G37*
G36*
G01*
X85209010Y-78567010D02*
X85209010Y-79117010D01*
G75*
G02*
X85009010Y-79317010I-200000J0D01*
G01*
X84609010Y-79317010D01*
G75*
G02*
X84409010Y-79117010I0J200000D01*
G01*
X84409010Y-78567010D01*
G75*
G02*
X84609010Y-78367010I200000J0D01*
G01*
X85009010Y-78367010D01*
G75*
G02*
X85209010Y-78567010I0J-200000D01*
G01*
G37*
G36*
G01*
X83559010Y-78567010D02*
X83559010Y-79117010D01*
G75*
G02*
X83359010Y-79317010I-200000J0D01*
G01*
X82959010Y-79317010D01*
G75*
G02*
X82759010Y-79117010I0J200000D01*
G01*
X82759010Y-78567010D01*
G75*
G02*
X82959010Y-78367010I200000J0D01*
G01*
X83359010Y-78367010D01*
G75*
G02*
X83559010Y-78567010I0J-200000D01*
G01*
G37*
G36*
G01*
X80637010Y-72242010D02*
X80637010Y-72742010D01*
G75*
G02*
X80412010Y-72967010I-225000J0D01*
G01*
X79962010Y-72967010D01*
G75*
G02*
X79737010Y-72742010I0J225000D01*
G01*
X79737010Y-72242010D01*
G75*
G02*
X79962010Y-72017010I225000J0D01*
G01*
X80412010Y-72017010D01*
G75*
G02*
X80637010Y-72242010I0J-225000D01*
G01*
G37*
G36*
G01*
X79087010Y-72242010D02*
X79087010Y-72742010D01*
G75*
G02*
X78862010Y-72967010I-225000J0D01*
G01*
X78412010Y-72967010D01*
G75*
G02*
X78187010Y-72742010I0J225000D01*
G01*
X78187010Y-72242010D01*
G75*
G02*
X78412010Y-72017010I225000J0D01*
G01*
X78862010Y-72017010D01*
G75*
G02*
X79087010Y-72242010I0J-225000D01*
G01*
G37*
G36*
G01*
X90379010Y-73529010D02*
X90379010Y-72979010D01*
G75*
G02*
X90579010Y-72779010I200000J0D01*
G01*
X90979010Y-72779010D01*
G75*
G02*
X91179010Y-72979010I0J-200000D01*
G01*
X91179010Y-73529010D01*
G75*
G02*
X90979010Y-73729010I-200000J0D01*
G01*
X90579010Y-73729010D01*
G75*
G02*
X90379010Y-73529010I0J200000D01*
G01*
G37*
G36*
G01*
X92029010Y-73529010D02*
X92029010Y-72979010D01*
G75*
G02*
X92229010Y-72779010I200000J0D01*
G01*
X92629010Y-72779010D01*
G75*
G02*
X92829010Y-72979010I0J-200000D01*
G01*
X92829010Y-73529010D01*
G75*
G02*
X92629010Y-73729010I-200000J0D01*
G01*
X92229010Y-73729010D01*
G75*
G02*
X92029010Y-73529010I0J200000D01*
G01*
G37*
D10*
X60410001Y-66920010D03*
X58510001Y-66920010D03*
X59460001Y-68920010D03*
D11*
X61808001Y-67412010D03*
X63208001Y-67412010D03*
D12*
X56920001Y-75224010D03*
X56920001Y-73824010D03*
G36*
G01*
X54260001Y-74244010D02*
X55660001Y-74244010D01*
G75*
G02*
X55810001Y-74394010I0J-150000D01*
G01*
X55810001Y-74694010D01*
G75*
G02*
X55660001Y-74844010I-150000J0D01*
G01*
X54260001Y-74844010D01*
G75*
G02*
X54110001Y-74694010I0J150000D01*
G01*
X54110001Y-74394010D01*
G75*
G02*
X54260001Y-74244010I150000J0D01*
G01*
G37*
G36*
G01*
X54260001Y-75494010D02*
X55660001Y-75494010D01*
G75*
G02*
X55810001Y-75644010I0J-150000D01*
G01*
X55810001Y-75944010D01*
G75*
G02*
X55660001Y-76094010I-150000J0D01*
G01*
X54260001Y-76094010D01*
G75*
G02*
X54110001Y-75944010I0J150000D01*
G01*
X54110001Y-75644010D01*
G75*
G02*
X54260001Y-75494010I150000J0D01*
G01*
G37*
G36*
G01*
X54260001Y-76744010D02*
X55660001Y-76744010D01*
G75*
G02*
X55810001Y-76894010I0J-150000D01*
G01*
X55810001Y-77194010D01*
G75*
G02*
X55660001Y-77344010I-150000J0D01*
G01*
X54260001Y-77344010D01*
G75*
G02*
X54110001Y-77194010I0J150000D01*
G01*
X54110001Y-76894010D01*
G75*
G02*
X54260001Y-76744010I150000J0D01*
G01*
G37*
G36*
G01*
X50660001Y-72194010D02*
X52860001Y-72194010D01*
G75*
G02*
X53110001Y-72444010I0J-250000D01*
G01*
X53110001Y-72944010D01*
G75*
G02*
X52860001Y-73194010I-250000J0D01*
G01*
X50660001Y-73194010D01*
G75*
G02*
X50410001Y-72944010I0J250000D01*
G01*
X50410001Y-72444010D01*
G75*
G02*
X50660001Y-72194010I250000J0D01*
G01*
G37*
G36*
G01*
X50660001Y-78394010D02*
X52860001Y-78394010D01*
G75*
G02*
X53110001Y-78644010I0J-250000D01*
G01*
X53110001Y-79144010D01*
G75*
G02*
X52860001Y-79394010I-250000J0D01*
G01*
X50660001Y-79394010D01*
G75*
G02*
X50410001Y-79144010I0J250000D01*
G01*
X50410001Y-78644010D01*
G75*
G02*
X50660001Y-78394010I250000J0D01*
G01*
G37*
G36*
G01*
X57322001Y-70691010D02*
X57322001Y-70991010D01*
G75*
G02*
X57172001Y-71141010I-150000J0D01*
G01*
X55722001Y-71141010D01*
G75*
G02*
X55572001Y-70991010I0J150000D01*
G01*
X55572001Y-70691010D01*
G75*
G02*
X55722001Y-70541010I150000J0D01*
G01*
X57172001Y-70541010D01*
G75*
G02*
X57322001Y-70691010I0J-150000D01*
G01*
G37*
G36*
G01*
X57322001Y-69421010D02*
X57322001Y-69721010D01*
G75*
G02*
X57172001Y-69871010I-150000J0D01*
G01*
X55722001Y-69871010D01*
G75*
G02*
X55572001Y-69721010I0J150000D01*
G01*
X55572001Y-69421010D01*
G75*
G02*
X55722001Y-69271010I150000J0D01*
G01*
X57172001Y-69271010D01*
G75*
G02*
X57322001Y-69421010I0J-150000D01*
G01*
G37*
G36*
G01*
X57322001Y-68151010D02*
X57322001Y-68451010D01*
G75*
G02*
X57172001Y-68601010I-150000J0D01*
G01*
X55722001Y-68601010D01*
G75*
G02*
X55572001Y-68451010I0J150000D01*
G01*
X55572001Y-68151010D01*
G75*
G02*
X55722001Y-68001010I150000J0D01*
G01*
X57172001Y-68001010D01*
G75*
G02*
X57322001Y-68151010I0J-150000D01*
G01*
G37*
G36*
G01*
X57322001Y-66881010D02*
X57322001Y-67181010D01*
G75*
G02*
X57172001Y-67331010I-150000J0D01*
G01*
X55722001Y-67331010D01*
G75*
G02*
X55572001Y-67181010I0J150000D01*
G01*
X55572001Y-66881010D01*
G75*
G02*
X55722001Y-66731010I150000J0D01*
G01*
X57172001Y-66731010D01*
G75*
G02*
X57322001Y-66881010I0J-150000D01*
G01*
G37*
G36*
G01*
X52172001Y-66881010D02*
X52172001Y-67181010D01*
G75*
G02*
X52022001Y-67331010I-150000J0D01*
G01*
X50572001Y-67331010D01*
G75*
G02*
X50422001Y-67181010I0J150000D01*
G01*
X50422001Y-66881010D01*
G75*
G02*
X50572001Y-66731010I150000J0D01*
G01*
X52022001Y-66731010D01*
G75*
G02*
X52172001Y-66881010I0J-150000D01*
G01*
G37*
G36*
G01*
X52172001Y-68151010D02*
X52172001Y-68451010D01*
G75*
G02*
X52022001Y-68601010I-150000J0D01*
G01*
X50572001Y-68601010D01*
G75*
G02*
X50422001Y-68451010I0J150000D01*
G01*
X50422001Y-68151010D01*
G75*
G02*
X50572001Y-68001010I150000J0D01*
G01*
X52022001Y-68001010D01*
G75*
G02*
X52172001Y-68151010I0J-150000D01*
G01*
G37*
G36*
G01*
X52172001Y-69421010D02*
X52172001Y-69721010D01*
G75*
G02*
X52022001Y-69871010I-150000J0D01*
G01*
X50572001Y-69871010D01*
G75*
G02*
X50422001Y-69721010I0J150000D01*
G01*
X50422001Y-69421010D01*
G75*
G02*
X50572001Y-69271010I150000J0D01*
G01*
X52022001Y-69271010D01*
G75*
G02*
X52172001Y-69421010I0J-150000D01*
G01*
G37*
G36*
G01*
X52172001Y-70691010D02*
X52172001Y-70991010D01*
G75*
G02*
X52022001Y-71141010I-150000J0D01*
G01*
X50572001Y-71141010D01*
G75*
G02*
X50422001Y-70991010I0J150000D01*
G01*
X50422001Y-70691010D01*
G75*
G02*
X50572001Y-70541010I150000J0D01*
G01*
X52022001Y-70541010D01*
G75*
G02*
X52172001Y-70691010I0J-150000D01*
G01*
G37*
G36*
G01*
X62209001Y-78567010D02*
X62209001Y-79117010D01*
G75*
G02*
X62009001Y-79317010I-200000J0D01*
G01*
X61609001Y-79317010D01*
G75*
G02*
X61409001Y-79117010I0J200000D01*
G01*
X61409001Y-78567010D01*
G75*
G02*
X61609001Y-78367010I200000J0D01*
G01*
X62009001Y-78367010D01*
G75*
G02*
X62209001Y-78567010I0J-200000D01*
G01*
G37*
G36*
G01*
X60559001Y-78567010D02*
X60559001Y-79117010D01*
G75*
G02*
X60359001Y-79317010I-200000J0D01*
G01*
X59959001Y-79317010D01*
G75*
G02*
X59759001Y-79117010I0J200000D01*
G01*
X59759001Y-78567010D01*
G75*
G02*
X59959001Y-78367010I200000J0D01*
G01*
X60359001Y-78367010D01*
G75*
G02*
X60559001Y-78567010I0J-200000D01*
G01*
G37*
G36*
G01*
X57637001Y-72242010D02*
X57637001Y-72742010D01*
G75*
G02*
X57412001Y-72967010I-225000J0D01*
G01*
X56962001Y-72967010D01*
G75*
G02*
X56737001Y-72742010I0J225000D01*
G01*
X56737001Y-72242010D01*
G75*
G02*
X56962001Y-72017010I225000J0D01*
G01*
X57412001Y-72017010D01*
G75*
G02*
X57637001Y-72242010I0J-225000D01*
G01*
G37*
G36*
G01*
X56087001Y-72242010D02*
X56087001Y-72742010D01*
G75*
G02*
X55862001Y-72967010I-225000J0D01*
G01*
X55412001Y-72967010D01*
G75*
G02*
X55187001Y-72742010I0J225000D01*
G01*
X55187001Y-72242010D01*
G75*
G02*
X55412001Y-72017010I225000J0D01*
G01*
X55862001Y-72017010D01*
G75*
G02*
X56087001Y-72242010I0J-225000D01*
G01*
G37*
G36*
G01*
X67379001Y-73529010D02*
X67379001Y-72979010D01*
G75*
G02*
X67579001Y-72779010I200000J0D01*
G01*
X67979001Y-72779010D01*
G75*
G02*
X68179001Y-72979010I0J-200000D01*
G01*
X68179001Y-73529010D01*
G75*
G02*
X67979001Y-73729010I-200000J0D01*
G01*
X67579001Y-73729010D01*
G75*
G02*
X67379001Y-73529010I0J200000D01*
G01*
G37*
G36*
G01*
X69029001Y-73529010D02*
X69029001Y-72979010D01*
G75*
G02*
X69229001Y-72779010I200000J0D01*
G01*
X69629001Y-72779010D01*
G75*
G02*
X69829001Y-72979010I0J-200000D01*
G01*
X69829001Y-73529010D01*
G75*
G02*
X69629001Y-73729010I-200000J0D01*
G01*
X69229001Y-73729010D01*
G75*
G02*
X69029001Y-73529010I0J200000D01*
G01*
G37*
D10*
X129410028Y-50920001D03*
X127510028Y-50920001D03*
X128460028Y-52920001D03*
D11*
X130808028Y-51412001D03*
X132208028Y-51412001D03*
D12*
X125920028Y-59224001D03*
X125920028Y-57824001D03*
G36*
G01*
X123260028Y-58244001D02*
X124660028Y-58244001D01*
G75*
G02*
X124810028Y-58394001I0J-150000D01*
G01*
X124810028Y-58694001D01*
G75*
G02*
X124660028Y-58844001I-150000J0D01*
G01*
X123260028Y-58844001D01*
G75*
G02*
X123110028Y-58694001I0J150000D01*
G01*
X123110028Y-58394001D01*
G75*
G02*
X123260028Y-58244001I150000J0D01*
G01*
G37*
G36*
G01*
X123260028Y-59494001D02*
X124660028Y-59494001D01*
G75*
G02*
X124810028Y-59644001I0J-150000D01*
G01*
X124810028Y-59944001D01*
G75*
G02*
X124660028Y-60094001I-150000J0D01*
G01*
X123260028Y-60094001D01*
G75*
G02*
X123110028Y-59944001I0J150000D01*
G01*
X123110028Y-59644001D01*
G75*
G02*
X123260028Y-59494001I150000J0D01*
G01*
G37*
G36*
G01*
X123260028Y-60744001D02*
X124660028Y-60744001D01*
G75*
G02*
X124810028Y-60894001I0J-150000D01*
G01*
X124810028Y-61194001D01*
G75*
G02*
X124660028Y-61344001I-150000J0D01*
G01*
X123260028Y-61344001D01*
G75*
G02*
X123110028Y-61194001I0J150000D01*
G01*
X123110028Y-60894001D01*
G75*
G02*
X123260028Y-60744001I150000J0D01*
G01*
G37*
G36*
G01*
X119660028Y-56194001D02*
X121860028Y-56194001D01*
G75*
G02*
X122110028Y-56444001I0J-250000D01*
G01*
X122110028Y-56944001D01*
G75*
G02*
X121860028Y-57194001I-250000J0D01*
G01*
X119660028Y-57194001D01*
G75*
G02*
X119410028Y-56944001I0J250000D01*
G01*
X119410028Y-56444001D01*
G75*
G02*
X119660028Y-56194001I250000J0D01*
G01*
G37*
G36*
G01*
X119660028Y-62394001D02*
X121860028Y-62394001D01*
G75*
G02*
X122110028Y-62644001I0J-250000D01*
G01*
X122110028Y-63144001D01*
G75*
G02*
X121860028Y-63394001I-250000J0D01*
G01*
X119660028Y-63394001D01*
G75*
G02*
X119410028Y-63144001I0J250000D01*
G01*
X119410028Y-62644001D01*
G75*
G02*
X119660028Y-62394001I250000J0D01*
G01*
G37*
G36*
G01*
X126322028Y-54691001D02*
X126322028Y-54991001D01*
G75*
G02*
X126172028Y-55141001I-150000J0D01*
G01*
X124722028Y-55141001D01*
G75*
G02*
X124572028Y-54991001I0J150000D01*
G01*
X124572028Y-54691001D01*
G75*
G02*
X124722028Y-54541001I150000J0D01*
G01*
X126172028Y-54541001D01*
G75*
G02*
X126322028Y-54691001I0J-150000D01*
G01*
G37*
G36*
G01*
X126322028Y-53421001D02*
X126322028Y-53721001D01*
G75*
G02*
X126172028Y-53871001I-150000J0D01*
G01*
X124722028Y-53871001D01*
G75*
G02*
X124572028Y-53721001I0J150000D01*
G01*
X124572028Y-53421001D01*
G75*
G02*
X124722028Y-53271001I150000J0D01*
G01*
X126172028Y-53271001D01*
G75*
G02*
X126322028Y-53421001I0J-150000D01*
G01*
G37*
G36*
G01*
X126322028Y-52151001D02*
X126322028Y-52451001D01*
G75*
G02*
X126172028Y-52601001I-150000J0D01*
G01*
X124722028Y-52601001D01*
G75*
G02*
X124572028Y-52451001I0J150000D01*
G01*
X124572028Y-52151001D01*
G75*
G02*
X124722028Y-52001001I150000J0D01*
G01*
X126172028Y-52001001D01*
G75*
G02*
X126322028Y-52151001I0J-150000D01*
G01*
G37*
G36*
G01*
X126322028Y-50881001D02*
X126322028Y-51181001D01*
G75*
G02*
X126172028Y-51331001I-150000J0D01*
G01*
X124722028Y-51331001D01*
G75*
G02*
X124572028Y-51181001I0J150000D01*
G01*
X124572028Y-50881001D01*
G75*
G02*
X124722028Y-50731001I150000J0D01*
G01*
X126172028Y-50731001D01*
G75*
G02*
X126322028Y-50881001I0J-150000D01*
G01*
G37*
G36*
G01*
X121172028Y-50881001D02*
X121172028Y-51181001D01*
G75*
G02*
X121022028Y-51331001I-150000J0D01*
G01*
X119572028Y-51331001D01*
G75*
G02*
X119422028Y-51181001I0J150000D01*
G01*
X119422028Y-50881001D01*
G75*
G02*
X119572028Y-50731001I150000J0D01*
G01*
X121022028Y-50731001D01*
G75*
G02*
X121172028Y-50881001I0J-150000D01*
G01*
G37*
G36*
G01*
X121172028Y-52151001D02*
X121172028Y-52451001D01*
G75*
G02*
X121022028Y-52601001I-150000J0D01*
G01*
X119572028Y-52601001D01*
G75*
G02*
X119422028Y-52451001I0J150000D01*
G01*
X119422028Y-52151001D01*
G75*
G02*
X119572028Y-52001001I150000J0D01*
G01*
X121022028Y-52001001D01*
G75*
G02*
X121172028Y-52151001I0J-150000D01*
G01*
G37*
G36*
G01*
X121172028Y-53421001D02*
X121172028Y-53721001D01*
G75*
G02*
X121022028Y-53871001I-150000J0D01*
G01*
X119572028Y-53871001D01*
G75*
G02*
X119422028Y-53721001I0J150000D01*
G01*
X119422028Y-53421001D01*
G75*
G02*
X119572028Y-53271001I150000J0D01*
G01*
X121022028Y-53271001D01*
G75*
G02*
X121172028Y-53421001I0J-150000D01*
G01*
G37*
G36*
G01*
X121172028Y-54691001D02*
X121172028Y-54991001D01*
G75*
G02*
X121022028Y-55141001I-150000J0D01*
G01*
X119572028Y-55141001D01*
G75*
G02*
X119422028Y-54991001I0J150000D01*
G01*
X119422028Y-54691001D01*
G75*
G02*
X119572028Y-54541001I150000J0D01*
G01*
X121022028Y-54541001D01*
G75*
G02*
X121172028Y-54691001I0J-150000D01*
G01*
G37*
G36*
G01*
X131209028Y-62567001D02*
X131209028Y-63117001D01*
G75*
G02*
X131009028Y-63317001I-200000J0D01*
G01*
X130609028Y-63317001D01*
G75*
G02*
X130409028Y-63117001I0J200000D01*
G01*
X130409028Y-62567001D01*
G75*
G02*
X130609028Y-62367001I200000J0D01*
G01*
X131009028Y-62367001D01*
G75*
G02*
X131209028Y-62567001I0J-200000D01*
G01*
G37*
G36*
G01*
X129559028Y-62567001D02*
X129559028Y-63117001D01*
G75*
G02*
X129359028Y-63317001I-200000J0D01*
G01*
X128959028Y-63317001D01*
G75*
G02*
X128759028Y-63117001I0J200000D01*
G01*
X128759028Y-62567001D01*
G75*
G02*
X128959028Y-62367001I200000J0D01*
G01*
X129359028Y-62367001D01*
G75*
G02*
X129559028Y-62567001I0J-200000D01*
G01*
G37*
G36*
G01*
X126637028Y-56242001D02*
X126637028Y-56742001D01*
G75*
G02*
X126412028Y-56967001I-225000J0D01*
G01*
X125962028Y-56967001D01*
G75*
G02*
X125737028Y-56742001I0J225000D01*
G01*
X125737028Y-56242001D01*
G75*
G02*
X125962028Y-56017001I225000J0D01*
G01*
X126412028Y-56017001D01*
G75*
G02*
X126637028Y-56242001I0J-225000D01*
G01*
G37*
G36*
G01*
X125087028Y-56242001D02*
X125087028Y-56742001D01*
G75*
G02*
X124862028Y-56967001I-225000J0D01*
G01*
X124412028Y-56967001D01*
G75*
G02*
X124187028Y-56742001I0J225000D01*
G01*
X124187028Y-56242001D01*
G75*
G02*
X124412028Y-56017001I225000J0D01*
G01*
X124862028Y-56017001D01*
G75*
G02*
X125087028Y-56242001I0J-225000D01*
G01*
G37*
G36*
G01*
X136379028Y-57529001D02*
X136379028Y-56979001D01*
G75*
G02*
X136579028Y-56779001I200000J0D01*
G01*
X136979028Y-56779001D01*
G75*
G02*
X137179028Y-56979001I0J-200000D01*
G01*
X137179028Y-57529001D01*
G75*
G02*
X136979028Y-57729001I-200000J0D01*
G01*
X136579028Y-57729001D01*
G75*
G02*
X136379028Y-57529001I0J200000D01*
G01*
G37*
G36*
G01*
X138029028Y-57529001D02*
X138029028Y-56979001D01*
G75*
G02*
X138229028Y-56779001I200000J0D01*
G01*
X138629028Y-56779001D01*
G75*
G02*
X138829028Y-56979001I0J-200000D01*
G01*
X138829028Y-57529001D01*
G75*
G02*
X138629028Y-57729001I-200000J0D01*
G01*
X138229028Y-57729001D01*
G75*
G02*
X138029028Y-57529001I0J200000D01*
G01*
G37*
D10*
X106410019Y-50920001D03*
X104510019Y-50920001D03*
X105460019Y-52920001D03*
D11*
X107808019Y-51412001D03*
X109208019Y-51412001D03*
D12*
X102920019Y-59224001D03*
X102920019Y-57824001D03*
G36*
G01*
X100260019Y-58244001D02*
X101660019Y-58244001D01*
G75*
G02*
X101810019Y-58394001I0J-150000D01*
G01*
X101810019Y-58694001D01*
G75*
G02*
X101660019Y-58844001I-150000J0D01*
G01*
X100260019Y-58844001D01*
G75*
G02*
X100110019Y-58694001I0J150000D01*
G01*
X100110019Y-58394001D01*
G75*
G02*
X100260019Y-58244001I150000J0D01*
G01*
G37*
G36*
G01*
X100260019Y-59494001D02*
X101660019Y-59494001D01*
G75*
G02*
X101810019Y-59644001I0J-150000D01*
G01*
X101810019Y-59944001D01*
G75*
G02*
X101660019Y-60094001I-150000J0D01*
G01*
X100260019Y-60094001D01*
G75*
G02*
X100110019Y-59944001I0J150000D01*
G01*
X100110019Y-59644001D01*
G75*
G02*
X100260019Y-59494001I150000J0D01*
G01*
G37*
G36*
G01*
X100260019Y-60744001D02*
X101660019Y-60744001D01*
G75*
G02*
X101810019Y-60894001I0J-150000D01*
G01*
X101810019Y-61194001D01*
G75*
G02*
X101660019Y-61344001I-150000J0D01*
G01*
X100260019Y-61344001D01*
G75*
G02*
X100110019Y-61194001I0J150000D01*
G01*
X100110019Y-60894001D01*
G75*
G02*
X100260019Y-60744001I150000J0D01*
G01*
G37*
G36*
G01*
X96660019Y-56194001D02*
X98860019Y-56194001D01*
G75*
G02*
X99110019Y-56444001I0J-250000D01*
G01*
X99110019Y-56944001D01*
G75*
G02*
X98860019Y-57194001I-250000J0D01*
G01*
X96660019Y-57194001D01*
G75*
G02*
X96410019Y-56944001I0J250000D01*
G01*
X96410019Y-56444001D01*
G75*
G02*
X96660019Y-56194001I250000J0D01*
G01*
G37*
G36*
G01*
X96660019Y-62394001D02*
X98860019Y-62394001D01*
G75*
G02*
X99110019Y-62644001I0J-250000D01*
G01*
X99110019Y-63144001D01*
G75*
G02*
X98860019Y-63394001I-250000J0D01*
G01*
X96660019Y-63394001D01*
G75*
G02*
X96410019Y-63144001I0J250000D01*
G01*
X96410019Y-62644001D01*
G75*
G02*
X96660019Y-62394001I250000J0D01*
G01*
G37*
G36*
G01*
X103322019Y-54691001D02*
X103322019Y-54991001D01*
G75*
G02*
X103172019Y-55141001I-150000J0D01*
G01*
X101722019Y-55141001D01*
G75*
G02*
X101572019Y-54991001I0J150000D01*
G01*
X101572019Y-54691001D01*
G75*
G02*
X101722019Y-54541001I150000J0D01*
G01*
X103172019Y-54541001D01*
G75*
G02*
X103322019Y-54691001I0J-150000D01*
G01*
G37*
G36*
G01*
X103322019Y-53421001D02*
X103322019Y-53721001D01*
G75*
G02*
X103172019Y-53871001I-150000J0D01*
G01*
X101722019Y-53871001D01*
G75*
G02*
X101572019Y-53721001I0J150000D01*
G01*
X101572019Y-53421001D01*
G75*
G02*
X101722019Y-53271001I150000J0D01*
G01*
X103172019Y-53271001D01*
G75*
G02*
X103322019Y-53421001I0J-150000D01*
G01*
G37*
G36*
G01*
X103322019Y-52151001D02*
X103322019Y-52451001D01*
G75*
G02*
X103172019Y-52601001I-150000J0D01*
G01*
X101722019Y-52601001D01*
G75*
G02*
X101572019Y-52451001I0J150000D01*
G01*
X101572019Y-52151001D01*
G75*
G02*
X101722019Y-52001001I150000J0D01*
G01*
X103172019Y-52001001D01*
G75*
G02*
X103322019Y-52151001I0J-150000D01*
G01*
G37*
G36*
G01*
X103322019Y-50881001D02*
X103322019Y-51181001D01*
G75*
G02*
X103172019Y-51331001I-150000J0D01*
G01*
X101722019Y-51331001D01*
G75*
G02*
X101572019Y-51181001I0J150000D01*
G01*
X101572019Y-50881001D01*
G75*
G02*
X101722019Y-50731001I150000J0D01*
G01*
X103172019Y-50731001D01*
G75*
G02*
X103322019Y-50881001I0J-150000D01*
G01*
G37*
G36*
G01*
X98172019Y-50881001D02*
X98172019Y-51181001D01*
G75*
G02*
X98022019Y-51331001I-150000J0D01*
G01*
X96572019Y-51331001D01*
G75*
G02*
X96422019Y-51181001I0J150000D01*
G01*
X96422019Y-50881001D01*
G75*
G02*
X96572019Y-50731001I150000J0D01*
G01*
X98022019Y-50731001D01*
G75*
G02*
X98172019Y-50881001I0J-150000D01*
G01*
G37*
G36*
G01*
X98172019Y-52151001D02*
X98172019Y-52451001D01*
G75*
G02*
X98022019Y-52601001I-150000J0D01*
G01*
X96572019Y-52601001D01*
G75*
G02*
X96422019Y-52451001I0J150000D01*
G01*
X96422019Y-52151001D01*
G75*
G02*
X96572019Y-52001001I150000J0D01*
G01*
X98022019Y-52001001D01*
G75*
G02*
X98172019Y-52151001I0J-150000D01*
G01*
G37*
G36*
G01*
X98172019Y-53421001D02*
X98172019Y-53721001D01*
G75*
G02*
X98022019Y-53871001I-150000J0D01*
G01*
X96572019Y-53871001D01*
G75*
G02*
X96422019Y-53721001I0J150000D01*
G01*
X96422019Y-53421001D01*
G75*
G02*
X96572019Y-53271001I150000J0D01*
G01*
X98022019Y-53271001D01*
G75*
G02*
X98172019Y-53421001I0J-150000D01*
G01*
G37*
G36*
G01*
X98172019Y-54691001D02*
X98172019Y-54991001D01*
G75*
G02*
X98022019Y-55141001I-150000J0D01*
G01*
X96572019Y-55141001D01*
G75*
G02*
X96422019Y-54991001I0J150000D01*
G01*
X96422019Y-54691001D01*
G75*
G02*
X96572019Y-54541001I150000J0D01*
G01*
X98022019Y-54541001D01*
G75*
G02*
X98172019Y-54691001I0J-150000D01*
G01*
G37*
G36*
G01*
X108209019Y-62567001D02*
X108209019Y-63117001D01*
G75*
G02*
X108009019Y-63317001I-200000J0D01*
G01*
X107609019Y-63317001D01*
G75*
G02*
X107409019Y-63117001I0J200000D01*
G01*
X107409019Y-62567001D01*
G75*
G02*
X107609019Y-62367001I200000J0D01*
G01*
X108009019Y-62367001D01*
G75*
G02*
X108209019Y-62567001I0J-200000D01*
G01*
G37*
G36*
G01*
X106559019Y-62567001D02*
X106559019Y-63117001D01*
G75*
G02*
X106359019Y-63317001I-200000J0D01*
G01*
X105959019Y-63317001D01*
G75*
G02*
X105759019Y-63117001I0J200000D01*
G01*
X105759019Y-62567001D01*
G75*
G02*
X105959019Y-62367001I200000J0D01*
G01*
X106359019Y-62367001D01*
G75*
G02*
X106559019Y-62567001I0J-200000D01*
G01*
G37*
G36*
G01*
X103637019Y-56242001D02*
X103637019Y-56742001D01*
G75*
G02*
X103412019Y-56967001I-225000J0D01*
G01*
X102962019Y-56967001D01*
G75*
G02*
X102737019Y-56742001I0J225000D01*
G01*
X102737019Y-56242001D01*
G75*
G02*
X102962019Y-56017001I225000J0D01*
G01*
X103412019Y-56017001D01*
G75*
G02*
X103637019Y-56242001I0J-225000D01*
G01*
G37*
G36*
G01*
X102087019Y-56242001D02*
X102087019Y-56742001D01*
G75*
G02*
X101862019Y-56967001I-225000J0D01*
G01*
X101412019Y-56967001D01*
G75*
G02*
X101187019Y-56742001I0J225000D01*
G01*
X101187019Y-56242001D01*
G75*
G02*
X101412019Y-56017001I225000J0D01*
G01*
X101862019Y-56017001D01*
G75*
G02*
X102087019Y-56242001I0J-225000D01*
G01*
G37*
G36*
G01*
X113379019Y-57529001D02*
X113379019Y-56979001D01*
G75*
G02*
X113579019Y-56779001I200000J0D01*
G01*
X113979019Y-56779001D01*
G75*
G02*
X114179019Y-56979001I0J-200000D01*
G01*
X114179019Y-57529001D01*
G75*
G02*
X113979019Y-57729001I-200000J0D01*
G01*
X113579019Y-57729001D01*
G75*
G02*
X113379019Y-57529001I0J200000D01*
G01*
G37*
G36*
G01*
X115029019Y-57529001D02*
X115029019Y-56979001D01*
G75*
G02*
X115229019Y-56779001I200000J0D01*
G01*
X115629019Y-56779001D01*
G75*
G02*
X115829019Y-56979001I0J-200000D01*
G01*
X115829019Y-57529001D01*
G75*
G02*
X115629019Y-57729001I-200000J0D01*
G01*
X115229019Y-57729001D01*
G75*
G02*
X115029019Y-57529001I0J200000D01*
G01*
G37*
D10*
X83410010Y-50920001D03*
X81510010Y-50920001D03*
X82460010Y-52920001D03*
D11*
X84808010Y-51412001D03*
X86208010Y-51412001D03*
D12*
X79920010Y-59224001D03*
X79920010Y-57824001D03*
G36*
G01*
X77260010Y-58244001D02*
X78660010Y-58244001D01*
G75*
G02*
X78810010Y-58394001I0J-150000D01*
G01*
X78810010Y-58694001D01*
G75*
G02*
X78660010Y-58844001I-150000J0D01*
G01*
X77260010Y-58844001D01*
G75*
G02*
X77110010Y-58694001I0J150000D01*
G01*
X77110010Y-58394001D01*
G75*
G02*
X77260010Y-58244001I150000J0D01*
G01*
G37*
G36*
G01*
X77260010Y-59494001D02*
X78660010Y-59494001D01*
G75*
G02*
X78810010Y-59644001I0J-150000D01*
G01*
X78810010Y-59944001D01*
G75*
G02*
X78660010Y-60094001I-150000J0D01*
G01*
X77260010Y-60094001D01*
G75*
G02*
X77110010Y-59944001I0J150000D01*
G01*
X77110010Y-59644001D01*
G75*
G02*
X77260010Y-59494001I150000J0D01*
G01*
G37*
G36*
G01*
X77260010Y-60744001D02*
X78660010Y-60744001D01*
G75*
G02*
X78810010Y-60894001I0J-150000D01*
G01*
X78810010Y-61194001D01*
G75*
G02*
X78660010Y-61344001I-150000J0D01*
G01*
X77260010Y-61344001D01*
G75*
G02*
X77110010Y-61194001I0J150000D01*
G01*
X77110010Y-60894001D01*
G75*
G02*
X77260010Y-60744001I150000J0D01*
G01*
G37*
G36*
G01*
X73660010Y-56194001D02*
X75860010Y-56194001D01*
G75*
G02*
X76110010Y-56444001I0J-250000D01*
G01*
X76110010Y-56944001D01*
G75*
G02*
X75860010Y-57194001I-250000J0D01*
G01*
X73660010Y-57194001D01*
G75*
G02*
X73410010Y-56944001I0J250000D01*
G01*
X73410010Y-56444001D01*
G75*
G02*
X73660010Y-56194001I250000J0D01*
G01*
G37*
G36*
G01*
X73660010Y-62394001D02*
X75860010Y-62394001D01*
G75*
G02*
X76110010Y-62644001I0J-250000D01*
G01*
X76110010Y-63144001D01*
G75*
G02*
X75860010Y-63394001I-250000J0D01*
G01*
X73660010Y-63394001D01*
G75*
G02*
X73410010Y-63144001I0J250000D01*
G01*
X73410010Y-62644001D01*
G75*
G02*
X73660010Y-62394001I250000J0D01*
G01*
G37*
G36*
G01*
X80322010Y-54691001D02*
X80322010Y-54991001D01*
G75*
G02*
X80172010Y-55141001I-150000J0D01*
G01*
X78722010Y-55141001D01*
G75*
G02*
X78572010Y-54991001I0J150000D01*
G01*
X78572010Y-54691001D01*
G75*
G02*
X78722010Y-54541001I150000J0D01*
G01*
X80172010Y-54541001D01*
G75*
G02*
X80322010Y-54691001I0J-150000D01*
G01*
G37*
G36*
G01*
X80322010Y-53421001D02*
X80322010Y-53721001D01*
G75*
G02*
X80172010Y-53871001I-150000J0D01*
G01*
X78722010Y-53871001D01*
G75*
G02*
X78572010Y-53721001I0J150000D01*
G01*
X78572010Y-53421001D01*
G75*
G02*
X78722010Y-53271001I150000J0D01*
G01*
X80172010Y-53271001D01*
G75*
G02*
X80322010Y-53421001I0J-150000D01*
G01*
G37*
G36*
G01*
X80322010Y-52151001D02*
X80322010Y-52451001D01*
G75*
G02*
X80172010Y-52601001I-150000J0D01*
G01*
X78722010Y-52601001D01*
G75*
G02*
X78572010Y-52451001I0J150000D01*
G01*
X78572010Y-52151001D01*
G75*
G02*
X78722010Y-52001001I150000J0D01*
G01*
X80172010Y-52001001D01*
G75*
G02*
X80322010Y-52151001I0J-150000D01*
G01*
G37*
G36*
G01*
X80322010Y-50881001D02*
X80322010Y-51181001D01*
G75*
G02*
X80172010Y-51331001I-150000J0D01*
G01*
X78722010Y-51331001D01*
G75*
G02*
X78572010Y-51181001I0J150000D01*
G01*
X78572010Y-50881001D01*
G75*
G02*
X78722010Y-50731001I150000J0D01*
G01*
X80172010Y-50731001D01*
G75*
G02*
X80322010Y-50881001I0J-150000D01*
G01*
G37*
G36*
G01*
X75172010Y-50881001D02*
X75172010Y-51181001D01*
G75*
G02*
X75022010Y-51331001I-150000J0D01*
G01*
X73572010Y-51331001D01*
G75*
G02*
X73422010Y-51181001I0J150000D01*
G01*
X73422010Y-50881001D01*
G75*
G02*
X73572010Y-50731001I150000J0D01*
G01*
X75022010Y-50731001D01*
G75*
G02*
X75172010Y-50881001I0J-150000D01*
G01*
G37*
G36*
G01*
X75172010Y-52151001D02*
X75172010Y-52451001D01*
G75*
G02*
X75022010Y-52601001I-150000J0D01*
G01*
X73572010Y-52601001D01*
G75*
G02*
X73422010Y-52451001I0J150000D01*
G01*
X73422010Y-52151001D01*
G75*
G02*
X73572010Y-52001001I150000J0D01*
G01*
X75022010Y-52001001D01*
G75*
G02*
X75172010Y-52151001I0J-150000D01*
G01*
G37*
G36*
G01*
X75172010Y-53421001D02*
X75172010Y-53721001D01*
G75*
G02*
X75022010Y-53871001I-150000J0D01*
G01*
X73572010Y-53871001D01*
G75*
G02*
X73422010Y-53721001I0J150000D01*
G01*
X73422010Y-53421001D01*
G75*
G02*
X73572010Y-53271001I150000J0D01*
G01*
X75022010Y-53271001D01*
G75*
G02*
X75172010Y-53421001I0J-150000D01*
G01*
G37*
G36*
G01*
X75172010Y-54691001D02*
X75172010Y-54991001D01*
G75*
G02*
X75022010Y-55141001I-150000J0D01*
G01*
X73572010Y-55141001D01*
G75*
G02*
X73422010Y-54991001I0J150000D01*
G01*
X73422010Y-54691001D01*
G75*
G02*
X73572010Y-54541001I150000J0D01*
G01*
X75022010Y-54541001D01*
G75*
G02*
X75172010Y-54691001I0J-150000D01*
G01*
G37*
G36*
G01*
X85209010Y-62567001D02*
X85209010Y-63117001D01*
G75*
G02*
X85009010Y-63317001I-200000J0D01*
G01*
X84609010Y-63317001D01*
G75*
G02*
X84409010Y-63117001I0J200000D01*
G01*
X84409010Y-62567001D01*
G75*
G02*
X84609010Y-62367001I200000J0D01*
G01*
X85009010Y-62367001D01*
G75*
G02*
X85209010Y-62567001I0J-200000D01*
G01*
G37*
G36*
G01*
X83559010Y-62567001D02*
X83559010Y-63117001D01*
G75*
G02*
X83359010Y-63317001I-200000J0D01*
G01*
X82959010Y-63317001D01*
G75*
G02*
X82759010Y-63117001I0J200000D01*
G01*
X82759010Y-62567001D01*
G75*
G02*
X82959010Y-62367001I200000J0D01*
G01*
X83359010Y-62367001D01*
G75*
G02*
X83559010Y-62567001I0J-200000D01*
G01*
G37*
G36*
G01*
X80637010Y-56242001D02*
X80637010Y-56742001D01*
G75*
G02*
X80412010Y-56967001I-225000J0D01*
G01*
X79962010Y-56967001D01*
G75*
G02*
X79737010Y-56742001I0J225000D01*
G01*
X79737010Y-56242001D01*
G75*
G02*
X79962010Y-56017001I225000J0D01*
G01*
X80412010Y-56017001D01*
G75*
G02*
X80637010Y-56242001I0J-225000D01*
G01*
G37*
G36*
G01*
X79087010Y-56242001D02*
X79087010Y-56742001D01*
G75*
G02*
X78862010Y-56967001I-225000J0D01*
G01*
X78412010Y-56967001D01*
G75*
G02*
X78187010Y-56742001I0J225000D01*
G01*
X78187010Y-56242001D01*
G75*
G02*
X78412010Y-56017001I225000J0D01*
G01*
X78862010Y-56017001D01*
G75*
G02*
X79087010Y-56242001I0J-225000D01*
G01*
G37*
G36*
G01*
X90379010Y-57529001D02*
X90379010Y-56979001D01*
G75*
G02*
X90579010Y-56779001I200000J0D01*
G01*
X90979010Y-56779001D01*
G75*
G02*
X91179010Y-56979001I0J-200000D01*
G01*
X91179010Y-57529001D01*
G75*
G02*
X90979010Y-57729001I-200000J0D01*
G01*
X90579010Y-57729001D01*
G75*
G02*
X90379010Y-57529001I0J200000D01*
G01*
G37*
G36*
G01*
X92029010Y-57529001D02*
X92029010Y-56979001D01*
G75*
G02*
X92229010Y-56779001I200000J0D01*
G01*
X92629010Y-56779001D01*
G75*
G02*
X92829010Y-56979001I0J-200000D01*
G01*
X92829010Y-57529001D01*
G75*
G02*
X92629010Y-57729001I-200000J0D01*
G01*
X92229010Y-57729001D01*
G75*
G02*
X92029010Y-57529001I0J200000D01*
G01*
G37*
D10*
X60410001Y-50920001D03*
X58510001Y-50920001D03*
X59460001Y-52920001D03*
D11*
X61808001Y-51412001D03*
X63208001Y-51412001D03*
D12*
X56920001Y-59224001D03*
X56920001Y-57824001D03*
G36*
G01*
X54260001Y-58244001D02*
X55660001Y-58244001D01*
G75*
G02*
X55810001Y-58394001I0J-150000D01*
G01*
X55810001Y-58694001D01*
G75*
G02*
X55660001Y-58844001I-150000J0D01*
G01*
X54260001Y-58844001D01*
G75*
G02*
X54110001Y-58694001I0J150000D01*
G01*
X54110001Y-58394001D01*
G75*
G02*
X54260001Y-58244001I150000J0D01*
G01*
G37*
G36*
G01*
X54260001Y-59494001D02*
X55660001Y-59494001D01*
G75*
G02*
X55810001Y-59644001I0J-150000D01*
G01*
X55810001Y-59944001D01*
G75*
G02*
X55660001Y-60094001I-150000J0D01*
G01*
X54260001Y-60094001D01*
G75*
G02*
X54110001Y-59944001I0J150000D01*
G01*
X54110001Y-59644001D01*
G75*
G02*
X54260001Y-59494001I150000J0D01*
G01*
G37*
G36*
G01*
X54260001Y-60744001D02*
X55660001Y-60744001D01*
G75*
G02*
X55810001Y-60894001I0J-150000D01*
G01*
X55810001Y-61194001D01*
G75*
G02*
X55660001Y-61344001I-150000J0D01*
G01*
X54260001Y-61344001D01*
G75*
G02*
X54110001Y-61194001I0J150000D01*
G01*
X54110001Y-60894001D01*
G75*
G02*
X54260001Y-60744001I150000J0D01*
G01*
G37*
G36*
G01*
X50660001Y-56194001D02*
X52860001Y-56194001D01*
G75*
G02*
X53110001Y-56444001I0J-250000D01*
G01*
X53110001Y-56944001D01*
G75*
G02*
X52860001Y-57194001I-250000J0D01*
G01*
X50660001Y-57194001D01*
G75*
G02*
X50410001Y-56944001I0J250000D01*
G01*
X50410001Y-56444001D01*
G75*
G02*
X50660001Y-56194001I250000J0D01*
G01*
G37*
G36*
G01*
X50660001Y-62394001D02*
X52860001Y-62394001D01*
G75*
G02*
X53110001Y-62644001I0J-250000D01*
G01*
X53110001Y-63144001D01*
G75*
G02*
X52860001Y-63394001I-250000J0D01*
G01*
X50660001Y-63394001D01*
G75*
G02*
X50410001Y-63144001I0J250000D01*
G01*
X50410001Y-62644001D01*
G75*
G02*
X50660001Y-62394001I250000J0D01*
G01*
G37*
G36*
G01*
X57322001Y-54691001D02*
X57322001Y-54991001D01*
G75*
G02*
X57172001Y-55141001I-150000J0D01*
G01*
X55722001Y-55141001D01*
G75*
G02*
X55572001Y-54991001I0J150000D01*
G01*
X55572001Y-54691001D01*
G75*
G02*
X55722001Y-54541001I150000J0D01*
G01*
X57172001Y-54541001D01*
G75*
G02*
X57322001Y-54691001I0J-150000D01*
G01*
G37*
G36*
G01*
X57322001Y-53421001D02*
X57322001Y-53721001D01*
G75*
G02*
X57172001Y-53871001I-150000J0D01*
G01*
X55722001Y-53871001D01*
G75*
G02*
X55572001Y-53721001I0J150000D01*
G01*
X55572001Y-53421001D01*
G75*
G02*
X55722001Y-53271001I150000J0D01*
G01*
X57172001Y-53271001D01*
G75*
G02*
X57322001Y-53421001I0J-150000D01*
G01*
G37*
G36*
G01*
X57322001Y-52151001D02*
X57322001Y-52451001D01*
G75*
G02*
X57172001Y-52601001I-150000J0D01*
G01*
X55722001Y-52601001D01*
G75*
G02*
X55572001Y-52451001I0J150000D01*
G01*
X55572001Y-52151001D01*
G75*
G02*
X55722001Y-52001001I150000J0D01*
G01*
X57172001Y-52001001D01*
G75*
G02*
X57322001Y-52151001I0J-150000D01*
G01*
G37*
G36*
G01*
X57322001Y-50881001D02*
X57322001Y-51181001D01*
G75*
G02*
X57172001Y-51331001I-150000J0D01*
G01*
X55722001Y-51331001D01*
G75*
G02*
X55572001Y-51181001I0J150000D01*
G01*
X55572001Y-50881001D01*
G75*
G02*
X55722001Y-50731001I150000J0D01*
G01*
X57172001Y-50731001D01*
G75*
G02*
X57322001Y-50881001I0J-150000D01*
G01*
G37*
G36*
G01*
X52172001Y-50881001D02*
X52172001Y-51181001D01*
G75*
G02*
X52022001Y-51331001I-150000J0D01*
G01*
X50572001Y-51331001D01*
G75*
G02*
X50422001Y-51181001I0J150000D01*
G01*
X50422001Y-50881001D01*
G75*
G02*
X50572001Y-50731001I150000J0D01*
G01*
X52022001Y-50731001D01*
G75*
G02*
X52172001Y-50881001I0J-150000D01*
G01*
G37*
G36*
G01*
X52172001Y-52151001D02*
X52172001Y-52451001D01*
G75*
G02*
X52022001Y-52601001I-150000J0D01*
G01*
X50572001Y-52601001D01*
G75*
G02*
X50422001Y-52451001I0J150000D01*
G01*
X50422001Y-52151001D01*
G75*
G02*
X50572001Y-52001001I150000J0D01*
G01*
X52022001Y-52001001D01*
G75*
G02*
X52172001Y-52151001I0J-150000D01*
G01*
G37*
G36*
G01*
X52172001Y-53421001D02*
X52172001Y-53721001D01*
G75*
G02*
X52022001Y-53871001I-150000J0D01*
G01*
X50572001Y-53871001D01*
G75*
G02*
X50422001Y-53721001I0J150000D01*
G01*
X50422001Y-53421001D01*
G75*
G02*
X50572001Y-53271001I150000J0D01*
G01*
X52022001Y-53271001D01*
G75*
G02*
X52172001Y-53421001I0J-150000D01*
G01*
G37*
G36*
G01*
X52172001Y-54691001D02*
X52172001Y-54991001D01*
G75*
G02*
X52022001Y-55141001I-150000J0D01*
G01*
X50572001Y-55141001D01*
G75*
G02*
X50422001Y-54991001I0J150000D01*
G01*
X50422001Y-54691001D01*
G75*
G02*
X50572001Y-54541001I150000J0D01*
G01*
X52022001Y-54541001D01*
G75*
G02*
X52172001Y-54691001I0J-150000D01*
G01*
G37*
G36*
G01*
X62209001Y-62567001D02*
X62209001Y-63117001D01*
G75*
G02*
X62009001Y-63317001I-200000J0D01*
G01*
X61609001Y-63317001D01*
G75*
G02*
X61409001Y-63117001I0J200000D01*
G01*
X61409001Y-62567001D01*
G75*
G02*
X61609001Y-62367001I200000J0D01*
G01*
X62009001Y-62367001D01*
G75*
G02*
X62209001Y-62567001I0J-200000D01*
G01*
G37*
G36*
G01*
X60559001Y-62567001D02*
X60559001Y-63117001D01*
G75*
G02*
X60359001Y-63317001I-200000J0D01*
G01*
X59959001Y-63317001D01*
G75*
G02*
X59759001Y-63117001I0J200000D01*
G01*
X59759001Y-62567001D01*
G75*
G02*
X59959001Y-62367001I200000J0D01*
G01*
X60359001Y-62367001D01*
G75*
G02*
X60559001Y-62567001I0J-200000D01*
G01*
G37*
G36*
G01*
X57637001Y-56242001D02*
X57637001Y-56742001D01*
G75*
G02*
X57412001Y-56967001I-225000J0D01*
G01*
X56962001Y-56967001D01*
G75*
G02*
X56737001Y-56742001I0J225000D01*
G01*
X56737001Y-56242001D01*
G75*
G02*
X56962001Y-56017001I225000J0D01*
G01*
X57412001Y-56017001D01*
G75*
G02*
X57637001Y-56242001I0J-225000D01*
G01*
G37*
G36*
G01*
X56087001Y-56242001D02*
X56087001Y-56742001D01*
G75*
G02*
X55862001Y-56967001I-225000J0D01*
G01*
X55412001Y-56967001D01*
G75*
G02*
X55187001Y-56742001I0J225000D01*
G01*
X55187001Y-56242001D01*
G75*
G02*
X55412001Y-56017001I225000J0D01*
G01*
X55862001Y-56017001D01*
G75*
G02*
X56087001Y-56242001I0J-225000D01*
G01*
G37*
G36*
G01*
X67379001Y-57529001D02*
X67379001Y-56979001D01*
G75*
G02*
X67579001Y-56779001I200000J0D01*
G01*
X67979001Y-56779001D01*
G75*
G02*
X68179001Y-56979001I0J-200000D01*
G01*
X68179001Y-57529001D01*
G75*
G02*
X67979001Y-57729001I-200000J0D01*
G01*
X67579001Y-57729001D01*
G75*
G02*
X67379001Y-57529001I0J200000D01*
G01*
G37*
G36*
G01*
X69029001Y-57529001D02*
X69029001Y-56979001D01*
G75*
G02*
X69229001Y-56779001I200000J0D01*
G01*
X69629001Y-56779001D01*
G75*
G02*
X69829001Y-56979001I0J-200000D01*
G01*
X69829001Y-57529001D01*
G75*
G02*
X69629001Y-57729001I-200000J0D01*
G01*
X69229001Y-57729001D01*
G75*
G02*
X69029001Y-57529001I0J200000D01*
G01*
G37*
M02*
