M48
; DRILL file {KiCad (5.1.7)-1} date 12/09/21 11:19:01
; FORMAT={-:-/ absolute / metric / decimal}
; #@! TF.CreationDate,2021-12-09T11:19:01+08:00
; #@! TF.GenerationSoftware,Kicad,Pcbnew,(5.1.7)-1
; #@! TF.FileFunction,Plated,1,2,PTH
FMAT,2
METRIC
T1C0.300
T2C0.500
T3C0.800
%
G90
G05
T1
X50.853Y-57.455
X50.853Y-61.455
X50.853Y-75.455
X50.853Y-79.455
X50.853Y-93.455
X50.853Y-97.455
X50.853Y-111.455
X50.853Y-115.455
X50.853Y-129.455
X50.853Y-133.455
X52.453Y-63.855
X52.453Y-81.855
X52.453Y-99.855
X52.453Y-117.855
X52.453Y-135.855
X53.253Y-59.855
X53.253Y-77.855
X53.253Y-95.855
X53.253Y-113.855
X53.253Y-131.855
X54.053Y-51.055
X54.053Y-69.055
X54.053Y-87.055
X54.053Y-105.055
X54.053Y-123.055
X55.653Y-64.655
X55.653Y-82.655
X55.653Y-100.655
X55.653Y-118.655
X55.653Y-136.655
X55.904Y-59.27
X55.904Y-77.27
X55.904Y-95.27
X55.904Y-113.27
X55.904Y-131.27
X56.158Y-60.54
X56.158Y-78.54
X56.158Y-96.54
X56.158Y-114.54
X56.158Y-132.54
X56.412Y-54.19
X56.412Y-72.19
X56.412Y-90.19
X56.412Y-108.19
X56.412Y-126.19
X58.444Y-55.46
X58.444Y-73.46
X58.444Y-91.46
X58.444Y-109.46
X58.444Y-127.46
X59.587Y-62.699
X59.587Y-80.699
X59.587Y-98.699
X59.587Y-116.699
X59.587Y-134.699
X59.653Y-54.255
X59.653Y-72.255
X59.653Y-90.255
X59.653Y-108.255
X59.653Y-126.255
X59.968Y-59.27
X59.968Y-60.921
X59.968Y-77.27
X59.968Y-78.921
X59.968Y-95.27
X59.968Y-96.921
X59.968Y-113.27
X59.968Y-114.921
X59.968Y-131.27
X59.968Y-132.921
X61.253Y-51.055
X61.253Y-69.055
X61.253Y-87.055
X61.253Y-105.055
X61.253Y-123.055
X62.0Y-60.794
X62.0Y-78.794
X62.0Y-96.794
X62.0Y-114.794
X62.0Y-132.794
X63.27Y-53.682
X63.27Y-71.682
X63.27Y-89.682
X63.27Y-107.682
X63.27Y-125.682
X64.032Y-60.032
X64.032Y-78.032
X64.032Y-96.032
X64.032Y-114.032
X64.032Y-132.032
X64.453Y-54.255
X64.453Y-72.255
X64.453Y-90.255
X64.453Y-108.255
X64.453Y-126.255
X65.81Y-54.444
X65.81Y-72.444
X65.81Y-90.444
X65.81Y-108.444
X65.81Y-126.444
X67.08Y-65.366
X67.08Y-83.366
X67.08Y-101.366
X67.08Y-119.366
X67.08Y-137.366
X68.453Y-51.055
X68.453Y-69.055
X68.453Y-87.055
X68.453Y-105.055
X68.453Y-123.055
X69.493Y-61.683
X69.493Y-79.683
X69.493Y-97.683
X69.493Y-115.683
X69.493Y-133.683
X69.874Y-62.572
X69.874Y-80.572
X69.874Y-98.572
X69.874Y-116.572
X69.874Y-134.572
X70.128Y-56.476
X70.128Y-74.476
X70.128Y-92.476
X70.128Y-110.476
X70.128Y-128.476
X70.853Y-52.655
X70.853Y-70.655
X70.853Y-88.655
X70.853Y-106.655
X70.853Y-124.655
X71.017Y-63.207
X71.017Y-81.207
X71.017Y-99.207
X71.017Y-117.207
X71.017Y-135.207
X71.398Y-55.206
X71.398Y-73.206
X71.398Y-91.206
X71.398Y-109.206
X71.398Y-127.206
X72.287Y-60.921
X72.287Y-78.921
X72.287Y-96.921
X72.287Y-114.921
X72.287Y-132.921
X73.176Y-58.508
X73.176Y-62.064
X73.176Y-65.112
X73.176Y-76.508
X73.176Y-80.064
X73.176Y-83.112
X73.176Y-94.508
X73.176Y-98.064
X73.176Y-101.112
X73.176Y-112.508
X73.176Y-116.064
X73.176Y-119.112
X73.176Y-130.508
X73.176Y-134.064
X73.176Y-137.112
X76.853Y-57.455
X76.853Y-61.455
X76.853Y-75.455
X76.853Y-79.455
X76.853Y-93.455
X76.853Y-97.455
X76.853Y-111.455
X76.853Y-115.455
X76.853Y-129.455
X76.853Y-133.455
X78.453Y-63.855
X78.453Y-81.855
X78.453Y-99.855
X78.453Y-117.855
X78.453Y-135.855
X79.253Y-59.855
X79.253Y-77.855
X79.253Y-95.855
X79.253Y-113.855
X79.253Y-131.855
X80.053Y-51.055
X80.053Y-69.055
X80.053Y-87.055
X80.053Y-105.055
X80.053Y-123.055
X81.653Y-64.655
X81.653Y-82.655
X81.653Y-100.655
X81.653Y-118.655
X81.653Y-136.655
X81.904Y-59.27
X81.904Y-77.27
X81.904Y-95.27
X81.904Y-113.27
X81.904Y-131.27
X82.158Y-60.54
X82.158Y-78.54
X82.158Y-96.54
X82.158Y-114.54
X82.158Y-132.54
X82.412Y-54.19
X82.412Y-72.19
X82.412Y-90.19
X82.412Y-108.19
X82.412Y-126.19
X84.444Y-55.46
X84.444Y-73.46
X84.444Y-91.46
X84.444Y-109.46
X84.444Y-127.46
X85.587Y-62.699
X85.587Y-80.699
X85.587Y-98.699
X85.587Y-116.699
X85.587Y-134.699
X85.653Y-54.255
X85.653Y-72.255
X85.653Y-90.255
X85.653Y-108.255
X85.653Y-126.255
X85.968Y-59.27
X85.968Y-60.921
X85.968Y-77.27
X85.968Y-78.921
X85.968Y-95.27
X85.968Y-96.921
X85.968Y-113.27
X85.968Y-114.921
X85.968Y-131.27
X85.968Y-132.921
X87.253Y-51.055
X87.253Y-69.055
X87.253Y-87.055
X87.253Y-105.055
X87.253Y-123.055
X88.0Y-60.794
X88.0Y-78.794
X88.0Y-96.794
X88.0Y-114.794
X88.0Y-132.794
X89.27Y-53.682
X89.27Y-71.682
X89.27Y-89.682
X89.27Y-107.682
X89.27Y-125.682
X90.032Y-60.032
X90.032Y-78.032
X90.032Y-96.032
X90.032Y-114.032
X90.032Y-132.032
X90.453Y-54.255
X90.453Y-72.255
X90.453Y-90.255
X90.453Y-108.255
X90.453Y-126.255
X91.81Y-54.444
X91.81Y-72.444
X91.81Y-90.444
X91.81Y-108.444
X91.81Y-126.444
X93.08Y-65.366
X93.08Y-83.366
X93.08Y-101.366
X93.08Y-119.366
X93.08Y-137.366
X94.453Y-51.055
X94.453Y-69.055
X94.453Y-87.055
X94.453Y-105.055
X94.453Y-123.055
X95.493Y-61.683
X95.493Y-79.683
X95.493Y-97.683
X95.493Y-115.683
X95.493Y-133.683
X95.874Y-62.572
X95.874Y-80.572
X95.874Y-98.572
X95.874Y-116.572
X95.874Y-134.572
X96.128Y-56.476
X96.128Y-74.476
X96.128Y-92.476
X96.128Y-110.476
X96.128Y-128.476
X96.853Y-52.655
X96.853Y-70.655
X96.853Y-88.655
X96.853Y-106.655
X96.853Y-124.655
X97.017Y-63.207
X97.017Y-81.207
X97.017Y-99.207
X97.017Y-117.207
X97.017Y-135.207
X97.398Y-55.206
X97.398Y-73.206
X97.398Y-91.206
X97.398Y-109.206
X97.398Y-127.206
X98.287Y-60.921
X98.287Y-78.921
X98.287Y-96.921
X98.287Y-114.921
X98.287Y-132.921
X99.176Y-58.508
X99.176Y-62.064
X99.176Y-65.112
X99.176Y-76.508
X99.176Y-80.064
X99.176Y-83.112
X99.176Y-94.508
X99.176Y-98.064
X99.176Y-101.112
X99.176Y-112.508
X99.176Y-116.064
X99.176Y-119.112
X99.176Y-130.508
X99.176Y-134.064
X99.176Y-137.112
X102.853Y-57.455
X102.853Y-61.455
X102.853Y-75.455
X102.853Y-79.455
X102.853Y-93.455
X102.853Y-97.455
X102.853Y-111.455
X102.853Y-115.455
X102.853Y-129.455
X102.853Y-133.455
X104.453Y-63.855
X104.453Y-81.855
X104.453Y-99.855
X104.453Y-117.855
X104.453Y-135.855
X105.253Y-59.855
X105.253Y-77.855
X105.253Y-95.855
X105.253Y-113.855
X105.253Y-131.855
X106.053Y-51.055
X106.053Y-69.055
X106.053Y-87.055
X106.053Y-105.055
X106.053Y-123.055
X107.653Y-64.655
X107.653Y-82.655
X107.653Y-100.655
X107.653Y-118.655
X107.653Y-136.655
X107.904Y-59.27
X107.904Y-77.27
X107.904Y-95.27
X107.904Y-113.27
X107.904Y-131.27
X108.158Y-60.54
X108.158Y-78.54
X108.158Y-96.54
X108.158Y-114.54
X108.158Y-132.54
X108.412Y-54.19
X108.412Y-72.19
X108.412Y-90.19
X108.412Y-108.19
X108.412Y-126.19
X110.444Y-55.46
X110.444Y-73.46
X110.444Y-91.46
X110.444Y-109.46
X110.444Y-127.46
X111.587Y-62.699
X111.587Y-80.699
X111.587Y-98.699
X111.587Y-116.699
X111.587Y-134.699
X111.653Y-54.255
X111.653Y-72.255
X111.653Y-90.255
X111.653Y-108.255
X111.653Y-126.255
X111.968Y-59.27
X111.968Y-60.921
X111.968Y-77.27
X111.968Y-78.921
X111.968Y-95.27
X111.968Y-96.921
X111.968Y-113.27
X111.968Y-114.921
X111.968Y-131.27
X111.968Y-132.921
X113.253Y-51.055
X113.253Y-69.055
X113.253Y-87.055
X113.253Y-105.055
X113.253Y-123.055
X114.0Y-60.794
X114.0Y-78.794
X114.0Y-96.794
X114.0Y-114.794
X114.0Y-132.794
X115.27Y-53.682
X115.27Y-71.682
X115.27Y-89.682
X115.27Y-107.682
X115.27Y-125.682
X116.032Y-60.032
X116.032Y-78.032
X116.032Y-96.032
X116.032Y-114.032
X116.032Y-132.032
X116.453Y-54.255
X116.453Y-72.255
X116.453Y-90.255
X116.453Y-108.255
X116.453Y-126.255
X117.81Y-54.444
X117.81Y-72.444
X117.81Y-90.444
X117.81Y-108.444
X117.81Y-126.444
X119.08Y-65.366
X119.08Y-83.366
X119.08Y-101.366
X119.08Y-119.366
X119.08Y-137.366
X120.453Y-51.055
X120.453Y-69.055
X120.453Y-87.055
X120.453Y-105.055
X120.453Y-123.055
X121.493Y-61.683
X121.493Y-79.683
X121.493Y-97.683
X121.493Y-115.683
X121.493Y-133.683
X121.874Y-62.572
X121.874Y-80.572
X121.874Y-98.572
X121.874Y-116.572
X121.874Y-134.572
X122.128Y-56.476
X122.128Y-74.476
X122.128Y-92.476
X122.128Y-110.476
X122.128Y-128.476
X122.853Y-52.655
X122.853Y-70.655
X122.853Y-88.655
X122.853Y-106.655
X122.853Y-124.655
X123.017Y-63.207
X123.017Y-81.207
X123.017Y-99.207
X123.017Y-117.207
X123.017Y-135.207
X123.398Y-55.206
X123.398Y-73.206
X123.398Y-91.206
X123.398Y-109.206
X123.398Y-127.206
X124.287Y-60.921
X124.287Y-78.921
X124.287Y-96.921
X124.287Y-114.921
X124.287Y-132.921
X125.176Y-58.508
X125.176Y-62.064
X125.176Y-65.112
X125.176Y-76.508
X125.176Y-80.064
X125.176Y-83.112
X125.176Y-94.508
X125.176Y-98.064
X125.176Y-101.112
X125.176Y-112.508
X125.176Y-116.064
X125.176Y-119.112
X125.176Y-130.508
X125.176Y-134.064
X125.176Y-137.112
X128.853Y-57.455
X128.853Y-61.455
X128.853Y-75.455
X128.853Y-79.455
X128.853Y-93.455
X128.853Y-97.455
X128.853Y-111.455
X128.853Y-115.455
X128.853Y-129.455
X128.853Y-133.455
X130.453Y-63.855
X130.453Y-81.855
X130.453Y-99.855
X130.453Y-117.855
X130.453Y-135.855
X131.253Y-59.855
X131.253Y-77.855
X131.253Y-95.855
X131.253Y-113.855
X131.253Y-131.855
X132.053Y-51.055
X132.053Y-69.055
X132.053Y-87.055
X132.053Y-105.055
X132.053Y-123.055
X133.653Y-64.655
X133.653Y-82.655
X133.653Y-100.655
X133.653Y-118.655
X133.653Y-136.655
X133.904Y-59.27
X133.904Y-77.27
X133.904Y-95.27
X133.904Y-113.27
X133.904Y-131.27
X134.158Y-60.54
X134.158Y-78.54
X134.158Y-96.54
X134.158Y-114.54
X134.158Y-132.54
X134.412Y-54.19
X134.412Y-72.19
X134.412Y-90.19
X134.412Y-108.19
X134.412Y-126.19
X136.444Y-55.46
X136.444Y-73.46
X136.444Y-91.46
X136.444Y-109.46
X136.444Y-127.46
X137.587Y-62.699
X137.587Y-80.699
X137.587Y-98.699
X137.587Y-116.699
X137.587Y-134.699
X137.653Y-54.255
X137.653Y-72.255
X137.653Y-90.255
X137.653Y-108.255
X137.653Y-126.255
X137.968Y-59.27
X137.968Y-60.921
X137.968Y-77.27
X137.968Y-78.921
X137.968Y-95.27
X137.968Y-96.921
X137.968Y-113.27
X137.968Y-114.921
X137.968Y-131.27
X137.968Y-132.921
X139.253Y-51.055
X139.253Y-69.055
X139.253Y-87.055
X139.253Y-105.055
X139.253Y-123.055
X140.0Y-60.794
X140.0Y-78.794
X140.0Y-96.794
X140.0Y-114.794
X140.0Y-132.794
X141.27Y-53.682
X141.27Y-71.682
X141.27Y-89.682
X141.27Y-107.682
X141.27Y-125.682
X142.032Y-60.032
X142.032Y-78.032
X142.032Y-96.032
X142.032Y-114.032
X142.032Y-132.032
X142.453Y-54.255
X142.453Y-72.255
X142.453Y-90.255
X142.453Y-108.255
X142.453Y-126.255
X143.81Y-54.444
X143.81Y-72.444
X143.81Y-90.444
X143.81Y-108.444
X143.81Y-126.444
X145.08Y-65.366
X145.08Y-83.366
X145.08Y-101.366
X145.08Y-119.366
X145.08Y-137.366
X146.453Y-51.055
X146.453Y-69.055
X146.453Y-87.055
X146.453Y-105.055
X146.453Y-123.055
X147.493Y-61.683
X147.493Y-79.683
X147.493Y-97.683
X147.493Y-115.683
X147.493Y-133.683
X147.874Y-62.572
X147.874Y-80.572
X147.874Y-98.572
X147.874Y-116.572
X147.874Y-134.572
X148.128Y-56.476
X148.128Y-74.476
X148.128Y-92.476
X148.128Y-110.476
X148.128Y-128.476
X148.853Y-52.655
X148.853Y-70.655
X148.853Y-88.655
X148.853Y-106.655
X148.853Y-124.655
X149.017Y-63.207
X149.017Y-81.207
X149.017Y-99.207
X149.017Y-117.207
X149.017Y-135.207
X149.398Y-55.206
X149.398Y-73.206
X149.398Y-91.206
X149.398Y-109.206
X149.398Y-127.206
X150.287Y-60.921
X150.287Y-78.921
X150.287Y-96.921
X150.287Y-114.921
X150.287Y-132.921
X151.176Y-58.508
X151.176Y-62.064
X151.176Y-65.112
X151.176Y-76.508
X151.176Y-80.064
X151.176Y-83.112
X151.176Y-94.508
X151.176Y-98.064
X151.176Y-101.112
X151.176Y-112.508
X151.176Y-116.064
X151.176Y-119.112
X151.176Y-130.508
X151.176Y-134.064
X151.176Y-137.112
T2
X132.126Y-54.698
X132.126Y-56.222
X132.126Y-90.698
X132.126Y-92.222
X54.126Y-108.698
X54.126Y-110.222
X80.126Y-108.698
X80.126Y-110.222
X80.126Y-90.698
X80.126Y-92.222
X132.126Y-108.698
X132.126Y-110.222
X54.126Y-126.698
X54.126Y-128.222
X80.126Y-54.698
X80.126Y-56.222
X54.126Y-90.698
X54.126Y-92.222
X106.126Y-72.698
X106.126Y-74.222
X106.126Y-108.698
X106.126Y-110.222
X54.126Y-72.698
X54.126Y-74.222
X80.126Y-72.698
X80.126Y-74.222
X80.126Y-126.698
X80.126Y-128.222
X132.126Y-72.698
X132.126Y-74.222
X132.126Y-126.698
X132.126Y-128.222
X106.126Y-126.698
X106.126Y-128.222
X54.126Y-54.698
X54.126Y-56.222
X106.126Y-90.698
X106.126Y-92.222
X106.126Y-54.698
X106.126Y-56.222
T3
X112.124Y-52.412
X115.524Y-52.412
X138.124Y-88.412
X141.524Y-88.412
X58.984Y-112.0
X60.984Y-112.0
X62.984Y-112.0
X64.984Y-112.0
X60.124Y-52.412
X63.524Y-52.412
X86.124Y-124.412
X89.524Y-124.412
X110.984Y-130.0
X112.984Y-130.0
X114.984Y-130.0
X116.984Y-130.0
X110.984Y-94.0
X112.984Y-94.0
X114.984Y-94.0
X116.984Y-94.0
X110.984Y-112.0
X112.984Y-112.0
X114.984Y-112.0
X116.984Y-112.0
X86.124Y-106.412
X89.524Y-106.412
X58.984Y-76.0
X60.984Y-76.0
X62.984Y-76.0
X64.984Y-76.0
X110.984Y-76.0
X112.984Y-76.0
X114.984Y-76.0
X116.984Y-76.0
X84.984Y-76.0
X86.984Y-76.0
X88.984Y-76.0
X90.984Y-76.0
X84.984Y-94.0
X86.984Y-94.0
X88.984Y-94.0
X90.984Y-94.0
X136.984Y-58.0
X138.984Y-58.0
X140.984Y-58.0
X142.984Y-58.0
X58.984Y-94.0
X60.984Y-94.0
X62.984Y-94.0
X64.984Y-94.0
X112.124Y-124.412
X115.524Y-124.412
X86.124Y-52.412
X89.524Y-52.412
X136.984Y-94.0
X138.984Y-94.0
X140.984Y-94.0
X142.984Y-94.0
X138.124Y-70.412
X141.524Y-70.412
X58.984Y-58.0
X60.984Y-58.0
X62.984Y-58.0
X64.984Y-58.0
X60.124Y-124.412
X63.524Y-124.412
X60.124Y-70.412
X63.524Y-70.412
X112.124Y-70.412
X115.524Y-70.412
X84.984Y-130.0
X86.984Y-130.0
X88.984Y-130.0
X90.984Y-130.0
X138.124Y-52.412
X141.524Y-52.412
X112.124Y-88.412
X115.524Y-88.412
X112.124Y-106.412
X115.524Y-106.412
X136.984Y-130.0
X138.984Y-130.0
X140.984Y-130.0
X142.984Y-130.0
X138.124Y-124.412
X141.524Y-124.412
X84.984Y-58.0
X86.984Y-58.0
X88.984Y-58.0
X90.984Y-58.0
X136.984Y-76.0
X138.984Y-76.0
X140.984Y-76.0
X142.984Y-76.0
X136.984Y-112.0
X138.984Y-112.0
X140.984Y-112.0
X142.984Y-112.0
X138.124Y-106.412
X141.524Y-106.412
X86.124Y-70.412
X89.524Y-70.412
X60.124Y-106.412
X63.524Y-106.412
X84.984Y-112.0
X86.984Y-112.0
X88.984Y-112.0
X90.984Y-112.0
X58.984Y-130.0
X60.984Y-130.0
X62.984Y-130.0
X64.984Y-130.0
X86.124Y-88.412
X89.524Y-88.412
X110.984Y-58.0
X112.984Y-58.0
X114.984Y-58.0
X116.984Y-58.0
X60.124Y-88.412
X63.524Y-88.412
T0
M30
