G04 #@! TF.GenerationSoftware,KiCad,Pcbnew,(5.1.7)-1*
G04 #@! TF.CreationDate,2021-12-09T14:19:56+08:00*
G04 #@! TF.ProjectId,haptic-cloth-panelized,68617074-6963-42d6-936c-6f74682d7061,rev?*
G04 #@! TF.SameCoordinates,Original*
G04 #@! TF.FileFunction,Paste,Bot*
G04 #@! TF.FilePolarity,Positive*
%FSLAX46Y46*%
G04 Gerber Fmt 4.6, Leading zero omitted, Abs format (unit mm)*
G04 Created by KiCad (PCBNEW (5.1.7)-1) date 2021-12-09 14:19:56*
%MOMM*%
%LPD*%
G01*
G04 APERTURE LIST*
%ADD10R,1.350000X1.350000*%
%ADD11O,1.350000X1.350000*%
G04 APERTURE END LIST*
D10*
X134983528Y-130000037D03*
D11*
X144983528Y-130000037D03*
D10*
X108983519Y-130000037D03*
D11*
X118983519Y-130000037D03*
D10*
X82983510Y-130000037D03*
D11*
X92983510Y-130000037D03*
D10*
X56983501Y-130000037D03*
D11*
X66983501Y-130000037D03*
D10*
X134983528Y-112000028D03*
D11*
X144983528Y-112000028D03*
D10*
X108983519Y-112000028D03*
D11*
X118983519Y-112000028D03*
D10*
X82983510Y-112000028D03*
D11*
X92983510Y-112000028D03*
D10*
X56983501Y-112000028D03*
D11*
X66983501Y-112000028D03*
D10*
X134983528Y-94000019D03*
D11*
X144983528Y-94000019D03*
D10*
X108983519Y-94000019D03*
D11*
X118983519Y-94000019D03*
D10*
X82983510Y-94000019D03*
D11*
X92983510Y-94000019D03*
D10*
X56983501Y-94000019D03*
D11*
X66983501Y-94000019D03*
D10*
X134983528Y-76000010D03*
D11*
X144983528Y-76000010D03*
D10*
X108983519Y-76000010D03*
D11*
X118983519Y-76000010D03*
D10*
X82983510Y-76000010D03*
D11*
X92983510Y-76000010D03*
D10*
X56983501Y-76000010D03*
D11*
X66983501Y-76000010D03*
D10*
X134983528Y-58000001D03*
D11*
X144983528Y-58000001D03*
D10*
X108983519Y-58000001D03*
D11*
X118983519Y-58000001D03*
D10*
X82983510Y-58000001D03*
D11*
X92983510Y-58000001D03*
D10*
X56983501Y-58000001D03*
D11*
X66983501Y-58000001D03*
M02*
