M48
; DRILL file {KiCad (5.1.7)-1} date 12/09/21 11:19:01
; FORMAT={-:-/ absolute / metric / decimal}
; #@! TF.CreationDate,2021-12-09T11:19:01+08:00
; #@! TF.GenerationSoftware,Kicad,Pcbnew,(5.1.7)-1
; #@! TF.FileFunction,NonPlated,1,2,NPTH
FMAT,2
METRIC
T1C2.500
%
G90
G05
T1
X83.682Y-117.588
X57.682Y-124.412
X144.064Y-135.588
X109.682Y-124.412
X92.064Y-99.588
X57.682Y-99.588
X83.682Y-106.412
X144.064Y-99.588
X57.682Y-135.588
X66.064Y-106.412
X92.064Y-52.412
X92.064Y-63.588
X57.682Y-88.412
X92.064Y-88.412
X144.064Y-81.588
X118.064Y-88.412
X109.682Y-70.412
X144.064Y-63.588
X135.682Y-117.588
X135.682Y-81.588
X83.682Y-81.588
X57.682Y-81.588
X92.064Y-70.412
X144.064Y-88.412
X57.682Y-106.412
X57.682Y-117.588
X66.064Y-135.588
X66.064Y-63.588
X83.682Y-63.588
X83.682Y-124.412
X118.064Y-99.588
X66.064Y-88.412
X83.682Y-99.588
X66.064Y-81.588
X135.682Y-63.588
X144.064Y-52.412
X135.682Y-88.412
X92.064Y-117.588
X57.682Y-63.588
X83.682Y-52.412
X83.682Y-135.588
X109.682Y-135.588
X92.064Y-135.588
X83.682Y-88.412
X92.064Y-81.588
X109.682Y-117.588
X135.682Y-52.412
X57.682Y-70.412
X66.064Y-124.412
X118.064Y-124.412
X135.682Y-135.588
X92.064Y-124.412
X144.064Y-70.412
X109.682Y-63.588
X144.064Y-117.588
X135.682Y-70.412
X109.682Y-88.412
X144.064Y-124.412
X66.064Y-52.412
X118.064Y-63.588
X109.682Y-52.412
X144.064Y-106.412
X66.064Y-99.588
X118.064Y-117.588
X66.064Y-70.412
X118.064Y-70.412
X66.064Y-117.588
X118.064Y-135.588
X135.682Y-124.412
X57.682Y-52.412
X118.064Y-52.412
X135.682Y-106.412
X109.682Y-99.588
X109.682Y-106.412
X83.682Y-70.412
X118.064Y-106.412
X109.682Y-81.588
X118.064Y-81.588
X135.682Y-99.588
X92.064Y-106.412
T0
M30
