G04 #@! TF.GenerationSoftware,KiCad,Pcbnew,(5.1.7)-1*
G04 #@! TF.CreationDate,2021-12-09T14:19:56+08:00*
G04 #@! TF.ProjectId,haptic-cloth-panelized,68617074-6963-42d6-936c-6f74682d7061,rev?*
G04 #@! TF.SameCoordinates,Original*
G04 #@! TF.FileFunction,Soldermask,Bot*
G04 #@! TF.FilePolarity,Negative*
%FSLAX46Y46*%
G04 Gerber Fmt 4.6, Leading zero omitted, Abs format (unit mm)*
G04 Created by KiCad (PCBNEW (5.1.7)-1) date 2021-12-09 14:19:56*
%MOMM*%
%LPD*%
G01*
G04 APERTURE LIST*
%ADD10C,1.500000*%
%ADD11C,2.500000*%
%ADD12R,1.000000X1.000000*%
%ADD13C,1.000000*%
%ADD14R,1.350000X1.350000*%
%ADD15O,1.350000X1.350000*%
G04 APERTURE END LIST*
D10*
X141524028Y-124412037D03*
X138124028Y-124412037D03*
D11*
X135682028Y-124412037D03*
X135682028Y-135588037D03*
X144064028Y-124412037D03*
X144064028Y-135588037D03*
D12*
X132126028Y-128222037D03*
D13*
X132126028Y-126698037D03*
D14*
X134983528Y-130000037D03*
D15*
X136983528Y-130000037D03*
X138983528Y-130000037D03*
X140983528Y-130000037D03*
X142983528Y-130000037D03*
X144983528Y-130000037D03*
D10*
X115524019Y-124412037D03*
X112124019Y-124412037D03*
D11*
X109682019Y-124412037D03*
X109682019Y-135588037D03*
X118064019Y-124412037D03*
X118064019Y-135588037D03*
D12*
X106126019Y-128222037D03*
D13*
X106126019Y-126698037D03*
D14*
X108983519Y-130000037D03*
D15*
X110983519Y-130000037D03*
X112983519Y-130000037D03*
X114983519Y-130000037D03*
X116983519Y-130000037D03*
X118983519Y-130000037D03*
D10*
X89524010Y-124412037D03*
X86124010Y-124412037D03*
D11*
X83682010Y-124412037D03*
X83682010Y-135588037D03*
X92064010Y-124412037D03*
X92064010Y-135588037D03*
D12*
X80126010Y-128222037D03*
D13*
X80126010Y-126698037D03*
D14*
X82983510Y-130000037D03*
D15*
X84983510Y-130000037D03*
X86983510Y-130000037D03*
X88983510Y-130000037D03*
X90983510Y-130000037D03*
X92983510Y-130000037D03*
D10*
X63524001Y-124412037D03*
X60124001Y-124412037D03*
D11*
X57682001Y-124412037D03*
X57682001Y-135588037D03*
X66064001Y-124412037D03*
X66064001Y-135588037D03*
D12*
X54126001Y-128222037D03*
D13*
X54126001Y-126698037D03*
D14*
X56983501Y-130000037D03*
D15*
X58983501Y-130000037D03*
X60983501Y-130000037D03*
X62983501Y-130000037D03*
X64983501Y-130000037D03*
X66983501Y-130000037D03*
D10*
X141524028Y-106412028D03*
X138124028Y-106412028D03*
D11*
X135682028Y-106412028D03*
X135682028Y-117588028D03*
X144064028Y-106412028D03*
X144064028Y-117588028D03*
D12*
X132126028Y-110222028D03*
D13*
X132126028Y-108698028D03*
D14*
X134983528Y-112000028D03*
D15*
X136983528Y-112000028D03*
X138983528Y-112000028D03*
X140983528Y-112000028D03*
X142983528Y-112000028D03*
X144983528Y-112000028D03*
D10*
X115524019Y-106412028D03*
X112124019Y-106412028D03*
D11*
X109682019Y-106412028D03*
X109682019Y-117588028D03*
X118064019Y-106412028D03*
X118064019Y-117588028D03*
D12*
X106126019Y-110222028D03*
D13*
X106126019Y-108698028D03*
D14*
X108983519Y-112000028D03*
D15*
X110983519Y-112000028D03*
X112983519Y-112000028D03*
X114983519Y-112000028D03*
X116983519Y-112000028D03*
X118983519Y-112000028D03*
D10*
X89524010Y-106412028D03*
X86124010Y-106412028D03*
D11*
X83682010Y-106412028D03*
X83682010Y-117588028D03*
X92064010Y-106412028D03*
X92064010Y-117588028D03*
D12*
X80126010Y-110222028D03*
D13*
X80126010Y-108698028D03*
D14*
X82983510Y-112000028D03*
D15*
X84983510Y-112000028D03*
X86983510Y-112000028D03*
X88983510Y-112000028D03*
X90983510Y-112000028D03*
X92983510Y-112000028D03*
D10*
X63524001Y-106412028D03*
X60124001Y-106412028D03*
D11*
X57682001Y-106412028D03*
X57682001Y-117588028D03*
X66064001Y-106412028D03*
X66064001Y-117588028D03*
D12*
X54126001Y-110222028D03*
D13*
X54126001Y-108698028D03*
D14*
X56983501Y-112000028D03*
D15*
X58983501Y-112000028D03*
X60983501Y-112000028D03*
X62983501Y-112000028D03*
X64983501Y-112000028D03*
X66983501Y-112000028D03*
D10*
X141524028Y-88412019D03*
X138124028Y-88412019D03*
D11*
X135682028Y-88412019D03*
X135682028Y-99588019D03*
X144064028Y-88412019D03*
X144064028Y-99588019D03*
D12*
X132126028Y-92222019D03*
D13*
X132126028Y-90698019D03*
D14*
X134983528Y-94000019D03*
D15*
X136983528Y-94000019D03*
X138983528Y-94000019D03*
X140983528Y-94000019D03*
X142983528Y-94000019D03*
X144983528Y-94000019D03*
D10*
X115524019Y-88412019D03*
X112124019Y-88412019D03*
D11*
X109682019Y-88412019D03*
X109682019Y-99588019D03*
X118064019Y-88412019D03*
X118064019Y-99588019D03*
D12*
X106126019Y-92222019D03*
D13*
X106126019Y-90698019D03*
D14*
X108983519Y-94000019D03*
D15*
X110983519Y-94000019D03*
X112983519Y-94000019D03*
X114983519Y-94000019D03*
X116983519Y-94000019D03*
X118983519Y-94000019D03*
D10*
X89524010Y-88412019D03*
X86124010Y-88412019D03*
D11*
X83682010Y-88412019D03*
X83682010Y-99588019D03*
X92064010Y-88412019D03*
X92064010Y-99588019D03*
D12*
X80126010Y-92222019D03*
D13*
X80126010Y-90698019D03*
D14*
X82983510Y-94000019D03*
D15*
X84983510Y-94000019D03*
X86983510Y-94000019D03*
X88983510Y-94000019D03*
X90983510Y-94000019D03*
X92983510Y-94000019D03*
D10*
X63524001Y-88412019D03*
X60124001Y-88412019D03*
D11*
X57682001Y-88412019D03*
X57682001Y-99588019D03*
X66064001Y-88412019D03*
X66064001Y-99588019D03*
D12*
X54126001Y-92222019D03*
D13*
X54126001Y-90698019D03*
D14*
X56983501Y-94000019D03*
D15*
X58983501Y-94000019D03*
X60983501Y-94000019D03*
X62983501Y-94000019D03*
X64983501Y-94000019D03*
X66983501Y-94000019D03*
D10*
X141524028Y-70412010D03*
X138124028Y-70412010D03*
D11*
X135682028Y-70412010D03*
X135682028Y-81588010D03*
X144064028Y-70412010D03*
X144064028Y-81588010D03*
D12*
X132126028Y-74222010D03*
D13*
X132126028Y-72698010D03*
D14*
X134983528Y-76000010D03*
D15*
X136983528Y-76000010D03*
X138983528Y-76000010D03*
X140983528Y-76000010D03*
X142983528Y-76000010D03*
X144983528Y-76000010D03*
D10*
X115524019Y-70412010D03*
X112124019Y-70412010D03*
D11*
X109682019Y-70412010D03*
X109682019Y-81588010D03*
X118064019Y-70412010D03*
X118064019Y-81588010D03*
D12*
X106126019Y-74222010D03*
D13*
X106126019Y-72698010D03*
D14*
X108983519Y-76000010D03*
D15*
X110983519Y-76000010D03*
X112983519Y-76000010D03*
X114983519Y-76000010D03*
X116983519Y-76000010D03*
X118983519Y-76000010D03*
D10*
X89524010Y-70412010D03*
X86124010Y-70412010D03*
D11*
X83682010Y-70412010D03*
X83682010Y-81588010D03*
X92064010Y-70412010D03*
X92064010Y-81588010D03*
D12*
X80126010Y-74222010D03*
D13*
X80126010Y-72698010D03*
D14*
X82983510Y-76000010D03*
D15*
X84983510Y-76000010D03*
X86983510Y-76000010D03*
X88983510Y-76000010D03*
X90983510Y-76000010D03*
X92983510Y-76000010D03*
D10*
X63524001Y-70412010D03*
X60124001Y-70412010D03*
D11*
X57682001Y-70412010D03*
X57682001Y-81588010D03*
X66064001Y-70412010D03*
X66064001Y-81588010D03*
D12*
X54126001Y-74222010D03*
D13*
X54126001Y-72698010D03*
D14*
X56983501Y-76000010D03*
D15*
X58983501Y-76000010D03*
X60983501Y-76000010D03*
X62983501Y-76000010D03*
X64983501Y-76000010D03*
X66983501Y-76000010D03*
D10*
X141524028Y-52412001D03*
X138124028Y-52412001D03*
D11*
X135682028Y-52412001D03*
X135682028Y-63588001D03*
X144064028Y-52412001D03*
X144064028Y-63588001D03*
D12*
X132126028Y-56222001D03*
D13*
X132126028Y-54698001D03*
D14*
X134983528Y-58000001D03*
D15*
X136983528Y-58000001D03*
X138983528Y-58000001D03*
X140983528Y-58000001D03*
X142983528Y-58000001D03*
X144983528Y-58000001D03*
D10*
X115524019Y-52412001D03*
X112124019Y-52412001D03*
D11*
X109682019Y-52412001D03*
X109682019Y-63588001D03*
X118064019Y-52412001D03*
X118064019Y-63588001D03*
D12*
X106126019Y-56222001D03*
D13*
X106126019Y-54698001D03*
D14*
X108983519Y-58000001D03*
D15*
X110983519Y-58000001D03*
X112983519Y-58000001D03*
X114983519Y-58000001D03*
X116983519Y-58000001D03*
X118983519Y-58000001D03*
D10*
X89524010Y-52412001D03*
X86124010Y-52412001D03*
D11*
X83682010Y-52412001D03*
X83682010Y-63588001D03*
X92064010Y-52412001D03*
X92064010Y-63588001D03*
D12*
X80126010Y-56222001D03*
D13*
X80126010Y-54698001D03*
D14*
X82983510Y-58000001D03*
D15*
X84983510Y-58000001D03*
X86983510Y-58000001D03*
X88983510Y-58000001D03*
X90983510Y-58000001D03*
X92983510Y-58000001D03*
D10*
X63524001Y-52412001D03*
X60124001Y-52412001D03*
D11*
X57682001Y-52412001D03*
X57682001Y-63588001D03*
X66064001Y-52412001D03*
X66064001Y-63588001D03*
D12*
X54126001Y-56222001D03*
D13*
X54126001Y-54698001D03*
D14*
X56983501Y-58000001D03*
D15*
X58983501Y-58000001D03*
X60983501Y-58000001D03*
X62983501Y-58000001D03*
X64983501Y-58000001D03*
X66983501Y-58000001D03*
M02*
