G04 #@! TF.GenerationSoftware,KiCad,Pcbnew,(5.1.7)-1*
G04 #@! TF.CreationDate,2021-12-09T14:19:56+08:00*
G04 #@! TF.ProjectId,haptic-cloth-panelized,68617074-6963-42d6-936c-6f74682d7061,rev?*
G04 #@! TF.SameCoordinates,Original*
G04 #@! TF.FileFunction,Other,Comment*
%FSLAX46Y46*%
G04 Gerber Fmt 4.6, Leading zero omitted, Abs format (unit mm)*
G04 Created by KiCad (PCBNEW (5.1.7)-1) date 2021-12-09 14:19:56*
%MOMM*%
%LPD*%
G01*
G04 APERTURE LIST*
%ADD10C,0.400000*%
G04 APERTURE END LIST*
D10*
X150904761Y-43548523D02*
X152904761Y-42881857D01*
X150904761Y-42215190D01*
X152142857Y-41548523D02*
X152142857Y-40024714D01*
X152714285Y-37929476D02*
X152809523Y-38024714D01*
X152904761Y-38310428D01*
X152904761Y-38500904D01*
X152809523Y-38786619D01*
X152619047Y-38977095D01*
X152428571Y-39072333D01*
X152047619Y-39167571D01*
X151761904Y-39167571D01*
X151380952Y-39072333D01*
X151190476Y-38977095D01*
X151000000Y-38786619D01*
X150904761Y-38500904D01*
X150904761Y-38310428D01*
X151000000Y-38024714D01*
X151095238Y-37929476D01*
X150904761Y-37072333D02*
X152523809Y-37072333D01*
X152714285Y-36977095D01*
X152809523Y-36881857D01*
X152904761Y-36691380D01*
X152904761Y-36310428D01*
X152809523Y-36119952D01*
X152714285Y-36024714D01*
X152523809Y-35929476D01*
X150904761Y-35929476D01*
X150904761Y-35262809D02*
X150904761Y-34119952D01*
X152904761Y-34691380D02*
X150904761Y-34691380D01*
X152000000Y-46999000D02*
X152000000Y-141001037D01*
X126904761Y-43548523D02*
X128904761Y-42881857D01*
X126904761Y-42215190D01*
X128142857Y-41548523D02*
X128142857Y-40024714D01*
X128714285Y-37929476D02*
X128809523Y-38024714D01*
X128904761Y-38310428D01*
X128904761Y-38500904D01*
X128809523Y-38786619D01*
X128619047Y-38977095D01*
X128428571Y-39072333D01*
X128047619Y-39167571D01*
X127761904Y-39167571D01*
X127380952Y-39072333D01*
X127190476Y-38977095D01*
X127000000Y-38786619D01*
X126904761Y-38500904D01*
X126904761Y-38310428D01*
X127000000Y-38024714D01*
X127095238Y-37929476D01*
X126904761Y-37072333D02*
X128523809Y-37072333D01*
X128714285Y-36977095D01*
X128809523Y-36881857D01*
X128904761Y-36691380D01*
X128904761Y-36310428D01*
X128809523Y-36119952D01*
X128714285Y-36024714D01*
X128523809Y-35929476D01*
X126904761Y-35929476D01*
X126904761Y-35262809D02*
X126904761Y-34119952D01*
X128904761Y-34691380D02*
X126904761Y-34691380D01*
X128000000Y-46999000D02*
X128000000Y-141001037D01*
X124904761Y-43548523D02*
X126904761Y-42881857D01*
X124904761Y-42215190D01*
X126142857Y-41548523D02*
X126142857Y-40024714D01*
X126714285Y-37929476D02*
X126809523Y-38024714D01*
X126904761Y-38310428D01*
X126904761Y-38500904D01*
X126809523Y-38786619D01*
X126619047Y-38977095D01*
X126428571Y-39072333D01*
X126047619Y-39167571D01*
X125761904Y-39167571D01*
X125380952Y-39072333D01*
X125190476Y-38977095D01*
X125000000Y-38786619D01*
X124904761Y-38500904D01*
X124904761Y-38310428D01*
X125000000Y-38024714D01*
X125095238Y-37929476D01*
X124904761Y-37072333D02*
X126523809Y-37072333D01*
X126714285Y-36977095D01*
X126809523Y-36881857D01*
X126904761Y-36691380D01*
X126904761Y-36310428D01*
X126809523Y-36119952D01*
X126714285Y-36024714D01*
X126523809Y-35929476D01*
X124904761Y-35929476D01*
X124904761Y-35262809D02*
X124904761Y-34119952D01*
X126904761Y-34691380D02*
X124904761Y-34691380D01*
X126000000Y-46999000D02*
X126000000Y-141001037D01*
X98904761Y-43548523D02*
X100904761Y-42881857D01*
X98904761Y-42215190D01*
X100142857Y-41548523D02*
X100142857Y-40024714D01*
X100714285Y-37929476D02*
X100809523Y-38024714D01*
X100904761Y-38310428D01*
X100904761Y-38500904D01*
X100809523Y-38786619D01*
X100619047Y-38977095D01*
X100428571Y-39072333D01*
X100047619Y-39167571D01*
X99761904Y-39167571D01*
X99380952Y-39072333D01*
X99190476Y-38977095D01*
X99000000Y-38786619D01*
X98904761Y-38500904D01*
X98904761Y-38310428D01*
X99000000Y-38024714D01*
X99095238Y-37929476D01*
X98904761Y-37072333D02*
X100523809Y-37072333D01*
X100714285Y-36977095D01*
X100809523Y-36881857D01*
X100904761Y-36691380D01*
X100904761Y-36310428D01*
X100809523Y-36119952D01*
X100714285Y-36024714D01*
X100523809Y-35929476D01*
X98904761Y-35929476D01*
X98904761Y-35262809D02*
X98904761Y-34119952D01*
X100904761Y-34691380D02*
X98904761Y-34691380D01*
X100000000Y-46999000D02*
X100000000Y-141001037D01*
X72904761Y-43548523D02*
X74904761Y-42881857D01*
X72904761Y-42215190D01*
X74142857Y-41548523D02*
X74142857Y-40024714D01*
X74714285Y-37929476D02*
X74809523Y-38024714D01*
X74904761Y-38310428D01*
X74904761Y-38500904D01*
X74809523Y-38786619D01*
X74619047Y-38977095D01*
X74428571Y-39072333D01*
X74047619Y-39167571D01*
X73761904Y-39167571D01*
X73380952Y-39072333D01*
X73190476Y-38977095D01*
X73000000Y-38786619D01*
X72904761Y-38500904D01*
X72904761Y-38310428D01*
X73000000Y-38024714D01*
X73095238Y-37929476D01*
X72904761Y-37072333D02*
X74523809Y-37072333D01*
X74714285Y-36977095D01*
X74809523Y-36881857D01*
X74904761Y-36691380D01*
X74904761Y-36310428D01*
X74809523Y-36119952D01*
X74714285Y-36024714D01*
X74523809Y-35929476D01*
X72904761Y-35929476D01*
X72904761Y-35262809D02*
X72904761Y-34119952D01*
X74904761Y-34691380D02*
X72904761Y-34691380D01*
X74000000Y-46999000D02*
X74000000Y-141001037D01*
X100904761Y-43548523D02*
X102904761Y-42881857D01*
X100904761Y-42215190D01*
X102142857Y-41548523D02*
X102142857Y-40024714D01*
X102714285Y-37929476D02*
X102809523Y-38024714D01*
X102904761Y-38310428D01*
X102904761Y-38500904D01*
X102809523Y-38786619D01*
X102619047Y-38977095D01*
X102428571Y-39072333D01*
X102047619Y-39167571D01*
X101761904Y-39167571D01*
X101380952Y-39072333D01*
X101190476Y-38977095D01*
X101000000Y-38786619D01*
X100904761Y-38500904D01*
X100904761Y-38310428D01*
X101000000Y-38024714D01*
X101095238Y-37929476D01*
X100904761Y-37072333D02*
X102523809Y-37072333D01*
X102714285Y-36977095D01*
X102809523Y-36881857D01*
X102904761Y-36691380D01*
X102904761Y-36310428D01*
X102809523Y-36119952D01*
X102714285Y-36024714D01*
X102523809Y-35929476D01*
X100904761Y-35929476D01*
X100904761Y-35262809D02*
X100904761Y-34119952D01*
X102904761Y-34691380D02*
X100904761Y-34691380D01*
X102000000Y-46999000D02*
X102000000Y-141001037D01*
X74904761Y-43548523D02*
X76904761Y-42881857D01*
X74904761Y-42215190D01*
X76142857Y-41548523D02*
X76142857Y-40024714D01*
X76714285Y-37929476D02*
X76809523Y-38024714D01*
X76904761Y-38310428D01*
X76904761Y-38500904D01*
X76809523Y-38786619D01*
X76619047Y-38977095D01*
X76428571Y-39072333D01*
X76047619Y-39167571D01*
X75761904Y-39167571D01*
X75380952Y-39072333D01*
X75190476Y-38977095D01*
X75000000Y-38786619D01*
X74904761Y-38500904D01*
X74904761Y-38310428D01*
X75000000Y-38024714D01*
X75095238Y-37929476D01*
X74904761Y-37072333D02*
X76523809Y-37072333D01*
X76714285Y-36977095D01*
X76809523Y-36881857D01*
X76904761Y-36691380D01*
X76904761Y-36310428D01*
X76809523Y-36119952D01*
X76714285Y-36024714D01*
X76523809Y-35929476D01*
X74904761Y-35929476D01*
X74904761Y-35262809D02*
X74904761Y-34119952D01*
X76904761Y-34691380D02*
X74904761Y-34691380D01*
X76000000Y-46999000D02*
X76000000Y-141001037D01*
X48904761Y-43548523D02*
X50904761Y-42881857D01*
X48904761Y-42215190D01*
X50142857Y-41548523D02*
X50142857Y-40024714D01*
X50714285Y-37929476D02*
X50809523Y-38024714D01*
X50904761Y-38310428D01*
X50904761Y-38500904D01*
X50809523Y-38786619D01*
X50619047Y-38977095D01*
X50428571Y-39072333D01*
X50047619Y-39167571D01*
X49761904Y-39167571D01*
X49380952Y-39072333D01*
X49190476Y-38977095D01*
X49000000Y-38786619D01*
X48904761Y-38500904D01*
X48904761Y-38310428D01*
X49000000Y-38024714D01*
X49095238Y-37929476D01*
X48904761Y-37072333D02*
X50523809Y-37072333D01*
X50714285Y-36977095D01*
X50809523Y-36881857D01*
X50904761Y-36691380D01*
X50904761Y-36310428D01*
X50809523Y-36119952D01*
X50714285Y-36024714D01*
X50523809Y-35929476D01*
X48904761Y-35929476D01*
X48904761Y-35262809D02*
X48904761Y-34119952D01*
X50904761Y-34691380D02*
X48904761Y-34691380D01*
X50000000Y-46999000D02*
X50000000Y-141001037D01*
X163451512Y-120904761D02*
X164118178Y-122904761D01*
X164784845Y-120904761D01*
X165451512Y-122142857D02*
X166975321Y-122142857D01*
X169070559Y-122714285D02*
X168975321Y-122809523D01*
X168689607Y-122904761D01*
X168499131Y-122904761D01*
X168213416Y-122809523D01*
X168022940Y-122619047D01*
X167927702Y-122428571D01*
X167832464Y-122047619D01*
X167832464Y-121761904D01*
X167927702Y-121380952D01*
X168022940Y-121190476D01*
X168213416Y-121000000D01*
X168499131Y-120904761D01*
X168689607Y-120904761D01*
X168975321Y-121000000D01*
X169070559Y-121095238D01*
X169927702Y-120904761D02*
X169927702Y-122523809D01*
X170022940Y-122714285D01*
X170118178Y-122809523D01*
X170308655Y-122904761D01*
X170689607Y-122904761D01*
X170880083Y-122809523D01*
X170975321Y-122714285D01*
X171070559Y-122523809D01*
X171070559Y-120904761D01*
X171737226Y-120904761D02*
X172880083Y-120904761D01*
X172308655Y-122904761D02*
X172308655Y-120904761D01*
X42000000Y-122000000D02*
X160001036Y-122000000D01*
X163451512Y-118904761D02*
X164118178Y-120904761D01*
X164784845Y-118904761D01*
X165451512Y-120142857D02*
X166975321Y-120142857D01*
X169070559Y-120714285D02*
X168975321Y-120809523D01*
X168689607Y-120904761D01*
X168499131Y-120904761D01*
X168213416Y-120809523D01*
X168022940Y-120619047D01*
X167927702Y-120428571D01*
X167832464Y-120047619D01*
X167832464Y-119761904D01*
X167927702Y-119380952D01*
X168022940Y-119190476D01*
X168213416Y-119000000D01*
X168499131Y-118904761D01*
X168689607Y-118904761D01*
X168975321Y-119000000D01*
X169070559Y-119095238D01*
X169927702Y-118904761D02*
X169927702Y-120523809D01*
X170022940Y-120714285D01*
X170118178Y-120809523D01*
X170308655Y-120904761D01*
X170689607Y-120904761D01*
X170880083Y-120809523D01*
X170975321Y-120714285D01*
X171070559Y-120523809D01*
X171070559Y-118904761D01*
X171737226Y-118904761D02*
X172880083Y-118904761D01*
X172308655Y-120904761D02*
X172308655Y-118904761D01*
X42000000Y-120000000D02*
X160001036Y-120000000D01*
X163451512Y-102904761D02*
X164118178Y-104904761D01*
X164784845Y-102904761D01*
X165451512Y-104142857D02*
X166975321Y-104142857D01*
X169070559Y-104714285D02*
X168975321Y-104809523D01*
X168689607Y-104904761D01*
X168499131Y-104904761D01*
X168213416Y-104809523D01*
X168022940Y-104619047D01*
X167927702Y-104428571D01*
X167832464Y-104047619D01*
X167832464Y-103761904D01*
X167927702Y-103380952D01*
X168022940Y-103190476D01*
X168213416Y-103000000D01*
X168499131Y-102904761D01*
X168689607Y-102904761D01*
X168975321Y-103000000D01*
X169070559Y-103095238D01*
X169927702Y-102904761D02*
X169927702Y-104523809D01*
X170022940Y-104714285D01*
X170118178Y-104809523D01*
X170308655Y-104904761D01*
X170689607Y-104904761D01*
X170880083Y-104809523D01*
X170975321Y-104714285D01*
X171070559Y-104523809D01*
X171070559Y-102904761D01*
X171737226Y-102904761D02*
X172880083Y-102904761D01*
X172308655Y-104904761D02*
X172308655Y-102904761D01*
X42000000Y-104000000D02*
X160001036Y-104000000D01*
X163451512Y-82904761D02*
X164118178Y-84904761D01*
X164784845Y-82904761D01*
X165451512Y-84142857D02*
X166975321Y-84142857D01*
X169070559Y-84714285D02*
X168975321Y-84809523D01*
X168689607Y-84904761D01*
X168499131Y-84904761D01*
X168213416Y-84809523D01*
X168022940Y-84619047D01*
X167927702Y-84428571D01*
X167832464Y-84047619D01*
X167832464Y-83761904D01*
X167927702Y-83380952D01*
X168022940Y-83190476D01*
X168213416Y-83000000D01*
X168499131Y-82904761D01*
X168689607Y-82904761D01*
X168975321Y-83000000D01*
X169070559Y-83095238D01*
X169927702Y-82904761D02*
X169927702Y-84523809D01*
X170022940Y-84714285D01*
X170118178Y-84809523D01*
X170308655Y-84904761D01*
X170689607Y-84904761D01*
X170880083Y-84809523D01*
X170975321Y-84714285D01*
X171070559Y-84523809D01*
X171070559Y-82904761D01*
X171737226Y-82904761D02*
X172880083Y-82904761D01*
X172308655Y-84904761D02*
X172308655Y-82904761D01*
X42000000Y-84000000D02*
X160001036Y-84000000D01*
X163451512Y-100904761D02*
X164118178Y-102904761D01*
X164784845Y-100904761D01*
X165451512Y-102142857D02*
X166975321Y-102142857D01*
X169070559Y-102714285D02*
X168975321Y-102809523D01*
X168689607Y-102904761D01*
X168499131Y-102904761D01*
X168213416Y-102809523D01*
X168022940Y-102619047D01*
X167927702Y-102428571D01*
X167832464Y-102047619D01*
X167832464Y-101761904D01*
X167927702Y-101380952D01*
X168022940Y-101190476D01*
X168213416Y-101000000D01*
X168499131Y-100904761D01*
X168689607Y-100904761D01*
X168975321Y-101000000D01*
X169070559Y-101095238D01*
X169927702Y-100904761D02*
X169927702Y-102523809D01*
X170022940Y-102714285D01*
X170118178Y-102809523D01*
X170308655Y-102904761D01*
X170689607Y-102904761D01*
X170880083Y-102809523D01*
X170975321Y-102714285D01*
X171070559Y-102523809D01*
X171070559Y-100904761D01*
X171737226Y-100904761D02*
X172880083Y-100904761D01*
X172308655Y-102904761D02*
X172308655Y-100904761D01*
X42000000Y-102000000D02*
X160001036Y-102000000D01*
X163451512Y-84904761D02*
X164118178Y-86904761D01*
X164784845Y-84904761D01*
X165451512Y-86142857D02*
X166975321Y-86142857D01*
X169070559Y-86714285D02*
X168975321Y-86809523D01*
X168689607Y-86904761D01*
X168499131Y-86904761D01*
X168213416Y-86809523D01*
X168022940Y-86619047D01*
X167927702Y-86428571D01*
X167832464Y-86047619D01*
X167832464Y-85761904D01*
X167927702Y-85380952D01*
X168022940Y-85190476D01*
X168213416Y-85000000D01*
X168499131Y-84904761D01*
X168689607Y-84904761D01*
X168975321Y-85000000D01*
X169070559Y-85095238D01*
X169927702Y-84904761D02*
X169927702Y-86523809D01*
X170022940Y-86714285D01*
X170118178Y-86809523D01*
X170308655Y-86904761D01*
X170689607Y-86904761D01*
X170880083Y-86809523D01*
X170975321Y-86714285D01*
X171070559Y-86523809D01*
X171070559Y-84904761D01*
X171737226Y-84904761D02*
X172880083Y-84904761D01*
X172308655Y-86904761D02*
X172308655Y-84904761D01*
X42000000Y-86000000D02*
X160001036Y-86000000D01*
X163451512Y-66904761D02*
X164118178Y-68904761D01*
X164784845Y-66904761D01*
X165451512Y-68142857D02*
X166975321Y-68142857D01*
X169070559Y-68714285D02*
X168975321Y-68809523D01*
X168689607Y-68904761D01*
X168499131Y-68904761D01*
X168213416Y-68809523D01*
X168022940Y-68619047D01*
X167927702Y-68428571D01*
X167832464Y-68047619D01*
X167832464Y-67761904D01*
X167927702Y-67380952D01*
X168022940Y-67190476D01*
X168213416Y-67000000D01*
X168499131Y-66904761D01*
X168689607Y-66904761D01*
X168975321Y-67000000D01*
X169070559Y-67095238D01*
X169927702Y-66904761D02*
X169927702Y-68523809D01*
X170022940Y-68714285D01*
X170118178Y-68809523D01*
X170308655Y-68904761D01*
X170689607Y-68904761D01*
X170880083Y-68809523D01*
X170975321Y-68714285D01*
X171070559Y-68523809D01*
X171070559Y-66904761D01*
X171737226Y-66904761D02*
X172880083Y-66904761D01*
X172308655Y-68904761D02*
X172308655Y-66904761D01*
X42000000Y-68000000D02*
X160001036Y-68000000D01*
X163451512Y-64904761D02*
X164118178Y-66904761D01*
X164784845Y-64904761D01*
X165451512Y-66142857D02*
X166975321Y-66142857D01*
X169070559Y-66714285D02*
X168975321Y-66809523D01*
X168689607Y-66904761D01*
X168499131Y-66904761D01*
X168213416Y-66809523D01*
X168022940Y-66619047D01*
X167927702Y-66428571D01*
X167832464Y-66047619D01*
X167832464Y-65761904D01*
X167927702Y-65380952D01*
X168022940Y-65190476D01*
X168213416Y-65000000D01*
X168499131Y-64904761D01*
X168689607Y-64904761D01*
X168975321Y-65000000D01*
X169070559Y-65095238D01*
X169927702Y-64904761D02*
X169927702Y-66523809D01*
X170022940Y-66714285D01*
X170118178Y-66809523D01*
X170308655Y-66904761D01*
X170689607Y-66904761D01*
X170880083Y-66809523D01*
X170975321Y-66714285D01*
X171070559Y-66523809D01*
X171070559Y-64904761D01*
X171737226Y-64904761D02*
X172880083Y-64904761D01*
X172308655Y-66904761D02*
X172308655Y-64904761D01*
X42000000Y-66000000D02*
X160001036Y-66000000D01*
M02*
