G04 #@! TF.GenerationSoftware,KiCad,Pcbnew,(5.1.7)-1*
G04 #@! TF.CreationDate,2021-12-09T14:19:56+08:00*
G04 #@! TF.ProjectId,haptic-cloth-panelized,68617074-6963-42d6-936c-6f74682d7061,rev?*
G04 #@! TF.SameCoordinates,Original*
G04 #@! TF.FileFunction,Paste,Top*
G04 #@! TF.FilePolarity,Positive*
%FSLAX46Y46*%
G04 Gerber Fmt 4.6, Leading zero omitted, Abs format (unit mm)*
G04 Created by KiCad (PCBNEW (5.1.7)-1) date 2021-12-09 14:19:56*
%MOMM*%
%LPD*%
G01*
G04 APERTURE LIST*
%ADD10R,0.800000X0.900000*%
%ADD11R,0.700000X0.600000*%
%ADD12R,0.600000X0.700000*%
G04 APERTURE END LIST*
D10*
X129144028Y-125158037D03*
X131044028Y-125158037D03*
X130094028Y-123158037D03*
D11*
X130602028Y-126760037D03*
X130602028Y-128160037D03*
D12*
X137649028Y-135842037D03*
X139049028Y-135842037D03*
G36*
G01*
X132260028Y-132260037D02*
X133660028Y-132260037D01*
G75*
G02*
X133810028Y-132410037I0J-150000D01*
G01*
X133810028Y-132710037D01*
G75*
G02*
X133660028Y-132860037I-150000J0D01*
G01*
X132260028Y-132860037D01*
G75*
G02*
X132110028Y-132710037I0J150000D01*
G01*
X132110028Y-132410037D01*
G75*
G02*
X132260028Y-132260037I150000J0D01*
G01*
G37*
G36*
G01*
X132260028Y-133510037D02*
X133660028Y-133510037D01*
G75*
G02*
X133810028Y-133660037I0J-150000D01*
G01*
X133810028Y-133960037D01*
G75*
G02*
X133660028Y-134110037I-150000J0D01*
G01*
X132260028Y-134110037D01*
G75*
G02*
X132110028Y-133960037I0J150000D01*
G01*
X132110028Y-133660037D01*
G75*
G02*
X132260028Y-133510037I150000J0D01*
G01*
G37*
G36*
G01*
X132260028Y-134760037D02*
X133660028Y-134760037D01*
G75*
G02*
X133810028Y-134910037I0J-150000D01*
G01*
X133810028Y-135210037D01*
G75*
G02*
X133660028Y-135360037I-150000J0D01*
G01*
X132260028Y-135360037D01*
G75*
G02*
X132110028Y-135210037I0J150000D01*
G01*
X132110028Y-134910037D01*
G75*
G02*
X132260028Y-134760037I150000J0D01*
G01*
G37*
G36*
G01*
X128660028Y-130210037D02*
X130860028Y-130210037D01*
G75*
G02*
X131110028Y-130460037I0J-250000D01*
G01*
X131110028Y-130960037D01*
G75*
G02*
X130860028Y-131210037I-250000J0D01*
G01*
X128660028Y-131210037D01*
G75*
G02*
X128410028Y-130960037I0J250000D01*
G01*
X128410028Y-130460037D01*
G75*
G02*
X128660028Y-130210037I250000J0D01*
G01*
G37*
G36*
G01*
X128660028Y-136410037D02*
X130860028Y-136410037D01*
G75*
G02*
X131110028Y-136660037I0J-250000D01*
G01*
X131110028Y-137160037D01*
G75*
G02*
X130860028Y-137410037I-250000J0D01*
G01*
X128660028Y-137410037D01*
G75*
G02*
X128410028Y-137160037I0J250000D01*
G01*
X128410028Y-136660037D01*
G75*
G02*
X128660028Y-136410037I250000J0D01*
G01*
G37*
G36*
G01*
X147740028Y-127740037D02*
X146340028Y-127740037D01*
G75*
G02*
X146190028Y-127590037I0J150000D01*
G01*
X146190028Y-127290037D01*
G75*
G02*
X146340028Y-127140037I150000J0D01*
G01*
X147740028Y-127140037D01*
G75*
G02*
X147890028Y-127290037I0J-150000D01*
G01*
X147890028Y-127590037D01*
G75*
G02*
X147740028Y-127740037I-150000J0D01*
G01*
G37*
G36*
G01*
X147740028Y-126490037D02*
X146340028Y-126490037D01*
G75*
G02*
X146190028Y-126340037I0J150000D01*
G01*
X146190028Y-126040037D01*
G75*
G02*
X146340028Y-125890037I150000J0D01*
G01*
X147740028Y-125890037D01*
G75*
G02*
X147890028Y-126040037I0J-150000D01*
G01*
X147890028Y-126340037D01*
G75*
G02*
X147740028Y-126490037I-150000J0D01*
G01*
G37*
G36*
G01*
X147740028Y-125240037D02*
X146340028Y-125240037D01*
G75*
G02*
X146190028Y-125090037I0J150000D01*
G01*
X146190028Y-124790037D01*
G75*
G02*
X146340028Y-124640037I150000J0D01*
G01*
X147740028Y-124640037D01*
G75*
G02*
X147890028Y-124790037I0J-150000D01*
G01*
X147890028Y-125090037D01*
G75*
G02*
X147740028Y-125240037I-150000J0D01*
G01*
G37*
G36*
G01*
X151340028Y-129790037D02*
X149140028Y-129790037D01*
G75*
G02*
X148890028Y-129540037I0J250000D01*
G01*
X148890028Y-129040037D01*
G75*
G02*
X149140028Y-128790037I250000J0D01*
G01*
X151340028Y-128790037D01*
G75*
G02*
X151590028Y-129040037I0J-250000D01*
G01*
X151590028Y-129540037D01*
G75*
G02*
X151340028Y-129790037I-250000J0D01*
G01*
G37*
G36*
G01*
X151340028Y-123590037D02*
X149140028Y-123590037D01*
G75*
G02*
X148890028Y-123340037I0J250000D01*
G01*
X148890028Y-122840037D01*
G75*
G02*
X149140028Y-122590037I250000J0D01*
G01*
X151340028Y-122590037D01*
G75*
G02*
X151590028Y-122840037I0J-250000D01*
G01*
X151590028Y-123340037D01*
G75*
G02*
X151340028Y-123590037I-250000J0D01*
G01*
G37*
G36*
G01*
X146627028Y-137514037D02*
X146327028Y-137514037D01*
G75*
G02*
X146177028Y-137364037I0J150000D01*
G01*
X146177028Y-135914037D01*
G75*
G02*
X146327028Y-135764037I150000J0D01*
G01*
X146627028Y-135764037D01*
G75*
G02*
X146777028Y-135914037I0J-150000D01*
G01*
X146777028Y-137364037D01*
G75*
G02*
X146627028Y-137514037I-150000J0D01*
G01*
G37*
G36*
G01*
X147897028Y-137514037D02*
X147597028Y-137514037D01*
G75*
G02*
X147447028Y-137364037I0J150000D01*
G01*
X147447028Y-135914037D01*
G75*
G02*
X147597028Y-135764037I150000J0D01*
G01*
X147897028Y-135764037D01*
G75*
G02*
X148047028Y-135914037I0J-150000D01*
G01*
X148047028Y-137364037D01*
G75*
G02*
X147897028Y-137514037I-150000J0D01*
G01*
G37*
G36*
G01*
X149167028Y-137514037D02*
X148867028Y-137514037D01*
G75*
G02*
X148717028Y-137364037I0J150000D01*
G01*
X148717028Y-135914037D01*
G75*
G02*
X148867028Y-135764037I150000J0D01*
G01*
X149167028Y-135764037D01*
G75*
G02*
X149317028Y-135914037I0J-150000D01*
G01*
X149317028Y-137364037D01*
G75*
G02*
X149167028Y-137514037I-150000J0D01*
G01*
G37*
G36*
G01*
X150437028Y-137514037D02*
X150137028Y-137514037D01*
G75*
G02*
X149987028Y-137364037I0J150000D01*
G01*
X149987028Y-135914037D01*
G75*
G02*
X150137028Y-135764037I150000J0D01*
G01*
X150437028Y-135764037D01*
G75*
G02*
X150587028Y-135914037I0J-150000D01*
G01*
X150587028Y-137364037D01*
G75*
G02*
X150437028Y-137514037I-150000J0D01*
G01*
G37*
G36*
G01*
X150437028Y-132364037D02*
X150137028Y-132364037D01*
G75*
G02*
X149987028Y-132214037I0J150000D01*
G01*
X149987028Y-130764037D01*
G75*
G02*
X150137028Y-130614037I150000J0D01*
G01*
X150437028Y-130614037D01*
G75*
G02*
X150587028Y-130764037I0J-150000D01*
G01*
X150587028Y-132214037D01*
G75*
G02*
X150437028Y-132364037I-150000J0D01*
G01*
G37*
G36*
G01*
X149167028Y-132364037D02*
X148867028Y-132364037D01*
G75*
G02*
X148717028Y-132214037I0J150000D01*
G01*
X148717028Y-130764037D01*
G75*
G02*
X148867028Y-130614037I150000J0D01*
G01*
X149167028Y-130614037D01*
G75*
G02*
X149317028Y-130764037I0J-150000D01*
G01*
X149317028Y-132214037D01*
G75*
G02*
X149167028Y-132364037I-150000J0D01*
G01*
G37*
G36*
G01*
X147897028Y-132364037D02*
X147597028Y-132364037D01*
G75*
G02*
X147447028Y-132214037I0J150000D01*
G01*
X147447028Y-130764037D01*
G75*
G02*
X147597028Y-130614037I150000J0D01*
G01*
X147897028Y-130614037D01*
G75*
G02*
X148047028Y-130764037I0J-150000D01*
G01*
X148047028Y-132214037D01*
G75*
G02*
X147897028Y-132364037I-150000J0D01*
G01*
G37*
G36*
G01*
X146627028Y-132364037D02*
X146327028Y-132364037D01*
G75*
G02*
X146177028Y-132214037I0J150000D01*
G01*
X146177028Y-130764037D01*
G75*
G02*
X146327028Y-130614037I150000J0D01*
G01*
X146627028Y-130614037D01*
G75*
G02*
X146777028Y-130764037I0J-150000D01*
G01*
X146777028Y-132214037D01*
G75*
G02*
X146627028Y-132364037I-150000J0D01*
G01*
G37*
G36*
G01*
X128803028Y-126235037D02*
X129353028Y-126235037D01*
G75*
G02*
X129553028Y-126435037I0J-200000D01*
G01*
X129553028Y-126835037D01*
G75*
G02*
X129353028Y-127035037I-200000J0D01*
G01*
X128803028Y-127035037D01*
G75*
G02*
X128603028Y-126835037I0J200000D01*
G01*
X128603028Y-126435037D01*
G75*
G02*
X128803028Y-126235037I200000J0D01*
G01*
G37*
G36*
G01*
X128803028Y-127885037D02*
X129353028Y-127885037D01*
G75*
G02*
X129553028Y-128085037I0J-200000D01*
G01*
X129553028Y-128485037D01*
G75*
G02*
X129353028Y-128685037I-200000J0D01*
G01*
X128803028Y-128685037D01*
G75*
G02*
X128603028Y-128485037I0J200000D01*
G01*
X128603028Y-128085037D01*
G75*
G02*
X128803028Y-127885037I200000J0D01*
G01*
G37*
G36*
G01*
X142368028Y-135592037D02*
X142368028Y-136092037D01*
G75*
G02*
X142143028Y-136317037I-225000J0D01*
G01*
X141693028Y-136317037D01*
G75*
G02*
X141468028Y-136092037I0J225000D01*
G01*
X141468028Y-135592037D01*
G75*
G02*
X141693028Y-135367037I225000J0D01*
G01*
X142143028Y-135367037D01*
G75*
G02*
X142368028Y-135592037I0J-225000D01*
G01*
G37*
G36*
G01*
X140818028Y-135592037D02*
X140818028Y-136092037D01*
G75*
G02*
X140593028Y-136317037I-225000J0D01*
G01*
X140143028Y-136317037D01*
G75*
G02*
X139918028Y-136092037I0J225000D01*
G01*
X139918028Y-135592037D01*
G75*
G02*
X140143028Y-135367037I225000J0D01*
G01*
X140593028Y-135367037D01*
G75*
G02*
X140818028Y-135592037I0J-225000D01*
G01*
G37*
G36*
G01*
X133417028Y-125383037D02*
X132867028Y-125383037D01*
G75*
G02*
X132667028Y-125183037I0J200000D01*
G01*
X132667028Y-124783037D01*
G75*
G02*
X132867028Y-124583037I200000J0D01*
G01*
X133417028Y-124583037D01*
G75*
G02*
X133617028Y-124783037I0J-200000D01*
G01*
X133617028Y-125183037D01*
G75*
G02*
X133417028Y-125383037I-200000J0D01*
G01*
G37*
G36*
G01*
X133417028Y-123733037D02*
X132867028Y-123733037D01*
G75*
G02*
X132667028Y-123533037I0J200000D01*
G01*
X132667028Y-123133037D01*
G75*
G02*
X132867028Y-122933037I200000J0D01*
G01*
X133417028Y-122933037D01*
G75*
G02*
X133617028Y-123133037I0J-200000D01*
G01*
X133617028Y-123533037D01*
G75*
G02*
X133417028Y-123733037I-200000J0D01*
G01*
G37*
D10*
X103144019Y-125158037D03*
X105044019Y-125158037D03*
X104094019Y-123158037D03*
D11*
X104602019Y-126760037D03*
X104602019Y-128160037D03*
D12*
X111649019Y-135842037D03*
X113049019Y-135842037D03*
G36*
G01*
X106260019Y-132260037D02*
X107660019Y-132260037D01*
G75*
G02*
X107810019Y-132410037I0J-150000D01*
G01*
X107810019Y-132710037D01*
G75*
G02*
X107660019Y-132860037I-150000J0D01*
G01*
X106260019Y-132860037D01*
G75*
G02*
X106110019Y-132710037I0J150000D01*
G01*
X106110019Y-132410037D01*
G75*
G02*
X106260019Y-132260037I150000J0D01*
G01*
G37*
G36*
G01*
X106260019Y-133510037D02*
X107660019Y-133510037D01*
G75*
G02*
X107810019Y-133660037I0J-150000D01*
G01*
X107810019Y-133960037D01*
G75*
G02*
X107660019Y-134110037I-150000J0D01*
G01*
X106260019Y-134110037D01*
G75*
G02*
X106110019Y-133960037I0J150000D01*
G01*
X106110019Y-133660037D01*
G75*
G02*
X106260019Y-133510037I150000J0D01*
G01*
G37*
G36*
G01*
X106260019Y-134760037D02*
X107660019Y-134760037D01*
G75*
G02*
X107810019Y-134910037I0J-150000D01*
G01*
X107810019Y-135210037D01*
G75*
G02*
X107660019Y-135360037I-150000J0D01*
G01*
X106260019Y-135360037D01*
G75*
G02*
X106110019Y-135210037I0J150000D01*
G01*
X106110019Y-134910037D01*
G75*
G02*
X106260019Y-134760037I150000J0D01*
G01*
G37*
G36*
G01*
X102660019Y-130210037D02*
X104860019Y-130210037D01*
G75*
G02*
X105110019Y-130460037I0J-250000D01*
G01*
X105110019Y-130960037D01*
G75*
G02*
X104860019Y-131210037I-250000J0D01*
G01*
X102660019Y-131210037D01*
G75*
G02*
X102410019Y-130960037I0J250000D01*
G01*
X102410019Y-130460037D01*
G75*
G02*
X102660019Y-130210037I250000J0D01*
G01*
G37*
G36*
G01*
X102660019Y-136410037D02*
X104860019Y-136410037D01*
G75*
G02*
X105110019Y-136660037I0J-250000D01*
G01*
X105110019Y-137160037D01*
G75*
G02*
X104860019Y-137410037I-250000J0D01*
G01*
X102660019Y-137410037D01*
G75*
G02*
X102410019Y-137160037I0J250000D01*
G01*
X102410019Y-136660037D01*
G75*
G02*
X102660019Y-136410037I250000J0D01*
G01*
G37*
G36*
G01*
X121740019Y-127740037D02*
X120340019Y-127740037D01*
G75*
G02*
X120190019Y-127590037I0J150000D01*
G01*
X120190019Y-127290037D01*
G75*
G02*
X120340019Y-127140037I150000J0D01*
G01*
X121740019Y-127140037D01*
G75*
G02*
X121890019Y-127290037I0J-150000D01*
G01*
X121890019Y-127590037D01*
G75*
G02*
X121740019Y-127740037I-150000J0D01*
G01*
G37*
G36*
G01*
X121740019Y-126490037D02*
X120340019Y-126490037D01*
G75*
G02*
X120190019Y-126340037I0J150000D01*
G01*
X120190019Y-126040037D01*
G75*
G02*
X120340019Y-125890037I150000J0D01*
G01*
X121740019Y-125890037D01*
G75*
G02*
X121890019Y-126040037I0J-150000D01*
G01*
X121890019Y-126340037D01*
G75*
G02*
X121740019Y-126490037I-150000J0D01*
G01*
G37*
G36*
G01*
X121740019Y-125240037D02*
X120340019Y-125240037D01*
G75*
G02*
X120190019Y-125090037I0J150000D01*
G01*
X120190019Y-124790037D01*
G75*
G02*
X120340019Y-124640037I150000J0D01*
G01*
X121740019Y-124640037D01*
G75*
G02*
X121890019Y-124790037I0J-150000D01*
G01*
X121890019Y-125090037D01*
G75*
G02*
X121740019Y-125240037I-150000J0D01*
G01*
G37*
G36*
G01*
X125340019Y-129790037D02*
X123140019Y-129790037D01*
G75*
G02*
X122890019Y-129540037I0J250000D01*
G01*
X122890019Y-129040037D01*
G75*
G02*
X123140019Y-128790037I250000J0D01*
G01*
X125340019Y-128790037D01*
G75*
G02*
X125590019Y-129040037I0J-250000D01*
G01*
X125590019Y-129540037D01*
G75*
G02*
X125340019Y-129790037I-250000J0D01*
G01*
G37*
G36*
G01*
X125340019Y-123590037D02*
X123140019Y-123590037D01*
G75*
G02*
X122890019Y-123340037I0J250000D01*
G01*
X122890019Y-122840037D01*
G75*
G02*
X123140019Y-122590037I250000J0D01*
G01*
X125340019Y-122590037D01*
G75*
G02*
X125590019Y-122840037I0J-250000D01*
G01*
X125590019Y-123340037D01*
G75*
G02*
X125340019Y-123590037I-250000J0D01*
G01*
G37*
G36*
G01*
X120627019Y-137514037D02*
X120327019Y-137514037D01*
G75*
G02*
X120177019Y-137364037I0J150000D01*
G01*
X120177019Y-135914037D01*
G75*
G02*
X120327019Y-135764037I150000J0D01*
G01*
X120627019Y-135764037D01*
G75*
G02*
X120777019Y-135914037I0J-150000D01*
G01*
X120777019Y-137364037D01*
G75*
G02*
X120627019Y-137514037I-150000J0D01*
G01*
G37*
G36*
G01*
X121897019Y-137514037D02*
X121597019Y-137514037D01*
G75*
G02*
X121447019Y-137364037I0J150000D01*
G01*
X121447019Y-135914037D01*
G75*
G02*
X121597019Y-135764037I150000J0D01*
G01*
X121897019Y-135764037D01*
G75*
G02*
X122047019Y-135914037I0J-150000D01*
G01*
X122047019Y-137364037D01*
G75*
G02*
X121897019Y-137514037I-150000J0D01*
G01*
G37*
G36*
G01*
X123167019Y-137514037D02*
X122867019Y-137514037D01*
G75*
G02*
X122717019Y-137364037I0J150000D01*
G01*
X122717019Y-135914037D01*
G75*
G02*
X122867019Y-135764037I150000J0D01*
G01*
X123167019Y-135764037D01*
G75*
G02*
X123317019Y-135914037I0J-150000D01*
G01*
X123317019Y-137364037D01*
G75*
G02*
X123167019Y-137514037I-150000J0D01*
G01*
G37*
G36*
G01*
X124437019Y-137514037D02*
X124137019Y-137514037D01*
G75*
G02*
X123987019Y-137364037I0J150000D01*
G01*
X123987019Y-135914037D01*
G75*
G02*
X124137019Y-135764037I150000J0D01*
G01*
X124437019Y-135764037D01*
G75*
G02*
X124587019Y-135914037I0J-150000D01*
G01*
X124587019Y-137364037D01*
G75*
G02*
X124437019Y-137514037I-150000J0D01*
G01*
G37*
G36*
G01*
X124437019Y-132364037D02*
X124137019Y-132364037D01*
G75*
G02*
X123987019Y-132214037I0J150000D01*
G01*
X123987019Y-130764037D01*
G75*
G02*
X124137019Y-130614037I150000J0D01*
G01*
X124437019Y-130614037D01*
G75*
G02*
X124587019Y-130764037I0J-150000D01*
G01*
X124587019Y-132214037D01*
G75*
G02*
X124437019Y-132364037I-150000J0D01*
G01*
G37*
G36*
G01*
X123167019Y-132364037D02*
X122867019Y-132364037D01*
G75*
G02*
X122717019Y-132214037I0J150000D01*
G01*
X122717019Y-130764037D01*
G75*
G02*
X122867019Y-130614037I150000J0D01*
G01*
X123167019Y-130614037D01*
G75*
G02*
X123317019Y-130764037I0J-150000D01*
G01*
X123317019Y-132214037D01*
G75*
G02*
X123167019Y-132364037I-150000J0D01*
G01*
G37*
G36*
G01*
X121897019Y-132364037D02*
X121597019Y-132364037D01*
G75*
G02*
X121447019Y-132214037I0J150000D01*
G01*
X121447019Y-130764037D01*
G75*
G02*
X121597019Y-130614037I150000J0D01*
G01*
X121897019Y-130614037D01*
G75*
G02*
X122047019Y-130764037I0J-150000D01*
G01*
X122047019Y-132214037D01*
G75*
G02*
X121897019Y-132364037I-150000J0D01*
G01*
G37*
G36*
G01*
X120627019Y-132364037D02*
X120327019Y-132364037D01*
G75*
G02*
X120177019Y-132214037I0J150000D01*
G01*
X120177019Y-130764037D01*
G75*
G02*
X120327019Y-130614037I150000J0D01*
G01*
X120627019Y-130614037D01*
G75*
G02*
X120777019Y-130764037I0J-150000D01*
G01*
X120777019Y-132214037D01*
G75*
G02*
X120627019Y-132364037I-150000J0D01*
G01*
G37*
G36*
G01*
X102803019Y-126235037D02*
X103353019Y-126235037D01*
G75*
G02*
X103553019Y-126435037I0J-200000D01*
G01*
X103553019Y-126835037D01*
G75*
G02*
X103353019Y-127035037I-200000J0D01*
G01*
X102803019Y-127035037D01*
G75*
G02*
X102603019Y-126835037I0J200000D01*
G01*
X102603019Y-126435037D01*
G75*
G02*
X102803019Y-126235037I200000J0D01*
G01*
G37*
G36*
G01*
X102803019Y-127885037D02*
X103353019Y-127885037D01*
G75*
G02*
X103553019Y-128085037I0J-200000D01*
G01*
X103553019Y-128485037D01*
G75*
G02*
X103353019Y-128685037I-200000J0D01*
G01*
X102803019Y-128685037D01*
G75*
G02*
X102603019Y-128485037I0J200000D01*
G01*
X102603019Y-128085037D01*
G75*
G02*
X102803019Y-127885037I200000J0D01*
G01*
G37*
G36*
G01*
X116368019Y-135592037D02*
X116368019Y-136092037D01*
G75*
G02*
X116143019Y-136317037I-225000J0D01*
G01*
X115693019Y-136317037D01*
G75*
G02*
X115468019Y-136092037I0J225000D01*
G01*
X115468019Y-135592037D01*
G75*
G02*
X115693019Y-135367037I225000J0D01*
G01*
X116143019Y-135367037D01*
G75*
G02*
X116368019Y-135592037I0J-225000D01*
G01*
G37*
G36*
G01*
X114818019Y-135592037D02*
X114818019Y-136092037D01*
G75*
G02*
X114593019Y-136317037I-225000J0D01*
G01*
X114143019Y-136317037D01*
G75*
G02*
X113918019Y-136092037I0J225000D01*
G01*
X113918019Y-135592037D01*
G75*
G02*
X114143019Y-135367037I225000J0D01*
G01*
X114593019Y-135367037D01*
G75*
G02*
X114818019Y-135592037I0J-225000D01*
G01*
G37*
G36*
G01*
X107417019Y-125383037D02*
X106867019Y-125383037D01*
G75*
G02*
X106667019Y-125183037I0J200000D01*
G01*
X106667019Y-124783037D01*
G75*
G02*
X106867019Y-124583037I200000J0D01*
G01*
X107417019Y-124583037D01*
G75*
G02*
X107617019Y-124783037I0J-200000D01*
G01*
X107617019Y-125183037D01*
G75*
G02*
X107417019Y-125383037I-200000J0D01*
G01*
G37*
G36*
G01*
X107417019Y-123733037D02*
X106867019Y-123733037D01*
G75*
G02*
X106667019Y-123533037I0J200000D01*
G01*
X106667019Y-123133037D01*
G75*
G02*
X106867019Y-122933037I200000J0D01*
G01*
X107417019Y-122933037D01*
G75*
G02*
X107617019Y-123133037I0J-200000D01*
G01*
X107617019Y-123533037D01*
G75*
G02*
X107417019Y-123733037I-200000J0D01*
G01*
G37*
D10*
X77144010Y-125158037D03*
X79044010Y-125158037D03*
X78094010Y-123158037D03*
D11*
X78602010Y-126760037D03*
X78602010Y-128160037D03*
D12*
X85649010Y-135842037D03*
X87049010Y-135842037D03*
G36*
G01*
X80260010Y-132260037D02*
X81660010Y-132260037D01*
G75*
G02*
X81810010Y-132410037I0J-150000D01*
G01*
X81810010Y-132710037D01*
G75*
G02*
X81660010Y-132860037I-150000J0D01*
G01*
X80260010Y-132860037D01*
G75*
G02*
X80110010Y-132710037I0J150000D01*
G01*
X80110010Y-132410037D01*
G75*
G02*
X80260010Y-132260037I150000J0D01*
G01*
G37*
G36*
G01*
X80260010Y-133510037D02*
X81660010Y-133510037D01*
G75*
G02*
X81810010Y-133660037I0J-150000D01*
G01*
X81810010Y-133960037D01*
G75*
G02*
X81660010Y-134110037I-150000J0D01*
G01*
X80260010Y-134110037D01*
G75*
G02*
X80110010Y-133960037I0J150000D01*
G01*
X80110010Y-133660037D01*
G75*
G02*
X80260010Y-133510037I150000J0D01*
G01*
G37*
G36*
G01*
X80260010Y-134760037D02*
X81660010Y-134760037D01*
G75*
G02*
X81810010Y-134910037I0J-150000D01*
G01*
X81810010Y-135210037D01*
G75*
G02*
X81660010Y-135360037I-150000J0D01*
G01*
X80260010Y-135360037D01*
G75*
G02*
X80110010Y-135210037I0J150000D01*
G01*
X80110010Y-134910037D01*
G75*
G02*
X80260010Y-134760037I150000J0D01*
G01*
G37*
G36*
G01*
X76660010Y-130210037D02*
X78860010Y-130210037D01*
G75*
G02*
X79110010Y-130460037I0J-250000D01*
G01*
X79110010Y-130960037D01*
G75*
G02*
X78860010Y-131210037I-250000J0D01*
G01*
X76660010Y-131210037D01*
G75*
G02*
X76410010Y-130960037I0J250000D01*
G01*
X76410010Y-130460037D01*
G75*
G02*
X76660010Y-130210037I250000J0D01*
G01*
G37*
G36*
G01*
X76660010Y-136410037D02*
X78860010Y-136410037D01*
G75*
G02*
X79110010Y-136660037I0J-250000D01*
G01*
X79110010Y-137160037D01*
G75*
G02*
X78860010Y-137410037I-250000J0D01*
G01*
X76660010Y-137410037D01*
G75*
G02*
X76410010Y-137160037I0J250000D01*
G01*
X76410010Y-136660037D01*
G75*
G02*
X76660010Y-136410037I250000J0D01*
G01*
G37*
G36*
G01*
X95740010Y-127740037D02*
X94340010Y-127740037D01*
G75*
G02*
X94190010Y-127590037I0J150000D01*
G01*
X94190010Y-127290037D01*
G75*
G02*
X94340010Y-127140037I150000J0D01*
G01*
X95740010Y-127140037D01*
G75*
G02*
X95890010Y-127290037I0J-150000D01*
G01*
X95890010Y-127590037D01*
G75*
G02*
X95740010Y-127740037I-150000J0D01*
G01*
G37*
G36*
G01*
X95740010Y-126490037D02*
X94340010Y-126490037D01*
G75*
G02*
X94190010Y-126340037I0J150000D01*
G01*
X94190010Y-126040037D01*
G75*
G02*
X94340010Y-125890037I150000J0D01*
G01*
X95740010Y-125890037D01*
G75*
G02*
X95890010Y-126040037I0J-150000D01*
G01*
X95890010Y-126340037D01*
G75*
G02*
X95740010Y-126490037I-150000J0D01*
G01*
G37*
G36*
G01*
X95740010Y-125240037D02*
X94340010Y-125240037D01*
G75*
G02*
X94190010Y-125090037I0J150000D01*
G01*
X94190010Y-124790037D01*
G75*
G02*
X94340010Y-124640037I150000J0D01*
G01*
X95740010Y-124640037D01*
G75*
G02*
X95890010Y-124790037I0J-150000D01*
G01*
X95890010Y-125090037D01*
G75*
G02*
X95740010Y-125240037I-150000J0D01*
G01*
G37*
G36*
G01*
X99340010Y-129790037D02*
X97140010Y-129790037D01*
G75*
G02*
X96890010Y-129540037I0J250000D01*
G01*
X96890010Y-129040037D01*
G75*
G02*
X97140010Y-128790037I250000J0D01*
G01*
X99340010Y-128790037D01*
G75*
G02*
X99590010Y-129040037I0J-250000D01*
G01*
X99590010Y-129540037D01*
G75*
G02*
X99340010Y-129790037I-250000J0D01*
G01*
G37*
G36*
G01*
X99340010Y-123590037D02*
X97140010Y-123590037D01*
G75*
G02*
X96890010Y-123340037I0J250000D01*
G01*
X96890010Y-122840037D01*
G75*
G02*
X97140010Y-122590037I250000J0D01*
G01*
X99340010Y-122590037D01*
G75*
G02*
X99590010Y-122840037I0J-250000D01*
G01*
X99590010Y-123340037D01*
G75*
G02*
X99340010Y-123590037I-250000J0D01*
G01*
G37*
G36*
G01*
X94627010Y-137514037D02*
X94327010Y-137514037D01*
G75*
G02*
X94177010Y-137364037I0J150000D01*
G01*
X94177010Y-135914037D01*
G75*
G02*
X94327010Y-135764037I150000J0D01*
G01*
X94627010Y-135764037D01*
G75*
G02*
X94777010Y-135914037I0J-150000D01*
G01*
X94777010Y-137364037D01*
G75*
G02*
X94627010Y-137514037I-150000J0D01*
G01*
G37*
G36*
G01*
X95897010Y-137514037D02*
X95597010Y-137514037D01*
G75*
G02*
X95447010Y-137364037I0J150000D01*
G01*
X95447010Y-135914037D01*
G75*
G02*
X95597010Y-135764037I150000J0D01*
G01*
X95897010Y-135764037D01*
G75*
G02*
X96047010Y-135914037I0J-150000D01*
G01*
X96047010Y-137364037D01*
G75*
G02*
X95897010Y-137514037I-150000J0D01*
G01*
G37*
G36*
G01*
X97167010Y-137514037D02*
X96867010Y-137514037D01*
G75*
G02*
X96717010Y-137364037I0J150000D01*
G01*
X96717010Y-135914037D01*
G75*
G02*
X96867010Y-135764037I150000J0D01*
G01*
X97167010Y-135764037D01*
G75*
G02*
X97317010Y-135914037I0J-150000D01*
G01*
X97317010Y-137364037D01*
G75*
G02*
X97167010Y-137514037I-150000J0D01*
G01*
G37*
G36*
G01*
X98437010Y-137514037D02*
X98137010Y-137514037D01*
G75*
G02*
X97987010Y-137364037I0J150000D01*
G01*
X97987010Y-135914037D01*
G75*
G02*
X98137010Y-135764037I150000J0D01*
G01*
X98437010Y-135764037D01*
G75*
G02*
X98587010Y-135914037I0J-150000D01*
G01*
X98587010Y-137364037D01*
G75*
G02*
X98437010Y-137514037I-150000J0D01*
G01*
G37*
G36*
G01*
X98437010Y-132364037D02*
X98137010Y-132364037D01*
G75*
G02*
X97987010Y-132214037I0J150000D01*
G01*
X97987010Y-130764037D01*
G75*
G02*
X98137010Y-130614037I150000J0D01*
G01*
X98437010Y-130614037D01*
G75*
G02*
X98587010Y-130764037I0J-150000D01*
G01*
X98587010Y-132214037D01*
G75*
G02*
X98437010Y-132364037I-150000J0D01*
G01*
G37*
G36*
G01*
X97167010Y-132364037D02*
X96867010Y-132364037D01*
G75*
G02*
X96717010Y-132214037I0J150000D01*
G01*
X96717010Y-130764037D01*
G75*
G02*
X96867010Y-130614037I150000J0D01*
G01*
X97167010Y-130614037D01*
G75*
G02*
X97317010Y-130764037I0J-150000D01*
G01*
X97317010Y-132214037D01*
G75*
G02*
X97167010Y-132364037I-150000J0D01*
G01*
G37*
G36*
G01*
X95897010Y-132364037D02*
X95597010Y-132364037D01*
G75*
G02*
X95447010Y-132214037I0J150000D01*
G01*
X95447010Y-130764037D01*
G75*
G02*
X95597010Y-130614037I150000J0D01*
G01*
X95897010Y-130614037D01*
G75*
G02*
X96047010Y-130764037I0J-150000D01*
G01*
X96047010Y-132214037D01*
G75*
G02*
X95897010Y-132364037I-150000J0D01*
G01*
G37*
G36*
G01*
X94627010Y-132364037D02*
X94327010Y-132364037D01*
G75*
G02*
X94177010Y-132214037I0J150000D01*
G01*
X94177010Y-130764037D01*
G75*
G02*
X94327010Y-130614037I150000J0D01*
G01*
X94627010Y-130614037D01*
G75*
G02*
X94777010Y-130764037I0J-150000D01*
G01*
X94777010Y-132214037D01*
G75*
G02*
X94627010Y-132364037I-150000J0D01*
G01*
G37*
G36*
G01*
X76803010Y-126235037D02*
X77353010Y-126235037D01*
G75*
G02*
X77553010Y-126435037I0J-200000D01*
G01*
X77553010Y-126835037D01*
G75*
G02*
X77353010Y-127035037I-200000J0D01*
G01*
X76803010Y-127035037D01*
G75*
G02*
X76603010Y-126835037I0J200000D01*
G01*
X76603010Y-126435037D01*
G75*
G02*
X76803010Y-126235037I200000J0D01*
G01*
G37*
G36*
G01*
X76803010Y-127885037D02*
X77353010Y-127885037D01*
G75*
G02*
X77553010Y-128085037I0J-200000D01*
G01*
X77553010Y-128485037D01*
G75*
G02*
X77353010Y-128685037I-200000J0D01*
G01*
X76803010Y-128685037D01*
G75*
G02*
X76603010Y-128485037I0J200000D01*
G01*
X76603010Y-128085037D01*
G75*
G02*
X76803010Y-127885037I200000J0D01*
G01*
G37*
G36*
G01*
X90368010Y-135592037D02*
X90368010Y-136092037D01*
G75*
G02*
X90143010Y-136317037I-225000J0D01*
G01*
X89693010Y-136317037D01*
G75*
G02*
X89468010Y-136092037I0J225000D01*
G01*
X89468010Y-135592037D01*
G75*
G02*
X89693010Y-135367037I225000J0D01*
G01*
X90143010Y-135367037D01*
G75*
G02*
X90368010Y-135592037I0J-225000D01*
G01*
G37*
G36*
G01*
X88818010Y-135592037D02*
X88818010Y-136092037D01*
G75*
G02*
X88593010Y-136317037I-225000J0D01*
G01*
X88143010Y-136317037D01*
G75*
G02*
X87918010Y-136092037I0J225000D01*
G01*
X87918010Y-135592037D01*
G75*
G02*
X88143010Y-135367037I225000J0D01*
G01*
X88593010Y-135367037D01*
G75*
G02*
X88818010Y-135592037I0J-225000D01*
G01*
G37*
G36*
G01*
X81417010Y-125383037D02*
X80867010Y-125383037D01*
G75*
G02*
X80667010Y-125183037I0J200000D01*
G01*
X80667010Y-124783037D01*
G75*
G02*
X80867010Y-124583037I200000J0D01*
G01*
X81417010Y-124583037D01*
G75*
G02*
X81617010Y-124783037I0J-200000D01*
G01*
X81617010Y-125183037D01*
G75*
G02*
X81417010Y-125383037I-200000J0D01*
G01*
G37*
G36*
G01*
X81417010Y-123733037D02*
X80867010Y-123733037D01*
G75*
G02*
X80667010Y-123533037I0J200000D01*
G01*
X80667010Y-123133037D01*
G75*
G02*
X80867010Y-122933037I200000J0D01*
G01*
X81417010Y-122933037D01*
G75*
G02*
X81617010Y-123133037I0J-200000D01*
G01*
X81617010Y-123533037D01*
G75*
G02*
X81417010Y-123733037I-200000J0D01*
G01*
G37*
D10*
X51144001Y-125158037D03*
X53044001Y-125158037D03*
X52094001Y-123158037D03*
D11*
X52602001Y-126760037D03*
X52602001Y-128160037D03*
D12*
X59649001Y-135842037D03*
X61049001Y-135842037D03*
G36*
G01*
X54260001Y-132260037D02*
X55660001Y-132260037D01*
G75*
G02*
X55810001Y-132410037I0J-150000D01*
G01*
X55810001Y-132710037D01*
G75*
G02*
X55660001Y-132860037I-150000J0D01*
G01*
X54260001Y-132860037D01*
G75*
G02*
X54110001Y-132710037I0J150000D01*
G01*
X54110001Y-132410037D01*
G75*
G02*
X54260001Y-132260037I150000J0D01*
G01*
G37*
G36*
G01*
X54260001Y-133510037D02*
X55660001Y-133510037D01*
G75*
G02*
X55810001Y-133660037I0J-150000D01*
G01*
X55810001Y-133960037D01*
G75*
G02*
X55660001Y-134110037I-150000J0D01*
G01*
X54260001Y-134110037D01*
G75*
G02*
X54110001Y-133960037I0J150000D01*
G01*
X54110001Y-133660037D01*
G75*
G02*
X54260001Y-133510037I150000J0D01*
G01*
G37*
G36*
G01*
X54260001Y-134760037D02*
X55660001Y-134760037D01*
G75*
G02*
X55810001Y-134910037I0J-150000D01*
G01*
X55810001Y-135210037D01*
G75*
G02*
X55660001Y-135360037I-150000J0D01*
G01*
X54260001Y-135360037D01*
G75*
G02*
X54110001Y-135210037I0J150000D01*
G01*
X54110001Y-134910037D01*
G75*
G02*
X54260001Y-134760037I150000J0D01*
G01*
G37*
G36*
G01*
X50660001Y-130210037D02*
X52860001Y-130210037D01*
G75*
G02*
X53110001Y-130460037I0J-250000D01*
G01*
X53110001Y-130960037D01*
G75*
G02*
X52860001Y-131210037I-250000J0D01*
G01*
X50660001Y-131210037D01*
G75*
G02*
X50410001Y-130960037I0J250000D01*
G01*
X50410001Y-130460037D01*
G75*
G02*
X50660001Y-130210037I250000J0D01*
G01*
G37*
G36*
G01*
X50660001Y-136410037D02*
X52860001Y-136410037D01*
G75*
G02*
X53110001Y-136660037I0J-250000D01*
G01*
X53110001Y-137160037D01*
G75*
G02*
X52860001Y-137410037I-250000J0D01*
G01*
X50660001Y-137410037D01*
G75*
G02*
X50410001Y-137160037I0J250000D01*
G01*
X50410001Y-136660037D01*
G75*
G02*
X50660001Y-136410037I250000J0D01*
G01*
G37*
G36*
G01*
X69740001Y-127740037D02*
X68340001Y-127740037D01*
G75*
G02*
X68190001Y-127590037I0J150000D01*
G01*
X68190001Y-127290037D01*
G75*
G02*
X68340001Y-127140037I150000J0D01*
G01*
X69740001Y-127140037D01*
G75*
G02*
X69890001Y-127290037I0J-150000D01*
G01*
X69890001Y-127590037D01*
G75*
G02*
X69740001Y-127740037I-150000J0D01*
G01*
G37*
G36*
G01*
X69740001Y-126490037D02*
X68340001Y-126490037D01*
G75*
G02*
X68190001Y-126340037I0J150000D01*
G01*
X68190001Y-126040037D01*
G75*
G02*
X68340001Y-125890037I150000J0D01*
G01*
X69740001Y-125890037D01*
G75*
G02*
X69890001Y-126040037I0J-150000D01*
G01*
X69890001Y-126340037D01*
G75*
G02*
X69740001Y-126490037I-150000J0D01*
G01*
G37*
G36*
G01*
X69740001Y-125240037D02*
X68340001Y-125240037D01*
G75*
G02*
X68190001Y-125090037I0J150000D01*
G01*
X68190001Y-124790037D01*
G75*
G02*
X68340001Y-124640037I150000J0D01*
G01*
X69740001Y-124640037D01*
G75*
G02*
X69890001Y-124790037I0J-150000D01*
G01*
X69890001Y-125090037D01*
G75*
G02*
X69740001Y-125240037I-150000J0D01*
G01*
G37*
G36*
G01*
X73340001Y-129790037D02*
X71140001Y-129790037D01*
G75*
G02*
X70890001Y-129540037I0J250000D01*
G01*
X70890001Y-129040037D01*
G75*
G02*
X71140001Y-128790037I250000J0D01*
G01*
X73340001Y-128790037D01*
G75*
G02*
X73590001Y-129040037I0J-250000D01*
G01*
X73590001Y-129540037D01*
G75*
G02*
X73340001Y-129790037I-250000J0D01*
G01*
G37*
G36*
G01*
X73340001Y-123590037D02*
X71140001Y-123590037D01*
G75*
G02*
X70890001Y-123340037I0J250000D01*
G01*
X70890001Y-122840037D01*
G75*
G02*
X71140001Y-122590037I250000J0D01*
G01*
X73340001Y-122590037D01*
G75*
G02*
X73590001Y-122840037I0J-250000D01*
G01*
X73590001Y-123340037D01*
G75*
G02*
X73340001Y-123590037I-250000J0D01*
G01*
G37*
G36*
G01*
X68627001Y-137514037D02*
X68327001Y-137514037D01*
G75*
G02*
X68177001Y-137364037I0J150000D01*
G01*
X68177001Y-135914037D01*
G75*
G02*
X68327001Y-135764037I150000J0D01*
G01*
X68627001Y-135764037D01*
G75*
G02*
X68777001Y-135914037I0J-150000D01*
G01*
X68777001Y-137364037D01*
G75*
G02*
X68627001Y-137514037I-150000J0D01*
G01*
G37*
G36*
G01*
X69897001Y-137514037D02*
X69597001Y-137514037D01*
G75*
G02*
X69447001Y-137364037I0J150000D01*
G01*
X69447001Y-135914037D01*
G75*
G02*
X69597001Y-135764037I150000J0D01*
G01*
X69897001Y-135764037D01*
G75*
G02*
X70047001Y-135914037I0J-150000D01*
G01*
X70047001Y-137364037D01*
G75*
G02*
X69897001Y-137514037I-150000J0D01*
G01*
G37*
G36*
G01*
X71167001Y-137514037D02*
X70867001Y-137514037D01*
G75*
G02*
X70717001Y-137364037I0J150000D01*
G01*
X70717001Y-135914037D01*
G75*
G02*
X70867001Y-135764037I150000J0D01*
G01*
X71167001Y-135764037D01*
G75*
G02*
X71317001Y-135914037I0J-150000D01*
G01*
X71317001Y-137364037D01*
G75*
G02*
X71167001Y-137514037I-150000J0D01*
G01*
G37*
G36*
G01*
X72437001Y-137514037D02*
X72137001Y-137514037D01*
G75*
G02*
X71987001Y-137364037I0J150000D01*
G01*
X71987001Y-135914037D01*
G75*
G02*
X72137001Y-135764037I150000J0D01*
G01*
X72437001Y-135764037D01*
G75*
G02*
X72587001Y-135914037I0J-150000D01*
G01*
X72587001Y-137364037D01*
G75*
G02*
X72437001Y-137514037I-150000J0D01*
G01*
G37*
G36*
G01*
X72437001Y-132364037D02*
X72137001Y-132364037D01*
G75*
G02*
X71987001Y-132214037I0J150000D01*
G01*
X71987001Y-130764037D01*
G75*
G02*
X72137001Y-130614037I150000J0D01*
G01*
X72437001Y-130614037D01*
G75*
G02*
X72587001Y-130764037I0J-150000D01*
G01*
X72587001Y-132214037D01*
G75*
G02*
X72437001Y-132364037I-150000J0D01*
G01*
G37*
G36*
G01*
X71167001Y-132364037D02*
X70867001Y-132364037D01*
G75*
G02*
X70717001Y-132214037I0J150000D01*
G01*
X70717001Y-130764037D01*
G75*
G02*
X70867001Y-130614037I150000J0D01*
G01*
X71167001Y-130614037D01*
G75*
G02*
X71317001Y-130764037I0J-150000D01*
G01*
X71317001Y-132214037D01*
G75*
G02*
X71167001Y-132364037I-150000J0D01*
G01*
G37*
G36*
G01*
X69897001Y-132364037D02*
X69597001Y-132364037D01*
G75*
G02*
X69447001Y-132214037I0J150000D01*
G01*
X69447001Y-130764037D01*
G75*
G02*
X69597001Y-130614037I150000J0D01*
G01*
X69897001Y-130614037D01*
G75*
G02*
X70047001Y-130764037I0J-150000D01*
G01*
X70047001Y-132214037D01*
G75*
G02*
X69897001Y-132364037I-150000J0D01*
G01*
G37*
G36*
G01*
X68627001Y-132364037D02*
X68327001Y-132364037D01*
G75*
G02*
X68177001Y-132214037I0J150000D01*
G01*
X68177001Y-130764037D01*
G75*
G02*
X68327001Y-130614037I150000J0D01*
G01*
X68627001Y-130614037D01*
G75*
G02*
X68777001Y-130764037I0J-150000D01*
G01*
X68777001Y-132214037D01*
G75*
G02*
X68627001Y-132364037I-150000J0D01*
G01*
G37*
G36*
G01*
X50803001Y-126235037D02*
X51353001Y-126235037D01*
G75*
G02*
X51553001Y-126435037I0J-200000D01*
G01*
X51553001Y-126835037D01*
G75*
G02*
X51353001Y-127035037I-200000J0D01*
G01*
X50803001Y-127035037D01*
G75*
G02*
X50603001Y-126835037I0J200000D01*
G01*
X50603001Y-126435037D01*
G75*
G02*
X50803001Y-126235037I200000J0D01*
G01*
G37*
G36*
G01*
X50803001Y-127885037D02*
X51353001Y-127885037D01*
G75*
G02*
X51553001Y-128085037I0J-200000D01*
G01*
X51553001Y-128485037D01*
G75*
G02*
X51353001Y-128685037I-200000J0D01*
G01*
X50803001Y-128685037D01*
G75*
G02*
X50603001Y-128485037I0J200000D01*
G01*
X50603001Y-128085037D01*
G75*
G02*
X50803001Y-127885037I200000J0D01*
G01*
G37*
G36*
G01*
X64368001Y-135592037D02*
X64368001Y-136092037D01*
G75*
G02*
X64143001Y-136317037I-225000J0D01*
G01*
X63693001Y-136317037D01*
G75*
G02*
X63468001Y-136092037I0J225000D01*
G01*
X63468001Y-135592037D01*
G75*
G02*
X63693001Y-135367037I225000J0D01*
G01*
X64143001Y-135367037D01*
G75*
G02*
X64368001Y-135592037I0J-225000D01*
G01*
G37*
G36*
G01*
X62818001Y-135592037D02*
X62818001Y-136092037D01*
G75*
G02*
X62593001Y-136317037I-225000J0D01*
G01*
X62143001Y-136317037D01*
G75*
G02*
X61918001Y-136092037I0J225000D01*
G01*
X61918001Y-135592037D01*
G75*
G02*
X62143001Y-135367037I225000J0D01*
G01*
X62593001Y-135367037D01*
G75*
G02*
X62818001Y-135592037I0J-225000D01*
G01*
G37*
G36*
G01*
X55417001Y-125383037D02*
X54867001Y-125383037D01*
G75*
G02*
X54667001Y-125183037I0J200000D01*
G01*
X54667001Y-124783037D01*
G75*
G02*
X54867001Y-124583037I200000J0D01*
G01*
X55417001Y-124583037D01*
G75*
G02*
X55617001Y-124783037I0J-200000D01*
G01*
X55617001Y-125183037D01*
G75*
G02*
X55417001Y-125383037I-200000J0D01*
G01*
G37*
G36*
G01*
X55417001Y-123733037D02*
X54867001Y-123733037D01*
G75*
G02*
X54667001Y-123533037I0J200000D01*
G01*
X54667001Y-123133037D01*
G75*
G02*
X54867001Y-122933037I200000J0D01*
G01*
X55417001Y-122933037D01*
G75*
G02*
X55617001Y-123133037I0J-200000D01*
G01*
X55617001Y-123533037D01*
G75*
G02*
X55417001Y-123733037I-200000J0D01*
G01*
G37*
D10*
X129144028Y-107158028D03*
X131044028Y-107158028D03*
X130094028Y-105158028D03*
D11*
X130602028Y-108760028D03*
X130602028Y-110160028D03*
D12*
X137649028Y-117842028D03*
X139049028Y-117842028D03*
G36*
G01*
X132260028Y-114260028D02*
X133660028Y-114260028D01*
G75*
G02*
X133810028Y-114410028I0J-150000D01*
G01*
X133810028Y-114710028D01*
G75*
G02*
X133660028Y-114860028I-150000J0D01*
G01*
X132260028Y-114860028D01*
G75*
G02*
X132110028Y-114710028I0J150000D01*
G01*
X132110028Y-114410028D01*
G75*
G02*
X132260028Y-114260028I150000J0D01*
G01*
G37*
G36*
G01*
X132260028Y-115510028D02*
X133660028Y-115510028D01*
G75*
G02*
X133810028Y-115660028I0J-150000D01*
G01*
X133810028Y-115960028D01*
G75*
G02*
X133660028Y-116110028I-150000J0D01*
G01*
X132260028Y-116110028D01*
G75*
G02*
X132110028Y-115960028I0J150000D01*
G01*
X132110028Y-115660028D01*
G75*
G02*
X132260028Y-115510028I150000J0D01*
G01*
G37*
G36*
G01*
X132260028Y-116760028D02*
X133660028Y-116760028D01*
G75*
G02*
X133810028Y-116910028I0J-150000D01*
G01*
X133810028Y-117210028D01*
G75*
G02*
X133660028Y-117360028I-150000J0D01*
G01*
X132260028Y-117360028D01*
G75*
G02*
X132110028Y-117210028I0J150000D01*
G01*
X132110028Y-116910028D01*
G75*
G02*
X132260028Y-116760028I150000J0D01*
G01*
G37*
G36*
G01*
X128660028Y-112210028D02*
X130860028Y-112210028D01*
G75*
G02*
X131110028Y-112460028I0J-250000D01*
G01*
X131110028Y-112960028D01*
G75*
G02*
X130860028Y-113210028I-250000J0D01*
G01*
X128660028Y-113210028D01*
G75*
G02*
X128410028Y-112960028I0J250000D01*
G01*
X128410028Y-112460028D01*
G75*
G02*
X128660028Y-112210028I250000J0D01*
G01*
G37*
G36*
G01*
X128660028Y-118410028D02*
X130860028Y-118410028D01*
G75*
G02*
X131110028Y-118660028I0J-250000D01*
G01*
X131110028Y-119160028D01*
G75*
G02*
X130860028Y-119410028I-250000J0D01*
G01*
X128660028Y-119410028D01*
G75*
G02*
X128410028Y-119160028I0J250000D01*
G01*
X128410028Y-118660028D01*
G75*
G02*
X128660028Y-118410028I250000J0D01*
G01*
G37*
G36*
G01*
X147740028Y-109740028D02*
X146340028Y-109740028D01*
G75*
G02*
X146190028Y-109590028I0J150000D01*
G01*
X146190028Y-109290028D01*
G75*
G02*
X146340028Y-109140028I150000J0D01*
G01*
X147740028Y-109140028D01*
G75*
G02*
X147890028Y-109290028I0J-150000D01*
G01*
X147890028Y-109590028D01*
G75*
G02*
X147740028Y-109740028I-150000J0D01*
G01*
G37*
G36*
G01*
X147740028Y-108490028D02*
X146340028Y-108490028D01*
G75*
G02*
X146190028Y-108340028I0J150000D01*
G01*
X146190028Y-108040028D01*
G75*
G02*
X146340028Y-107890028I150000J0D01*
G01*
X147740028Y-107890028D01*
G75*
G02*
X147890028Y-108040028I0J-150000D01*
G01*
X147890028Y-108340028D01*
G75*
G02*
X147740028Y-108490028I-150000J0D01*
G01*
G37*
G36*
G01*
X147740028Y-107240028D02*
X146340028Y-107240028D01*
G75*
G02*
X146190028Y-107090028I0J150000D01*
G01*
X146190028Y-106790028D01*
G75*
G02*
X146340028Y-106640028I150000J0D01*
G01*
X147740028Y-106640028D01*
G75*
G02*
X147890028Y-106790028I0J-150000D01*
G01*
X147890028Y-107090028D01*
G75*
G02*
X147740028Y-107240028I-150000J0D01*
G01*
G37*
G36*
G01*
X151340028Y-111790028D02*
X149140028Y-111790028D01*
G75*
G02*
X148890028Y-111540028I0J250000D01*
G01*
X148890028Y-111040028D01*
G75*
G02*
X149140028Y-110790028I250000J0D01*
G01*
X151340028Y-110790028D01*
G75*
G02*
X151590028Y-111040028I0J-250000D01*
G01*
X151590028Y-111540028D01*
G75*
G02*
X151340028Y-111790028I-250000J0D01*
G01*
G37*
G36*
G01*
X151340028Y-105590028D02*
X149140028Y-105590028D01*
G75*
G02*
X148890028Y-105340028I0J250000D01*
G01*
X148890028Y-104840028D01*
G75*
G02*
X149140028Y-104590028I250000J0D01*
G01*
X151340028Y-104590028D01*
G75*
G02*
X151590028Y-104840028I0J-250000D01*
G01*
X151590028Y-105340028D01*
G75*
G02*
X151340028Y-105590028I-250000J0D01*
G01*
G37*
G36*
G01*
X146627028Y-119514028D02*
X146327028Y-119514028D01*
G75*
G02*
X146177028Y-119364028I0J150000D01*
G01*
X146177028Y-117914028D01*
G75*
G02*
X146327028Y-117764028I150000J0D01*
G01*
X146627028Y-117764028D01*
G75*
G02*
X146777028Y-117914028I0J-150000D01*
G01*
X146777028Y-119364028D01*
G75*
G02*
X146627028Y-119514028I-150000J0D01*
G01*
G37*
G36*
G01*
X147897028Y-119514028D02*
X147597028Y-119514028D01*
G75*
G02*
X147447028Y-119364028I0J150000D01*
G01*
X147447028Y-117914028D01*
G75*
G02*
X147597028Y-117764028I150000J0D01*
G01*
X147897028Y-117764028D01*
G75*
G02*
X148047028Y-117914028I0J-150000D01*
G01*
X148047028Y-119364028D01*
G75*
G02*
X147897028Y-119514028I-150000J0D01*
G01*
G37*
G36*
G01*
X149167028Y-119514028D02*
X148867028Y-119514028D01*
G75*
G02*
X148717028Y-119364028I0J150000D01*
G01*
X148717028Y-117914028D01*
G75*
G02*
X148867028Y-117764028I150000J0D01*
G01*
X149167028Y-117764028D01*
G75*
G02*
X149317028Y-117914028I0J-150000D01*
G01*
X149317028Y-119364028D01*
G75*
G02*
X149167028Y-119514028I-150000J0D01*
G01*
G37*
G36*
G01*
X150437028Y-119514028D02*
X150137028Y-119514028D01*
G75*
G02*
X149987028Y-119364028I0J150000D01*
G01*
X149987028Y-117914028D01*
G75*
G02*
X150137028Y-117764028I150000J0D01*
G01*
X150437028Y-117764028D01*
G75*
G02*
X150587028Y-117914028I0J-150000D01*
G01*
X150587028Y-119364028D01*
G75*
G02*
X150437028Y-119514028I-150000J0D01*
G01*
G37*
G36*
G01*
X150437028Y-114364028D02*
X150137028Y-114364028D01*
G75*
G02*
X149987028Y-114214028I0J150000D01*
G01*
X149987028Y-112764028D01*
G75*
G02*
X150137028Y-112614028I150000J0D01*
G01*
X150437028Y-112614028D01*
G75*
G02*
X150587028Y-112764028I0J-150000D01*
G01*
X150587028Y-114214028D01*
G75*
G02*
X150437028Y-114364028I-150000J0D01*
G01*
G37*
G36*
G01*
X149167028Y-114364028D02*
X148867028Y-114364028D01*
G75*
G02*
X148717028Y-114214028I0J150000D01*
G01*
X148717028Y-112764028D01*
G75*
G02*
X148867028Y-112614028I150000J0D01*
G01*
X149167028Y-112614028D01*
G75*
G02*
X149317028Y-112764028I0J-150000D01*
G01*
X149317028Y-114214028D01*
G75*
G02*
X149167028Y-114364028I-150000J0D01*
G01*
G37*
G36*
G01*
X147897028Y-114364028D02*
X147597028Y-114364028D01*
G75*
G02*
X147447028Y-114214028I0J150000D01*
G01*
X147447028Y-112764028D01*
G75*
G02*
X147597028Y-112614028I150000J0D01*
G01*
X147897028Y-112614028D01*
G75*
G02*
X148047028Y-112764028I0J-150000D01*
G01*
X148047028Y-114214028D01*
G75*
G02*
X147897028Y-114364028I-150000J0D01*
G01*
G37*
G36*
G01*
X146627028Y-114364028D02*
X146327028Y-114364028D01*
G75*
G02*
X146177028Y-114214028I0J150000D01*
G01*
X146177028Y-112764028D01*
G75*
G02*
X146327028Y-112614028I150000J0D01*
G01*
X146627028Y-112614028D01*
G75*
G02*
X146777028Y-112764028I0J-150000D01*
G01*
X146777028Y-114214028D01*
G75*
G02*
X146627028Y-114364028I-150000J0D01*
G01*
G37*
G36*
G01*
X128803028Y-108235028D02*
X129353028Y-108235028D01*
G75*
G02*
X129553028Y-108435028I0J-200000D01*
G01*
X129553028Y-108835028D01*
G75*
G02*
X129353028Y-109035028I-200000J0D01*
G01*
X128803028Y-109035028D01*
G75*
G02*
X128603028Y-108835028I0J200000D01*
G01*
X128603028Y-108435028D01*
G75*
G02*
X128803028Y-108235028I200000J0D01*
G01*
G37*
G36*
G01*
X128803028Y-109885028D02*
X129353028Y-109885028D01*
G75*
G02*
X129553028Y-110085028I0J-200000D01*
G01*
X129553028Y-110485028D01*
G75*
G02*
X129353028Y-110685028I-200000J0D01*
G01*
X128803028Y-110685028D01*
G75*
G02*
X128603028Y-110485028I0J200000D01*
G01*
X128603028Y-110085028D01*
G75*
G02*
X128803028Y-109885028I200000J0D01*
G01*
G37*
G36*
G01*
X142368028Y-117592028D02*
X142368028Y-118092028D01*
G75*
G02*
X142143028Y-118317028I-225000J0D01*
G01*
X141693028Y-118317028D01*
G75*
G02*
X141468028Y-118092028I0J225000D01*
G01*
X141468028Y-117592028D01*
G75*
G02*
X141693028Y-117367028I225000J0D01*
G01*
X142143028Y-117367028D01*
G75*
G02*
X142368028Y-117592028I0J-225000D01*
G01*
G37*
G36*
G01*
X140818028Y-117592028D02*
X140818028Y-118092028D01*
G75*
G02*
X140593028Y-118317028I-225000J0D01*
G01*
X140143028Y-118317028D01*
G75*
G02*
X139918028Y-118092028I0J225000D01*
G01*
X139918028Y-117592028D01*
G75*
G02*
X140143028Y-117367028I225000J0D01*
G01*
X140593028Y-117367028D01*
G75*
G02*
X140818028Y-117592028I0J-225000D01*
G01*
G37*
G36*
G01*
X133417028Y-107383028D02*
X132867028Y-107383028D01*
G75*
G02*
X132667028Y-107183028I0J200000D01*
G01*
X132667028Y-106783028D01*
G75*
G02*
X132867028Y-106583028I200000J0D01*
G01*
X133417028Y-106583028D01*
G75*
G02*
X133617028Y-106783028I0J-200000D01*
G01*
X133617028Y-107183028D01*
G75*
G02*
X133417028Y-107383028I-200000J0D01*
G01*
G37*
G36*
G01*
X133417028Y-105733028D02*
X132867028Y-105733028D01*
G75*
G02*
X132667028Y-105533028I0J200000D01*
G01*
X132667028Y-105133028D01*
G75*
G02*
X132867028Y-104933028I200000J0D01*
G01*
X133417028Y-104933028D01*
G75*
G02*
X133617028Y-105133028I0J-200000D01*
G01*
X133617028Y-105533028D01*
G75*
G02*
X133417028Y-105733028I-200000J0D01*
G01*
G37*
D10*
X103144019Y-107158028D03*
X105044019Y-107158028D03*
X104094019Y-105158028D03*
D11*
X104602019Y-108760028D03*
X104602019Y-110160028D03*
D12*
X111649019Y-117842028D03*
X113049019Y-117842028D03*
G36*
G01*
X106260019Y-114260028D02*
X107660019Y-114260028D01*
G75*
G02*
X107810019Y-114410028I0J-150000D01*
G01*
X107810019Y-114710028D01*
G75*
G02*
X107660019Y-114860028I-150000J0D01*
G01*
X106260019Y-114860028D01*
G75*
G02*
X106110019Y-114710028I0J150000D01*
G01*
X106110019Y-114410028D01*
G75*
G02*
X106260019Y-114260028I150000J0D01*
G01*
G37*
G36*
G01*
X106260019Y-115510028D02*
X107660019Y-115510028D01*
G75*
G02*
X107810019Y-115660028I0J-150000D01*
G01*
X107810019Y-115960028D01*
G75*
G02*
X107660019Y-116110028I-150000J0D01*
G01*
X106260019Y-116110028D01*
G75*
G02*
X106110019Y-115960028I0J150000D01*
G01*
X106110019Y-115660028D01*
G75*
G02*
X106260019Y-115510028I150000J0D01*
G01*
G37*
G36*
G01*
X106260019Y-116760028D02*
X107660019Y-116760028D01*
G75*
G02*
X107810019Y-116910028I0J-150000D01*
G01*
X107810019Y-117210028D01*
G75*
G02*
X107660019Y-117360028I-150000J0D01*
G01*
X106260019Y-117360028D01*
G75*
G02*
X106110019Y-117210028I0J150000D01*
G01*
X106110019Y-116910028D01*
G75*
G02*
X106260019Y-116760028I150000J0D01*
G01*
G37*
G36*
G01*
X102660019Y-112210028D02*
X104860019Y-112210028D01*
G75*
G02*
X105110019Y-112460028I0J-250000D01*
G01*
X105110019Y-112960028D01*
G75*
G02*
X104860019Y-113210028I-250000J0D01*
G01*
X102660019Y-113210028D01*
G75*
G02*
X102410019Y-112960028I0J250000D01*
G01*
X102410019Y-112460028D01*
G75*
G02*
X102660019Y-112210028I250000J0D01*
G01*
G37*
G36*
G01*
X102660019Y-118410028D02*
X104860019Y-118410028D01*
G75*
G02*
X105110019Y-118660028I0J-250000D01*
G01*
X105110019Y-119160028D01*
G75*
G02*
X104860019Y-119410028I-250000J0D01*
G01*
X102660019Y-119410028D01*
G75*
G02*
X102410019Y-119160028I0J250000D01*
G01*
X102410019Y-118660028D01*
G75*
G02*
X102660019Y-118410028I250000J0D01*
G01*
G37*
G36*
G01*
X121740019Y-109740028D02*
X120340019Y-109740028D01*
G75*
G02*
X120190019Y-109590028I0J150000D01*
G01*
X120190019Y-109290028D01*
G75*
G02*
X120340019Y-109140028I150000J0D01*
G01*
X121740019Y-109140028D01*
G75*
G02*
X121890019Y-109290028I0J-150000D01*
G01*
X121890019Y-109590028D01*
G75*
G02*
X121740019Y-109740028I-150000J0D01*
G01*
G37*
G36*
G01*
X121740019Y-108490028D02*
X120340019Y-108490028D01*
G75*
G02*
X120190019Y-108340028I0J150000D01*
G01*
X120190019Y-108040028D01*
G75*
G02*
X120340019Y-107890028I150000J0D01*
G01*
X121740019Y-107890028D01*
G75*
G02*
X121890019Y-108040028I0J-150000D01*
G01*
X121890019Y-108340028D01*
G75*
G02*
X121740019Y-108490028I-150000J0D01*
G01*
G37*
G36*
G01*
X121740019Y-107240028D02*
X120340019Y-107240028D01*
G75*
G02*
X120190019Y-107090028I0J150000D01*
G01*
X120190019Y-106790028D01*
G75*
G02*
X120340019Y-106640028I150000J0D01*
G01*
X121740019Y-106640028D01*
G75*
G02*
X121890019Y-106790028I0J-150000D01*
G01*
X121890019Y-107090028D01*
G75*
G02*
X121740019Y-107240028I-150000J0D01*
G01*
G37*
G36*
G01*
X125340019Y-111790028D02*
X123140019Y-111790028D01*
G75*
G02*
X122890019Y-111540028I0J250000D01*
G01*
X122890019Y-111040028D01*
G75*
G02*
X123140019Y-110790028I250000J0D01*
G01*
X125340019Y-110790028D01*
G75*
G02*
X125590019Y-111040028I0J-250000D01*
G01*
X125590019Y-111540028D01*
G75*
G02*
X125340019Y-111790028I-250000J0D01*
G01*
G37*
G36*
G01*
X125340019Y-105590028D02*
X123140019Y-105590028D01*
G75*
G02*
X122890019Y-105340028I0J250000D01*
G01*
X122890019Y-104840028D01*
G75*
G02*
X123140019Y-104590028I250000J0D01*
G01*
X125340019Y-104590028D01*
G75*
G02*
X125590019Y-104840028I0J-250000D01*
G01*
X125590019Y-105340028D01*
G75*
G02*
X125340019Y-105590028I-250000J0D01*
G01*
G37*
G36*
G01*
X120627019Y-119514028D02*
X120327019Y-119514028D01*
G75*
G02*
X120177019Y-119364028I0J150000D01*
G01*
X120177019Y-117914028D01*
G75*
G02*
X120327019Y-117764028I150000J0D01*
G01*
X120627019Y-117764028D01*
G75*
G02*
X120777019Y-117914028I0J-150000D01*
G01*
X120777019Y-119364028D01*
G75*
G02*
X120627019Y-119514028I-150000J0D01*
G01*
G37*
G36*
G01*
X121897019Y-119514028D02*
X121597019Y-119514028D01*
G75*
G02*
X121447019Y-119364028I0J150000D01*
G01*
X121447019Y-117914028D01*
G75*
G02*
X121597019Y-117764028I150000J0D01*
G01*
X121897019Y-117764028D01*
G75*
G02*
X122047019Y-117914028I0J-150000D01*
G01*
X122047019Y-119364028D01*
G75*
G02*
X121897019Y-119514028I-150000J0D01*
G01*
G37*
G36*
G01*
X123167019Y-119514028D02*
X122867019Y-119514028D01*
G75*
G02*
X122717019Y-119364028I0J150000D01*
G01*
X122717019Y-117914028D01*
G75*
G02*
X122867019Y-117764028I150000J0D01*
G01*
X123167019Y-117764028D01*
G75*
G02*
X123317019Y-117914028I0J-150000D01*
G01*
X123317019Y-119364028D01*
G75*
G02*
X123167019Y-119514028I-150000J0D01*
G01*
G37*
G36*
G01*
X124437019Y-119514028D02*
X124137019Y-119514028D01*
G75*
G02*
X123987019Y-119364028I0J150000D01*
G01*
X123987019Y-117914028D01*
G75*
G02*
X124137019Y-117764028I150000J0D01*
G01*
X124437019Y-117764028D01*
G75*
G02*
X124587019Y-117914028I0J-150000D01*
G01*
X124587019Y-119364028D01*
G75*
G02*
X124437019Y-119514028I-150000J0D01*
G01*
G37*
G36*
G01*
X124437019Y-114364028D02*
X124137019Y-114364028D01*
G75*
G02*
X123987019Y-114214028I0J150000D01*
G01*
X123987019Y-112764028D01*
G75*
G02*
X124137019Y-112614028I150000J0D01*
G01*
X124437019Y-112614028D01*
G75*
G02*
X124587019Y-112764028I0J-150000D01*
G01*
X124587019Y-114214028D01*
G75*
G02*
X124437019Y-114364028I-150000J0D01*
G01*
G37*
G36*
G01*
X123167019Y-114364028D02*
X122867019Y-114364028D01*
G75*
G02*
X122717019Y-114214028I0J150000D01*
G01*
X122717019Y-112764028D01*
G75*
G02*
X122867019Y-112614028I150000J0D01*
G01*
X123167019Y-112614028D01*
G75*
G02*
X123317019Y-112764028I0J-150000D01*
G01*
X123317019Y-114214028D01*
G75*
G02*
X123167019Y-114364028I-150000J0D01*
G01*
G37*
G36*
G01*
X121897019Y-114364028D02*
X121597019Y-114364028D01*
G75*
G02*
X121447019Y-114214028I0J150000D01*
G01*
X121447019Y-112764028D01*
G75*
G02*
X121597019Y-112614028I150000J0D01*
G01*
X121897019Y-112614028D01*
G75*
G02*
X122047019Y-112764028I0J-150000D01*
G01*
X122047019Y-114214028D01*
G75*
G02*
X121897019Y-114364028I-150000J0D01*
G01*
G37*
G36*
G01*
X120627019Y-114364028D02*
X120327019Y-114364028D01*
G75*
G02*
X120177019Y-114214028I0J150000D01*
G01*
X120177019Y-112764028D01*
G75*
G02*
X120327019Y-112614028I150000J0D01*
G01*
X120627019Y-112614028D01*
G75*
G02*
X120777019Y-112764028I0J-150000D01*
G01*
X120777019Y-114214028D01*
G75*
G02*
X120627019Y-114364028I-150000J0D01*
G01*
G37*
G36*
G01*
X102803019Y-108235028D02*
X103353019Y-108235028D01*
G75*
G02*
X103553019Y-108435028I0J-200000D01*
G01*
X103553019Y-108835028D01*
G75*
G02*
X103353019Y-109035028I-200000J0D01*
G01*
X102803019Y-109035028D01*
G75*
G02*
X102603019Y-108835028I0J200000D01*
G01*
X102603019Y-108435028D01*
G75*
G02*
X102803019Y-108235028I200000J0D01*
G01*
G37*
G36*
G01*
X102803019Y-109885028D02*
X103353019Y-109885028D01*
G75*
G02*
X103553019Y-110085028I0J-200000D01*
G01*
X103553019Y-110485028D01*
G75*
G02*
X103353019Y-110685028I-200000J0D01*
G01*
X102803019Y-110685028D01*
G75*
G02*
X102603019Y-110485028I0J200000D01*
G01*
X102603019Y-110085028D01*
G75*
G02*
X102803019Y-109885028I200000J0D01*
G01*
G37*
G36*
G01*
X116368019Y-117592028D02*
X116368019Y-118092028D01*
G75*
G02*
X116143019Y-118317028I-225000J0D01*
G01*
X115693019Y-118317028D01*
G75*
G02*
X115468019Y-118092028I0J225000D01*
G01*
X115468019Y-117592028D01*
G75*
G02*
X115693019Y-117367028I225000J0D01*
G01*
X116143019Y-117367028D01*
G75*
G02*
X116368019Y-117592028I0J-225000D01*
G01*
G37*
G36*
G01*
X114818019Y-117592028D02*
X114818019Y-118092028D01*
G75*
G02*
X114593019Y-118317028I-225000J0D01*
G01*
X114143019Y-118317028D01*
G75*
G02*
X113918019Y-118092028I0J225000D01*
G01*
X113918019Y-117592028D01*
G75*
G02*
X114143019Y-117367028I225000J0D01*
G01*
X114593019Y-117367028D01*
G75*
G02*
X114818019Y-117592028I0J-225000D01*
G01*
G37*
G36*
G01*
X107417019Y-107383028D02*
X106867019Y-107383028D01*
G75*
G02*
X106667019Y-107183028I0J200000D01*
G01*
X106667019Y-106783028D01*
G75*
G02*
X106867019Y-106583028I200000J0D01*
G01*
X107417019Y-106583028D01*
G75*
G02*
X107617019Y-106783028I0J-200000D01*
G01*
X107617019Y-107183028D01*
G75*
G02*
X107417019Y-107383028I-200000J0D01*
G01*
G37*
G36*
G01*
X107417019Y-105733028D02*
X106867019Y-105733028D01*
G75*
G02*
X106667019Y-105533028I0J200000D01*
G01*
X106667019Y-105133028D01*
G75*
G02*
X106867019Y-104933028I200000J0D01*
G01*
X107417019Y-104933028D01*
G75*
G02*
X107617019Y-105133028I0J-200000D01*
G01*
X107617019Y-105533028D01*
G75*
G02*
X107417019Y-105733028I-200000J0D01*
G01*
G37*
D10*
X77144010Y-107158028D03*
X79044010Y-107158028D03*
X78094010Y-105158028D03*
D11*
X78602010Y-108760028D03*
X78602010Y-110160028D03*
D12*
X85649010Y-117842028D03*
X87049010Y-117842028D03*
G36*
G01*
X80260010Y-114260028D02*
X81660010Y-114260028D01*
G75*
G02*
X81810010Y-114410028I0J-150000D01*
G01*
X81810010Y-114710028D01*
G75*
G02*
X81660010Y-114860028I-150000J0D01*
G01*
X80260010Y-114860028D01*
G75*
G02*
X80110010Y-114710028I0J150000D01*
G01*
X80110010Y-114410028D01*
G75*
G02*
X80260010Y-114260028I150000J0D01*
G01*
G37*
G36*
G01*
X80260010Y-115510028D02*
X81660010Y-115510028D01*
G75*
G02*
X81810010Y-115660028I0J-150000D01*
G01*
X81810010Y-115960028D01*
G75*
G02*
X81660010Y-116110028I-150000J0D01*
G01*
X80260010Y-116110028D01*
G75*
G02*
X80110010Y-115960028I0J150000D01*
G01*
X80110010Y-115660028D01*
G75*
G02*
X80260010Y-115510028I150000J0D01*
G01*
G37*
G36*
G01*
X80260010Y-116760028D02*
X81660010Y-116760028D01*
G75*
G02*
X81810010Y-116910028I0J-150000D01*
G01*
X81810010Y-117210028D01*
G75*
G02*
X81660010Y-117360028I-150000J0D01*
G01*
X80260010Y-117360028D01*
G75*
G02*
X80110010Y-117210028I0J150000D01*
G01*
X80110010Y-116910028D01*
G75*
G02*
X80260010Y-116760028I150000J0D01*
G01*
G37*
G36*
G01*
X76660010Y-112210028D02*
X78860010Y-112210028D01*
G75*
G02*
X79110010Y-112460028I0J-250000D01*
G01*
X79110010Y-112960028D01*
G75*
G02*
X78860010Y-113210028I-250000J0D01*
G01*
X76660010Y-113210028D01*
G75*
G02*
X76410010Y-112960028I0J250000D01*
G01*
X76410010Y-112460028D01*
G75*
G02*
X76660010Y-112210028I250000J0D01*
G01*
G37*
G36*
G01*
X76660010Y-118410028D02*
X78860010Y-118410028D01*
G75*
G02*
X79110010Y-118660028I0J-250000D01*
G01*
X79110010Y-119160028D01*
G75*
G02*
X78860010Y-119410028I-250000J0D01*
G01*
X76660010Y-119410028D01*
G75*
G02*
X76410010Y-119160028I0J250000D01*
G01*
X76410010Y-118660028D01*
G75*
G02*
X76660010Y-118410028I250000J0D01*
G01*
G37*
G36*
G01*
X95740010Y-109740028D02*
X94340010Y-109740028D01*
G75*
G02*
X94190010Y-109590028I0J150000D01*
G01*
X94190010Y-109290028D01*
G75*
G02*
X94340010Y-109140028I150000J0D01*
G01*
X95740010Y-109140028D01*
G75*
G02*
X95890010Y-109290028I0J-150000D01*
G01*
X95890010Y-109590028D01*
G75*
G02*
X95740010Y-109740028I-150000J0D01*
G01*
G37*
G36*
G01*
X95740010Y-108490028D02*
X94340010Y-108490028D01*
G75*
G02*
X94190010Y-108340028I0J150000D01*
G01*
X94190010Y-108040028D01*
G75*
G02*
X94340010Y-107890028I150000J0D01*
G01*
X95740010Y-107890028D01*
G75*
G02*
X95890010Y-108040028I0J-150000D01*
G01*
X95890010Y-108340028D01*
G75*
G02*
X95740010Y-108490028I-150000J0D01*
G01*
G37*
G36*
G01*
X95740010Y-107240028D02*
X94340010Y-107240028D01*
G75*
G02*
X94190010Y-107090028I0J150000D01*
G01*
X94190010Y-106790028D01*
G75*
G02*
X94340010Y-106640028I150000J0D01*
G01*
X95740010Y-106640028D01*
G75*
G02*
X95890010Y-106790028I0J-150000D01*
G01*
X95890010Y-107090028D01*
G75*
G02*
X95740010Y-107240028I-150000J0D01*
G01*
G37*
G36*
G01*
X99340010Y-111790028D02*
X97140010Y-111790028D01*
G75*
G02*
X96890010Y-111540028I0J250000D01*
G01*
X96890010Y-111040028D01*
G75*
G02*
X97140010Y-110790028I250000J0D01*
G01*
X99340010Y-110790028D01*
G75*
G02*
X99590010Y-111040028I0J-250000D01*
G01*
X99590010Y-111540028D01*
G75*
G02*
X99340010Y-111790028I-250000J0D01*
G01*
G37*
G36*
G01*
X99340010Y-105590028D02*
X97140010Y-105590028D01*
G75*
G02*
X96890010Y-105340028I0J250000D01*
G01*
X96890010Y-104840028D01*
G75*
G02*
X97140010Y-104590028I250000J0D01*
G01*
X99340010Y-104590028D01*
G75*
G02*
X99590010Y-104840028I0J-250000D01*
G01*
X99590010Y-105340028D01*
G75*
G02*
X99340010Y-105590028I-250000J0D01*
G01*
G37*
G36*
G01*
X94627010Y-119514028D02*
X94327010Y-119514028D01*
G75*
G02*
X94177010Y-119364028I0J150000D01*
G01*
X94177010Y-117914028D01*
G75*
G02*
X94327010Y-117764028I150000J0D01*
G01*
X94627010Y-117764028D01*
G75*
G02*
X94777010Y-117914028I0J-150000D01*
G01*
X94777010Y-119364028D01*
G75*
G02*
X94627010Y-119514028I-150000J0D01*
G01*
G37*
G36*
G01*
X95897010Y-119514028D02*
X95597010Y-119514028D01*
G75*
G02*
X95447010Y-119364028I0J150000D01*
G01*
X95447010Y-117914028D01*
G75*
G02*
X95597010Y-117764028I150000J0D01*
G01*
X95897010Y-117764028D01*
G75*
G02*
X96047010Y-117914028I0J-150000D01*
G01*
X96047010Y-119364028D01*
G75*
G02*
X95897010Y-119514028I-150000J0D01*
G01*
G37*
G36*
G01*
X97167010Y-119514028D02*
X96867010Y-119514028D01*
G75*
G02*
X96717010Y-119364028I0J150000D01*
G01*
X96717010Y-117914028D01*
G75*
G02*
X96867010Y-117764028I150000J0D01*
G01*
X97167010Y-117764028D01*
G75*
G02*
X97317010Y-117914028I0J-150000D01*
G01*
X97317010Y-119364028D01*
G75*
G02*
X97167010Y-119514028I-150000J0D01*
G01*
G37*
G36*
G01*
X98437010Y-119514028D02*
X98137010Y-119514028D01*
G75*
G02*
X97987010Y-119364028I0J150000D01*
G01*
X97987010Y-117914028D01*
G75*
G02*
X98137010Y-117764028I150000J0D01*
G01*
X98437010Y-117764028D01*
G75*
G02*
X98587010Y-117914028I0J-150000D01*
G01*
X98587010Y-119364028D01*
G75*
G02*
X98437010Y-119514028I-150000J0D01*
G01*
G37*
G36*
G01*
X98437010Y-114364028D02*
X98137010Y-114364028D01*
G75*
G02*
X97987010Y-114214028I0J150000D01*
G01*
X97987010Y-112764028D01*
G75*
G02*
X98137010Y-112614028I150000J0D01*
G01*
X98437010Y-112614028D01*
G75*
G02*
X98587010Y-112764028I0J-150000D01*
G01*
X98587010Y-114214028D01*
G75*
G02*
X98437010Y-114364028I-150000J0D01*
G01*
G37*
G36*
G01*
X97167010Y-114364028D02*
X96867010Y-114364028D01*
G75*
G02*
X96717010Y-114214028I0J150000D01*
G01*
X96717010Y-112764028D01*
G75*
G02*
X96867010Y-112614028I150000J0D01*
G01*
X97167010Y-112614028D01*
G75*
G02*
X97317010Y-112764028I0J-150000D01*
G01*
X97317010Y-114214028D01*
G75*
G02*
X97167010Y-114364028I-150000J0D01*
G01*
G37*
G36*
G01*
X95897010Y-114364028D02*
X95597010Y-114364028D01*
G75*
G02*
X95447010Y-114214028I0J150000D01*
G01*
X95447010Y-112764028D01*
G75*
G02*
X95597010Y-112614028I150000J0D01*
G01*
X95897010Y-112614028D01*
G75*
G02*
X96047010Y-112764028I0J-150000D01*
G01*
X96047010Y-114214028D01*
G75*
G02*
X95897010Y-114364028I-150000J0D01*
G01*
G37*
G36*
G01*
X94627010Y-114364028D02*
X94327010Y-114364028D01*
G75*
G02*
X94177010Y-114214028I0J150000D01*
G01*
X94177010Y-112764028D01*
G75*
G02*
X94327010Y-112614028I150000J0D01*
G01*
X94627010Y-112614028D01*
G75*
G02*
X94777010Y-112764028I0J-150000D01*
G01*
X94777010Y-114214028D01*
G75*
G02*
X94627010Y-114364028I-150000J0D01*
G01*
G37*
G36*
G01*
X76803010Y-108235028D02*
X77353010Y-108235028D01*
G75*
G02*
X77553010Y-108435028I0J-200000D01*
G01*
X77553010Y-108835028D01*
G75*
G02*
X77353010Y-109035028I-200000J0D01*
G01*
X76803010Y-109035028D01*
G75*
G02*
X76603010Y-108835028I0J200000D01*
G01*
X76603010Y-108435028D01*
G75*
G02*
X76803010Y-108235028I200000J0D01*
G01*
G37*
G36*
G01*
X76803010Y-109885028D02*
X77353010Y-109885028D01*
G75*
G02*
X77553010Y-110085028I0J-200000D01*
G01*
X77553010Y-110485028D01*
G75*
G02*
X77353010Y-110685028I-200000J0D01*
G01*
X76803010Y-110685028D01*
G75*
G02*
X76603010Y-110485028I0J200000D01*
G01*
X76603010Y-110085028D01*
G75*
G02*
X76803010Y-109885028I200000J0D01*
G01*
G37*
G36*
G01*
X90368010Y-117592028D02*
X90368010Y-118092028D01*
G75*
G02*
X90143010Y-118317028I-225000J0D01*
G01*
X89693010Y-118317028D01*
G75*
G02*
X89468010Y-118092028I0J225000D01*
G01*
X89468010Y-117592028D01*
G75*
G02*
X89693010Y-117367028I225000J0D01*
G01*
X90143010Y-117367028D01*
G75*
G02*
X90368010Y-117592028I0J-225000D01*
G01*
G37*
G36*
G01*
X88818010Y-117592028D02*
X88818010Y-118092028D01*
G75*
G02*
X88593010Y-118317028I-225000J0D01*
G01*
X88143010Y-118317028D01*
G75*
G02*
X87918010Y-118092028I0J225000D01*
G01*
X87918010Y-117592028D01*
G75*
G02*
X88143010Y-117367028I225000J0D01*
G01*
X88593010Y-117367028D01*
G75*
G02*
X88818010Y-117592028I0J-225000D01*
G01*
G37*
G36*
G01*
X81417010Y-107383028D02*
X80867010Y-107383028D01*
G75*
G02*
X80667010Y-107183028I0J200000D01*
G01*
X80667010Y-106783028D01*
G75*
G02*
X80867010Y-106583028I200000J0D01*
G01*
X81417010Y-106583028D01*
G75*
G02*
X81617010Y-106783028I0J-200000D01*
G01*
X81617010Y-107183028D01*
G75*
G02*
X81417010Y-107383028I-200000J0D01*
G01*
G37*
G36*
G01*
X81417010Y-105733028D02*
X80867010Y-105733028D01*
G75*
G02*
X80667010Y-105533028I0J200000D01*
G01*
X80667010Y-105133028D01*
G75*
G02*
X80867010Y-104933028I200000J0D01*
G01*
X81417010Y-104933028D01*
G75*
G02*
X81617010Y-105133028I0J-200000D01*
G01*
X81617010Y-105533028D01*
G75*
G02*
X81417010Y-105733028I-200000J0D01*
G01*
G37*
D10*
X51144001Y-107158028D03*
X53044001Y-107158028D03*
X52094001Y-105158028D03*
D11*
X52602001Y-108760028D03*
X52602001Y-110160028D03*
D12*
X59649001Y-117842028D03*
X61049001Y-117842028D03*
G36*
G01*
X54260001Y-114260028D02*
X55660001Y-114260028D01*
G75*
G02*
X55810001Y-114410028I0J-150000D01*
G01*
X55810001Y-114710028D01*
G75*
G02*
X55660001Y-114860028I-150000J0D01*
G01*
X54260001Y-114860028D01*
G75*
G02*
X54110001Y-114710028I0J150000D01*
G01*
X54110001Y-114410028D01*
G75*
G02*
X54260001Y-114260028I150000J0D01*
G01*
G37*
G36*
G01*
X54260001Y-115510028D02*
X55660001Y-115510028D01*
G75*
G02*
X55810001Y-115660028I0J-150000D01*
G01*
X55810001Y-115960028D01*
G75*
G02*
X55660001Y-116110028I-150000J0D01*
G01*
X54260001Y-116110028D01*
G75*
G02*
X54110001Y-115960028I0J150000D01*
G01*
X54110001Y-115660028D01*
G75*
G02*
X54260001Y-115510028I150000J0D01*
G01*
G37*
G36*
G01*
X54260001Y-116760028D02*
X55660001Y-116760028D01*
G75*
G02*
X55810001Y-116910028I0J-150000D01*
G01*
X55810001Y-117210028D01*
G75*
G02*
X55660001Y-117360028I-150000J0D01*
G01*
X54260001Y-117360028D01*
G75*
G02*
X54110001Y-117210028I0J150000D01*
G01*
X54110001Y-116910028D01*
G75*
G02*
X54260001Y-116760028I150000J0D01*
G01*
G37*
G36*
G01*
X50660001Y-112210028D02*
X52860001Y-112210028D01*
G75*
G02*
X53110001Y-112460028I0J-250000D01*
G01*
X53110001Y-112960028D01*
G75*
G02*
X52860001Y-113210028I-250000J0D01*
G01*
X50660001Y-113210028D01*
G75*
G02*
X50410001Y-112960028I0J250000D01*
G01*
X50410001Y-112460028D01*
G75*
G02*
X50660001Y-112210028I250000J0D01*
G01*
G37*
G36*
G01*
X50660001Y-118410028D02*
X52860001Y-118410028D01*
G75*
G02*
X53110001Y-118660028I0J-250000D01*
G01*
X53110001Y-119160028D01*
G75*
G02*
X52860001Y-119410028I-250000J0D01*
G01*
X50660001Y-119410028D01*
G75*
G02*
X50410001Y-119160028I0J250000D01*
G01*
X50410001Y-118660028D01*
G75*
G02*
X50660001Y-118410028I250000J0D01*
G01*
G37*
G36*
G01*
X69740001Y-109740028D02*
X68340001Y-109740028D01*
G75*
G02*
X68190001Y-109590028I0J150000D01*
G01*
X68190001Y-109290028D01*
G75*
G02*
X68340001Y-109140028I150000J0D01*
G01*
X69740001Y-109140028D01*
G75*
G02*
X69890001Y-109290028I0J-150000D01*
G01*
X69890001Y-109590028D01*
G75*
G02*
X69740001Y-109740028I-150000J0D01*
G01*
G37*
G36*
G01*
X69740001Y-108490028D02*
X68340001Y-108490028D01*
G75*
G02*
X68190001Y-108340028I0J150000D01*
G01*
X68190001Y-108040028D01*
G75*
G02*
X68340001Y-107890028I150000J0D01*
G01*
X69740001Y-107890028D01*
G75*
G02*
X69890001Y-108040028I0J-150000D01*
G01*
X69890001Y-108340028D01*
G75*
G02*
X69740001Y-108490028I-150000J0D01*
G01*
G37*
G36*
G01*
X69740001Y-107240028D02*
X68340001Y-107240028D01*
G75*
G02*
X68190001Y-107090028I0J150000D01*
G01*
X68190001Y-106790028D01*
G75*
G02*
X68340001Y-106640028I150000J0D01*
G01*
X69740001Y-106640028D01*
G75*
G02*
X69890001Y-106790028I0J-150000D01*
G01*
X69890001Y-107090028D01*
G75*
G02*
X69740001Y-107240028I-150000J0D01*
G01*
G37*
G36*
G01*
X73340001Y-111790028D02*
X71140001Y-111790028D01*
G75*
G02*
X70890001Y-111540028I0J250000D01*
G01*
X70890001Y-111040028D01*
G75*
G02*
X71140001Y-110790028I250000J0D01*
G01*
X73340001Y-110790028D01*
G75*
G02*
X73590001Y-111040028I0J-250000D01*
G01*
X73590001Y-111540028D01*
G75*
G02*
X73340001Y-111790028I-250000J0D01*
G01*
G37*
G36*
G01*
X73340001Y-105590028D02*
X71140001Y-105590028D01*
G75*
G02*
X70890001Y-105340028I0J250000D01*
G01*
X70890001Y-104840028D01*
G75*
G02*
X71140001Y-104590028I250000J0D01*
G01*
X73340001Y-104590028D01*
G75*
G02*
X73590001Y-104840028I0J-250000D01*
G01*
X73590001Y-105340028D01*
G75*
G02*
X73340001Y-105590028I-250000J0D01*
G01*
G37*
G36*
G01*
X68627001Y-119514028D02*
X68327001Y-119514028D01*
G75*
G02*
X68177001Y-119364028I0J150000D01*
G01*
X68177001Y-117914028D01*
G75*
G02*
X68327001Y-117764028I150000J0D01*
G01*
X68627001Y-117764028D01*
G75*
G02*
X68777001Y-117914028I0J-150000D01*
G01*
X68777001Y-119364028D01*
G75*
G02*
X68627001Y-119514028I-150000J0D01*
G01*
G37*
G36*
G01*
X69897001Y-119514028D02*
X69597001Y-119514028D01*
G75*
G02*
X69447001Y-119364028I0J150000D01*
G01*
X69447001Y-117914028D01*
G75*
G02*
X69597001Y-117764028I150000J0D01*
G01*
X69897001Y-117764028D01*
G75*
G02*
X70047001Y-117914028I0J-150000D01*
G01*
X70047001Y-119364028D01*
G75*
G02*
X69897001Y-119514028I-150000J0D01*
G01*
G37*
G36*
G01*
X71167001Y-119514028D02*
X70867001Y-119514028D01*
G75*
G02*
X70717001Y-119364028I0J150000D01*
G01*
X70717001Y-117914028D01*
G75*
G02*
X70867001Y-117764028I150000J0D01*
G01*
X71167001Y-117764028D01*
G75*
G02*
X71317001Y-117914028I0J-150000D01*
G01*
X71317001Y-119364028D01*
G75*
G02*
X71167001Y-119514028I-150000J0D01*
G01*
G37*
G36*
G01*
X72437001Y-119514028D02*
X72137001Y-119514028D01*
G75*
G02*
X71987001Y-119364028I0J150000D01*
G01*
X71987001Y-117914028D01*
G75*
G02*
X72137001Y-117764028I150000J0D01*
G01*
X72437001Y-117764028D01*
G75*
G02*
X72587001Y-117914028I0J-150000D01*
G01*
X72587001Y-119364028D01*
G75*
G02*
X72437001Y-119514028I-150000J0D01*
G01*
G37*
G36*
G01*
X72437001Y-114364028D02*
X72137001Y-114364028D01*
G75*
G02*
X71987001Y-114214028I0J150000D01*
G01*
X71987001Y-112764028D01*
G75*
G02*
X72137001Y-112614028I150000J0D01*
G01*
X72437001Y-112614028D01*
G75*
G02*
X72587001Y-112764028I0J-150000D01*
G01*
X72587001Y-114214028D01*
G75*
G02*
X72437001Y-114364028I-150000J0D01*
G01*
G37*
G36*
G01*
X71167001Y-114364028D02*
X70867001Y-114364028D01*
G75*
G02*
X70717001Y-114214028I0J150000D01*
G01*
X70717001Y-112764028D01*
G75*
G02*
X70867001Y-112614028I150000J0D01*
G01*
X71167001Y-112614028D01*
G75*
G02*
X71317001Y-112764028I0J-150000D01*
G01*
X71317001Y-114214028D01*
G75*
G02*
X71167001Y-114364028I-150000J0D01*
G01*
G37*
G36*
G01*
X69897001Y-114364028D02*
X69597001Y-114364028D01*
G75*
G02*
X69447001Y-114214028I0J150000D01*
G01*
X69447001Y-112764028D01*
G75*
G02*
X69597001Y-112614028I150000J0D01*
G01*
X69897001Y-112614028D01*
G75*
G02*
X70047001Y-112764028I0J-150000D01*
G01*
X70047001Y-114214028D01*
G75*
G02*
X69897001Y-114364028I-150000J0D01*
G01*
G37*
G36*
G01*
X68627001Y-114364028D02*
X68327001Y-114364028D01*
G75*
G02*
X68177001Y-114214028I0J150000D01*
G01*
X68177001Y-112764028D01*
G75*
G02*
X68327001Y-112614028I150000J0D01*
G01*
X68627001Y-112614028D01*
G75*
G02*
X68777001Y-112764028I0J-150000D01*
G01*
X68777001Y-114214028D01*
G75*
G02*
X68627001Y-114364028I-150000J0D01*
G01*
G37*
G36*
G01*
X50803001Y-108235028D02*
X51353001Y-108235028D01*
G75*
G02*
X51553001Y-108435028I0J-200000D01*
G01*
X51553001Y-108835028D01*
G75*
G02*
X51353001Y-109035028I-200000J0D01*
G01*
X50803001Y-109035028D01*
G75*
G02*
X50603001Y-108835028I0J200000D01*
G01*
X50603001Y-108435028D01*
G75*
G02*
X50803001Y-108235028I200000J0D01*
G01*
G37*
G36*
G01*
X50803001Y-109885028D02*
X51353001Y-109885028D01*
G75*
G02*
X51553001Y-110085028I0J-200000D01*
G01*
X51553001Y-110485028D01*
G75*
G02*
X51353001Y-110685028I-200000J0D01*
G01*
X50803001Y-110685028D01*
G75*
G02*
X50603001Y-110485028I0J200000D01*
G01*
X50603001Y-110085028D01*
G75*
G02*
X50803001Y-109885028I200000J0D01*
G01*
G37*
G36*
G01*
X64368001Y-117592028D02*
X64368001Y-118092028D01*
G75*
G02*
X64143001Y-118317028I-225000J0D01*
G01*
X63693001Y-118317028D01*
G75*
G02*
X63468001Y-118092028I0J225000D01*
G01*
X63468001Y-117592028D01*
G75*
G02*
X63693001Y-117367028I225000J0D01*
G01*
X64143001Y-117367028D01*
G75*
G02*
X64368001Y-117592028I0J-225000D01*
G01*
G37*
G36*
G01*
X62818001Y-117592028D02*
X62818001Y-118092028D01*
G75*
G02*
X62593001Y-118317028I-225000J0D01*
G01*
X62143001Y-118317028D01*
G75*
G02*
X61918001Y-118092028I0J225000D01*
G01*
X61918001Y-117592028D01*
G75*
G02*
X62143001Y-117367028I225000J0D01*
G01*
X62593001Y-117367028D01*
G75*
G02*
X62818001Y-117592028I0J-225000D01*
G01*
G37*
G36*
G01*
X55417001Y-107383028D02*
X54867001Y-107383028D01*
G75*
G02*
X54667001Y-107183028I0J200000D01*
G01*
X54667001Y-106783028D01*
G75*
G02*
X54867001Y-106583028I200000J0D01*
G01*
X55417001Y-106583028D01*
G75*
G02*
X55617001Y-106783028I0J-200000D01*
G01*
X55617001Y-107183028D01*
G75*
G02*
X55417001Y-107383028I-200000J0D01*
G01*
G37*
G36*
G01*
X55417001Y-105733028D02*
X54867001Y-105733028D01*
G75*
G02*
X54667001Y-105533028I0J200000D01*
G01*
X54667001Y-105133028D01*
G75*
G02*
X54867001Y-104933028I200000J0D01*
G01*
X55417001Y-104933028D01*
G75*
G02*
X55617001Y-105133028I0J-200000D01*
G01*
X55617001Y-105533028D01*
G75*
G02*
X55417001Y-105733028I-200000J0D01*
G01*
G37*
D10*
X129144028Y-89158019D03*
X131044028Y-89158019D03*
X130094028Y-87158019D03*
D11*
X130602028Y-90760019D03*
X130602028Y-92160019D03*
D12*
X137649028Y-99842019D03*
X139049028Y-99842019D03*
G36*
G01*
X132260028Y-96260019D02*
X133660028Y-96260019D01*
G75*
G02*
X133810028Y-96410019I0J-150000D01*
G01*
X133810028Y-96710019D01*
G75*
G02*
X133660028Y-96860019I-150000J0D01*
G01*
X132260028Y-96860019D01*
G75*
G02*
X132110028Y-96710019I0J150000D01*
G01*
X132110028Y-96410019D01*
G75*
G02*
X132260028Y-96260019I150000J0D01*
G01*
G37*
G36*
G01*
X132260028Y-97510019D02*
X133660028Y-97510019D01*
G75*
G02*
X133810028Y-97660019I0J-150000D01*
G01*
X133810028Y-97960019D01*
G75*
G02*
X133660028Y-98110019I-150000J0D01*
G01*
X132260028Y-98110019D01*
G75*
G02*
X132110028Y-97960019I0J150000D01*
G01*
X132110028Y-97660019D01*
G75*
G02*
X132260028Y-97510019I150000J0D01*
G01*
G37*
G36*
G01*
X132260028Y-98760019D02*
X133660028Y-98760019D01*
G75*
G02*
X133810028Y-98910019I0J-150000D01*
G01*
X133810028Y-99210019D01*
G75*
G02*
X133660028Y-99360019I-150000J0D01*
G01*
X132260028Y-99360019D01*
G75*
G02*
X132110028Y-99210019I0J150000D01*
G01*
X132110028Y-98910019D01*
G75*
G02*
X132260028Y-98760019I150000J0D01*
G01*
G37*
G36*
G01*
X128660028Y-94210019D02*
X130860028Y-94210019D01*
G75*
G02*
X131110028Y-94460019I0J-250000D01*
G01*
X131110028Y-94960019D01*
G75*
G02*
X130860028Y-95210019I-250000J0D01*
G01*
X128660028Y-95210019D01*
G75*
G02*
X128410028Y-94960019I0J250000D01*
G01*
X128410028Y-94460019D01*
G75*
G02*
X128660028Y-94210019I250000J0D01*
G01*
G37*
G36*
G01*
X128660028Y-100410019D02*
X130860028Y-100410019D01*
G75*
G02*
X131110028Y-100660019I0J-250000D01*
G01*
X131110028Y-101160019D01*
G75*
G02*
X130860028Y-101410019I-250000J0D01*
G01*
X128660028Y-101410019D01*
G75*
G02*
X128410028Y-101160019I0J250000D01*
G01*
X128410028Y-100660019D01*
G75*
G02*
X128660028Y-100410019I250000J0D01*
G01*
G37*
G36*
G01*
X147740028Y-91740019D02*
X146340028Y-91740019D01*
G75*
G02*
X146190028Y-91590019I0J150000D01*
G01*
X146190028Y-91290019D01*
G75*
G02*
X146340028Y-91140019I150000J0D01*
G01*
X147740028Y-91140019D01*
G75*
G02*
X147890028Y-91290019I0J-150000D01*
G01*
X147890028Y-91590019D01*
G75*
G02*
X147740028Y-91740019I-150000J0D01*
G01*
G37*
G36*
G01*
X147740028Y-90490019D02*
X146340028Y-90490019D01*
G75*
G02*
X146190028Y-90340019I0J150000D01*
G01*
X146190028Y-90040019D01*
G75*
G02*
X146340028Y-89890019I150000J0D01*
G01*
X147740028Y-89890019D01*
G75*
G02*
X147890028Y-90040019I0J-150000D01*
G01*
X147890028Y-90340019D01*
G75*
G02*
X147740028Y-90490019I-150000J0D01*
G01*
G37*
G36*
G01*
X147740028Y-89240019D02*
X146340028Y-89240019D01*
G75*
G02*
X146190028Y-89090019I0J150000D01*
G01*
X146190028Y-88790019D01*
G75*
G02*
X146340028Y-88640019I150000J0D01*
G01*
X147740028Y-88640019D01*
G75*
G02*
X147890028Y-88790019I0J-150000D01*
G01*
X147890028Y-89090019D01*
G75*
G02*
X147740028Y-89240019I-150000J0D01*
G01*
G37*
G36*
G01*
X151340028Y-93790019D02*
X149140028Y-93790019D01*
G75*
G02*
X148890028Y-93540019I0J250000D01*
G01*
X148890028Y-93040019D01*
G75*
G02*
X149140028Y-92790019I250000J0D01*
G01*
X151340028Y-92790019D01*
G75*
G02*
X151590028Y-93040019I0J-250000D01*
G01*
X151590028Y-93540019D01*
G75*
G02*
X151340028Y-93790019I-250000J0D01*
G01*
G37*
G36*
G01*
X151340028Y-87590019D02*
X149140028Y-87590019D01*
G75*
G02*
X148890028Y-87340019I0J250000D01*
G01*
X148890028Y-86840019D01*
G75*
G02*
X149140028Y-86590019I250000J0D01*
G01*
X151340028Y-86590019D01*
G75*
G02*
X151590028Y-86840019I0J-250000D01*
G01*
X151590028Y-87340019D01*
G75*
G02*
X151340028Y-87590019I-250000J0D01*
G01*
G37*
G36*
G01*
X146627028Y-101514019D02*
X146327028Y-101514019D01*
G75*
G02*
X146177028Y-101364019I0J150000D01*
G01*
X146177028Y-99914019D01*
G75*
G02*
X146327028Y-99764019I150000J0D01*
G01*
X146627028Y-99764019D01*
G75*
G02*
X146777028Y-99914019I0J-150000D01*
G01*
X146777028Y-101364019D01*
G75*
G02*
X146627028Y-101514019I-150000J0D01*
G01*
G37*
G36*
G01*
X147897028Y-101514019D02*
X147597028Y-101514019D01*
G75*
G02*
X147447028Y-101364019I0J150000D01*
G01*
X147447028Y-99914019D01*
G75*
G02*
X147597028Y-99764019I150000J0D01*
G01*
X147897028Y-99764019D01*
G75*
G02*
X148047028Y-99914019I0J-150000D01*
G01*
X148047028Y-101364019D01*
G75*
G02*
X147897028Y-101514019I-150000J0D01*
G01*
G37*
G36*
G01*
X149167028Y-101514019D02*
X148867028Y-101514019D01*
G75*
G02*
X148717028Y-101364019I0J150000D01*
G01*
X148717028Y-99914019D01*
G75*
G02*
X148867028Y-99764019I150000J0D01*
G01*
X149167028Y-99764019D01*
G75*
G02*
X149317028Y-99914019I0J-150000D01*
G01*
X149317028Y-101364019D01*
G75*
G02*
X149167028Y-101514019I-150000J0D01*
G01*
G37*
G36*
G01*
X150437028Y-101514019D02*
X150137028Y-101514019D01*
G75*
G02*
X149987028Y-101364019I0J150000D01*
G01*
X149987028Y-99914019D01*
G75*
G02*
X150137028Y-99764019I150000J0D01*
G01*
X150437028Y-99764019D01*
G75*
G02*
X150587028Y-99914019I0J-150000D01*
G01*
X150587028Y-101364019D01*
G75*
G02*
X150437028Y-101514019I-150000J0D01*
G01*
G37*
G36*
G01*
X150437028Y-96364019D02*
X150137028Y-96364019D01*
G75*
G02*
X149987028Y-96214019I0J150000D01*
G01*
X149987028Y-94764019D01*
G75*
G02*
X150137028Y-94614019I150000J0D01*
G01*
X150437028Y-94614019D01*
G75*
G02*
X150587028Y-94764019I0J-150000D01*
G01*
X150587028Y-96214019D01*
G75*
G02*
X150437028Y-96364019I-150000J0D01*
G01*
G37*
G36*
G01*
X149167028Y-96364019D02*
X148867028Y-96364019D01*
G75*
G02*
X148717028Y-96214019I0J150000D01*
G01*
X148717028Y-94764019D01*
G75*
G02*
X148867028Y-94614019I150000J0D01*
G01*
X149167028Y-94614019D01*
G75*
G02*
X149317028Y-94764019I0J-150000D01*
G01*
X149317028Y-96214019D01*
G75*
G02*
X149167028Y-96364019I-150000J0D01*
G01*
G37*
G36*
G01*
X147897028Y-96364019D02*
X147597028Y-96364019D01*
G75*
G02*
X147447028Y-96214019I0J150000D01*
G01*
X147447028Y-94764019D01*
G75*
G02*
X147597028Y-94614019I150000J0D01*
G01*
X147897028Y-94614019D01*
G75*
G02*
X148047028Y-94764019I0J-150000D01*
G01*
X148047028Y-96214019D01*
G75*
G02*
X147897028Y-96364019I-150000J0D01*
G01*
G37*
G36*
G01*
X146627028Y-96364019D02*
X146327028Y-96364019D01*
G75*
G02*
X146177028Y-96214019I0J150000D01*
G01*
X146177028Y-94764019D01*
G75*
G02*
X146327028Y-94614019I150000J0D01*
G01*
X146627028Y-94614019D01*
G75*
G02*
X146777028Y-94764019I0J-150000D01*
G01*
X146777028Y-96214019D01*
G75*
G02*
X146627028Y-96364019I-150000J0D01*
G01*
G37*
G36*
G01*
X128803028Y-90235019D02*
X129353028Y-90235019D01*
G75*
G02*
X129553028Y-90435019I0J-200000D01*
G01*
X129553028Y-90835019D01*
G75*
G02*
X129353028Y-91035019I-200000J0D01*
G01*
X128803028Y-91035019D01*
G75*
G02*
X128603028Y-90835019I0J200000D01*
G01*
X128603028Y-90435019D01*
G75*
G02*
X128803028Y-90235019I200000J0D01*
G01*
G37*
G36*
G01*
X128803028Y-91885019D02*
X129353028Y-91885019D01*
G75*
G02*
X129553028Y-92085019I0J-200000D01*
G01*
X129553028Y-92485019D01*
G75*
G02*
X129353028Y-92685019I-200000J0D01*
G01*
X128803028Y-92685019D01*
G75*
G02*
X128603028Y-92485019I0J200000D01*
G01*
X128603028Y-92085019D01*
G75*
G02*
X128803028Y-91885019I200000J0D01*
G01*
G37*
G36*
G01*
X142368028Y-99592019D02*
X142368028Y-100092019D01*
G75*
G02*
X142143028Y-100317019I-225000J0D01*
G01*
X141693028Y-100317019D01*
G75*
G02*
X141468028Y-100092019I0J225000D01*
G01*
X141468028Y-99592019D01*
G75*
G02*
X141693028Y-99367019I225000J0D01*
G01*
X142143028Y-99367019D01*
G75*
G02*
X142368028Y-99592019I0J-225000D01*
G01*
G37*
G36*
G01*
X140818028Y-99592019D02*
X140818028Y-100092019D01*
G75*
G02*
X140593028Y-100317019I-225000J0D01*
G01*
X140143028Y-100317019D01*
G75*
G02*
X139918028Y-100092019I0J225000D01*
G01*
X139918028Y-99592019D01*
G75*
G02*
X140143028Y-99367019I225000J0D01*
G01*
X140593028Y-99367019D01*
G75*
G02*
X140818028Y-99592019I0J-225000D01*
G01*
G37*
G36*
G01*
X133417028Y-89383019D02*
X132867028Y-89383019D01*
G75*
G02*
X132667028Y-89183019I0J200000D01*
G01*
X132667028Y-88783019D01*
G75*
G02*
X132867028Y-88583019I200000J0D01*
G01*
X133417028Y-88583019D01*
G75*
G02*
X133617028Y-88783019I0J-200000D01*
G01*
X133617028Y-89183019D01*
G75*
G02*
X133417028Y-89383019I-200000J0D01*
G01*
G37*
G36*
G01*
X133417028Y-87733019D02*
X132867028Y-87733019D01*
G75*
G02*
X132667028Y-87533019I0J200000D01*
G01*
X132667028Y-87133019D01*
G75*
G02*
X132867028Y-86933019I200000J0D01*
G01*
X133417028Y-86933019D01*
G75*
G02*
X133617028Y-87133019I0J-200000D01*
G01*
X133617028Y-87533019D01*
G75*
G02*
X133417028Y-87733019I-200000J0D01*
G01*
G37*
D10*
X103144019Y-89158019D03*
X105044019Y-89158019D03*
X104094019Y-87158019D03*
D11*
X104602019Y-90760019D03*
X104602019Y-92160019D03*
D12*
X111649019Y-99842019D03*
X113049019Y-99842019D03*
G36*
G01*
X106260019Y-96260019D02*
X107660019Y-96260019D01*
G75*
G02*
X107810019Y-96410019I0J-150000D01*
G01*
X107810019Y-96710019D01*
G75*
G02*
X107660019Y-96860019I-150000J0D01*
G01*
X106260019Y-96860019D01*
G75*
G02*
X106110019Y-96710019I0J150000D01*
G01*
X106110019Y-96410019D01*
G75*
G02*
X106260019Y-96260019I150000J0D01*
G01*
G37*
G36*
G01*
X106260019Y-97510019D02*
X107660019Y-97510019D01*
G75*
G02*
X107810019Y-97660019I0J-150000D01*
G01*
X107810019Y-97960019D01*
G75*
G02*
X107660019Y-98110019I-150000J0D01*
G01*
X106260019Y-98110019D01*
G75*
G02*
X106110019Y-97960019I0J150000D01*
G01*
X106110019Y-97660019D01*
G75*
G02*
X106260019Y-97510019I150000J0D01*
G01*
G37*
G36*
G01*
X106260019Y-98760019D02*
X107660019Y-98760019D01*
G75*
G02*
X107810019Y-98910019I0J-150000D01*
G01*
X107810019Y-99210019D01*
G75*
G02*
X107660019Y-99360019I-150000J0D01*
G01*
X106260019Y-99360019D01*
G75*
G02*
X106110019Y-99210019I0J150000D01*
G01*
X106110019Y-98910019D01*
G75*
G02*
X106260019Y-98760019I150000J0D01*
G01*
G37*
G36*
G01*
X102660019Y-94210019D02*
X104860019Y-94210019D01*
G75*
G02*
X105110019Y-94460019I0J-250000D01*
G01*
X105110019Y-94960019D01*
G75*
G02*
X104860019Y-95210019I-250000J0D01*
G01*
X102660019Y-95210019D01*
G75*
G02*
X102410019Y-94960019I0J250000D01*
G01*
X102410019Y-94460019D01*
G75*
G02*
X102660019Y-94210019I250000J0D01*
G01*
G37*
G36*
G01*
X102660019Y-100410019D02*
X104860019Y-100410019D01*
G75*
G02*
X105110019Y-100660019I0J-250000D01*
G01*
X105110019Y-101160019D01*
G75*
G02*
X104860019Y-101410019I-250000J0D01*
G01*
X102660019Y-101410019D01*
G75*
G02*
X102410019Y-101160019I0J250000D01*
G01*
X102410019Y-100660019D01*
G75*
G02*
X102660019Y-100410019I250000J0D01*
G01*
G37*
G36*
G01*
X121740019Y-91740019D02*
X120340019Y-91740019D01*
G75*
G02*
X120190019Y-91590019I0J150000D01*
G01*
X120190019Y-91290019D01*
G75*
G02*
X120340019Y-91140019I150000J0D01*
G01*
X121740019Y-91140019D01*
G75*
G02*
X121890019Y-91290019I0J-150000D01*
G01*
X121890019Y-91590019D01*
G75*
G02*
X121740019Y-91740019I-150000J0D01*
G01*
G37*
G36*
G01*
X121740019Y-90490019D02*
X120340019Y-90490019D01*
G75*
G02*
X120190019Y-90340019I0J150000D01*
G01*
X120190019Y-90040019D01*
G75*
G02*
X120340019Y-89890019I150000J0D01*
G01*
X121740019Y-89890019D01*
G75*
G02*
X121890019Y-90040019I0J-150000D01*
G01*
X121890019Y-90340019D01*
G75*
G02*
X121740019Y-90490019I-150000J0D01*
G01*
G37*
G36*
G01*
X121740019Y-89240019D02*
X120340019Y-89240019D01*
G75*
G02*
X120190019Y-89090019I0J150000D01*
G01*
X120190019Y-88790019D01*
G75*
G02*
X120340019Y-88640019I150000J0D01*
G01*
X121740019Y-88640019D01*
G75*
G02*
X121890019Y-88790019I0J-150000D01*
G01*
X121890019Y-89090019D01*
G75*
G02*
X121740019Y-89240019I-150000J0D01*
G01*
G37*
G36*
G01*
X125340019Y-93790019D02*
X123140019Y-93790019D01*
G75*
G02*
X122890019Y-93540019I0J250000D01*
G01*
X122890019Y-93040019D01*
G75*
G02*
X123140019Y-92790019I250000J0D01*
G01*
X125340019Y-92790019D01*
G75*
G02*
X125590019Y-93040019I0J-250000D01*
G01*
X125590019Y-93540019D01*
G75*
G02*
X125340019Y-93790019I-250000J0D01*
G01*
G37*
G36*
G01*
X125340019Y-87590019D02*
X123140019Y-87590019D01*
G75*
G02*
X122890019Y-87340019I0J250000D01*
G01*
X122890019Y-86840019D01*
G75*
G02*
X123140019Y-86590019I250000J0D01*
G01*
X125340019Y-86590019D01*
G75*
G02*
X125590019Y-86840019I0J-250000D01*
G01*
X125590019Y-87340019D01*
G75*
G02*
X125340019Y-87590019I-250000J0D01*
G01*
G37*
G36*
G01*
X120627019Y-101514019D02*
X120327019Y-101514019D01*
G75*
G02*
X120177019Y-101364019I0J150000D01*
G01*
X120177019Y-99914019D01*
G75*
G02*
X120327019Y-99764019I150000J0D01*
G01*
X120627019Y-99764019D01*
G75*
G02*
X120777019Y-99914019I0J-150000D01*
G01*
X120777019Y-101364019D01*
G75*
G02*
X120627019Y-101514019I-150000J0D01*
G01*
G37*
G36*
G01*
X121897019Y-101514019D02*
X121597019Y-101514019D01*
G75*
G02*
X121447019Y-101364019I0J150000D01*
G01*
X121447019Y-99914019D01*
G75*
G02*
X121597019Y-99764019I150000J0D01*
G01*
X121897019Y-99764019D01*
G75*
G02*
X122047019Y-99914019I0J-150000D01*
G01*
X122047019Y-101364019D01*
G75*
G02*
X121897019Y-101514019I-150000J0D01*
G01*
G37*
G36*
G01*
X123167019Y-101514019D02*
X122867019Y-101514019D01*
G75*
G02*
X122717019Y-101364019I0J150000D01*
G01*
X122717019Y-99914019D01*
G75*
G02*
X122867019Y-99764019I150000J0D01*
G01*
X123167019Y-99764019D01*
G75*
G02*
X123317019Y-99914019I0J-150000D01*
G01*
X123317019Y-101364019D01*
G75*
G02*
X123167019Y-101514019I-150000J0D01*
G01*
G37*
G36*
G01*
X124437019Y-101514019D02*
X124137019Y-101514019D01*
G75*
G02*
X123987019Y-101364019I0J150000D01*
G01*
X123987019Y-99914019D01*
G75*
G02*
X124137019Y-99764019I150000J0D01*
G01*
X124437019Y-99764019D01*
G75*
G02*
X124587019Y-99914019I0J-150000D01*
G01*
X124587019Y-101364019D01*
G75*
G02*
X124437019Y-101514019I-150000J0D01*
G01*
G37*
G36*
G01*
X124437019Y-96364019D02*
X124137019Y-96364019D01*
G75*
G02*
X123987019Y-96214019I0J150000D01*
G01*
X123987019Y-94764019D01*
G75*
G02*
X124137019Y-94614019I150000J0D01*
G01*
X124437019Y-94614019D01*
G75*
G02*
X124587019Y-94764019I0J-150000D01*
G01*
X124587019Y-96214019D01*
G75*
G02*
X124437019Y-96364019I-150000J0D01*
G01*
G37*
G36*
G01*
X123167019Y-96364019D02*
X122867019Y-96364019D01*
G75*
G02*
X122717019Y-96214019I0J150000D01*
G01*
X122717019Y-94764019D01*
G75*
G02*
X122867019Y-94614019I150000J0D01*
G01*
X123167019Y-94614019D01*
G75*
G02*
X123317019Y-94764019I0J-150000D01*
G01*
X123317019Y-96214019D01*
G75*
G02*
X123167019Y-96364019I-150000J0D01*
G01*
G37*
G36*
G01*
X121897019Y-96364019D02*
X121597019Y-96364019D01*
G75*
G02*
X121447019Y-96214019I0J150000D01*
G01*
X121447019Y-94764019D01*
G75*
G02*
X121597019Y-94614019I150000J0D01*
G01*
X121897019Y-94614019D01*
G75*
G02*
X122047019Y-94764019I0J-150000D01*
G01*
X122047019Y-96214019D01*
G75*
G02*
X121897019Y-96364019I-150000J0D01*
G01*
G37*
G36*
G01*
X120627019Y-96364019D02*
X120327019Y-96364019D01*
G75*
G02*
X120177019Y-96214019I0J150000D01*
G01*
X120177019Y-94764019D01*
G75*
G02*
X120327019Y-94614019I150000J0D01*
G01*
X120627019Y-94614019D01*
G75*
G02*
X120777019Y-94764019I0J-150000D01*
G01*
X120777019Y-96214019D01*
G75*
G02*
X120627019Y-96364019I-150000J0D01*
G01*
G37*
G36*
G01*
X102803019Y-90235019D02*
X103353019Y-90235019D01*
G75*
G02*
X103553019Y-90435019I0J-200000D01*
G01*
X103553019Y-90835019D01*
G75*
G02*
X103353019Y-91035019I-200000J0D01*
G01*
X102803019Y-91035019D01*
G75*
G02*
X102603019Y-90835019I0J200000D01*
G01*
X102603019Y-90435019D01*
G75*
G02*
X102803019Y-90235019I200000J0D01*
G01*
G37*
G36*
G01*
X102803019Y-91885019D02*
X103353019Y-91885019D01*
G75*
G02*
X103553019Y-92085019I0J-200000D01*
G01*
X103553019Y-92485019D01*
G75*
G02*
X103353019Y-92685019I-200000J0D01*
G01*
X102803019Y-92685019D01*
G75*
G02*
X102603019Y-92485019I0J200000D01*
G01*
X102603019Y-92085019D01*
G75*
G02*
X102803019Y-91885019I200000J0D01*
G01*
G37*
G36*
G01*
X116368019Y-99592019D02*
X116368019Y-100092019D01*
G75*
G02*
X116143019Y-100317019I-225000J0D01*
G01*
X115693019Y-100317019D01*
G75*
G02*
X115468019Y-100092019I0J225000D01*
G01*
X115468019Y-99592019D01*
G75*
G02*
X115693019Y-99367019I225000J0D01*
G01*
X116143019Y-99367019D01*
G75*
G02*
X116368019Y-99592019I0J-225000D01*
G01*
G37*
G36*
G01*
X114818019Y-99592019D02*
X114818019Y-100092019D01*
G75*
G02*
X114593019Y-100317019I-225000J0D01*
G01*
X114143019Y-100317019D01*
G75*
G02*
X113918019Y-100092019I0J225000D01*
G01*
X113918019Y-99592019D01*
G75*
G02*
X114143019Y-99367019I225000J0D01*
G01*
X114593019Y-99367019D01*
G75*
G02*
X114818019Y-99592019I0J-225000D01*
G01*
G37*
G36*
G01*
X107417019Y-89383019D02*
X106867019Y-89383019D01*
G75*
G02*
X106667019Y-89183019I0J200000D01*
G01*
X106667019Y-88783019D01*
G75*
G02*
X106867019Y-88583019I200000J0D01*
G01*
X107417019Y-88583019D01*
G75*
G02*
X107617019Y-88783019I0J-200000D01*
G01*
X107617019Y-89183019D01*
G75*
G02*
X107417019Y-89383019I-200000J0D01*
G01*
G37*
G36*
G01*
X107417019Y-87733019D02*
X106867019Y-87733019D01*
G75*
G02*
X106667019Y-87533019I0J200000D01*
G01*
X106667019Y-87133019D01*
G75*
G02*
X106867019Y-86933019I200000J0D01*
G01*
X107417019Y-86933019D01*
G75*
G02*
X107617019Y-87133019I0J-200000D01*
G01*
X107617019Y-87533019D01*
G75*
G02*
X107417019Y-87733019I-200000J0D01*
G01*
G37*
D10*
X77144010Y-89158019D03*
X79044010Y-89158019D03*
X78094010Y-87158019D03*
D11*
X78602010Y-90760019D03*
X78602010Y-92160019D03*
D12*
X85649010Y-99842019D03*
X87049010Y-99842019D03*
G36*
G01*
X80260010Y-96260019D02*
X81660010Y-96260019D01*
G75*
G02*
X81810010Y-96410019I0J-150000D01*
G01*
X81810010Y-96710019D01*
G75*
G02*
X81660010Y-96860019I-150000J0D01*
G01*
X80260010Y-96860019D01*
G75*
G02*
X80110010Y-96710019I0J150000D01*
G01*
X80110010Y-96410019D01*
G75*
G02*
X80260010Y-96260019I150000J0D01*
G01*
G37*
G36*
G01*
X80260010Y-97510019D02*
X81660010Y-97510019D01*
G75*
G02*
X81810010Y-97660019I0J-150000D01*
G01*
X81810010Y-97960019D01*
G75*
G02*
X81660010Y-98110019I-150000J0D01*
G01*
X80260010Y-98110019D01*
G75*
G02*
X80110010Y-97960019I0J150000D01*
G01*
X80110010Y-97660019D01*
G75*
G02*
X80260010Y-97510019I150000J0D01*
G01*
G37*
G36*
G01*
X80260010Y-98760019D02*
X81660010Y-98760019D01*
G75*
G02*
X81810010Y-98910019I0J-150000D01*
G01*
X81810010Y-99210019D01*
G75*
G02*
X81660010Y-99360019I-150000J0D01*
G01*
X80260010Y-99360019D01*
G75*
G02*
X80110010Y-99210019I0J150000D01*
G01*
X80110010Y-98910019D01*
G75*
G02*
X80260010Y-98760019I150000J0D01*
G01*
G37*
G36*
G01*
X76660010Y-94210019D02*
X78860010Y-94210019D01*
G75*
G02*
X79110010Y-94460019I0J-250000D01*
G01*
X79110010Y-94960019D01*
G75*
G02*
X78860010Y-95210019I-250000J0D01*
G01*
X76660010Y-95210019D01*
G75*
G02*
X76410010Y-94960019I0J250000D01*
G01*
X76410010Y-94460019D01*
G75*
G02*
X76660010Y-94210019I250000J0D01*
G01*
G37*
G36*
G01*
X76660010Y-100410019D02*
X78860010Y-100410019D01*
G75*
G02*
X79110010Y-100660019I0J-250000D01*
G01*
X79110010Y-101160019D01*
G75*
G02*
X78860010Y-101410019I-250000J0D01*
G01*
X76660010Y-101410019D01*
G75*
G02*
X76410010Y-101160019I0J250000D01*
G01*
X76410010Y-100660019D01*
G75*
G02*
X76660010Y-100410019I250000J0D01*
G01*
G37*
G36*
G01*
X95740010Y-91740019D02*
X94340010Y-91740019D01*
G75*
G02*
X94190010Y-91590019I0J150000D01*
G01*
X94190010Y-91290019D01*
G75*
G02*
X94340010Y-91140019I150000J0D01*
G01*
X95740010Y-91140019D01*
G75*
G02*
X95890010Y-91290019I0J-150000D01*
G01*
X95890010Y-91590019D01*
G75*
G02*
X95740010Y-91740019I-150000J0D01*
G01*
G37*
G36*
G01*
X95740010Y-90490019D02*
X94340010Y-90490019D01*
G75*
G02*
X94190010Y-90340019I0J150000D01*
G01*
X94190010Y-90040019D01*
G75*
G02*
X94340010Y-89890019I150000J0D01*
G01*
X95740010Y-89890019D01*
G75*
G02*
X95890010Y-90040019I0J-150000D01*
G01*
X95890010Y-90340019D01*
G75*
G02*
X95740010Y-90490019I-150000J0D01*
G01*
G37*
G36*
G01*
X95740010Y-89240019D02*
X94340010Y-89240019D01*
G75*
G02*
X94190010Y-89090019I0J150000D01*
G01*
X94190010Y-88790019D01*
G75*
G02*
X94340010Y-88640019I150000J0D01*
G01*
X95740010Y-88640019D01*
G75*
G02*
X95890010Y-88790019I0J-150000D01*
G01*
X95890010Y-89090019D01*
G75*
G02*
X95740010Y-89240019I-150000J0D01*
G01*
G37*
G36*
G01*
X99340010Y-93790019D02*
X97140010Y-93790019D01*
G75*
G02*
X96890010Y-93540019I0J250000D01*
G01*
X96890010Y-93040019D01*
G75*
G02*
X97140010Y-92790019I250000J0D01*
G01*
X99340010Y-92790019D01*
G75*
G02*
X99590010Y-93040019I0J-250000D01*
G01*
X99590010Y-93540019D01*
G75*
G02*
X99340010Y-93790019I-250000J0D01*
G01*
G37*
G36*
G01*
X99340010Y-87590019D02*
X97140010Y-87590019D01*
G75*
G02*
X96890010Y-87340019I0J250000D01*
G01*
X96890010Y-86840019D01*
G75*
G02*
X97140010Y-86590019I250000J0D01*
G01*
X99340010Y-86590019D01*
G75*
G02*
X99590010Y-86840019I0J-250000D01*
G01*
X99590010Y-87340019D01*
G75*
G02*
X99340010Y-87590019I-250000J0D01*
G01*
G37*
G36*
G01*
X94627010Y-101514019D02*
X94327010Y-101514019D01*
G75*
G02*
X94177010Y-101364019I0J150000D01*
G01*
X94177010Y-99914019D01*
G75*
G02*
X94327010Y-99764019I150000J0D01*
G01*
X94627010Y-99764019D01*
G75*
G02*
X94777010Y-99914019I0J-150000D01*
G01*
X94777010Y-101364019D01*
G75*
G02*
X94627010Y-101514019I-150000J0D01*
G01*
G37*
G36*
G01*
X95897010Y-101514019D02*
X95597010Y-101514019D01*
G75*
G02*
X95447010Y-101364019I0J150000D01*
G01*
X95447010Y-99914019D01*
G75*
G02*
X95597010Y-99764019I150000J0D01*
G01*
X95897010Y-99764019D01*
G75*
G02*
X96047010Y-99914019I0J-150000D01*
G01*
X96047010Y-101364019D01*
G75*
G02*
X95897010Y-101514019I-150000J0D01*
G01*
G37*
G36*
G01*
X97167010Y-101514019D02*
X96867010Y-101514019D01*
G75*
G02*
X96717010Y-101364019I0J150000D01*
G01*
X96717010Y-99914019D01*
G75*
G02*
X96867010Y-99764019I150000J0D01*
G01*
X97167010Y-99764019D01*
G75*
G02*
X97317010Y-99914019I0J-150000D01*
G01*
X97317010Y-101364019D01*
G75*
G02*
X97167010Y-101514019I-150000J0D01*
G01*
G37*
G36*
G01*
X98437010Y-101514019D02*
X98137010Y-101514019D01*
G75*
G02*
X97987010Y-101364019I0J150000D01*
G01*
X97987010Y-99914019D01*
G75*
G02*
X98137010Y-99764019I150000J0D01*
G01*
X98437010Y-99764019D01*
G75*
G02*
X98587010Y-99914019I0J-150000D01*
G01*
X98587010Y-101364019D01*
G75*
G02*
X98437010Y-101514019I-150000J0D01*
G01*
G37*
G36*
G01*
X98437010Y-96364019D02*
X98137010Y-96364019D01*
G75*
G02*
X97987010Y-96214019I0J150000D01*
G01*
X97987010Y-94764019D01*
G75*
G02*
X98137010Y-94614019I150000J0D01*
G01*
X98437010Y-94614019D01*
G75*
G02*
X98587010Y-94764019I0J-150000D01*
G01*
X98587010Y-96214019D01*
G75*
G02*
X98437010Y-96364019I-150000J0D01*
G01*
G37*
G36*
G01*
X97167010Y-96364019D02*
X96867010Y-96364019D01*
G75*
G02*
X96717010Y-96214019I0J150000D01*
G01*
X96717010Y-94764019D01*
G75*
G02*
X96867010Y-94614019I150000J0D01*
G01*
X97167010Y-94614019D01*
G75*
G02*
X97317010Y-94764019I0J-150000D01*
G01*
X97317010Y-96214019D01*
G75*
G02*
X97167010Y-96364019I-150000J0D01*
G01*
G37*
G36*
G01*
X95897010Y-96364019D02*
X95597010Y-96364019D01*
G75*
G02*
X95447010Y-96214019I0J150000D01*
G01*
X95447010Y-94764019D01*
G75*
G02*
X95597010Y-94614019I150000J0D01*
G01*
X95897010Y-94614019D01*
G75*
G02*
X96047010Y-94764019I0J-150000D01*
G01*
X96047010Y-96214019D01*
G75*
G02*
X95897010Y-96364019I-150000J0D01*
G01*
G37*
G36*
G01*
X94627010Y-96364019D02*
X94327010Y-96364019D01*
G75*
G02*
X94177010Y-96214019I0J150000D01*
G01*
X94177010Y-94764019D01*
G75*
G02*
X94327010Y-94614019I150000J0D01*
G01*
X94627010Y-94614019D01*
G75*
G02*
X94777010Y-94764019I0J-150000D01*
G01*
X94777010Y-96214019D01*
G75*
G02*
X94627010Y-96364019I-150000J0D01*
G01*
G37*
G36*
G01*
X76803010Y-90235019D02*
X77353010Y-90235019D01*
G75*
G02*
X77553010Y-90435019I0J-200000D01*
G01*
X77553010Y-90835019D01*
G75*
G02*
X77353010Y-91035019I-200000J0D01*
G01*
X76803010Y-91035019D01*
G75*
G02*
X76603010Y-90835019I0J200000D01*
G01*
X76603010Y-90435019D01*
G75*
G02*
X76803010Y-90235019I200000J0D01*
G01*
G37*
G36*
G01*
X76803010Y-91885019D02*
X77353010Y-91885019D01*
G75*
G02*
X77553010Y-92085019I0J-200000D01*
G01*
X77553010Y-92485019D01*
G75*
G02*
X77353010Y-92685019I-200000J0D01*
G01*
X76803010Y-92685019D01*
G75*
G02*
X76603010Y-92485019I0J200000D01*
G01*
X76603010Y-92085019D01*
G75*
G02*
X76803010Y-91885019I200000J0D01*
G01*
G37*
G36*
G01*
X90368010Y-99592019D02*
X90368010Y-100092019D01*
G75*
G02*
X90143010Y-100317019I-225000J0D01*
G01*
X89693010Y-100317019D01*
G75*
G02*
X89468010Y-100092019I0J225000D01*
G01*
X89468010Y-99592019D01*
G75*
G02*
X89693010Y-99367019I225000J0D01*
G01*
X90143010Y-99367019D01*
G75*
G02*
X90368010Y-99592019I0J-225000D01*
G01*
G37*
G36*
G01*
X88818010Y-99592019D02*
X88818010Y-100092019D01*
G75*
G02*
X88593010Y-100317019I-225000J0D01*
G01*
X88143010Y-100317019D01*
G75*
G02*
X87918010Y-100092019I0J225000D01*
G01*
X87918010Y-99592019D01*
G75*
G02*
X88143010Y-99367019I225000J0D01*
G01*
X88593010Y-99367019D01*
G75*
G02*
X88818010Y-99592019I0J-225000D01*
G01*
G37*
G36*
G01*
X81417010Y-89383019D02*
X80867010Y-89383019D01*
G75*
G02*
X80667010Y-89183019I0J200000D01*
G01*
X80667010Y-88783019D01*
G75*
G02*
X80867010Y-88583019I200000J0D01*
G01*
X81417010Y-88583019D01*
G75*
G02*
X81617010Y-88783019I0J-200000D01*
G01*
X81617010Y-89183019D01*
G75*
G02*
X81417010Y-89383019I-200000J0D01*
G01*
G37*
G36*
G01*
X81417010Y-87733019D02*
X80867010Y-87733019D01*
G75*
G02*
X80667010Y-87533019I0J200000D01*
G01*
X80667010Y-87133019D01*
G75*
G02*
X80867010Y-86933019I200000J0D01*
G01*
X81417010Y-86933019D01*
G75*
G02*
X81617010Y-87133019I0J-200000D01*
G01*
X81617010Y-87533019D01*
G75*
G02*
X81417010Y-87733019I-200000J0D01*
G01*
G37*
D10*
X51144001Y-89158019D03*
X53044001Y-89158019D03*
X52094001Y-87158019D03*
D11*
X52602001Y-90760019D03*
X52602001Y-92160019D03*
D12*
X59649001Y-99842019D03*
X61049001Y-99842019D03*
G36*
G01*
X54260001Y-96260019D02*
X55660001Y-96260019D01*
G75*
G02*
X55810001Y-96410019I0J-150000D01*
G01*
X55810001Y-96710019D01*
G75*
G02*
X55660001Y-96860019I-150000J0D01*
G01*
X54260001Y-96860019D01*
G75*
G02*
X54110001Y-96710019I0J150000D01*
G01*
X54110001Y-96410019D01*
G75*
G02*
X54260001Y-96260019I150000J0D01*
G01*
G37*
G36*
G01*
X54260001Y-97510019D02*
X55660001Y-97510019D01*
G75*
G02*
X55810001Y-97660019I0J-150000D01*
G01*
X55810001Y-97960019D01*
G75*
G02*
X55660001Y-98110019I-150000J0D01*
G01*
X54260001Y-98110019D01*
G75*
G02*
X54110001Y-97960019I0J150000D01*
G01*
X54110001Y-97660019D01*
G75*
G02*
X54260001Y-97510019I150000J0D01*
G01*
G37*
G36*
G01*
X54260001Y-98760019D02*
X55660001Y-98760019D01*
G75*
G02*
X55810001Y-98910019I0J-150000D01*
G01*
X55810001Y-99210019D01*
G75*
G02*
X55660001Y-99360019I-150000J0D01*
G01*
X54260001Y-99360019D01*
G75*
G02*
X54110001Y-99210019I0J150000D01*
G01*
X54110001Y-98910019D01*
G75*
G02*
X54260001Y-98760019I150000J0D01*
G01*
G37*
G36*
G01*
X50660001Y-94210019D02*
X52860001Y-94210019D01*
G75*
G02*
X53110001Y-94460019I0J-250000D01*
G01*
X53110001Y-94960019D01*
G75*
G02*
X52860001Y-95210019I-250000J0D01*
G01*
X50660001Y-95210019D01*
G75*
G02*
X50410001Y-94960019I0J250000D01*
G01*
X50410001Y-94460019D01*
G75*
G02*
X50660001Y-94210019I250000J0D01*
G01*
G37*
G36*
G01*
X50660001Y-100410019D02*
X52860001Y-100410019D01*
G75*
G02*
X53110001Y-100660019I0J-250000D01*
G01*
X53110001Y-101160019D01*
G75*
G02*
X52860001Y-101410019I-250000J0D01*
G01*
X50660001Y-101410019D01*
G75*
G02*
X50410001Y-101160019I0J250000D01*
G01*
X50410001Y-100660019D01*
G75*
G02*
X50660001Y-100410019I250000J0D01*
G01*
G37*
G36*
G01*
X69740001Y-91740019D02*
X68340001Y-91740019D01*
G75*
G02*
X68190001Y-91590019I0J150000D01*
G01*
X68190001Y-91290019D01*
G75*
G02*
X68340001Y-91140019I150000J0D01*
G01*
X69740001Y-91140019D01*
G75*
G02*
X69890001Y-91290019I0J-150000D01*
G01*
X69890001Y-91590019D01*
G75*
G02*
X69740001Y-91740019I-150000J0D01*
G01*
G37*
G36*
G01*
X69740001Y-90490019D02*
X68340001Y-90490019D01*
G75*
G02*
X68190001Y-90340019I0J150000D01*
G01*
X68190001Y-90040019D01*
G75*
G02*
X68340001Y-89890019I150000J0D01*
G01*
X69740001Y-89890019D01*
G75*
G02*
X69890001Y-90040019I0J-150000D01*
G01*
X69890001Y-90340019D01*
G75*
G02*
X69740001Y-90490019I-150000J0D01*
G01*
G37*
G36*
G01*
X69740001Y-89240019D02*
X68340001Y-89240019D01*
G75*
G02*
X68190001Y-89090019I0J150000D01*
G01*
X68190001Y-88790019D01*
G75*
G02*
X68340001Y-88640019I150000J0D01*
G01*
X69740001Y-88640019D01*
G75*
G02*
X69890001Y-88790019I0J-150000D01*
G01*
X69890001Y-89090019D01*
G75*
G02*
X69740001Y-89240019I-150000J0D01*
G01*
G37*
G36*
G01*
X73340001Y-93790019D02*
X71140001Y-93790019D01*
G75*
G02*
X70890001Y-93540019I0J250000D01*
G01*
X70890001Y-93040019D01*
G75*
G02*
X71140001Y-92790019I250000J0D01*
G01*
X73340001Y-92790019D01*
G75*
G02*
X73590001Y-93040019I0J-250000D01*
G01*
X73590001Y-93540019D01*
G75*
G02*
X73340001Y-93790019I-250000J0D01*
G01*
G37*
G36*
G01*
X73340001Y-87590019D02*
X71140001Y-87590019D01*
G75*
G02*
X70890001Y-87340019I0J250000D01*
G01*
X70890001Y-86840019D01*
G75*
G02*
X71140001Y-86590019I250000J0D01*
G01*
X73340001Y-86590019D01*
G75*
G02*
X73590001Y-86840019I0J-250000D01*
G01*
X73590001Y-87340019D01*
G75*
G02*
X73340001Y-87590019I-250000J0D01*
G01*
G37*
G36*
G01*
X68627001Y-101514019D02*
X68327001Y-101514019D01*
G75*
G02*
X68177001Y-101364019I0J150000D01*
G01*
X68177001Y-99914019D01*
G75*
G02*
X68327001Y-99764019I150000J0D01*
G01*
X68627001Y-99764019D01*
G75*
G02*
X68777001Y-99914019I0J-150000D01*
G01*
X68777001Y-101364019D01*
G75*
G02*
X68627001Y-101514019I-150000J0D01*
G01*
G37*
G36*
G01*
X69897001Y-101514019D02*
X69597001Y-101514019D01*
G75*
G02*
X69447001Y-101364019I0J150000D01*
G01*
X69447001Y-99914019D01*
G75*
G02*
X69597001Y-99764019I150000J0D01*
G01*
X69897001Y-99764019D01*
G75*
G02*
X70047001Y-99914019I0J-150000D01*
G01*
X70047001Y-101364019D01*
G75*
G02*
X69897001Y-101514019I-150000J0D01*
G01*
G37*
G36*
G01*
X71167001Y-101514019D02*
X70867001Y-101514019D01*
G75*
G02*
X70717001Y-101364019I0J150000D01*
G01*
X70717001Y-99914019D01*
G75*
G02*
X70867001Y-99764019I150000J0D01*
G01*
X71167001Y-99764019D01*
G75*
G02*
X71317001Y-99914019I0J-150000D01*
G01*
X71317001Y-101364019D01*
G75*
G02*
X71167001Y-101514019I-150000J0D01*
G01*
G37*
G36*
G01*
X72437001Y-101514019D02*
X72137001Y-101514019D01*
G75*
G02*
X71987001Y-101364019I0J150000D01*
G01*
X71987001Y-99914019D01*
G75*
G02*
X72137001Y-99764019I150000J0D01*
G01*
X72437001Y-99764019D01*
G75*
G02*
X72587001Y-99914019I0J-150000D01*
G01*
X72587001Y-101364019D01*
G75*
G02*
X72437001Y-101514019I-150000J0D01*
G01*
G37*
G36*
G01*
X72437001Y-96364019D02*
X72137001Y-96364019D01*
G75*
G02*
X71987001Y-96214019I0J150000D01*
G01*
X71987001Y-94764019D01*
G75*
G02*
X72137001Y-94614019I150000J0D01*
G01*
X72437001Y-94614019D01*
G75*
G02*
X72587001Y-94764019I0J-150000D01*
G01*
X72587001Y-96214019D01*
G75*
G02*
X72437001Y-96364019I-150000J0D01*
G01*
G37*
G36*
G01*
X71167001Y-96364019D02*
X70867001Y-96364019D01*
G75*
G02*
X70717001Y-96214019I0J150000D01*
G01*
X70717001Y-94764019D01*
G75*
G02*
X70867001Y-94614019I150000J0D01*
G01*
X71167001Y-94614019D01*
G75*
G02*
X71317001Y-94764019I0J-150000D01*
G01*
X71317001Y-96214019D01*
G75*
G02*
X71167001Y-96364019I-150000J0D01*
G01*
G37*
G36*
G01*
X69897001Y-96364019D02*
X69597001Y-96364019D01*
G75*
G02*
X69447001Y-96214019I0J150000D01*
G01*
X69447001Y-94764019D01*
G75*
G02*
X69597001Y-94614019I150000J0D01*
G01*
X69897001Y-94614019D01*
G75*
G02*
X70047001Y-94764019I0J-150000D01*
G01*
X70047001Y-96214019D01*
G75*
G02*
X69897001Y-96364019I-150000J0D01*
G01*
G37*
G36*
G01*
X68627001Y-96364019D02*
X68327001Y-96364019D01*
G75*
G02*
X68177001Y-96214019I0J150000D01*
G01*
X68177001Y-94764019D01*
G75*
G02*
X68327001Y-94614019I150000J0D01*
G01*
X68627001Y-94614019D01*
G75*
G02*
X68777001Y-94764019I0J-150000D01*
G01*
X68777001Y-96214019D01*
G75*
G02*
X68627001Y-96364019I-150000J0D01*
G01*
G37*
G36*
G01*
X50803001Y-90235019D02*
X51353001Y-90235019D01*
G75*
G02*
X51553001Y-90435019I0J-200000D01*
G01*
X51553001Y-90835019D01*
G75*
G02*
X51353001Y-91035019I-200000J0D01*
G01*
X50803001Y-91035019D01*
G75*
G02*
X50603001Y-90835019I0J200000D01*
G01*
X50603001Y-90435019D01*
G75*
G02*
X50803001Y-90235019I200000J0D01*
G01*
G37*
G36*
G01*
X50803001Y-91885019D02*
X51353001Y-91885019D01*
G75*
G02*
X51553001Y-92085019I0J-200000D01*
G01*
X51553001Y-92485019D01*
G75*
G02*
X51353001Y-92685019I-200000J0D01*
G01*
X50803001Y-92685019D01*
G75*
G02*
X50603001Y-92485019I0J200000D01*
G01*
X50603001Y-92085019D01*
G75*
G02*
X50803001Y-91885019I200000J0D01*
G01*
G37*
G36*
G01*
X64368001Y-99592019D02*
X64368001Y-100092019D01*
G75*
G02*
X64143001Y-100317019I-225000J0D01*
G01*
X63693001Y-100317019D01*
G75*
G02*
X63468001Y-100092019I0J225000D01*
G01*
X63468001Y-99592019D01*
G75*
G02*
X63693001Y-99367019I225000J0D01*
G01*
X64143001Y-99367019D01*
G75*
G02*
X64368001Y-99592019I0J-225000D01*
G01*
G37*
G36*
G01*
X62818001Y-99592019D02*
X62818001Y-100092019D01*
G75*
G02*
X62593001Y-100317019I-225000J0D01*
G01*
X62143001Y-100317019D01*
G75*
G02*
X61918001Y-100092019I0J225000D01*
G01*
X61918001Y-99592019D01*
G75*
G02*
X62143001Y-99367019I225000J0D01*
G01*
X62593001Y-99367019D01*
G75*
G02*
X62818001Y-99592019I0J-225000D01*
G01*
G37*
G36*
G01*
X55417001Y-89383019D02*
X54867001Y-89383019D01*
G75*
G02*
X54667001Y-89183019I0J200000D01*
G01*
X54667001Y-88783019D01*
G75*
G02*
X54867001Y-88583019I200000J0D01*
G01*
X55417001Y-88583019D01*
G75*
G02*
X55617001Y-88783019I0J-200000D01*
G01*
X55617001Y-89183019D01*
G75*
G02*
X55417001Y-89383019I-200000J0D01*
G01*
G37*
G36*
G01*
X55417001Y-87733019D02*
X54867001Y-87733019D01*
G75*
G02*
X54667001Y-87533019I0J200000D01*
G01*
X54667001Y-87133019D01*
G75*
G02*
X54867001Y-86933019I200000J0D01*
G01*
X55417001Y-86933019D01*
G75*
G02*
X55617001Y-87133019I0J-200000D01*
G01*
X55617001Y-87533019D01*
G75*
G02*
X55417001Y-87733019I-200000J0D01*
G01*
G37*
D10*
X129144028Y-71158010D03*
X131044028Y-71158010D03*
X130094028Y-69158010D03*
D11*
X130602028Y-72760010D03*
X130602028Y-74160010D03*
D12*
X137649028Y-81842010D03*
X139049028Y-81842010D03*
G36*
G01*
X132260028Y-78260010D02*
X133660028Y-78260010D01*
G75*
G02*
X133810028Y-78410010I0J-150000D01*
G01*
X133810028Y-78710010D01*
G75*
G02*
X133660028Y-78860010I-150000J0D01*
G01*
X132260028Y-78860010D01*
G75*
G02*
X132110028Y-78710010I0J150000D01*
G01*
X132110028Y-78410010D01*
G75*
G02*
X132260028Y-78260010I150000J0D01*
G01*
G37*
G36*
G01*
X132260028Y-79510010D02*
X133660028Y-79510010D01*
G75*
G02*
X133810028Y-79660010I0J-150000D01*
G01*
X133810028Y-79960010D01*
G75*
G02*
X133660028Y-80110010I-150000J0D01*
G01*
X132260028Y-80110010D01*
G75*
G02*
X132110028Y-79960010I0J150000D01*
G01*
X132110028Y-79660010D01*
G75*
G02*
X132260028Y-79510010I150000J0D01*
G01*
G37*
G36*
G01*
X132260028Y-80760010D02*
X133660028Y-80760010D01*
G75*
G02*
X133810028Y-80910010I0J-150000D01*
G01*
X133810028Y-81210010D01*
G75*
G02*
X133660028Y-81360010I-150000J0D01*
G01*
X132260028Y-81360010D01*
G75*
G02*
X132110028Y-81210010I0J150000D01*
G01*
X132110028Y-80910010D01*
G75*
G02*
X132260028Y-80760010I150000J0D01*
G01*
G37*
G36*
G01*
X128660028Y-76210010D02*
X130860028Y-76210010D01*
G75*
G02*
X131110028Y-76460010I0J-250000D01*
G01*
X131110028Y-76960010D01*
G75*
G02*
X130860028Y-77210010I-250000J0D01*
G01*
X128660028Y-77210010D01*
G75*
G02*
X128410028Y-76960010I0J250000D01*
G01*
X128410028Y-76460010D01*
G75*
G02*
X128660028Y-76210010I250000J0D01*
G01*
G37*
G36*
G01*
X128660028Y-82410010D02*
X130860028Y-82410010D01*
G75*
G02*
X131110028Y-82660010I0J-250000D01*
G01*
X131110028Y-83160010D01*
G75*
G02*
X130860028Y-83410010I-250000J0D01*
G01*
X128660028Y-83410010D01*
G75*
G02*
X128410028Y-83160010I0J250000D01*
G01*
X128410028Y-82660010D01*
G75*
G02*
X128660028Y-82410010I250000J0D01*
G01*
G37*
G36*
G01*
X147740028Y-73740010D02*
X146340028Y-73740010D01*
G75*
G02*
X146190028Y-73590010I0J150000D01*
G01*
X146190028Y-73290010D01*
G75*
G02*
X146340028Y-73140010I150000J0D01*
G01*
X147740028Y-73140010D01*
G75*
G02*
X147890028Y-73290010I0J-150000D01*
G01*
X147890028Y-73590010D01*
G75*
G02*
X147740028Y-73740010I-150000J0D01*
G01*
G37*
G36*
G01*
X147740028Y-72490010D02*
X146340028Y-72490010D01*
G75*
G02*
X146190028Y-72340010I0J150000D01*
G01*
X146190028Y-72040010D01*
G75*
G02*
X146340028Y-71890010I150000J0D01*
G01*
X147740028Y-71890010D01*
G75*
G02*
X147890028Y-72040010I0J-150000D01*
G01*
X147890028Y-72340010D01*
G75*
G02*
X147740028Y-72490010I-150000J0D01*
G01*
G37*
G36*
G01*
X147740028Y-71240010D02*
X146340028Y-71240010D01*
G75*
G02*
X146190028Y-71090010I0J150000D01*
G01*
X146190028Y-70790010D01*
G75*
G02*
X146340028Y-70640010I150000J0D01*
G01*
X147740028Y-70640010D01*
G75*
G02*
X147890028Y-70790010I0J-150000D01*
G01*
X147890028Y-71090010D01*
G75*
G02*
X147740028Y-71240010I-150000J0D01*
G01*
G37*
G36*
G01*
X151340028Y-75790010D02*
X149140028Y-75790010D01*
G75*
G02*
X148890028Y-75540010I0J250000D01*
G01*
X148890028Y-75040010D01*
G75*
G02*
X149140028Y-74790010I250000J0D01*
G01*
X151340028Y-74790010D01*
G75*
G02*
X151590028Y-75040010I0J-250000D01*
G01*
X151590028Y-75540010D01*
G75*
G02*
X151340028Y-75790010I-250000J0D01*
G01*
G37*
G36*
G01*
X151340028Y-69590010D02*
X149140028Y-69590010D01*
G75*
G02*
X148890028Y-69340010I0J250000D01*
G01*
X148890028Y-68840010D01*
G75*
G02*
X149140028Y-68590010I250000J0D01*
G01*
X151340028Y-68590010D01*
G75*
G02*
X151590028Y-68840010I0J-250000D01*
G01*
X151590028Y-69340010D01*
G75*
G02*
X151340028Y-69590010I-250000J0D01*
G01*
G37*
G36*
G01*
X146627028Y-83514010D02*
X146327028Y-83514010D01*
G75*
G02*
X146177028Y-83364010I0J150000D01*
G01*
X146177028Y-81914010D01*
G75*
G02*
X146327028Y-81764010I150000J0D01*
G01*
X146627028Y-81764010D01*
G75*
G02*
X146777028Y-81914010I0J-150000D01*
G01*
X146777028Y-83364010D01*
G75*
G02*
X146627028Y-83514010I-150000J0D01*
G01*
G37*
G36*
G01*
X147897028Y-83514010D02*
X147597028Y-83514010D01*
G75*
G02*
X147447028Y-83364010I0J150000D01*
G01*
X147447028Y-81914010D01*
G75*
G02*
X147597028Y-81764010I150000J0D01*
G01*
X147897028Y-81764010D01*
G75*
G02*
X148047028Y-81914010I0J-150000D01*
G01*
X148047028Y-83364010D01*
G75*
G02*
X147897028Y-83514010I-150000J0D01*
G01*
G37*
G36*
G01*
X149167028Y-83514010D02*
X148867028Y-83514010D01*
G75*
G02*
X148717028Y-83364010I0J150000D01*
G01*
X148717028Y-81914010D01*
G75*
G02*
X148867028Y-81764010I150000J0D01*
G01*
X149167028Y-81764010D01*
G75*
G02*
X149317028Y-81914010I0J-150000D01*
G01*
X149317028Y-83364010D01*
G75*
G02*
X149167028Y-83514010I-150000J0D01*
G01*
G37*
G36*
G01*
X150437028Y-83514010D02*
X150137028Y-83514010D01*
G75*
G02*
X149987028Y-83364010I0J150000D01*
G01*
X149987028Y-81914010D01*
G75*
G02*
X150137028Y-81764010I150000J0D01*
G01*
X150437028Y-81764010D01*
G75*
G02*
X150587028Y-81914010I0J-150000D01*
G01*
X150587028Y-83364010D01*
G75*
G02*
X150437028Y-83514010I-150000J0D01*
G01*
G37*
G36*
G01*
X150437028Y-78364010D02*
X150137028Y-78364010D01*
G75*
G02*
X149987028Y-78214010I0J150000D01*
G01*
X149987028Y-76764010D01*
G75*
G02*
X150137028Y-76614010I150000J0D01*
G01*
X150437028Y-76614010D01*
G75*
G02*
X150587028Y-76764010I0J-150000D01*
G01*
X150587028Y-78214010D01*
G75*
G02*
X150437028Y-78364010I-150000J0D01*
G01*
G37*
G36*
G01*
X149167028Y-78364010D02*
X148867028Y-78364010D01*
G75*
G02*
X148717028Y-78214010I0J150000D01*
G01*
X148717028Y-76764010D01*
G75*
G02*
X148867028Y-76614010I150000J0D01*
G01*
X149167028Y-76614010D01*
G75*
G02*
X149317028Y-76764010I0J-150000D01*
G01*
X149317028Y-78214010D01*
G75*
G02*
X149167028Y-78364010I-150000J0D01*
G01*
G37*
G36*
G01*
X147897028Y-78364010D02*
X147597028Y-78364010D01*
G75*
G02*
X147447028Y-78214010I0J150000D01*
G01*
X147447028Y-76764010D01*
G75*
G02*
X147597028Y-76614010I150000J0D01*
G01*
X147897028Y-76614010D01*
G75*
G02*
X148047028Y-76764010I0J-150000D01*
G01*
X148047028Y-78214010D01*
G75*
G02*
X147897028Y-78364010I-150000J0D01*
G01*
G37*
G36*
G01*
X146627028Y-78364010D02*
X146327028Y-78364010D01*
G75*
G02*
X146177028Y-78214010I0J150000D01*
G01*
X146177028Y-76764010D01*
G75*
G02*
X146327028Y-76614010I150000J0D01*
G01*
X146627028Y-76614010D01*
G75*
G02*
X146777028Y-76764010I0J-150000D01*
G01*
X146777028Y-78214010D01*
G75*
G02*
X146627028Y-78364010I-150000J0D01*
G01*
G37*
G36*
G01*
X128803028Y-72235010D02*
X129353028Y-72235010D01*
G75*
G02*
X129553028Y-72435010I0J-200000D01*
G01*
X129553028Y-72835010D01*
G75*
G02*
X129353028Y-73035010I-200000J0D01*
G01*
X128803028Y-73035010D01*
G75*
G02*
X128603028Y-72835010I0J200000D01*
G01*
X128603028Y-72435010D01*
G75*
G02*
X128803028Y-72235010I200000J0D01*
G01*
G37*
G36*
G01*
X128803028Y-73885010D02*
X129353028Y-73885010D01*
G75*
G02*
X129553028Y-74085010I0J-200000D01*
G01*
X129553028Y-74485010D01*
G75*
G02*
X129353028Y-74685010I-200000J0D01*
G01*
X128803028Y-74685010D01*
G75*
G02*
X128603028Y-74485010I0J200000D01*
G01*
X128603028Y-74085010D01*
G75*
G02*
X128803028Y-73885010I200000J0D01*
G01*
G37*
G36*
G01*
X142368028Y-81592010D02*
X142368028Y-82092010D01*
G75*
G02*
X142143028Y-82317010I-225000J0D01*
G01*
X141693028Y-82317010D01*
G75*
G02*
X141468028Y-82092010I0J225000D01*
G01*
X141468028Y-81592010D01*
G75*
G02*
X141693028Y-81367010I225000J0D01*
G01*
X142143028Y-81367010D01*
G75*
G02*
X142368028Y-81592010I0J-225000D01*
G01*
G37*
G36*
G01*
X140818028Y-81592010D02*
X140818028Y-82092010D01*
G75*
G02*
X140593028Y-82317010I-225000J0D01*
G01*
X140143028Y-82317010D01*
G75*
G02*
X139918028Y-82092010I0J225000D01*
G01*
X139918028Y-81592010D01*
G75*
G02*
X140143028Y-81367010I225000J0D01*
G01*
X140593028Y-81367010D01*
G75*
G02*
X140818028Y-81592010I0J-225000D01*
G01*
G37*
G36*
G01*
X133417028Y-71383010D02*
X132867028Y-71383010D01*
G75*
G02*
X132667028Y-71183010I0J200000D01*
G01*
X132667028Y-70783010D01*
G75*
G02*
X132867028Y-70583010I200000J0D01*
G01*
X133417028Y-70583010D01*
G75*
G02*
X133617028Y-70783010I0J-200000D01*
G01*
X133617028Y-71183010D01*
G75*
G02*
X133417028Y-71383010I-200000J0D01*
G01*
G37*
G36*
G01*
X133417028Y-69733010D02*
X132867028Y-69733010D01*
G75*
G02*
X132667028Y-69533010I0J200000D01*
G01*
X132667028Y-69133010D01*
G75*
G02*
X132867028Y-68933010I200000J0D01*
G01*
X133417028Y-68933010D01*
G75*
G02*
X133617028Y-69133010I0J-200000D01*
G01*
X133617028Y-69533010D01*
G75*
G02*
X133417028Y-69733010I-200000J0D01*
G01*
G37*
D10*
X103144019Y-71158010D03*
X105044019Y-71158010D03*
X104094019Y-69158010D03*
D11*
X104602019Y-72760010D03*
X104602019Y-74160010D03*
D12*
X111649019Y-81842010D03*
X113049019Y-81842010D03*
G36*
G01*
X106260019Y-78260010D02*
X107660019Y-78260010D01*
G75*
G02*
X107810019Y-78410010I0J-150000D01*
G01*
X107810019Y-78710010D01*
G75*
G02*
X107660019Y-78860010I-150000J0D01*
G01*
X106260019Y-78860010D01*
G75*
G02*
X106110019Y-78710010I0J150000D01*
G01*
X106110019Y-78410010D01*
G75*
G02*
X106260019Y-78260010I150000J0D01*
G01*
G37*
G36*
G01*
X106260019Y-79510010D02*
X107660019Y-79510010D01*
G75*
G02*
X107810019Y-79660010I0J-150000D01*
G01*
X107810019Y-79960010D01*
G75*
G02*
X107660019Y-80110010I-150000J0D01*
G01*
X106260019Y-80110010D01*
G75*
G02*
X106110019Y-79960010I0J150000D01*
G01*
X106110019Y-79660010D01*
G75*
G02*
X106260019Y-79510010I150000J0D01*
G01*
G37*
G36*
G01*
X106260019Y-80760010D02*
X107660019Y-80760010D01*
G75*
G02*
X107810019Y-80910010I0J-150000D01*
G01*
X107810019Y-81210010D01*
G75*
G02*
X107660019Y-81360010I-150000J0D01*
G01*
X106260019Y-81360010D01*
G75*
G02*
X106110019Y-81210010I0J150000D01*
G01*
X106110019Y-80910010D01*
G75*
G02*
X106260019Y-80760010I150000J0D01*
G01*
G37*
G36*
G01*
X102660019Y-76210010D02*
X104860019Y-76210010D01*
G75*
G02*
X105110019Y-76460010I0J-250000D01*
G01*
X105110019Y-76960010D01*
G75*
G02*
X104860019Y-77210010I-250000J0D01*
G01*
X102660019Y-77210010D01*
G75*
G02*
X102410019Y-76960010I0J250000D01*
G01*
X102410019Y-76460010D01*
G75*
G02*
X102660019Y-76210010I250000J0D01*
G01*
G37*
G36*
G01*
X102660019Y-82410010D02*
X104860019Y-82410010D01*
G75*
G02*
X105110019Y-82660010I0J-250000D01*
G01*
X105110019Y-83160010D01*
G75*
G02*
X104860019Y-83410010I-250000J0D01*
G01*
X102660019Y-83410010D01*
G75*
G02*
X102410019Y-83160010I0J250000D01*
G01*
X102410019Y-82660010D01*
G75*
G02*
X102660019Y-82410010I250000J0D01*
G01*
G37*
G36*
G01*
X121740019Y-73740010D02*
X120340019Y-73740010D01*
G75*
G02*
X120190019Y-73590010I0J150000D01*
G01*
X120190019Y-73290010D01*
G75*
G02*
X120340019Y-73140010I150000J0D01*
G01*
X121740019Y-73140010D01*
G75*
G02*
X121890019Y-73290010I0J-150000D01*
G01*
X121890019Y-73590010D01*
G75*
G02*
X121740019Y-73740010I-150000J0D01*
G01*
G37*
G36*
G01*
X121740019Y-72490010D02*
X120340019Y-72490010D01*
G75*
G02*
X120190019Y-72340010I0J150000D01*
G01*
X120190019Y-72040010D01*
G75*
G02*
X120340019Y-71890010I150000J0D01*
G01*
X121740019Y-71890010D01*
G75*
G02*
X121890019Y-72040010I0J-150000D01*
G01*
X121890019Y-72340010D01*
G75*
G02*
X121740019Y-72490010I-150000J0D01*
G01*
G37*
G36*
G01*
X121740019Y-71240010D02*
X120340019Y-71240010D01*
G75*
G02*
X120190019Y-71090010I0J150000D01*
G01*
X120190019Y-70790010D01*
G75*
G02*
X120340019Y-70640010I150000J0D01*
G01*
X121740019Y-70640010D01*
G75*
G02*
X121890019Y-70790010I0J-150000D01*
G01*
X121890019Y-71090010D01*
G75*
G02*
X121740019Y-71240010I-150000J0D01*
G01*
G37*
G36*
G01*
X125340019Y-75790010D02*
X123140019Y-75790010D01*
G75*
G02*
X122890019Y-75540010I0J250000D01*
G01*
X122890019Y-75040010D01*
G75*
G02*
X123140019Y-74790010I250000J0D01*
G01*
X125340019Y-74790010D01*
G75*
G02*
X125590019Y-75040010I0J-250000D01*
G01*
X125590019Y-75540010D01*
G75*
G02*
X125340019Y-75790010I-250000J0D01*
G01*
G37*
G36*
G01*
X125340019Y-69590010D02*
X123140019Y-69590010D01*
G75*
G02*
X122890019Y-69340010I0J250000D01*
G01*
X122890019Y-68840010D01*
G75*
G02*
X123140019Y-68590010I250000J0D01*
G01*
X125340019Y-68590010D01*
G75*
G02*
X125590019Y-68840010I0J-250000D01*
G01*
X125590019Y-69340010D01*
G75*
G02*
X125340019Y-69590010I-250000J0D01*
G01*
G37*
G36*
G01*
X120627019Y-83514010D02*
X120327019Y-83514010D01*
G75*
G02*
X120177019Y-83364010I0J150000D01*
G01*
X120177019Y-81914010D01*
G75*
G02*
X120327019Y-81764010I150000J0D01*
G01*
X120627019Y-81764010D01*
G75*
G02*
X120777019Y-81914010I0J-150000D01*
G01*
X120777019Y-83364010D01*
G75*
G02*
X120627019Y-83514010I-150000J0D01*
G01*
G37*
G36*
G01*
X121897019Y-83514010D02*
X121597019Y-83514010D01*
G75*
G02*
X121447019Y-83364010I0J150000D01*
G01*
X121447019Y-81914010D01*
G75*
G02*
X121597019Y-81764010I150000J0D01*
G01*
X121897019Y-81764010D01*
G75*
G02*
X122047019Y-81914010I0J-150000D01*
G01*
X122047019Y-83364010D01*
G75*
G02*
X121897019Y-83514010I-150000J0D01*
G01*
G37*
G36*
G01*
X123167019Y-83514010D02*
X122867019Y-83514010D01*
G75*
G02*
X122717019Y-83364010I0J150000D01*
G01*
X122717019Y-81914010D01*
G75*
G02*
X122867019Y-81764010I150000J0D01*
G01*
X123167019Y-81764010D01*
G75*
G02*
X123317019Y-81914010I0J-150000D01*
G01*
X123317019Y-83364010D01*
G75*
G02*
X123167019Y-83514010I-150000J0D01*
G01*
G37*
G36*
G01*
X124437019Y-83514010D02*
X124137019Y-83514010D01*
G75*
G02*
X123987019Y-83364010I0J150000D01*
G01*
X123987019Y-81914010D01*
G75*
G02*
X124137019Y-81764010I150000J0D01*
G01*
X124437019Y-81764010D01*
G75*
G02*
X124587019Y-81914010I0J-150000D01*
G01*
X124587019Y-83364010D01*
G75*
G02*
X124437019Y-83514010I-150000J0D01*
G01*
G37*
G36*
G01*
X124437019Y-78364010D02*
X124137019Y-78364010D01*
G75*
G02*
X123987019Y-78214010I0J150000D01*
G01*
X123987019Y-76764010D01*
G75*
G02*
X124137019Y-76614010I150000J0D01*
G01*
X124437019Y-76614010D01*
G75*
G02*
X124587019Y-76764010I0J-150000D01*
G01*
X124587019Y-78214010D01*
G75*
G02*
X124437019Y-78364010I-150000J0D01*
G01*
G37*
G36*
G01*
X123167019Y-78364010D02*
X122867019Y-78364010D01*
G75*
G02*
X122717019Y-78214010I0J150000D01*
G01*
X122717019Y-76764010D01*
G75*
G02*
X122867019Y-76614010I150000J0D01*
G01*
X123167019Y-76614010D01*
G75*
G02*
X123317019Y-76764010I0J-150000D01*
G01*
X123317019Y-78214010D01*
G75*
G02*
X123167019Y-78364010I-150000J0D01*
G01*
G37*
G36*
G01*
X121897019Y-78364010D02*
X121597019Y-78364010D01*
G75*
G02*
X121447019Y-78214010I0J150000D01*
G01*
X121447019Y-76764010D01*
G75*
G02*
X121597019Y-76614010I150000J0D01*
G01*
X121897019Y-76614010D01*
G75*
G02*
X122047019Y-76764010I0J-150000D01*
G01*
X122047019Y-78214010D01*
G75*
G02*
X121897019Y-78364010I-150000J0D01*
G01*
G37*
G36*
G01*
X120627019Y-78364010D02*
X120327019Y-78364010D01*
G75*
G02*
X120177019Y-78214010I0J150000D01*
G01*
X120177019Y-76764010D01*
G75*
G02*
X120327019Y-76614010I150000J0D01*
G01*
X120627019Y-76614010D01*
G75*
G02*
X120777019Y-76764010I0J-150000D01*
G01*
X120777019Y-78214010D01*
G75*
G02*
X120627019Y-78364010I-150000J0D01*
G01*
G37*
G36*
G01*
X102803019Y-72235010D02*
X103353019Y-72235010D01*
G75*
G02*
X103553019Y-72435010I0J-200000D01*
G01*
X103553019Y-72835010D01*
G75*
G02*
X103353019Y-73035010I-200000J0D01*
G01*
X102803019Y-73035010D01*
G75*
G02*
X102603019Y-72835010I0J200000D01*
G01*
X102603019Y-72435010D01*
G75*
G02*
X102803019Y-72235010I200000J0D01*
G01*
G37*
G36*
G01*
X102803019Y-73885010D02*
X103353019Y-73885010D01*
G75*
G02*
X103553019Y-74085010I0J-200000D01*
G01*
X103553019Y-74485010D01*
G75*
G02*
X103353019Y-74685010I-200000J0D01*
G01*
X102803019Y-74685010D01*
G75*
G02*
X102603019Y-74485010I0J200000D01*
G01*
X102603019Y-74085010D01*
G75*
G02*
X102803019Y-73885010I200000J0D01*
G01*
G37*
G36*
G01*
X116368019Y-81592010D02*
X116368019Y-82092010D01*
G75*
G02*
X116143019Y-82317010I-225000J0D01*
G01*
X115693019Y-82317010D01*
G75*
G02*
X115468019Y-82092010I0J225000D01*
G01*
X115468019Y-81592010D01*
G75*
G02*
X115693019Y-81367010I225000J0D01*
G01*
X116143019Y-81367010D01*
G75*
G02*
X116368019Y-81592010I0J-225000D01*
G01*
G37*
G36*
G01*
X114818019Y-81592010D02*
X114818019Y-82092010D01*
G75*
G02*
X114593019Y-82317010I-225000J0D01*
G01*
X114143019Y-82317010D01*
G75*
G02*
X113918019Y-82092010I0J225000D01*
G01*
X113918019Y-81592010D01*
G75*
G02*
X114143019Y-81367010I225000J0D01*
G01*
X114593019Y-81367010D01*
G75*
G02*
X114818019Y-81592010I0J-225000D01*
G01*
G37*
G36*
G01*
X107417019Y-71383010D02*
X106867019Y-71383010D01*
G75*
G02*
X106667019Y-71183010I0J200000D01*
G01*
X106667019Y-70783010D01*
G75*
G02*
X106867019Y-70583010I200000J0D01*
G01*
X107417019Y-70583010D01*
G75*
G02*
X107617019Y-70783010I0J-200000D01*
G01*
X107617019Y-71183010D01*
G75*
G02*
X107417019Y-71383010I-200000J0D01*
G01*
G37*
G36*
G01*
X107417019Y-69733010D02*
X106867019Y-69733010D01*
G75*
G02*
X106667019Y-69533010I0J200000D01*
G01*
X106667019Y-69133010D01*
G75*
G02*
X106867019Y-68933010I200000J0D01*
G01*
X107417019Y-68933010D01*
G75*
G02*
X107617019Y-69133010I0J-200000D01*
G01*
X107617019Y-69533010D01*
G75*
G02*
X107417019Y-69733010I-200000J0D01*
G01*
G37*
D10*
X77144010Y-71158010D03*
X79044010Y-71158010D03*
X78094010Y-69158010D03*
D11*
X78602010Y-72760010D03*
X78602010Y-74160010D03*
D12*
X85649010Y-81842010D03*
X87049010Y-81842010D03*
G36*
G01*
X80260010Y-78260010D02*
X81660010Y-78260010D01*
G75*
G02*
X81810010Y-78410010I0J-150000D01*
G01*
X81810010Y-78710010D01*
G75*
G02*
X81660010Y-78860010I-150000J0D01*
G01*
X80260010Y-78860010D01*
G75*
G02*
X80110010Y-78710010I0J150000D01*
G01*
X80110010Y-78410010D01*
G75*
G02*
X80260010Y-78260010I150000J0D01*
G01*
G37*
G36*
G01*
X80260010Y-79510010D02*
X81660010Y-79510010D01*
G75*
G02*
X81810010Y-79660010I0J-150000D01*
G01*
X81810010Y-79960010D01*
G75*
G02*
X81660010Y-80110010I-150000J0D01*
G01*
X80260010Y-80110010D01*
G75*
G02*
X80110010Y-79960010I0J150000D01*
G01*
X80110010Y-79660010D01*
G75*
G02*
X80260010Y-79510010I150000J0D01*
G01*
G37*
G36*
G01*
X80260010Y-80760010D02*
X81660010Y-80760010D01*
G75*
G02*
X81810010Y-80910010I0J-150000D01*
G01*
X81810010Y-81210010D01*
G75*
G02*
X81660010Y-81360010I-150000J0D01*
G01*
X80260010Y-81360010D01*
G75*
G02*
X80110010Y-81210010I0J150000D01*
G01*
X80110010Y-80910010D01*
G75*
G02*
X80260010Y-80760010I150000J0D01*
G01*
G37*
G36*
G01*
X76660010Y-76210010D02*
X78860010Y-76210010D01*
G75*
G02*
X79110010Y-76460010I0J-250000D01*
G01*
X79110010Y-76960010D01*
G75*
G02*
X78860010Y-77210010I-250000J0D01*
G01*
X76660010Y-77210010D01*
G75*
G02*
X76410010Y-76960010I0J250000D01*
G01*
X76410010Y-76460010D01*
G75*
G02*
X76660010Y-76210010I250000J0D01*
G01*
G37*
G36*
G01*
X76660010Y-82410010D02*
X78860010Y-82410010D01*
G75*
G02*
X79110010Y-82660010I0J-250000D01*
G01*
X79110010Y-83160010D01*
G75*
G02*
X78860010Y-83410010I-250000J0D01*
G01*
X76660010Y-83410010D01*
G75*
G02*
X76410010Y-83160010I0J250000D01*
G01*
X76410010Y-82660010D01*
G75*
G02*
X76660010Y-82410010I250000J0D01*
G01*
G37*
G36*
G01*
X95740010Y-73740010D02*
X94340010Y-73740010D01*
G75*
G02*
X94190010Y-73590010I0J150000D01*
G01*
X94190010Y-73290010D01*
G75*
G02*
X94340010Y-73140010I150000J0D01*
G01*
X95740010Y-73140010D01*
G75*
G02*
X95890010Y-73290010I0J-150000D01*
G01*
X95890010Y-73590010D01*
G75*
G02*
X95740010Y-73740010I-150000J0D01*
G01*
G37*
G36*
G01*
X95740010Y-72490010D02*
X94340010Y-72490010D01*
G75*
G02*
X94190010Y-72340010I0J150000D01*
G01*
X94190010Y-72040010D01*
G75*
G02*
X94340010Y-71890010I150000J0D01*
G01*
X95740010Y-71890010D01*
G75*
G02*
X95890010Y-72040010I0J-150000D01*
G01*
X95890010Y-72340010D01*
G75*
G02*
X95740010Y-72490010I-150000J0D01*
G01*
G37*
G36*
G01*
X95740010Y-71240010D02*
X94340010Y-71240010D01*
G75*
G02*
X94190010Y-71090010I0J150000D01*
G01*
X94190010Y-70790010D01*
G75*
G02*
X94340010Y-70640010I150000J0D01*
G01*
X95740010Y-70640010D01*
G75*
G02*
X95890010Y-70790010I0J-150000D01*
G01*
X95890010Y-71090010D01*
G75*
G02*
X95740010Y-71240010I-150000J0D01*
G01*
G37*
G36*
G01*
X99340010Y-75790010D02*
X97140010Y-75790010D01*
G75*
G02*
X96890010Y-75540010I0J250000D01*
G01*
X96890010Y-75040010D01*
G75*
G02*
X97140010Y-74790010I250000J0D01*
G01*
X99340010Y-74790010D01*
G75*
G02*
X99590010Y-75040010I0J-250000D01*
G01*
X99590010Y-75540010D01*
G75*
G02*
X99340010Y-75790010I-250000J0D01*
G01*
G37*
G36*
G01*
X99340010Y-69590010D02*
X97140010Y-69590010D01*
G75*
G02*
X96890010Y-69340010I0J250000D01*
G01*
X96890010Y-68840010D01*
G75*
G02*
X97140010Y-68590010I250000J0D01*
G01*
X99340010Y-68590010D01*
G75*
G02*
X99590010Y-68840010I0J-250000D01*
G01*
X99590010Y-69340010D01*
G75*
G02*
X99340010Y-69590010I-250000J0D01*
G01*
G37*
G36*
G01*
X94627010Y-83514010D02*
X94327010Y-83514010D01*
G75*
G02*
X94177010Y-83364010I0J150000D01*
G01*
X94177010Y-81914010D01*
G75*
G02*
X94327010Y-81764010I150000J0D01*
G01*
X94627010Y-81764010D01*
G75*
G02*
X94777010Y-81914010I0J-150000D01*
G01*
X94777010Y-83364010D01*
G75*
G02*
X94627010Y-83514010I-150000J0D01*
G01*
G37*
G36*
G01*
X95897010Y-83514010D02*
X95597010Y-83514010D01*
G75*
G02*
X95447010Y-83364010I0J150000D01*
G01*
X95447010Y-81914010D01*
G75*
G02*
X95597010Y-81764010I150000J0D01*
G01*
X95897010Y-81764010D01*
G75*
G02*
X96047010Y-81914010I0J-150000D01*
G01*
X96047010Y-83364010D01*
G75*
G02*
X95897010Y-83514010I-150000J0D01*
G01*
G37*
G36*
G01*
X97167010Y-83514010D02*
X96867010Y-83514010D01*
G75*
G02*
X96717010Y-83364010I0J150000D01*
G01*
X96717010Y-81914010D01*
G75*
G02*
X96867010Y-81764010I150000J0D01*
G01*
X97167010Y-81764010D01*
G75*
G02*
X97317010Y-81914010I0J-150000D01*
G01*
X97317010Y-83364010D01*
G75*
G02*
X97167010Y-83514010I-150000J0D01*
G01*
G37*
G36*
G01*
X98437010Y-83514010D02*
X98137010Y-83514010D01*
G75*
G02*
X97987010Y-83364010I0J150000D01*
G01*
X97987010Y-81914010D01*
G75*
G02*
X98137010Y-81764010I150000J0D01*
G01*
X98437010Y-81764010D01*
G75*
G02*
X98587010Y-81914010I0J-150000D01*
G01*
X98587010Y-83364010D01*
G75*
G02*
X98437010Y-83514010I-150000J0D01*
G01*
G37*
G36*
G01*
X98437010Y-78364010D02*
X98137010Y-78364010D01*
G75*
G02*
X97987010Y-78214010I0J150000D01*
G01*
X97987010Y-76764010D01*
G75*
G02*
X98137010Y-76614010I150000J0D01*
G01*
X98437010Y-76614010D01*
G75*
G02*
X98587010Y-76764010I0J-150000D01*
G01*
X98587010Y-78214010D01*
G75*
G02*
X98437010Y-78364010I-150000J0D01*
G01*
G37*
G36*
G01*
X97167010Y-78364010D02*
X96867010Y-78364010D01*
G75*
G02*
X96717010Y-78214010I0J150000D01*
G01*
X96717010Y-76764010D01*
G75*
G02*
X96867010Y-76614010I150000J0D01*
G01*
X97167010Y-76614010D01*
G75*
G02*
X97317010Y-76764010I0J-150000D01*
G01*
X97317010Y-78214010D01*
G75*
G02*
X97167010Y-78364010I-150000J0D01*
G01*
G37*
G36*
G01*
X95897010Y-78364010D02*
X95597010Y-78364010D01*
G75*
G02*
X95447010Y-78214010I0J150000D01*
G01*
X95447010Y-76764010D01*
G75*
G02*
X95597010Y-76614010I150000J0D01*
G01*
X95897010Y-76614010D01*
G75*
G02*
X96047010Y-76764010I0J-150000D01*
G01*
X96047010Y-78214010D01*
G75*
G02*
X95897010Y-78364010I-150000J0D01*
G01*
G37*
G36*
G01*
X94627010Y-78364010D02*
X94327010Y-78364010D01*
G75*
G02*
X94177010Y-78214010I0J150000D01*
G01*
X94177010Y-76764010D01*
G75*
G02*
X94327010Y-76614010I150000J0D01*
G01*
X94627010Y-76614010D01*
G75*
G02*
X94777010Y-76764010I0J-150000D01*
G01*
X94777010Y-78214010D01*
G75*
G02*
X94627010Y-78364010I-150000J0D01*
G01*
G37*
G36*
G01*
X76803010Y-72235010D02*
X77353010Y-72235010D01*
G75*
G02*
X77553010Y-72435010I0J-200000D01*
G01*
X77553010Y-72835010D01*
G75*
G02*
X77353010Y-73035010I-200000J0D01*
G01*
X76803010Y-73035010D01*
G75*
G02*
X76603010Y-72835010I0J200000D01*
G01*
X76603010Y-72435010D01*
G75*
G02*
X76803010Y-72235010I200000J0D01*
G01*
G37*
G36*
G01*
X76803010Y-73885010D02*
X77353010Y-73885010D01*
G75*
G02*
X77553010Y-74085010I0J-200000D01*
G01*
X77553010Y-74485010D01*
G75*
G02*
X77353010Y-74685010I-200000J0D01*
G01*
X76803010Y-74685010D01*
G75*
G02*
X76603010Y-74485010I0J200000D01*
G01*
X76603010Y-74085010D01*
G75*
G02*
X76803010Y-73885010I200000J0D01*
G01*
G37*
G36*
G01*
X90368010Y-81592010D02*
X90368010Y-82092010D01*
G75*
G02*
X90143010Y-82317010I-225000J0D01*
G01*
X89693010Y-82317010D01*
G75*
G02*
X89468010Y-82092010I0J225000D01*
G01*
X89468010Y-81592010D01*
G75*
G02*
X89693010Y-81367010I225000J0D01*
G01*
X90143010Y-81367010D01*
G75*
G02*
X90368010Y-81592010I0J-225000D01*
G01*
G37*
G36*
G01*
X88818010Y-81592010D02*
X88818010Y-82092010D01*
G75*
G02*
X88593010Y-82317010I-225000J0D01*
G01*
X88143010Y-82317010D01*
G75*
G02*
X87918010Y-82092010I0J225000D01*
G01*
X87918010Y-81592010D01*
G75*
G02*
X88143010Y-81367010I225000J0D01*
G01*
X88593010Y-81367010D01*
G75*
G02*
X88818010Y-81592010I0J-225000D01*
G01*
G37*
G36*
G01*
X81417010Y-71383010D02*
X80867010Y-71383010D01*
G75*
G02*
X80667010Y-71183010I0J200000D01*
G01*
X80667010Y-70783010D01*
G75*
G02*
X80867010Y-70583010I200000J0D01*
G01*
X81417010Y-70583010D01*
G75*
G02*
X81617010Y-70783010I0J-200000D01*
G01*
X81617010Y-71183010D01*
G75*
G02*
X81417010Y-71383010I-200000J0D01*
G01*
G37*
G36*
G01*
X81417010Y-69733010D02*
X80867010Y-69733010D01*
G75*
G02*
X80667010Y-69533010I0J200000D01*
G01*
X80667010Y-69133010D01*
G75*
G02*
X80867010Y-68933010I200000J0D01*
G01*
X81417010Y-68933010D01*
G75*
G02*
X81617010Y-69133010I0J-200000D01*
G01*
X81617010Y-69533010D01*
G75*
G02*
X81417010Y-69733010I-200000J0D01*
G01*
G37*
D10*
X51144001Y-71158010D03*
X53044001Y-71158010D03*
X52094001Y-69158010D03*
D11*
X52602001Y-72760010D03*
X52602001Y-74160010D03*
D12*
X59649001Y-81842010D03*
X61049001Y-81842010D03*
G36*
G01*
X54260001Y-78260010D02*
X55660001Y-78260010D01*
G75*
G02*
X55810001Y-78410010I0J-150000D01*
G01*
X55810001Y-78710010D01*
G75*
G02*
X55660001Y-78860010I-150000J0D01*
G01*
X54260001Y-78860010D01*
G75*
G02*
X54110001Y-78710010I0J150000D01*
G01*
X54110001Y-78410010D01*
G75*
G02*
X54260001Y-78260010I150000J0D01*
G01*
G37*
G36*
G01*
X54260001Y-79510010D02*
X55660001Y-79510010D01*
G75*
G02*
X55810001Y-79660010I0J-150000D01*
G01*
X55810001Y-79960010D01*
G75*
G02*
X55660001Y-80110010I-150000J0D01*
G01*
X54260001Y-80110010D01*
G75*
G02*
X54110001Y-79960010I0J150000D01*
G01*
X54110001Y-79660010D01*
G75*
G02*
X54260001Y-79510010I150000J0D01*
G01*
G37*
G36*
G01*
X54260001Y-80760010D02*
X55660001Y-80760010D01*
G75*
G02*
X55810001Y-80910010I0J-150000D01*
G01*
X55810001Y-81210010D01*
G75*
G02*
X55660001Y-81360010I-150000J0D01*
G01*
X54260001Y-81360010D01*
G75*
G02*
X54110001Y-81210010I0J150000D01*
G01*
X54110001Y-80910010D01*
G75*
G02*
X54260001Y-80760010I150000J0D01*
G01*
G37*
G36*
G01*
X50660001Y-76210010D02*
X52860001Y-76210010D01*
G75*
G02*
X53110001Y-76460010I0J-250000D01*
G01*
X53110001Y-76960010D01*
G75*
G02*
X52860001Y-77210010I-250000J0D01*
G01*
X50660001Y-77210010D01*
G75*
G02*
X50410001Y-76960010I0J250000D01*
G01*
X50410001Y-76460010D01*
G75*
G02*
X50660001Y-76210010I250000J0D01*
G01*
G37*
G36*
G01*
X50660001Y-82410010D02*
X52860001Y-82410010D01*
G75*
G02*
X53110001Y-82660010I0J-250000D01*
G01*
X53110001Y-83160010D01*
G75*
G02*
X52860001Y-83410010I-250000J0D01*
G01*
X50660001Y-83410010D01*
G75*
G02*
X50410001Y-83160010I0J250000D01*
G01*
X50410001Y-82660010D01*
G75*
G02*
X50660001Y-82410010I250000J0D01*
G01*
G37*
G36*
G01*
X69740001Y-73740010D02*
X68340001Y-73740010D01*
G75*
G02*
X68190001Y-73590010I0J150000D01*
G01*
X68190001Y-73290010D01*
G75*
G02*
X68340001Y-73140010I150000J0D01*
G01*
X69740001Y-73140010D01*
G75*
G02*
X69890001Y-73290010I0J-150000D01*
G01*
X69890001Y-73590010D01*
G75*
G02*
X69740001Y-73740010I-150000J0D01*
G01*
G37*
G36*
G01*
X69740001Y-72490010D02*
X68340001Y-72490010D01*
G75*
G02*
X68190001Y-72340010I0J150000D01*
G01*
X68190001Y-72040010D01*
G75*
G02*
X68340001Y-71890010I150000J0D01*
G01*
X69740001Y-71890010D01*
G75*
G02*
X69890001Y-72040010I0J-150000D01*
G01*
X69890001Y-72340010D01*
G75*
G02*
X69740001Y-72490010I-150000J0D01*
G01*
G37*
G36*
G01*
X69740001Y-71240010D02*
X68340001Y-71240010D01*
G75*
G02*
X68190001Y-71090010I0J150000D01*
G01*
X68190001Y-70790010D01*
G75*
G02*
X68340001Y-70640010I150000J0D01*
G01*
X69740001Y-70640010D01*
G75*
G02*
X69890001Y-70790010I0J-150000D01*
G01*
X69890001Y-71090010D01*
G75*
G02*
X69740001Y-71240010I-150000J0D01*
G01*
G37*
G36*
G01*
X73340001Y-75790010D02*
X71140001Y-75790010D01*
G75*
G02*
X70890001Y-75540010I0J250000D01*
G01*
X70890001Y-75040010D01*
G75*
G02*
X71140001Y-74790010I250000J0D01*
G01*
X73340001Y-74790010D01*
G75*
G02*
X73590001Y-75040010I0J-250000D01*
G01*
X73590001Y-75540010D01*
G75*
G02*
X73340001Y-75790010I-250000J0D01*
G01*
G37*
G36*
G01*
X73340001Y-69590010D02*
X71140001Y-69590010D01*
G75*
G02*
X70890001Y-69340010I0J250000D01*
G01*
X70890001Y-68840010D01*
G75*
G02*
X71140001Y-68590010I250000J0D01*
G01*
X73340001Y-68590010D01*
G75*
G02*
X73590001Y-68840010I0J-250000D01*
G01*
X73590001Y-69340010D01*
G75*
G02*
X73340001Y-69590010I-250000J0D01*
G01*
G37*
G36*
G01*
X68627001Y-83514010D02*
X68327001Y-83514010D01*
G75*
G02*
X68177001Y-83364010I0J150000D01*
G01*
X68177001Y-81914010D01*
G75*
G02*
X68327001Y-81764010I150000J0D01*
G01*
X68627001Y-81764010D01*
G75*
G02*
X68777001Y-81914010I0J-150000D01*
G01*
X68777001Y-83364010D01*
G75*
G02*
X68627001Y-83514010I-150000J0D01*
G01*
G37*
G36*
G01*
X69897001Y-83514010D02*
X69597001Y-83514010D01*
G75*
G02*
X69447001Y-83364010I0J150000D01*
G01*
X69447001Y-81914010D01*
G75*
G02*
X69597001Y-81764010I150000J0D01*
G01*
X69897001Y-81764010D01*
G75*
G02*
X70047001Y-81914010I0J-150000D01*
G01*
X70047001Y-83364010D01*
G75*
G02*
X69897001Y-83514010I-150000J0D01*
G01*
G37*
G36*
G01*
X71167001Y-83514010D02*
X70867001Y-83514010D01*
G75*
G02*
X70717001Y-83364010I0J150000D01*
G01*
X70717001Y-81914010D01*
G75*
G02*
X70867001Y-81764010I150000J0D01*
G01*
X71167001Y-81764010D01*
G75*
G02*
X71317001Y-81914010I0J-150000D01*
G01*
X71317001Y-83364010D01*
G75*
G02*
X71167001Y-83514010I-150000J0D01*
G01*
G37*
G36*
G01*
X72437001Y-83514010D02*
X72137001Y-83514010D01*
G75*
G02*
X71987001Y-83364010I0J150000D01*
G01*
X71987001Y-81914010D01*
G75*
G02*
X72137001Y-81764010I150000J0D01*
G01*
X72437001Y-81764010D01*
G75*
G02*
X72587001Y-81914010I0J-150000D01*
G01*
X72587001Y-83364010D01*
G75*
G02*
X72437001Y-83514010I-150000J0D01*
G01*
G37*
G36*
G01*
X72437001Y-78364010D02*
X72137001Y-78364010D01*
G75*
G02*
X71987001Y-78214010I0J150000D01*
G01*
X71987001Y-76764010D01*
G75*
G02*
X72137001Y-76614010I150000J0D01*
G01*
X72437001Y-76614010D01*
G75*
G02*
X72587001Y-76764010I0J-150000D01*
G01*
X72587001Y-78214010D01*
G75*
G02*
X72437001Y-78364010I-150000J0D01*
G01*
G37*
G36*
G01*
X71167001Y-78364010D02*
X70867001Y-78364010D01*
G75*
G02*
X70717001Y-78214010I0J150000D01*
G01*
X70717001Y-76764010D01*
G75*
G02*
X70867001Y-76614010I150000J0D01*
G01*
X71167001Y-76614010D01*
G75*
G02*
X71317001Y-76764010I0J-150000D01*
G01*
X71317001Y-78214010D01*
G75*
G02*
X71167001Y-78364010I-150000J0D01*
G01*
G37*
G36*
G01*
X69897001Y-78364010D02*
X69597001Y-78364010D01*
G75*
G02*
X69447001Y-78214010I0J150000D01*
G01*
X69447001Y-76764010D01*
G75*
G02*
X69597001Y-76614010I150000J0D01*
G01*
X69897001Y-76614010D01*
G75*
G02*
X70047001Y-76764010I0J-150000D01*
G01*
X70047001Y-78214010D01*
G75*
G02*
X69897001Y-78364010I-150000J0D01*
G01*
G37*
G36*
G01*
X68627001Y-78364010D02*
X68327001Y-78364010D01*
G75*
G02*
X68177001Y-78214010I0J150000D01*
G01*
X68177001Y-76764010D01*
G75*
G02*
X68327001Y-76614010I150000J0D01*
G01*
X68627001Y-76614010D01*
G75*
G02*
X68777001Y-76764010I0J-150000D01*
G01*
X68777001Y-78214010D01*
G75*
G02*
X68627001Y-78364010I-150000J0D01*
G01*
G37*
G36*
G01*
X50803001Y-72235010D02*
X51353001Y-72235010D01*
G75*
G02*
X51553001Y-72435010I0J-200000D01*
G01*
X51553001Y-72835010D01*
G75*
G02*
X51353001Y-73035010I-200000J0D01*
G01*
X50803001Y-73035010D01*
G75*
G02*
X50603001Y-72835010I0J200000D01*
G01*
X50603001Y-72435010D01*
G75*
G02*
X50803001Y-72235010I200000J0D01*
G01*
G37*
G36*
G01*
X50803001Y-73885010D02*
X51353001Y-73885010D01*
G75*
G02*
X51553001Y-74085010I0J-200000D01*
G01*
X51553001Y-74485010D01*
G75*
G02*
X51353001Y-74685010I-200000J0D01*
G01*
X50803001Y-74685010D01*
G75*
G02*
X50603001Y-74485010I0J200000D01*
G01*
X50603001Y-74085010D01*
G75*
G02*
X50803001Y-73885010I200000J0D01*
G01*
G37*
G36*
G01*
X64368001Y-81592010D02*
X64368001Y-82092010D01*
G75*
G02*
X64143001Y-82317010I-225000J0D01*
G01*
X63693001Y-82317010D01*
G75*
G02*
X63468001Y-82092010I0J225000D01*
G01*
X63468001Y-81592010D01*
G75*
G02*
X63693001Y-81367010I225000J0D01*
G01*
X64143001Y-81367010D01*
G75*
G02*
X64368001Y-81592010I0J-225000D01*
G01*
G37*
G36*
G01*
X62818001Y-81592010D02*
X62818001Y-82092010D01*
G75*
G02*
X62593001Y-82317010I-225000J0D01*
G01*
X62143001Y-82317010D01*
G75*
G02*
X61918001Y-82092010I0J225000D01*
G01*
X61918001Y-81592010D01*
G75*
G02*
X62143001Y-81367010I225000J0D01*
G01*
X62593001Y-81367010D01*
G75*
G02*
X62818001Y-81592010I0J-225000D01*
G01*
G37*
G36*
G01*
X55417001Y-71383010D02*
X54867001Y-71383010D01*
G75*
G02*
X54667001Y-71183010I0J200000D01*
G01*
X54667001Y-70783010D01*
G75*
G02*
X54867001Y-70583010I200000J0D01*
G01*
X55417001Y-70583010D01*
G75*
G02*
X55617001Y-70783010I0J-200000D01*
G01*
X55617001Y-71183010D01*
G75*
G02*
X55417001Y-71383010I-200000J0D01*
G01*
G37*
G36*
G01*
X55417001Y-69733010D02*
X54867001Y-69733010D01*
G75*
G02*
X54667001Y-69533010I0J200000D01*
G01*
X54667001Y-69133010D01*
G75*
G02*
X54867001Y-68933010I200000J0D01*
G01*
X55417001Y-68933010D01*
G75*
G02*
X55617001Y-69133010I0J-200000D01*
G01*
X55617001Y-69533010D01*
G75*
G02*
X55417001Y-69733010I-200000J0D01*
G01*
G37*
D10*
X129144028Y-53158001D03*
X131044028Y-53158001D03*
X130094028Y-51158001D03*
D11*
X130602028Y-54760001D03*
X130602028Y-56160001D03*
D12*
X137649028Y-63842001D03*
X139049028Y-63842001D03*
G36*
G01*
X132260028Y-60260001D02*
X133660028Y-60260001D01*
G75*
G02*
X133810028Y-60410001I0J-150000D01*
G01*
X133810028Y-60710001D01*
G75*
G02*
X133660028Y-60860001I-150000J0D01*
G01*
X132260028Y-60860001D01*
G75*
G02*
X132110028Y-60710001I0J150000D01*
G01*
X132110028Y-60410001D01*
G75*
G02*
X132260028Y-60260001I150000J0D01*
G01*
G37*
G36*
G01*
X132260028Y-61510001D02*
X133660028Y-61510001D01*
G75*
G02*
X133810028Y-61660001I0J-150000D01*
G01*
X133810028Y-61960001D01*
G75*
G02*
X133660028Y-62110001I-150000J0D01*
G01*
X132260028Y-62110001D01*
G75*
G02*
X132110028Y-61960001I0J150000D01*
G01*
X132110028Y-61660001D01*
G75*
G02*
X132260028Y-61510001I150000J0D01*
G01*
G37*
G36*
G01*
X132260028Y-62760001D02*
X133660028Y-62760001D01*
G75*
G02*
X133810028Y-62910001I0J-150000D01*
G01*
X133810028Y-63210001D01*
G75*
G02*
X133660028Y-63360001I-150000J0D01*
G01*
X132260028Y-63360001D01*
G75*
G02*
X132110028Y-63210001I0J150000D01*
G01*
X132110028Y-62910001D01*
G75*
G02*
X132260028Y-62760001I150000J0D01*
G01*
G37*
G36*
G01*
X128660028Y-58210001D02*
X130860028Y-58210001D01*
G75*
G02*
X131110028Y-58460001I0J-250000D01*
G01*
X131110028Y-58960001D01*
G75*
G02*
X130860028Y-59210001I-250000J0D01*
G01*
X128660028Y-59210001D01*
G75*
G02*
X128410028Y-58960001I0J250000D01*
G01*
X128410028Y-58460001D01*
G75*
G02*
X128660028Y-58210001I250000J0D01*
G01*
G37*
G36*
G01*
X128660028Y-64410001D02*
X130860028Y-64410001D01*
G75*
G02*
X131110028Y-64660001I0J-250000D01*
G01*
X131110028Y-65160001D01*
G75*
G02*
X130860028Y-65410001I-250000J0D01*
G01*
X128660028Y-65410001D01*
G75*
G02*
X128410028Y-65160001I0J250000D01*
G01*
X128410028Y-64660001D01*
G75*
G02*
X128660028Y-64410001I250000J0D01*
G01*
G37*
G36*
G01*
X147740028Y-55740001D02*
X146340028Y-55740001D01*
G75*
G02*
X146190028Y-55590001I0J150000D01*
G01*
X146190028Y-55290001D01*
G75*
G02*
X146340028Y-55140001I150000J0D01*
G01*
X147740028Y-55140001D01*
G75*
G02*
X147890028Y-55290001I0J-150000D01*
G01*
X147890028Y-55590001D01*
G75*
G02*
X147740028Y-55740001I-150000J0D01*
G01*
G37*
G36*
G01*
X147740028Y-54490001D02*
X146340028Y-54490001D01*
G75*
G02*
X146190028Y-54340001I0J150000D01*
G01*
X146190028Y-54040001D01*
G75*
G02*
X146340028Y-53890001I150000J0D01*
G01*
X147740028Y-53890001D01*
G75*
G02*
X147890028Y-54040001I0J-150000D01*
G01*
X147890028Y-54340001D01*
G75*
G02*
X147740028Y-54490001I-150000J0D01*
G01*
G37*
G36*
G01*
X147740028Y-53240001D02*
X146340028Y-53240001D01*
G75*
G02*
X146190028Y-53090001I0J150000D01*
G01*
X146190028Y-52790001D01*
G75*
G02*
X146340028Y-52640001I150000J0D01*
G01*
X147740028Y-52640001D01*
G75*
G02*
X147890028Y-52790001I0J-150000D01*
G01*
X147890028Y-53090001D01*
G75*
G02*
X147740028Y-53240001I-150000J0D01*
G01*
G37*
G36*
G01*
X151340028Y-57790001D02*
X149140028Y-57790001D01*
G75*
G02*
X148890028Y-57540001I0J250000D01*
G01*
X148890028Y-57040001D01*
G75*
G02*
X149140028Y-56790001I250000J0D01*
G01*
X151340028Y-56790001D01*
G75*
G02*
X151590028Y-57040001I0J-250000D01*
G01*
X151590028Y-57540001D01*
G75*
G02*
X151340028Y-57790001I-250000J0D01*
G01*
G37*
G36*
G01*
X151340028Y-51590001D02*
X149140028Y-51590001D01*
G75*
G02*
X148890028Y-51340001I0J250000D01*
G01*
X148890028Y-50840001D01*
G75*
G02*
X149140028Y-50590001I250000J0D01*
G01*
X151340028Y-50590001D01*
G75*
G02*
X151590028Y-50840001I0J-250000D01*
G01*
X151590028Y-51340001D01*
G75*
G02*
X151340028Y-51590001I-250000J0D01*
G01*
G37*
G36*
G01*
X146627028Y-65514001D02*
X146327028Y-65514001D01*
G75*
G02*
X146177028Y-65364001I0J150000D01*
G01*
X146177028Y-63914001D01*
G75*
G02*
X146327028Y-63764001I150000J0D01*
G01*
X146627028Y-63764001D01*
G75*
G02*
X146777028Y-63914001I0J-150000D01*
G01*
X146777028Y-65364001D01*
G75*
G02*
X146627028Y-65514001I-150000J0D01*
G01*
G37*
G36*
G01*
X147897028Y-65514001D02*
X147597028Y-65514001D01*
G75*
G02*
X147447028Y-65364001I0J150000D01*
G01*
X147447028Y-63914001D01*
G75*
G02*
X147597028Y-63764001I150000J0D01*
G01*
X147897028Y-63764001D01*
G75*
G02*
X148047028Y-63914001I0J-150000D01*
G01*
X148047028Y-65364001D01*
G75*
G02*
X147897028Y-65514001I-150000J0D01*
G01*
G37*
G36*
G01*
X149167028Y-65514001D02*
X148867028Y-65514001D01*
G75*
G02*
X148717028Y-65364001I0J150000D01*
G01*
X148717028Y-63914001D01*
G75*
G02*
X148867028Y-63764001I150000J0D01*
G01*
X149167028Y-63764001D01*
G75*
G02*
X149317028Y-63914001I0J-150000D01*
G01*
X149317028Y-65364001D01*
G75*
G02*
X149167028Y-65514001I-150000J0D01*
G01*
G37*
G36*
G01*
X150437028Y-65514001D02*
X150137028Y-65514001D01*
G75*
G02*
X149987028Y-65364001I0J150000D01*
G01*
X149987028Y-63914001D01*
G75*
G02*
X150137028Y-63764001I150000J0D01*
G01*
X150437028Y-63764001D01*
G75*
G02*
X150587028Y-63914001I0J-150000D01*
G01*
X150587028Y-65364001D01*
G75*
G02*
X150437028Y-65514001I-150000J0D01*
G01*
G37*
G36*
G01*
X150437028Y-60364001D02*
X150137028Y-60364001D01*
G75*
G02*
X149987028Y-60214001I0J150000D01*
G01*
X149987028Y-58764001D01*
G75*
G02*
X150137028Y-58614001I150000J0D01*
G01*
X150437028Y-58614001D01*
G75*
G02*
X150587028Y-58764001I0J-150000D01*
G01*
X150587028Y-60214001D01*
G75*
G02*
X150437028Y-60364001I-150000J0D01*
G01*
G37*
G36*
G01*
X149167028Y-60364001D02*
X148867028Y-60364001D01*
G75*
G02*
X148717028Y-60214001I0J150000D01*
G01*
X148717028Y-58764001D01*
G75*
G02*
X148867028Y-58614001I150000J0D01*
G01*
X149167028Y-58614001D01*
G75*
G02*
X149317028Y-58764001I0J-150000D01*
G01*
X149317028Y-60214001D01*
G75*
G02*
X149167028Y-60364001I-150000J0D01*
G01*
G37*
G36*
G01*
X147897028Y-60364001D02*
X147597028Y-60364001D01*
G75*
G02*
X147447028Y-60214001I0J150000D01*
G01*
X147447028Y-58764001D01*
G75*
G02*
X147597028Y-58614001I150000J0D01*
G01*
X147897028Y-58614001D01*
G75*
G02*
X148047028Y-58764001I0J-150000D01*
G01*
X148047028Y-60214001D01*
G75*
G02*
X147897028Y-60364001I-150000J0D01*
G01*
G37*
G36*
G01*
X146627028Y-60364001D02*
X146327028Y-60364001D01*
G75*
G02*
X146177028Y-60214001I0J150000D01*
G01*
X146177028Y-58764001D01*
G75*
G02*
X146327028Y-58614001I150000J0D01*
G01*
X146627028Y-58614001D01*
G75*
G02*
X146777028Y-58764001I0J-150000D01*
G01*
X146777028Y-60214001D01*
G75*
G02*
X146627028Y-60364001I-150000J0D01*
G01*
G37*
G36*
G01*
X128803028Y-54235001D02*
X129353028Y-54235001D01*
G75*
G02*
X129553028Y-54435001I0J-200000D01*
G01*
X129553028Y-54835001D01*
G75*
G02*
X129353028Y-55035001I-200000J0D01*
G01*
X128803028Y-55035001D01*
G75*
G02*
X128603028Y-54835001I0J200000D01*
G01*
X128603028Y-54435001D01*
G75*
G02*
X128803028Y-54235001I200000J0D01*
G01*
G37*
G36*
G01*
X128803028Y-55885001D02*
X129353028Y-55885001D01*
G75*
G02*
X129553028Y-56085001I0J-200000D01*
G01*
X129553028Y-56485001D01*
G75*
G02*
X129353028Y-56685001I-200000J0D01*
G01*
X128803028Y-56685001D01*
G75*
G02*
X128603028Y-56485001I0J200000D01*
G01*
X128603028Y-56085001D01*
G75*
G02*
X128803028Y-55885001I200000J0D01*
G01*
G37*
G36*
G01*
X142368028Y-63592001D02*
X142368028Y-64092001D01*
G75*
G02*
X142143028Y-64317001I-225000J0D01*
G01*
X141693028Y-64317001D01*
G75*
G02*
X141468028Y-64092001I0J225000D01*
G01*
X141468028Y-63592001D01*
G75*
G02*
X141693028Y-63367001I225000J0D01*
G01*
X142143028Y-63367001D01*
G75*
G02*
X142368028Y-63592001I0J-225000D01*
G01*
G37*
G36*
G01*
X140818028Y-63592001D02*
X140818028Y-64092001D01*
G75*
G02*
X140593028Y-64317001I-225000J0D01*
G01*
X140143028Y-64317001D01*
G75*
G02*
X139918028Y-64092001I0J225000D01*
G01*
X139918028Y-63592001D01*
G75*
G02*
X140143028Y-63367001I225000J0D01*
G01*
X140593028Y-63367001D01*
G75*
G02*
X140818028Y-63592001I0J-225000D01*
G01*
G37*
G36*
G01*
X133417028Y-53383001D02*
X132867028Y-53383001D01*
G75*
G02*
X132667028Y-53183001I0J200000D01*
G01*
X132667028Y-52783001D01*
G75*
G02*
X132867028Y-52583001I200000J0D01*
G01*
X133417028Y-52583001D01*
G75*
G02*
X133617028Y-52783001I0J-200000D01*
G01*
X133617028Y-53183001D01*
G75*
G02*
X133417028Y-53383001I-200000J0D01*
G01*
G37*
G36*
G01*
X133417028Y-51733001D02*
X132867028Y-51733001D01*
G75*
G02*
X132667028Y-51533001I0J200000D01*
G01*
X132667028Y-51133001D01*
G75*
G02*
X132867028Y-50933001I200000J0D01*
G01*
X133417028Y-50933001D01*
G75*
G02*
X133617028Y-51133001I0J-200000D01*
G01*
X133617028Y-51533001D01*
G75*
G02*
X133417028Y-51733001I-200000J0D01*
G01*
G37*
D10*
X103144019Y-53158001D03*
X105044019Y-53158001D03*
X104094019Y-51158001D03*
D11*
X104602019Y-54760001D03*
X104602019Y-56160001D03*
D12*
X111649019Y-63842001D03*
X113049019Y-63842001D03*
G36*
G01*
X106260019Y-60260001D02*
X107660019Y-60260001D01*
G75*
G02*
X107810019Y-60410001I0J-150000D01*
G01*
X107810019Y-60710001D01*
G75*
G02*
X107660019Y-60860001I-150000J0D01*
G01*
X106260019Y-60860001D01*
G75*
G02*
X106110019Y-60710001I0J150000D01*
G01*
X106110019Y-60410001D01*
G75*
G02*
X106260019Y-60260001I150000J0D01*
G01*
G37*
G36*
G01*
X106260019Y-61510001D02*
X107660019Y-61510001D01*
G75*
G02*
X107810019Y-61660001I0J-150000D01*
G01*
X107810019Y-61960001D01*
G75*
G02*
X107660019Y-62110001I-150000J0D01*
G01*
X106260019Y-62110001D01*
G75*
G02*
X106110019Y-61960001I0J150000D01*
G01*
X106110019Y-61660001D01*
G75*
G02*
X106260019Y-61510001I150000J0D01*
G01*
G37*
G36*
G01*
X106260019Y-62760001D02*
X107660019Y-62760001D01*
G75*
G02*
X107810019Y-62910001I0J-150000D01*
G01*
X107810019Y-63210001D01*
G75*
G02*
X107660019Y-63360001I-150000J0D01*
G01*
X106260019Y-63360001D01*
G75*
G02*
X106110019Y-63210001I0J150000D01*
G01*
X106110019Y-62910001D01*
G75*
G02*
X106260019Y-62760001I150000J0D01*
G01*
G37*
G36*
G01*
X102660019Y-58210001D02*
X104860019Y-58210001D01*
G75*
G02*
X105110019Y-58460001I0J-250000D01*
G01*
X105110019Y-58960001D01*
G75*
G02*
X104860019Y-59210001I-250000J0D01*
G01*
X102660019Y-59210001D01*
G75*
G02*
X102410019Y-58960001I0J250000D01*
G01*
X102410019Y-58460001D01*
G75*
G02*
X102660019Y-58210001I250000J0D01*
G01*
G37*
G36*
G01*
X102660019Y-64410001D02*
X104860019Y-64410001D01*
G75*
G02*
X105110019Y-64660001I0J-250000D01*
G01*
X105110019Y-65160001D01*
G75*
G02*
X104860019Y-65410001I-250000J0D01*
G01*
X102660019Y-65410001D01*
G75*
G02*
X102410019Y-65160001I0J250000D01*
G01*
X102410019Y-64660001D01*
G75*
G02*
X102660019Y-64410001I250000J0D01*
G01*
G37*
G36*
G01*
X121740019Y-55740001D02*
X120340019Y-55740001D01*
G75*
G02*
X120190019Y-55590001I0J150000D01*
G01*
X120190019Y-55290001D01*
G75*
G02*
X120340019Y-55140001I150000J0D01*
G01*
X121740019Y-55140001D01*
G75*
G02*
X121890019Y-55290001I0J-150000D01*
G01*
X121890019Y-55590001D01*
G75*
G02*
X121740019Y-55740001I-150000J0D01*
G01*
G37*
G36*
G01*
X121740019Y-54490001D02*
X120340019Y-54490001D01*
G75*
G02*
X120190019Y-54340001I0J150000D01*
G01*
X120190019Y-54040001D01*
G75*
G02*
X120340019Y-53890001I150000J0D01*
G01*
X121740019Y-53890001D01*
G75*
G02*
X121890019Y-54040001I0J-150000D01*
G01*
X121890019Y-54340001D01*
G75*
G02*
X121740019Y-54490001I-150000J0D01*
G01*
G37*
G36*
G01*
X121740019Y-53240001D02*
X120340019Y-53240001D01*
G75*
G02*
X120190019Y-53090001I0J150000D01*
G01*
X120190019Y-52790001D01*
G75*
G02*
X120340019Y-52640001I150000J0D01*
G01*
X121740019Y-52640001D01*
G75*
G02*
X121890019Y-52790001I0J-150000D01*
G01*
X121890019Y-53090001D01*
G75*
G02*
X121740019Y-53240001I-150000J0D01*
G01*
G37*
G36*
G01*
X125340019Y-57790001D02*
X123140019Y-57790001D01*
G75*
G02*
X122890019Y-57540001I0J250000D01*
G01*
X122890019Y-57040001D01*
G75*
G02*
X123140019Y-56790001I250000J0D01*
G01*
X125340019Y-56790001D01*
G75*
G02*
X125590019Y-57040001I0J-250000D01*
G01*
X125590019Y-57540001D01*
G75*
G02*
X125340019Y-57790001I-250000J0D01*
G01*
G37*
G36*
G01*
X125340019Y-51590001D02*
X123140019Y-51590001D01*
G75*
G02*
X122890019Y-51340001I0J250000D01*
G01*
X122890019Y-50840001D01*
G75*
G02*
X123140019Y-50590001I250000J0D01*
G01*
X125340019Y-50590001D01*
G75*
G02*
X125590019Y-50840001I0J-250000D01*
G01*
X125590019Y-51340001D01*
G75*
G02*
X125340019Y-51590001I-250000J0D01*
G01*
G37*
G36*
G01*
X120627019Y-65514001D02*
X120327019Y-65514001D01*
G75*
G02*
X120177019Y-65364001I0J150000D01*
G01*
X120177019Y-63914001D01*
G75*
G02*
X120327019Y-63764001I150000J0D01*
G01*
X120627019Y-63764001D01*
G75*
G02*
X120777019Y-63914001I0J-150000D01*
G01*
X120777019Y-65364001D01*
G75*
G02*
X120627019Y-65514001I-150000J0D01*
G01*
G37*
G36*
G01*
X121897019Y-65514001D02*
X121597019Y-65514001D01*
G75*
G02*
X121447019Y-65364001I0J150000D01*
G01*
X121447019Y-63914001D01*
G75*
G02*
X121597019Y-63764001I150000J0D01*
G01*
X121897019Y-63764001D01*
G75*
G02*
X122047019Y-63914001I0J-150000D01*
G01*
X122047019Y-65364001D01*
G75*
G02*
X121897019Y-65514001I-150000J0D01*
G01*
G37*
G36*
G01*
X123167019Y-65514001D02*
X122867019Y-65514001D01*
G75*
G02*
X122717019Y-65364001I0J150000D01*
G01*
X122717019Y-63914001D01*
G75*
G02*
X122867019Y-63764001I150000J0D01*
G01*
X123167019Y-63764001D01*
G75*
G02*
X123317019Y-63914001I0J-150000D01*
G01*
X123317019Y-65364001D01*
G75*
G02*
X123167019Y-65514001I-150000J0D01*
G01*
G37*
G36*
G01*
X124437019Y-65514001D02*
X124137019Y-65514001D01*
G75*
G02*
X123987019Y-65364001I0J150000D01*
G01*
X123987019Y-63914001D01*
G75*
G02*
X124137019Y-63764001I150000J0D01*
G01*
X124437019Y-63764001D01*
G75*
G02*
X124587019Y-63914001I0J-150000D01*
G01*
X124587019Y-65364001D01*
G75*
G02*
X124437019Y-65514001I-150000J0D01*
G01*
G37*
G36*
G01*
X124437019Y-60364001D02*
X124137019Y-60364001D01*
G75*
G02*
X123987019Y-60214001I0J150000D01*
G01*
X123987019Y-58764001D01*
G75*
G02*
X124137019Y-58614001I150000J0D01*
G01*
X124437019Y-58614001D01*
G75*
G02*
X124587019Y-58764001I0J-150000D01*
G01*
X124587019Y-60214001D01*
G75*
G02*
X124437019Y-60364001I-150000J0D01*
G01*
G37*
G36*
G01*
X123167019Y-60364001D02*
X122867019Y-60364001D01*
G75*
G02*
X122717019Y-60214001I0J150000D01*
G01*
X122717019Y-58764001D01*
G75*
G02*
X122867019Y-58614001I150000J0D01*
G01*
X123167019Y-58614001D01*
G75*
G02*
X123317019Y-58764001I0J-150000D01*
G01*
X123317019Y-60214001D01*
G75*
G02*
X123167019Y-60364001I-150000J0D01*
G01*
G37*
G36*
G01*
X121897019Y-60364001D02*
X121597019Y-60364001D01*
G75*
G02*
X121447019Y-60214001I0J150000D01*
G01*
X121447019Y-58764001D01*
G75*
G02*
X121597019Y-58614001I150000J0D01*
G01*
X121897019Y-58614001D01*
G75*
G02*
X122047019Y-58764001I0J-150000D01*
G01*
X122047019Y-60214001D01*
G75*
G02*
X121897019Y-60364001I-150000J0D01*
G01*
G37*
G36*
G01*
X120627019Y-60364001D02*
X120327019Y-60364001D01*
G75*
G02*
X120177019Y-60214001I0J150000D01*
G01*
X120177019Y-58764001D01*
G75*
G02*
X120327019Y-58614001I150000J0D01*
G01*
X120627019Y-58614001D01*
G75*
G02*
X120777019Y-58764001I0J-150000D01*
G01*
X120777019Y-60214001D01*
G75*
G02*
X120627019Y-60364001I-150000J0D01*
G01*
G37*
G36*
G01*
X102803019Y-54235001D02*
X103353019Y-54235001D01*
G75*
G02*
X103553019Y-54435001I0J-200000D01*
G01*
X103553019Y-54835001D01*
G75*
G02*
X103353019Y-55035001I-200000J0D01*
G01*
X102803019Y-55035001D01*
G75*
G02*
X102603019Y-54835001I0J200000D01*
G01*
X102603019Y-54435001D01*
G75*
G02*
X102803019Y-54235001I200000J0D01*
G01*
G37*
G36*
G01*
X102803019Y-55885001D02*
X103353019Y-55885001D01*
G75*
G02*
X103553019Y-56085001I0J-200000D01*
G01*
X103553019Y-56485001D01*
G75*
G02*
X103353019Y-56685001I-200000J0D01*
G01*
X102803019Y-56685001D01*
G75*
G02*
X102603019Y-56485001I0J200000D01*
G01*
X102603019Y-56085001D01*
G75*
G02*
X102803019Y-55885001I200000J0D01*
G01*
G37*
G36*
G01*
X116368019Y-63592001D02*
X116368019Y-64092001D01*
G75*
G02*
X116143019Y-64317001I-225000J0D01*
G01*
X115693019Y-64317001D01*
G75*
G02*
X115468019Y-64092001I0J225000D01*
G01*
X115468019Y-63592001D01*
G75*
G02*
X115693019Y-63367001I225000J0D01*
G01*
X116143019Y-63367001D01*
G75*
G02*
X116368019Y-63592001I0J-225000D01*
G01*
G37*
G36*
G01*
X114818019Y-63592001D02*
X114818019Y-64092001D01*
G75*
G02*
X114593019Y-64317001I-225000J0D01*
G01*
X114143019Y-64317001D01*
G75*
G02*
X113918019Y-64092001I0J225000D01*
G01*
X113918019Y-63592001D01*
G75*
G02*
X114143019Y-63367001I225000J0D01*
G01*
X114593019Y-63367001D01*
G75*
G02*
X114818019Y-63592001I0J-225000D01*
G01*
G37*
G36*
G01*
X107417019Y-53383001D02*
X106867019Y-53383001D01*
G75*
G02*
X106667019Y-53183001I0J200000D01*
G01*
X106667019Y-52783001D01*
G75*
G02*
X106867019Y-52583001I200000J0D01*
G01*
X107417019Y-52583001D01*
G75*
G02*
X107617019Y-52783001I0J-200000D01*
G01*
X107617019Y-53183001D01*
G75*
G02*
X107417019Y-53383001I-200000J0D01*
G01*
G37*
G36*
G01*
X107417019Y-51733001D02*
X106867019Y-51733001D01*
G75*
G02*
X106667019Y-51533001I0J200000D01*
G01*
X106667019Y-51133001D01*
G75*
G02*
X106867019Y-50933001I200000J0D01*
G01*
X107417019Y-50933001D01*
G75*
G02*
X107617019Y-51133001I0J-200000D01*
G01*
X107617019Y-51533001D01*
G75*
G02*
X107417019Y-51733001I-200000J0D01*
G01*
G37*
D10*
X77144010Y-53158001D03*
X79044010Y-53158001D03*
X78094010Y-51158001D03*
D11*
X78602010Y-54760001D03*
X78602010Y-56160001D03*
D12*
X85649010Y-63842001D03*
X87049010Y-63842001D03*
G36*
G01*
X80260010Y-60260001D02*
X81660010Y-60260001D01*
G75*
G02*
X81810010Y-60410001I0J-150000D01*
G01*
X81810010Y-60710001D01*
G75*
G02*
X81660010Y-60860001I-150000J0D01*
G01*
X80260010Y-60860001D01*
G75*
G02*
X80110010Y-60710001I0J150000D01*
G01*
X80110010Y-60410001D01*
G75*
G02*
X80260010Y-60260001I150000J0D01*
G01*
G37*
G36*
G01*
X80260010Y-61510001D02*
X81660010Y-61510001D01*
G75*
G02*
X81810010Y-61660001I0J-150000D01*
G01*
X81810010Y-61960001D01*
G75*
G02*
X81660010Y-62110001I-150000J0D01*
G01*
X80260010Y-62110001D01*
G75*
G02*
X80110010Y-61960001I0J150000D01*
G01*
X80110010Y-61660001D01*
G75*
G02*
X80260010Y-61510001I150000J0D01*
G01*
G37*
G36*
G01*
X80260010Y-62760001D02*
X81660010Y-62760001D01*
G75*
G02*
X81810010Y-62910001I0J-150000D01*
G01*
X81810010Y-63210001D01*
G75*
G02*
X81660010Y-63360001I-150000J0D01*
G01*
X80260010Y-63360001D01*
G75*
G02*
X80110010Y-63210001I0J150000D01*
G01*
X80110010Y-62910001D01*
G75*
G02*
X80260010Y-62760001I150000J0D01*
G01*
G37*
G36*
G01*
X76660010Y-58210001D02*
X78860010Y-58210001D01*
G75*
G02*
X79110010Y-58460001I0J-250000D01*
G01*
X79110010Y-58960001D01*
G75*
G02*
X78860010Y-59210001I-250000J0D01*
G01*
X76660010Y-59210001D01*
G75*
G02*
X76410010Y-58960001I0J250000D01*
G01*
X76410010Y-58460001D01*
G75*
G02*
X76660010Y-58210001I250000J0D01*
G01*
G37*
G36*
G01*
X76660010Y-64410001D02*
X78860010Y-64410001D01*
G75*
G02*
X79110010Y-64660001I0J-250000D01*
G01*
X79110010Y-65160001D01*
G75*
G02*
X78860010Y-65410001I-250000J0D01*
G01*
X76660010Y-65410001D01*
G75*
G02*
X76410010Y-65160001I0J250000D01*
G01*
X76410010Y-64660001D01*
G75*
G02*
X76660010Y-64410001I250000J0D01*
G01*
G37*
G36*
G01*
X95740010Y-55740001D02*
X94340010Y-55740001D01*
G75*
G02*
X94190010Y-55590001I0J150000D01*
G01*
X94190010Y-55290001D01*
G75*
G02*
X94340010Y-55140001I150000J0D01*
G01*
X95740010Y-55140001D01*
G75*
G02*
X95890010Y-55290001I0J-150000D01*
G01*
X95890010Y-55590001D01*
G75*
G02*
X95740010Y-55740001I-150000J0D01*
G01*
G37*
G36*
G01*
X95740010Y-54490001D02*
X94340010Y-54490001D01*
G75*
G02*
X94190010Y-54340001I0J150000D01*
G01*
X94190010Y-54040001D01*
G75*
G02*
X94340010Y-53890001I150000J0D01*
G01*
X95740010Y-53890001D01*
G75*
G02*
X95890010Y-54040001I0J-150000D01*
G01*
X95890010Y-54340001D01*
G75*
G02*
X95740010Y-54490001I-150000J0D01*
G01*
G37*
G36*
G01*
X95740010Y-53240001D02*
X94340010Y-53240001D01*
G75*
G02*
X94190010Y-53090001I0J150000D01*
G01*
X94190010Y-52790001D01*
G75*
G02*
X94340010Y-52640001I150000J0D01*
G01*
X95740010Y-52640001D01*
G75*
G02*
X95890010Y-52790001I0J-150000D01*
G01*
X95890010Y-53090001D01*
G75*
G02*
X95740010Y-53240001I-150000J0D01*
G01*
G37*
G36*
G01*
X99340010Y-57790001D02*
X97140010Y-57790001D01*
G75*
G02*
X96890010Y-57540001I0J250000D01*
G01*
X96890010Y-57040001D01*
G75*
G02*
X97140010Y-56790001I250000J0D01*
G01*
X99340010Y-56790001D01*
G75*
G02*
X99590010Y-57040001I0J-250000D01*
G01*
X99590010Y-57540001D01*
G75*
G02*
X99340010Y-57790001I-250000J0D01*
G01*
G37*
G36*
G01*
X99340010Y-51590001D02*
X97140010Y-51590001D01*
G75*
G02*
X96890010Y-51340001I0J250000D01*
G01*
X96890010Y-50840001D01*
G75*
G02*
X97140010Y-50590001I250000J0D01*
G01*
X99340010Y-50590001D01*
G75*
G02*
X99590010Y-50840001I0J-250000D01*
G01*
X99590010Y-51340001D01*
G75*
G02*
X99340010Y-51590001I-250000J0D01*
G01*
G37*
G36*
G01*
X94627010Y-65514001D02*
X94327010Y-65514001D01*
G75*
G02*
X94177010Y-65364001I0J150000D01*
G01*
X94177010Y-63914001D01*
G75*
G02*
X94327010Y-63764001I150000J0D01*
G01*
X94627010Y-63764001D01*
G75*
G02*
X94777010Y-63914001I0J-150000D01*
G01*
X94777010Y-65364001D01*
G75*
G02*
X94627010Y-65514001I-150000J0D01*
G01*
G37*
G36*
G01*
X95897010Y-65514001D02*
X95597010Y-65514001D01*
G75*
G02*
X95447010Y-65364001I0J150000D01*
G01*
X95447010Y-63914001D01*
G75*
G02*
X95597010Y-63764001I150000J0D01*
G01*
X95897010Y-63764001D01*
G75*
G02*
X96047010Y-63914001I0J-150000D01*
G01*
X96047010Y-65364001D01*
G75*
G02*
X95897010Y-65514001I-150000J0D01*
G01*
G37*
G36*
G01*
X97167010Y-65514001D02*
X96867010Y-65514001D01*
G75*
G02*
X96717010Y-65364001I0J150000D01*
G01*
X96717010Y-63914001D01*
G75*
G02*
X96867010Y-63764001I150000J0D01*
G01*
X97167010Y-63764001D01*
G75*
G02*
X97317010Y-63914001I0J-150000D01*
G01*
X97317010Y-65364001D01*
G75*
G02*
X97167010Y-65514001I-150000J0D01*
G01*
G37*
G36*
G01*
X98437010Y-65514001D02*
X98137010Y-65514001D01*
G75*
G02*
X97987010Y-65364001I0J150000D01*
G01*
X97987010Y-63914001D01*
G75*
G02*
X98137010Y-63764001I150000J0D01*
G01*
X98437010Y-63764001D01*
G75*
G02*
X98587010Y-63914001I0J-150000D01*
G01*
X98587010Y-65364001D01*
G75*
G02*
X98437010Y-65514001I-150000J0D01*
G01*
G37*
G36*
G01*
X98437010Y-60364001D02*
X98137010Y-60364001D01*
G75*
G02*
X97987010Y-60214001I0J150000D01*
G01*
X97987010Y-58764001D01*
G75*
G02*
X98137010Y-58614001I150000J0D01*
G01*
X98437010Y-58614001D01*
G75*
G02*
X98587010Y-58764001I0J-150000D01*
G01*
X98587010Y-60214001D01*
G75*
G02*
X98437010Y-60364001I-150000J0D01*
G01*
G37*
G36*
G01*
X97167010Y-60364001D02*
X96867010Y-60364001D01*
G75*
G02*
X96717010Y-60214001I0J150000D01*
G01*
X96717010Y-58764001D01*
G75*
G02*
X96867010Y-58614001I150000J0D01*
G01*
X97167010Y-58614001D01*
G75*
G02*
X97317010Y-58764001I0J-150000D01*
G01*
X97317010Y-60214001D01*
G75*
G02*
X97167010Y-60364001I-150000J0D01*
G01*
G37*
G36*
G01*
X95897010Y-60364001D02*
X95597010Y-60364001D01*
G75*
G02*
X95447010Y-60214001I0J150000D01*
G01*
X95447010Y-58764001D01*
G75*
G02*
X95597010Y-58614001I150000J0D01*
G01*
X95897010Y-58614001D01*
G75*
G02*
X96047010Y-58764001I0J-150000D01*
G01*
X96047010Y-60214001D01*
G75*
G02*
X95897010Y-60364001I-150000J0D01*
G01*
G37*
G36*
G01*
X94627010Y-60364001D02*
X94327010Y-60364001D01*
G75*
G02*
X94177010Y-60214001I0J150000D01*
G01*
X94177010Y-58764001D01*
G75*
G02*
X94327010Y-58614001I150000J0D01*
G01*
X94627010Y-58614001D01*
G75*
G02*
X94777010Y-58764001I0J-150000D01*
G01*
X94777010Y-60214001D01*
G75*
G02*
X94627010Y-60364001I-150000J0D01*
G01*
G37*
G36*
G01*
X76803010Y-54235001D02*
X77353010Y-54235001D01*
G75*
G02*
X77553010Y-54435001I0J-200000D01*
G01*
X77553010Y-54835001D01*
G75*
G02*
X77353010Y-55035001I-200000J0D01*
G01*
X76803010Y-55035001D01*
G75*
G02*
X76603010Y-54835001I0J200000D01*
G01*
X76603010Y-54435001D01*
G75*
G02*
X76803010Y-54235001I200000J0D01*
G01*
G37*
G36*
G01*
X76803010Y-55885001D02*
X77353010Y-55885001D01*
G75*
G02*
X77553010Y-56085001I0J-200000D01*
G01*
X77553010Y-56485001D01*
G75*
G02*
X77353010Y-56685001I-200000J0D01*
G01*
X76803010Y-56685001D01*
G75*
G02*
X76603010Y-56485001I0J200000D01*
G01*
X76603010Y-56085001D01*
G75*
G02*
X76803010Y-55885001I200000J0D01*
G01*
G37*
G36*
G01*
X90368010Y-63592001D02*
X90368010Y-64092001D01*
G75*
G02*
X90143010Y-64317001I-225000J0D01*
G01*
X89693010Y-64317001D01*
G75*
G02*
X89468010Y-64092001I0J225000D01*
G01*
X89468010Y-63592001D01*
G75*
G02*
X89693010Y-63367001I225000J0D01*
G01*
X90143010Y-63367001D01*
G75*
G02*
X90368010Y-63592001I0J-225000D01*
G01*
G37*
G36*
G01*
X88818010Y-63592001D02*
X88818010Y-64092001D01*
G75*
G02*
X88593010Y-64317001I-225000J0D01*
G01*
X88143010Y-64317001D01*
G75*
G02*
X87918010Y-64092001I0J225000D01*
G01*
X87918010Y-63592001D01*
G75*
G02*
X88143010Y-63367001I225000J0D01*
G01*
X88593010Y-63367001D01*
G75*
G02*
X88818010Y-63592001I0J-225000D01*
G01*
G37*
G36*
G01*
X81417010Y-53383001D02*
X80867010Y-53383001D01*
G75*
G02*
X80667010Y-53183001I0J200000D01*
G01*
X80667010Y-52783001D01*
G75*
G02*
X80867010Y-52583001I200000J0D01*
G01*
X81417010Y-52583001D01*
G75*
G02*
X81617010Y-52783001I0J-200000D01*
G01*
X81617010Y-53183001D01*
G75*
G02*
X81417010Y-53383001I-200000J0D01*
G01*
G37*
G36*
G01*
X81417010Y-51733001D02*
X80867010Y-51733001D01*
G75*
G02*
X80667010Y-51533001I0J200000D01*
G01*
X80667010Y-51133001D01*
G75*
G02*
X80867010Y-50933001I200000J0D01*
G01*
X81417010Y-50933001D01*
G75*
G02*
X81617010Y-51133001I0J-200000D01*
G01*
X81617010Y-51533001D01*
G75*
G02*
X81417010Y-51733001I-200000J0D01*
G01*
G37*
D10*
X51144001Y-53158001D03*
X53044001Y-53158001D03*
X52094001Y-51158001D03*
D11*
X52602001Y-54760001D03*
X52602001Y-56160001D03*
D12*
X59649001Y-63842001D03*
X61049001Y-63842001D03*
G36*
G01*
X54260001Y-60260001D02*
X55660001Y-60260001D01*
G75*
G02*
X55810001Y-60410001I0J-150000D01*
G01*
X55810001Y-60710001D01*
G75*
G02*
X55660001Y-60860001I-150000J0D01*
G01*
X54260001Y-60860001D01*
G75*
G02*
X54110001Y-60710001I0J150000D01*
G01*
X54110001Y-60410001D01*
G75*
G02*
X54260001Y-60260001I150000J0D01*
G01*
G37*
G36*
G01*
X54260001Y-61510001D02*
X55660001Y-61510001D01*
G75*
G02*
X55810001Y-61660001I0J-150000D01*
G01*
X55810001Y-61960001D01*
G75*
G02*
X55660001Y-62110001I-150000J0D01*
G01*
X54260001Y-62110001D01*
G75*
G02*
X54110001Y-61960001I0J150000D01*
G01*
X54110001Y-61660001D01*
G75*
G02*
X54260001Y-61510001I150000J0D01*
G01*
G37*
G36*
G01*
X54260001Y-62760001D02*
X55660001Y-62760001D01*
G75*
G02*
X55810001Y-62910001I0J-150000D01*
G01*
X55810001Y-63210001D01*
G75*
G02*
X55660001Y-63360001I-150000J0D01*
G01*
X54260001Y-63360001D01*
G75*
G02*
X54110001Y-63210001I0J150000D01*
G01*
X54110001Y-62910001D01*
G75*
G02*
X54260001Y-62760001I150000J0D01*
G01*
G37*
G36*
G01*
X50660001Y-58210001D02*
X52860001Y-58210001D01*
G75*
G02*
X53110001Y-58460001I0J-250000D01*
G01*
X53110001Y-58960001D01*
G75*
G02*
X52860001Y-59210001I-250000J0D01*
G01*
X50660001Y-59210001D01*
G75*
G02*
X50410001Y-58960001I0J250000D01*
G01*
X50410001Y-58460001D01*
G75*
G02*
X50660001Y-58210001I250000J0D01*
G01*
G37*
G36*
G01*
X50660001Y-64410001D02*
X52860001Y-64410001D01*
G75*
G02*
X53110001Y-64660001I0J-250000D01*
G01*
X53110001Y-65160001D01*
G75*
G02*
X52860001Y-65410001I-250000J0D01*
G01*
X50660001Y-65410001D01*
G75*
G02*
X50410001Y-65160001I0J250000D01*
G01*
X50410001Y-64660001D01*
G75*
G02*
X50660001Y-64410001I250000J0D01*
G01*
G37*
G36*
G01*
X69740001Y-55740001D02*
X68340001Y-55740001D01*
G75*
G02*
X68190001Y-55590001I0J150000D01*
G01*
X68190001Y-55290001D01*
G75*
G02*
X68340001Y-55140001I150000J0D01*
G01*
X69740001Y-55140001D01*
G75*
G02*
X69890001Y-55290001I0J-150000D01*
G01*
X69890001Y-55590001D01*
G75*
G02*
X69740001Y-55740001I-150000J0D01*
G01*
G37*
G36*
G01*
X69740001Y-54490001D02*
X68340001Y-54490001D01*
G75*
G02*
X68190001Y-54340001I0J150000D01*
G01*
X68190001Y-54040001D01*
G75*
G02*
X68340001Y-53890001I150000J0D01*
G01*
X69740001Y-53890001D01*
G75*
G02*
X69890001Y-54040001I0J-150000D01*
G01*
X69890001Y-54340001D01*
G75*
G02*
X69740001Y-54490001I-150000J0D01*
G01*
G37*
G36*
G01*
X69740001Y-53240001D02*
X68340001Y-53240001D01*
G75*
G02*
X68190001Y-53090001I0J150000D01*
G01*
X68190001Y-52790001D01*
G75*
G02*
X68340001Y-52640001I150000J0D01*
G01*
X69740001Y-52640001D01*
G75*
G02*
X69890001Y-52790001I0J-150000D01*
G01*
X69890001Y-53090001D01*
G75*
G02*
X69740001Y-53240001I-150000J0D01*
G01*
G37*
G36*
G01*
X73340001Y-57790001D02*
X71140001Y-57790001D01*
G75*
G02*
X70890001Y-57540001I0J250000D01*
G01*
X70890001Y-57040001D01*
G75*
G02*
X71140001Y-56790001I250000J0D01*
G01*
X73340001Y-56790001D01*
G75*
G02*
X73590001Y-57040001I0J-250000D01*
G01*
X73590001Y-57540001D01*
G75*
G02*
X73340001Y-57790001I-250000J0D01*
G01*
G37*
G36*
G01*
X73340001Y-51590001D02*
X71140001Y-51590001D01*
G75*
G02*
X70890001Y-51340001I0J250000D01*
G01*
X70890001Y-50840001D01*
G75*
G02*
X71140001Y-50590001I250000J0D01*
G01*
X73340001Y-50590001D01*
G75*
G02*
X73590001Y-50840001I0J-250000D01*
G01*
X73590001Y-51340001D01*
G75*
G02*
X73340001Y-51590001I-250000J0D01*
G01*
G37*
G36*
G01*
X68627001Y-65514001D02*
X68327001Y-65514001D01*
G75*
G02*
X68177001Y-65364001I0J150000D01*
G01*
X68177001Y-63914001D01*
G75*
G02*
X68327001Y-63764001I150000J0D01*
G01*
X68627001Y-63764001D01*
G75*
G02*
X68777001Y-63914001I0J-150000D01*
G01*
X68777001Y-65364001D01*
G75*
G02*
X68627001Y-65514001I-150000J0D01*
G01*
G37*
G36*
G01*
X69897001Y-65514001D02*
X69597001Y-65514001D01*
G75*
G02*
X69447001Y-65364001I0J150000D01*
G01*
X69447001Y-63914001D01*
G75*
G02*
X69597001Y-63764001I150000J0D01*
G01*
X69897001Y-63764001D01*
G75*
G02*
X70047001Y-63914001I0J-150000D01*
G01*
X70047001Y-65364001D01*
G75*
G02*
X69897001Y-65514001I-150000J0D01*
G01*
G37*
G36*
G01*
X71167001Y-65514001D02*
X70867001Y-65514001D01*
G75*
G02*
X70717001Y-65364001I0J150000D01*
G01*
X70717001Y-63914001D01*
G75*
G02*
X70867001Y-63764001I150000J0D01*
G01*
X71167001Y-63764001D01*
G75*
G02*
X71317001Y-63914001I0J-150000D01*
G01*
X71317001Y-65364001D01*
G75*
G02*
X71167001Y-65514001I-150000J0D01*
G01*
G37*
G36*
G01*
X72437001Y-65514001D02*
X72137001Y-65514001D01*
G75*
G02*
X71987001Y-65364001I0J150000D01*
G01*
X71987001Y-63914001D01*
G75*
G02*
X72137001Y-63764001I150000J0D01*
G01*
X72437001Y-63764001D01*
G75*
G02*
X72587001Y-63914001I0J-150000D01*
G01*
X72587001Y-65364001D01*
G75*
G02*
X72437001Y-65514001I-150000J0D01*
G01*
G37*
G36*
G01*
X72437001Y-60364001D02*
X72137001Y-60364001D01*
G75*
G02*
X71987001Y-60214001I0J150000D01*
G01*
X71987001Y-58764001D01*
G75*
G02*
X72137001Y-58614001I150000J0D01*
G01*
X72437001Y-58614001D01*
G75*
G02*
X72587001Y-58764001I0J-150000D01*
G01*
X72587001Y-60214001D01*
G75*
G02*
X72437001Y-60364001I-150000J0D01*
G01*
G37*
G36*
G01*
X71167001Y-60364001D02*
X70867001Y-60364001D01*
G75*
G02*
X70717001Y-60214001I0J150000D01*
G01*
X70717001Y-58764001D01*
G75*
G02*
X70867001Y-58614001I150000J0D01*
G01*
X71167001Y-58614001D01*
G75*
G02*
X71317001Y-58764001I0J-150000D01*
G01*
X71317001Y-60214001D01*
G75*
G02*
X71167001Y-60364001I-150000J0D01*
G01*
G37*
G36*
G01*
X69897001Y-60364001D02*
X69597001Y-60364001D01*
G75*
G02*
X69447001Y-60214001I0J150000D01*
G01*
X69447001Y-58764001D01*
G75*
G02*
X69597001Y-58614001I150000J0D01*
G01*
X69897001Y-58614001D01*
G75*
G02*
X70047001Y-58764001I0J-150000D01*
G01*
X70047001Y-60214001D01*
G75*
G02*
X69897001Y-60364001I-150000J0D01*
G01*
G37*
G36*
G01*
X68627001Y-60364001D02*
X68327001Y-60364001D01*
G75*
G02*
X68177001Y-60214001I0J150000D01*
G01*
X68177001Y-58764001D01*
G75*
G02*
X68327001Y-58614001I150000J0D01*
G01*
X68627001Y-58614001D01*
G75*
G02*
X68777001Y-58764001I0J-150000D01*
G01*
X68777001Y-60214001D01*
G75*
G02*
X68627001Y-60364001I-150000J0D01*
G01*
G37*
G36*
G01*
X50803001Y-54235001D02*
X51353001Y-54235001D01*
G75*
G02*
X51553001Y-54435001I0J-200000D01*
G01*
X51553001Y-54835001D01*
G75*
G02*
X51353001Y-55035001I-200000J0D01*
G01*
X50803001Y-55035001D01*
G75*
G02*
X50603001Y-54835001I0J200000D01*
G01*
X50603001Y-54435001D01*
G75*
G02*
X50803001Y-54235001I200000J0D01*
G01*
G37*
G36*
G01*
X50803001Y-55885001D02*
X51353001Y-55885001D01*
G75*
G02*
X51553001Y-56085001I0J-200000D01*
G01*
X51553001Y-56485001D01*
G75*
G02*
X51353001Y-56685001I-200000J0D01*
G01*
X50803001Y-56685001D01*
G75*
G02*
X50603001Y-56485001I0J200000D01*
G01*
X50603001Y-56085001D01*
G75*
G02*
X50803001Y-55885001I200000J0D01*
G01*
G37*
G36*
G01*
X64368001Y-63592001D02*
X64368001Y-64092001D01*
G75*
G02*
X64143001Y-64317001I-225000J0D01*
G01*
X63693001Y-64317001D01*
G75*
G02*
X63468001Y-64092001I0J225000D01*
G01*
X63468001Y-63592001D01*
G75*
G02*
X63693001Y-63367001I225000J0D01*
G01*
X64143001Y-63367001D01*
G75*
G02*
X64368001Y-63592001I0J-225000D01*
G01*
G37*
G36*
G01*
X62818001Y-63592001D02*
X62818001Y-64092001D01*
G75*
G02*
X62593001Y-64317001I-225000J0D01*
G01*
X62143001Y-64317001D01*
G75*
G02*
X61918001Y-64092001I0J225000D01*
G01*
X61918001Y-63592001D01*
G75*
G02*
X62143001Y-63367001I225000J0D01*
G01*
X62593001Y-63367001D01*
G75*
G02*
X62818001Y-63592001I0J-225000D01*
G01*
G37*
G36*
G01*
X55417001Y-53383001D02*
X54867001Y-53383001D01*
G75*
G02*
X54667001Y-53183001I0J200000D01*
G01*
X54667001Y-52783001D01*
G75*
G02*
X54867001Y-52583001I200000J0D01*
G01*
X55417001Y-52583001D01*
G75*
G02*
X55617001Y-52783001I0J-200000D01*
G01*
X55617001Y-53183001D01*
G75*
G02*
X55417001Y-53383001I-200000J0D01*
G01*
G37*
G36*
G01*
X55417001Y-51733001D02*
X54867001Y-51733001D01*
G75*
G02*
X54667001Y-51533001I0J200000D01*
G01*
X54667001Y-51133001D01*
G75*
G02*
X54867001Y-50933001I200000J0D01*
G01*
X55417001Y-50933001D01*
G75*
G02*
X55617001Y-51133001I0J-200000D01*
G01*
X55617001Y-51533001D01*
G75*
G02*
X55417001Y-51733001I-200000J0D01*
G01*
G37*
M02*
