M48
; DRILL file {KiCad (5.1.8)-1} date 11/11/21 20:39:01
; FORMAT={-:-/ absolute / metric / decimal}
; #@! TF.CreationDate,2021-11-11T20:39:01+08:00
; #@! TF.GenerationSoftware,Kicad,Pcbnew,(5.1.8)-1
; #@! TF.FileFunction,NonPlated,1,2,NPTH
FMAT,2
METRIC
T1C0.500
T2C2.500
%
G90
G05
T1
X73.751Y-131.5
X76.249Y-77.5
X76.249Y-58.5
X73.751Y-76.5
X76.249Y-59.5
X99.751Y-56.5
X125.751Y-93.5
X128.249Y-95.5
X86.5Y-119.751
X102.249Y-92.5
X102.249Y-74.5
X114.5Y-104.249
X128.249Y-76.5
X63.5Y-68.249
X62.5Y-119.751
X99.751Y-77.5
X62.5Y-65.751
X140.5Y-101.751
X63.5Y-86.249
X87.5Y-68.249
X88.5Y-104.249
X62.5Y-101.751
X63.5Y-83.751
X86.5Y-104.249
X87.5Y-86.249
X114.5Y-65.751
X112.5Y-86.249
X128.249Y-130.5
X60.5Y-101.751
X102.249Y-129.5
X99.751Y-110.5
X128.249Y-129.5
X87.5Y-122.249
X102.249Y-112.5
X86.5Y-122.249
X99.751Y-112.5
X73.751Y-130.5
X88.5Y-122.249
X128.249Y-110.5
X128.249Y-58.5
X99.751Y-58.5
X73.751Y-77.5
X102.249Y-56.5
X102.249Y-57.5
X128.249Y-94.5
X102.249Y-95.5
X63.5Y-119.751
X125.751Y-75.5
X139.5Y-101.751
X73.751Y-93.5
X88.5Y-68.249
X88.5Y-119.751
X60.5Y-65.751
X60.5Y-104.249
X63.5Y-101.751
X140.5Y-65.751
X89.5Y-104.249
X88.5Y-101.751
X62.5Y-83.751
X115.5Y-101.751
X113.5Y-68.249
X113.5Y-86.249
X138.5Y-68.249
X102.249Y-128.5
X102.249Y-110.5
X139.5Y-119.751
X102.249Y-111.5
X113.5Y-122.249
X128.249Y-113.5
X99.751Y-74.5
X140.5Y-119.751
X73.751Y-128.5
X73.751Y-75.5
X76.249Y-57.5
X125.751Y-59.5
X73.751Y-56.5
X99.751Y-59.5
X125.751Y-94.5
X125.751Y-92.5
X114.5Y-119.751
X73.751Y-94.5
X138.5Y-101.751
X128.249Y-75.5
X89.5Y-83.751
X115.5Y-119.751
X141.5Y-68.249
X61.5Y-68.249
X61.5Y-104.249
X89.5Y-86.249
X115.5Y-83.751
X87.5Y-119.751
X115.5Y-86.249
X62.5Y-68.249
X113.5Y-83.751
X88.5Y-83.751
X112.5Y-101.751
X128.249Y-128.5
X139.5Y-68.249
X125.751Y-128.5
X73.751Y-110.5
X125.751Y-131.5
X115.5Y-122.249
X76.249Y-113.5
X125.751Y-112.5
X89.5Y-122.249
X128.249Y-112.5
X128.249Y-59.5
X114.5Y-122.249
X99.751Y-129.5
X125.751Y-57.5
X76.249Y-56.5
X99.751Y-75.5
X99.751Y-57.5
X102.249Y-58.5
X102.249Y-94.5
X99.751Y-94.5
X139.5Y-104.249
X128.249Y-77.5
X60.5Y-119.751
X128.249Y-74.5
X112.5Y-68.249
X113.5Y-119.751
X140.5Y-83.751
X86.5Y-68.249
X63.5Y-104.249
X86.5Y-101.751
X60.5Y-83.751
X115.5Y-104.249
X113.5Y-101.751
X61.5Y-83.751
X63.5Y-65.751
X112.5Y-83.751
X112.5Y-65.751
X140.5Y-68.249
X99.751Y-131.5
X125.751Y-110.5
X138.5Y-119.751
X128.249Y-92.5
X76.249Y-131.5
X139.5Y-122.249
X128.249Y-111.5
X76.249Y-75.5
X63.5Y-122.249
X76.249Y-128.5
X73.751Y-74.5
X102.249Y-59.5
X128.249Y-57.5
X141.5Y-122.249
X99.751Y-92.5
X128.249Y-93.5
X76.249Y-94.5
X102.249Y-75.5
X139.5Y-86.249
X125.751Y-77.5
X141.5Y-86.249
X73.751Y-92.5
X115.5Y-68.249
X112.5Y-104.249
X61.5Y-101.751
X86.5Y-65.751
X112.5Y-119.751
X89.5Y-101.751
X87.5Y-65.751
X141.5Y-119.751
X86.5Y-86.249
X89.5Y-68.249
X88.5Y-86.249
X86.5Y-83.751
X114.5Y-86.249
X102.249Y-131.5
X76.249Y-111.5
X125.751Y-130.5
X73.751Y-113.5
X138.5Y-122.249
X99.751Y-113.5
X125.751Y-113.5
X60.5Y-122.249
X99.751Y-128.5
X76.249Y-74.5
X125.751Y-111.5
X125.751Y-58.5
X73.751Y-59.5
X99.751Y-76.5
X73.751Y-57.5
X99.751Y-93.5
X76.249Y-93.5
X76.249Y-92.5
X102.249Y-77.5
X140.5Y-86.249
X125.751Y-74.5
X139.5Y-65.751
X141.5Y-101.751
X73.751Y-95.5
X87.5Y-83.751
X141.5Y-104.249
X114.5Y-101.751
X61.5Y-65.751
X61.5Y-119.751
X141.5Y-83.751
X113.5Y-65.751
X140.5Y-104.249
X114.5Y-83.751
X138.5Y-65.751
X87.5Y-101.751
X141.5Y-65.751
X62.5Y-86.249
X128.249Y-131.5
X99.751Y-111.5
X76.249Y-112.5
X140.5Y-122.249
X73.751Y-111.5
X73.751Y-129.5
X62.5Y-122.249
X99.751Y-130.5
X128.249Y-56.5
X76.249Y-130.5
X76.249Y-76.5
X125.751Y-56.5
X73.751Y-58.5
X125.751Y-95.5
X99.751Y-95.5
X102.249Y-93.5
X102.249Y-76.5
X62.5Y-104.249
X125.751Y-76.5
X60.5Y-68.249
X87.5Y-104.249
X76.249Y-95.5
X114.5Y-68.249
X113.5Y-104.249
X138.5Y-83.751
X89.5Y-65.751
X89.5Y-119.751
X139.5Y-83.751
X88.5Y-65.751
X138.5Y-104.249
X61.5Y-86.249
X115.5Y-65.751
X138.5Y-86.249
X60.5Y-86.249
X102.249Y-130.5
X102.249Y-113.5
X125.751Y-129.5
X76.249Y-110.5
X61.5Y-122.249
X73.751Y-112.5
X76.249Y-129.5
X112.5Y-122.249
T2
X57.682Y-52.412
X109.682Y-88.412
X135.682Y-99.588
X144.064Y-135.588
X109.682Y-124.412
X92.064Y-117.588
X118.064Y-135.588
X109.682Y-70.412
X109.682Y-81.588
X83.682Y-99.588
X57.682Y-124.412
X92.064Y-63.588
X66.064Y-70.412
X144.064Y-52.412
X118.064Y-124.412
X57.682Y-106.412
X118.064Y-52.412
X92.064Y-106.412
X135.682Y-124.412
X118.064Y-117.588
X135.682Y-81.588
X57.682Y-135.588
X83.682Y-135.588
X66.064Y-88.412
X92.064Y-135.588
X83.682Y-63.588
X135.682Y-52.412
X109.682Y-63.588
X144.064Y-88.412
X92.064Y-81.588
X109.682Y-52.412
X92.064Y-52.412
X144.064Y-70.412
X135.682Y-106.412
X66.064Y-99.588
X135.682Y-117.588
X109.682Y-99.588
X57.682Y-63.588
X118.064Y-99.588
X57.682Y-81.588
X83.682Y-117.588
X135.682Y-63.588
X135.682Y-135.588
X135.682Y-88.412
X83.682Y-81.588
X83.682Y-52.412
X109.682Y-117.588
X66.064Y-124.412
X92.064Y-70.412
X57.682Y-99.588
X118.064Y-88.412
X57.682Y-117.588
X66.064Y-117.588
X66.064Y-81.588
X118.064Y-63.588
X144.064Y-99.588
X57.682Y-70.412
X109.682Y-135.588
X83.682Y-70.412
X109.682Y-106.412
X144.064Y-81.588
X144.064Y-106.412
X144.064Y-124.412
X144.064Y-117.588
X118.064Y-81.588
X118.064Y-106.412
X92.064Y-124.412
X57.682Y-88.412
X92.064Y-99.588
X83.682Y-88.412
X66.064Y-63.588
X66.064Y-52.412
X83.682Y-106.412
X66.064Y-106.412
X144.064Y-63.588
X118.064Y-70.412
X135.682Y-70.412
X83.682Y-124.412
X92.064Y-88.412
X66.064Y-135.588
T0
M30
