G04 #@! TF.GenerationSoftware,KiCad,Pcbnew,(5.1.8)-1*
G04 #@! TF.CreationDate,2021-11-11T20:38:59+08:00*
G04 #@! TF.ProjectId,vibro-cloth-panelized,76696272-6f2d-4636-9c6f-74682d70616e,rev?*
G04 #@! TF.SameCoordinates,Original*
G04 #@! TF.FileFunction,Paste,Bot*
G04 #@! TF.FilePolarity,Positive*
%FSLAX46Y46*%
G04 Gerber Fmt 4.6, Leading zero omitted, Abs format (unit mm)*
G04 Created by KiCad (PCBNEW (5.1.8)-1) date 2021-11-11 20:38:59*
%MOMM*%
%LPD*%
G01*
G04 APERTURE LIST*
%ADD10R,1.350000X1.350000*%
%ADD11O,1.350000X1.350000*%
G04 APERTURE END LIST*
D10*
X134983528Y-130000037D03*
D11*
X144983528Y-130000037D03*
D10*
X108983519Y-130000037D03*
D11*
X118983519Y-130000037D03*
D10*
X82983510Y-130000037D03*
D11*
X92983510Y-130000037D03*
D10*
X56983501Y-130000037D03*
D11*
X66983501Y-130000037D03*
D10*
X134983528Y-112000028D03*
D11*
X144983528Y-112000028D03*
D10*
X108983519Y-112000028D03*
D11*
X118983519Y-112000028D03*
D10*
X82983510Y-112000028D03*
D11*
X92983510Y-112000028D03*
D10*
X56983501Y-112000028D03*
D11*
X66983501Y-112000028D03*
D10*
X134983528Y-94000019D03*
D11*
X144983528Y-94000019D03*
D10*
X108983519Y-94000019D03*
D11*
X118983519Y-94000019D03*
D10*
X82983510Y-94000019D03*
D11*
X92983510Y-94000019D03*
D10*
X56983501Y-94000019D03*
D11*
X66983501Y-94000019D03*
D10*
X134983528Y-76000010D03*
D11*
X144983528Y-76000010D03*
D10*
X108983519Y-76000010D03*
D11*
X118983519Y-76000010D03*
D10*
X82983510Y-76000010D03*
D11*
X92983510Y-76000010D03*
D10*
X56983501Y-76000010D03*
D11*
X66983501Y-76000010D03*
D10*
X134983528Y-58000001D03*
D11*
X144983528Y-58000001D03*
D10*
X108983519Y-58000001D03*
D11*
X118983519Y-58000001D03*
D10*
X82983510Y-58000001D03*
D11*
X92983510Y-58000001D03*
D10*
X56983501Y-58000001D03*
D11*
X66983501Y-58000001D03*
M02*
