G04 #@! TF.GenerationSoftware,KiCad,Pcbnew,(5.1.8)-1*
G04 #@! TF.CreationDate,2021-11-11T20:38:59+08:00*
G04 #@! TF.ProjectId,vibro-cloth-panelized,76696272-6f2d-4636-9c6f-74682d70616e,rev?*
G04 #@! TF.SameCoordinates,Original*
G04 #@! TF.FileFunction,Other,Comment*
%FSLAX46Y46*%
G04 Gerber Fmt 4.6, Leading zero omitted, Abs format (unit mm)*
G04 Created by KiCad (PCBNEW (5.1.8)-1) date 2021-11-11 20:38:59*
%MOMM*%
%LPD*%
G01*
G04 APERTURE LIST*
%ADD10C,0.400000*%
G04 APERTURE END LIST*
D10*
X126904761Y-43548523D02*
X128904761Y-42881857D01*
X126904761Y-42215190D01*
X128142857Y-41548523D02*
X128142857Y-40024714D01*
X128714285Y-37929476D02*
X128809523Y-38024714D01*
X128904761Y-38310428D01*
X128904761Y-38500904D01*
X128809523Y-38786619D01*
X128619047Y-38977095D01*
X128428571Y-39072333D01*
X128047619Y-39167571D01*
X127761904Y-39167571D01*
X127380952Y-39072333D01*
X127190476Y-38977095D01*
X127000000Y-38786619D01*
X126904761Y-38500904D01*
X126904761Y-38310428D01*
X127000000Y-38024714D01*
X127095238Y-37929476D01*
X126904761Y-37072333D02*
X128523809Y-37072333D01*
X128714285Y-36977095D01*
X128809523Y-36881857D01*
X128904761Y-36691380D01*
X128904761Y-36310428D01*
X128809523Y-36119952D01*
X128714285Y-36024714D01*
X128523809Y-35929476D01*
X126904761Y-35929476D01*
X126904761Y-35262809D02*
X126904761Y-34119952D01*
X128904761Y-34691380D02*
X126904761Y-34691380D01*
X128000000Y-46999000D02*
X128000000Y-141001036D01*
X124904761Y-43548523D02*
X126904761Y-42881857D01*
X124904761Y-42215190D01*
X126142857Y-41548523D02*
X126142857Y-40024714D01*
X126714285Y-37929476D02*
X126809523Y-38024714D01*
X126904761Y-38310428D01*
X126904761Y-38500904D01*
X126809523Y-38786619D01*
X126619047Y-38977095D01*
X126428571Y-39072333D01*
X126047619Y-39167571D01*
X125761904Y-39167571D01*
X125380952Y-39072333D01*
X125190476Y-38977095D01*
X125000000Y-38786619D01*
X124904761Y-38500904D01*
X124904761Y-38310428D01*
X125000000Y-38024714D01*
X125095238Y-37929476D01*
X124904761Y-37072333D02*
X126523809Y-37072333D01*
X126714285Y-36977095D01*
X126809523Y-36881857D01*
X126904761Y-36691380D01*
X126904761Y-36310428D01*
X126809523Y-36119952D01*
X126714285Y-36024714D01*
X126523809Y-35929476D01*
X124904761Y-35929476D01*
X124904761Y-35262809D02*
X124904761Y-34119952D01*
X126904761Y-34691380D02*
X124904761Y-34691380D01*
X126000000Y-46999000D02*
X126000000Y-141001036D01*
X98904761Y-43548523D02*
X100904761Y-42881857D01*
X98904761Y-42215190D01*
X100142857Y-41548523D02*
X100142857Y-40024714D01*
X100714285Y-37929476D02*
X100809523Y-38024714D01*
X100904761Y-38310428D01*
X100904761Y-38500904D01*
X100809523Y-38786619D01*
X100619047Y-38977095D01*
X100428571Y-39072333D01*
X100047619Y-39167571D01*
X99761904Y-39167571D01*
X99380952Y-39072333D01*
X99190476Y-38977095D01*
X99000000Y-38786619D01*
X98904761Y-38500904D01*
X98904761Y-38310428D01*
X99000000Y-38024714D01*
X99095238Y-37929476D01*
X98904761Y-37072333D02*
X100523809Y-37072333D01*
X100714285Y-36977095D01*
X100809523Y-36881857D01*
X100904761Y-36691380D01*
X100904761Y-36310428D01*
X100809523Y-36119952D01*
X100714285Y-36024714D01*
X100523809Y-35929476D01*
X98904761Y-35929476D01*
X98904761Y-35262809D02*
X98904761Y-34119952D01*
X100904761Y-34691380D02*
X98904761Y-34691380D01*
X100000000Y-46999000D02*
X100000000Y-141001036D01*
X100904761Y-43548523D02*
X102904761Y-42881857D01*
X100904761Y-42215190D01*
X102142857Y-41548523D02*
X102142857Y-40024714D01*
X102714285Y-37929476D02*
X102809523Y-38024714D01*
X102904761Y-38310428D01*
X102904761Y-38500904D01*
X102809523Y-38786619D01*
X102619047Y-38977095D01*
X102428571Y-39072333D01*
X102047619Y-39167571D01*
X101761904Y-39167571D01*
X101380952Y-39072333D01*
X101190476Y-38977095D01*
X101000000Y-38786619D01*
X100904761Y-38500904D01*
X100904761Y-38310428D01*
X101000000Y-38024714D01*
X101095238Y-37929476D01*
X100904761Y-37072333D02*
X102523809Y-37072333D01*
X102714285Y-36977095D01*
X102809523Y-36881857D01*
X102904761Y-36691380D01*
X102904761Y-36310428D01*
X102809523Y-36119952D01*
X102714285Y-36024714D01*
X102523809Y-35929476D01*
X100904761Y-35929476D01*
X100904761Y-35262809D02*
X100904761Y-34119952D01*
X102904761Y-34691380D02*
X100904761Y-34691380D01*
X102000000Y-46999000D02*
X102000000Y-141001036D01*
X74904761Y-43548523D02*
X76904761Y-42881857D01*
X74904761Y-42215190D01*
X76142857Y-41548523D02*
X76142857Y-40024714D01*
X76714285Y-37929476D02*
X76809523Y-38024714D01*
X76904761Y-38310428D01*
X76904761Y-38500904D01*
X76809523Y-38786619D01*
X76619047Y-38977095D01*
X76428571Y-39072333D01*
X76047619Y-39167571D01*
X75761904Y-39167571D01*
X75380952Y-39072333D01*
X75190476Y-38977095D01*
X75000000Y-38786619D01*
X74904761Y-38500904D01*
X74904761Y-38310428D01*
X75000000Y-38024714D01*
X75095238Y-37929476D01*
X74904761Y-37072333D02*
X76523809Y-37072333D01*
X76714285Y-36977095D01*
X76809523Y-36881857D01*
X76904761Y-36691380D01*
X76904761Y-36310428D01*
X76809523Y-36119952D01*
X76714285Y-36024714D01*
X76523809Y-35929476D01*
X74904761Y-35929476D01*
X74904761Y-35262809D02*
X74904761Y-34119952D01*
X76904761Y-34691380D02*
X74904761Y-34691380D01*
X76000000Y-46999000D02*
X76000000Y-141001036D01*
X72904761Y-43548523D02*
X74904761Y-42881857D01*
X72904761Y-42215190D01*
X74142857Y-41548523D02*
X74142857Y-40024714D01*
X74714285Y-37929476D02*
X74809523Y-38024714D01*
X74904761Y-38310428D01*
X74904761Y-38500904D01*
X74809523Y-38786619D01*
X74619047Y-38977095D01*
X74428571Y-39072333D01*
X74047619Y-39167571D01*
X73761904Y-39167571D01*
X73380952Y-39072333D01*
X73190476Y-38977095D01*
X73000000Y-38786619D01*
X72904761Y-38500904D01*
X72904761Y-38310428D01*
X73000000Y-38024714D01*
X73095238Y-37929476D01*
X72904761Y-37072333D02*
X74523809Y-37072333D01*
X74714285Y-36977095D01*
X74809523Y-36881857D01*
X74904761Y-36691380D01*
X74904761Y-36310428D01*
X74809523Y-36119952D01*
X74714285Y-36024714D01*
X74523809Y-35929476D01*
X72904761Y-35929476D01*
X72904761Y-35262809D02*
X72904761Y-34119952D01*
X74904761Y-34691380D02*
X72904761Y-34691380D01*
X74000000Y-46999000D02*
X74000000Y-141001036D01*
X158451503Y-120904761D02*
X159118169Y-122904761D01*
X159784836Y-120904761D01*
X160451503Y-122142857D02*
X161975312Y-122142857D01*
X164070550Y-122714285D02*
X163975312Y-122809523D01*
X163689598Y-122904761D01*
X163499122Y-122904761D01*
X163213407Y-122809523D01*
X163022931Y-122619047D01*
X162927693Y-122428571D01*
X162832455Y-122047619D01*
X162832455Y-121761904D01*
X162927693Y-121380952D01*
X163022931Y-121190476D01*
X163213407Y-121000000D01*
X163499122Y-120904761D01*
X163689598Y-120904761D01*
X163975312Y-121000000D01*
X164070550Y-121095238D01*
X164927693Y-120904761D02*
X164927693Y-122523809D01*
X165022931Y-122714285D01*
X165118169Y-122809523D01*
X165308646Y-122904761D01*
X165689598Y-122904761D01*
X165880074Y-122809523D01*
X165975312Y-122714285D01*
X166070550Y-122523809D01*
X166070550Y-120904761D01*
X166737217Y-120904761D02*
X167880074Y-120904761D01*
X167308646Y-122904761D02*
X167308646Y-120904761D01*
X46999000Y-122000000D02*
X155001027Y-122000000D01*
X158451503Y-118904761D02*
X159118169Y-120904761D01*
X159784836Y-118904761D01*
X160451503Y-120142857D02*
X161975312Y-120142857D01*
X164070550Y-120714285D02*
X163975312Y-120809523D01*
X163689598Y-120904761D01*
X163499122Y-120904761D01*
X163213407Y-120809523D01*
X163022931Y-120619047D01*
X162927693Y-120428571D01*
X162832455Y-120047619D01*
X162832455Y-119761904D01*
X162927693Y-119380952D01*
X163022931Y-119190476D01*
X163213407Y-119000000D01*
X163499122Y-118904761D01*
X163689598Y-118904761D01*
X163975312Y-119000000D01*
X164070550Y-119095238D01*
X164927693Y-118904761D02*
X164927693Y-120523809D01*
X165022931Y-120714285D01*
X165118169Y-120809523D01*
X165308646Y-120904761D01*
X165689598Y-120904761D01*
X165880074Y-120809523D01*
X165975312Y-120714285D01*
X166070550Y-120523809D01*
X166070550Y-118904761D01*
X166737217Y-118904761D02*
X167880074Y-118904761D01*
X167308646Y-120904761D02*
X167308646Y-118904761D01*
X46999000Y-120000000D02*
X155001027Y-120000000D01*
X158451503Y-102904761D02*
X159118169Y-104904761D01*
X159784836Y-102904761D01*
X160451503Y-104142857D02*
X161975312Y-104142857D01*
X164070550Y-104714285D02*
X163975312Y-104809523D01*
X163689598Y-104904761D01*
X163499122Y-104904761D01*
X163213407Y-104809523D01*
X163022931Y-104619047D01*
X162927693Y-104428571D01*
X162832455Y-104047619D01*
X162832455Y-103761904D01*
X162927693Y-103380952D01*
X163022931Y-103190476D01*
X163213407Y-103000000D01*
X163499122Y-102904761D01*
X163689598Y-102904761D01*
X163975312Y-103000000D01*
X164070550Y-103095238D01*
X164927693Y-102904761D02*
X164927693Y-104523809D01*
X165022931Y-104714285D01*
X165118169Y-104809523D01*
X165308646Y-104904761D01*
X165689598Y-104904761D01*
X165880074Y-104809523D01*
X165975312Y-104714285D01*
X166070550Y-104523809D01*
X166070550Y-102904761D01*
X166737217Y-102904761D02*
X167880074Y-102904761D01*
X167308646Y-104904761D02*
X167308646Y-102904761D01*
X46999000Y-104000000D02*
X155001027Y-104000000D01*
X158451503Y-82904761D02*
X159118169Y-84904761D01*
X159784836Y-82904761D01*
X160451503Y-84142857D02*
X161975312Y-84142857D01*
X164070550Y-84714285D02*
X163975312Y-84809523D01*
X163689598Y-84904761D01*
X163499122Y-84904761D01*
X163213407Y-84809523D01*
X163022931Y-84619047D01*
X162927693Y-84428571D01*
X162832455Y-84047619D01*
X162832455Y-83761904D01*
X162927693Y-83380952D01*
X163022931Y-83190476D01*
X163213407Y-83000000D01*
X163499122Y-82904761D01*
X163689598Y-82904761D01*
X163975312Y-83000000D01*
X164070550Y-83095238D01*
X164927693Y-82904761D02*
X164927693Y-84523809D01*
X165022931Y-84714285D01*
X165118169Y-84809523D01*
X165308646Y-84904761D01*
X165689598Y-84904761D01*
X165880074Y-84809523D01*
X165975312Y-84714285D01*
X166070550Y-84523809D01*
X166070550Y-82904761D01*
X166737217Y-82904761D02*
X167880074Y-82904761D01*
X167308646Y-84904761D02*
X167308646Y-82904761D01*
X46999000Y-84000000D02*
X155001027Y-84000000D01*
X158451503Y-100904761D02*
X159118169Y-102904761D01*
X159784836Y-100904761D01*
X160451503Y-102142857D02*
X161975312Y-102142857D01*
X164070550Y-102714285D02*
X163975312Y-102809523D01*
X163689598Y-102904761D01*
X163499122Y-102904761D01*
X163213407Y-102809523D01*
X163022931Y-102619047D01*
X162927693Y-102428571D01*
X162832455Y-102047619D01*
X162832455Y-101761904D01*
X162927693Y-101380952D01*
X163022931Y-101190476D01*
X163213407Y-101000000D01*
X163499122Y-100904761D01*
X163689598Y-100904761D01*
X163975312Y-101000000D01*
X164070550Y-101095238D01*
X164927693Y-100904761D02*
X164927693Y-102523809D01*
X165022931Y-102714285D01*
X165118169Y-102809523D01*
X165308646Y-102904761D01*
X165689598Y-102904761D01*
X165880074Y-102809523D01*
X165975312Y-102714285D01*
X166070550Y-102523809D01*
X166070550Y-100904761D01*
X166737217Y-100904761D02*
X167880074Y-100904761D01*
X167308646Y-102904761D02*
X167308646Y-100904761D01*
X46999000Y-102000000D02*
X155001027Y-102000000D01*
X158451503Y-84904761D02*
X159118169Y-86904761D01*
X159784836Y-84904761D01*
X160451503Y-86142857D02*
X161975312Y-86142857D01*
X164070550Y-86714285D02*
X163975312Y-86809523D01*
X163689598Y-86904761D01*
X163499122Y-86904761D01*
X163213407Y-86809523D01*
X163022931Y-86619047D01*
X162927693Y-86428571D01*
X162832455Y-86047619D01*
X162832455Y-85761904D01*
X162927693Y-85380952D01*
X163022931Y-85190476D01*
X163213407Y-85000000D01*
X163499122Y-84904761D01*
X163689598Y-84904761D01*
X163975312Y-85000000D01*
X164070550Y-85095238D01*
X164927693Y-84904761D02*
X164927693Y-86523809D01*
X165022931Y-86714285D01*
X165118169Y-86809523D01*
X165308646Y-86904761D01*
X165689598Y-86904761D01*
X165880074Y-86809523D01*
X165975312Y-86714285D01*
X166070550Y-86523809D01*
X166070550Y-84904761D01*
X166737217Y-84904761D02*
X167880074Y-84904761D01*
X167308646Y-86904761D02*
X167308646Y-84904761D01*
X46999000Y-86000000D02*
X155001027Y-86000000D01*
X158451503Y-66904761D02*
X159118169Y-68904761D01*
X159784836Y-66904761D01*
X160451503Y-68142857D02*
X161975312Y-68142857D01*
X164070550Y-68714285D02*
X163975312Y-68809523D01*
X163689598Y-68904761D01*
X163499122Y-68904761D01*
X163213407Y-68809523D01*
X163022931Y-68619047D01*
X162927693Y-68428571D01*
X162832455Y-68047619D01*
X162832455Y-67761904D01*
X162927693Y-67380952D01*
X163022931Y-67190476D01*
X163213407Y-67000000D01*
X163499122Y-66904761D01*
X163689598Y-66904761D01*
X163975312Y-67000000D01*
X164070550Y-67095238D01*
X164927693Y-66904761D02*
X164927693Y-68523809D01*
X165022931Y-68714285D01*
X165118169Y-68809523D01*
X165308646Y-68904761D01*
X165689598Y-68904761D01*
X165880074Y-68809523D01*
X165975312Y-68714285D01*
X166070550Y-68523809D01*
X166070550Y-66904761D01*
X166737217Y-66904761D02*
X167880074Y-66904761D01*
X167308646Y-68904761D02*
X167308646Y-66904761D01*
X46999000Y-68000000D02*
X155001027Y-68000000D01*
X158451503Y-64904761D02*
X159118169Y-66904761D01*
X159784836Y-64904761D01*
X160451503Y-66142857D02*
X161975312Y-66142857D01*
X164070550Y-66714285D02*
X163975312Y-66809523D01*
X163689598Y-66904761D01*
X163499122Y-66904761D01*
X163213407Y-66809523D01*
X163022931Y-66619047D01*
X162927693Y-66428571D01*
X162832455Y-66047619D01*
X162832455Y-65761904D01*
X162927693Y-65380952D01*
X163022931Y-65190476D01*
X163213407Y-65000000D01*
X163499122Y-64904761D01*
X163689598Y-64904761D01*
X163975312Y-65000000D01*
X164070550Y-65095238D01*
X164927693Y-64904761D02*
X164927693Y-66523809D01*
X165022931Y-66714285D01*
X165118169Y-66809523D01*
X165308646Y-66904761D01*
X165689598Y-66904761D01*
X165880074Y-66809523D01*
X165975312Y-66714285D01*
X166070550Y-66523809D01*
X166070550Y-64904761D01*
X166737217Y-64904761D02*
X167880074Y-64904761D01*
X167308646Y-66904761D02*
X167308646Y-64904761D01*
X46999000Y-66000000D02*
X155001027Y-66000000D01*
M02*
